# exported by blender_batch_chars_to_s.py fallback
v 0.924580 -0.102733 0.000000
v 0.930005 -0.102230 0.000000
v 0.930052 -0.106579 0.036309
v 0.923717 -0.106731 0.000000
v 0.935479 -0.102735 0.000000
v 0.936713 -0.106759 0.000000
v 0.930344 -0.112934 0.048931
v 0.923578 -0.112934 0.000000
v 0.939197 -0.113236 0.000000
v 0.930415 -0.119535 0.060215
v 0.923566 -0.119533 0.000000
v 0.939906 -0.119597 0.053709
v 0.945946 -0.115555 0.000000
v 0.949055 -0.120158 0.000000
v 0.930423 -0.126172 0.065877
v 0.923565 -0.126172 0.000000
v 0.940018 -0.126178 0.075381
v 0.949870 -0.126259 0.056050
v 0.955926 -0.122237 0.000000
v 0.959056 -0.126800 0.000000
v 0.930423 -0.132812 0.068061
v 0.923565 -0.132812 0.000000
v 0.940027 -0.132813 0.085699
v 0.949992 -0.132819 0.079291
v 0.959902 -0.132893 0.056837
v 0.965991 -0.128864 0.000000
v 0.969525 -0.133355 0.000000
v 0.930423 -0.139453 0.069028
v 0.923565 -0.139453 0.000000
v 0.940027 -0.139453 0.090168
v 0.950001 -0.139453 0.090794
v 0.959995 -0.139458 0.081485
v 0.969966 -0.139506 0.067497
v 0.979893 -0.134910 0.000000
v 0.979970 -0.139701 0.062114
v 0.989283 -0.135280 0.000000
v 0.989594 -0.139757 0.049837
v 0.995383 -0.135918 0.000000
v 0.996671 -0.139960 0.000000
v 0.930423 -0.146094 0.069340
v 0.923565 -0.146094 0.000000
v 0.940027 -0.146094 0.092072
v 0.950001 -0.146094 0.096693
v 0.960000 -0.146094 0.092849
v 0.969999 -0.146096 0.087325
v 0.979996 -0.146111 0.083086
v 0.989919 -0.146135 0.067453
v 0.999173 -0.146439 0.000000
v 0.930423 -0.152734 0.069086
v 0.923566 -0.152732 0.000000
v 0.940027 -0.152734 0.092473
v 0.950001 -0.152734 0.100109
v 0.960000 -0.152734 0.099383
v 0.970000 -0.152734 0.096820
v 0.980000 -0.152735 0.093511
v 0.989994 -0.152738 0.082634
v 0.999910 -0.152794 0.057527
v 1.006006 -0.148746 0.000000
v 1.009481 -0.153284 0.000000
v 0.930425 -0.159372 0.066216
v 0.923584 -0.159337 0.000000
v 0.940028 -0.159375 0.089767
v 0.950001 -0.159375 0.099714
v 0.960000 -0.159375 0.103247
v 0.970000 -0.159375 0.102911
v 0.980000 -0.159375 0.099804
v 0.990000 -0.159375 0.092709
v 0.999995 -0.159379 0.081558
v 1.009941 -0.159429 0.065628
v 1.019242 -0.154945 0.000000
v 1.019591 -0.159646 0.050302
v 1.025379 -0.155803 0.000000
v 1.026668 -0.159878 0.000000
v 0.930469 -0.165965 0.054370
v 0.923757 -0.165600 0.000000
v 0.940031 -0.166013 0.083124
v 0.950001 -0.166016 0.097367
v 0.960000 -0.166016 0.104799
v 0.970000 -0.166016 0.107140
v 0.980000 -0.166016 0.104711
v 0.990000 -0.166016 0.099348
v 1.000000 -0.166016 0.092887
v 1.009995 -0.166019 0.084487
v 1.019916 -0.166055 0.067574
v 1.029102 -0.166360 0.000000
v 0.930885 -0.172342 0.000000
v 0.924698 -0.170023 0.000000
v 0.940083 -0.172634 0.071947
v 0.950004 -0.172655 0.093809
v 0.960000 -0.172656 0.103859
v 0.970000 -0.172656 0.108891
v 0.980000 -0.172656 0.108679
v 0.990000 -0.172656 0.104845
v 1.000000 -0.172656 0.099853
v 1.009999 -0.172656 0.094181
v 1.019969 -0.172660 0.082184
v 1.029534 -0.172708 0.054258
v 1.035304 -0.168651 0.000000
v 1.036282 -0.173074 0.000000
v 0.940373 -0.179292 0.066560
v 0.933162 -0.179230 0.000000
v 0.950025 -0.179297 0.089972
v 0.960001 -0.179297 0.100923
v 0.970000 -0.179297 0.107893
v 0.980000 -0.179297 0.110984
v 0.990000 -0.179297 0.109342
v 1.000000 -0.179297 0.105328
v 1.009999 -0.179297 0.099924
v 1.019975 -0.179297 0.089804
v 1.029627 -0.179302 0.066548
v 1.036842 -0.179364 0.000000
v 0.940466 -0.185886 0.054314
v 0.933718 -0.185520 0.000000
v 0.950031 -0.185935 0.082706
v 0.960001 -0.185937 0.096665
v 0.970000 -0.185937 0.104972
v 0.980000 -0.185937 0.110691
v 0.990000 -0.185937 0.112509
v 1.000000 -0.185937 0.109923
v 1.010000 -0.185938 0.104019
v 1.019996 -0.185938 0.093825
v 1.029921 -0.185959 0.071994
v 1.039186 -0.186252 0.000000
v 0.940898 -0.192237 0.000000
v 0.934696 -0.189943 0.000000
v 0.950084 -0.192553 0.069047
v 0.960004 -0.192577 0.090638
v 0.970000 -0.192578 0.101358
v 0.980000 -0.192578 0.109177
v 0.990000 -0.192578 0.114143
v 1.000000 -0.192578 0.113202
v 1.010000 -0.192578 0.106966
v 1.020000 -0.192578 0.097804
v 1.029994 -0.192581 0.083698
v 1.039910 -0.192637 0.057667
v 1.046007 -0.188587 0.000000
v 1.049481 -0.193127 0.000000
v 0.950395 -0.199167 0.054775
v 0.943330 -0.198775 0.000000
v 0.960026 -0.199216 0.083287
v 0.970001 -0.199219 0.097963
v 0.980000 -0.199219 0.107517
v 0.990000 -0.199219 0.114190
v 1.000000 -0.199219 0.115022
v 1.010000 -0.199219 0.109411
v 1.020000 -0.199219 0.101648
v 1.030000 -0.199219 0.092989
v 1.039994 -0.199223 0.081580
v 1.049941 -0.199273 0.065628
v 1.059242 -0.194789 0.000000
v 1.059591 -0.199490 0.050304
v 1.065379 -0.195647 0.000000
v 1.066671 -0.199722 0.000000
v 0.950570 -0.205569 0.000000
v 0.944597 -0.203226 0.000000
v 0.960038 -0.205839 0.072756
v 0.970001 -0.205859 0.095128
v 0.980000 -0.205859 0.106611
v 0.990000 -0.205859 0.114252
v 1.000000 -0.205859 0.116768
v 1.010000 -0.205859 0.112258
v 1.020000 -0.205859 0.105802
v 1.030000 -0.205859 0.099469
v 1.040000 -0.205859 0.092894
v 1.049995 -0.205863 0.084490
v 1.059919 -0.205899 0.067621
v 1.069173 -0.206204 0.000000
v 0.960039 -0.212520 0.072724
v 0.950574 -0.212790 0.000000
v 0.970001 -0.212501 0.095062
v 0.980000 -0.212500 0.106549
v 0.990000 -0.212500 0.114578
v 1.000000 -0.212500 0.118552
v 1.010000 -0.212500 0.115514
v 1.020000 -0.212500 0.110220
v 1.030000 -0.212500 0.105034
v 1.040000 -0.212500 0.099868
v 1.050000 -0.212500 0.094231
v 1.059994 -0.212504 0.082720
v 1.069912 -0.212560 0.057558
v 1.076010 -0.208511 0.000000
v 1.079526 -0.213041 0.000000
v 0.944655 -0.215131 0.000000
v 0.950447 -0.219190 0.054129
v 0.943754 -0.219555 0.000000
v 0.960029 -0.219143 0.082821
v 0.970001 -0.219141 0.097255
v 0.980000 -0.219141 0.106619
v 0.990000 -0.219141 0.114273
v 1.000000 -0.219141 0.119275
v 1.010000 -0.219141 0.118625
v 1.020000 -0.219141 0.114630
v 1.030000 -0.219141 0.110016
v 1.040000 -0.219141 0.105432
v 1.050000 -0.219141 0.100323
v 1.060000 -0.219141 0.092773
v 1.069996 -0.219145 0.081712
v 1.079966 -0.219193 0.067511
v 1.089893 -0.214597 0.000000
v 1.089970 -0.219388 0.062114
v 1.099283 -0.214968 0.000000
v 1.099594 -0.219444 0.049837
v 1.105383 -0.215605 0.000000
v 1.106671 -0.219647 0.000000
v 0.950427 -0.225780 0.063269
v 0.943602 -0.225781 0.000000
v 0.960028 -0.225781 0.086863
v 0.970001 -0.225781 0.097424
v 0.980000 -0.225781 0.105025
v 0.990000 -0.225781 0.112259
v 1.000000 -0.225781 0.118497
v 1.010000 -0.225781 0.121138
v 1.020000 -0.225781 0.118927
v 1.030000 -0.225781 0.114816
v 1.040000 -0.225781 0.110496
v 1.050000 -0.225781 0.105345
v 1.060000 -0.225781 0.099429
v 1.070000 -0.225781 0.093176
v 1.079999 -0.225784 0.087346
v 1.089996 -0.225798 0.083086
v 1.099919 -0.225823 0.067452
v 1.109169 -0.226127 0.000000
v 0.950479 -0.232350 0.053277
v 0.943759 -0.232005 0.000000
v 0.960033 -0.232417 0.079332
v 0.970001 -0.232422 0.092626
v 0.980000 -0.232422 0.101589
v 0.990000 -0.232422 0.109722
v 1.000000 -0.232422 0.117228
v 1.010000 -0.232422 0.122552
v 1.020000 -0.232422 0.122733
v 1.030000 -0.232422 0.119428
v 1.040000 -0.232422 0.115162
v 1.050000 -0.232422 0.110119
v 1.060000 -0.232422 0.105054
v 1.070000 -0.232422 0.100250
v 1.080000 -0.232422 0.096910
v 1.090000 -0.232423 0.093516
v 1.099993 -0.232426 0.082612
v 1.109876 -0.232488 0.057128
v 1.115940 -0.228446 0.000000
v 1.118987 -0.233047 0.000000
v 0.951013 -0.238438 0.000000
v 0.944718 -0.236386 0.000000
v 0.960124 -0.238998 0.057254
v 0.970008 -0.239059 0.083707
v 0.980000 -0.239062 0.098009
v 0.990000 -0.239062 0.107761
v 1.000000 -0.239063 0.116132
v 1.010000 -0.239062 0.123080
v 1.020000 -0.239062 0.126066
v 1.030000 -0.239062 0.123891
v 1.040000 -0.239062 0.119567
v 1.050000 -0.239062 0.114739
v 1.060000 -0.239062 0.110105
v 1.070000 -0.239062 0.106127
v 1.080000 -0.239063 0.103418
v 1.090000 -0.239062 0.099848
v 1.099999 -0.239063 0.092543
v 1.109967 -0.239068 0.079591
v 1.119521 -0.239135 0.053573
v 1.125282 -0.235098 0.000000
v 1.126242 -0.239482 0.000000
v 0.960817 -0.245389 0.000000
v 0.954059 -0.243041 0.000000
v 0.970079 -0.245681 0.072485
v 0.980004 -0.245702 0.095076
v 0.990000 -0.245703 0.106750
v 1.000000 -0.245703 0.115641
v 1.010000 -0.245703 0.123500
v 1.020000 -0.245703 0.128777
v 1.030000 -0.245703 0.128089
v 1.040000 -0.245703 0.123972
v 1.050000 -0.245703 0.119372
v 1.060000 -0.245703 0.115015
v 1.070000 -0.245703 0.111599
v 1.080000 -0.245703 0.109042
v 1.090000 -0.245703 0.104976
v 1.099999 -0.245703 0.098883
v 1.109972 -0.245703 0.089173
v 1.119574 -0.245707 0.066114
v 1.126416 -0.245742 0.000000
v 0.970371 -0.252342 0.069976
v 0.963140 -0.252315 0.000000
v 0.980025 -0.252344 0.094438
v 0.990001 -0.252344 0.106534
v 1.000000 -0.252344 0.115536
v 1.010000 -0.252344 0.123694
v 1.020000 -0.252344 0.130218
v 1.030000 -0.252344 0.131653
v 1.040000 -0.252344 0.128330
v 1.050000 -0.252344 0.123952
v 1.060000 -0.252344 0.119900
v 1.070000 -0.252344 0.116859
v 1.080000 -0.252344 0.114212
v 1.090000 -0.252344 0.109635
v 1.099999 -0.252344 0.103395
v 1.109973 -0.252344 0.093006
v 1.119577 -0.252344 0.069132
v 1.126434 -0.252346 0.000000
v 0.970420 -0.258984 0.069659
v 0.963526 -0.258983 0.000000
v 0.980027 -0.258984 0.094373
v 0.990001 -0.258984 0.106510
v 1.000000 -0.258984 0.115530
v 1.010000 -0.258984 0.123820
v 1.020000 -0.258984 0.131187
v 1.030000 -0.258984 0.134936
v 1.040000 -0.258984 0.132751
v 1.050000 -0.258984 0.128619
v 1.060000 -0.258984 0.124835
v 1.070000 -0.258984 0.121877
v 1.080000 -0.258984 0.118601
v 1.090000 -0.258984 0.113151
v 1.099999 -0.258984 0.105668
v 1.109973 -0.258984 0.094139
v 1.119577 -0.258984 0.069592
v 1.126435 -0.258984 0.000000
v 0.970423 -0.265625 0.069639
v 0.963563 -0.265625 0.000000
v 0.980027 -0.265625 0.094369
v 0.990001 -0.265625 0.106509
v 1.000000 -0.265625 0.115535
v 1.010000 -0.265625 0.123902
v 1.020000 -0.265625 0.131839
v 1.030000 -0.265625 0.137477
v 1.040000 -0.265625 0.136990
v 1.050000 -0.265625 0.133399
v 1.060000 -0.265625 0.129828
v 1.070000 -0.265625 0.126548
v 1.080000 -0.265625 0.121888
v 1.090000 -0.265625 0.114942
v 1.099999 -0.265625 0.106374
v 1.109973 -0.265625 0.094347
v 1.119577 -0.265625 0.069636
v 1.126437 -0.265625 0.000000
v 0.970423 -0.272266 0.069639
v 0.963563 -0.272266 0.000000
v 0.980027 -0.272266 0.094369
v 0.990001 -0.272266 0.106509
v 1.000000 -0.272266 0.115536
v 1.010000 -0.272266 0.123926
v 1.020000 -0.272266 0.132101
v 1.030000 -0.272266 0.138943
v 1.040000 -0.272266 0.140876
v 1.050000 -0.272266 0.138182
v 1.060000 -0.272266 0.134543
v 1.070000 -0.272266 0.130054
v 1.080000 -0.272266 0.123434
v 1.090000 -0.272266 0.115450
v 1.099999 -0.272266 0.106498
v 1.109973 -0.272266 0.094371
v 1.119580 -0.272266 0.069659
v 1.126474 -0.272267 0.000000
v 0.970420 -0.278906 0.069659
v 0.963526 -0.278908 0.000000
v 0.980027 -0.278906 0.094373
v 0.990001 -0.278906 0.106511
v 1.000000 -0.278906 0.115537
v 1.010000 -0.278906 0.123937
v 1.020000 -0.278906 0.132244
v 1.030000 -0.278906 0.139968
v 1.040000 -0.278906 0.144297
v 1.050000 -0.278906 0.142311
v 1.060000 -0.278906 0.137895
v 1.070000 -0.278906 0.131574
v 1.080000 -0.278906 0.123829
v 1.090000 -0.278906 0.115536
v 1.099999 -0.278906 0.106532
v 1.109975 -0.278906 0.094437
v 1.119629 -0.278908 0.069974
v 1.126857 -0.278935 0.000000
v 0.970371 -0.285549 0.069974
v 0.963143 -0.285576 0.000000
v 0.980025 -0.285547 0.094438
v 0.990001 -0.285547 0.106534
v 1.000000 -0.285547 0.115553
v 1.010000 -0.285547 0.123954
v 1.020000 -0.285547 0.132322
v 1.030000 -0.285547 0.140477
v 1.040000 -0.285547 0.145982
v 1.050000 -0.285547 0.143780
v 1.060000 -0.285547 0.138175
v 1.070000 -0.285547 0.131271
v 1.080000 -0.285547 0.123658
v 1.090000 -0.285547 0.115558
v 1.100000 -0.285547 0.106721
v 1.109996 -0.285548 0.095061
v 1.119918 -0.285569 0.072432
v 1.129116 -0.285859 0.000000
v 0.970083 -0.292209 0.072440
v 0.960884 -0.292500 0.000000
v 0.980004 -0.292188 0.095074
v 0.990000 -0.292188 0.106752
v 1.000000 -0.292188 0.115687
v 1.010000 -0.292188 0.124057
v 1.020000 -0.292188 0.132403
v 1.030000 -0.292188 0.140484
v 1.040000 -0.292188 0.145567
v 1.050000 -0.292188 0.142116
v 1.060000 -0.292188 0.135719
v 1.070000 -0.292188 0.129107
v 1.080000 -0.292188 0.122524
v 1.090000 -0.292188 0.115355
v 1.100000 -0.292188 0.107414
v 1.109999 -0.292188 0.097775
v 1.119969 -0.292190 0.083087
v 1.129531 -0.292238 0.054340
v 1.135302 -0.288180 0.000000
v 1.136243 -0.292603 0.000000
v 0.954695 -0.294821 0.000000
v 0.960466 -0.298879 0.054397
v 0.953718 -0.299245 0.000000
v 0.970031 -0.298831 0.083207
v 0.980001 -0.298828 0.097966
v 0.990000 -0.298828 0.107770
v 1.000000 -0.298828 0.116301
v 1.010000 -0.298828 0.124526
v 1.020000 -0.298828 0.132739
v 1.030000 -0.298828 0.140345
v 1.040000 -0.298828 0.144034
v 1.050000 -0.298828 0.139481
v 1.060000 -0.298828 0.132582
v 1.070000 -0.298828 0.125868
v 1.080000 -0.298828 0.119684
v 1.090000 -0.298828 0.113743
v 1.100000 -0.298828 0.107490
v 1.109999 -0.298828 0.099756
v 1.119972 -0.298828 0.088959
v 1.129575 -0.298831 0.065767
v 1.136415 -0.298865 0.000000
v 0.960374 -0.305474 0.066565
v 0.953162 -0.305536 0.000000
v 0.970025 -0.305469 0.090028
v 0.980001 -0.305469 0.101289
v 0.990000 -0.305469 0.109741
v 1.000000 -0.305469 0.117692
v 1.010000 -0.305469 0.125621
v 1.020000 -0.305469 0.133582
v 1.030000 -0.305469 0.140492
v 1.040000 -0.305469 0.142417
v 1.050000 -0.305469 0.137016
v 1.060000 -0.305469 0.129723
v 1.070000 -0.305469 0.122630
v 1.080000 -0.305469 0.116074
v 1.090000 -0.305469 0.110120
v 1.100000 -0.305469 0.104509
v 1.109999 -0.305469 0.097965
v 1.119972 -0.305469 0.088297
v 1.129574 -0.305465 0.065665
v 1.136415 -0.305432 0.000000
v 0.960083 -0.312131 0.071951
v 0.950884 -0.312423 0.000000
v 0.970004 -0.312110 0.093880
v 0.980000 -0.312109 0.104528
v 0.990000 -0.312109 0.112396
v 1.000000 -0.312109 0.119812
v 1.010000 -0.312109 0.127345
v 1.020000 -0.312109 0.134877
v 1.030000 -0.312109 0.140819
v 1.040000 -0.312109 0.141052
v 1.050000 -0.312109 0.134997
v 1.060000 -0.312109 0.127372
v 1.070000 -0.312109 0.119847
v 1.080000 -0.312109 0.112637
v 1.090000 -0.312109 0.105813
v 1.100000 -0.312109 0.099350
v 1.109999 -0.312109 0.091938
v 1.119967 -0.312103 0.079395
v 1.129521 -0.312037 0.053531
v 1.136242 -0.311690 0.000000
v 0.944695 -0.314743 0.000000
v 0.950466 -0.318801 0.054392
v 0.943718 -0.319167 0.000000
v 0.960031 -0.318753 0.083163
v 0.970001 -0.318750 0.097772
v 0.980000 -0.318750 0.107213
v 0.990000 -0.318750 0.115111
v 1.000000 -0.318750 0.122360
v 1.010000 -0.318750 0.129418
v 1.020000 -0.318750 0.135951
v 1.030000 -0.318750 0.140205
v 1.040000 -0.318750 0.139346
v 1.050000 -0.318750 0.133278
v 1.060000 -0.318750 0.125573
v 1.070000 -0.318750 0.117689
v 1.080000 -0.318750 0.109779
v 1.090000 -0.318750 0.101679
v 1.100000 -0.318750 0.092872
v 1.109991 -0.318744 0.080123
v 1.119866 -0.318663 0.056464
v 1.128986 -0.318123 0.000000
v 1.135282 -0.316073 0.000000
v 0.950373 -0.325396 0.066565
v 0.943162 -0.325458 0.000000
v 0.960025 -0.325391 0.090026
v 0.970001 -0.325391 0.101271
v 0.980000 -0.325391 0.109660
v 0.990000 -0.325391 0.117409
v 1.000000 -0.325391 0.124655
v 1.010000 -0.325391 0.130816
v 1.020000 -0.325391 0.135163
v 1.030000 -0.325391 0.136930
v 1.040000 -0.325391 0.135899
v 1.050000 -0.325391 0.131095
v 1.060000 -0.325391 0.124124
v 1.070000 -0.325391 0.116223
v 1.080000 -0.325391 0.107761
v 1.090000 -0.325391 0.098014
v 1.099993 -0.325387 0.083723
v 1.109879 -0.325326 0.057318
v 1.119054 -0.324764 0.000000
v 1.125921 -0.322685 0.000000
v 0.950082 -0.332053 0.071954
v 0.940881 -0.332345 0.000000
v 0.960004 -0.332032 0.093881
v 0.970000 -0.332031 0.104526
v 0.980000 -0.332031 0.112364
v 0.990000 -0.332031 0.119513
v 1.000000 -0.332031 0.125722
v 1.010000 -0.332031 0.129772
v 1.020000 -0.332031 0.131539
v 1.030000 -0.332031 0.131897
v 1.040000 -0.332031 0.131054
v 1.050000 -0.332031 0.127643
v 1.060000 -0.332031 0.122232
v 1.070000 -0.332031 0.115116
v 1.080000 -0.332031 0.106621
v 1.089996 -0.332030 0.095060
v 1.099921 -0.332010 0.072485
v 1.109183 -0.331717 0.000000
v 1.115946 -0.329369 0.000000
v 0.934640 -0.334667 0.000000
v 0.940417 -0.338724 0.054708
v 0.933334 -0.339116 0.000000
v 0.950028 -0.338675 0.083226
v 0.960001 -0.338672 0.097782
v 0.970000 -0.338672 0.107200
v 0.980000 -0.338672 0.114933
v 0.990000 -0.338672 0.121138
v 1.000000 -0.338672 0.124872
v 1.010000 -0.338672 0.126168
v 1.020000 -0.338672 0.126474
v 1.030000 -0.338672 0.126443
v 1.040000 -0.338672 0.125814
v 1.050000 -0.338672 0.123289
v 1.060000 -0.338672 0.118898
v 1.070000 -0.338672 0.113181
v 1.079999 -0.338672 0.105723
v 1.089975 -0.338672 0.094284
v 1.099629 -0.338670 0.069961
v 1.106860 -0.338643 0.000000
v 0.940085 -0.345337 0.069045
v 0.930898 -0.345654 0.000000
v 0.950004 -0.345313 0.090637
v 0.960000 -0.345313 0.101388
v 0.970000 -0.345313 0.109593
v 0.980000 -0.345313 0.116640
v 0.990000 -0.345313 0.120999
v 1.000000 -0.345313 0.121626
v 1.010000 -0.345313 0.121205
v 1.020000 -0.345312 0.121045
v 1.030000 -0.345312 0.120976
v 1.040000 -0.345313 0.120566
v 1.050000 -0.345313 0.118687
v 1.060000 -0.345313 0.114566
v 1.070000 -0.345313 0.109620
v 1.079999 -0.345313 0.103564
v 1.089973 -0.345313 0.093531
v 1.099581 -0.345312 0.069529
v 1.106474 -0.345311 0.000000
v 0.924696 -0.347948 0.000000
v 0.930466 -0.352005 0.054314
v 0.923718 -0.352371 0.000000
v 0.940031 -0.351956 0.082707
v 0.950001 -0.351953 0.096685
v 0.960000 -0.351953 0.105207
v 0.970000 -0.351953 0.112168
v 0.980000 -0.351953 0.117289
v 0.990000 -0.351953 0.118374
v 1.000000 -0.351953 0.116892
v 1.010000 -0.351953 0.115795
v 1.020000 -0.351953 0.115522
v 1.030000 -0.351953 0.115472
v 1.040000 -0.351953 0.115260
v 1.050000 -0.351953 0.113936
v 1.060000 -0.351953 0.109922
v 1.070000 -0.351953 0.104950
v 1.079999 -0.351953 0.099370
v 1.089973 -0.351953 0.091119
v 1.099577 -0.351952 0.068765
v 1.106436 -0.351951 0.000000
v 0.930373 -0.358599 0.066562
v 0.923159 -0.358661 0.000000
v 0.940025 -0.358594 0.089980
v 0.950001 -0.358594 0.101038
v 0.960000 -0.358594 0.108783
v 0.970000 -0.358594 0.114598
v 0.980000 -0.358594 0.116767
v 0.990000 -0.358594 0.114629
v 1.000000 -0.358594 0.111707
v 1.010000 -0.358594 0.110176
v 1.020000 -0.358594 0.109823
v 1.030000 -0.358594 0.109773
v 1.040000 -0.358594 0.109640
v 1.050000 -0.358594 0.108654
v 1.060000 -0.358594 0.105009
v 1.070000 -0.358594 0.099375
v 1.079999 -0.358594 0.092829
v 1.089971 -0.358591 0.083947
v 1.099575 -0.358576 0.064796
v 1.106417 -0.358552 0.000000
v 0.930079 -0.365256 0.071997
v 0.920814 -0.365549 0.000000
v 0.940004 -0.365235 0.093879
v 0.950000 -0.365234 0.104465
v 0.960000 -0.365234 0.111789
v 0.970000 -0.365234 0.116165
v 0.980000 -0.365234 0.114792
v 0.990000 -0.365234 0.110308
v 1.000000 -0.365234 0.106248
v 1.010000 -0.365234 0.104185
v 1.020000 -0.365234 0.103711
v 1.030000 -0.365234 0.103651
v 1.040000 -0.365234 0.103574
v 1.050000 -0.365234 0.102952
v 1.060000 -0.365234 0.100034
v 1.070000 -0.365234 0.092786
v 1.079995 -0.365230 0.081563
v 1.089938 -0.365181 0.065583
v 1.099540 -0.364965 0.049969
v 1.106245 -0.364760 0.000000
v 0.913992 -0.367884 0.000000
v 0.920090 -0.371934 0.057669
v 0.910515 -0.372424 0.000000
v 0.930006 -0.371878 0.083698
v 0.940000 -0.371875 0.097815
v 0.950000 -0.371875 0.107094
v 0.960000 -0.371875 0.113955
v 0.970000 -0.371875 0.116271
v 0.980000 -0.371875 0.112129
v 0.990000 -0.371875 0.105909
v 1.000000 -0.371875 0.100451
v 1.010000 -0.371875 0.097339
v 1.020000 -0.371874 0.096609
v 1.030000 -0.371874 0.096524
v 1.040000 -0.371874 0.096530
v 1.050000 -0.371875 0.096459
v 1.060000 -0.371875 0.094638
v 1.069994 -0.371872 0.083211
v 1.079910 -0.371816 0.057627
v 1.089481 -0.371326 0.000000
v 1.099237 -0.369665 0.000000
v 1.105321 -0.368809 0.000000
v 0.894039 -0.374969 0.000000
v 0.900674 -0.374088 0.000000
v 0.900115 -0.378799 0.052872
v 0.891012 -0.379185 0.000000
v 0.910038 -0.378570 0.066055
v 0.920005 -0.378520 0.081613
v 0.930000 -0.378516 0.092990
v 0.940000 -0.378516 0.101650
v 0.950000 -0.378516 0.109439
v 0.960000 -0.378516 0.115271
v 0.970000 -0.378516 0.115272
v 0.980000 -0.378516 0.109444
v 0.990000 -0.378516 0.101740
v 1.000000 -0.378516 0.093974
v 1.009999 -0.378514 0.087763
v 1.020000 -0.378499 0.086253
v 1.030000 -0.378498 0.086087
v 1.040000 -0.378499 0.086203
v 1.050001 -0.378513 0.086991
v 1.059996 -0.378514 0.087420
v 1.069921 -0.378493 0.070758
v 1.079186 -0.378201 0.000000
v 1.086007 -0.375866 0.000000
v 0.884718 -0.381195 0.000000
v 0.890479 -0.385231 0.053397
v 0.883758 -0.385576 0.000000
v 0.900033 -0.385176 0.078093
v 0.910002 -0.385159 0.086500
v 0.920000 -0.385156 0.093099
v 0.930000 -0.385156 0.099480
v 0.940000 -0.385156 0.105787
v 0.950000 -0.385156 0.112121
v 0.960000 -0.385156 0.116271
v 0.970000 -0.385156 0.113955
v 0.980000 -0.385156 0.107099
v 0.990000 -0.385156 0.097939
v 0.999997 -0.385155 0.085283
v 1.009977 -0.385125 0.068465
v 1.019998 -0.384912 0.064237
v 1.030000 -0.384880 0.063731
v 1.040003 -0.384910 0.064134
v 1.050032 -0.385101 0.067152
v 1.059979 -0.385135 0.076483
v 1.069627 -0.385134 0.063998
v 1.076842 -0.385085 0.000000
v 0.890426 -0.391801 0.066030
v 0.883582 -0.391835 0.000000
v 0.900028 -0.391798 0.088459
v 0.910001 -0.391797 0.095887
v 0.920000 -0.391797 0.100125
v 0.930000 -0.391797 0.105049
v 0.940000 -0.391797 0.110117
v 0.950000 -0.391797 0.114775
v 0.960000 -0.391797 0.116164
v 0.970000 -0.391797 0.111789
v 0.980000 -0.391797 0.104465
v 0.989998 -0.391796 0.093899
v 0.999953 -0.391782 0.072375
v 1.009656 -0.391567 0.000000
v 1.019970 -0.389742 0.000000
v 1.030001 -0.389483 0.000000
v 1.040043 -0.389711 0.000000
v 1.050469 -0.391210 0.000000
v 1.060046 -0.391484 0.050715
v 1.069551 -0.391491 0.047892
v 1.076284 -0.391317 0.000000
v 0.890420 -0.398438 0.069105
v 0.883527 -0.398441 0.000000
v 0.900027 -0.398438 0.092601
v 0.910001 -0.398438 0.101565
v 0.920000 -0.398438 0.105814
v 0.930000 -0.398438 0.110035
v 0.940000 -0.398438 0.114272
v 0.950000 -0.398438 0.116725
v 0.960000 -0.398438 0.114595
v 0.970000 -0.398438 0.108783
v 0.979999 -0.398438 0.101038
v 0.989975 -0.398437 0.089980
v 0.999629 -0.398433 0.066591
v 1.006885 -0.398379 0.000000
v 1.060563 -0.395931 0.000000
v 1.053961 -0.395317 0.000000
v 1.069338 -0.395932 0.000000
v 1.075332 -0.395331 0.000000
v 0.890371 -0.405080 0.069914
v 0.883143 -0.405107 0.000000
v 0.900025 -0.405078 0.094054
v 0.910001 -0.405078 0.104775
v 0.920000 -0.405078 0.110456
v 0.930000 -0.405078 0.114655
v 0.940000 -0.405078 0.117812
v 0.950000 -0.405078 0.117209
v 0.960000 -0.405078 0.112161
v 0.970000 -0.405078 0.105207
v 0.979999 -0.405078 0.096685
v 0.989969 -0.405075 0.082707
v 0.999534 -0.405027 0.054315
v 1.006284 -0.404661 0.000000
v 0.890083 -0.411740 0.072436
v 0.880884 -0.412031 0.000000
v 0.900004 -0.411720 0.095020
v 0.910000 -0.411719 0.106340
v 0.920000 -0.411719 0.113791
v 0.930000 -0.411719 0.118608
v 0.940000 -0.411719 0.120170
v 0.950000 -0.411719 0.116496
v 0.960000 -0.411719 0.109578
v 0.970000 -0.411719 0.101387
v 0.979996 -0.411718 0.090637
v 0.989915 -0.411694 0.069045
v 0.999102 -0.411377 0.000000
v 1.005304 -0.409083 0.000000
v 0.874698 -0.414352 0.000000
v 0.880469 -0.418410 0.054376
v 0.873757 -0.418775 0.000000
v 0.890031 -0.418362 0.083204
v 0.900001 -0.418359 0.097960
v 0.910000 -0.418359 0.107698
v 0.920000 -0.418359 0.115655
v 0.930000 -0.418359 0.120909
v 0.940000 -0.418359 0.120231
v 0.950000 -0.418359 0.114809
v 0.960000 -0.418359 0.107190
v 0.969999 -0.418359 0.097782
v 0.979972 -0.418357 0.083226
v 0.989583 -0.418307 0.054708
v 0.996666 -0.417915 0.000000
v 0.880425 -0.425003 0.066229
v 0.873582 -0.425039 0.000000
v 0.890028 -0.425000 0.089960
v 0.900001 -0.425000 0.101263
v 0.910000 -0.425000 0.109679
v 0.920000 -0.425000 0.117017
v 0.930000 -0.425000 0.121223
v 0.940000 -0.425000 0.118415
v 0.950000 -0.425000 0.112157
v 0.960000 -0.425000 0.104496
v 0.969996 -0.424999 0.093878
v 0.979918 -0.424978 0.071954
v 0.989120 -0.424686 0.000000
v 0.995360 -0.422365 0.000000
v 0.880420 -0.431641 0.069169
v 0.873527 -0.431644 0.000000
v 0.890027 -0.431641 0.093181
v 0.900001 -0.431641 0.104291
v 0.910000 -0.431641 0.112137
v 0.920000 -0.431641 0.118252
v 0.930000 -0.431641 0.119870
v 0.940000 -0.431641 0.115472
v 0.950000 -0.431641 0.108897
v 0.959999 -0.431641 0.101046
v 0.969975 -0.431640 0.089980
v 0.979627 -0.431635 0.066560
v 0.986838 -0.431573 0.000000
v 0.880371 -0.438283 0.069931
v 0.873143 -0.438310 0.000000
v 0.890025 -0.438281 0.094251
v 0.900001 -0.438281 0.106008
v 0.910000 -0.438281 0.114229
v 0.920000 -0.438281 0.119482
v 0.930000 -0.438281 0.118240
v 0.940000 -0.438281 0.112380
v 0.950000 -0.438281 0.105228
v 0.959999 -0.438281 0.096686
v 0.969969 -0.438278 0.082707
v 0.979534 -0.438230 0.054314
v 0.986282 -0.437864 0.000000
v 0.880082 -0.444944 0.072441
v 0.870880 -0.445234 0.000000
v 0.890004 -0.444923 0.095057
v 0.900000 -0.444922 0.106660
v 0.910000 -0.444922 0.115078
v 0.920000 -0.444922 0.120053
v 0.930000 -0.444922 0.116783
v 0.940000 -0.444922 0.109676
v 0.950000 -0.444922 0.101407
v 0.959996 -0.444921 0.090640
v 0.969915 -0.444897 0.069045
v 0.979102 -0.444581 0.000000
v 0.985304 -0.442286 0.000000
v 0.864640 -0.447557 0.000000
v 0.870417 -0.451615 0.054713
v 0.863334 -0.452007 0.000000
v 0.880028 -0.451565 0.083270
v 0.890001 -0.451563 0.097974
v 0.900000 -0.451562 0.107727
v 0.910000 -0.451562 0.115725
v 0.920000 -0.451562 0.120198
v 0.930000 -0.451562 0.115731
v 0.940000 -0.451562 0.107730
v 0.949999 -0.451562 0.097974
v 0.959972 -0.451560 0.083270
v 0.969583 -0.451510 0.054713
v 0.976666 -0.451118 0.000000
v 0.870085 -0.458228 0.069044
v 0.860898 -0.458544 0.000000
v 0.880004 -0.458204 0.090639
v 0.890000 -0.458203 0.101406
v 0.900000 -0.458203 0.109684
v 0.910000 -0.458203 0.116860
v 0.920000 -0.458203 0.120334
v 0.930000 -0.458203 0.115229
v 0.940000 -0.458203 0.106721
v 0.949996 -0.458202 0.095073
v 0.959918 -0.458181 0.072444
v 0.969120 -0.457891 0.000000
v 0.975360 -0.455568 0.000000
v 0.854699 -0.460838 0.000000
v 0.860469 -0.464895 0.054292
v 0.853757 -0.465260 0.000000
v 0.870031 -0.464847 0.082696
v 0.880001 -0.464844 0.096673
v 0.890000 -0.464844 0.105220
v 0.900000 -0.464844 0.112423
v 0.910000 -0.464844 0.118622
v 0.920000 -0.464844 0.120745
v 0.930000 -0.464844 0.115164
v 0.939999 -0.464844 0.106509
v 0.949975 -0.464844 0.094437
v 0.959629 -0.464842 0.069975
v 0.966859 -0.464815 0.000000
v 0.860425 -0.471488 0.066188
v 0.853584 -0.471523 0.000000
v 0.870028 -0.471485 0.089798
v 0.880001 -0.471484 0.100864
v 0.890000 -0.471484 0.108732
v 0.900000 -0.471484 0.115478
v 0.910000 -0.471484 0.120785
v 0.920000 -0.471484 0.121326
v 0.930000 -0.471484 0.115227
v 0.939999 -0.471484 0.106492
v 0.949973 -0.471484 0.094375
v 0.959584 -0.471484 0.069680
v 0.966513 -0.471484 0.000000
v 0.860423 -0.478125 0.068691
v 0.853567 -0.478125 0.000000
v 0.870027 -0.478125 0.092228
v 0.880001 -0.478125 0.103026
v 0.890000 -0.478125 0.110812
v 0.900000 -0.478125 0.117711
v 0.910000 -0.478125 0.122626
v 0.920000 -0.478125 0.121869
v 0.930000 -0.478125 0.115315
v 0.939999 -0.478125 0.106520
v 0.949975 -0.478125 0.094438
v 0.959629 -0.478127 0.069975
v 0.966859 -0.478154 0.000000
v 0.860425 -0.484762 0.066193
v 0.853584 -0.484727 0.000000
v 0.870028 -0.484766 0.089846
v 0.880001 -0.484766 0.101105
v 0.890000 -0.484766 0.109526
v 0.900000 -0.484766 0.117137
v 0.910000 -0.484766 0.122689
v 0.920000 -0.484766 0.121990
v 0.930000 -0.484766 0.115451
v 0.940000 -0.484766 0.106737
v 0.949996 -0.484766 0.095073
v 0.959917 -0.484787 0.072440
v 0.969116 -0.485078 0.000000
v 0.860469 -0.491356 0.054374
v 0.853757 -0.490990 0.000000
v 0.870031 -0.491404 0.083196
v 0.880001 -0.491406 0.097953
v 0.890000 -0.491406 0.107739
v 0.900000 -0.491406 0.116013
v 0.910000 -0.491406 0.122188
v 0.920000 -0.491406 0.122220
v 0.930000 -0.491406 0.116033
v 0.940000 -0.491406 0.107753
v 0.949999 -0.491406 0.097965
v 0.959969 -0.491409 0.083207
v 0.969534 -0.491457 0.054397
v 0.975305 -0.487399 0.000000
v 0.976282 -0.491824 0.000000
v 0.860884 -0.497735 0.000000
v 0.854698 -0.495414 0.000000
v 0.870082 -0.498025 0.072440
v 0.880004 -0.498046 0.095072
v 0.890000 -0.498047 0.106733
v 0.900000 -0.498047 0.115445
v 0.910000 -0.498047 0.122038
v 0.920000 -0.498047 0.123018
v 0.930000 -0.498047 0.117385
v 0.940000 -0.498047 0.109722
v 0.949999 -0.498047 0.101288
v 0.959975 -0.498047 0.090028
v 0.969627 -0.498052 0.066565
v 0.976838 -0.498114 0.000000
v 0.870371 -0.504686 0.069972
v 0.863143 -0.504659 0.000000
v 0.880025 -0.504687 0.094422
v 0.890001 -0.504688 0.106462
v 0.900000 -0.504688 0.115224
v 0.910000 -0.504688 0.122066
v 0.920000 -0.504687 0.124265
v 0.930000 -0.504687 0.119431
v 0.940000 -0.504687 0.112371
v 0.950000 -0.504687 0.104527
v 0.959996 -0.504688 0.093880
v 0.969917 -0.504709 0.071951
v 0.979116 -0.505001 0.000000
v 0.870420 -0.511328 0.069616
v 0.863526 -0.511327 0.000000
v 0.880027 -0.511328 0.094186
v 0.890001 -0.511328 0.106003
v 0.900000 -0.511328 0.114468
v 0.910000 -0.511328 0.121388
v 0.920000 -0.511328 0.125171
v 0.930000 -0.511328 0.121715
v 0.940000 -0.511328 0.115058
v 0.950000 -0.511328 0.107211
v 0.959999 -0.511328 0.097772
v 0.969969 -0.511331 0.083163
v 0.979535 -0.511379 0.054392
v 0.985305 -0.507321 0.000000
v 0.986282 -0.511745 0.000000
v 0.870423 -0.517969 0.069148
v 0.863564 -0.517967 0.000000
v 0.880027 -0.517969 0.093177
v 0.890001 -0.517969 0.104299
v 0.900000 -0.517969 0.112277
v 0.910000 -0.517969 0.119409
v 0.920000 -0.517969 0.124558
v 0.930000 -0.517969 0.123378
v 0.940000 -0.517969 0.117267
v 0.950000 -0.517969 0.109652
v 0.959999 -0.517969 0.101271
v 0.969975 -0.517969 0.090026
v 0.979627 -0.517974 0.066565
v 0.986838 -0.518036 0.000000
v 0.870425 -0.524606 0.066228
v 0.863584 -0.524571 0.000000
v 0.880028 -0.524609 0.089957
v 0.890001 -0.524609 0.101248
v 0.900000 -0.524609 0.109644
v 0.910000 -0.524609 0.117264
v 0.920000 -0.524609 0.123378
v 0.930000 -0.524609 0.124566
v 0.940000 -0.524609 0.119453
v 0.950000 -0.524609 0.112368
v 0.960000 -0.524609 0.104526
v 0.969996 -0.524610 0.093881
v 0.979918 -0.524631 0.071954
v 0.989120 -0.524923 0.000000
v 0.870469 -0.531200 0.054371
v 0.863757 -0.530834 0.000000
v 0.880031 -0.531247 0.083160
v 0.890001 -0.531250 0.097771
v 0.900000 -0.531250 0.107210
v 0.910000 -0.531250 0.115058
v 0.920000 -0.531250 0.121721
v 0.930000 -0.531250 0.125243
v 0.940000 -0.531250 0.121720
v 0.950000 -0.531250 0.115058
v 0.960000 -0.531250 0.107211
v 0.969999 -0.531250 0.097782
v 0.979972 -0.531253 0.083226
v 0.989583 -0.531302 0.054710
v 0.995360 -0.527245 0.000000
v 0.996670 -0.531694 0.000000
v 0.870885 -0.537577 0.000000
v 0.864698 -0.535257 0.000000
v 0.880083 -0.537869 0.071951
v 0.890004 -0.537890 0.093880
v 0.900000 -0.537891 0.104526
v 0.910000 -0.537891 0.112368
v 0.920000 -0.537891 0.119452
v 0.930000 -0.537891 0.124560
v 0.940000 -0.537891 0.123354
v 0.950000 -0.537891 0.117263
v 0.960000 -0.537891 0.109670
v 0.970000 -0.537891 0.101393
v 0.979996 -0.537892 0.090640
v 0.989918 -0.537915 0.069090
v 0.999169 -0.538233 0.000000
v 0.880374 -0.544526 0.066565
v 0.873162 -0.544464 0.000000
v 0.890025 -0.544531 0.090026
v 0.900001 -0.544531 0.101271
v 0.910000 -0.544531 0.109651
v 0.920000 -0.544531 0.117260
v 0.930000 -0.544531 0.123320
v 0.940000 -0.544531 0.124380
v 0.950000 -0.544531 0.119420
v 0.960000 -0.544531 0.112523
v 0.970000 -0.544531 0.105240
v 0.980000 -0.544531 0.096735
v 0.989993 -0.544535 0.083222
v 0.999879 -0.544597 0.057236
v 1.005945 -0.540555 0.000000
v 1.009058 -0.545157 0.000000
v 0.880466 -0.551121 0.054392
v 0.873718 -0.550755 0.000000
v 0.890031 -0.551169 0.083163
v 0.900001 -0.551172 0.097772
v 0.910000 -0.551172 0.107206
v 0.920000 -0.551172 0.115004
v 0.930000 -0.551172 0.121395
v 0.940000 -0.551172 0.124424
v 0.950000 -0.551172 0.121548
v 0.960000 -0.551172 0.115702
v 0.970000 -0.551172 0.108952
v 0.980000 -0.551172 0.101437
v 0.990000 -0.551172 0.092826
v 0.999992 -0.551177 0.080148
v 1.009902 -0.551252 0.056895
v 1.015991 -0.547224 0.000000
v 1.019525 -0.551715 0.000000
v 0.880884 -0.557499 0.000000
v 0.874695 -0.555179 0.000000
v 0.890083 -0.557791 0.071951
v 0.900004 -0.557812 0.093878
v 0.910000 -0.557813 0.104494
v 0.920000 -0.557813 0.112102
v 0.930000 -0.557813 0.118345
v 0.940000 -0.557813 0.122434
v 0.950000 -0.557813 0.122658
v 0.960000 -0.557813 0.118665
v 0.970000 -0.557813 0.112419
v 0.980000 -0.557813 0.105792
v 0.990000 -0.557813 0.099393
v 1.000000 -0.557813 0.092217
v 1.009995 -0.557817 0.081617
v 1.019966 -0.557865 0.067504
v 1.029893 -0.553269 0.000000
v 1.029970 -0.558060 0.062114
v 1.039283 -0.553640 0.000000
v 1.039594 -0.558116 0.049837
v 1.045382 -0.554277 0.000000
v 1.046671 -0.558319 0.000000
v 0.890373 -0.564448 0.066564
v 0.883162 -0.564386 0.000000
v 0.900025 -0.564453 0.090008
v 0.910001 -0.564453 0.101077
v 0.920000 -0.564453 0.108597
v 0.930000 -0.564453 0.114345
v 0.940000 -0.564453 0.118932
v 0.950000 -0.564453 0.121702
v 0.960000 -0.564453 0.120712
v 0.970000 -0.564453 0.115856
v 0.980000 -0.564453 0.110242
v 0.990000 -0.564453 0.104946
v 1.000000 -0.564453 0.099315
v 1.010000 -0.564453 0.093164
v 1.019999 -0.564456 0.087346
v 1.029996 -0.564470 0.083086
v 1.039919 -0.564494 0.067453
v 1.049173 -0.564798 0.000000
v 0.890466 -0.571043 0.054386
v 0.883718 -0.570676 0.000000
v 0.900031 -0.571091 0.083064
v 0.910001 -0.571094 0.097036
v 0.920000 -0.571094 0.104499
v 0.930000 -0.571094 0.109865
v 0.940000 -0.571094 0.114693
v 0.950000 -0.571094 0.119227
v 0.960000 -0.571094 0.121727
v 0.970000 -0.571094 0.119258
v 0.980000 -0.571094 0.114704
v 0.990000 -0.571094 0.109920
v 1.000000 -0.571094 0.105021
v 1.010000 -0.571094 0.100247
v 1.020000 -0.571094 0.096910
v 1.030000 -0.571094 0.093516
v 1.039994 -0.571097 0.082634
v 1.049911 -0.571153 0.057553
v 1.056010 -0.567104 0.000000
v 1.059528 -0.571634 0.000000
v 0.890884 -0.577420 0.000000
v 0.884695 -0.575101 0.000000
v 0.900083 -0.577712 0.071565
v 0.910004 -0.577734 0.091798
v 0.920000 -0.577734 0.099517
v 0.930000 -0.577734 0.105003
v 0.940000 -0.577734 0.110249
v 0.950000 -0.577734 0.115873
v 0.960000 -0.577734 0.120814
v 0.970000 -0.577734 0.121943
v 0.980000 -0.577734 0.119040
v 0.990000 -0.577734 0.114645
v 1.000000 -0.577734 0.110096
v 1.010000 -0.577734 0.106127
v 1.020000 -0.577734 0.103418
v 1.030000 -0.577734 0.099856
v 1.040000 -0.577734 0.092718
v 1.049995 -0.577738 0.081715
v 1.059967 -0.577787 0.067668
v 1.069957 -0.573179 0.000000
v 1.069997 -0.577981 0.064161
v 1.079998 -0.573435 0.000000
v 1.080000 -0.578013 0.063695
v 1.090000 -0.573460 0.000000
v 1.090000 -0.578015 0.063657
v 1.099997 -0.573462 0.000000
v 1.099999 -0.578015 0.063505
v 1.109937 -0.573474 0.000000
v 1.109973 -0.578017 0.061615
v 1.119285 -0.573587 0.000000
v 1.119594 -0.578040 0.049804
v 1.125383 -0.574201 0.000000
v 1.126671 -0.578241 0.000000
v 0.900373 -0.584355 0.065131
v 0.893162 -0.584304 0.000000
v 0.910026 -0.584372 0.084013
v 0.920001 -0.584375 0.092846
v 0.930000 -0.584375 0.099467
v 0.940000 -0.584375 0.105825
v 0.950000 -0.584375 0.112586
v 0.960000 -0.584375 0.119242
v 0.970000 -0.584375 0.123670
v 0.980000 -0.584375 0.122982
v 0.990000 -0.584375 0.119256
v 1.000000 -0.584375 0.115007
v 1.010000 -0.584375 0.111599
v 1.020000 -0.584375 0.109045
v 1.030000 -0.584375 0.105025
v 1.040000 -0.584375 0.099391
v 1.050000 -0.584375 0.093190
v 1.059999 -0.584378 0.087649
v 1.070000 -0.584391 0.086245
v 1.080000 -0.584393 0.086078
v 1.090000 -0.584393 0.086051
v 1.100000 -0.584393 0.085765
v 1.109996 -0.584394 0.082909
v 1.119919 -0.584416 0.067442
v 1.129169 -0.584721 0.000000
v 0.900457 -0.590746 0.049990
v 0.893716 -0.590539 0.000000
v 0.910062 -0.590962 0.065586
v 0.920006 -0.591012 0.081577
v 0.930000 -0.591016 0.092992
v 0.940000 -0.591016 0.101684
v 0.950000 -0.591016 0.109766
v 0.960000 -0.591016 0.117490
v 0.970000 -0.591016 0.123937
v 0.980000 -0.591016 0.126227
v 0.990000 -0.591016 0.123657
v 1.000000 -0.591016 0.119875
v 1.010000 -0.591016 0.116862
v 1.020000 -0.591016 0.114257
v 1.030000 -0.591016 0.109961
v 1.040000 -0.591016 0.105041
v 1.050000 -0.591016 0.100281
v 1.060000 -0.591016 0.097323
v 1.070000 -0.591016 0.096608
v 1.080000 -0.591016 0.096521
v 1.090000 -0.591016 0.096486
v 1.100000 -0.591016 0.096104
v 1.110000 -0.591016 0.093425
v 1.119992 -0.591020 0.082606
v 1.129876 -0.591082 0.057128
v 1.135940 -0.587039 0.000000
v 1.138987 -0.591641 0.000000
v 0.900763 -0.595446 0.000000
v 0.894676 -0.594590 0.000000
v 0.910519 -0.597107 0.000000
v 0.920090 -0.597597 0.057672
v 0.930006 -0.597653 0.083742
v 0.940000 -0.597656 0.098015
v 0.950000 -0.597656 0.107770
v 0.960000 -0.597656 0.116249
v 0.970000 -0.597656 0.123899
v 0.980000 -0.597656 0.128816
v 0.990000 -0.597656 0.127798
v 1.000000 -0.597656 0.124692
v 1.010000 -0.597656 0.121910
v 1.020000 -0.597656 0.118962
v 1.030000 -0.597656 0.114654
v 1.040000 -0.597656 0.110104
v 1.050000 -0.597656 0.106212
v 1.060000 -0.597656 0.104182
v 1.070000 -0.597656 0.103711
v 1.080000 -0.597656 0.103650
v 1.090000 -0.597656 0.103567
v 1.100000 -0.597656 0.102888
v 1.110000 -0.597656 0.099788
v 1.119999 -0.597656 0.092539
v 1.129967 -0.597661 0.079591
v 1.139521 -0.597728 0.053573
v 1.145282 -0.593692 0.000000
v 1.146242 -0.598075 0.000000
v 0.920813 -0.603984 0.000000
v 0.913993 -0.601647 0.000000
v 0.930079 -0.604275 0.072486
v 0.940004 -0.604296 0.095076
v 0.950000 -0.604297 0.106751
v 0.960000 -0.604297 0.115663
v 0.970000 -0.604297 0.123718
v 0.980000 -0.604297 0.129830
v 0.990000 -0.604297 0.130703
v 1.000000 -0.604297 0.128911
v 1.010000 -0.604297 0.126683
v 1.020000 -0.604297 0.123523
v 1.030000 -0.604297 0.119313
v 1.040000 -0.604297 0.115020
v 1.050000 -0.604297 0.111739
v 1.060000 -0.604297 0.110177
v 1.070000 -0.604297 0.109824
v 1.080000 -0.604297 0.109773
v 1.090000 -0.604297 0.109639
v 1.100000 -0.604297 0.108645
v 1.110000 -0.604297 0.104931
v 1.119999 -0.604297 0.098880
v 1.129972 -0.604297 0.089173
v 1.139574 -0.604301 0.066114
v 1.146417 -0.604335 0.000000
v 0.930371 -0.610936 0.069976
v 0.923140 -0.610909 0.000000
v 0.940025 -0.610937 0.094438
v 0.950001 -0.610937 0.106531
v 0.960000 -0.610937 0.115488
v 0.970000 -0.610937 0.123327
v 0.980000 -0.610937 0.128975
v 0.990000 -0.610937 0.130502
v 1.000000 -0.610937 0.130479
v 1.010000 -0.610937 0.129858
v 1.020000 -0.610937 0.127614
v 1.030000 -0.610937 0.123833
v 1.040000 -0.610937 0.119907
v 1.050000 -0.610937 0.117090
v 1.060000 -0.610937 0.115809
v 1.070000 -0.610937 0.115522
v 1.080000 -0.610937 0.115471
v 1.090000 -0.610937 0.115257
v 1.100000 -0.610937 0.113891
v 1.110000 -0.610937 0.109599
v 1.119999 -0.610937 0.103392
v 1.129973 -0.610937 0.093006
v 1.139577 -0.610938 0.069133
v 1.146436 -0.610939 0.000000
v 0.930419 -0.617578 0.069660
v 0.923524 -0.617577 0.000000
v 0.940027 -0.617578 0.094371
v 0.950001 -0.617578 0.106483
v 0.960000 -0.617578 0.115211
v 0.970000 -0.617578 0.121919
v 0.980000 -0.617578 0.125465
v 0.990000 -0.617578 0.126482
v 1.000000 -0.617578 0.127339
v 1.010000 -0.617578 0.128752
v 1.020000 -0.617578 0.129537
v 1.030000 -0.617578 0.127770
v 1.040000 -0.617578 0.124742
v 1.050000 -0.617578 0.122379
v 1.060000 -0.617578 0.121296
v 1.070000 -0.617578 0.121051
v 1.080000 -0.617578 0.120972
v 1.090000 -0.617578 0.120512
v 1.100000 -0.617578 0.118331
v 1.110000 -0.617578 0.113122
v 1.119999 -0.617578 0.105668
v 1.129973 -0.617578 0.094143
v 1.139581 -0.617578 0.069614
v 1.146476 -0.617579 0.000000
v 0.930419 -0.624219 0.069660
v 0.923522 -0.624220 0.000000
v 0.940027 -0.624219 0.094364
v 0.950001 -0.624219 0.106376
v 0.960000 -0.624219 0.114433
v 0.970000 -0.624219 0.119126
v 0.980000 -0.624219 0.120748
v 0.990000 -0.624219 0.121261
v 1.000000 -0.624219 0.122365
v 1.010000 -0.624219 0.124727
v 1.020000 -0.624219 0.127771
v 1.030000 -0.624219 0.129570
v 1.040000 -0.624219 0.128890
v 1.050000 -0.624219 0.127517
v 1.060000 -0.624219 0.126740
v 1.070000 -0.624219 0.126547
v 1.080000 -0.624219 0.126394
v 1.090000 -0.624219 0.125407
v 1.100000 -0.624219 0.121679
v 1.110000 -0.624219 0.114934
v 1.119999 -0.624219 0.106398
v 1.129975 -0.624219 0.094416
v 1.139632 -0.624220 0.070002
v 1.146901 -0.624240 0.000000
v 0.930368 -0.630861 0.070002
v 0.923099 -0.630880 0.000000
v 0.940025 -0.630859 0.094397
v 0.950001 -0.630859 0.106066
v 0.960000 -0.630859 0.112742
v 0.970000 -0.630859 0.115006
v 0.980000 -0.630859 0.115475
v 0.990000 -0.630859 0.115806
v 1.000000 -0.630859 0.117090
v 1.010000 -0.630859 0.119907
v 1.020000 -0.630859 0.123855
v 1.030000 -0.630859 0.127798
v 1.040000 -0.630859 0.130610
v 1.050000 -0.630859 0.131713
v 1.060000 -0.630859 0.131983
v 1.070000 -0.630859 0.132031
v 1.080000 -0.630859 0.131593
v 1.090000 -0.630859 0.129293
v 1.100000 -0.630859 0.123413
v 1.110000 -0.630859 0.115587
v 1.120000 -0.630859 0.106739
v 1.129997 -0.630860 0.095094
v 1.139952 -0.630875 0.072839
v 1.149609 -0.631097 0.000000
v 0.930048 -0.637516 0.072826
v 0.920387 -0.637737 0.000000
v 0.940003 -0.637501 0.094899
v 0.950000 -0.637500 0.105268
v 0.960000 -0.637500 0.109423
v 0.970000 -0.637500 0.109873
v 0.980000 -0.637500 0.109846
v 0.990000 -0.637500 0.110179
v 1.000000 -0.637500 0.111739
v 1.010000 -0.637500 0.115024
v 1.020000 -0.637500 0.119379
v 1.030000 -0.637500 0.124076
v 1.040000 -0.637500 0.129017
v 1.050000 -0.637500 0.133362
v 1.060000 -0.637500 0.136126
v 1.070000 -0.637500 0.137159
v 1.080000 -0.637500 0.136061
v 1.090000 -0.637500 0.131582
v 1.100000 -0.637500 0.124363
v 1.110000 -0.637500 0.116288
v 1.120000 -0.637500 0.107777
v 1.130000 -0.637500 0.098133
v 1.139997 -0.637502 0.085167
v 1.149948 -0.637532 0.066383
v 1.159250 -0.633041 0.000000
v 1.159540 -0.637768 0.050044
v 1.165322 -0.633923 0.000000
v 1.166245 -0.637975 0.000000
v 0.904038 -0.640592 0.000000
v 0.910661 -0.639684 0.000000
v 0.910114 -0.644422 0.052949
v 0.901008 -0.644810 0.000000
v 0.920029 -0.644173 0.066841
v 0.930003 -0.644142 0.085094
v 0.940000 -0.644141 0.097367
v 0.950000 -0.644141 0.104149
v 0.960000 -0.644141 0.105073
v 0.970000 -0.644141 0.104067
v 0.980000 -0.644141 0.103764
v 0.990000 -0.644141 0.104186
v 1.000000 -0.644141 0.106212
v 1.010000 -0.644141 0.110113
v 1.020000 -0.644141 0.114787
v 1.030000 -0.644141 0.119975
v 1.040000 -0.644141 0.125858
v 1.050000 -0.644141 0.132094
v 1.060000 -0.644141 0.137679
v 1.070000 -0.644141 0.140854
v 1.080000 -0.644141 0.139426
v 1.090000 -0.644141 0.133336
v 1.100000 -0.644141 0.125589
v 1.110000 -0.644141 0.117690
v 1.120000 -0.644141 0.109779
v 1.130000 -0.644141 0.101744
v 1.139999 -0.644141 0.093602
v 1.149972 -0.644142 0.084053
v 1.159575 -0.644159 0.064801
v 1.166417 -0.644183 0.000000
v 0.894659 -0.646823 0.000000
v 0.900427 -0.650858 0.053733
v 0.893332 -0.651229 0.000000
v 0.910030 -0.650801 0.078135
v 0.920002 -0.650783 0.086415
v 0.930000 -0.650781 0.093022
v 0.940000 -0.650781 0.098560
v 0.950000 -0.650781 0.101209
v 0.960000 -0.650781 0.099582
v 0.970000 -0.650781 0.097258
v 0.980000 -0.650781 0.096695
v 0.990000 -0.650781 0.097328
v 1.000000 -0.650781 0.100282
v 1.010000 -0.650781 0.105068
v 1.020000 -0.650781 0.110267
v 1.030000 -0.650781 0.116102
v 1.040000 -0.650781 0.122627
v 1.050000 -0.650781 0.129657
v 1.060000 -0.650781 0.136669
v 1.070000 -0.650781 0.141695
v 1.080000 -0.650781 0.140800
v 1.090000 -0.650781 0.134750
v 1.100000 -0.650781 0.127236
v 1.110000 -0.650781 0.119778
v 1.120000 -0.650781 0.112558
v 1.130000 -0.650781 0.105717
v 1.139999 -0.650781 0.099373
v 1.149973 -0.650781 0.091017
v 1.159577 -0.650782 0.068729
v 1.166434 -0.650783 0.000000
v 0.900082 -0.657447 0.068850
v 0.890831 -0.657765 0.000000
v 0.910004 -0.657423 0.088797
v 0.920000 -0.657422 0.094441
v 0.930000 -0.657422 0.095950
v 0.940000 -0.657422 0.095889
v 0.950000 -0.657421 0.095416
v 0.960000 -0.657421 0.092362
v 0.969999 -0.657419 0.087568
v 0.980000 -0.657407 0.086417
v 0.990001 -0.657419 0.087659
v 1.000000 -0.657422 0.093196
v 1.010000 -0.657422 0.099486
v 1.020000 -0.657422 0.105827
v 1.030000 -0.657422 0.112632
v 1.040000 -0.657422 0.119817
v 1.050000 -0.657422 0.127236
v 1.060000 -0.657422 0.134489
v 1.070000 -0.657422 0.139881
v 1.080000 -0.657422 0.139866
v 1.090000 -0.657422 0.135097
v 1.100000 -0.657422 0.128570
v 1.110000 -0.657422 0.121943
v 1.120000 -0.657422 0.115321
v 1.130000 -0.657422 0.108872
v 1.139999 -0.657422 0.102367
v 1.149973 -0.657422 0.092573
v 1.159577 -0.657422 0.069048
v 1.166434 -0.657420 0.000000
v 0.884060 -0.660086 0.000000
v 0.890125 -0.664129 0.057136
v 0.881013 -0.664688 0.000000
v 0.900007 -0.664066 0.082795
v 0.910000 -0.664063 0.094189
v 0.920000 -0.664062 0.095735
v 0.930000 -0.664062 0.092285
v 0.939999 -0.664060 0.087384
v 0.950000 -0.664046 0.085247
v 0.959996 -0.664042 0.080049
v 0.969967 -0.664010 0.067514
v 0.980000 -0.663851 0.064649
v 0.990033 -0.664012 0.067701
v 1.000005 -0.664058 0.081738
v 1.010000 -0.664062 0.092996
v 1.020000 -0.664062 0.101667
v 1.030000 -0.664062 0.109701
v 1.040000 -0.664062 0.117442
v 1.050000 -0.664062 0.124880
v 1.060000 -0.664062 0.131574
v 1.070000 -0.664062 0.135966
v 1.080000 -0.664062 0.136094
v 1.090000 -0.664062 0.132449
v 1.100000 -0.664062 0.127465
v 1.110000 -0.664062 0.122252
v 1.120000 -0.664062 0.116149
v 1.130000 -0.664062 0.108960
v 1.139999 -0.664062 0.100961
v 1.149972 -0.664062 0.089896
v 1.159575 -0.664059 0.066222
v 1.166416 -0.664024 0.000000
v 0.874718 -0.666739 0.000000
v 0.880479 -0.670775 0.053495
v 0.873758 -0.671122 0.000000
v 0.890033 -0.670708 0.079142
v 0.900001 -0.670703 0.090914
v 0.910000 -0.670703 0.094931
v 0.920000 -0.670703 0.091328
v 0.929995 -0.670698 0.081499
v 0.939967 -0.670650 0.067525
v 0.949992 -0.670455 0.062562
v 0.959924 -0.670395 0.052835
v 0.969531 -0.670136 0.000000
v 0.980000 -0.668897 0.000000
v 0.990470 -0.670182 0.000000
v 1.000088 -0.670645 0.057697
v 1.010006 -0.670700 0.083699
v 1.020000 -0.670703 0.097822
v 1.030000 -0.670703 0.107215
v 1.040000 -0.670703 0.115098
v 1.050000 -0.670703 0.122192
v 1.060000 -0.670703 0.128177
v 1.070000 -0.670703 0.131149
v 1.080000 -0.670703 0.131034
v 1.090000 -0.670703 0.128037
v 1.100000 -0.670703 0.123752
v 1.110000 -0.670703 0.119259
v 1.120000 -0.670703 0.114259
v 1.130000 -0.670703 0.107271
v 1.139999 -0.670703 0.097886
v 1.149969 -0.670700 0.083196
v 1.159531 -0.670653 0.054376
v 1.166243 -0.670287 0.000000
v 0.880426 -0.677347 0.065321
v 0.873585 -0.677380 0.000000
v 0.890028 -0.677343 0.086310
v 0.900001 -0.677343 0.092065
v 0.910000 -0.677343 0.090483
v 0.919991 -0.677337 0.079839
v 0.929902 -0.677263 0.056874
v 0.939525 -0.676801 0.000000
v 0.949899 -0.675246 0.000000
v 0.959372 -0.674875 0.000000
v 0.966035 -0.674227 0.000000
v 1.000814 -0.677029 0.000000
v 0.993989 -0.674696 0.000000
v 1.010079 -0.677322 0.071997
v 1.020004 -0.677343 0.093883
v 1.030000 -0.677344 0.104524
v 1.040000 -0.677344 0.112337
v 1.050000 -0.677344 0.119266
v 1.060000 -0.677344 0.124417
v 1.070000 -0.677344 0.126121
v 1.080000 -0.677344 0.125794
v 1.090000 -0.677344 0.123348
v 1.100000 -0.677344 0.119275
v 1.110000 -0.677344 0.114859
v 1.120000 -0.677344 0.110576
v 1.130000 -0.677344 0.104986
v 1.139996 -0.677343 0.094688
v 1.149918 -0.677322 0.072380
v 1.159116 -0.677031 0.000000
v 1.165302 -0.674711 0.000000
v 0.880425 -0.683965 0.064181
v 0.873584 -0.683944 0.000000
v 0.890027 -0.683966 0.081532
v 0.900001 -0.683966 0.084211
v 0.909991 -0.683962 0.078335
v 0.919870 -0.683895 0.056322
v 0.929056 -0.683356 0.000000
v 0.935991 -0.681292 0.000000
v 1.010373 -0.683979 0.066566
v 1.003158 -0.683917 0.000000
v 1.020025 -0.683984 0.090026
v 1.030001 -0.683984 0.101257
v 1.040000 -0.683984 0.109479
v 1.050000 -0.683984 0.116161
v 1.060000 -0.683984 0.119917
v 1.070000 -0.683984 0.120841
v 1.080000 -0.683984 0.120557
v 1.090000 -0.683984 0.118691
v 1.100000 -0.683984 0.114623
v 1.110000 -0.683984 0.110070
v 1.120000 -0.683984 0.105829
v 1.129999 -0.683984 0.101589
v 1.139975 -0.683984 0.092667
v 1.149629 -0.683982 0.069420
v 1.156856 -0.683954 0.000000
v 0.880458 -0.690321 0.049431
v 0.873755 -0.690147 0.000000
v 0.890030 -0.690343 0.061358
v 0.899995 -0.690342 0.061850
v 0.909891 -0.690307 0.052408
v 0.919055 -0.689952 0.000000
v 0.925926 -0.687916 0.000000
v 1.010466 -0.690575 0.054392
v 1.003718 -0.690208 0.000000
v 1.020031 -0.690622 0.083160
v 1.030001 -0.690625 0.097719
v 1.040000 -0.690625 0.106736
v 1.050000 -0.690625 0.112679
v 1.060000 -0.690625 0.114985
v 1.070000 -0.690625 0.115420
v 1.080000 -0.690625 0.115257
v 1.090000 -0.690625 0.113936
v 1.100000 -0.690625 0.109925
v 1.110000 -0.690625 0.105029
v 1.120000 -0.690625 0.100125
v 1.129999 -0.690625 0.095889
v 1.139973 -0.690624 0.088462
v 1.149578 -0.690621 0.066051
v 1.156455 -0.690585 0.000000
v 0.880720 -0.694772 0.000000
v 0.874676 -0.694161 0.000000
v 0.890061 -0.694885 0.000000
v 0.899945 -0.694885 0.000000
v 0.909369 -0.694770 0.000000
v 0.915969 -0.694133 0.000000
v 1.010885 -0.696952 0.000000
v 1.004695 -0.694632 0.000000
v 1.020083 -0.697244 0.071934
v 1.030004 -0.697265 0.093689
v 1.040000 -0.697266 0.103385
v 1.050000 -0.697266 0.108230
v 1.060000 -0.697266 0.109573
v 1.070000 -0.697266 0.109755
v 1.080000 -0.697266 0.109639
v 1.090000 -0.697266 0.108648
v 1.100000 -0.697266 0.104981
v 1.110000 -0.697266 0.099384
v 1.120000 -0.697266 0.093093
v 1.129998 -0.697263 0.086499
v 1.139967 -0.697246 0.078093
v 1.149521 -0.697191 0.053397
v 1.156244 -0.696846 0.000000
v 1.020374 -0.703900 0.066447
v 1.013162 -0.703839 0.000000
v 1.030025 -0.703906 0.089180
v 1.040001 -0.703906 0.098359
v 1.050000 -0.703906 0.102497
v 1.060000 -0.703906 0.103514
v 1.070000 -0.703906 0.103638
v 1.080000 -0.703906 0.103567
v 1.090000 -0.703906 0.102888
v 1.100000 -0.703906 0.099796
v 1.110000 -0.703906 0.092709
v 1.119995 -0.703902 0.081590
v 1.129962 -0.703852 0.066054
v 1.139885 -0.703623 0.052872
v 1.148988 -0.703237 0.000000
v 1.155282 -0.701227 0.000000
v 1.020475 -0.710475 0.053581
v 1.013719 -0.710126 0.000000
v 1.030033 -0.710541 0.079412
v 1.040001 -0.710546 0.091233
v 1.050000 -0.710546 0.095491
v 1.060000 -0.710546 0.096401
v 1.070000 -0.710546 0.096508
v 1.080000 -0.710546 0.096485
v 1.090000 -0.710546 0.096104
v 1.100000 -0.710546 0.093425
v 1.109994 -0.710543 0.082628
v 1.119910 -0.710487 0.057529
v 1.129485 -0.709998 0.000000
v 1.139326 -0.708334 0.000000
v 1.145961 -0.707453 0.000000
v 1.021014 -0.716560 0.000000
v 1.014715 -0.714511 0.000000
v 1.030134 -0.717099 0.056283
v 1.040009 -0.717165 0.078432
v 1.050000 -0.717169 0.084969
v 1.060000 -0.717169 0.085974
v 1.070000 -0.717169 0.086062
v 1.080000 -0.717169 0.086051
v 1.090000 -0.717169 0.085765
v 1.099996 -0.717168 0.082909
v 1.109919 -0.717146 0.067443
v 1.119173 -0.716843 0.000000
v 1.126007 -0.714536 0.000000
v 1.030945 -0.723155 0.000000
v 1.024079 -0.721119 0.000000
v 1.040109 -0.723510 0.052418
v 1.050006 -0.723545 0.062045
v 1.060000 -0.723547 0.063538
v 1.070000 -0.723547 0.063658
v 1.080000 -0.723547 0.063656
v 1.089999 -0.723547 0.063505
v 1.099973 -0.723546 0.061615
v 1.109594 -0.723522 0.049804
v 1.116671 -0.723321 0.000000
v 1.040631 -0.727973 0.000000
v 1.034031 -0.727336 0.000000
v 1.050058 -0.728089 0.000000
v 1.060003 -0.728101 0.000000
v 1.070000 -0.728101 0.000000
v 1.080000 -0.728101 0.000000
v 1.089997 -0.728101 0.000000
v 1.099937 -0.728089 0.000000
v 1.109285 -0.727975 0.000000
v 1.115383 -0.727362 0.000000
f 1594 1618 1617 1593
f 892 905 906 893
f 47 56 57 48
f 1665 1680 1681 1666
f 876 889 891 878
f 63 77 78 64
f 235 255 256 236
f 1608 1631 1632 1609
f 1307 1331 1332 1308
f 55 66 67 56
f 1645 1661 1662 1646
f 1425 1454 1455 1426
f 842 855 856 843
f 1227 1253 1254 1228
f 179 196 197 180
f 1217 1243 1244 1218
f 78 90 91 79
f 1428 1457 1458 1429
f 20 25 27 26
f 1266 1290 1291 1267
f 141 157 158 142
f 1320 1344 1345 1321
f 163 176 177 164
f 818 831 832 819
f 809 822 824 811
f 1233 1259 1260 1234
f 402 424 425 403
f 826 841 842 827
f 16 22 21 15
f 2 3 6 5
f 81 93 94 82
f 689 710 711 690
f 890 903 902 889
f 8 11 10 7
f 229 249 250 230
f 1327 1351 1352 1328
f 1193 1220 1221 1194
f 610 630 631 611
f 867 880 881 868
f 1239 1262 1264 1240
f 96 109 110 97
f 165 178 179 166
f 306 324 325 307
f 750 764 765 751
f 825 840 841 826
f 290 308 309 291
f 394 416 417 395
f 4 8 7 3
f 1258 1282 1283 1259
f 162 175 176 163
f 101 113 112 100
f 670 693 694 671
f 149 165 166 151
f 191 212 213 192
f 851 866 867 852
f 31 43 44 32
f 868 881 882 869
f 722 740 739 721
f 578 598 599 579
f 474 495 494 473
f 207 225 226 208
f 146 162 163 147
f 23 30 31 24
f 67 81 82 68
f 389 407 408 390
f 345 363 364 346
f 53 64 65 54
f 54 65 66 55
f 1686 1695 1697 1687
f 1250 1274 1275 1251
f 1434 1463 1464 1435
f 357 375 376 358
f 133 146 147 134
f 151 166 167 153
f 619 641 642 620
f 46 55 56 47
f 844 857 858 845
f 1298 1322 1323 1299
f 315 333 334 316
f 873 886 887 874
f 255 275 276 256
f 25 32 33 27
f 14 18 20 19
f 1614 1637 1638 1615
f 80 92 93 81
f 1363 1395 1396 1364
f 953 966 967 954
f 271 289 290 272
f 1613 1636 1637 1614
f 1454 1485 1486 1455
f 64 78 79 65
f 90 103 104 91
f 307 325 326 308
f 66 80 81 67
f 321 339 340 322
f 91 104 105 92
f 1485 1517 1518 1486
f 554 573 575 553
f 40 49 51 42
f 291 309 310 292
f 197 218 219 198
f 303 321 322 304
f 83 95 96 84
f 955 968 969 956
f 1214 1240 1241 1215
f 1671 1685 1684 1673
f 987 1001 1000 986
f 541 560 561 542
f 205 223 225 207
f 327 345 346 328
f 545 564 565 546
f 930 945 944 932
f 1511 1542 1543 1512
f 378 396 397 379
f 429 449 450 430
f 137 149 151 150
f 335 353 354 336
f 75 87 86 74
f 105 117 118 106
f 223 243 245 225
f 50 61 60 49
f 230 250 251 231
f 237 257 258 238
f 317 335 336 318
f 673 696 697 674
f 117 129 130 118
f 490 511 512 491
f 1265 1289 1290 1266
f 176 193 194 177
f 1361 1393 1394 1362
f 61 75 74 60
f 261 281 282 263
f 898 911 912 899
f 109 121 122 110
f 127 140 141 128
f 621 643 644 622
f 84 96 97 85
f 85 97 99 98
f 126 138 140 127
f 620 642 643 621
f 729 747 748 730
f 1026 1040 1041 1027
f 443 463 464 444
f 269 287 288 270
f 399 421 422 400
f 18 24 25 20
f 118 130 131 119
f 215 233 234 216
f 882 895 896 883
f 164 177 178 165
f 256 276 277 257
f 435 455 456 436
f 449 469 470 450
f 946 959 960 947
f 131 144 145 132
f 222 240 242 241
f 76 88 89 77
f 1338 1362 1363 1339
f 1251 1275 1276 1252
f 419 439 440 420
f 213 231 232 214
f 439 459 460 440
f 442 462 463 443
f 1377 1409 1410 1378
f 1234 1260 1261 1236
f 1578 1602 1603 1579
f 160 173 174 161
f 797 810 809 796
f 561 582 583 562
f 479 500 501 480
f 489 510 511 490
f 947 960 961 948
f 359 377 378 360
f 1164 1189 1190 1165
f 103 115 116 104
f 709 730 731 710
f 841 854 855 842
f 487 508 509 488
f 285 303 304 286
f 1113 1133 1134 1114
f 248 268 269 249
f 589 609 610 590
f 398 420 421 399
f 115 127 128 116
f 60 74 76 62
f 1290 1314 1315 1291
f 1295 1319 1320 1296
f 499 519 520 500
f 134 147 148 135
f 617 639 640 618
f 189 210 211 190
f 923 938 939 924
f 199 200 202 201
f 932 944 946 933
f 810 823 822 809
f 949 962 963 950
f 365 383 384 366
f 407 429 430 408
f 173 190 191 174
f 198 219 220 200
f 1513 1544 1545 1514
f 175 192 193 176
f 226 246 247 227
f 515 534 536 514
f 397 419 420 398
f 633 635 634 614
f 277 295 296 278
f 190 211 212 191
f 159 172 173 160
f 400 422 423 401
f 194 215 216 195
f 595 615 616 596
f 441 461 462 442
f 543 562 563 544
f 42 51 52 43
f 166 179 180 167
f 108 120 121 109
f 916 931 930 915
f 579 599 600 580
f 333 351 352 334
f 171 188 189 172
f 302 320 319 301
f 1257 1281 1282 1258
f 224 244 243 223
f 1203 1230 1231 1204
f 1093 1111 1112 1094
f 461 483 484 462
f 551 570 571 552
f 34 35 37 36
f 458 480 481 459
f 351 369 370 352
f 216 234 235 217
f 411 413 412 392
f 1021 1035 1036 1022
f 469 491 492 470
f 954 967 968 955
f 565 586 587 566
f 192 213 214 193
f 1005 1021 1022 1006
f 297 315 316 298
f 583 603 604 584
f 147 163 164 148
f 1027 1041 1042 1028
f 92 105 106 93
f 1306 1330 1331 1307
f 514 536 537 516
f 597 617 618 598
f 501 521 522 502
f 607 627 628 608
f 253 273 274 254
f 1049 1066 1067 1050
f 247 267 268 248
f 964 979 980 965
f 915 930 932 917
f 615 637 638 616
f 517 538 539 518
f 482 503 504 483
f 390 408 410 409
f 239 259 260 240
f 1457 1488 1489 1458
f 627 649 650 628
f 249 269 270 250
f 525 546 547 526
f 1281 1305 1306 1282
f 221 239 240 222
f 963 978 979 964
f 343 361 362 344
f 392 412 414 391
f 130 143 144 131
f 1229 1255 1256 1230
f 849 865 866 851
f 278 296 297 279
f 157 170 171 158
f 914 927 929 928
f 948 961 962 949
f 762 778 779 763
f 747 761 762 748
f 477 498 499 478
f 788 802 803 789
f 211 229 230 212
f 270 288 289 271
f 140 156 157 141
f 288 306 307 289
f 1162 1187 1188 1163
f 739 753 755 741
f 865 878 879 866
f 1273 1297 1298 1274
f 413 433 432 412
f 280 298 299 281
f 906 919 920 907
f 922 937 938 923
f 723 741 742 724
f 1145 1146 1148 1147
f 1305 1329 1330 1306
f 138 154 156 140
f 334 352 353 335
f 639 664 665 640
f 972 986 988 974
f 1090 1108 1109 1091
f 1405 1435 1436 1406
f 57 68 69 59
f 161 174 175 162
f 195 216 217 196
f 382 400 401 383
f 124 139 138 126
f 1341 1365 1366 1342
f 1058 1075 1076 1059
f 629 651 652 630
f 719 737 738 720
f 309 327 328 310
f 326 344 345 327
f 319 337 339 321
f 384 402 403 385
f 1449 1480 1481 1450
f 1197 1224 1225 1198
f 661 684 685 662
f 751 765 766 752
f 82 94 95 83
f 1019 1033 1034 1020
f 311 329 330 312
f 1322 1346 1347 1323
f 674 697 698 675
f 767 769 768 754
f 669 692 693 670
f 405 427 428 406
f 466 488 489 467
f 287 305 306 288
f 328 346 347 329
f 324 342 343 325
f 787 801 802 788
f 457 479 480 458
f 641 666 667 642
f 349 367 368 350
f 662 685 686 663
f 231 251 252 232
f 704 725 726 705
f 1330 1354 1355 1331
f 1549 1577 1576 1551
f 605 625 626 606
f 1003 1019 1020 1004
f 9 12 14 13
f 172 189 190 173
f 980 994 995 981
f 820 833 834 821
f 891 904 905 892
f 741 755 756 742
f 687 708 709 688
f 227 247 248 228
f 358 376 377 359
f 169 184 186 168
f 988 1002 1003 989
f 1252 1276 1277 1253
f 1629 1645 1646 1630
f 889 902 904 891
f 823 836 838 822
f 557 578 579 558
f 350 368 369 351
f 233 253 254 234
f 360 378 379 361
f 503 523 524 504
f 1604 1627 1628 1605
f 859 874 875 860
f 805 818 819 806
f 337 355 357 339
f 74 86 88 76
f 310 328 329 311
f 994 1008 1009 995
f 320 338 337 319
f 1610 1633 1634 1611
f 22 29 28 21
f 837 850 849 836
f 855 870 871 856
f 381 399 400 382
f 238 258 259 239
f 383 401 402 384
f 264 284 283 266
f 373 391 393 375
f 879 892 893 880
f 1051 1068 1069 1052
f 375 393 394 376
f 1497 1529 1530 1498
f 1563 1589 1590 1564
f 1637 1653 1654 1638
f 845 858 859 846
f 887 900 901 888
f 341 359 360 342
f 1073 1094 1095 1074
f 495 515 514 494
f 1068 1089 1090 1069
f 772 786 787 773
f 1509 1540 1541 1510
f 881 894 895 882
f 1313 1337 1338 1314
f 106 118 119 107
f 113 125 124 112
f 1339 1363 1364 1340
f 1473 1504 1505 1474
f 1205 1232 1233 1206
f 757 773 774 758
f 831 846 847 832
f 267 285 286 268
f 422 442 443 423
f 938 951 952 939
f 536 555 556 537
f 219 237 238 220
f 174 191 192 175
f 897 910 911 898
f 1329 1353 1354 1330
f 259 279 280 260
f 414 434 435 415
f 212 230 231 213
f 1410 1440 1441 1411
f 139 155 154 138
f 907 920 921 908
f 432 452 454 434
f 857 872 873 858
f 1337 1361 1362 1338
f 502 522 523 503
f 196 217 218 197
f 424 444 445 425
f 339 357 358 340
f 246 266 267 247
f 917 932 933 918
f 329 347 348 330
f 549 568 569 550
f 506 526 527 507
f 1297 1321 1322 1298
f 528 549 550 529
f 258 278 279 259
f 1011 1027 1028 1012
f 925 940 941 926
f 991 1005 1006 992
f 251 271 272 252
f 1091 1109 1110 1092
f 293 311 312 294
f 483 504 505 484
f 225 245 246 226
f 1007 1023 1024 1008
f 453 473 475 452
f 1067 1088 1089 1068
f 655 658 657 656
f 1354 1378 1379 1355
f 274 292 293 275
f 245 264 266 246
f 957 972 974 959
f 1031 1047 1049 1033
f 437 457 458 438
f 678 680 679 658
f 188 209 210 189
f 1060 1077 1078 1061
f 123 135 137 136
f 150 151 153 152
f 981 995 996 982
f 463 485 486 464
f 1075 1096 1097 1076
f 1346 1370 1371 1347
f 418 438 439 419
f 694 715 716 695
f 989 1003 1004 990
f 1039 1055 1056 1040
f 122 134 135 123
f 478 499 500 479
f 447 467 468 448
f 696 717 718 697
f 771 785 786 772
f 454 476 477 455
f 473 494 496 475
f 657 681 682 659
f 299 317 318 300
f 470 492 493 471
f 415 435 436 416
f 114 126 127 115
f 937 950 951 938
f 1179 1204 1205 1180
f 967 982 983 968
f 1181 1206 1208 1207
f 446 466 467 447
f 986 1000 1002 988
f 1044 1060 1061 1046
f 434 454 455 435
f 1171 1196 1197 1172
f 1053 1070 1071 1054
f 1111 1131 1132 1112
f 283 301 303 285
f 522 543 544 523
f 1242 1266 1267 1243
f 496 516 517 497
f 546 565 566 547
f 1139 1171 1172 1140
f 1289 1313 1314 1290
f 1123 1142 1144 1143
f 488 509 510 489
f 1059 1076 1077 1060
f 590 610 611 591
f 1061 1078 1079 1063
f 1119 1139 1140 1120
f 533 535 534 515
f 1097 1115 1116 1098
f 631 653 654 632
f 456 478 479 457
f 562 583 584 563
f 526 547 548 527
f 465 487 488 466
f 1079 1100 1101 1081
f 509 529 530 510
f 558 579 580 559
f 236 256 257 237
f 1135 1167 1168 1136
f 510 530 531 511
f 338 356 355 337
f 1101 1119 1120 1102
f 1175 1200 1201 1176
f 485 506 507 486
f 646 671 672 647
f 535 554 553 534
f 1370 1402 1403 1371
f 77 89 90 78
f 142 158 159 143
f 1149 1150 1152 1151
f 1183 1210 1209 1182
f 421 441 442 422
f 550 569 570 551
f 527 548 549 528
f 1100 1118 1119 1101
f 10 15 17 12
f 49 60 62 51
f 542 561 562 543
f 301 319 321 303
f 623 645 646 624
f 1362 1394 1395 1363
f 1459 1490 1491 1460
f 323 341 342 324
f 1133 1165 1166 1134
f 1345 1369 1370 1346
f 481 502 503 482
f 534 553 555 536
f 978 992 993 979
f 1635 1651 1652 1636
f 36 37 39 38
f 1283 1307 1308 1284
f 913 926 927 914
f 649 674 675 650
f 693 714 715 694
f 638 663 664 639
f 292 310 311 293
f 777 791 792 778
f 1510 1541 1542 1511
f 1069 1090 1091 1070
f 516 537 538 517
f 202 221 222 204
f 538 557 558 539
f 962 977 978 963
f 688 709 710 689
f 1310 1334 1336 1312
f 806 819 820 807
f 475 496 497 476
f 332 350 351 333
f 581 601 602 582
f 1163 1188 1189 1164
f 1231 1257 1258 1232
f 1076 1097 1098 1077
f 1267 1291 1292 1268
f 628 650 651 629
f 331 349 350 332
f 519 540 541 520
f 530 551 552 531
f 611 631 632 612
f 276 294 295 277
f 576 596 597 577
f 180 197 198 182
f 982 996 997 983
f 107 119 120 108
f 1002 1018 1019 1003
f 685 706 707 686
f 599 619 620 600
f 568 589 590 569
f 135 148 149 137
f 1355 1379 1380 1356
f 1237 1263 1262 1239
f 782 796 798 784
f 154 169 168 156
f 1131 1163 1164 1132
f 591 611 612 592
f 567 588 589 568
f 680 701 700 679
f 1033 1049 1050 1034
f 1046 1061 1063 1062
f 1335 1359 1358 1334
f 363 381 382 364
f 614 634 636 613
f 511 531 532 512
f 1394 1424 1425 1395
f 340 358 359 341
f 97 110 111 99
f 1293 1317 1318 1294
f 1521 1551 1552 1522
f 1397 1427 1428 1398
f 606 626 627 607
f 367 385 386 368
f 1132 1164 1165 1133
f 548 567 568 549
f 1435 1464 1465 1436
f 289 307 308 290
f 582 602 603 583
f 1419 1448 1449 1420
f 468 490 491 469
f 1213 1239 1240 1214
f 748 762 763 749
f 877 890 889 876
f 518 539 540 519
f 665 688 689 666
f 1378 1410 1411 1379
f 1146 1176 1177 1148
f 1134 1166 1167 1135
f 1365 1397 1398 1366
f 1375 1407 1408 1376
f 347 365 366 348
f 406 428 429 407
f 775 789 790 776
f 1116 1136 1137 1117
f 116 128 129 117
f 1078 1099 1100 1079
f 1373 1405 1406 1374
f 664 687 688 665
f 1082 1083 1085 1084
f 798 811 812 799
f 1443 1472 1473 1444
f 553 575 576 555
f 1399 1429 1430 1400
f 645 670 671 646
f 110 122 123 111
f 663 686 687 664
f 648 673 674 649
f 1282 1306 1307 1283
f 45 54 55 46
f 1413 1443 1444 1414
f 1407 1437 1438 1408
f 637 662 663 638
f 1189 1216 1217 1190
f 604 624 625 605
f 624 646 647 625
f 908 921 922 909
f 1483 1515 1516 1484
f 613 636 637 615
f 668 691 692 669
f 52 63 64 53
f 1018 1031 1033 1019
f 544 563 564 545
f 850 863 865 849
f 1302 1326 1327 1303
f 1437 1466 1467 1438
f 1447 1476 1478 1446
f 170 187 188 171
f 1475 1477 1476 1447
f 759 775 776 760
f 408 430 431 410
f 257 277 278 258
f 774 788 789 775
f 703 724 725 704
f 1499 1531 1532 1500
f 1036 1052 1053 1037
f 1453 1484 1485 1454
f 1479 1511 1512 1480
f 749 763 764 750
f 1393 1423 1424 1394
f 364 382 383 365
f 128 141 142 129
f 144 160 161 145
f 1571 1596 1597 1572
f 961 976 977 962
f 745 759 760 746
f 387 405 406 388
f 1170 1195 1196 1171
f 1381 1413 1414 1383
f 869 882 883 870
f 1219 1245 1246 1220
f 740 754 753 739
f 864 877 876 863
f 708 729 730 709
f 1555 1581 1582 1556
f 977 991 992 978
f 1279 1303 1304 1280
f 379 397 398 380
f 926 941 942 927
f 1369 1401 1402 1370
f 348 366 367 349
f 1374 1406 1407 1375
f 1538 1568 1570 1540
f 1525 1555 1556 1526
f 1543 1573 1574 1544
f 733 751 752 734
f 51 62 63 52
f 743 757 758 744
f 1506 1508 1507 1477
f 1498 1530 1531 1499
f 1326 1350 1351 1327
f 129 142 143 130
f 201 202 204 203
f 1204 1231 1232 1205
f 29 41 40 28
f 1222 1248 1249 1223
f 1557 1583 1584 1558
f 1591 1615 1616 1592
f 717 736 735 718
f 1211 1238 1237 1212
f 727 745 746 728
f 1420 1449 1450 1421
f 862 864 863 850
f 1603 1626 1627 1604
f 1581 1605 1606 1582
f 112 124 126 114
f 695 716 717 696
f 742 756 757 743
f 769 783 782 768
f 1628 1644 1645 1629
f 584 604 605 585
f 1589 1613 1614 1590
f 559 580 581 560
f 853 868 869 854
f 710 731 732 711
f 1034 1050 1051 1035
f 856 871 872 857
f 1572 1597 1598 1573
f 789 803 804 790
f 425 445 446 426
f 838 851 852 839
f 396 418 419 397
f 1689 1699 1700 1690
f 1436 1465 1466 1437
f 593 613 615 595
f 505 525 526 506
f 1551 1576 1578 1552
f 186 207 208 187
f 681 702 703 682
f 388 406 407 389
f 28 40 42 30
f 1562 1588 1589 1563
f 1533 1563 1564 1534
f 24 31 32 25
f 635 659 660 634
f 1299 1323 1324 1300
f 903 916 915 902
f 784 798 799 785
f 692 713 714 693
f 1675 1687 1688 1676
f 1661 1676 1677 1662
f 1687 1697 1698 1688
f 1677 1689 1690 1678
f 1321 1345 1346 1322
f 177 194 195 178
f 1601 1624 1623 1600
f 690 711 712 691
f 12 17 18 14
f 497 517 518 498
f 56 67 68 57
f 178 195 196 179
f 1243 1267 1268 1244
f 807 820 821 808
f 1016 1032 1031 1018
f 1173 1198 1199 1174
f 712 733 734 713
f 822 838 839 824
f 799 812 813 800
f 1188 1215 1216 1189
f 325 343 344 326
f 7 10 12 9
f 30 42 43 31
f 836 849 851 838
f 403 425 426 404
f 814 827 828 815
f 895 908 909 896
f 910 923 924 911
f 585 605 606 586
f 275 293 294 276
f 70 71 73 72
f 88 100 102 89
f 829 844 845 830
f 594 614 613 593
f 1050 1067 1068 1051
f 824 839 840 825
f 883 896 897 884
f 1478 1510 1511 1479
f 62 76 77 63
f 816 829 830 817
f 428 448 449 429
f 243 265 264 245
f 1230 1256 1257 1231
f 1001 1017 1016 1000
f 1417 1446 1448 1419
f 813 826 827 814
f 1291 1315 1316 1292
f 1401 1431 1432 1402
f 776 790 791 777
f 59 69 71 70
f 569 590 591 570
f 773 787 788 774
f 377 395 396 378
f 586 606 607 587
f 1223 1249 1250 1224
f 1466 1497 1498 1467
f 395 417 418 396
f 167 180 182 181
f 445 465 466 446
f 1433 1462 1463 1434
f 701 722 721 700
f 1275 1299 1300 1276
f 412 432 434 414
f 361 379 380 362
f 725 743 744 726
f 1025 1039 1040 1026
f 660 683 684 661
f 905 918 919 906
f 1206 1233 1234 1208
f 871 884 885 872
f 1529 1559 1560 1530
f 371 389 390 372
f 279 297 298 280
f 570 591 592 571
f 89 102 103 90
f 1255 1279 1280 1256
f 886 899 900 887
f 1008 1024 1025 1009
f 467 489 490 468
f 1418 1447 1446 1417
f 1187 1214 1215 1188
f 208 226 227 209
f 459 481 482 460
f 878 891 892 879
f 839 852 853 840
f 1220 1246 1247 1221
f 555 576 577 556
f 295 313 314 296
f 232 252 253 233
f 182 198 200 199
f 266 283 285 267
f 870 883 884 871
f 783 797 796 782
f 896 909 910 897
f 539 558 559 540
f 148 164 165 149
f 206 224 223 205
f 240 260 261 242
f 909 922 923 910
f 846 859 860 847
f 145 161 162 146
f 143 159 160 144
f 697 718 719 698
f 893 906 907 894
f 790 804 805 791
f 460 482 483 461
f 880 893 894 881
f 933 946 947 934
f 423 443 444 424
f 214 232 233 215
f 184 205 207 186
f 603 623 624 604
f 1331 1355 1356 1332
f 355 373 375 357
f 1000 1016 1018 1002
f 316 334 335 317
f 281 299 300 282
f 296 314 315 297
f 997 1011 1012 998
f 1161 1186 1187 1162
f 1055 1072 1073 1056
f 1458 1489 1490 1459
f 93 106 107 94
f 228 248 249 229
f 450 470 471 451
f 304 322 323 305
f 1054 1071 1072 1055
f 218 236 237 219
f 1103 1121 1123 1122
f 1276 1300 1301 1277
f 691 712 713 692
f 284 302 301 283
f 286 304 305 287
f 369 387 388 370
f 507 527 528 508
f 958 973 972 957
f 452 475 476 454
f 1450 1481 1482 1451
f 675 698 699 676
f 210 228 229 211
f 996 1010 1011 997
f 1315 1339 1340 1316
f 935 948 949 936
f 984 998 999 985
f 659 682 683 660
f 575 595 596 576
f 294 312 313 295
f 368 386 387 369
f 1165 1190 1191 1166
f 950 963 964 951
f 1047 1064 1066 1049
f 1280 1304 1305 1281
f 254 274 275 255
f 308 326 327 309
f 1314 1338 1339 1315
f 491 512 513 492
f 942 955 956 943
f 1074 1095 1096 1075
f 976 990 991 977
f 755 771 772 756
f 391 414 415 393
f 342 360 361 343
f 352 370 371 353
f 973 987 986 972
f 634 660 661 636
f 508 528 529 509
f 843 856 857 844
f 968 983 984 969
f 41 50 49 40
f 366 384 385 367
f 312 330 331 313
f 965 980 981 966
f 1387 1388 1390 1359
f 1066 1086 1088 1067
f 960 975 976 961
f 835 837 836 823
f 356 374 373 355
f 374 392 391 373
f 1465 1496 1497 1466
f 941 954 955 942
f 936 949 950 937
f 711 732 733 712
f 1041 1057 1058 1042
f 448 468 469 449
f 234 254 255 235
f 626 648 649 627
f 476 497 498 477
f 872 885 886 873
f 811 824 825 812
f 444 464 465 445
f 121 133 134 122
f 416 436 437 417
f 547 566 567 548
f 1198 1225 1226 1199
f 1308 1332 1333 1309
f 1215 1241 1242 1216
f 427 447 448 428
f 436 456 457 437
f 158 171 172 159
f 480 501 502 481
f 921 936 937 922
f 1347 1371 1372 1348
f 484 505 506 485
f 1569 1594 1593 1568
f 995 1009 1010 996
f 420 440 441 421
f 430 450 451 431
f 504 524 525 505
f 1022 1036 1037 1023
f 1136 1168 1169 1137
f 1130 1162 1163 1131
f 979 993 994 980
f 847 860 861 848
f 273 291 292 274
f 520 541 542 521
f 1157 1182 1184 1159
f 1006 1022 1023 1007
f 999 1013 1015 1014
f 1554 1580 1581 1555
f 1035 1051 1052 1036
f 791 805 806 792
f 462 484 485 463
f 721 739 741 723
f 523 544 545 524
f 975 989 990 976
f 1040 1056 1057 1041
f 671 694 695 672
f 1032 1048 1047 1031
f 500 520 521 501
f 1083 1102 1103 1085
f 1386 1389 1388 1387
f 1037 1053 1054 1038
f 1304 1328 1329 1305
f 1143 1144 1146 1145
f 1128 1160 1161 1129
f 1043 1059 1060 1044
f 983 997 998 984
f 486 507 508 487
f 600 620 621 601
f 1029 1043 1044 1030
f 650 675 676 651
f 1098 1116 1117 1099
f 11 16 15 10
f 494 514 516 496
f 588 608 609 589
f 1395 1425 1426 1396
f 1490 1522 1523 1491
f 1147 1148 1150 1149
f 927 942 943 929
f 537 556 557 538
f 608 628 629 609
f 1141 1173 1174 1142
f 1110 1130 1131 1111
f 1353 1377 1378 1354
f 1332 1356 1357 1333
f 1115 1135 1136 1116
f 1071 1092 1093 1072
f 438 458 459 439
f 1489 1521 1522 1490
f 250 270 271 251
f 1379 1411 1412 1380
f 1138 1170 1171 1139
f 1099 1117 1118 1100
f 1324 1348 1349 1325
f 564 585 586 565
f 1580 1604 1605 1581
f 640 665 666 641
f 587 607 608 588
f 1371 1403 1404 1372
f 1199 1226 1227 1200
f 1272 1296 1297 1273
f 939 952 953 940
f 1127 1159 1160 1128
f 566 587 588 567
f 1656 1671 1673 1658
f 242 261 263 262
f 1102 1120 1121 1103
f 524 545 546 525
f 1482 1514 1515 1483
f 643 668 669 644
f 529 550 551 530
f 1095 1113 1114 1096
f 187 208 209 188
f 598 618 619 599
f 686 707 708 687
f 1087 1105 1104 1086
f 682 703 704 683
f 672 695 696 673
f 1086 1104 1106 1088
f 1191 1218 1219 1192
f 1104 1124 1126 1106
f 1403 1433 1434 1404
f 1023 1037 1038 1024
f 622 644 645 623
f 1481 1513 1514 1482
f 563 584 585 564
f 1182 1209 1211 1184
f 1114 1134 1135 1115
f 1096 1114 1115 1097
f 1094 1112 1113 1095
f 951 964 965 952
f 630 652 653 631
f 616 638 639 617
f 1117 1137 1138 1118
f 666 689 690 667
f 1064 1087 1086 1066
f 679 700 702 681
f 472 474 473 453
f 1427 1456 1457 1428
f 1514 1545 1546 1515
f 183 185 184 169
f 658 679 681 657
f 1109 1129 1130 1110
f 580 600 601 581
f 1364 1396 1397 1365
f 1323 1347 1348 1324
f 726 744 745 727
f 1089 1107 1108 1090
f 900 913 914 901
f 1077 1098 1099 1078
f 193 214 215 194
f 1106 1126 1127 1107
f 1585 1609 1610 1586
f 17 23 24 18
f 1010 1026 1027 1011
f 574 594 593 573
f 1426 1455 1456 1427
f 1013 1029 1030 1015
f 1411 1441 1442 1412
f 1664 1679 1680 1665
f 1264 1288 1289 1265
f 1531 1561 1562 1532
f 724 742 743 725
f 1105 1125 1124 1104
f 1406 1436 1437 1407
f 885 898 899 886
f 556 577 578 557
f 1158 1183 1182 1157
f 1348 1372 1373 1349
f 1515 1546 1547 1516
f 1439 1468 1469 1440
f 1057 1074 1075 1058
f 832 847 848 833
f 573 593 595 575
f 1150 1178 1179 1152
f 1167 1192 1193 1168
f 1168 1193 1194 1169
f 866 879 880 867
f 1367 1399 1400 1368
f 521 542 543 522
f 840 853 854 841
f 1317 1341 1342 1318
f 1126 1157 1159 1127
f 1159 1184 1185 1160
f 1160 1185 1186 1161
f 1587 1611 1612 1588
f 1263 1287 1286 1262
f 69 83 84 71
f 800 813 814 801
f 346 364 365 347
f 1070 1091 1092 1071
f 1256 1280 1281 1257
f 1249 1273 1274 1250
f 768 782 784 770
f 1195 1222 1223 1196
f 934 947 948 935
f 1151 1152 1154 1153
f 1530 1560 1561 1531
f 1691 1701 1702 1692
f 1615 1638 1639 1616
f 313 331 332 314
f 904 917 918 905
f 899 912 913 900
f 1260 1284 1285 1261
f 1063 1079 1081 1080
f 1396 1426 1427 1397
f 1667 1682 1683 1668
f 1583 1607 1608 1584
f 702 723 724 703
f 912 925 926 913
f 1301 1325 1326 1302
f 770 784 785 771
f 919 934 935 920
f 1522 1552 1553 1523
f 1651 1667 1668 1652
f 884 897 898 885
f 298 316 317 299
f 647 672 673 648
f 1648 1664 1665 1649
f 1246 1270 1271 1247
f 260 280 281 261
f 918 933 934 919
f 920 935 936 921
f 651 676 677 652
f 44 53 54 45
f 119 131 132 120
f 1380 1412 1413 1381
f 758 774 775 759
f 852 867 868 853
f 830 845 846 831
f 952 965 966 953
f 1121 1141 1142 1123
f 1579 1603 1604 1580
f 863 876 878 865
f 1232 1258 1259 1233
f 100 112 114 102
f 48 57 59 58
f 602 622 623 603
f 601 621 622 602
f 1351 1375 1376 1352
f 706 727 728 707
f 1224 1250 1251 1225
f 625 647 648 626
f 104 116 117 105
f 854 869 870 855
f 992 1006 1007 993
f 1277 1301 1302 1278
f 1491 1523 1524 1492
f 1202 1229 1230 1203
f 1200 1227 1228 1201
f 220 238 239 221
f 1535 1565 1566 1536
f 894 907 908 895
f 385 403 404 386
f 1477 1507 1509 1476
f 698 719 720 699
f 37 47 48 39
f 1144 1175 1176 1146
f 268 286 287 269
f 1271 1295 1296 1272
f 902 915 917 904
f 1442 1471 1472 1443
f 1172 1197 1198 1173
f 1446 1478 1479 1448
f 1024 1038 1039 1025
f 252 272 273 253
f 200 220 221 202
f 609 629 630 610
f 1553 1579 1580 1554
f 1269 1293 1294 1270
f 1467 1498 1499 1468
f 1343 1367 1368 1344
f 1609 1632 1633 1610
f 455 477 478 456
f 1012 1028 1029 1013
f 1259 1283 1284 1260
f 1056 1073 1074 1057
f 1253 1277 1278 1254
f 1278 1302 1303 1279
f 209 227 228 210
f 990 1004 1005 991
f 156 168 170 157
f 1004 1020 1021 1005
f 1169 1194 1195 1170
f 761 777 778 762
f 644 669 670 645
f 1270 1294 1295 1271
f 1400 1430 1431 1401
f 404 426 427 405
f 376 394 395 377
f 966 981 982 967
f 1088 1106 1107 1089
f 1245 1269 1270 1246
f 1254 1278 1279 1255
f 1441 1470 1471 1442
f 1626 1642 1643 1627
f 815 828 829 816
f 344 362 363 345
f 974 988 989 975
f 1120 1140 1141 1121
f 1221 1247 1248 1222
f 730 748 749 731
f 1503 1535 1536 1504
f 1296 1320 1321 1297
f 380 398 399 381
f 272 290 291 273
f 1153 1154 1156 1155
f 1561 1587 1588 1562
f 43 52 53 44
f 1523 1553 1554 1524
f 21 28 30 23
f 959 974 975 960
f 168 186 187 170
f 998 1012 1013 999
f 1080 1081 1083 1082
f 314 332 333 315
f 1185 1212 1213 1186
f 1319 1343 1344 1320
f 1392 1422 1423 1393
f 572 574 573 554
f 1052 1069 1070 1053
f 1030 1044 1046 1045
f 1176 1201 1202 1177
f 683 704 705 684
f 1438 1467 1468 1439
f 1311 1335 1334 1310
f 1570 1595 1596 1571
f 540 559 560 541
f 464 486 487 465
f 1038 1054 1055 1039
f 1184 1211 1212 1185
f 969 984 985 971
f 1507 1538 1540 1509
f 1028 1042 1043 1029
f 433 453 452 432
f 1287 1311 1310 1286
f 1342 1366 1367 1343
f 1460 1491 1492 1461
f 596 616 617 597
f 1092 1110 1111 1093
f 618 640 641 619
f 753 770 771 755
f 1469 1500 1501 1470
f 1334 1358 1360 1336
f 1423 1452 1453 1424
f 1681 1693 1694 1682
f 911 924 925 912
f 1140 1172 1173 1141
f 1190 1217 1218 1191
f 1216 1242 1243 1217
f 667 690 691 668
f 1430 1459 1460 1431
f 1194 1221 1222 1195
f 1536 1566 1567 1537
f 68 82 83 69
f 1124 1158 1157 1126
f 1137 1169 1170 1138
f 1240 1264 1265 1241
f 1357 1381 1383 1382
f 700 721 723 702
f 1444 1473 1474 1445
f 1349 1373 1374 1350
f 1248 1272 1273 1249
f 754 768 770 753
f 817 830 831 818
f 1368 1400 1401 1369
f 718 735 737 719
f 656 657 659 635
f 353 371 372 354
f 1577 1601 1600 1576
f 945 958 957 944
f 417 437 438 418
f 1495 1527 1528 1496
f 1360 1392 1393 1361
f 1042 1058 1059 1043
f 560 581 582 561
f 1142 1174 1175 1144
f 1192 1219 1220 1193
f 1461 1492 1493 1462
f 746 760 761 747
f 684 705 706 685
f 1336 1360 1361 1337
f 756 772 773 757
f 440 460 461 441
f 1166 1191 1192 1167
f 1593 1617 1619 1595
f 330 348 349 331
f 95 108 109 96
f 132 145 146 133
f 828 843 844 829
f 1174 1199 1200 1175
f 35 46 47 37
f 731 749 750 732
f 1539 1569 1568 1538
f 1391 1421 1422 1392
f 1586 1610 1611 1587
f 812 825 826 813
f 33 45 46 35
f 1129 1161 1162 1130
f 185 206 205 184
f 322 340 341 323
f 1180 1205 1206 1181
f 1383 1414 1415 1385
f 1492 1524 1525 1493
f 804 817 818 805
f 1292 1316 1317 1293
f 1118 1138 1139 1119
f 1352 1376 1377 1353
f 102 114 115 103
f 1398 1428 1429 1399
f 1487 1519 1520 1488
f 1633 1649 1650 1634
f 636 661 662 637
f 1244 1268 1269 1245
f 642 667 668 643
f 1376 1408 1409 1377
f 874 887 888 875
f 1186 1213 1214 1187
f 1366 1398 1399 1367
f 1528 1558 1559 1529
f 1154 1180 1181 1156
f 1268 1292 1293 1269
f 65 79 80 66
f 1416 1418 1417 1389
f 707 728 729 708
f 1318 1342 1343 1319
f 732 750 751 733
f 1476 1509 1510 1478
f 956 969 971 970
f 944 957 959 946
f 1262 1286 1288 1264
f 801 814 815 802
f 1429 1458 1459 1430
f 1595 1619 1620 1596
f 1178 1203 1204 1179
f 1440 1469 1470 1441
f 940 953 954 941
f 1284 1308 1309 1285
f 1286 1310 1312 1288
f 1328 1352 1353 1329
f 1421 1450 1451 1422
f 1201 1228 1229 1202
f 120 132 133 121
f 1432 1461 1462 1433
f 1020 1034 1035 1021
f 744 758 759 745
f 1389 1417 1419 1388
f 1448 1479 1480 1449
f 1606 1629 1630 1607
f 1471 1502 1503 1472
f 1520 1549 1551 1521
f 1108 1128 1129 1109
f 1112 1132 1133 1113
f 1294 1318 1319 1295
f 1456 1487 1488 1457
f 1325 1349 1350 1326
f 858 873 874 859
f 1463 1494 1495 1464
f 1602 1625 1626 1603
f 1402 1432 1433 1403
f 1072 1093 1094 1073
f 577 597 598 578
f 401 423 424 402
f 763 779 780 764
f 1470 1501 1502 1471
f 1455 1486 1487 1456
f 1524 1554 1555 1525
f 1148 1177 1178 1150
f 1412 1442 1443 1413
f 1241 1265 1266 1242
f 1488 1520 1521 1489
f 993 1007 1008 994
f 1462 1493 1494 1463
f 1431 1460 1461 1432
f 1640 1656 1658 1642
f 1504 1536 1537 1505
f 1350 1374 1375 1351
f 1605 1628 1629 1606
f 1590 1614 1615 1591
f 1359 1390 1391 1358
f 1508 1539 1538 1507
f 924 939 940 925
f 1404 1434 1435 1405
f 1382 1383 1385 1384
f 1 4 3 2
f 764 780 781 765
f 1516 1547 1548 1517
f 1303 1327 1328 1304
f 1388 1419 1420 1390
f 305 323 324 306
f 1625 1640 1642 1626
f 426 446 447 427
f 802 815 816 803
f 1409 1439 1440 1410
f 1496 1528 1529 1497
f 1228 1254 1255 1229
f 1208 1234 1236 1235
f 1390 1420 1421 1391
f 1464 1495 1496 1465
f 1501 1533 1534 1502
f 1643 1659 1660 1644
f 1663 1678 1679 1664
f 1472 1503 1504 1473
f 1414 1444 1445 1415
f 1152 1179 1180 1154
f 1641 1657 1656 1640
f 1493 1525 1526 1494
f 786 800 801 787
f 1274 1298 1299 1275
f 1408 1438 1439 1409
f 1597 1621 1622 1598
f 1527 1557 1558 1528
f 1649 1665 1666 1650
f 1212 1237 1239 1213
f 1048 1065 1064 1047
f 1422 1451 1452 1423
f 1560 1586 1587 1561
f 370 388 389 371
f 1611 1634 1635 1612
f 1519 1550 1549 1520
f 1081 1101 1102 1083
f 1316 1340 1341 1317
f 760 776 777 761
f 1177 1202 1203 1178
f 1568 1593 1595 1570
f 803 816 817 804
f 1300 1324 1325 1301
f 1552 1578 1579 1553
f 1344 1368 1369 1345
f 1358 1391 1392 1360
f 1584 1608 1609 1585
f 362 380 381 363
f 1372 1404 1405 1373
f 1692 1702 1703 1693
f 1540 1570 1571 1541
f 1451 1482 1483 1452
f 1684 1696 1695 1686
f 94 107 108 95
f 1627 1643 1644 1628
f 1647 1663 1664 1648
f 1642 1658 1659 1643
f 1356 1380 1381 1357
f 1532 1562 1563 1533
f 1486 1518 1519 1487
f 1634 1650 1651 1635
f 779 793 794 780
f 1542 1572 1573 1543
f 1226 1252 1253 1227
f 1512 1543 1544 1513
f 1340 1364 1365 1341
f 217 235 236 218
f 793 807 808 794
f 1573 1598 1599 1574
f 1196 1223 1224 1197
f 1596 1620 1621 1597
f 1480 1512 1513 1481
f 1526 1556 1557 1527
f 1673 1684 1686 1674
f 1565 1591 1592 1566
f 1534 1564 1565 1535
f 796 809 811 798
f 1600 1623 1625 1602
f 27 33 35 34
f 1424 1453 1454 1425
f 79 91 92 80
f 1676 1688 1689 1677
f 1541 1571 1572 1542
f 1502 1534 1535 1503
f 1631 1647 1648 1632
f 1218 1244 1245 1219
f 1500 1532 1533 1501
f 1312 1336 1337 1313
f 1558 1584 1585 1559
f 1658 1673 1674 1659
f 1693 1703 1704 1694
f 705 726 727 706
f 780 794 795 781
f 1576 1600 1602 1578
f 1484 1516 1517 1485
f 1107 1127 1128 1108
f 1582 1606 1607 1583
f 3 7 9 6
f 386 404 405 387
f 1225 1251 1252 1226
f 1468 1499 1500 1469
f 1632 1648 1649 1633
f 1588 1612 1613 1589
f 778 792 793 779
f 1657 1672 1671 1656
f 827 842 843 828
f 71 84 85 73
f 1623 1641 1640 1625
f 1544 1574 1575 1545
f 1556 1582 1583 1557
f 393 415 416 394
f 1494 1526 1527 1495
f 498 518 519 499
f 1009 1025 1026 1010
f 1690 1700 1701 1691
f 1288 1312 1313 1289
f 1612 1635 1636 1613
f 1646 1662 1663 1647
f 1674 1686 1687 1675
f 86 101 100 88
f 1659 1674 1675 1660
f 1607 1630 1631 1608
f 728 746 747 729
f 1666 1681 1682 1667
f 785 799 800 786
f 1662 1677 1678 1663
f 1559 1585 1586 1560
f 1564 1590 1591 1565
f 1652 1668 1669 1653
f 1678 1690 1691 1679
f 1644 1660 1661 1645
f 819 832 833 820
f 1638 1654 1655 1639
f 32 44 45 33
f 1247 1271 1272 1248
f 1452 1483 1484 1453
f 1636 1652 1653 1637
f 1630 1646 1647 1631
f 1679 1691 1692 1680
f 1680 1692 1693 1681
f 792 806 807 793
f 1660 1675 1676 1661
f 15 21 23 17
f 1650 1666 1667 1651
f 1653 1669 1670 1654
f 1688 1698 1699 1689
