# exported by blender_batch_chars_to_s.py fallback
v 1.224673 -0.035025 0.000000
v 1.230657 -0.034448 0.000000
v 1.230430 -0.038713 0.047020
v 1.223772 -0.038858 0.000000
v 1.239343 -0.034448 0.000000
v 1.239570 -0.038713 0.047020
v 1.245327 -0.035025 0.000000
v 1.246228 -0.038858 0.000000
v 1.230430 -0.044569 0.047020
v 1.223772 -0.044423 0.000000
v 1.239570 -0.044569 0.047020
v 1.246228 -0.044423 0.000000
v 1.230657 -0.048834 0.000000
v 1.224673 -0.048257 0.000000
v 1.239343 -0.048834 0.000000
v 1.245327 -0.048257 0.000000
v 0.944676 -0.163152 0.000000
v 0.950717 -0.162562 0.000000
v 0.950458 -0.166856 0.052276
v 0.943755 -0.167024 0.000000
v 0.960006 -0.162464 0.000000
v 0.960024 -0.166837 0.063327
v 0.969372 -0.162564 0.000000
v 0.969892 -0.166869 0.055338
v 0.975970 -0.163179 0.000000
v 0.979059 -0.167211 0.000000
v 0.950425 -0.172987 0.067924
v 0.943584 -0.173008 0.000000
v 0.960027 -0.172986 0.084599
v 0.969993 -0.172990 0.082246
v 0.979902 -0.173048 0.060043
v 0.985991 -0.169163 0.000000
v 0.989527 -0.173492 0.000000
v 0.950425 -0.179358 0.068125
v 0.943584 -0.179336 0.000000
v 0.960028 -0.179374 0.086476
v 0.970001 -0.179376 0.092014
v 0.979995 -0.179380 0.085562
v 0.989967 -0.179426 0.071604
v 0.999956 -0.174980 0.000000
v 0.999997 -0.179613 0.067946
v 1.009995 -0.175228 0.000000
v 1.010000 -0.179644 0.067326
v 1.019942 -0.175263 0.000000
v 1.019995 -0.179647 0.065746
v 1.029374 -0.175375 0.000000
v 1.029924 -0.179675 0.055969
v 1.036035 -0.175978 0.000000
v 1.039530 -0.179941 0.000000
v 0.950460 -0.185523 0.053006
v 0.943755 -0.185323 0.000000
v 0.960053 -0.185749 0.069872
v 0.970003 -0.185780 0.087850
v 0.980000 -0.185781 0.094191
v 0.989999 -0.185784 0.092123
v 1.000000 -0.185797 0.091330
v 1.010000 -0.185799 0.091158
v 1.020000 -0.185799 0.090261
v 1.029996 -0.185801 0.084988
v 1.039967 -0.185834 0.071533
v 1.049954 -0.181389 0.000000
v 1.049997 -0.186019 0.067817
v 1.059940 -0.181646 0.000000
v 1.059994 -0.186052 0.065756
v 1.069369 -0.181781 0.000000
v 1.069888 -0.186088 0.055523
v 1.075965 -0.182397 0.000000
v 1.078988 -0.186429 0.000000
v 0.950751 -0.190082 0.000000
v 0.944678 -0.189232 0.000000
v 0.960405 -0.191931 0.000000
v 0.970051 -0.192170 0.073417
v 0.980003 -0.192187 0.093811
v 0.990000 -0.192188 0.100061
v 1.000000 -0.192188 0.102013
v 1.010000 -0.192188 0.102444
v 1.020000 -0.192188 0.101672
v 1.030000 -0.192188 0.098246
v 1.039999 -0.192190 0.092905
v 1.050000 -0.192203 0.091340
v 1.059999 -0.192205 0.090093
v 1.069967 -0.192208 0.082771
v 1.079521 -0.192259 0.056690
v 1.085282 -0.188367 0.000000
v 1.086242 -0.192592 0.000000
v 0.970415 -0.198543 0.058022
v 0.963289 -0.198173 0.000000
v 0.980029 -0.198591 0.087685
v 0.990001 -0.198594 0.101278
v 1.000000 -0.198594 0.107390
v 1.010000 -0.198594 0.109888
v 1.020000 -0.198594 0.109621
v 1.030000 -0.198594 0.106500
v 1.040000 -0.198594 0.103540
v 1.050000 -0.198594 0.102606
v 1.059999 -0.198594 0.101191
v 1.069973 -0.198594 0.094127
v 1.079574 -0.198598 0.070327
v 1.086416 -0.198631 0.000000
v 0.970894 -0.204671 0.000000
v 0.964638 -0.202456 0.000000
v 0.980085 -0.204976 0.073485
v 0.990004 -0.204999 0.096443
v 1.000000 -0.205000 0.107530
v 1.010000 -0.205000 0.114216
v 1.020000 -0.205000 0.116022
v 1.030000 -0.205000 0.113598
v 1.040000 -0.205000 0.111445
v 1.050000 -0.205000 0.110542
v 1.059999 -0.205000 0.108145
v 1.069973 -0.205000 0.098979
v 1.079577 -0.205000 0.073750
v 1.086434 -0.205002 0.000000
v 0.980417 -0.211356 0.058147
v 0.973334 -0.210978 0.000000
v 0.990028 -0.211404 0.088742
v 1.000001 -0.211406 0.104691
v 1.010000 -0.211406 0.114476
v 1.020000 -0.211406 0.119485
v 1.030000 -0.211406 0.119555
v 1.040000 -0.211406 0.118442
v 1.050000 -0.211406 0.117080
v 1.059999 -0.211406 0.112490
v 1.069973 -0.211406 0.100792
v 1.079577 -0.211406 0.074347
v 1.086435 -0.211406 0.000000
v 0.980880 -0.217510 0.000000
v 0.974640 -0.215270 0.000000
v 0.990083 -0.217791 0.076766
v 1.000004 -0.217812 0.100321
v 1.010000 -0.217812 0.111323
v 1.020000 -0.217812 0.118141
v 1.030000 -0.217812 0.122660
v 1.040000 -0.217812 0.124153
v 1.050000 -0.217812 0.122020
v 1.059999 -0.217812 0.114543
v 1.069973 -0.217812 0.101273
v 1.079577 -0.217813 0.074422
v 1.086435 -0.217813 0.000000
v 0.990374 -0.224213 0.070789
v 0.983162 -0.224154 0.000000
v 1.000025 -0.224219 0.095181
v 1.010001 -0.224219 0.105915
v 1.020000 -0.224219 0.113912
v 1.030000 -0.224219 0.121675
v 1.040000 -0.224219 0.126774
v 1.050000 -0.224219 0.124356
v 1.059999 -0.224219 0.115244
v 1.069973 -0.224219 0.101376
v 1.079577 -0.224219 0.074430
v 1.086437 -0.224219 0.000000
v 0.990475 -0.230555 0.056925
v 0.983719 -0.230219 0.000000
v 1.000033 -0.230620 0.084700
v 1.010001 -0.230625 0.099058
v 1.020000 -0.230625 0.109309
v 1.030000 -0.230625 0.118927
v 1.040000 -0.230625 0.126027
v 1.050000 -0.230625 0.124495
v 1.059999 -0.230625 0.115314
v 1.069973 -0.230625 0.101388
v 1.079581 -0.230625 0.074452
v 1.086474 -0.230626 0.000000
v 0.991013 -0.236428 0.000000
v 0.984715 -0.234449 0.000000
v 1.000124 -0.236969 0.060848
v 1.010008 -0.237028 0.089299
v 1.020000 -0.237031 0.105279
v 1.030000 -0.237031 0.116675
v 1.040000 -0.237031 0.124786
v 1.050000 -0.237031 0.124192
v 1.059999 -0.237031 0.115298
v 1.069975 -0.237031 0.101455
v 1.079629 -0.237033 0.074782
v 1.086857 -0.237059 0.000000
v 1.000817 -0.243135 0.000000
v 0.994059 -0.240869 0.000000
v 1.010079 -0.243417 0.077421
v 1.020004 -0.243437 0.102132
v 1.030000 -0.243437 0.115513
v 1.040000 -0.243437 0.124077
v 1.050000 -0.243437 0.123900
v 1.060000 -0.243437 0.115428
v 1.069996 -0.243438 0.102114
v 1.079918 -0.243458 0.077374
v 1.089116 -0.243739 0.000000
v 1.010371 -0.249842 0.074783
v 1.003140 -0.249816 0.000000
v 1.020025 -0.249844 0.101438
v 1.030001 -0.249844 0.115121
v 1.040000 -0.249844 0.123270
v 1.050000 -0.249844 0.122922
v 1.060000 -0.249844 0.115839
v 1.069999 -0.249844 0.105030
v 1.079969 -0.249846 0.088741
v 1.089531 -0.249892 0.057801
v 1.095302 -0.245978 0.000000
v 1.096243 -0.250245 0.000000
v 1.010419 -0.256250 0.074446
v 1.003526 -0.256249 0.000000
v 1.020027 -0.256250 0.101287
v 1.030001 -0.256250 0.114436
v 1.040000 -0.256250 0.120699
v 1.050000 -0.256250 0.119397
v 1.060000 -0.256250 0.114959
v 1.069999 -0.256250 0.107547
v 1.079973 -0.256250 0.095836
v 1.089575 -0.256253 0.070553
v 1.096417 -0.256287 0.000000
v 1.010423 -0.262656 0.074413
v 1.003563 -0.262656 0.000000
v 1.020027 -0.262656 0.101121
v 1.030001 -0.262656 0.113236
v 1.040000 -0.262656 0.116461
v 1.050000 -0.262656 0.113668
v 1.060000 -0.262656 0.110653
v 1.069999 -0.262656 0.107099
v 1.079973 -0.262656 0.098376
v 1.089577 -0.262656 0.073620
v 1.096434 -0.262658 0.000000
v 1.010423 -0.269062 0.074389
v 1.003565 -0.269063 0.000000
v 1.020027 -0.269062 0.100846
v 1.030001 -0.269062 0.111567
v 1.040000 -0.269062 0.111531
v 1.050000 -0.269062 0.106997
v 1.060000 -0.269062 0.103487
v 1.069999 -0.269062 0.101685
v 1.079973 -0.269062 0.096004
v 1.089577 -0.269062 0.073138
v 1.096434 -0.269061 0.000000
v 1.010423 -0.275469 0.074311
v 1.003565 -0.275469 0.000000
v 1.020027 -0.275469 0.100199
v 1.030001 -0.275469 0.108757
v 1.040000 -0.275469 0.105700
v 1.050000 -0.275469 0.099178
v 1.059999 -0.275466 0.092996
v 1.069999 -0.275453 0.091062
v 1.079973 -0.275451 0.087403
v 1.089575 -0.275449 0.068728
v 1.096417 -0.275428 0.000000
v 1.010423 -0.281875 0.074192
v 1.003565 -0.281875 0.000000
v 1.020027 -0.281875 0.099279
v 1.030001 -0.281875 0.105109
v 1.040000 -0.281875 0.098743
v 1.049995 -0.281871 0.086882
v 1.059967 -0.281824 0.071744
v 1.069996 -0.281637 0.067792
v 1.079970 -0.281605 0.065263
v 1.089542 -0.281582 0.052468
v 1.096245 -0.281413 0.000000
v 1.010423 -0.288281 0.074094
v 1.003565 -0.288281 0.000000
v 1.020027 -0.288281 0.098470
v 1.030001 -0.288281 0.101468
v 1.039994 -0.288278 0.088863
v 1.049912 -0.288225 0.061263
v 1.059528 -0.287760 0.000000
v 1.069954 -0.286269 0.000000
v 1.079934 -0.286011 0.000000
v 1.089280 -0.285877 0.000000
v 1.095324 -0.285286 0.000000
v 1.010423 -0.294688 0.074023
v 1.003565 -0.294688 0.000000
v 1.020027 -0.294688 0.097787
v 1.029997 -0.294687 0.097789
v 1.039921 -0.294666 0.076531
v 1.049186 -0.294384 0.000000
v 1.056011 -0.292132 0.000000
v 1.010423 -0.301094 0.073896
v 1.003565 -0.301094 0.000000
v 1.020027 -0.301094 0.096835
v 1.029976 -0.301094 0.094201
v 1.039627 -0.301089 0.070740
v 1.046842 -0.301029 0.000000
v 1.010423 -0.307500 0.073714
v 1.003565 -0.307500 0.000000
v 1.020026 -0.307500 0.095309
v 1.029970 -0.307497 0.087449
v 1.039534 -0.307451 0.057719
v 1.046282 -0.307097 0.000000
v 1.010423 -0.313906 0.073509
v 1.003565 -0.313906 0.000000
v 1.020024 -0.313905 0.093232
v 1.029918 -0.313885 0.076350
v 1.039116 -0.313605 0.000000
v 1.045305 -0.311366 0.000000
v 1.010422 -0.320312 0.073453
v 1.003565 -0.320312 0.000000
v 1.020003 -0.320312 0.092699
v 1.029630 -0.320311 0.073780
v 1.036857 -0.320285 0.000000
v 1.010422 -0.326719 0.073247
v 1.003565 -0.326719 0.000000
v 1.020000 -0.326719 0.091932
v 1.029581 -0.326719 0.072998
v 1.036473 -0.326716 0.000000
v 1.010422 -0.333125 0.072383
v 1.003565 -0.333125 0.000000
v 1.020000 -0.333125 0.088982
v 1.029576 -0.333122 0.069822
v 1.036419 -0.333088 0.000000
v 1.010422 -0.339531 0.070861
v 1.003565 -0.339531 0.000000
v 1.019996 -0.339529 0.082295
v 1.029532 -0.339483 0.057132
v 1.036244 -0.339130 0.000000
v 1.010419 -0.345937 0.068787
v 1.003565 -0.345937 0.000000
v 1.019945 -0.345917 0.071201
v 1.029117 -0.345636 0.000000
v 1.035302 -0.343397 0.000000
v 1.010398 -0.352344 0.068353
v 1.003564 -0.352344 0.000000
v 1.019656 -0.352342 0.068659
v 1.026858 -0.352316 0.000000
v 1.010396 -0.358750 0.068314
v 1.003564 -0.358750 0.000000
v 1.019608 -0.358750 0.068334
v 1.026475 -0.358749 0.000000
v 1.010395 -0.365156 0.068312
v 1.003564 -0.365156 0.000000
v 1.019605 -0.365156 0.068313
v 1.026438 -0.365156 0.000000
v 1.010396 -0.371563 0.068312
v 1.003564 -0.371563 0.000000
v 1.019604 -0.371562 0.068312
v 1.026436 -0.371562 0.000000
v 1.010395 -0.377969 0.068312
v 1.003564 -0.377969 0.000000
v 1.019604 -0.377969 0.068312
v 1.026436 -0.377969 0.000000
v 1.010396 -0.384375 0.068312
v 1.003564 -0.384375 0.000000
v 1.019604 -0.384375 0.068312
v 1.026436 -0.384375 0.000000
v 1.010395 -0.390781 0.068312
v 1.003564 -0.390781 0.000000
v 1.019604 -0.390781 0.068312
v 1.026436 -0.390781 0.000000
v 1.010396 -0.397188 0.068312
v 1.003564 -0.397188 0.000000
v 1.019604 -0.397187 0.068312
v 1.026436 -0.397187 0.000000
v 1.010395 -0.403594 0.068312
v 1.003564 -0.403594 0.000000
v 1.019604 -0.403594 0.068312
v 1.026436 -0.403594 0.000000
v 1.010396 -0.410000 0.068312
v 1.003564 -0.410000 0.000000
v 1.019604 -0.410000 0.068312
v 1.026436 -0.410000 0.000000
v 1.010395 -0.416406 0.068312
v 1.003564 -0.416406 0.000000
v 1.019604 -0.416406 0.068312
v 1.026436 -0.416406 0.000000
v 1.010396 -0.422812 0.068312
v 1.003564 -0.422813 0.000000
v 1.019605 -0.422812 0.068313
v 1.026438 -0.422813 0.000000
v 1.010396 -0.429219 0.068314
v 1.003564 -0.429219 0.000000
v 1.019608 -0.429219 0.068334
v 1.026475 -0.429220 0.000000
v 1.010398 -0.435625 0.068353
v 1.003564 -0.435625 0.000000
v 1.019656 -0.435627 0.068660
v 1.026861 -0.435653 0.000000
v 1.010419 -0.442032 0.068788
v 1.003565 -0.442031 0.000000
v 1.019948 -0.442052 0.071236
v 1.029184 -0.442334 0.000000
v 1.010423 -0.448438 0.070856
v 1.003565 -0.448437 0.000000
v 1.020020 -0.448441 0.082672
v 1.029877 -0.448500 0.060144
v 1.035941 -0.444599 0.000000
v 1.038987 -0.449040 0.000000
v 1.010423 -0.454844 0.072124
v 1.003566 -0.454842 0.000000
v 1.020026 -0.454844 0.090691
v 1.029968 -0.454849 0.083593
v 1.039521 -0.454913 0.056821
v 1.045282 -0.451020 0.000000
v 1.046244 -0.455248 0.000000
v 1.010425 -0.461247 0.070011
v 1.003584 -0.461213 0.000000
v 1.020027 -0.461250 0.092169
v 1.029973 -0.461250 0.092444
v 1.039578 -0.461254 0.070160
v 1.046455 -0.461289 0.000000
v 1.010469 -0.467606 0.057559
v 1.003757 -0.467255 0.000000
v 1.020030 -0.467654 0.086618
v 1.029976 -0.467656 0.093640
v 1.039629 -0.467658 0.073331
v 1.046859 -0.467686 0.000000
v 1.010898 -0.473733 0.000000
v 1.004699 -0.471520 0.000000
v 1.020085 -0.474039 0.072721
v 1.030000 -0.474062 0.089824
v 1.039921 -0.474083 0.075295
v 1.049187 -0.474365 0.000000
v 1.020417 -0.480418 0.057713
v 1.013334 -0.480040 0.000000
v 1.030028 -0.480466 0.084868
v 1.039995 -0.480472 0.085239
v 1.049910 -0.480525 0.060804
v 1.056008 -0.476619 0.000000
v 1.059485 -0.480999 0.000000
v 1.020880 -0.486572 0.000000
v 1.014640 -0.484333 0.000000
v 1.030082 -0.486854 0.075013
v 1.040004 -0.486874 0.091332
v 1.049995 -0.486879 0.085695
v 1.059963 -0.486927 0.069995
v 1.069331 -0.482602 0.000000
v 1.069920 -0.487142 0.056481
v 1.076028 -0.483442 0.000000
v 1.079486 -0.487448 0.000000
v 1.030374 -0.493276 0.070383
v 1.023162 -0.493216 0.000000
v 1.040025 -0.493281 0.092619
v 1.050001 -0.493281 0.096294
v 1.059999 -0.493284 0.091675
v 1.069996 -0.493299 0.085033
v 1.079962 -0.493336 0.069860
v 1.089326 -0.489012 0.000000
v 1.089889 -0.493555 0.056098
v 1.095966 -0.489860 0.000000
v 1.099059 -0.493928 0.000000
v 1.030466 -0.499639 0.057720
v 1.023718 -0.499285 0.000000
v 1.040031 -0.499685 0.087768
v 1.050001 -0.499687 0.100032
v 1.060000 -0.499688 0.101330
v 1.070000 -0.499688 0.098111
v 1.079999 -0.499690 0.091799
v 1.089992 -0.499707 0.083521
v 1.099902 -0.499767 0.060195
v 1.105991 -0.495882 0.000000
v 1.109527 -0.500211 0.000000
v 1.030884 -0.505791 0.000000
v 1.024695 -0.503553 0.000000
v 1.040083 -0.506073 0.076599
v 1.050004 -0.506093 0.099069
v 1.060000 -0.506094 0.106062
v 1.070000 -0.506094 0.105593
v 1.080000 -0.506094 0.102385
v 1.090000 -0.506094 0.097364
v 1.099995 -0.506099 0.086668
v 1.109967 -0.506145 0.071735
v 1.119956 -0.501699 0.000000
v 1.119997 -0.506331 0.067954
v 1.129995 -0.501947 0.000000
v 1.130000 -0.506363 0.067326
v 1.139942 -0.501982 0.000000
v 1.139994 -0.506366 0.065725
v 1.149369 -0.502095 0.000000
v 1.149891 -0.506400 0.055570
v 1.155970 -0.502710 0.000000
v 1.159059 -0.506743 0.000000
v 1.040374 -0.512495 0.070895
v 1.033162 -0.512435 0.000000
v 1.050025 -0.512500 0.095740
v 1.060001 -0.512500 0.106288
v 1.070000 -0.512500 0.110059
v 1.080000 -0.512500 0.109539
v 1.090000 -0.512500 0.105504
v 1.100000 -0.512500 0.099134
v 1.109999 -0.512502 0.093014
v 1.120000 -0.512516 0.091436
v 1.130000 -0.512517 0.091161
v 1.140000 -0.512518 0.090132
v 1.149992 -0.512521 0.083327
v 1.159902 -0.512579 0.060183
v 1.165991 -0.508694 0.000000
v 1.169525 -0.513024 0.000000
v 1.040466 -0.518856 0.057725
v 1.033718 -0.518504 0.000000
v 1.050031 -0.518904 0.088119
v 1.060001 -0.518906 0.103086
v 1.070000 -0.518906 0.110940
v 1.080000 -0.518906 0.114304
v 1.090000 -0.518906 0.112018
v 1.100000 -0.518906 0.107056
v 1.110000 -0.518906 0.103615
v 1.120000 -0.518907 0.102759
v 1.130000 -0.518907 0.102544
v 1.140000 -0.518907 0.101595
v 1.150000 -0.518907 0.097266
v 1.159995 -0.518911 0.086655
v 1.169966 -0.518957 0.071568
v 1.179893 -0.514523 0.000000
v 1.179967 -0.519145 0.065767
v 1.189277 -0.514881 0.000000
v 1.189542 -0.519197 0.052503
v 1.195324 -0.515494 0.000000
v 1.196245 -0.519368 0.000000
v 1.040898 -0.524983 0.000000
v 1.034696 -0.522770 0.000000
v 1.050085 -0.525289 0.073535
v 1.060004 -0.525312 0.096739
v 1.070000 -0.525312 0.108394
v 1.080000 -0.525312 0.115648
v 1.090000 -0.525312 0.116846
v 1.100000 -0.525312 0.113752
v 1.110000 -0.525312 0.111479
v 1.120000 -0.525312 0.110910
v 1.130000 -0.525312 0.110703
v 1.140000 -0.525312 0.109619
v 1.150000 -0.525312 0.105510
v 1.160000 -0.525313 0.099114
v 1.169998 -0.525315 0.092646
v 1.179973 -0.525328 0.087602
v 1.189575 -0.525332 0.068742
v 1.196417 -0.525353 0.000000
v 1.050417 -0.531668 0.058150
v 1.043334 -0.531290 0.000000
v 1.060029 -0.531716 0.088769
v 1.070001 -0.531719 0.104806
v 1.080000 -0.531719 0.114716
v 1.090000 -0.531719 0.119551
v 1.100000 -0.531719 0.119291
v 1.110000 -0.531719 0.118394
v 1.120000 -0.531719 0.118218
v 1.130000 -0.531719 0.118035
v 1.140000 -0.531719 0.116764
v 1.150000 -0.531719 0.112473
v 1.160000 -0.531719 0.107025
v 1.169999 -0.531719 0.102703
v 1.179973 -0.531719 0.096244
v 1.189577 -0.531719 0.073187
v 1.196434 -0.531721 0.000000
v 1.050880 -0.537822 0.000000
v 1.044640 -0.535583 0.000000
v 1.060082 -0.538104 0.076767
v 1.070004 -0.538124 0.100324
v 1.080000 -0.538125 0.111277
v 1.090000 -0.538125 0.117699
v 1.100000 -0.538125 0.121395
v 1.110000 -0.538125 0.123543
v 1.120000 -0.538125 0.124846
v 1.130000 -0.538125 0.124985
v 1.140000 -0.538125 0.123343
v 1.150000 -0.538125 0.118789
v 1.160000 -0.538125 0.113706
v 1.169999 -0.538125 0.108957
v 1.179973 -0.538125 0.099577
v 1.189577 -0.538125 0.074157
v 1.196435 -0.538125 0.000000
v 1.060374 -0.544525 0.070787
v 1.053162 -0.544466 0.000000
v 1.070025 -0.544531 0.095155
v 1.080001 -0.544531 0.105653
v 1.090000 -0.544531 0.112633
v 1.100000 -0.544531 0.118749
v 1.110000 -0.544531 0.124707
v 1.120000 -0.544531 0.129510
v 1.130000 -0.544531 0.131379
v 1.140000 -0.544531 0.129700
v 1.150000 -0.544531 0.124905
v 1.160000 -0.544531 0.119605
v 1.169999 -0.544531 0.113025
v 1.179973 -0.544531 0.100924
v 1.189577 -0.544531 0.074384
v 1.196435 -0.544531 0.000000
v 1.060475 -0.550868 0.056916
v 1.053719 -0.550532 0.000000
v 1.070034 -0.550932 0.084558
v 1.080001 -0.550937 0.098072
v 1.090000 -0.550937 0.106307
v 1.100000 -0.550937 0.114029
v 1.110000 -0.550937 0.122416
v 1.120000 -0.550937 0.130572
v 1.130000 -0.550937 0.135991
v 1.140000 -0.550937 0.135649
v 1.150000 -0.550937 0.130724
v 1.160000 -0.550938 0.124151
v 1.169999 -0.550938 0.114946
v 1.179973 -0.550938 0.101323
v 1.189577 -0.550938 0.074426
v 1.196435 -0.550938 0.000000
v 1.061014 -0.556738 0.000000
v 1.054715 -0.554762 0.000000
v 1.070134 -0.557260 0.059950
v 1.080009 -0.557338 0.085229
v 1.090000 -0.557344 0.099109
v 1.100000 -0.557344 0.109342
v 1.110000 -0.557344 0.119361
v 1.120000 -0.557344 0.129367
v 1.130000 -0.557344 0.137784
v 1.140000 -0.557344 0.140358
v 1.150000 -0.557344 0.135162
v 1.160000 -0.557344 0.126341
v 1.169999 -0.557344 0.115504
v 1.179973 -0.557344 0.101396
v 1.189577 -0.557344 0.074431
v 1.196435 -0.557344 0.000000
v 1.070946 -0.563146 0.000000
v 1.064079 -0.561140 0.000000
v 1.080121 -0.563687 0.060895
v 1.090008 -0.563747 0.089303
v 1.100000 -0.563750 0.105302
v 1.110000 -0.563750 0.117053
v 1.120000 -0.563750 0.127985
v 1.130000 -0.563750 0.138073
v 1.140000 -0.563750 0.143306
v 1.150000 -0.563750 0.137318
v 1.160000 -0.563750 0.127019
v 1.169999 -0.563750 0.115611
v 1.179973 -0.563750 0.101404
v 1.189577 -0.563750 0.074431
v 1.196435 -0.563750 0.000000
v 1.080817 -0.569853 0.000000
v 1.074055 -0.567588 0.000000
v 1.090079 -0.570135 0.077419
v 1.100004 -0.570156 0.102132
v 1.110000 -0.570156 0.115785
v 1.120000 -0.570156 0.126987
v 1.130000 -0.570156 0.137258
v 1.140000 -0.570156 0.143357
v 1.150000 -0.570156 0.137602
v 1.160000 -0.570156 0.127106
v 1.169999 -0.570156 0.115621
v 1.179973 -0.570156 0.101404
v 1.189577 -0.570156 0.074431
v 1.196435 -0.570156 0.000000
v 1.090371 -0.576561 0.074729
v 1.083140 -0.576535 0.000000
v 1.100025 -0.576562 0.101212
v 1.110001 -0.576563 0.114837
v 1.120000 -0.576563 0.125394
v 1.130000 -0.576563 0.134759
v 1.140000 -0.576563 0.140814
v 1.150000 -0.576563 0.136851
v 1.160000 -0.576563 0.127003
v 1.169999 -0.576563 0.115614
v 1.179972 -0.576563 0.101404
v 1.189577 -0.576563 0.074431
v 1.196435 -0.576563 0.000000
v 1.090420 -0.582969 0.073867
v 1.083527 -0.582966 0.000000
v 1.100027 -0.582969 0.099854
v 1.110001 -0.582969 0.112494
v 1.120000 -0.582969 0.122161
v 1.130000 -0.582969 0.130920
v 1.140000 -0.582969 0.137322
v 1.150000 -0.582969 0.135840
v 1.160000 -0.582969 0.126867
v 1.169999 -0.582969 0.115604
v 1.179973 -0.582969 0.101404
v 1.189577 -0.582969 0.074431
v 1.196435 -0.582969 0.000000
v 1.090425 -0.589372 0.070574
v 1.083582 -0.589338 0.000000
v 1.100028 -0.589375 0.096032
v 1.110001 -0.589375 0.108577
v 1.120000 -0.589375 0.118090
v 1.130000 -0.589375 0.126677
v 1.140000 -0.589375 0.133902
v 1.150000 -0.589375 0.134887
v 1.160000 -0.589375 0.126742
v 1.169999 -0.589375 0.115596
v 1.179973 -0.589375 0.101404
v 1.189577 -0.589375 0.074431
v 1.196435 -0.589375 0.000000
v 1.090469 -0.595731 0.057706
v 1.083757 -0.595380 0.000000
v 1.100031 -0.595779 0.088169
v 1.110001 -0.595781 0.103594
v 1.120000 -0.595781 0.113572
v 1.130000 -0.595781 0.122630
v 1.140000 -0.595781 0.130931
v 1.150000 -0.595781 0.134031
v 1.160000 -0.595781 0.126626
v 1.169999 -0.595781 0.115588
v 1.179973 -0.595781 0.101403
v 1.189577 -0.595781 0.074432
v 1.196437 -0.595781 0.000000
v 1.090898 -0.601858 0.000000
v 1.084699 -0.599645 0.000000
v 1.100085 -0.602164 0.073539
v 1.110004 -0.602187 0.096814
v 1.120000 -0.602188 0.109056
v 1.130000 -0.602188 0.119166
v 1.140000 -0.602188 0.128350
v 1.150000 -0.602188 0.132959
v 1.160000 -0.602188 0.126419
v 1.169999 -0.602188 0.115569
v 1.179973 -0.602188 0.101406
v 1.189581 -0.602188 0.074453
v 1.196474 -0.602189 0.000000
v 1.100417 -0.608543 0.058150
v 1.093334 -0.608165 0.000000
v 1.110029 -0.608591 0.088781
v 1.120001 -0.608594 0.104987
v 1.130000 -0.608594 0.116129
v 1.140000 -0.608594 0.125444
v 1.150000 -0.608594 0.130748
v 1.160000 -0.608594 0.125780
v 1.169999 -0.608594 0.115505
v 1.179975 -0.608594 0.101469
v 1.189629 -0.608596 0.074783
v 1.196857 -0.608622 0.000000
v 1.100881 -0.614697 0.000000
v 1.094640 -0.612458 0.000000
v 1.110082 -0.614979 0.076794
v 1.120004 -0.614999 0.100596
v 1.130000 -0.615000 0.112698
v 1.140000 -0.615000 0.121693
v 1.150000 -0.615000 0.127242
v 1.160000 -0.615000 0.124506
v 1.170000 -0.615000 0.115473
v 1.179996 -0.615001 0.102115
v 1.189918 -0.615021 0.077373
v 1.199116 -0.615301 0.000000
v 1.110373 -0.621401 0.070925
v 1.103162 -0.621341 0.000000
v 1.120025 -0.621406 0.096098
v 1.130001 -0.621406 0.108505
v 1.140000 -0.621406 0.117265
v 1.150000 -0.621406 0.122570
v 1.160000 -0.621406 0.121961
v 1.170000 -0.621406 0.115563
v 1.179999 -0.621406 0.104993
v 1.189969 -0.621409 0.088739
v 1.199531 -0.621455 0.057801
v 1.205302 -0.617540 0.000000
v 1.206244 -0.621808 0.000000
v 1.110466 -0.627763 0.057727
v 1.103718 -0.627410 0.000000
v 1.120031 -0.627810 0.088144
v 1.130001 -0.627812 0.103292
v 1.140000 -0.627813 0.111827
v 1.150000 -0.627813 0.116608
v 1.160000 -0.627813 0.117252
v 1.170000 -0.627813 0.114472
v 1.179999 -0.627813 0.107490
v 1.189972 -0.627813 0.095833
v 1.199575 -0.627816 0.070553
v 1.206417 -0.627850 0.000000
v 1.110898 -0.633890 0.000000
v 1.104696 -0.631676 0.000000
v 1.120085 -0.634194 0.073391
v 1.130004 -0.634218 0.095732
v 1.140000 -0.634219 0.105162
v 1.150000 -0.634219 0.109590
v 1.160000 -0.634219 0.110588
v 1.170000 -0.634219 0.109991
v 1.179999 -0.634219 0.107024
v 1.189973 -0.634219 0.098371
v 1.199577 -0.634219 0.073620
v 1.206434 -0.634221 0.000000
v 1.120427 -0.640554 0.057240
v 1.113335 -0.640193 0.000000
v 1.130031 -0.640619 0.084514
v 1.140001 -0.640624 0.097099
v 1.150000 -0.640624 0.101587
v 1.160000 -0.640624 0.102528
v 1.170000 -0.640624 0.102525
v 1.179999 -0.640624 0.101576
v 1.189973 -0.640624 0.095997
v 1.199577 -0.640624 0.073138
v 1.206434 -0.640623 0.000000
v 1.121010 -0.646426 0.000000
v 1.114659 -0.644447 0.000000
v 1.130134 -0.646945 0.059740
v 1.140009 -0.647010 0.083303
v 1.150000 -0.647014 0.090131
v 1.160000 -0.647014 0.091148
v 1.170000 -0.647014 0.091213
v 1.179999 -0.647014 0.090860
v 1.189972 -0.647014 0.087391
v 1.199575 -0.647012 0.068728
v 1.206417 -0.646991 0.000000
v 1.130945 -0.652788 0.000000
v 1.124079 -0.650824 0.000000
v 1.140109 -0.653131 0.055569
v 1.150006 -0.653165 0.065724
v 1.160000 -0.653167 0.067290
v 1.170000 -0.653167 0.067408
v 1.179999 -0.653167 0.067252
v 1.189970 -0.653165 0.065227
v 1.199542 -0.653144 0.052467
v 1.206245 -0.652976 0.000000
v 1.140631 -0.657436 0.000000
v 1.134031 -0.656821 0.000000
v 1.150058 -0.657548 0.000000
v 1.160003 -0.657559 0.000000
v 1.170000 -0.657560 0.000000
v 1.179997 -0.657559 0.000000
v 1.189936 -0.657548 0.000000
v 1.199280 -0.657438 0.000000
v 1.205324 -0.656848 0.000000
f 573 589 590 574
f 27 34 36 29
f 53 72 73 54
f 111 124 125 112
f 785 794 795 786
f 427 438 439 428
f 93 107 108 94
f 100 115 114 102
f 109 122 123 110
f 740 752 753 741
f 157 169 170 158
f 699 711 712 700
f 771 781 782 772
f 119 132 133 120
f 133 145 146 134
f 118 131 132 119
f 80 95 96 81
f 652 665 666 653
f 402 406 408 403
f 141 153 152 140
f 43 57 58 45
f 210 221 223 212
f 63 64 66 65
f 106 119 120 107
f 562 578 579 563
f 115 128 127 114
f 55 74 75 56
f 339 343 345 341
f 369 373 374 370
f 269 276 277 270
f 545 561 562 546
f 777 787 788 778
f 6 11 12 8
f 577 593 594 578
f 349 353 354 350
f 377 383 384 378
f 18 19 22 21
f 135 147 148 136
f 722 735 736 723
f 770 779 781 771
f 755 766 767 756
f 570 586 588 572
f 624 637 638 625
f 211 222 221 210
f 523 540 541 524
f 37 53 54 38
f 110 123 124 111
f 39 55 56 41
f 404 409 410 405
f 413 424 423 415
f 357 361 362 358
f 221 232 234 223
f 145 157 158 146
f 355 359 361 357
f 729 742 743 730
f 179 189 190 180
f 247 258 259 248
f 23 24 26 25
f 388 394 396 390
f 202 213 214 203
f 389 395 394 388
f 417 426 427 418
f 657 670 672 659
f 29 36 37 30
f 419 420 422 421
f 127 141 140 129
f 64 81 82 66
f 506 523 524 507
f 75 90 91 76
f 217 228 229 218
f 779 790 789 781
f 371 375 377 373
f 56 75 76 57
f 213 224 225 214
f 696 708 710 698
f 285 291 290 284
f 169 180 181 170
f 149 161 162 150
f 286 292 293 287
f 28 35 34 27
f 329 333 334 330
f 5 6 8 7
f 9 13 15 11
f 449 468 469 450
f 395 401 400 394
f 394 400 402 396
f 578 594 595 579
f 319 323 325 321
f 331 335 337 333
f 493 514 515 494
f 407 414 413 406
f 10 14 13 9
f 86 100 102 88
f 436 447 448 437
f 317 321 322 318
f 637 650 651 638
f 311 316 315 310
f 35 51 50 34
f 78 93 94 79
f 4 10 9 3
f 681 694 695 682
f 241 252 253 242
f 307 312 313 308
f 409 416 417 410
f 450 469 470 451
f 2 3 6 5
f 103 116 117 104
f 410 417 418 412
f 170 181 182 171
f 237 248 249 238
f 343 347 349 345
f 509 526 527 510
f 38 54 55 39
f 95 109 110 96
f 144 156 157 145
f 250 261 262 251
f 661 674 675 662
f 19 27 29 22
f 375 381 383 377
f 178 187 189 179
f 71 87 86 72
f 224 235 236 225
f 459 460 462 461
f 533 550 551 534
f 397 403 404 398
f 383 390 391 384
f 125 138 139 126
f 451 470 471 452
f 626 639 640 627
f 136 148 149 137
f 507 524 525 508
f 58 77 78 59
f 132 144 145 133
f 273 279 278 272
f 182 192 193 183
f 774 784 785 775
f 120 133 134 121
f 602 618 617 604
f 363 367 369 365
f 474 490 491 475
f 497 517 518 499
f 638 651 652 639
f 112 125 126 113
f 227 238 239 228
f 701 713 714 702
f 429 440 441 431
f 98 112 113 99
f 77 92 93 78
f 278 284 286 280
f 594 609 610 595
f 499 518 519 501
f 425 436 437 426
f 455 456 458 457
f 219 230 231 220
f 435 446 445 434
f 310 315 317 312
f 444 454 456 455
f 754 765 766 755
f 481 502 504 483
f 352 356 355 351
f 469 485 486 470
f 83 98 99 85
f 166 176 178 167
f 498 499 501 500
f 586 603 602 588
f 187 199 201 189
f 491 512 513 492
f 66 82 83 68
f 337 341 342 338
f 584 600 601 585
f 356 360 359 355
f 265 272 274 267
f 142 154 155 143
f 155 167 168 156
f 511 528 529 512
f 82 97 98 83
f 150 162 163 151
f 172 183 184 173
f 452 471 472 453
f 441 452 453 442
f 22 29 30 24
f 551 567 568 552
f 333 337 338 334
f 194 206 207 195
f 279 285 284 278
f 192 204 205 193
f 50 69 71 52
f 541 557 558 542
f 49 60 62 61
f 467 483 484 468
f 89 103 104 90
f 737 749 750 738
f 184 194 195 185
f 636 649 650 637
f 555 571 570 554
f 223 234 235 224
f 305 310 312 307
f 59 78 79 60
f 193 205 206 194
f 340 344 343 339
f 168 179 180 169
f 539 554 556 540
f 565 581 582 566
f 471 487 488 472
f 205 216 217 206
f 167 178 179 168
f 92 106 107 93
f 96 110 111 97
f 114 127 129 116
f 607 621 622 608
f 1 4 3 2
f 189 201 202 190
f 475 491 492 476
f 415 423 425 416
f 336 340 339 335
f 315 319 321 317
f 667 680 681 668
f 605 619 620 606
f 615 629 630 616
f 68 83 85 84
f 483 504 505 484
f 548 564 565 549
f 595 610 611 596
f 159 171 172 160
f 243 254 256 245
f 635 648 649 636
f 41 56 57 43
f 549 565 566 550
f 623 636 637 624
f 325 329 330 326
f 117 130 131 118
f 508 525 526 509
f 566 582 583 567
f 677 690 691 678
f 687 699 700 688
f 76 91 92 77
f 222 233 232 221
f 495 516 517 497
f 195 207 208 196
f 510 527 528 511
f 34 50 52 36
f 639 652 653 640
f 206 217 218 207
f 239 250 251 240
f 121 134 135 122
f 390 396 397 391
f 633 646 647 634
f 123 136 137 124
f 328 332 331 327
f 207 218 219 208
f 275 281 282 276
f 702 714 715 703
f 42 43 45 44
f 324 328 327 323
f 134 146 147 135
f 442 453 454 444
f 36 52 53 37
f 204 215 216 205
f 741 753 754 742
f 592 607 608 593
f 108 121 122 109
f 773 783 784 774
f 492 513 514 493
f 671 684 683 670
f 749 760 761 750
f 107 120 121 108
f 416 425 426 417
f 303 308 309 304
f 554 570 572 556
f 514 531 532 515
f 685 696 698 686
f 301 306 305 300
f 698 710 711 699
f 164 177 176 166
f 783 792 793 784
f 420 428 429 422
f 465 481 483 467
f 293 298 299 294
f 312 317 318 313
f 466 482 481 465
f 81 96 97 82
f 641 654 655 642
f 505 522 523 506
f 245 256 257 246
f 272 278 280 274
f 335 339 341 337
f 516 533 534 517
f 649 662 663 650
f 781 789 791 782
f 405 410 412 411
f 447 465 467 448
f 156 168 169 157
f 372 376 375 371
f 321 325 326 322
f 54 73 74 55
f 201 212 213 202
f 408 415 416 409
f 458 475 476 460
f 124 137 138 125
f 65 66 68 67
f 62 80 81 64
f 203 214 215 204
f 642 655 656 643
f 719 730 732 731
f 11 15 16 12
f 40 41 43 42
f 403 408 409 404
f 433 442 444 443
f 398 404 405 399
f 540 556 557 541
f 367 371 373 369
f 3 9 11 6
f 44 45 47 46
f 232 243 245 234
f 426 437 438 427
f 74 89 90 75
f 140 152 154 142
f 634 647 648 635
f 51 70 69 50
f 485 506 507 486
f 380 385 387 386
f 494 515 516 495
f 359 363 365 361
f 576 592 593 577
f 94 108 109 95
f 20 28 27 19
f 72 86 88 73
f 381 388 390 383
f 290 295 297 292
f 524 541 542 525
f 787 796 797 788
f 102 114 116 103
f 353 357 358 354
f 609 623 624 610
f 351 355 357 353
f 382 389 388 381
f 384 391 392 385
f 91 105 106 92
f 782 791 792 783
f 775 785 786 776
f 162 174 175 163
f 365 369 370 366
f 327 331 333 329
f 376 382 381 375
f 229 240 241 230
f 662 675 676 663
f 522 539 540 523
f 52 71 72 53
f 486 507 508 487
f 344 348 347 343
f 295 300 302 297
f 437 448 449 438
f 374 378 380 379
f 347 351 353 349
f 152 164 166 154
f 477 493 494 478
f 196 208 209 198
f 147 159 160 148
f 174 185 186 175
f 33 39 41 40
f 161 173 174 162
f 171 182 183 172
f 531 548 549 532
f 625 638 639 626
f 496 497 499 498
f 131 143 144 132
f 116 129 130 117
f 673 686 687 674
f 546 562 563 547
f 724 737 738 725
f 218 229 230 219
f 281 287 288 282
f 230 241 242 231
f 180 190 191 181
f 658 671 670 657
f 714 725 726 715
f 105 118 119 106
f 73 88 89 74
f 200 211 210 199
f 183 193 194 184
f 563 579 580 564
f 604 617 619 605
f 148 160 161 149
f 208 219 220 209
f 226 237 238 227
f 713 724 725 714
f 391 397 398 392
f 267 274 275 268
f 489 510 511 490
f 216 227 228 217
f 453 472 473 454
f 622 635 636 623
f 439 450 451 440
f 568 584 585 569
f 297 302 303 298
f 361 365 366 362
f 238 249 250 239
f 160 172 173 161
f 445 466 465 447
f 547 563 564 548
f 556 572 573 557
f 464 478 480 479
f 525 542 543 526
f 543 559 560 544
f 246 257 258 247
f 186 196 198 197
f 689 701 702 690
f 461 462 464 463
f 462 477 478 464
f 431 441 442 433
f 456 474 475 458
f 214 225 226 215
f 280 286 287 281
f 254 265 267 256
f 296 301 300 295
f 57 76 77 58
f 454 473 474 456
f 721 734 733 720
f 158 170 171 159
f 190 202 203 191
f 422 429 431 430
f 560 576 577 561
f 30 37 38 31
f 348 352 351 347
f 46 47 49 48
f 697 709 708 696
f 341 345 346 342
f 529 546 547 530
f 490 511 512 491
f 674 687 688 675
f 597 612 613 598
f 679 692 693 680
f 434 445 447 436
f 368 372 371 367
f 385 392 393 387
f 611 625 626 612
f 619 631 633 620
f 596 611 612 597
f 292 297 298 293
f 137 149 150 138
f 392 398 399 393
f 628 641 642 629
f 257 268 269 258
f 228 239 240 229
f 588 602 604 589
f 659 672 673 660
f 233 244 243 232
f 430 431 433 432
f 400 407 406 402
f 621 634 635 622
f 614 628 629 615
f 212 223 224 213
f 571 587 586 570
f 438 449 450 439
f 345 349 350 346
f 146 158 159 147
f 579 595 596 580
f 711 722 723 712
f 768 780 779 770
f 739 751 752 740
f 567 583 584 568
f 470 486 487 471
f 248 259 260 249
f 60 79 80 62
f 526 543 544 527
f 482 503 502 481
f 666 679 680 667
f 478 494 495 480
f 191 203 204 192
f 472 488 489 473
f 515 532 533 516
f 518 535 536 519
f 612 626 627 613
f 528 545 546 529
f 676 689 690 677
f 24 30 31 26
f 234 245 246 235
f 480 495 497 496
f 617 632 631 619
f 606 620 621 607
f 527 544 545 528
f 520 537 539 522
f 406 413 415 408
f 484 505 506 485
f 448 467 468 449
f 235 246 247 236
f 274 280 281 275
f 487 508 509 488
f 488 509 510 489
f 31 38 39 33
f 476 492 493 477
f 534 551 552 535
f 512 529 530 513
f 259 270 271 260
f 651 664 665 652
f 530 547 548 531
f 424 435 434 423
f 460 476 477 462
f 552 568 569 553
f 251 262 263 252
f 266 273 272 265
f 252 263 264 253
f 240 251 252 241
f 715 726 727 716
f 468 484 485 469
f 542 558 559 543
f 705 717 718 706
f 765 776 777 766
f 627 640 641 628
f 703 715 716 704
f 727 740 741 728
f 104 117 118 105
f 690 702 703 691
f 513 530 531 514
f 590 605 606 591
f 599 614 615 600
f 704 716 717 705
f 373 377 378 374
f 751 762 763 752
f 282 288 289 283
f 153 165 164 152
f 589 604 605 590
f 582 598 599 583
f 244 255 254 243
f 613 627 628 614
f 574 590 591 575
f 364 368 367 363
f 581 597 598 582
f 558 574 575 559
f 591 606 607 592
f 762 773 774 763
f 188 200 199 187
f 535 552 553 536
f 258 269 270 259
f 287 293 294 288
f 557 573 574 558
f 517 534 535 518
f 583 599 600 584
f 647 660 661 648
f 532 549 550 533
f 598 613 614 599
f 648 661 662 649
f 323 327 329 325
f 502 521 520 504
f 276 282 283 277
f 181 191 192 182
f 268 275 276 269
f 360 364 363 359
f 291 296 295 290
f 680 693 694 681
f 683 697 696 685
f 284 290 292 286
f 90 104 105 91
f 236 247 248 237
f 256 267 268 257
f 521 538 537 520
f 688 700 701 689
f 473 489 490 474
f 675 688 689 676
f 332 336 335 331
f 440 451 452 441
f 255 266 265 254
f 550 566 567 551
f 225 236 237 226
f 757 768 770 759
f 766 777 778 767
f 300 305 307 302
f 660 673 674 661
f 735 747 748 736
f 544 560 561 545
f 537 555 554 539
f 632 645 644 631
f 308 313 314 309
f 418 427 428 420
f 26 31 33 32
f 176 188 187 178
f 504 520 522 505
f 670 683 685 672
f 748 759 760 749
f 138 150 151 139
f 654 667 668 655
f 316 320 319 315
f 736 748 749 737
f 428 439 440 429
f 306 311 310 305
f 653 666 667 654
f 646 659 660 647
f 663 676 677 664
f 644 657 659 646
f 412 418 420 419
f 572 588 589 573
f 723 736 737 724
f 561 577 578 562
f 645 658 657 644
f 691 703 704 692
f 650 663 664 651
f 672 685 686 673
f 320 324 323 319
f 97 111 112 98
f 185 195 196 186
f 249 260 261 250
f 758 769 768 757
f 655 668 669 656
f 664 677 678 665
f 580 596 597 581
f 665 678 679 666
f 738 750 751 739
f 298 303 304 299
f 631 644 646 633
f 640 653 654 641
f 564 580 581 565
f 199 210 212 201
f 750 761 762 751
f 747 757 759 748
f 130 142 143 131
f 694 706 707 695
f 575 591 592 576
f 559 575 576 560
f 700 712 713 701
f 772 782 783 773
f 710 720 722 711
f 173 184 185 174
f 122 135 136 123
f 593 608 609 594
f 423 434 436 425
f 720 733 735 722
f 396 402 403 397
f 457 458 460 459
f 742 754 755 743
f 302 307 308 303
f 759 770 771 760
f 728 741 742 729
f 215 226 227 216
f 763 774 775 764
f 678 691 692 679
f 730 743 744 732
f 733 745 747 735
f 143 155 156 144
f 706 718 719 707
f 708 721 720 710
f 745 758 757 747
f 716 727 728 717
f 725 738 739 726
f 734 746 745 733
f 88 102 103 89
f 712 723 724 713
f 692 704 705 693
f 764 775 776 765
f 47 59 60 49
f 726 739 740 727
f 717 728 729 718
f 610 624 625 611
f 752 763 764 753
f 668 681 682 669
f 608 622 623 609
f 17 20 19 18
f 753 764 765 754
f 693 705 706 694
f 718 729 730 719
f 760 771 772 761
f 45 58 59 47
f 129 140 142 130
f 761 772 773 762
f 629 642 643 630
f 686 698 699 687
f 743 755 756 744
f 600 615 616 601
f 786 795 796 787
f 79 94 95 80
f 154 166 167 155
f 378 384 385 380
f 620 633 634 621
f 776 786 787 777
f 21 22 24 23
f 61 62 64 63
f 87 101 100 86
f 784 793 794 785
