# exported by blender_batch_chars_to_s.py fallback
v 1.104030 -0.290449 0.000000
v 1.110631 -0.289849 0.000000
v 1.110109 -0.294049 0.054466
v 1.100941 -0.294383 0.000000
v 1.120058 -0.289740 0.000000
v 1.120006 -0.294016 0.064371
v 1.130000 -0.289729 0.000000
v 1.130000 -0.294014 0.065772
v 1.139942 -0.289740 0.000000
v 1.139994 -0.294016 0.064371
v 1.149369 -0.289849 0.000000
v 1.149891 -0.294049 0.054466
v 1.155970 -0.290449 0.000000
v 1.159059 -0.294383 0.000000
v 1.094009 -0.296287 0.000000
v 1.100098 -0.300078 0.059024
v 1.090473 -0.300511 0.000000
v 1.110008 -0.300021 0.081725
v 1.120000 -0.300017 0.088266
v 1.130000 -0.300017 0.089138
v 1.140000 -0.300017 0.088266
v 1.149992 -0.300021 0.081724
v 1.159900 -0.300078 0.058998
v 1.165988 -0.296288 0.000000
v 1.169479 -0.300519 0.000000
v 1.034030 -0.302949 0.000000
v 1.040631 -0.302349 0.000000
v 1.040109 -0.306549 0.054466
v 1.030941 -0.306883 0.000000
v 1.050058 -0.302240 0.000000
v 1.050006 -0.306516 0.064376
v 1.060003 -0.302228 0.000000
v 1.060000 -0.306514 0.065899
v 1.070002 -0.302204 0.000000
v 1.070000 -0.306512 0.066054
v 1.080044 -0.301963 0.000000
v 1.080003 -0.306482 0.066558
v 1.090033 -0.306300 0.070294
v 1.100005 -0.306255 0.085001
v 1.110000 -0.306251 0.095307
v 1.120000 -0.306251 0.099348
v 1.130000 -0.306251 0.100108
v 1.140000 -0.306251 0.099348
v 1.150000 -0.306251 0.095301
v 1.159994 -0.306255 0.084840
v 1.169938 -0.306301 0.068175
v 1.179237 -0.302081 0.000000
v 1.179539 -0.306504 0.051986
v 1.185321 -0.302886 0.000000
v 1.186247 -0.306697 0.000000
v 1.024009 -0.308787 0.000000
v 1.030098 -0.312578 0.059024
v 1.020473 -0.313011 0.000000
v 1.040008 -0.312521 0.081725
v 1.050000 -0.312517 0.088270
v 1.060000 -0.312517 0.089220
v 1.070000 -0.312517 0.089309
v 1.080000 -0.312515 0.089501
v 1.090001 -0.312502 0.091063
v 1.100000 -0.312500 0.097086
v 1.110000 -0.312500 0.103164
v 1.120000 -0.312500 0.106949
v 1.130000 -0.312500 0.107807
v 1.140000 -0.312500 0.106949
v 1.150000 -0.312500 0.103146
v 1.159999 -0.312500 0.096743
v 1.169971 -0.312502 0.087407
v 1.179578 -0.312517 0.067739
v 1.186455 -0.312541 0.000000
v 0.983965 -0.315436 0.000000
v 0.990626 -0.314847 0.000000
v 0.990076 -0.319043 0.054857
v 0.980471 -0.319302 0.000000
v 1.000060 -0.314715 0.000000
v 1.000005 -0.319014 0.064432
v 1.010046 -0.314463 0.000000
v 1.010003 -0.318982 0.066433
v 1.020033 -0.318799 0.070289
v 1.030005 -0.318755 0.085001
v 1.040000 -0.318751 0.095307
v 1.050000 -0.318751 0.099355
v 1.060000 -0.318751 0.100217
v 1.070000 -0.318751 0.100325
v 1.080000 -0.318751 0.100433
v 1.090000 -0.318750 0.101270
v 1.100000 -0.318750 0.104658
v 1.110000 -0.318750 0.109716
v 1.120000 -0.318750 0.113630
v 1.130000 -0.318750 0.114599
v 1.140000 -0.318750 0.113627
v 1.150000 -0.318750 0.109644
v 1.159999 -0.318750 0.103825
v 1.169975 -0.318750 0.095200
v 1.179629 -0.318752 0.072375
v 1.186856 -0.318779 0.000000
v 0.944035 -0.321698 0.000000
v 0.950631 -0.321098 0.000000
v 0.950112 -0.325299 0.054425
v 0.941008 -0.325632 0.000000
v 0.960060 -0.320965 0.000000
v 0.960006 -0.325264 0.064409
v 0.970046 -0.320715 0.000000
v 0.970003 -0.325232 0.066420
v 0.980033 -0.325052 0.070093
v 0.990004 -0.325019 0.083338
v 1.000000 -0.325017 0.088407
v 1.010000 -0.325015 0.089425
v 1.020001 -0.325002 0.091059
v 1.030000 -0.325000 0.097086
v 1.040000 -0.325000 0.103164
v 1.050000 -0.325000 0.106958
v 1.060000 -0.325000 0.107942
v 1.070000 -0.325000 0.108072
v 1.080000 -0.325000 0.108149
v 1.090000 -0.325000 0.108729
v 1.100000 -0.325000 0.111191
v 1.110000 -0.325000 0.115667
v 1.120000 -0.325000 0.119758
v 1.130000 -0.325000 0.120950
v 1.140000 -0.325000 0.119730
v 1.150000 -0.325000 0.115345
v 1.160000 -0.325000 0.108993
v 1.169996 -0.325001 0.098921
v 1.179918 -0.325020 0.075863
v 1.189116 -0.325294 0.000000
v 0.934656 -0.327524 0.000000
v 0.940424 -0.331321 0.056003
v 0.933288 -0.331663 0.000000
v 0.950030 -0.331271 0.081264
v 0.960001 -0.331267 0.088247
v 0.970000 -0.331265 0.089412
v 0.980001 -0.331252 0.090956
v 0.990000 -0.331251 0.096214
v 1.000000 -0.331251 0.099438
v 1.010000 -0.331251 0.100328
v 1.020000 -0.331250 0.101263
v 1.030000 -0.331250 0.104658
v 1.040000 -0.331250 0.109716
v 1.050000 -0.331250 0.113642
v 1.060000 -0.331250 0.114766
v 1.070000 -0.331250 0.114925
v 1.080000 -0.331250 0.114989
v 1.090000 -0.331250 0.115439
v 1.100000 -0.331250 0.117412
v 1.110000 -0.331250 0.121380
v 1.120000 -0.331250 0.125609
v 1.130000 -0.331250 0.127111
v 1.140000 -0.331250 0.125472
v 1.150000 -0.331250 0.120370
v 1.160000 -0.331250 0.113004
v 1.169999 -0.331250 0.102966
v 1.179969 -0.331253 0.087161
v 1.189531 -0.331298 0.056744
v 1.195302 -0.327478 0.000000
v 1.196244 -0.331641 0.000000
v 0.940049 -0.337518 0.072430
v 0.930357 -0.337742 0.000000
v 0.950003 -0.337501 0.093044
v 0.960000 -0.337501 0.099127
v 0.970000 -0.337501 0.100306
v 0.980000 -0.337500 0.101195
v 0.990000 -0.337500 0.104075
v 1.000000 -0.337500 0.107072
v 1.010000 -0.337500 0.108022
v 1.020000 -0.337500 0.108720
v 1.030000 -0.337500 0.111190
v 1.040000 -0.337500 0.115668
v 1.050000 -0.337500 0.119782
v 1.060000 -0.337500 0.121224
v 1.070000 -0.337500 0.121475
v 1.080000 -0.337500 0.121543
v 1.090000 -0.337500 0.121919
v 1.100000 -0.337500 0.123594
v 1.110000 -0.337500 0.127178
v 1.120000 -0.337500 0.131474
v 1.130000 -0.337500 0.133281
v 1.140000 -0.337500 0.130971
v 1.150000 -0.337500 0.124730
v 1.160000 -0.337500 0.116289
v 1.169999 -0.337500 0.106686
v 1.179972 -0.337500 0.094329
v 1.189575 -0.337503 0.069380
v 1.196417 -0.337536 0.000000
v 0.794030 -0.340449 0.000000
v 0.800631 -0.339849 0.000000
v 0.800109 -0.344049 0.054461
v 0.790941 -0.344383 0.000000
v 0.810055 -0.339740 0.000000
v 0.810006 -0.344016 0.064250
v 0.819945 -0.339740 0.000000
v 0.819994 -0.344016 0.064250
v 0.829369 -0.339849 0.000000
v 0.829891 -0.344049 0.054461
v 0.835970 -0.340449 0.000000
v 0.839059 -0.344382 0.000000
v 0.874030 -0.340449 0.000000
v 0.880631 -0.339849 0.000000
v 0.880109 -0.344049 0.054466
v 0.870941 -0.344382 0.000000
v 0.890058 -0.339740 0.000000
v 0.890006 -0.344016 0.064376
v 0.900003 -0.339728 0.000000
v 0.900000 -0.344014 0.065899
v 0.910002 -0.339703 0.000000
v 0.910000 -0.344012 0.066057
v 0.920031 -0.339437 0.000000
v 0.920002 -0.343980 0.066638
v 0.930023 -0.343780 0.071108
v 0.940003 -0.343752 0.088624
v 0.950000 -0.343750 0.100836
v 0.960000 -0.343750 0.106545
v 0.970000 -0.343750 0.107969
v 0.980000 -0.343750 0.108682
v 0.990000 -0.343750 0.110842
v 1.000000 -0.343750 0.113807
v 1.010000 -0.343750 0.114834
v 1.020000 -0.343750 0.115427
v 1.030000 -0.343750 0.117408
v 1.040000 -0.343750 0.121376
v 1.050000 -0.343750 0.125647
v 1.060000 -0.343750 0.127559
v 1.070000 -0.343750 0.127966
v 1.080000 -0.343750 0.128055
v 1.090000 -0.343750 0.128390
v 1.100000 -0.343750 0.129867
v 1.110000 -0.343750 0.133128
v 1.120000 -0.343750 0.137316
v 1.130000 -0.343750 0.139228
v 1.140000 -0.343750 0.135723
v 1.150000 -0.343750 0.128146
v 1.160000 -0.343750 0.119329
v 1.169999 -0.343750 0.110076
v 1.179972 -0.343750 0.098025
v 1.189577 -0.343750 0.072647
v 1.196434 -0.343752 0.000000
v 0.784009 -0.346287 0.000000
v 0.790098 -0.350078 0.059024
v 0.780475 -0.350511 0.000000
v 0.800008 -0.350021 0.081721
v 0.810000 -0.350017 0.088189
v 0.820000 -0.350017 0.088189
v 0.829992 -0.350020 0.081724
v 0.839903 -0.350064 0.059095
v 0.845994 -0.346260 0.000000
v 0.849560 -0.350316 0.000000
v 0.864006 -0.346260 0.000000
v 0.870097 -0.350064 0.059095
v 0.860440 -0.350316 0.000000
v 0.880008 -0.350020 0.081728
v 0.890000 -0.350017 0.088270
v 0.900000 -0.350017 0.089220
v 0.910000 -0.350017 0.089309
v 0.920000 -0.350015 0.089511
v 0.930001 -0.350002 0.091208
v 0.940000 -0.350000 0.098092
v 0.950000 -0.350000 0.106323
v 0.960000 -0.350000 0.112570
v 0.970000 -0.350000 0.114632
v 0.980000 -0.350000 0.115384
v 0.990000 -0.350000 0.117207
v 1.000000 -0.350000 0.120065
v 1.010000 -0.350000 0.121277
v 1.020000 -0.350000 0.121863
v 1.030000 -0.350000 0.123531
v 1.040000 -0.350000 0.127070
v 1.050000 -0.350000 0.131387
v 1.060000 -0.350000 0.133792
v 1.070000 -0.350000 0.134398
v 1.080000 -0.350000 0.134575
v 1.090000 -0.350000 0.134952
v 1.100000 -0.350000 0.136299
v 1.110000 -0.350000 0.139210
v 1.120000 -0.350000 0.142861
v 1.130000 -0.350000 0.143911
v 1.140000 -0.350000 0.138623
v 1.150000 -0.350000 0.130132
v 1.160000 -0.350000 0.121171
v 1.169999 -0.350000 0.111693
v 1.179973 -0.350000 0.099085
v 1.189577 -0.350000 0.073132
v 1.196435 -0.350000 0.000000
v 0.754031 -0.352947 0.000000
v 0.760633 -0.352325 0.000000
v 0.760109 -0.356547 0.054502
v 0.750941 -0.356883 0.000000
v 0.770102 -0.351974 0.000000
v 0.770009 -0.356484 0.064911
v 0.780033 -0.356300 0.070169
v 0.790005 -0.356255 0.084996
v 0.800000 -0.356251 0.095300
v 0.810000 -0.356251 0.099246
v 0.820000 -0.356251 0.099246
v 0.830000 -0.356251 0.095301
v 0.839995 -0.356253 0.085033
v 0.849970 -0.356272 0.070804
v 0.860030 -0.356272 0.070804
v 0.870005 -0.356253 0.085033
v 0.880000 -0.356251 0.095308
v 0.890000 -0.356251 0.099354
v 0.900000 -0.356251 0.100216
v 0.910000 -0.356251 0.100324
v 0.920000 -0.356251 0.100434
v 0.930000 -0.356250 0.101302
v 0.940000 -0.356250 0.104976
v 0.950000 -0.356250 0.111286
v 0.960000 -0.356250 0.117635
v 0.970000 -0.356250 0.120608
v 0.980000 -0.356250 0.121610
v 0.990000 -0.356250 0.123201
v 1.000000 -0.356250 0.125822
v 1.010000 -0.356250 0.127276
v 1.020000 -0.356250 0.127884
v 1.030000 -0.356250 0.129178
v 1.040000 -0.356250 0.132078
v 1.050000 -0.356250 0.136038
v 1.060000 -0.356250 0.138780
v 1.070000 -0.356250 0.139750
v 1.080000 -0.356250 0.140428
v 1.090000 -0.356250 0.141282
v 1.100000 -0.356250 0.142586
v 1.110000 -0.356250 0.144571
v 1.120000 -0.356250 0.146155
v 1.130000 -0.356250 0.144579
v 1.140000 -0.356250 0.137608
v 1.150000 -0.356250 0.128526
v 1.160000 -0.356250 0.119372
v 1.169999 -0.356250 0.110079
v 1.179973 -0.356250 0.098026
v 1.189577 -0.356250 0.072647
v 1.196434 -0.356248 0.000000
v 0.744009 -0.358787 0.000000
v 0.750098 -0.362578 0.059025
v 0.740473 -0.363011 0.000000
v 0.760008 -0.362521 0.081737
v 0.770000 -0.362516 0.088471
v 0.780001 -0.362502 0.090982
v 0.790000 -0.362500 0.097082
v 0.800000 -0.362500 0.103156
v 0.810000 -0.362500 0.106823
v 0.820000 -0.362500 0.106823
v 0.830000 -0.362500 0.103156
v 0.840000 -0.362500 0.097098
v 0.849999 -0.362501 0.091263
v 0.860001 -0.362501 0.091263
v 0.870000 -0.362500 0.097097
v 0.880000 -0.362500 0.103155
v 0.890000 -0.362500 0.106936
v 0.900000 -0.362500 0.107916
v 0.910000 -0.362500 0.108046
v 0.920000 -0.362500 0.108123
v 0.930000 -0.362500 0.108703
v 0.940000 -0.362500 0.111214
v 0.950000 -0.362500 0.116186
v 0.960000 -0.362500 0.121943
v 0.970000 -0.362500 0.125264
v 0.980000 -0.362500 0.126365
v 0.990000 -0.362500 0.127589
v 1.000000 -0.362500 0.129603
v 1.010000 -0.362500 0.130938
v 1.020000 -0.362500 0.131381
v 1.030000 -0.362500 0.131983
v 1.040000 -0.362500 0.133728
v 1.050000 -0.362500 0.136663
v 1.060000 -0.362500 0.139102
v 1.070000 -0.362500 0.140667
v 1.080000 -0.362500 0.142788
v 1.090000 -0.362500 0.145216
v 1.100000 -0.362500 0.146753
v 1.110000 -0.362500 0.146488
v 1.120000 -0.362500 0.144382
v 1.130000 -0.362500 0.140904
v 1.140000 -0.362500 0.134423
v 1.150000 -0.362500 0.125784
v 1.160000 -0.362500 0.116477
v 1.169999 -0.362500 0.106699
v 1.179973 -0.362500 0.094329
v 1.189575 -0.362497 0.069380
v 1.196417 -0.362464 0.000000
v 0.653965 -0.365436 0.000000
v 0.660626 -0.364848 0.000000
v 0.660076 -0.369043 0.054856
v 0.650470 -0.369302 0.000000
v 0.670058 -0.364740 0.000000
v 0.670005 -0.369016 0.064396
v 0.680003 -0.364729 0.000000
v 0.680000 -0.369014 0.065898
v 0.690000 -0.364728 0.000000
v 0.690000 -0.369014 0.066018
v 0.700000 -0.364728 0.000000
v 0.700000 -0.369014 0.066023
v 0.710000 -0.364727 0.000000
v 0.710000 -0.369014 0.066024
v 0.720002 -0.364704 0.000000
v 0.720000 -0.369012 0.066059
v 0.730044 -0.364463 0.000000
v 0.730003 -0.368982 0.066558
v 0.740033 -0.368800 0.070294
v 0.750005 -0.368755 0.085001
v 0.760000 -0.368751 0.095314
v 0.770000 -0.368751 0.099463
v 0.780000 -0.368750 0.101161
v 0.790000 -0.368750 0.104650
v 0.800000 -0.368750 0.109703
v 0.810000 -0.368750 0.113466
v 0.820000 -0.368750 0.113466
v 0.830000 -0.368750 0.109703
v 0.840000 -0.368750 0.104664
v 0.850000 -0.368750 0.101377
v 0.860000 -0.368750 0.101373
v 0.870000 -0.368750 0.104627
v 0.880000 -0.368750 0.109554
v 0.890000 -0.368750 0.113315
v 0.900000 -0.368750 0.114380
v 0.910000 -0.368750 0.114530
v 0.920000 -0.368750 0.114587
v 0.930000 -0.368750 0.114969
v 0.940000 -0.368750 0.116623
v 0.950000 -0.368750 0.120019
v 0.960000 -0.368750 0.123934
v 0.970000 -0.368750 0.125768
v 0.980000 -0.368750 0.126211
v 0.990000 -0.368750 0.126551
v 1.000000 -0.368750 0.127127
v 1.010000 -0.368750 0.127517
v 1.020000 -0.368750 0.127652
v 1.030000 -0.368750 0.128017
v 1.040000 -0.368750 0.129464
v 1.050000 -0.368750 0.132110
v 1.060000 -0.368750 0.134222
v 1.070000 -0.368750 0.135997
v 1.080000 -0.368750 0.138947
v 1.090000 -0.368750 0.142730
v 1.100000 -0.368750 0.144938
v 1.110000 -0.368750 0.142993
v 1.120000 -0.368750 0.139107
v 1.130000 -0.368750 0.135303
v 1.140000 -0.368750 0.130225
v 1.150000 -0.368750 0.122610
v 1.160000 -0.368750 0.113613
v 1.169999 -0.368750 0.102992
v 1.179969 -0.368747 0.087137
v 1.189531 -0.368702 0.056740
v 1.196244 -0.368359 0.000000
v 0.064607 -0.371630 0.000000
v 0.070000 -0.371187 0.000000
v 0.070000 -0.375000 0.026172
v 0.063899 -0.375000 0.000000
v 0.075393 -0.371630 0.000000
v 0.076101 -0.375000 0.000000
v 0.604030 -0.371699 0.000000
v 0.610631 -0.371099 0.000000
v 0.610109 -0.375299 0.054466
v 0.600941 -0.375633 0.000000
v 0.620058 -0.370989 0.000000
v 0.620006 -0.375266 0.064377
v 0.630005 -0.370955 0.000000
v 0.630000 -0.375262 0.065933
v 0.640044 -0.370715 0.000000
v 0.640003 -0.375232 0.066541
v 0.650033 -0.375052 0.070098
v 0.660004 -0.375019 0.083338
v 0.670000 -0.375017 0.088395
v 0.680000 -0.375017 0.089224
v 0.690000 -0.375017 0.089297
v 0.700000 -0.375017 0.089300
v 0.710000 -0.375017 0.089301
v 0.720000 -0.375017 0.089312
v 0.730000 -0.375015 0.089501
v 0.740001 -0.375002 0.091063
v 0.750000 -0.375000 0.097087
v 0.760000 -0.375000 0.103169
v 0.770000 -0.375000 0.107031
v 0.780000 -0.375000 0.108593
v 0.790000 -0.375000 0.111172
v 0.800000 -0.375000 0.115603
v 0.810000 -0.375000 0.119382
v 0.820000 -0.375000 0.119381
v 0.830000 -0.375000 0.115600
v 0.840000 -0.375000 0.111176
v 0.850000 -0.375000 0.108781
v 0.860000 -0.375000 0.108714
v 0.870000 -0.375000 0.110752
v 0.880000 -0.375000 0.114236
v 0.890000 -0.375000 0.117146
v 0.900000 -0.375000 0.118096
v 0.910000 -0.375000 0.118256
v 0.920000 -0.375000 0.118281
v 0.930000 -0.375000 0.118369
v 0.940000 -0.375000 0.118799
v 0.950000 -0.375000 0.119721
v 0.960000 -0.375000 0.120798
v 0.970000 -0.375000 0.121211
v 0.980000 -0.375000 0.121285
v 0.990000 -0.375000 0.121328
v 1.000000 -0.375000 0.121407
v 1.010000 -0.375000 0.121462
v 1.020000 -0.375000 0.121516
v 1.030000 -0.375000 0.121886
v 1.040000 -0.375000 0.123443
v 1.050000 -0.375000 0.126175
v 1.060000 -0.375000 0.127988
v 1.070000 -0.375000 0.129807
v 1.080000 -0.375000 0.133105
v 1.090000 -0.375000 0.137311
v 1.100000 -0.375000 0.139511
v 1.110000 -0.375000 0.137340
v 1.120000 -0.375000 0.133073
v 1.130000 -0.375000 0.129314
v 1.140000 -0.375000 0.125358
v 1.150000 -0.375000 0.118849
v 1.160000 -0.375000 0.110301
v 1.169996 -0.374999 0.098750
v 1.179917 -0.374980 0.075507
v 1.189115 -0.374705 0.000000
v 1.195302 -0.372522 0.000000
v 0.070000 -0.378813 0.000000
v 0.064607 -0.378370 0.000000
v 0.075393 -0.378370 0.000000
v 0.594009 -0.377537 0.000000
v 0.600098 -0.381328 0.059024
v 0.590473 -0.381761 0.000000
v 0.610008 -0.381271 0.081725
v 0.620000 -0.381267 0.088270
v 0.630000 -0.381267 0.089231
v 0.640000 -0.381265 0.089491
v 0.650001 -0.381252 0.090960
v 0.660000 -0.381251 0.096214
v 0.670000 -0.381251 0.099431
v 0.680000 -0.381251 0.100220
v 0.690000 -0.381251 0.100319
v 0.700000 -0.381251 0.100325
v 0.710000 -0.381251 0.100326
v 0.720000 -0.381251 0.100332
v 0.730000 -0.381251 0.100433
v 0.740000 -0.381250 0.101269
v 0.750000 -0.381250 0.104654
v 0.760000 -0.381250 0.109708
v 0.770000 -0.381250 0.113676
v 0.780000 -0.381250 0.115231
v 0.790000 -0.381250 0.117257
v 0.800000 -0.381250 0.120865
v 0.810000 -0.381250 0.124097
v 0.820000 -0.381250 0.124090
v 0.830000 -0.381250 0.120814
v 0.840000 -0.381250 0.117129
v 0.850000 -0.381250 0.115187
v 0.860000 -0.381250 0.114660
v 0.870000 -0.381250 0.114659
v 0.880000 -0.381250 0.114650
v 0.890000 -0.381250 0.114558
v 0.900000 -0.381250 0.114538
v 0.910000 -0.381250 0.114538
v 0.920000 -0.381250 0.114539
v 0.930000 -0.381250 0.114548
v 0.940000 -0.381250 0.114601
v 0.950000 -0.381250 0.114723
v 0.960000 -0.381250 0.114869
v 0.970000 -0.381250 0.114914
v 0.980000 -0.381250 0.114919
v 0.990000 -0.381250 0.114922
v 1.000000 -0.381250 0.114928
v 1.010000 -0.381250 0.114935
v 1.020000 -0.381250 0.114988
v 1.030000 -0.381250 0.115424
v 1.040000 -0.381250 0.117227
v 1.050000 -0.381250 0.120130
v 1.060000 -0.381250 0.121678
v 1.070000 -0.381250 0.123571
v 1.080000 -0.381250 0.127176
v 1.090000 -0.381250 0.131475
v 1.100000 -0.381250 0.133340
v 1.110000 -0.381250 0.131476
v 1.120000 -0.381250 0.127153
v 1.130000 -0.381250 0.123309
v 1.140000 -0.381250 0.120050
v 1.150000 -0.381250 0.114612
v 1.159999 -0.381250 0.106370
v 1.169975 -0.381250 0.094362
v 1.179627 -0.381245 0.069720
v 1.186838 -0.381187 0.000000
v 0.543965 -0.384186 0.000000
v 0.550626 -0.383598 0.000000
v 0.550076 -0.387793 0.054856
v 0.540470 -0.388052 0.000000
v 0.560058 -0.383489 0.000000
v 0.560005 -0.387766 0.064398
v 0.570005 -0.383454 0.000000
v 0.570000 -0.387762 0.065933
v 0.580044 -0.383213 0.000000
v 0.580003 -0.387732 0.066553
v 0.590033 -0.387550 0.070294
v 0.600005 -0.387505 0.085001
v 0.610000 -0.387501 0.095307
v 0.620000 -0.387501 0.099355
v 0.630000 -0.387501 0.100223
v 0.640000 -0.387501 0.100422
v 0.650000 -0.387500 0.101202
v 0.660000 -0.387500 0.104075
v 0.670000 -0.387500 0.107067
v 0.680000 -0.387500 0.107948
v 0.690000 -0.387500 0.108067
v 0.700000 -0.387500 0.108075
v 0.710000 -0.387500 0.108075
v 0.720000 -0.387500 0.108076
v 0.730000 -0.387500 0.108135
v 0.740000 -0.387500 0.108699
v 0.750000 -0.387500 0.111113
v 0.760000 -0.387500 0.115489
v 0.770000 -0.387500 0.119499
v 0.780000 -0.387500 0.121114
v 0.790000 -0.387500 0.122328
v 0.800000 -0.387500 0.124080
v 0.810000 -0.387500 0.125441
v 0.820000 -0.387500 0.125369
v 0.830000 -0.387500 0.123660
v 0.840000 -0.387500 0.121267
v 0.850000 -0.387500 0.119568
v 0.860000 -0.387500 0.117587
v 0.870000 -0.387500 0.114305
v 0.880000 -0.387500 0.110753
v 0.890000 -0.387500 0.108638
v 0.900000 -0.387500 0.108118
v 0.910000 -0.387500 0.108054
v 0.920000 -0.387500 0.108050
v 0.930000 -0.387500 0.108050
v 0.940000 -0.387500 0.108054
v 0.950000 -0.387500 0.108062
v 0.960000 -0.387500 0.108073
v 0.970000 -0.387500 0.108075
v 0.980000 -0.387500 0.108076
v 0.990000 -0.387500 0.108076
v 1.000000 -0.387500 0.108076
v 1.010000 -0.387500 0.108081
v 1.020000 -0.387500 0.108148
v 1.030000 -0.387500 0.108693
v 1.040000 -0.387500 0.110846
v 1.050000 -0.387500 0.113860
v 1.060000 -0.387500 0.115285
v 1.070000 -0.387500 0.117400
v 1.080000 -0.387500 0.121380
v 1.090000 -0.387500 0.125609
v 1.100000 -0.387500 0.127121
v 1.110000 -0.387500 0.125609
v 1.120000 -0.387500 0.121369
v 1.130000 -0.387500 0.117245
v 1.140000 -0.387500 0.114128
v 1.150000 -0.387500 0.109427
v 1.159999 -0.387500 0.101745
v 1.169969 -0.387497 0.086945
v 1.179534 -0.387452 0.056745
v 1.186282 -0.387107 0.000000
v 0.504030 -0.390449 0.000000
v 0.510631 -0.389848 0.000000
v 0.510109 -0.394049 0.054467
v 0.500941 -0.394383 0.000000
v 0.520060 -0.389715 0.000000
v 0.520006 -0.394014 0.064411
v 0.530046 -0.389465 0.000000
v 0.530003 -0.393982 0.066420
v 0.540033 -0.393802 0.070093
v 0.550004 -0.393770 0.083338
v 0.560000 -0.393767 0.088395
v 0.570000 -0.393767 0.089236
v 0.580000 -0.393765 0.089497
v 0.590001 -0.393752 0.091063
v 0.600000 -0.393750 0.097087
v 0.610000 -0.393750 0.103164
v 0.620000 -0.393750 0.106958
v 0.630000 -0.393750 0.107946
v 0.640000 -0.393750 0.108139
v 0.650000 -0.393750 0.108693
v 0.660000 -0.393750 0.110842
v 0.670000 -0.393750 0.113801
v 0.680000 -0.393750 0.114763
v 0.690000 -0.393750 0.114899
v 0.700000 -0.393750 0.114906
v 0.710000 -0.393750 0.114899
v 0.720000 -0.393750 0.114852
v 0.730000 -0.393750 0.114768
v 0.740000 -0.393750 0.115030
v 0.750000 -0.393750 0.116603
v 0.760000 -0.393750 0.119790
v 0.770000 -0.393750 0.123053
v 0.780000 -0.393750 0.124249
v 0.790000 -0.393750 0.123804
v 0.800000 -0.393750 0.122347
v 0.810000 -0.393750 0.121488
v 0.820000 -0.393750 0.121183
v 0.830000 -0.393750 0.120730
v 0.840000 -0.393750 0.119923
v 0.850000 -0.393750 0.118521
v 0.860000 -0.393750 0.114959
v 0.870000 -0.393750 0.109877
v 0.880000 -0.393750 0.104654
v 0.890000 -0.393750 0.101267
v 0.900000 -0.393749 0.100432
v 0.910000 -0.393749 0.100331
v 0.920000 -0.393749 0.100325
v 0.930000 -0.393749 0.100325
v 0.940000 -0.393749 0.100325
v 0.950000 -0.393749 0.100325
v 0.960000 -0.393749 0.100326
v 0.970000 -0.393749 0.100326
v 0.980000 -0.393749 0.100326
v 0.990000 -0.393749 0.100326
v 1.000000 -0.393749 0.100326
v 1.010000 -0.393749 0.100332
v 1.020000 -0.393749 0.100429
v 1.030000 -0.393750 0.101202
v 1.040000 -0.393750 0.104080
v 1.050000 -0.393750 0.107141
v 1.060000 -0.393750 0.108602
v 1.070000 -0.393750 0.111182
v 1.080000 -0.393750 0.115666
v 1.090000 -0.393750 0.119758
v 1.100000 -0.393750 0.120951
v 1.110000 -0.393750 0.119757
v 1.120000 -0.393750 0.115658
v 1.130000 -0.393750 0.111061
v 1.140000 -0.393750 0.107666
v 1.150000 -0.393750 0.103439
v 1.159996 -0.393749 0.095752
v 1.169917 -0.393729 0.074885
v 1.179116 -0.393455 0.000000
v 1.185305 -0.391272 0.000000
v 0.494009 -0.396287 0.000000
v 0.500098 -0.400078 0.059024
v 0.490473 -0.400511 0.000000
v 0.510008 -0.400021 0.081725
v 0.520000 -0.400017 0.088282
v 0.530000 -0.400015 0.089413
v 0.540001 -0.400002 0.090956
v 0.550000 -0.400001 0.096213
v 0.560000 -0.400001 0.099432
v 0.570000 -0.400001 0.100227
v 0.580000 -0.400001 0.100426
v 0.590000 -0.400000 0.101270
v 0.600000 -0.400000 0.104658
v 0.610000 -0.400000 0.109716
v 0.620000 -0.400000 0.113641
v 0.630000 -0.400000 0.114764
v 0.640000 -0.400000 0.114967
v 0.650000 -0.400000 0.115411
v 0.660000 -0.400000 0.117204
v 0.670000 -0.400000 0.120020
v 0.680000 -0.400000 0.121026
v 0.690000 -0.400000 0.121129
v 0.700000 -0.400000 0.121098
v 0.710000 -0.400000 0.121020
v 0.720000 -0.400000 0.120631
v 0.730000 -0.400000 0.119688
v 0.740000 -0.400000 0.118891
v 0.750000 -0.400000 0.118891
v 0.760000 -0.400000 0.119687
v 0.770000 -0.400000 0.120610
v 0.780000 -0.400000 0.120797
v 0.790000 -0.400000 0.119795
v 0.800000 -0.400000 0.117106
v 0.810000 -0.400000 0.115393
v 0.820000 -0.400000 0.114963
v 0.830000 -0.400000 0.114852
v 0.840000 -0.400000 0.114615
v 0.850000 -0.400000 0.113489
v 0.860000 -0.400000 0.109561
v 0.870000 -0.400000 0.103735
v 0.880000 -0.400000 0.097153
v 0.889999 -0.399998 0.091067
v 0.900000 -0.399985 0.089501
v 0.910000 -0.399983 0.089312
v 0.920000 -0.399983 0.089301
v 0.930000 -0.399983 0.089300
v 0.940000 -0.399983 0.089300
v 0.950000 -0.399983 0.089300
v 0.960000 -0.399983 0.089300
v 0.970000 -0.399983 0.089300
v 0.980000 -0.399983 0.089300
v 0.990000 -0.399983 0.089300
v 1.000000 -0.399983 0.089301
v 1.010000 -0.399983 0.089312
v 1.020000 -0.399985 0.089494
v 1.030001 -0.399998 0.090960
v 1.040000 -0.399999 0.096220
v 1.050000 -0.399999 0.099539
v 1.060000 -0.400000 0.101165
v 1.070000 -0.400000 0.104651
v 1.080000 -0.400000 0.109716
v 1.090000 -0.400000 0.113630
v 1.100000 -0.400000 0.114599
v 1.110000 -0.400000 0.113630
v 1.120000 -0.400000 0.109709
v 1.130000 -0.400000 0.104552
v 1.140000 -0.400000 0.100359
v 1.149999 -0.399999 0.095988
v 1.159974 -0.399998 0.087373
v 1.169627 -0.399981 0.068052
v 1.176838 -0.399933 0.000000
v 0.454030 -0.402949 0.000000
v 0.460631 -0.402348 0.000000
v 0.460109 -0.406549 0.054467
v 0.450941 -0.406883 0.000000
v 0.470060 -0.402215 0.000000
v 0.470006 -0.406514 0.064411
v 0.480046 -0.401963 0.000000
v 0.480003 -0.406482 0.066432
v 0.490033 -0.406300 0.070289
v 0.500005 -0.406255 0.085001
v 0.510000 -0.406251 0.095307
v 0.520000 -0.406251 0.099362
v 0.530000 -0.406251 0.100320
v 0.540000 -0.406250 0.101195
v 0.550000 -0.406250 0.104075
v 0.560000 -0.406250 0.107067
v 0.570000 -0.406250 0.107953
v 0.580000 -0.406250 0.108141
v 0.590000 -0.406250 0.108728
v 0.600000 -0.406250 0.111187
v 0.610000 -0.406250 0.115657
v 0.620000 -0.406250 0.119752
v 0.630000 -0.406250 0.121138
v 0.640000 -0.406250 0.121350
v 0.650000 -0.406250 0.121692
v 0.660000 -0.406250 0.123160
v 0.670000 -0.406250 0.125429
v 0.680000 -0.406250 0.125708
v 0.690000 -0.406250 0.125179
v 0.700000 -0.406250 0.124817
v 0.710000 -0.406250 0.124459
v 0.720000 -0.406250 0.123079
v 0.730000 -0.406250 0.119792
v 0.740000 -0.406250 0.116603
v 0.750000 -0.406250 0.115030
v 0.760000 -0.406250 0.114767
v 0.770000 -0.406250 0.114841
v 0.780000 -0.406250 0.114745
v 0.790000 -0.406250 0.113784
v 0.800000 -0.406250 0.110836
v 0.810000 -0.406250 0.108692
v 0.820000 -0.406250 0.108146
v 0.830000 -0.406250 0.108068
v 0.840000 -0.406250 0.107932
v 0.850000 -0.406250 0.106945
v 0.860000 -0.406250 0.103086
v 0.870000 -0.406250 0.096180
v 0.879995 -0.406245 0.085104
v 0.889967 -0.406200 0.070301
v 0.899997 -0.406018 0.066558
v 0.910000 -0.405988 0.066059
v 0.920000 -0.405986 0.066024
v 0.930000 -0.405986 0.066023
v 0.940000 -0.405986 0.066023
v 0.950000 -0.405986 0.066023
v 0.960000 -0.405986 0.066023
v 0.970000 -0.405986 0.066023
v 0.980000 -0.405986 0.066023
v 0.990000 -0.405986 0.066023
v 1.000000 -0.405986 0.066024
v 1.010000 -0.405988 0.066058
v 1.020003 -0.406018 0.066546
v 1.030033 -0.406198 0.070098
v 1.040004 -0.406231 0.083350
v 1.050000 -0.406235 0.088595
v 1.060001 -0.406248 0.090987
v 1.070000 -0.406250 0.097083
v 1.080000 -0.406250 0.103164
v 1.090000 -0.406250 0.106949
v 1.100000 -0.406250 0.107807
v 1.110000 -0.406250 0.106949
v 1.120000 -0.406250 0.103160
v 1.130000 -0.406250 0.097010
v 1.139999 -0.406248 0.090151
v 1.149995 -0.406232 0.083378
v 1.159938 -0.406197 0.067994
v 1.169543 -0.405996 0.051995
v 1.176284 -0.405802 0.000000
v 0.444009 -0.408787 0.000000
v 0.450098 -0.412578 0.059024
v 0.440473 -0.413011 0.000000
v 0.460008 -0.412521 0.081725
v 0.470000 -0.412517 0.088282
v 0.480000 -0.412515 0.089420
v 0.490001 -0.412502 0.091059
v 0.500000 -0.412500 0.097086
v 0.510000 -0.412500 0.103165
v 0.520000 -0.412500 0.106963
v 0.530000 -0.412500 0.108013
v 0.540000 -0.412500 0.108685
v 0.550000 -0.412500 0.110842
v 0.560000 -0.412500 0.113803
v 0.570000 -0.412500 0.114776
v 0.580000 -0.412500 0.114962
v 0.590000 -0.412500 0.115409
v 0.600000 -0.412500 0.117339
v 0.610000 -0.412500 0.121208
v 0.620000 -0.412500 0.125260
v 0.630000 -0.412500 0.126697
v 0.640000 -0.412500 0.126540
v 0.650000 -0.412500 0.126529
v 0.660000 -0.412500 0.127359
v 0.670000 -0.412500 0.128005
v 0.680000 -0.412500 0.125532
v 0.690000 -0.412500 0.122805
v 0.700000 -0.412500 0.121428
v 0.710000 -0.412500 0.120879
v 0.720000 -0.412500 0.119468
v 0.730000 -0.412500 0.115487
v 0.740000 -0.412500 0.111113
v 0.750000 -0.412500 0.108699
v 0.760000 -0.412500 0.108135
v 0.770000 -0.412500 0.108068
v 0.780000 -0.412500 0.107948
v 0.790000 -0.412500 0.107067
v 0.800000 -0.412500 0.104075
v 0.810000 -0.412500 0.101202
v 0.820000 -0.412499 0.100429
v 0.830000 -0.412499 0.100325
v 0.840000 -0.412499 0.100216
v 0.850000 -0.412499 0.099350
v 0.860000 -0.412499 0.095182
v 0.869991 -0.412494 0.083388
v 0.879902 -0.412425 0.059221
v 0.889527 -0.411989 0.000000
v 0.899956 -0.410537 0.000000
v 0.909998 -0.410296 0.000000
v 0.920000 -0.410273 0.000000
v 0.930000 -0.410272 0.000000
v 0.940000 -0.410272 0.000000
v 0.950000 -0.410272 0.000000
v 0.960000 -0.410272 0.000000
v 0.970000 -0.410272 0.000000
v 0.980000 -0.410272 0.000000
v 0.990000 -0.410272 0.000000
v 1.000000 -0.410273 0.000000
v 1.010002 -0.410296 0.000000
v 1.020043 -0.410535 0.000000
v 1.030470 -0.411948 0.000000
v 1.040076 -0.412209 0.054891
v 1.050008 -0.412267 0.064931
v 1.060033 -0.412450 0.070169
v 1.070005 -0.412495 0.084996
v 1.080000 -0.412499 0.095307
v 1.090000 -0.412499 0.099348
v 1.100000 -0.412499 0.100108
v 1.110000 -0.412499 0.099348
v 1.120000 -0.412499 0.095302
v 1.129995 -0.412495 0.084876
v 1.139963 -0.412449 0.068673
v 1.149920 -0.412239 0.055365
v 1.159482 -0.411942 0.000000
v 1.169237 -0.410418 0.000000
v 1.175324 -0.409614 0.000000
v 0.383965 -0.415436 0.000000
v 0.390626 -0.414848 0.000000
v 0.390076 -0.419043 0.054856
v 0.380470 -0.419302 0.000000
v 0.400058 -0.414740 0.000000
v 0.400005 -0.419016 0.064396
v 0.410003 -0.414728 0.000000
v 0.410000 -0.419014 0.065899
v 0.420002 -0.414704 0.000000
v 0.420000 -0.419012 0.066054
v 0.430044 -0.414463 0.000000
v 0.430003 -0.418982 0.066558
v 0.440033 -0.418800 0.070294
v 0.450005 -0.418755 0.085001
v 0.460000 -0.418751 0.095307
v 0.470000 -0.418751 0.099362
v 0.480000 -0.418751 0.100324
v 0.490000 -0.418750 0.101263
v 0.500000 -0.418750 0.104658
v 0.510000 -0.418750 0.109716
v 0.520000 -0.418750 0.113645
v 0.530000 -0.418750 0.114821
v 0.540000 -0.418750 0.115412
v 0.550000 -0.418750 0.117215
v 0.560000 -0.418750 0.120053
v 0.570000 -0.418750 0.121156
v 0.580000 -0.418750 0.121275
v 0.590000 -0.418750 0.121504
v 0.600000 -0.418750 0.122826
v 0.610000 -0.418750 0.125658
v 0.620000 -0.418750 0.128714
v 0.630000 -0.418750 0.129134
v 0.640000 -0.418750 0.127545
v 0.650000 -0.418750 0.126511
v 0.660000 -0.418750 0.126225
v 0.670000 -0.418750 0.125099
v 0.680000 -0.418750 0.121186
v 0.690000 -0.418750 0.117337
v 0.700000 -0.418750 0.115394
v 0.710000 -0.418750 0.114796
v 0.720000 -0.418750 0.113624
v 0.730000 -0.418750 0.109705
v 0.740000 -0.418750 0.104654
v 0.750000 -0.418750 0.101269
v 0.760000 -0.418749 0.100433
v 0.770000 -0.418749 0.100325
v 0.780000 -0.418749 0.100220
v 0.790000 -0.418749 0.099431
v 0.800000 -0.418749 0.096214
v 0.809999 -0.418748 0.090960
v 0.820000 -0.418735 0.089494
v 0.830000 -0.418733 0.089309
v 0.840000 -0.418733 0.089220
v 0.850000 -0.418733 0.088270
v 0.859991 -0.418729 0.081704
v 0.869870 -0.418666 0.058635
v 0.879056 -0.418159 0.000000
v 0.885991 -0.416216 0.000000
v 1.040628 -0.416426 0.000000
v 1.033965 -0.415816 0.000000
v 1.050102 -0.416776 0.000000
v 1.060475 -0.418239 0.000000
v 1.070098 -0.418672 0.059024
v 1.080008 -0.418729 0.081725
v 1.090000 -0.418733 0.088266
v 1.100000 -0.418733 0.089138
v 1.110000 -0.418733 0.088266
v 1.119992 -0.418729 0.081724
v 1.129900 -0.418672 0.059000
v 1.139484 -0.418231 0.000000
v 1.149331 -0.416668 0.000000
v 1.156028 -0.415850 0.000000
v 0.194030 -0.421699 0.000000
v 0.200631 -0.421099 0.000000
v 0.200109 -0.425299 0.054466
v 0.190941 -0.425633 0.000000
v 0.210058 -0.420990 0.000000
v 0.210006 -0.425266 0.064376
v 0.220003 -0.420979 0.000000
v 0.220000 -0.425264 0.065898
v 0.230000 -0.420978 0.000000
v 0.230000 -0.425264 0.066018
v 0.240000 -0.420978 0.000000
v 0.240000 -0.425264 0.066023
v 0.250000 -0.420978 0.000000
v 0.250000 -0.425264 0.066023
v 0.260000 -0.420978 0.000000
v 0.260000 -0.425264 0.066023
v 0.270000 -0.420978 0.000000
v 0.270000 -0.425264 0.066023
v 0.280000 -0.420978 0.000000
v 0.280000 -0.425264 0.066023
v 0.290000 -0.420978 0.000000
v 0.290000 -0.425264 0.066023
v 0.300000 -0.420978 0.000000
v 0.300000 -0.425264 0.066023
v 0.310000 -0.420978 0.000000
v 0.310000 -0.425264 0.066023
v 0.320000 -0.420978 0.000000
v 0.320000 -0.425264 0.066023
v 0.330000 -0.420978 0.000000
v 0.330000 -0.425264 0.066023
v 0.340000 -0.420978 0.000000
v 0.340000 -0.425264 0.066023
v 0.350000 -0.420977 0.000000
v 0.350000 -0.425264 0.066024
v 0.360002 -0.420954 0.000000
v 0.360000 -0.425262 0.066058
v 0.370043 -0.420715 0.000000
v 0.370003 -0.425232 0.066546
v 0.380033 -0.425052 0.070098
v 0.390004 -0.425020 0.083338
v 0.400000 -0.425017 0.088395
v 0.410000 -0.425017 0.089225
v 0.420000 -0.425017 0.089309
v 0.430000 -0.425015 0.089501
v 0.440001 -0.425002 0.091063
v 0.450000 -0.425000 0.097087
v 0.460000 -0.425000 0.103165
v 0.470000 -0.425000 0.106963
v 0.480000 -0.425000 0.108015
v 0.490000 -0.425000 0.108720
v 0.500000 -0.425000 0.111189
v 0.510000 -0.425000 0.115660
v 0.520000 -0.425000 0.119766
v 0.530000 -0.425000 0.121244
v 0.540000 -0.425000 0.121841
v 0.550000 -0.425000 0.123317
v 0.560000 -0.425000 0.125749
v 0.570000 -0.425000 0.126632
v 0.580000 -0.425000 0.125979
v 0.590000 -0.425000 0.125293
v 0.600000 -0.425000 0.125293
v 0.610000 -0.425000 0.125978
v 0.620000 -0.425000 0.126625
v 0.630000 -0.425000 0.125704
v 0.640000 -0.425000 0.123194
v 0.650000 -0.425000 0.121672
v 0.660000 -0.425000 0.121111
v 0.670000 -0.425000 0.119738
v 0.680000 -0.425000 0.115656
v 0.690000 -0.425000 0.111187
v 0.700000 -0.425000 0.108719
v 0.710000 -0.425000 0.108014
v 0.720000 -0.425000 0.106962
v 0.730000 -0.425000 0.103164
v 0.740000 -0.425000 0.097086
v 0.749999 -0.424998 0.091063
v 0.760000 -0.424985 0.089501
v 0.770000 -0.424983 0.089309
v 0.780000 -0.424983 0.089225
v 0.790000 -0.424983 0.088395
v 0.799996 -0.424981 0.083338
v 0.809967 -0.424948 0.070098
v 0.819997 -0.424768 0.066546
v 0.830000 -0.424738 0.066053
v 0.840000 -0.424736 0.065899
v 0.849994 -0.424734 0.064376
v 0.859891 -0.424701 0.054465
v 0.869055 -0.424366 0.000000
v 0.875926 -0.422451 0.000000
v 1.070941 -0.424367 0.000000
v 1.064009 -0.422463 0.000000
v 1.080109 -0.424701 0.054466
v 1.090006 -0.424734 0.064371
v 1.100000 -0.424736 0.065772
v 1.109994 -0.424734 0.064371
v 1.119891 -0.424701 0.054466
v 1.129059 -0.424367 0.000000
v 1.135988 -0.422462 0.000000
v 0.184009 -0.427537 0.000000
v 0.190098 -0.431328 0.059024
v 0.180473 -0.431761 0.000000
v 0.200008 -0.431271 0.081725
v 0.210000 -0.431267 0.088270
v 0.220000 -0.431267 0.089219
v 0.230000 -0.431267 0.089297
v 0.240000 -0.431267 0.089300
v 0.250000 -0.431267 0.089300
v 0.260000 -0.431267 0.089300
v 0.270000 -0.431267 0.089300
v 0.280000 -0.431267 0.089300
v 0.290000 -0.431267 0.089300
v 0.300000 -0.431267 0.089300
v 0.310000 -0.431267 0.089300
v 0.320000 -0.431267 0.089300
v 0.330000 -0.431267 0.089300
v 0.340000 -0.431267 0.089300
v 0.350000 -0.431267 0.089301
v 0.360000 -0.431267 0.089312
v 0.370000 -0.431265 0.089495
v 0.380001 -0.431252 0.090960
v 0.390000 -0.431251 0.096214
v 0.400000 -0.431251 0.099431
v 0.410000 -0.431251 0.100220
v 0.420000 -0.431251 0.100325
v 0.430000 -0.431251 0.100433
v 0.440000 -0.431250 0.101270
v 0.450000 -0.431250 0.104658
v 0.460000 -0.431250 0.109716
v 0.470000 -0.431250 0.113645
v 0.480000 -0.431250 0.114821
v 0.490000 -0.431250 0.115420
v 0.500000 -0.431250 0.117375
v 0.510000 -0.431250 0.121247
v 0.520000 -0.431250 0.125368
v 0.530000 -0.431250 0.127208
v 0.540000 -0.431250 0.127764
v 0.550000 -0.431250 0.128481
v 0.560000 -0.431250 0.129503
v 0.570000 -0.431250 0.128783
v 0.580000 -0.431250 0.125664
v 0.590000 -0.431250 0.122826
v 0.600000 -0.431250 0.121504
v 0.610000 -0.431250 0.121275
v 0.620000 -0.431250 0.121155
v 0.630000 -0.431250 0.120050
v 0.640000 -0.431250 0.117207
v 0.650000 -0.431250 0.115400
v 0.660000 -0.431250 0.114812
v 0.670000 -0.431250 0.113643
v 0.680000 -0.431250 0.109716
v 0.690000 -0.431250 0.104658
v 0.700000 -0.431250 0.101263
v 0.710000 -0.431249 0.100324
v 0.720000 -0.431249 0.099362
v 0.730000 -0.431249 0.095307
v 0.739995 -0.431245 0.085001
v 0.749967 -0.431201 0.070294
v 0.759997 -0.431018 0.066558
v 0.770000 -0.430988 0.066054
v 0.780000 -0.430986 0.065899
v 0.789995 -0.430984 0.064396
v 0.799924 -0.430957 0.054856
v 0.809530 -0.430698 0.000000
v 0.819957 -0.429285 0.000000
v 0.829998 -0.429046 0.000000
v 0.839997 -0.429022 0.000000
v 0.849942 -0.429010 0.000000
v 0.859369 -0.428901 0.000000
v 0.865969 -0.428301 0.000000
v 1.080631 -0.428901 0.000000
v 1.074030 -0.428301 0.000000
v 1.090058 -0.429010 0.000000
v 1.100000 -0.429021 0.000000
v 1.109942 -0.429010 0.000000
v 1.119369 -0.428901 0.000000
v 1.125970 -0.428301 0.000000
v 0.044677 -0.434170 0.000000
v 0.050720 -0.433596 0.000000
v 0.050460 -0.437769 0.047946
v 0.043773 -0.437911 0.000000
v 0.060064 -0.433490 0.000000
v 0.060031 -0.437763 0.059717
v 0.070003 -0.433479 0.000000
v 0.070001 -0.437764 0.064190
v 0.080000 -0.433478 0.000000
v 0.080000 -0.437764 0.065503
v 0.090000 -0.433478 0.000000
v 0.090000 -0.437764 0.065737
v 0.100000 -0.433478 0.000000
v 0.100000 -0.437764 0.065885
v 0.110000 -0.433478 0.000000
v 0.110000 -0.437764 0.065993
v 0.120000 -0.433478 0.000000
v 0.120000 -0.437764 0.066020
v 0.130000 -0.433478 0.000000
v 0.130000 -0.437764 0.066023
v 0.140000 -0.433478 0.000000
v 0.140000 -0.437764 0.066023
v 0.150000 -0.433477 0.000000
v 0.150000 -0.437764 0.066024
v 0.160002 -0.433454 0.000000
v 0.160000 -0.437762 0.066059
v 0.170044 -0.433213 0.000000
v 0.170003 -0.437732 0.066558
v 0.180033 -0.437550 0.070294
v 0.190005 -0.437505 0.085001
v 0.200000 -0.437501 0.095307
v 0.210000 -0.437501 0.099355
v 0.220000 -0.437501 0.100217
v 0.230000 -0.437501 0.100319
v 0.240000 -0.437501 0.100325
v 0.250000 -0.437501 0.100326
v 0.260000 -0.437501 0.100326
v 0.270000 -0.437501 0.100326
v 0.280000 -0.437501 0.100326
v 0.290000 -0.437501 0.100326
v 0.300000 -0.437501 0.100326
v 0.310000 -0.437501 0.100326
v 0.320000 -0.437501 0.100326
v 0.330000 -0.437501 0.100326
v 0.340000 -0.437501 0.100326
v 0.350000 -0.437501 0.100326
v 0.360000 -0.437501 0.100332
v 0.370000 -0.437501 0.100429
v 0.380000 -0.437500 0.101202
v 0.390000 -0.437500 0.104075
v 0.400000 -0.437500 0.107067
v 0.410000 -0.437500 0.107949
v 0.420000 -0.437500 0.108072
v 0.430000 -0.437500 0.108149
v 0.440000 -0.437500 0.108729
v 0.450000 -0.437500 0.111191
v 0.460000 -0.437500 0.115666
v 0.470000 -0.437500 0.119773
v 0.480000 -0.437500 0.121235
v 0.490000 -0.437500 0.121767
v 0.500000 -0.437500 0.123150
v 0.510000 -0.437500 0.125932
v 0.520000 -0.437500 0.129164
v 0.530000 -0.437500 0.130823
v 0.540000 -0.437500 0.130940
v 0.550000 -0.437500 0.129922
v 0.560000 -0.437500 0.128108
v 0.570000 -0.437500 0.125559
v 0.580000 -0.437500 0.121242
v 0.590000 -0.437500 0.117342
v 0.600000 -0.437500 0.115409
v 0.610000 -0.437500 0.114962
v 0.620000 -0.437500 0.114776
v 0.630000 -0.437500 0.113803
v 0.640000 -0.437500 0.110842
v 0.650000 -0.437500 0.108684
v 0.660000 -0.437500 0.108013
v 0.670000 -0.437500 0.106963
v 0.680000 -0.437500 0.103165
v 0.690000 -0.437500 0.097086
v 0.699999 -0.437498 0.091059
v 0.710000 -0.437485 0.089420
v 0.720000 -0.437483 0.088282
v 0.729992 -0.437479 0.081725
v 0.739902 -0.437422 0.059024
v 0.749527 -0.436989 0.000000
v 0.759956 -0.435537 0.000000
v 0.769998 -0.435296 0.000000
v 0.779997 -0.435272 0.000000
v 0.789942 -0.435260 0.000000
v 0.799374 -0.435152 0.000000
v 0.806035 -0.434564 0.000000
v 0.050463 -0.443515 0.048373
v 0.043773 -0.443343 0.000000
v 0.060062 -0.443716 0.062880
v 0.070006 -0.443762 0.077713
v 0.080000 -0.443766 0.084965
v 0.090000 -0.443767 0.086762
v 0.100000 -0.443767 0.088023
v 0.110000 -0.443767 0.088939
v 0.120000 -0.443767 0.089239
v 0.130000 -0.443767 0.089288
v 0.140000 -0.443767 0.089298
v 0.150000 -0.443767 0.089300
v 0.160000 -0.443767 0.089312
v 0.170000 -0.443765 0.089501
v 0.180001 -0.443752 0.091063
v 0.190000 -0.443750 0.097086
v 0.200000 -0.443750 0.103164
v 0.210000 -0.443750 0.106958
v 0.220000 -0.443750 0.107941
v 0.230000 -0.443750 0.108067
v 0.240000 -0.443750 0.108076
v 0.250000 -0.443750 0.108076
v 0.260000 -0.443750 0.108076
v 0.270000 -0.443750 0.108076
v 0.280000 -0.443750 0.108076
v 0.290000 -0.443750 0.108076
v 0.300000 -0.443750 0.108076
v 0.310000 -0.443750 0.108076
v 0.320000 -0.443750 0.108076
v 0.330000 -0.443750 0.108076
v 0.340000 -0.443750 0.108076
v 0.350000 -0.443750 0.108076
v 0.360000 -0.443750 0.108081
v 0.370000 -0.443750 0.108148
v 0.380000 -0.443750 0.108693
v 0.390000 -0.443750 0.110843
v 0.400000 -0.443750 0.113804
v 0.410000 -0.443750 0.114778
v 0.420000 -0.443750 0.114925
v 0.430000 -0.443750 0.114988
v 0.440000 -0.443750 0.115438
v 0.450000 -0.443750 0.117406
v 0.460000 -0.443750 0.121342
v 0.470000 -0.443750 0.125466
v 0.480000 -0.443750 0.127141
v 0.490000 -0.443750 0.127192
v 0.500000 -0.443750 0.126943
v 0.510000 -0.443750 0.126945
v 0.520000 -0.443750 0.127229
v 0.530000 -0.443750 0.127486
v 0.540000 -0.443750 0.127237
v 0.550000 -0.443750 0.125840
v 0.560000 -0.443750 0.123058
v 0.570000 -0.443750 0.120159
v 0.580000 -0.443750 0.115703
v 0.590000 -0.443750 0.111190
v 0.600000 -0.443750 0.108728
v 0.610000 -0.443750 0.108141
v 0.620000 -0.443750 0.107953
v 0.630000 -0.443750 0.107067
v 0.640000 -0.443750 0.104075
v 0.650000 -0.443750 0.101195
v 0.660000 -0.443749 0.100320
v 0.670000 -0.443749 0.099362
v 0.680000 -0.443749 0.095307
v 0.689995 -0.443745 0.085001
v 0.699967 -0.443700 0.070289
v 0.709997 -0.443518 0.066432
v 0.719994 -0.443486 0.064411
v 0.729891 -0.443451 0.054467
v 0.739059 -0.443117 0.000000
v 0.745991 -0.441213 0.000000
v 0.050763 -0.447920 0.000000
v 0.044681 -0.447117 0.000000
v 0.060521 -0.449481 0.000000
v 0.070100 -0.449923 0.058107
v 0.080008 -0.449982 0.080136
v 0.090001 -0.449999 0.087430
v 0.100000 -0.450001 0.093636
v 0.110000 -0.450001 0.097959
v 0.120000 -0.450001 0.099722
v 0.130000 -0.450001 0.100142
v 0.140000 -0.450001 0.100279
v 0.150000 -0.450001 0.100312
v 0.160000 -0.450001 0.100330
v 0.170000 -0.450001 0.100433
v 0.180000 -0.450000 0.101270
v 0.190000 -0.450000 0.104658
v 0.200000 -0.450000 0.109716
v 0.210000 -0.450000 0.113642
v 0.220000 -0.450000 0.114766
v 0.230000 -0.450000 0.114921
v 0.240000 -0.450000 0.114933
v 0.250000 -0.450000 0.114933
v 0.260000 -0.450000 0.114933
v 0.270000 -0.450000 0.114933
v 0.280000 -0.450000 0.114933
v 0.290000 -0.450000 0.114933
v 0.300000 -0.450000 0.114933
v 0.310000 -0.450000 0.114933
v 0.320000 -0.450000 0.114933
v 0.330000 -0.450000 0.114933
v 0.340000 -0.450000 0.114933
v 0.350000 -0.450000 0.114933
v 0.360000 -0.450000 0.114937
v 0.370000 -0.450000 0.114989
v 0.380000 -0.450000 0.115425
v 0.390000 -0.450000 0.117224
v 0.400000 -0.450000 0.120082
v 0.410000 -0.450000 0.121245
v 0.420000 -0.450000 0.121459
v 0.430000 -0.450000 0.121518
v 0.440000 -0.450000 0.121884
v 0.450000 -0.450000 0.123488
v 0.460000 -0.450000 0.126710
v 0.470000 -0.450000 0.129930
v 0.480000 -0.450000 0.130758
v 0.490000 -0.450000 0.129180
v 0.500000 -0.450000 0.125935
v 0.510000 -0.450000 0.123151
v 0.520000 -0.450000 0.121791
v 0.530000 -0.450000 0.121481
v 0.540000 -0.450000 0.121232
v 0.550000 -0.450000 0.120053
v 0.560000 -0.450000 0.117050
v 0.570000 -0.450000 0.114132
v 0.580000 -0.450000 0.109772
v 0.590000 -0.450000 0.104661
v 0.600000 -0.450000 0.101270
v 0.610000 -0.449999 0.100426
v 0.620000 -0.449999 0.100227
v 0.630000 -0.449999 0.099432
v 0.640000 -0.449999 0.096213
v 0.649999 -0.449998 0.090956
v 0.660000 -0.449985 0.089413
v 0.670000 -0.449983 0.088282
v 0.679992 -0.449979 0.081725
v 0.689902 -0.449922 0.059024
v 0.699527 -0.449489 0.000000
v 0.709954 -0.448037 0.000000
v 0.719940 -0.447785 0.000000
v 0.729369 -0.447652 0.000000
v 0.735970 -0.447051 0.000000
v 0.070941 -0.455620 0.000000
v 0.064012 -0.453712 0.000000
v 0.080111 -0.455985 0.054895
v 0.090029 -0.456218 0.069149
v 0.100003 -0.456248 0.087872
v 0.110000 -0.456250 0.099368
v 0.120000 -0.456250 0.104721
v 0.130000 -0.456250 0.106581
v 0.140000 -0.456250 0.107527
v 0.150000 -0.456250 0.107870
v 0.160000 -0.456250 0.108033
v 0.170000 -0.456250 0.108137
v 0.180000 -0.456250 0.108725
v 0.190000 -0.456250 0.111190
v 0.200000 -0.456250 0.115668
v 0.210000 -0.456250 0.119782
v 0.220000 -0.456250 0.121224
v 0.230000 -0.456250 0.121472
v 0.240000 -0.456250 0.121496
v 0.250000 -0.456250 0.121497
v 0.260000 -0.456250 0.121497
v 0.270000 -0.456250 0.121497
v 0.280000 -0.456250 0.121497
v 0.290000 -0.456250 0.121497
v 0.300000 -0.456250 0.121497
v 0.310000 -0.456250 0.121497
v 0.320000 -0.456250 0.121497
v 0.330000 -0.456250 0.121497
v 0.340000 -0.456250 0.121497
v 0.350000 -0.456250 0.121497
v 0.360000 -0.456250 0.121500
v 0.370000 -0.456250 0.121543
v 0.380000 -0.456250 0.121908
v 0.390000 -0.456250 0.123448
v 0.400000 -0.456250 0.126097
v 0.410000 -0.456250 0.127456
v 0.420000 -0.456250 0.127705
v 0.430000 -0.456250 0.127692
v 0.440000 -0.456250 0.127909
v 0.450000 -0.456250 0.128892
v 0.460000 -0.456250 0.130297
v 0.470000 -0.456250 0.130253
v 0.480000 -0.456250 0.128460
v 0.490000 -0.456250 0.125653
v 0.500000 -0.456250 0.121281
v 0.510000 -0.456250 0.117378
v 0.520000 -0.456250 0.115432
v 0.530000 -0.456250 0.114977
v 0.540000 -0.456250 0.114781
v 0.550000 -0.456250 0.113794
v 0.560000 -0.456250 0.110708
v 0.570000 -0.456250 0.107575
v 0.580000 -0.456250 0.103236
v 0.590000 -0.456250 0.097091
v 0.599999 -0.456248 0.091063
v 0.610000 -0.456235 0.089497
v 0.620000 -0.456233 0.089236
v 0.630000 -0.456233 0.088395
v 0.639996 -0.456231 0.083338
v 0.649967 -0.456198 0.070093
v 0.659997 -0.456018 0.066420
v 0.669994 -0.455986 0.064411
v 0.679891 -0.455951 0.054467
v 0.689059 -0.455617 0.000000
v 0.695991 -0.453713 0.000000
v 0.080662 -0.460443 0.000000
v 0.074033 -0.459590 0.000000
v 0.090401 -0.462249 0.000000
v 0.100050 -0.462483 0.072565
v 0.110003 -0.462499 0.094358
v 0.120000 -0.462500 0.103769
v 0.130000 -0.462500 0.108141
v 0.140000 -0.462500 0.111420
v 0.150000 -0.462500 0.113247
v 0.160000 -0.462500 0.114391
v 0.170000 -0.462500 0.114791
v 0.180000 -0.462500 0.115364
v 0.190000 -0.462500 0.117386
v 0.200000 -0.462500 0.121369
v 0.210000 -0.462500 0.125644
v 0.220000 -0.462500 0.127559
v 0.230000 -0.462500 0.127963
v 0.240000 -0.462500 0.128014
v 0.250000 -0.462500 0.128022
v 0.260000 -0.462500 0.128023
v 0.270000 -0.462500 0.128023
v 0.280000 -0.462500 0.128023
v 0.290000 -0.462500 0.128023
v 0.300000 -0.462500 0.128023
v 0.310000 -0.462500 0.128023
v 0.320000 -0.462500 0.128022
v 0.330000 -0.462500 0.128017
v 0.340000 -0.462500 0.128011
v 0.350000 -0.462500 0.128009
v 0.360000 -0.462500 0.128011
v 0.370000 -0.462500 0.128043
v 0.380000 -0.462500 0.128334
v 0.390000 -0.462500 0.129568
v 0.400000 -0.462500 0.131704
v 0.410000 -0.462500 0.132573
v 0.420000 -0.462500 0.132284
v 0.430000 -0.462500 0.131704
v 0.440000 -0.462500 0.131412
v 0.450000 -0.462500 0.131228
v 0.460000 -0.462500 0.129985
v 0.470000 -0.462500 0.126689
v 0.480000 -0.462500 0.123216
v 0.490000 -0.462500 0.120177
v 0.500000 -0.462500 0.115706
v 0.510000 -0.462500 0.111192
v 0.520000 -0.462500 0.108729
v 0.530000 -0.462500 0.108141
v 0.540000 -0.462500 0.107953
v 0.550000 -0.462500 0.107060
v 0.560000 -0.462500 0.103966
v 0.570000 -0.462500 0.100232
v 0.580000 -0.462499 0.095410
v 0.589995 -0.462495 0.085008
v 0.599967 -0.462451 0.070294
v 0.609997 -0.462268 0.066553
v 0.620000 -0.462238 0.065933
v 0.629995 -0.462234 0.064398
v 0.639924 -0.462207 0.054856
v 0.649530 -0.461948 0.000000
v 0.659954 -0.460535 0.000000
v 0.669940 -0.460285 0.000000
v 0.679369 -0.460152 0.000000
v 0.685970 -0.459551 0.000000
v 0.100415 -0.468700 0.056930
v 0.093289 -0.468340 0.000000
v 0.110028 -0.468747 0.085873
v 0.120001 -0.468750 0.098136
v 0.130000 -0.468750 0.104006
v 0.140000 -0.468750 0.109353
v 0.150000 -0.468750 0.114171
v 0.160000 -0.468750 0.118191
v 0.170000 -0.468750 0.119915
v 0.180000 -0.468750 0.121142
v 0.190000 -0.468750 0.123236
v 0.200000 -0.468750 0.126961
v 0.210000 -0.468750 0.131355
v 0.220000 -0.468750 0.133788
v 0.230000 -0.468750 0.134395
v 0.240000 -0.468750 0.134539
v 0.250000 -0.468750 0.134621
v 0.260000 -0.468750 0.134643
v 0.270000 -0.468750 0.134646
v 0.280000 -0.468750 0.134646
v 0.290000 -0.468750 0.134646
v 0.300000 -0.468750 0.134646
v 0.310000 -0.468750 0.134643
v 0.320000 -0.468750 0.134621
v 0.330000 -0.468750 0.134543
v 0.340000 -0.468750 0.134469
v 0.350000 -0.468750 0.134436
v 0.360000 -0.468750 0.134419
v 0.370000 -0.468750 0.134367
v 0.380000 -0.468750 0.134367
v 0.390000 -0.468750 0.134590
v 0.400000 -0.468750 0.134843
v 0.410000 -0.468750 0.133455
v 0.420000 -0.468750 0.131287
v 0.430000 -0.468750 0.129057
v 0.440000 -0.468750 0.127877
v 0.450000 -0.468750 0.127263
v 0.460000 -0.468750 0.125477
v 0.470000 -0.468750 0.121331
v 0.480000 -0.468750 0.117239
v 0.490000 -0.468750 0.114147
v 0.500000 -0.468750 0.109773
v 0.510000 -0.468750 0.104661
v 0.520000 -0.468750 0.101270
v 0.530000 -0.468749 0.100426
v 0.540000 -0.468749 0.100227
v 0.550000 -0.468749 0.099428
v 0.560000 -0.468749 0.096132
v 0.569999 -0.468748 0.089930
v 0.579992 -0.468731 0.081919
v 0.589902 -0.468673 0.059036
v 0.599527 -0.468239 0.000000
v 0.609957 -0.466787 0.000000
v 0.619995 -0.466546 0.000000
v 0.629942 -0.466512 0.000000
v 0.639374 -0.466402 0.000000
v 0.646035 -0.465814 0.000000
v 0.100893 -0.474676 0.000000
v 0.094638 -0.472518 0.000000
v 0.110084 -0.474963 0.070556
v 0.120005 -0.474997 0.087948
v 0.130000 -0.475000 0.096878
v 0.140000 -0.475000 0.103980
v 0.150000 -0.475000 0.110942
v 0.160000 -0.475000 0.117216
v 0.170000 -0.475000 0.120840
v 0.180000 -0.475000 0.123945
v 0.190000 -0.475000 0.127198
v 0.200000 -0.475000 0.131251
v 0.210000 -0.475000 0.135778
v 0.220000 -0.475000 0.138733
v 0.230000 -0.475000 0.139743
v 0.240000 -0.475000 0.140395
v 0.250000 -0.475000 0.140994
v 0.260000 -0.475000 0.141229
v 0.270000 -0.475000 0.141266
v 0.280000 -0.475000 0.141268
v 0.290000 -0.475000 0.141268
v 0.300000 -0.475000 0.141266
v 0.310000 -0.475000 0.141229
v 0.320000 -0.475000 0.140994
v 0.330000 -0.475000 0.140402
v 0.340000 -0.475000 0.139846
v 0.350000 -0.475000 0.139575
v 0.360000 -0.475000 0.139403
v 0.370000 -0.475000 0.138864
v 0.380000 -0.475000 0.137771
v 0.390000 -0.475000 0.135514
v 0.400000 -0.475000 0.132365
v 0.410000 -0.475000 0.129186
v 0.420000 -0.475000 0.126367
v 0.430000 -0.475000 0.123432
v 0.440000 -0.475000 0.121855
v 0.450000 -0.475000 0.121247
v 0.460000 -0.475000 0.119774
v 0.470000 -0.475000 0.115658
v 0.480000 -0.475000 0.111056
v 0.490000 -0.475000 0.107611
v 0.500000 -0.475000 0.103238
v 0.510000 -0.475000 0.097091
v 0.519999 -0.474998 0.091063
v 0.530000 -0.474985 0.089497
v 0.540000 -0.474983 0.089236
v 0.550000 -0.474983 0.088390
v 0.559996 -0.474980 0.083212
v 0.569962 -0.474947 0.068457
v 0.579888 -0.474733 0.054989
v 0.589059 -0.474369 0.000000
v 0.595991 -0.472463 0.000000
v 0.110409 -0.480995 0.052324
v 0.103332 -0.480776 0.000000
v 0.120059 -0.481199 0.068237
v 0.130005 -0.481246 0.085091
v 0.140000 -0.481250 0.097179
v 0.150000 -0.481250 0.106281
v 0.160000 -0.481250 0.112981
v 0.170000 -0.481250 0.116829
v 0.180000 -0.481250 0.121018
v 0.190000 -0.481250 0.125773
v 0.200000 -0.481250 0.130881
v 0.210000 -0.481250 0.135747
v 0.220000 -0.481250 0.138921
v 0.230000 -0.481250 0.140644
v 0.240000 -0.481250 0.142764
v 0.250000 -0.481250 0.145057
v 0.260000 -0.481250 0.146276
v 0.270000 -0.481250 0.146540
v 0.280000 -0.481250 0.146567
v 0.290000 -0.481250 0.146567
v 0.300000 -0.481250 0.146540
v 0.310000 -0.481250 0.146276
v 0.320000 -0.481250 0.145057
v 0.330000 -0.481250 0.142771
v 0.340000 -0.481250 0.140743
v 0.350000 -0.481250 0.139716
v 0.360000 -0.481250 0.139048
v 0.370000 -0.481250 0.137392
v 0.380000 -0.481250 0.134901
v 0.390000 -0.481250 0.131579
v 0.400000 -0.481250 0.127127
v 0.410000 -0.481250 0.123336
v 0.420000 -0.481250 0.120496
v 0.430000 -0.481250 0.117267
v 0.440000 -0.481250 0.115415
v 0.450000 -0.481250 0.114821
v 0.460000 -0.481250 0.113645
v 0.470000 -0.481250 0.109709
v 0.480000 -0.481250 0.104549
v 0.490000 -0.481250 0.100300
v 0.500000 -0.481249 0.095415
v 0.509995 -0.481245 0.085008
v 0.519967 -0.481200 0.070294
v 0.529997 -0.481018 0.066553
v 0.540000 -0.480988 0.065933
v 0.549995 -0.480984 0.064397
v 0.559922 -0.480957 0.054832
v 0.569486 -0.480689 0.000000
v 0.579326 -0.479165 0.000000
v 0.585966 -0.478338 0.000000
v 0.110758 -0.485420 0.000000
v 0.104621 -0.484612 0.000000
v 0.120519 -0.486983 0.000000
v 0.130090 -0.487444 0.060010
v 0.140006 -0.487497 0.087015
v 0.150000 -0.487500 0.100784
v 0.160000 -0.487500 0.107184
v 0.170000 -0.487500 0.111010
v 0.180000 -0.487500 0.115815
v 0.190000 -0.487500 0.121103
v 0.200000 -0.487500 0.126494
v 0.210000 -0.487500 0.131334
v 0.220000 -0.487500 0.134104
v 0.230000 -0.487500 0.135987
v 0.240000 -0.487500 0.138950
v 0.250000 -0.487500 0.142803
v 0.260000 -0.487500 0.145657
v 0.270000 -0.487500 0.146452
v 0.280000 -0.487500 0.146560
v 0.290000 -0.487500 0.146560
v 0.300000 -0.487500 0.146452
v 0.310000 -0.487500 0.145657
v 0.320000 -0.487500 0.142803
v 0.330000 -0.487500 0.138955
v 0.340000 -0.487500 0.136057
v 0.350000 -0.487500 0.134695
v 0.360000 -0.487500 0.133947
v 0.370000 -0.487500 0.132135
v 0.380000 -0.487500 0.129252
v 0.390000 -0.487500 0.125996
v 0.400000 -0.487500 0.121409
v 0.410000 -0.487500 0.117259
v 0.420000 -0.487500 0.114310
v 0.430000 -0.487500 0.110899
v 0.440000 -0.487500 0.108688
v 0.450000 -0.487500 0.108013
v 0.460000 -0.487500 0.106963
v 0.470000 -0.487500 0.103161
v 0.480000 -0.487500 0.097005
v 0.489999 -0.487498 0.090033
v 0.499992 -0.487481 0.081925
v 0.509902 -0.487423 0.059037
v 0.519527 -0.486989 0.000000
v 0.529956 -0.485537 0.000000
v 0.539995 -0.485296 0.000000
v 0.549942 -0.485262 0.000000
v 0.559374 -0.485152 0.000000
v 0.566032 -0.484563 0.000000
v 0.130827 -0.493428 0.000000
v 0.123994 -0.491254 0.000000
v 0.140082 -0.493726 0.072048
v 0.150004 -0.493749 0.093131
v 0.160000 -0.493750 0.100067
v 0.170000 -0.493750 0.104571
v 0.180000 -0.493750 0.110069
v 0.190000 -0.493750 0.115686
v 0.200000 -0.493750 0.121061
v 0.210000 -0.493750 0.125653
v 0.220000 -0.493750 0.127924
v 0.230000 -0.493750 0.129803
v 0.240000 -0.493750 0.133112
v 0.250000 -0.493750 0.137414
v 0.260000 -0.493750 0.140377
v 0.270000 -0.493750 0.141160
v 0.280000 -0.493750 0.141261
v 0.290000 -0.493750 0.141261
v 0.300000 -0.493750 0.141160
v 0.310000 -0.493750 0.140377
v 0.320000 -0.493750 0.137414
v 0.330000 -0.493750 0.133114
v 0.340000 -0.493750 0.129848
v 0.350000 -0.493750 0.128333
v 0.360000 -0.493750 0.127661
v 0.370000 -0.493750 0.126119
v 0.380000 -0.493750 0.123185
v 0.390000 -0.493750 0.120194
v 0.400000 -0.493750 0.115706
v 0.410000 -0.493750 0.111066
v 0.420000 -0.493750 0.107720
v 0.430000 -0.493750 0.104148
v 0.440000 -0.493750 0.101200
v 0.450000 -0.493749 0.100320
v 0.460000 -0.493749 0.099362
v 0.470000 -0.493749 0.095302
v 0.479995 -0.493745 0.084876
v 0.489962 -0.493699 0.068653
v 0.499888 -0.493483 0.055002
v 0.509059 -0.493119 0.000000
v 0.515991 -0.491213 0.000000
v 0.140427 -0.499928 0.055985
v 0.133332 -0.499579 0.000000
v 0.150030 -0.499981 0.081464
v 0.160002 -0.499998 0.090002
v 0.170000 -0.500000 0.097074
v 0.180000 -0.500000 0.103779
v 0.190000 -0.500000 0.109955
v 0.200000 -0.500000 0.115501
v 0.210000 -0.500000 0.119816
v 0.220000 -0.500000 0.121645
v 0.230000 -0.500000 0.123569
v 0.240000 -0.500000 0.127181
v 0.250000 -0.500000 0.131549
v 0.260000 -0.500000 0.133992
v 0.270000 -0.500000 0.134572
v 0.280000 -0.500000 0.134641
v 0.290000 -0.500000 0.134641
v 0.300000 -0.500000 0.134572
v 0.310000 -0.500000 0.133992
v 0.320000 -0.500000 0.131549
v 0.330000 -0.500000 0.127182
v 0.340000 -0.500000 0.123592
v 0.350000 -0.500000 0.121896
v 0.360000 -0.500000 0.121303
v 0.370000 -0.500000 0.120075
v 0.380000 -0.500000 0.117057
v 0.390000 -0.500000 0.114134
v 0.400000 -0.500000 0.109765
v 0.410000 -0.500000 0.104556
v 0.420000 -0.500000 0.100376
v 0.430000 -0.499999 0.096321
v 0.439999 -0.499998 0.090963
v 0.450000 -0.499985 0.089414
v 0.460000 -0.499983 0.088282
v 0.469992 -0.499979 0.081725
v 0.479901 -0.499922 0.059000
v 0.489484 -0.499481 0.000000
v 0.499326 -0.497918 0.000000
v 0.505966 -0.497088 0.000000
v 0.141008 -0.505620 0.000000
v 0.134659 -0.503726 0.000000
v 0.150115 -0.505983 0.054960
v 0.160038 -0.506199 0.068658
v 0.170005 -0.506245 0.084983
v 0.180000 -0.506250 0.096243
v 0.190000 -0.506250 0.103671
v 0.200000 -0.506250 0.109607
v 0.210000 -0.506250 0.113691
v 0.220000 -0.506250 0.115272
v 0.230000 -0.506250 0.117400
v 0.240000 -0.506250 0.121383
v 0.250000 -0.506250 0.125657
v 0.260000 -0.506250 0.127572
v 0.270000 -0.506250 0.127975
v 0.280000 -0.506250 0.128020
v 0.290000 -0.506250 0.128020
v 0.300000 -0.506250 0.127975
v 0.310000 -0.506250 0.127572
v 0.320000 -0.506250 0.125657
v 0.330000 -0.506250 0.121383
v 0.340000 -0.506250 0.117411
v 0.350000 -0.506250 0.115428
v 0.360000 -0.506250 0.114835
v 0.370000 -0.506250 0.113798
v 0.380000 -0.506250 0.110708
v 0.390000 -0.506250 0.107575
v 0.400000 -0.506250 0.103232
v 0.410000 -0.506250 0.097015
v 0.419999 -0.506248 0.090158
v 0.429996 -0.506232 0.083538
v 0.439967 -0.506199 0.070105
v 0.449997 -0.506018 0.066421
v 0.459994 -0.505986 0.064411
v 0.469891 -0.505951 0.054467
v 0.479059 -0.505617 0.000000
v 0.485988 -0.503712 0.000000
v 0.150674 -0.510418 0.000000
v 0.144039 -0.509588 0.000000
v 0.160516 -0.511981 0.000000
v 0.170100 -0.512424 0.059203
v 0.180009 -0.512494 0.083490
v 0.190000 -0.512500 0.096055
v 0.200000 -0.512500 0.103088
v 0.210000 -0.512500 0.107028
v 0.220000 -0.512500 0.108594
v 0.230000 -0.512500 0.111182
v 0.240000 -0.512500 0.115668
v 0.250000 -0.512500 0.119783
v 0.260000 -0.512500 0.121224
v 0.270000 -0.512500 0.121472
v 0.280000 -0.512500 0.121496
v 0.290000 -0.512500 0.121496
v 0.300000 -0.512500 0.121472
v 0.310000 -0.512500 0.121224
v 0.320000 -0.512500 0.119783
v 0.330000 -0.512500 0.115668
v 0.340000 -0.512500 0.111190
v 0.350000 -0.512500 0.108720
v 0.360000 -0.512500 0.108022
v 0.370000 -0.512500 0.107065
v 0.380000 -0.512500 0.103966
v 0.390000 -0.512500 0.100232
v 0.400000 -0.512499 0.095405
v 0.409995 -0.512495 0.084883
v 0.419963 -0.512449 0.068674
v 0.429921 -0.512239 0.055391
v 0.439530 -0.511950 0.000000
v 0.449954 -0.510535 0.000000
v 0.459940 -0.510285 0.000000
v 0.469369 -0.510152 0.000000
v 0.475970 -0.509552 0.000000
v 0.170944 -0.518159 0.000000
v 0.164012 -0.516215 0.000000
v 0.180131 -0.518668 0.058832
v 0.190010 -0.518744 0.083368
v 0.200000 -0.518749 0.095189
v 0.210000 -0.518749 0.099458
v 0.220000 -0.518750 0.101161
v 0.230000 -0.518750 0.104651
v 0.240000 -0.518750 0.109716
v 0.250000 -0.518750 0.113642
v 0.260000 -0.518750 0.114766
v 0.270000 -0.518750 0.114921
v 0.280000 -0.518750 0.114933
v 0.290000 -0.518750 0.114933
v 0.300000 -0.518750 0.114921
v 0.310000 -0.518750 0.114766
v 0.320000 -0.518750 0.113642
v 0.330000 -0.518750 0.109716
v 0.340000 -0.518750 0.104658
v 0.350000 -0.518750 0.101263
v 0.360000 -0.518749 0.100328
v 0.370000 -0.518749 0.099434
v 0.380000 -0.518749 0.096133
v 0.389999 -0.518748 0.089930
v 0.399992 -0.518731 0.081918
v 0.409901 -0.518672 0.059012
v 0.419484 -0.518231 0.000000
v 0.429331 -0.516669 0.000000
v 0.436032 -0.515850 0.000000
v 0.180947 -0.524408 0.000000
v 0.174074 -0.522454 0.000000
v 0.190131 -0.524916 0.058635
v 0.200009 -0.524979 0.081716
v 0.210000 -0.524984 0.088470
v 0.220001 -0.524998 0.090982
v 0.230000 -0.525000 0.097083
v 0.240000 -0.525000 0.103164
v 0.250000 -0.525000 0.106958
v 0.260000 -0.525000 0.107941
v 0.270000 -0.525000 0.108067
v 0.280000 -0.525000 0.108076
v 0.290000 -0.525000 0.108076
v 0.300000 -0.525000 0.108067
v 0.310000 -0.525000 0.107941
v 0.320000 -0.525000 0.106958
v 0.330000 -0.525000 0.103164
v 0.340000 -0.525000 0.097086
v 0.349999 -0.524998 0.091059
v 0.360000 -0.524985 0.089425
v 0.370000 -0.524983 0.088402
v 0.379996 -0.524980 0.083213
v 0.389962 -0.524947 0.068457
v 0.399888 -0.524733 0.054989
v 0.409059 -0.524369 0.000000
v 0.415988 -0.522462 0.000000
v 0.190945 -0.530616 0.000000
v 0.184074 -0.528701 0.000000
v 0.200109 -0.530953 0.054501
v 0.210009 -0.531016 0.064911
v 0.220033 -0.531200 0.070169
v 0.230005 -0.531245 0.084996
v 0.240000 -0.531249 0.095307
v 0.250000 -0.531249 0.099355
v 0.260000 -0.531249 0.100217
v 0.270000 -0.531249 0.100319
v 0.280000 -0.531249 0.100325
v 0.290000 -0.531249 0.100325
v 0.300000 -0.531249 0.100319
v 0.310000 -0.531249 0.100217
v 0.320000 -0.531249 0.099355
v 0.330000 -0.531249 0.095307
v 0.339995 -0.531245 0.085001
v 0.349967 -0.531201 0.070289
v 0.359997 -0.531018 0.066433
v 0.369995 -0.530986 0.064432
v 0.379922 -0.530957 0.054833
v 0.389486 -0.530689 0.000000
v 0.399326 -0.529166 0.000000
v 0.405966 -0.528338 0.000000
v 0.200633 -0.535176 0.000000
v 0.194031 -0.534553 0.000000
v 0.210102 -0.535526 0.000000
v 0.220475 -0.536989 0.000000
v 0.230098 -0.537422 0.059024
v 0.240008 -0.537479 0.081725
v 0.250000 -0.537483 0.088270
v 0.260000 -0.537483 0.089219
v 0.270000 -0.537483 0.089297
v 0.280000 -0.537483 0.089300
v 0.290000 -0.537483 0.089300
v 0.300000 -0.537483 0.089297
v 0.310000 -0.537483 0.089219
v 0.320000 -0.537483 0.088270
v 0.329992 -0.537479 0.081725
v 0.339902 -0.537422 0.059024
v 0.349527 -0.536989 0.000000
v 0.359954 -0.535537 0.000000
v 0.369940 -0.535285 0.000000
v 0.379374 -0.535153 0.000000
v 0.386032 -0.534563 0.000000
v 0.230941 -0.543117 0.000000
v 0.224009 -0.541213 0.000000
v 0.240109 -0.543451 0.054466
v 0.250006 -0.543484 0.064376
v 0.260000 -0.543486 0.065898
v 0.270000 -0.543486 0.066018
v 0.280000 -0.543486 0.066023
v 0.290000 -0.543486 0.066023
v 0.300000 -0.543486 0.066018
v 0.310000 -0.543486 0.065898
v 0.319994 -0.543484 0.064376
v 0.329891 -0.543451 0.054466
v 0.339059 -0.543117 0.000000
v 0.345991 -0.541213 0.000000
v 0.240631 -0.547651 0.000000
v 0.234030 -0.547051 0.000000
v 0.250058 -0.547760 0.000000
v 0.260003 -0.547771 0.000000
v 0.270000 -0.547772 0.000000
v 0.280000 -0.547772 0.000000
v 0.290000 -0.547772 0.000000
v 0.300000 -0.547772 0.000000
v 0.309997 -0.547771 0.000000
v 0.319942 -0.547760 0.000000
v 0.329369 -0.547651 0.000000
v 0.335970 -0.547051 0.000000
f 702 774 775 703
f 3 18 19 6
f 1057 1058 1060 1059
f 1489 1553 1554 1490
f 261 310 311 262
f 2025 2038 2039 2026
f 2014 2032 2033 2015
f 986 1090 1091 987
f 61 87 88 62
f 971 1075 1076 972
f 1474 1538 1539 1475
f 19 41 42 20
f 1481 1545 1546 1482
f 1241 1319 1320 1242
f 545 616 617 546
f 101 130 131 103
f 110 138 139 111
f 616 690 691 617
f 2004 2021 2023 2005
f 345 410 411 346
f 1758 1804 1805 1759
f 972 1076 1077 973
f 1876 1912 1913 1877
f 109 137 138 110
f 1505 1566 1567 1506
f 125 153 155 154
f 963 1067 1068 964
f 1990 2013 2014 1991
f 1417 1486 1487 1418
f 63 89 90 64
f 2 3 6 5
f 2010 2028 2029 2011
f 135 164 165 136
f 994 1098 1099 995
f 1985 2008 2009 1986
f 37 58 59 38
f 5 6 8 7
f 14 23 25 24
f 12 22 23 14
f 8 20 21 10
f 1705 1755 1756 1706
f 189 240 241 191
f 1776 1816 1817 1777
f 143 172 173 144
f 65 91 92 66
f 2029 2042 2043 2030
f 2031 2044 2045 2032
f 126 128 127 99
f 359 424 425 360
f 115 143 144 116
f 337 402 403 338
f 275 324 325 276
f 167 219 220 168
f 506 572 573 507
f 2027 2040 2041 2028
f 2007 2025 2026 2008
f 1235 1313 1314 1236
f 277 326 327 278
f 157 208 209 156
f 199 247 249 198
f 26 29 28 27
f 1019 1119 1120 1020
f 4 16 18 3
f 1927 1955 1956 1928
f 2028 2041 2042 2029
f 179 231 232 180
f 122 150 151 123
f 207 253 254 208
f 1783 1823 1824 1784
f 258 307 308 259
f 801 802 804 803
f 498 564 565 499
f 1666 1717 1718 1667
f 1028 1125 1126 1030
f 257 306 307 258
f 51 53 52 29
f 995 1099 1100 996
f 39 60 61 40
f 865 941 942 866
f 402 474 475 403
f 333 397 398 332
f 205 252 253 207
f 1537 1598 1599 1538
f 10 21 22 12
f 1262 1340 1341 1263
f 23 45 46 25
f 104 132 133 105
f 1106 1187 1188 1107
f 285 332 334 284
f 237 289 290 239
f 116 144 145 117
f 27 28 31 30
f 78 108 109 79
f 102 103 104 73
f 245 295 296 248
f 203 251 252 205
f 405 477 478 406
f 1958 1983 1984 1959
f 176 228 229 177
f 970 1074 1075 971
f 483 549 550 484
f 83 113 114 84
f 271 320 321 272
f 93 123 124 94
f 62 88 89 63
f 76 77 78 53
f 88 118 119 89
f 1945 1973 1974 1946
f 251 300 301 252
f 993 1097 1098 994
f 1529 1590 1591 1530
f 85 115 116 86
f 46 67 68 48
f 44 65 66 45
f 80 110 111 81
f 1530 1591 1592 1531
f 165 217 218 166
f 381 461 462 384
f 721 793 794 722
f 77 107 108 78
f 72 105 106 75
f 1513 1574 1575 1514
f 130 159 160 131
f 395 396 397 333
f 309 357 358 310
f 311 359 360 312
f 45 66 67 46
f 2013 2031 2032 2014
f 223 269 270 224
f 168 220 221 169
f 99 127 129 98
f 323 371 372 324
f 317 365 366 318
f 383 384 386 385
f 211 257 258 212
f 1853 1889 1890 1854
f 28 54 55 31
f 1522 1583 1584 1523
f 1458 1522 1523 1459
f 613 687 688 614
f 497 563 564 498
f 391 392 394 393
f 75 106 107 77
f 1581 1638 1639 1582
f 127 156 158 129
f 1060 1141 1142 1061
f 682 754 755 683
f 1833 1872 1873 1834
f 566 637 638 567
f 1521 1582 1583 1522
f 238 288 289 237
f 630 704 705 631
f 287 335 336 288
f 969 1073 1074 970
f 336 401 402 337
f 299 347 348 300
f 1042 1132 1133 1044
f 802 879 880 804
f 1105 1186 1187 1106
f 1931 1959 1960 1932
f 1659 1710 1711 1660
f 111 139 140 112
f 1044 1133 1134 1046
f 298 346 347 299
f 429 501 502 430
f 341 406 407 342
f 705 777 778 706
f 585 586 588 587
f 1379 1448 1449 1380
f 1034 1128 1129 1036
f 184 187 186 185
f 882 969 970 883
f 1904 1937 1938 1905
f 365 430 431 366
f 447 517 516 446
f 197 198 201 200
f 1115 1194 1195 1116
f 100 101 103 102
f 152 181 182 153
f 1250 1328 1329 1251
f 451 452 455 454
f 373 438 439 374
f 463 529 530 464
f 149 178 179 150
f 286 287 288 238
f 471 537 538 472
f 977 1081 1082 978
f 749 827 828 750
f 253 302 303 254
f 1026 1122 1124 1025
f 1170 1275 1276 1171
f 325 373 374 326
f 1409 1478 1479 1410
f 351 416 417 352
f 174 226 227 175
f 842 918 919 843
f 74 75 77 76
f 42 63 64 43
f 60 86 87 61
f 128 157 156 127
f 1075 1156 1157 1076
f 411 483 484 412
f 97 98 101 100
f 401 473 474 402
f 107 135 136 108
f 1329 1401 1402 1330
f 191 241 242 193
f 1538 1599 1600 1539
f 1802 1842 1843 1803
f 829 905 906 830
f 129 158 159 130
f 423 495 496 424
f 137 166 167 138
f 390 465 466 392
f 175 227 228 176
f 1092 1173 1174 1093
f 1738 1784 1785 1739
f 475 541 542 476
f 477 543 544 478
f 535 606 607 536
f 505 571 572 506
f 1203 1204 1206 1205
f 159 211 212 160
f 1777 1817 1818 1778
f 1426 1495 1496 1427
f 901 988 989 902
f 1888 1922 1921 1889
f 259 308 309 260
f 214 260 261 215
f 198 249 250 201
f 397 469 470 398
f 1050 1136 1137 1052
f 328 376 377 329
f 2012 2030 2031 2013
f 499 565 566 500
f 509 575 576 510
f 91 121 122 92
f 1076 1157 1158 1077
f 124 152 153 125
f 242 293 294 243
f 437 509 510 438
f 581 584 583 582
f 543 614 615 544
f 229 275 276 230
f 166 218 219 167
f 92 122 123 93
f 232 278 279 233
f 489 555 556 490
f 1996 2019 2020 1997
f 485 551 552 486
f 361 426 427 362
f 213 259 260 214
f 562 633 634 563
f 108 136 137 109
f 224 270 271 225
f 1978 2000 2002 1979
f 844 920 921 845
f 453 520 522 452
f 575 646 647 576
f 181 233 234 182
f 1147 1252 1253 1148
f 343 408 409 344
f 320 368 369 321
f 1594 1651 1652 1595
f 603 677 678 604
f 117 145 146 118
f 599 673 674 600
f 195 243 245 244
f 1273 1351 1352 1274
f 263 312 313 264
f 1554 1615 1616 1555
f 573 644 645 574
f 58 84 85 59
f 607 681 682 608
f 255 304 305 256
f 1124 1229 1230 1125
f 1717 1767 1768 1718
f 1181 1286 1287 1182
f 653 654 657 656
f 809 885 886 810
f 147 176 177 148
f 382 460 461 381
f 247 297 298 249
f 1546 1607 1608 1547
f 539 610 611 540
f 1125 1230 1231 1126
f 549 620 621 550
f 551 622 623 552
f 985 1089 1090 986
f 1801 1841 1842 1802
f 335 400 401 336
f 608 682 683 609
f 610 684 685 611
f 1667 1718 1719 1668
f 621 695 696 622
f 220 266 267 221
f 123 151 152 124
f 278 327 328 279
f 1066 1147 1148 1067
f 1108 1189 1190 1109
f 658 659 660 584
f 1565 1622 1623 1566
f 645 719 720 646
f 671 743 744 672
f 131 160 161 132
f 270 319 320 271
f 188 189 191 190
f 296 344 345 297
f 746 824 825 747
f 1397 1466 1467 1398
f 661 733 734 662
f 193 242 243 195
f 301 349 350 302
f 1155 1260 1261 1156
f 1058 1140 1141 1060
f 288 336 337 289
f 714 786 787 715
f 1017 1117 1118 1018
f 703 775 776 704
f 1519 1580 1581 1520
f 1219 1220 1222 1221
f 202 203 205 204
f 293 341 342 294
f 140 169 170 141
f 450 453 452 451
f 1025 1124 1125 1028
f 445 446 449 448
f 959 960 962 961
f 454 455 457 456
f 327 375 376 328
f 264 313 314 265
f 1082 1163 1164 1083
f 1357 1429 1430 1358
f 717 789 790 718
f 727 806 807 729
f 82 112 113 83
f 578 649 650 579
f 319 367 368 320
f 208 254 255 209
f 2003 2022 2021 2004
f 763 841 842 764
f 797 800 799 798
f 753 831 832 754
f 187 237 239 186
f 326 374 375 327
f 295 343 344 296
f 1156 1261 1262 1157
f 1394 1463 1464 1395
f 755 833 834 756
f 249 298 299 250
f 679 751 752 680
f 66 92 93 67
f 570 641 642 571
f 231 277 278 232
f 1793 1833 1834 1794
f 1138 1243 1244 1139
f 739 817 818 740
f 757 835 836 758
f 783 861 862 784
f 981 1085 1086 982
f 662 734 735 663
f 103 131 132 104
f 464 530 531 465
f 1322 1394 1395 1323
f 1493 1557 1558 1494
f 781 859 860 782
f 791 869 870 792
f 171 223 224 172
f 1163 1268 1269 1164
f 1822 1861 1862 1823
f 1642 1693 1694 1643
f 524 595 596 525
f 745 823 824 746
f 357 422 423 358
f 1437 1501 1502 1438
f 789 867 868 790
f 358 423 424 359
f 360 425 426 361
f 1325 1397 1398 1326
f 350 415 416 351
f 349 414 415 350
f 352 417 418 353
f 748 826 827 749
f 1963 1988 1989 1964
f 318 366 367 319
f 440 512 513 441
f 1637 1688 1689 1638
f 855 931 932 856
f 389 390 392 391
f 254 303 304 255
f 761 839 840 762
f 1586 1643 1644 1587
f 172 224 225 173
f 899 986 987 900
f 529 600 601 530
f 863 939 940 864
f 269 318 319 270
f 1251 1329 1330 1252
f 487 553 554 488
f 1204 1293 1294 1206
f 367 432 433 368
f 827 903 904 828
f 733 811 812 734
f 831 907 908 832
f 953 1062 1063 956
f 1297 1369 1370 1298
f 1146 1251 1252 1147
f 1578 1635 1636 1579
f 659 731 732 660
f 955 956 958 957
f 861 937 938 862
f 799 878 879 802
f 537 608 609 538
f 582 583 586 585
f 399 471 472 400
f 600 674 675 601
f 1562 1619 1621 1564
f 1781 1821 1822 1782
f 869 945 946 870
f 1609 1666 1667 1610
f 525 596 597 526
f 650 724 725 651
f 732 810 811 733
f 1172 1277 1278 1173
f 1946 1974 1975 1947
f 891 978 979 892
f 837 913 914 838
f 1577 1634 1635 1578
f 162 214 215 163
f 414 486 487 415
f 479 545 546 480
f 416 488 489 417
f 1380 1449 1450 1381
f 1597 1654 1655 1598
f 1697 1747 1748 1698
f 406 478 479 407
f 212 258 259 213
f 421 493 494 422
f 177 229 230 178
f 1625 1676 1677 1626
f 1365 1435 1434 1366
f 885 972 973 886
f 1047 1048 1050 1049
f 507 573 574 508
f 510 576 577 511
f 631 705 706 632
f 408 480 481 409
f 1129 1234 1235 1130
f 1043 1044 1046 1045
f 1029 1030 1032 1031
f 975 1079 1080 976
f 283 284 287 286
f 602 676 677 603
f 180 232 233 181
f 384 462 463 386
f 1316 1388 1389 1317
f 1925 1953 1954 1926
f 1037 1038 1040 1039
f 983 1087 1088 984
f 589 590 591 521
f 1283 1361 1362 1284
f 455 523 524 457
f 1602 1659 1660 1603
f 1490 1554 1555 1491
f 1901 1934 1935 1902
f 1800 1840 1841 1801
f 769 847 848 770
f 227 273 274 228
f 594 668 669 595
f 519 521 520 453
f 1236 1314 1315 1237
f 98 129 130 101
f 1067 1148 1149 1068
f 521 591 592 520
f 716 788 789 717
f 469 535 536 470
f 654 729 730 657
f 431 503 504 432
f 1817 1856 1857 1818
f 90 120 121 91
f 1003 1107 1108 1004
f 210 256 257 211
f 1103 1184 1185 1104
f 114 142 143 115
f 1267 1345 1346 1268
f 1114 1192 1194 1115
f 592 666 667 593
f 221 267 268 222
f 70 73 72 71
f 219 265 266 220
f 1199 1202 1201 1200
f 685 757 758 686
f 486 552 553 487
f 260 309 310 261
f 1220 1301 1302 1222
f 587 588 590 589
f 243 294 295 245
f 478 544 545 479
f 59 85 86 60
f 1816 1855 1856 1817
f 501 567 568 502
f 435 507 508 436
f 496 562 563 497
f 2021 2036 2035 2023
f 1591 1648 1649 1592
f 1079 1160 1161 1080
f 493 559 560 494
f 446 516 518 449
f 1569 1626 1627 1570
f 488 554 555 489
f 363 428 429 364
f 1059 1060 1061 954
f 1117 1196 1197 1118
f 1127 1232 1233 1128
f 461 527 528 462
f 618 692 693 619
f 623 697 698 624
f 1244 1322 1323 1245
f 250 299 300 251
f 1605 1662 1663 1606
f 810 886 887 811
f 1151 1256 1257 1152
f 597 671 672 598
f 1315 1387 1388 1316
f 228 274 275 229
f 584 660 661 583
f 53 78 79 52
f 25 46 48 47
f 1005 1109 1110 1006
f 1159 1264 1265 1160
f 1121 1123 1122 1026
f 1313 1385 1386 1314
f 527 598 599 528
f 1626 1677 1678 1627
f 876 964 965 878
f 158 210 211 159
f 1149 1254 1255 1150
f 1633 1684 1685 1634
f 387 388 390 389
f 726 728 727 655
f 511 577 578 512
f 536 607 608 537
f 386 463 464 388
f 1227 1305 1306 1228
f 1157 1262 1263 1158
f 377 442 443 378
f 291 339 340 292
f 1299 1371 1372 1300
f 615 689 690 616
f 1610 1667 1668 1611
f 787 865 866 788
f 1171 1276 1277 1172
f 161 213 214 162
f 1862 1898 1899 1863
f 677 749 750 678
f 550 621 622 551
f 1130 1235 1236 1131
f 1752 1798 1799 1753
f 522 593 594 523
f 334 399 400 335
f 1229 1307 1308 1230
f 1263 1341 1342 1264
f 331 333 332 285
f 1252 1330 1331 1253
f 262 311 312 263
f 568 639 640 569
f 292 340 341 293
f 1123 1227 1228 1122
f 369 434 435 370
f 542 613 614 543
f 1122 1228 1229 1124
f 560 631 632 561
f 1027 1028 1030 1029
f 1275 1353 1354 1276
f 1253 1331 1332 1254
f 1303 1375 1376 1304
f 565 636 637 566
f 646 720 721 647
f 879 966 967 880
f 528 599 600 529
f 538 609 610 539
f 462 528 529 463
f 1261 1339 1340 1262
f 1327 1399 1400 1328
f 557 628 629 558
f 634 708 709 635
f 276 325 326 277
f 472 538 539 473
f 579 650 651 580
f 1371 1440 1441 1372
f 609 683 684 610
f 1335 1407 1408 1336
f 669 741 742 670
f 1347 1419 1420 1348
f 591 665 666 592
f 344 409 410 345
f 642 716 717 643
f 1355 1427 1428 1356
f 1165 1270 1271 1166
f 785 863 864 786
f 146 175 176 147
f 626 700 701 627
f 583 661 662 586
f 96 99 98 97
f 1259 1337 1338 1260
f 1339 1411 1412 1340
f 825 901 902 826
f 1271 1349 1350 1272
f 379 382 381 380
f 1254 1332 1333 1255
f 559 630 631 560
f 728 805 806 727
f 1099 1180 1181 1100
f 598 672 673 599
f 1333 1405 1406 1334
f 1391 1460 1461 1392
f 138 167 168 139
f 1331 1403 1404 1332
f 495 561 562 496
f 1706 1756 1757 1707
f 1395 1464 1465 1396
f 534 605 606 535
f 113 141 142 114
f 1399 1468 1469 1400
f 973 1077 1078 974
f 622 696 697 623
f 324 372 373 325
f 1852 1888 1889 1853
f 778 856 857 779
f 422 494 495 423
f 614 688 689 615
f 1585 1642 1643 1586
f 590 664 665 591
f 1539 1600 1601 1540
f 457 524 525 459
f 777 855 856 778
f 315 363 364 316
f 526 597 598 527
f 743 821 822 744
f 1572 1629 1630 1573
f 794 872 873 795
f 57 83 84 58
f 683 755 756 684
f 1439 1503 1504 1440
f 637 711 712 638
f 1698 1748 1749 1699
f 1226 1304 1305 1227
f 720 792 793 721
f 1179 1284 1285 1180
f 798 799 802 801
f 1389 1458 1459 1390
f 1463 1527 1528 1464
f 629 703 704 630
f 1387 1456 1457 1388
f 655 727 729 654
f 1969 1994 1995 1970
f 563 634 635 564
f 1651 1702 1703 1652
f 322 370 371 323
f 1471 1535 1536 1472
f 605 679 680 606
f 665 737 738 666
f 647 721 722 648
f 1340 1412 1413 1341
f 1710 1760 1761 1711
f 1507 1568 1569 1508
f 417 489 490 418
f 1665 1716 1717 1666
f 533 604 605 534
f 782 860 861 783
f 735 813 814 736
f 1897 1930 1931 1898
f 1811 1850 1849 1810
f 1483 1547 1548 1484
f 1341 1413 1414 1342
f 1407 1476 1477 1408
f 355 420 421 356
f 722 794 795 723
f 1162 1267 1268 1163
f 872 948 949 873
f 954 1061 1062 953
f 862 938 939 863
f 1461 1525 1526 1462
f 1681 1731 1732 1682
f 1065 1146 1147 1066
f 686 758 759 687
f 348 413 414 349
f 1324 1396 1397 1325
f 1939 1967 1968 1940
f 806 882 883 807
f 1469 1533 1534 1470
f 1023 1026 1025 1024
f 813 889 890 814
f 678 750 751 679
f 1154 1259 1260 1155
f 696 768 769 697
f 1074 1155 1156 1075
f 694 766 767 695
f 393 394 396 395
f 339 404 405 340
f 774 852 853 775
f 52 79 80 54
f 1501 1563 1562 1502
f 688 760 761 689
f 332 398 399 334
f 1090 1171 1172 1091
f 1555 1616 1617 1556
f 1525 1586 1587 1526
f 1386 1455 1456 1387
f 709 781 782 710
f 674 746 747 675
f 719 791 792 720
f 664 736 737 665
f 1731 1777 1778 1732
f 1014 1114 1115 1015
f 1533 1594 1595 1534
f 1366 1434 1436 1367
f 701 773 774 702
f 1419 1488 1489 1420
f 711 783 784 712
f 792 870 871 793
f 1218 1300 1301 1220
f 1643 1694 1695 1644
f 465 531 532 466
f 306 354 355 307
f 805 881 882 806
f 1401 1470 1471 1402
f 687 759 760 688
f 1674 1724 1725 1675
f 380 381 384 383
f 1635 1686 1687 1636
f 1477 1541 1542 1478
f 1761 1807 1808 1762
f 186 239 240 189
f 942 1016 1017 943
f 1178 1283 1284 1179
f 1420 1489 1490 1421
f 1234 1312 1313 1235
f 1619 1672 1671 1621
f 1145 1250 1251 1146
f 433 505 506 434
f 403 475 476 404
f 1403 1472 1473 1404
f 444 447 446 445
f 1849 1887 1886 1851
f 460 526 527 461
f 1158 1263 1264 1159
f 546 617 618 547
f 1543 1604 1605 1544
f 178 230 231 179
f 750 828 829 751
f 1601 1658 1659 1602
f 864 940 941 865
f 1354 1426 1427 1355
f 1094 1175 1176 1095
f 81 111 112 82
f 1663 1714 1715 1664
f 965 1069 1070 966
f 742 820 821 743
f 951 954 953 952
f 1356 1428 1429 1357
f 596 670 671 597
f 982 1086 1087 983
f 1645 1696 1697 1646
f 1671 1721 1723 1673
f 371 436 437 372
f 718 790 791 719
f 364 429 430 365
f 768 846 847 769
f 1979 2002 2003 1980
f 1570 1627 1628 1571
f 1677 1727 1728 1678
f 1685 1735 1736 1686
f 760 838 839 761
f 775 853 854 776
f 190 191 193 192
f 233 279 280 234
f 773 851 852 774
f 690 762 763 691
f 767 845 846 768
f 856 932 933 857
f 268 317 318 269
f 1085 1166 1167 1086
f 569 640 641 570
f 1703 1753 1754 1704
f 765 843 844 766
f 1459 1523 1524 1460
f 1593 1650 1651 1594
f 1690 1740 1741 1691
f 1715 1765 1766 1716
f 1779 1819 1820 1780
f 1621 1671 1673 1622
f 1735 1781 1782 1736
f 741 819 820 742
f 1345 1417 1418 1346
f 871 947 948 872
f 1412 1481 1482 1413
f 547 618 619 548
f 1486 1550 1551 1487
f 289 337 338 290
f 1743 1789 1790 1744
f 957 958 960 959
f 918 1005 1006 919
f 1210 1296 1297 1212
f 1682 1732 1733 1683
f 1514 1575 1576 1515
f 1446 1510 1511 1447
f 1741 1787 1788 1742
f 873 949 950 874
f 218 264 265 219
f 1443 1507 1508 1444
f 815 891 892 816
f 1160 1265 1266 1161
f 1036 1129 1130 1038
f 1382 1451 1452 1383
f 1749 1795 1796 1750
f 1679 1729 1730 1680
f 491 557 558 492
f 822 898 899 823
f 1202 1292 1291 1201
f 1396 1465 1466 1397
f 1634 1685 1686 1635
f 740 818 819 741
f 410 482 483 411
f 1217 1218 1220 1219
f 1089 1170 1171 1090
f 814 890 891 815
f 1511 1572 1573 1512
f 832 908 909 833
f 1164 1269 1270 1165
f 1827 1866 1867 1828
f 1789 1829 1830 1790
f 1815 1854 1855 1816
f 1053 1054 1056 1055
f 910 997 998 911
f 396 468 469 397
f 824 900 901 825
f 1650 1701 1702 1651
f 1582 1639 1640 1583
f 1813 1852 1853 1814
f 145 174 175 146
f 419 491 492 420
f 706 778 779 707
f 847 923 924 848
f 800 876 878 799
f 812 888 889 813
f 839 915 916 840
f 736 814 815 737
f 1821 1860 1861 1822
f 853 929 930 854
f 807 883 884 808
f 1762 1808 1809 1763
f 845 921 922 846
f 1855 1891 1892 1856
f 1491 1555 1556 1492
f 751 829 830 752
f 1889 1921 1923 1890
f 1452 1516 1517 1453
f 1915 1948 1949 1916
f 1161 1266 1267 1162
f 1879 1915 1916 1880
f 909 996 997 910
f 698 770 771 699
f 639 713 714 640
f 1444 1508 1509 1445
f 1786 1826 1827 1787
f 1859 1895 1896 1860
f 1757 1803 1804 1758
f 1895 1928 1929 1896
f 459 525 526 460
f 1246 1324 1325 1247
f 492 558 559 493
f 1865 1901 1902 1866
f 1834 1873 1874 1835
f 1907 1940 1941 1908
f 1177 1282 1283 1178
f 553 624 625 554
f 1045 1046 1048 1047
f 1475 1539 1540 1476
f 452 522 523 455
f 1000 1104 1105 1001
f 1588 1645 1646 1589
f 1891 1924 1925 1892
f 209 255 256 210
f 1823 1862 1863 1824
f 234 280 281 235
f 886 973 974 887
f 943 1017 1018 944
f 1778 1818 1819 1779
f 1874 1910 1911 1875
f 1734 1780 1781 1735
f 1877 1913 1914 1878
f 1967 1992 1993 1968
f 893 980 981 894
f 878 965 966 879
f 1378 1447 1448 1379
f 896 983 984 897
f 999 1103 1104 1000
f 888 975 976 889
f 1906 1939 1940 1907
f 1662 1713 1714 1663
f 1893 1926 1927 1894
f 1983 2006 2007 1984
f 226 272 273 227
f 854 930 931 855
f 1298 1370 1371 1299
f 992 1096 1097 993
f 1724 1769 1771 1725
f 1542 1603 1604 1543
f 1249 1327 1328 1250
f 919 1006 1007 920
f 1730 1776 1777 1731
f 1933 1961 1962 1934
f 903 990 991 904
f 1930 1958 1959 1931
f 1973 1998 1999 1974
f 467 533 534 468
f 991 1095 1096 992
f 1388 1457 1458 1389
f 1981 2004 2005 1982
f 941 1015 1016 942
f 1242 1320 1321 1243
f 788 866 867 789
f 593 667 668 594
f 917 1004 1005 918
f 484 550 551 485
f 2026 2039 2040 2027
f 482 548 549 483
f 1278 1356 1357 1279
f 43 64 65 44
f 481 547 548 482
f 790 868 869 791
f 1476 1540 1541 1477
f 1878 1914 1915 1879
f 30 31 33 32
f 2023 2035 2037 2024
f 877 963 964 876
f 1531 1592 1593 1532
f 1689 1739 1740 1690
f 1714 1764 1765 1715
f 67 93 94 68
f 20 42 43 21
f 22 44 45 23
f 32 33 35 34
f 821 897 898 822
f 1369 1438 1439 1370
f 1183 1288 1289 1184
f 1152 1257 1258 1153
f 163 215 216 164
f 15 17 16 4
f 577 648 649 578
f 16 39 40 18
f 693 765 766 694
f 1078 1159 1160 1079
f 468 534 535 469
f 1460 1524 1525 1461
f 139 168 169 140
f 55 81 82 56
f 54 80 81 55
f 1737 1783 1784 1738
f 1872 1908 1909 1873
f 786 864 865 787
f 967 1071 1072 968
f 968 1072 1073 969
f 173 225 226 174
f 47 48 50 49
f 86 116 117 87
f 1991 2014 2015 1992
f 1434 1500 1499 1436
f 974 1078 1079 975
f 1055 1056 1058 1057
f 960 1065 1066 962
f 1964 1989 1990 1965
f 1966 1991 1992 1967
f 94 124 125 95
f 1753 1799 1800 1754
f 1091 1172 1173 1092
f 966 1070 1071 967
f 1658 1709 1710 1659
f 771 849 850 772
f 1070 1151 1152 1071
f 1031 1032 1034 1033
f 936 1009 1011 937
f 307 355 356 308
f 1838 1877 1878 1839
f 1233 1311 1312 1234
f 541 612 613 542
f 68 94 95 69
f 267 316 317 268
f 121 149 150 122
f 738 816 817 739
f 1881 1917 1918 1882
f 215 261 262 216
f 144 173 174 145
f 1563 1620 1619 1562
f 1516 1577 1578 1517
f 84 114 115 85
f 200 201 203 202
f 730 808 809 731
f 1508 1569 1570 1509
f 196 199 198 197
f 160 212 213 161
f 1238 1316 1317 1239
f 1144 1249 1250 1145
f 148 177 178 149
f 841 917 918 842
f 297 345 346 298
f 1547 1608 1609 1548
f 1071 1152 1153 1072
f 1492 1556 1557 1493
f 347 412 413 348
f 303 351 352 304
f 38 59 60 39
f 1140 1245 1246 1141
f 1265 1343 1344 1266
f 1046 1134 1135 1048
f 1207 1208 1210 1209
f 1048 1135 1136 1050
f 989 1093 1094 990
f 239 290 291 240
f 530 601 602 531
f 240 291 292 241
f 1205 1206 1208 1207
f 1038 1130 1131 1040
f 1063 1144 1145 1064
f 1040 1131 1132 1042
f 1864 1900 1901 1865
f 204 205 207 206
f 779 857 858 780
f 248 296 297 247
f 1069 1150 1151 1070
f 1006 1110 1111 1007
f 564 635 636 565
f 1136 1241 1242 1137
f 427 499 500 428
f 1854 1890 1891 1855
f 561 632 633 562
f 425 497 498 426
f 1061 1142 1143 1062
f 754 832 833 755
f 1641 1692 1693 1642
f 1754 1800 1801 1755
f 1994 2017 2018 1995
f 41 62 63 42
f 206 207 208 157
f 280 329 330 281
f 1153 1258 1259 1154
f 1595 1652 1653 1596
f 1175 1280 1281 1176
f 1548 1609 1610 1549
f 9 10 12 11
f 436 508 509 437
f 1281 1359 1360 1282
f 304 352 353 305
f 1293 1365 1366 1294
f 1746 1792 1793 1747
f 300 348 349 301
f 385 386 388 387
f 312 360 361 313
f 1402 1471 1472 1403
f 1385 1454 1455 1386
f 500 566 567 501
f 1744 1790 1791 1745
f 222 268 269 223
f 1101 1182 1183 1102
f 1095 1176 1177 1096
f 1940 1968 1969 1941
f 230 276 277 231
f 1093 1174 1175 1094
f 1087 1168 1169 1088
f 772 850 851 773
f 246 248 247 199
f 1013 1112 1114 1014
f 1167 1272 1273 1168
f 635 709 710 636
f 554 625 626 555
f 284 334 335 287
f 1769 1811 1810 1771
f 1713 1763 1764 1714
f 1230 1308 1309 1231
f 1274 1352 1353 1275
f 1532 1593 1594 1533
f 803 804 805 728
f 567 638 639 568
f 294 342 343 295
f 256 305 306 257
f 571 642 643 572
f 1579 1636 1637 1580
f 556 627 628 557
f 1112 1193 1192 1114
f 715 787 788 716
f 503 569 570 504
f 302 350 351 303
f 120 148 149 121
f 681 753 754 682
f 1118 1197 1198 1119
f 1266 1344 1345 1267
f 1104 1185 1186 1105
f 699 771 772 700
f 407 479 480 408
f 313 361 362 314
f 376 441 442 377
f 1277 1355 1356 1278
f 1102 1183 1184 1103
f 1503 1564 1565 1504
f 1080 1161 1162 1081
f 531 602 603 532
f 340 405 406 341
f 673 745 746 674
f 273 322 323 274
f 555 626 627 556
f 1222 1302 1303 1224
f 540 611 612 541
f 1016 1116 1117 1017
f 859 935 936 860
f 695 767 768 696
f 366 431 432 367
f 400 472 473 401
f 1141 1246 1247 1142
f 770 848 849 771
f 1143 1248 1249 1144
f 952 953 956 955
f 843 919 920 844
f 428 500 501 429
f 374 439 440 375
f 424 496 497 425
f 1133 1238 1239 1134
f 1627 1678 1679 1628
f 1135 1240 1241 1136
f 1033 1034 1036 1035
f 819 895 896 820
f 420 492 493 421
f 342 407 408 343
f 432 504 505 433
f 1269 1347 1348 1270
f 762 840 841 763
f 1215 1216 1218 1217
f 1296 1368 1369 1297
f 404 476 477 405
f 939 1013 1014 940
f 857 933 934 858
f 1527 1588 1589 1528
f 1842 1881 1882 1843
f 823 899 900 824
f 456 457 459 458
f 1611 1668 1669 1612
f 1176 1281 1282 1177
f 759 837 838 760
f 504 570 571 505
f 1182 1287 1288 1183
f 1844 1883 1884 1845
f 663 735 736 664
f 310 358 359 311
f 512 578 579 513
f 290 338 339 291
f 1174 1279 1280 1175
f 1015 1115 1116 1016
f 1280 1358 1359 1281
f 987 1091 1092 988
f 415 487 488 416
f 586 662 663 588
f 849 925 926 850
f 611 685 686 612
f 1150 1255 1256 1151
f 588 663 664 590
f 1794 1834 1835 1795
f 6 19 20 8
f 1039 1040 1042 1041
f 430 502 503 431
f 1268 1346 1347 1269
f 274 323 324 275
f 1086 1167 1168 1087
f 1657 1708 1709 1658
f 1612 1669 1670 1613
f 907 994 995 908
f 895 982 983 896
f 305 353 354 306
f 576 647 648 577
f 1573 1630 1631 1574
f 958 1064 1065 960
f 1351 1423 1424 1352
f 1961 1986 1987 1962
f 875 877 876 800
f 1750 1796 1797 1751
f 470 536 537 471
f 656 657 659 658
f 595 669 670 596
f 670 742 743 671
f 1370 1439 1440 1371
f 1440 1504 1505 1441
f 1077 1158 1159 1078
f 548 619 620 549
f 494 560 561 495
f 552 623 624 553
f 1245 1323 1324 1246
f 150 179 180 151
f 1247 1325 1326 1248
f 1596 1653 1654 1597
f 1139 1244 1245 1140
f 1223 1224 1226 1225
f 502 568 569 503
f 520 592 593 522
f 1237 1315 1316 1238
f 850 926 927 851
f 1239 1317 1318 1240
f 1256 1334 1335 1257
f 666 738 739 667
f 1899 1932 1933 1900
f 625 699 700 626
f 1825 1864 1865 1826
f 438 510 511 439
f 1173 1278 1279 1174
f 164 216 217 165
f 1343 1415 1416 1344
f 1248 1326 1327 1249
f 1243 1321 1322 1244
f 935 1010 1009 936
f 558 629 630 559
f 1068 1149 1150 1069
f 1221 1222 1224 1223
f 1923 1950 1952 1924
f 1314 1386 1387 1315
f 1224 1303 1304 1226
f 1323 1395 1396 1324
f 612 686 687 613
f 185 186 189 188
f 833 909 910 834
f 643 717 718 644
f 1358 1430 1431 1359
f 620 694 695 621
f 1810 1849 1851 1812
f 1307 1379 1380 1308
f 1295 1367 1368 1296
f 617 691 692 618
f 680 752 753 681
f 1225 1226 1227 1123
f 1553 1614 1615 1554
f 1306 1378 1379 1307
f 1652 1703 1704 1653
f 1291 1363 1365 1293
f 708 780 781 709
f 606 680 681 607
f 704 776 777 705
f 1413 1482 1483 1414
f 1691 1741 1742 1692
f 1495 1559 1560 1496
f 1913 1946 1947 1914
f 1211 1212 1214 1213
f 700 772 773 701
f 192 193 195 194
f 712 784 785 713
f 458 459 460 382
f 1473 1537 1538 1474
f 604 678 679 605
f 1424 1493 1494 1425
f 1467 1531 1532 1468
f 684 756 757 685
f 638 712 713 639
f 473 539 540 474
f 1317 1389 1390 1318
f 1510 1571 1572 1511
f 1319 1391 1392 1320
f 1636 1687 1688 1637
f 1451 1515 1516 1452
f 1423 1492 1493 1424
f 1305 1377 1378 1306
f 648 722 723 649
f 1309 1381 1382 1310
f 1675 1725 1726 1676
f 1311 1383 1384 1312
f 1328 1400 1401 1329
f 1515 1576 1577 1516
f 1367 1436 1437 1368
f 574 645 646 575
f 776 854 855 777
f 1405 1474 1475 1406
f 1334 1406 1407 1335
f 1279 1357 1358 1280
f 1320 1392 1393 1321
f 338 403 404 339
f 1326 1398 1399 1327
f 1330 1402 1403 1331
f 1416 1485 1486 1417
f 1523 1584 1585 1524
f 1255 1333 1334 1256
f 1321 1393 1394 1322
f 784 862 863 785
f 691 763 764 692
f 1302 1374 1375 1303
f 660 732 733 661
f 1826 1865 1866 1827
f 1603 1660 1661 1604
f 911 998 999 912
f 1107 1188 1189 1108
f 752 830 831 753
f 667 739 740 668
f 818 894 895 819
f 1673 1723 1724 1674
f 1684 1734 1735 1685
f 1587 1644 1645 1588
f 89 119 120 90
f 153 182 183 155
f 816 892 893 817
f 314 362 363 315
f 1723 1770 1769 1724
f 1487 1551 1552 1488
f 1818 1857 1858 1819
f 1571 1628 1629 1572
f 1318 1390 1391 1319
f 734 812 813 735
f 840 916 917 841
f 675 747 748 676
f 817 893 894 818
f 636 710 711 637
f 1736 1782 1783 1737
f 1411 1480 1481 1412
f 1109 1190 1191 1110
f 758 836 837 759
f 848 924 925 849
f 1381 1450 1451 1382
f 1502 1562 1564 1503
f 1383 1452 1453 1384
f 1668 1719 1720 1669
f 182 234 235 183
f 828 904 905 829
f 766 844 845 767
f 1041 1042 1044 1043
f 1373 1442 1443 1374
f 1707 1757 1758 1708
f 1375 1444 1445 1376
f 1392 1461 1462 1393
f 627 701 702 628
f 1695 1745 1746 1696
f 1785 1825 1826 1786
f 441 513 514 442
f 1349 1421 1422 1350
f 1398 1467 1468 1399
f 1479 1543 1544 1480
f 1384 1453 1454 1385
f 1699 1749 1750 1700
f 1639 1690 1691 1640
f 1353 1425 1426 1354
f 1857 1893 1894 1858
f 1860 1896 1897 1861
f 912 999 1000 913
f 354 419 420 355
f 1390 1459 1460 1391
f 1346 1418 1419 1347
f 1360 1432 1433 1361
f 1795 1835 1836 1796
f 892 979 980 893
f 830 906 907 831
f 225 271 272 226
f 723 795 796 724
f 1494 1558 1559 1495
f 692 764 765 693
f 1304 1376 1377 1305
f 1875 1911 1912 1876
f 1839 1878 1879 1840
f 838 914 915 839
f 1024 1025 1028 1027
f 1137 1242 1243 1138
f 834 910 911 835
f 1338 1410 1411 1339
f 1716 1766 1767 1717
f 938 1012 1013 939
f 1004 1108 1109 1005
f 329 377 378 330
f 976 1080 1081 977
f 1549 1610 1611 1550
f 1771 1810 1812 1772
f 2024 2037 2038 2025
f 1929 1957 1958 1930
f 1843 1882 1883 1844
f 996 1100 1101 997
f 870 946 947 871
f 984 1088 1089 985
f 707 779 780 708
f 1739 1785 1786 1740
f 676 748 749 677
f 1568 1625 1626 1569
f 1683 1733 1734 1684
f 980 1084 1085 981
f 894 981 982 895
f 881 968 969 882
f 1453 1517 1518 1454
f 1814 1853 1854 1815
f 1455 1519 1520 1456
f 1914 1947 1948 1915
f 2011 2029 2030 2012
f 2015 2033 2034 2016
f 902 989 990 903
f 118 146 147 119
f 1445 1509 1510 1446
f 1747 1793 1794 1748
f 1447 1511 1512 1448
f 1464 1528 1529 1465
f 2030 2043 2044 2031
f 1935 1963 1964 1936
f 1337 1409 1410 1338
f 1056 1139 1140 1058
f 1541 1602 1603 1542
f 1470 1534 1535 1471
f 1415 1484 1485 1416
f 1456 1520 1521 1457
f 370 435 436 371
f 1462 1526 1527 1463
f 1359 1431 1432 1360
f 1552 1613 1614 1553
f 793 871 872 794
f 1807 1847 1848 1808
f 846 922 923 847
f 1064 1145 1146 1065
f 747 825 826 748
f 1438 1502 1503 1439
f 1231 1309 1310 1232
f 1866 1902 1903 1867
f 119 147 148 120
f 997 1101 1102 998
f 710 782 783 711
f 961 962 963 877
f 362 427 428 363
f 1374 1443 1444 1375
f 887 974 975 888
f 1748 1794 1795 1749
f 132 161 162 133
f 136 165 166 137
f 990 1094 1095 991
f 1096 1177 1178 1097
f 142 171 172 143
f 1803 1843 1844 1804
f 375 440 441 376
f 1858 1894 1895 1859
f 279 328 329 280
f 1300 1372 1373 1301
f 321 369 370 322
f 1200 1201 1204 1203
f 731 809 810 732
f 1441 1505 1506 1442
f 1270 1348 1349 1271
f 1728 1774 1775 1729
f 151 180 181 152
f 1132 1237 1238 1133
f 1030 1126 1127 1032
f 1128 1233 1234 1129
f 1517 1578 1579 1518
f 1646 1697 1698 1647
f 1308 1380 1381 1309
f 1732 1778 1779 1733
f 388 464 465 390
f 1116 1195 1196 1117
f 1054 1138 1139 1056
f 1873 1909 1910 1874
f 1509 1570 1571 1510
f 946 1020 1021 947
f 1012 1113 1112 1013
f 1528 1589 1590 1529
f 1310 1382 1383 1311
f 272 321 322 273
f 1062 1143 1144 1063
f 1072 1153 1154 1073
f 657 730 731 659
f 216 262 263 217
f 920 1007 1008 921
f 1485 1549 1550 1486
f 1534 1595 1596 1535
f 1607 1664 1665 1608
f 1520 1581 1582 1521
f 252 301 302 253
f 1 4 3 2
f 998 1102 1103 999
f 1938 1966 1967 1939
f 1421 1490 1491 1422
f 1526 1587 1588 1527
f 1841 1880 1881 1842
f 1496 1560 1561 1497
f 308 356 357 309
f 1180 1285 1286 1181
f 1126 1231 1232 1127
f 217 263 264 218
f 1301 1373 1374 1302
f 1638 1689 1690 1639
f 764 842 843 765
f 1882 1918 1919 1883
f 316 364 365 317
f 392 466 467 394
f 1134 1239 1240 1135
f 1240 1318 1319 1241
f 601 675 676 602
f 866 942 943 867
f 1775 1815 1816 1776
f 1788 1828 1829 1789
f 412 484 485 413
f 1292 1364 1363 1291
f 649 723 724 650
f 1264 1342 1343 1265
f 1701 1751 1752 1702
f 1835 1874 1875 1836
f 523 594 595 524
f 1632 1683 1684 1633
f 372 437 438 373
f 1276 1354 1355 1277
f 1166 1271 1272 1167
f 1272 1350 1351 1273
f 442 514 515 443
f 858 934 935 859
f 756 834 835 757
f 1780 1820 1821 1781
f 356 421 422 357
f 1260 1338 1339 1261
f 1206 1294 1295 1208
f 905 992 993 906
f 1214 1298 1299 1216
f 1589 1646 1647 1590
f 1806 1846 1847 1807
f 1583 1640 1641 1584
f 1712 1762 1763 1713
f 236 238 237 187
f 544 615 616 545
f 1377 1446 1447 1378
f 1216 1299 1300 1218
f 1083 1164 1165 1084
f 1819 1858 1859 1820
f 1551 1612 1613 1552
f 1772 1812 1813 1773
f 532 603 604 533
f 480 546 547 481
f 1142 1247 1248 1143
f 1336 1408 1409 1337
f 1693 1743 1744 1694
f 1606 1663 1664 1607
f 266 315 316 267
f 1608 1665 1666 1609
f 508 574 575 509
f 368 433 434 369
f 1393 1462 1463 1394
f 1344 1416 1417 1345
f 394 467 468 396
f 1598 1655 1656 1599
f 804 880 881 805
f 1592 1649 1650 1593
f 1830 1869 1870 1831
f 112 140 141 113
f 1427 1496 1497 1428
f 897 984 985 898
f 811 887 888 812
f 1574 1631 1632 1575
f 1049 1050 1052 1051
f 1704 1754 1755 1705
f 652 655 654 653
f 33 56 57 35
f 633 707 708 634
f 1376 1445 1446 1377
f 1257 1335 1336 1258
f 898 985 986 899
f 1759 1805 1806 1760
f 1898 1931 1932 1899
f 668 740 741 669
f 1428 1497 1498 1429
f 1213 1214 1216 1215
f 1400 1469 1470 1401
f 1820 1859 1860 1821
f 780 858 859 781
f 644 718 719 645
f 744 822 823 745
f 1342 1414 1415 1343
f 1408 1477 1478 1409
f 1845 1884 1885 1846
f 1867 1903 1904 1868
f 1655 1706 1707 1656
f 1890 1923 1924 1891
f 628 702 703 629
f 1404 1473 1474 1405
f 1350 1422 1423 1351
f 1905 1938 1939 1906
f 795 873 874 796
f 890 977 978 891
f 1647 1698 1699 1648
f 2008 2026 2027 2009
f 476 542 543 477
f 808 884 885 809
f 353 418 419 354
f 1352 1424 1425 1353
f 1661 1712 1713 1662
f 1798 1838 1839 1799
f 1751 1797 1798 1752
f 1804 1844 1845 1805
f 439 511 512 440
f 398 470 471 399
f 1294 1366 1367 1295
f 1921 1951 1950 1923
f 1653 1704 1705 1654
f 1851 1886 1888 1852
f 1418 1487 1488 1419
f 1680 1730 1731 1681
f 1787 1827 1828 1788
f 632 706 707 633
f 1406 1475 1476 1407
f 1480 1544 1545 1481
f 1629 1680 1681 1630
f 1686 1736 1737 1687
f 836 912 913 837
f 1672 1722 1721 1671
f 619 693 694 620
f 1468 1532 1533 1469
f 1414 1483 1484 1415
f 913 1000 1001 914
f 434 506 507 435
f 201 250 251 203
f 1512 1573 1574 1513
f 851 927 928 852
f 1678 1728 1729 1679
f 1410 1479 1480 1411
f 1648 1699 1700 1649
f 860 936 937 861
f 944 1018 1019 945
f 1454 1518 1519 1455
f 1536 1597 1598 1537
f 1169 1274 1275 1170
f 1790 1830 1831 1791
f 64 90 91 65
f 1576 1633 1634 1577
f 964 1068 1069 965
f 880 967 968 881
f 1755 1801 1802 1756
f 1544 1605 1606 1545
f 1837 1876 1877 1838
f 914 1001 1002 915
f 820 896 897 821
f 1448 1512 1513 1449
f 940 1014 1015 941
f 1540 1601 1602 1541
f 1478 1542 1543 1479
f 945 1019 1020 946
f 835 911 912 836
f 1282 1360 1361 1283
f 1727 1773 1774 1728
f 1168 1273 1274 1169
f 908 995 996 909
f 1088 1169 1170 1089
f 826 902 903 827
f 1488 1552 1553 1489
f 1733 1779 1780 1734
f 906 993 994 907
f 1711 1761 1762 1712
f 624 698 699 625
f 1599 1656 1657 1600
f 1032 1127 1128 1034
f 1100 1181 1182 1101
f 737 815 816 738
f 1624 1675 1676 1625
f 1725 1771 1772 1726
f 409 481 482 410
f 1687 1737 1738 1688
f 1986 2009 2010 1987
f 1084 1165 1166 1085
f 904 991 992 905
f 1422 1491 1492 1423
f 1600 1657 1658 1601
f 1829 1868 1869 1830
f 1883 1919 1920 1884
f 1631 1682 1683 1632
f 413 485 486 414
f 641 715 716 642
f 640 714 715 641
f 1425 1494 1495 1426
f 937 1011 1012 938
f 426 498 499 427
f 17 38 39 16
f 868 944 945 869
f 141 170 171 142
f 1148 1253 1254 1149
f 1232 1310 1311 1233
f 1550 1611 1612 1551
f 1664 1715 1716 1665
f 883 970 971 884
f 1258 1336 1337 1259
f 1729 1775 1776 1730
f 1081 1162 1163 1082
f 1131 1236 1237 1132
f 1700 1750 1751 1701
f 169 221 222 170
f 1688 1738 1739 1689
f 418 490 491 419
f 1726 1772 1773 1727
f 1911 1944 1945 1912
f 1590 1647 1648 1591
f 1692 1742 1743 1693
f 1696 1746 1747 1697
f 134 163 164 135
f 1654 1705 1706 1655
f 1506 1567 1568 1507
f 106 134 135 107
f 1228 1306 1307 1229
f 1676 1726 1727 1677
f 1622 1673 1674 1623
f 1937 1965 1966 1938
f 867 943 944 868
f 1518 1579 1580 1519
f 1799 1839 1840 1800
f 1892 1925 1926 1893
f 1212 1297 1298 1214
f 1368 1437 1438 1369
f 1630 1681 1682 1631
f 1640 1691 1692 1641
f 1805 1845 1846 1806
f 729 807 808 730
f 1791 1831 1832 1792
f 18 40 41 19
f 1052 1137 1138 1054
f 1312 1384 1385 1313
f 697 769 770 698
f 1953 1978 1979 1954
f 1797 1837 1838 1798
f 1950 1977 1976 1952
f 1903 1936 1937 1904
f 1968 1993 1994 1969
f 1567 1624 1625 1568
f 1184 1289 1290 1185
f 1566 1623 1624 1567
f 1580 1637 1638 1581
f 1773 1813 1814 1774
f 1372 1441 1442 1373
f 1694 1744 1745 1695
f 889 976 977 890
f 1709 1759 1760 1710
f 1018 1118 1119 1019
f 1450 1514 1515 1451
f 1868 1904 1905 1869
f 1348 1420 1421 1349
f 1740 1786 1787 1741
f 1702 1752 1753 1703
f 1623 1674 1675 1624
f 947 1021 1022 948
f 1649 1700 1701 1650
f 900 987 988 901
f 1832 1871 1872 1833
f 1436 1499 1501 1437
f 1504 1565 1566 1505
f 1457 1521 1522 1458
f 1840 1879 1880 1841
f 1201 1291 1293 1204
f 156 209 210 158
f 1442 1506 1507 1443
f 1824 1863 1864 1825
f 1524 1585 1586 1525
f 1836 1875 1876 1837
f 1742 1788 1789 1743
f 1856 1892 1893 1857
f 2005 2023 2024 2006
f 1942 1970 1971 1943
f 56 82 83 57
f 1792 1832 1833 1793
f 1556 1617 1618 1557
f 1828 1867 1868 1829
f 1774 1814 1815 1775
f 1954 1979 1980 1955
f 1564 1621 1622 1565
f 1812 1851 1852 1813
f 1782 1822 1823 1783
f 513 579 580 514
f 915 1002 1003 916
f 962 1066 1067 963
f 884 971 972 885
f 1932 1960 1961 1933
f 1332 1404 1405 1333
f 1656 1707 1708 1657
f 1449 1513 1514 1450
f 1784 1824 1825 1785
f 1869 1905 1906 1870
f 1971 1996 1997 1972
f 1871 1907 1908 1872
f 1993 2016 2017 1994
f 1660 1711 1712 1661
f 1584 1641 1642 1585
f 689 761 762 690
f 1912 1945 1946 1913
f 1861 1897 1898 1862
f 1545 1606 1607 1546
f 1863 1899 1900 1864
f 1960 1985 1986 1961
f 1644 1695 1696 1645
f 1472 1536 1537 1473
f 1465 1529 1530 1466
f 1628 1679 1680 1629
f 1098 1179 1180 1099
f 1928 1956 1957 1929
f 1989 2012 2013 1990
f 87 117 118 88
f 1831 1870 1871 1832
f 1908 1941 1942 1909
f 1708 1758 1759 1709
f 1208 1295 1296 1210
f 105 133 134 106
f 265 314 315 266
f 474 540 541 475
f 1955 1980 1981 1956
f 1466 1530 1531 1467
f 170 222 223 171
f 1796 1836 1837 1797
f 73 104 105 72
f 1894 1927 1928 1895
f 1970 1995 1996 1971
f 1051 1052 1054 1053
f 1910 1943 1944 1911
f 956 1063 1064 958
f 1896 1929 1930 1897
f 346 411 412 347
f 1575 1632 1633 1576
f 1902 1935 1936 1903
f 1980 2003 2004 1981
f 1756 1802 1803 1757
f 1988 2011 2012 1989
f 1926 1954 1955 1927
f 133 162 163 134
f 466 532 533 467
f 1870 1906 1907 1871
f 1745 1791 1792 1746
f 1952 1976 1978 1953
f 1604 1661 1662 1605
f 1001 1105 1106 1002
f 1934 1962 1963 1935
f 1956 1981 1982 1957
f 1484 1548 1549 1485
f 978 1082 1083 979
f 48 68 69 50
f 1944 1972 1973 1945
f 672 744 745 673
f 1972 1997 1998 1973
f 713 785 786 714
f 1962 1987 1988 1963
f 1965 1990 1991 1966
f 1880 1916 1917 1881
f 282 285 284 283
f 572 643 644 573
f 1209 1210 1212 1211
f 1035 1036 1038 1037
f 1002 1106 1107 1003
f 916 1003 1004 917
f 1976 2001 2000 1978
f 852 928 929 853
f 1073 1154 1155 1074
f 1982 2005 2006 1983
f 1936 1964 1965 1937
f 1957 1982 1983 1958
f 36 37 38 17
f 1959 1984 1985 1960
f 1984 2007 2008 1985
f 1924 1952 1953 1925
f 241 292 293 242
f 7 8 10 9
f 2009 2027 2028 2010
f 1987 2010 2011 1988
f 35 57 58 37
f 1941 1969 1970 1942
f 1995 2018 2019 1996
f 1943 1971 1972 1944
f 1992 2015 2016 1993
f 1900 1933 1934 1901
f 21 43 44 22
f 31 55 56 33
f 34 35 37 36
f 1909 1942 1943 1910
f 2006 2024 2025 2007
f 40 61 62 41
f 490 556 557 491
f 1482 1546 1547 1483
f 1760 1806 1807 1761
f 1097 1178 1179 1098
f 29 52 54 28
f 71 72 75 74
f 11 12 14 13
f 979 1083 1084 980
f 79 109 110 80
f 988 1092 1093 989
f 1535 1596 1597 1536
f 2032 2045 2046 2033
