# exported by blender_batch_chars_to_s.py fallback
v 0.374589 -0.144175 0.000000
v 0.380094 -0.143366 0.000000
v 0.380382 -0.150382 0.044889
v 0.373748 -0.150616 0.000000
v 0.386130 -0.144199 0.000000
v 0.389561 -0.150792 0.000000
v 0.803965 -0.144169 0.000000
v 0.810626 -0.143161 0.000000
v 0.810076 -0.150346 0.062626
v 0.800470 -0.150790 0.000000
v 0.820055 -0.142977 0.000000
v 0.820005 -0.150299 0.074494
v 0.829945 -0.142977 0.000000
v 0.829994 -0.150299 0.074426
v 0.839369 -0.143163 0.000000
v 0.839888 -0.150356 0.061910
v 0.845964 -0.144190 0.000000
v 0.848988 -0.150927 0.000000
v 0.380423 -0.160554 0.064680
v 0.373602 -0.160547 0.000000
v 0.389996 -0.160631 0.071276
v 0.399958 -0.153208 0.000000
v 0.399998 -0.160943 0.074087
v 0.409995 -0.153619 0.000000
v 0.410000 -0.160996 0.075540
v 0.419942 -0.153677 0.000000
v 0.419995 -0.161002 0.074113
v 0.429374 -0.153864 0.000000
v 0.429924 -0.161049 0.062486
v 0.436035 -0.154872 0.000000
v 0.439530 -0.161493 0.000000
v 0.653965 -0.154814 0.000000
v 0.660617 -0.153818 0.000000
v 0.659998 -0.160546 0.028868
v 0.650466 -0.161034 0.000000
v 0.669947 -0.153566 0.000000
v 0.669483 -0.160053 0.000000
v 0.679221 -0.153266 0.000000
v 0.679179 -0.157652 0.000000
v 0.685024 -0.153734 0.000000
v 0.685021 -0.156730 0.000000
v 0.754031 -0.154893 0.000000
v 0.760631 -0.153866 0.000000
v 0.760109 -0.161059 0.062070
v 0.750945 -0.161632 0.000000
v 0.770058 -0.153677 0.000000
v 0.770006 -0.161002 0.074684
v 0.780005 -0.153619 0.000000
v 0.780000 -0.160996 0.076958
v 0.790044 -0.153208 0.000000
v 0.790003 -0.160944 0.077609
v 0.800033 -0.160635 0.080973
v 0.810004 -0.160580 0.094736
v 0.820000 -0.160576 0.102277
v 0.829999 -0.160576 0.101674
v 0.839967 -0.160582 0.090731
v 0.849521 -0.160667 0.061701
v 0.855282 -0.154163 0.000000
v 0.856242 -0.161223 0.000000
v 0.380461 -0.170817 0.057098
v 0.373756 -0.170488 0.000000
v 0.390061 -0.171164 0.072378
v 0.400005 -0.171246 0.087432
v 0.410001 -0.171276 0.094921
v 0.420000 -0.171279 0.097820
v 0.429996 -0.171283 0.093262
v 0.439967 -0.171338 0.080654
v 0.449956 -0.163911 0.000000
v 0.449997 -0.171647 0.077545
v 0.459995 -0.164322 0.000000
v 0.460000 -0.171699 0.076936
v 0.469942 -0.164380 0.000000
v 0.469995 -0.171705 0.074721
v 0.479374 -0.164568 0.000000
v 0.479924 -0.171752 0.062636
v 0.486035 -0.165575 0.000000
v 0.489530 -0.172196 0.000000
v 0.614035 -0.165596 0.000000
v 0.620625 -0.164557 0.000000
v 0.620023 -0.171667 0.031922
v 0.611006 -0.172327 0.000000
v 0.630017 -0.164217 0.000000
v 0.629534 -0.170839 0.000000
v 0.640042 -0.163393 0.000000
v 0.639958 -0.168408 0.000000
v 0.649984 -0.167585 0.000000
v 0.659380 -0.167279 0.000000
v 0.666032 -0.166279 0.000000
v 0.744074 -0.164913 0.000000
v 0.750131 -0.171393 0.065970
v 0.740944 -0.172263 0.000000
v 0.760009 -0.171286 0.092167
v 0.770000 -0.171279 0.102521
v 0.780000 -0.171279 0.105156
v 0.790000 -0.171276 0.105665
v 0.800001 -0.171254 0.106786
v 0.810000 -0.171251 0.111278
v 0.820000 -0.171251 0.115005
v 0.829999 -0.171251 0.112423
v 0.839972 -0.171251 0.100776
v 0.849574 -0.171257 0.073586
v 0.856416 -0.171309 0.000000
v 0.380763 -0.178387 0.000000
v 0.374679 -0.177011 0.000000
v 0.390518 -0.180997 0.000000
v 0.400080 -0.181510 0.062332
v 0.410028 -0.181900 0.077978
v 0.420003 -0.181951 0.095129
v 0.430000 -0.181954 0.103556
v 0.439999 -0.181957 0.104432
v 0.450000 -0.181980 0.104928
v 0.460000 -0.181982 0.104839
v 0.470000 -0.181983 0.102728
v 0.479996 -0.181987 0.094767
v 0.489967 -0.182041 0.080963
v 0.499954 -0.174615 0.000000
v 0.499997 -0.182350 0.077398
v 0.509940 -0.175044 0.000000
v 0.509995 -0.182405 0.074753
v 0.519374 -0.175269 0.000000
v 0.519922 -0.182455 0.062600
v 0.526031 -0.176280 0.000000
v 0.529486 -0.182914 0.000000
v 0.604719 -0.175564 0.000000
v 0.610400 -0.182004 0.041917
v 0.603771 -0.182559 0.000000
v 0.619206 -0.181433 0.000000
v 0.626012 -0.177737 0.000000
v 0.734012 -0.175591 0.000000
v 0.740100 -0.182083 0.066579
v 0.730520 -0.182842 0.000000
v 0.750009 -0.181963 0.093253
v 0.760000 -0.181954 0.107908
v 0.770000 -0.181954 0.116177
v 0.780000 -0.181954 0.119939
v 0.790000 -0.181954 0.120724
v 0.800000 -0.181953 0.121020
v 0.810000 -0.181953 0.121959
v 0.820000 -0.181953 0.121220
v 0.829999 -0.181953 0.114518
v 0.839972 -0.181953 0.101228
v 0.849575 -0.181948 0.073634
v 0.856416 -0.181894 0.000000
v 0.400657 -0.189136 0.000000
v 0.393971 -0.187693 0.000000
v 0.410401 -0.192227 0.000000
v 0.420051 -0.192625 0.078201
v 0.430003 -0.192655 0.101618
v 0.440000 -0.192656 0.111707
v 0.450000 -0.192657 0.116136
v 0.460000 -0.192657 0.117404
v 0.470000 -0.192657 0.116021
v 0.480000 -0.192657 0.111310
v 0.489999 -0.192660 0.106749
v 0.500000 -0.192683 0.105305
v 0.510000 -0.192686 0.102820
v 0.519996 -0.192690 0.094570
v 0.529963 -0.192747 0.078557
v 0.539331 -0.185521 0.000000
v 0.539919 -0.193103 0.063051
v 0.546028 -0.186920 0.000000
v 0.549482 -0.193613 0.000000
v 0.610055 -0.192133 0.040250
v 0.603736 -0.191944 0.000000
v 0.616713 -0.191838 0.000000
v 0.714679 -0.186895 0.000000
v 0.720763 -0.185516 0.000000
v 0.720461 -0.193091 0.058327
v 0.713755 -0.193421 0.000000
v 0.730062 -0.192743 0.077436
v 0.740006 -0.192664 0.095334
v 0.750000 -0.192657 0.108259
v 0.760000 -0.192656 0.117667
v 0.770000 -0.192656 0.125255
v 0.780000 -0.192656 0.129481
v 0.790000 -0.192656 0.129662
v 0.800000 -0.192656 0.128474
v 0.810000 -0.192656 0.126152
v 0.820000 -0.192656 0.120181
v 0.829999 -0.192656 0.109909
v 0.839969 -0.192652 0.093837
v 0.849531 -0.192573 0.062259
v 0.856243 -0.191986 0.000000
v 0.420424 -0.203241 0.062349
v 0.413291 -0.202651 0.000000
v 0.430031 -0.203350 0.091873
v 0.440001 -0.203358 0.106988
v 0.450000 -0.203359 0.114797
v 0.460000 -0.203359 0.119329
v 0.470000 -0.203359 0.121938
v 0.480000 -0.203359 0.121415
v 0.490000 -0.203359 0.120858
v 0.500000 -0.203360 0.120161
v 0.510000 -0.203360 0.117066
v 0.520000 -0.203360 0.111261
v 0.529999 -0.203364 0.104051
v 0.539995 -0.203390 0.094494
v 0.549941 -0.203450 0.077495
v 0.559242 -0.196223 0.000000
v 0.559591 -0.203797 0.058828
v 0.565379 -0.197602 0.000000
v 0.566671 -0.204170 0.000000
v 0.610006 -0.199136 0.000000
v 0.604582 -0.198330 0.000000
v 0.615479 -0.198322 0.000000
v 0.720425 -0.203389 0.073032
v 0.713583 -0.203427 0.000000
v 0.730029 -0.203363 0.097591
v 0.740001 -0.203360 0.109198
v 0.750000 -0.203359 0.116767
v 0.760000 -0.203359 0.123181
v 0.770000 -0.203359 0.128223
v 0.780000 -0.203359 0.129548
v 0.790000 -0.203359 0.126821
v 0.800000 -0.203359 0.123020
v 0.810000 -0.203359 0.119679
v 0.820000 -0.203358 0.114285
v 0.829996 -0.203357 0.102548
v 0.839915 -0.203318 0.077783
v 0.849102 -0.202809 0.000000
v 0.855301 -0.199112 0.000000
v 0.421010 -0.213051 0.000000
v 0.414656 -0.209746 0.000000
v 0.430134 -0.213919 0.065829
v 0.440009 -0.214029 0.092216
v 0.450001 -0.214058 0.103583
v 0.460000 -0.214062 0.111014
v 0.470000 -0.214063 0.117831
v 0.480000 -0.214063 0.123729
v 0.490000 -0.214063 0.128591
v 0.500000 -0.214063 0.130471
v 0.510000 -0.214063 0.128154
v 0.520000 -0.214063 0.123369
v 0.530000 -0.214063 0.117481
v 0.540000 -0.214064 0.110047
v 0.549995 -0.214068 0.099084
v 0.559919 -0.214126 0.077206
v 0.569173 -0.214618 0.000000
v 0.720423 -0.214063 0.075491
v 0.713567 -0.214063 0.000000
v 0.730027 -0.214063 0.102333
v 0.740001 -0.214062 0.114110
v 0.750000 -0.214062 0.118154
v 0.760000 -0.214062 0.119328
v 0.770000 -0.214062 0.120356
v 0.780000 -0.214061 0.120002
v 0.790000 -0.214061 0.116932
v 0.800000 -0.214061 0.111530
v 0.809999 -0.214058 0.106308
v 0.819999 -0.214036 0.102314
v 0.829970 -0.214027 0.090943
v 0.839573 -0.213939 0.062208
v 0.846665 -0.213341 0.000000
v 0.430945 -0.223684 0.000000
v 0.424079 -0.220400 0.000000
v 0.440112 -0.224309 0.062541
v 0.450038 -0.224678 0.078613
v 0.460005 -0.224759 0.095641
v 0.470000 -0.224765 0.108585
v 0.480000 -0.224766 0.118175
v 0.490000 -0.224766 0.126901
v 0.500000 -0.224766 0.133986
v 0.510000 -0.224766 0.136633
v 0.520000 -0.224766 0.134177
v 0.530000 -0.224766 0.127937
v 0.540000 -0.224766 0.119825
v 0.550000 -0.224766 0.109898
v 0.559994 -0.224771 0.095203
v 0.569911 -0.224862 0.067070
v 0.576010 -0.218336 0.000000
v 0.579526 -0.225637 0.000000
v 0.720426 -0.224759 0.073736
v 0.713584 -0.224704 0.000000
v 0.730028 -0.224764 0.100772
v 0.740001 -0.224765 0.111184
v 0.750000 -0.224764 0.110312
v 0.759999 -0.224762 0.106525
v 0.770000 -0.224739 0.105624
v 0.780000 -0.224736 0.105174
v 0.790000 -0.224736 0.102813
v 0.799996 -0.224732 0.094774
v 0.809967 -0.224677 0.080748
v 0.819991 -0.224365 0.075122
v 0.829888 -0.224257 0.061961
v 0.838992 -0.223683 0.000000
v 0.845341 -0.220443 0.000000
v 0.440674 -0.231903 0.000000
v 0.434034 -0.230482 0.000000
v 0.450515 -0.234583 0.000000
v 0.460090 -0.235372 0.067052
v 0.470006 -0.235464 0.095288
v 0.480000 -0.235469 0.110529
v 0.490000 -0.235469 0.121798
v 0.500000 -0.235469 0.131958
v 0.510000 -0.235469 0.139605
v 0.520000 -0.235469 0.141359
v 0.530000 -0.235469 0.136461
v 0.540000 -0.235469 0.127939
v 0.550000 -0.235469 0.118596
v 0.560000 -0.235469 0.108654
v 0.569996 -0.235475 0.095658
v 0.579966 -0.235554 0.079995
v 0.589893 -0.228146 0.000000
v 0.589967 -0.235868 0.072372
v 0.599277 -0.228743 0.000000
v 0.599540 -0.235950 0.055813
v 0.605323 -0.229763 0.000000
v 0.606227 -0.236178 0.000000
v 0.720479 -0.235349 0.061693
v 0.713758 -0.234793 0.000000
v 0.730033 -0.235434 0.090514
v 0.740001 -0.235439 0.099825
v 0.749996 -0.235435 0.094411
v 0.759967 -0.235380 0.080939
v 0.769997 -0.235072 0.077606
v 0.780000 -0.235020 0.076959
v 0.789995 -0.235014 0.074724
v 0.799924 -0.234967 0.062636
v 0.809528 -0.234522 0.000000
v 0.819898 -0.232085 0.000000
v 0.829367 -0.231488 0.000000
v 0.835965 -0.230422 0.000000
v 0.460827 -0.245620 0.000000
v 0.453993 -0.241898 0.000000
v 0.470082 -0.246131 0.077955
v 0.480004 -0.246170 0.102870
v 0.490000 -0.246172 0.116268
v 0.500000 -0.246172 0.126392
v 0.510000 -0.246172 0.135393
v 0.520000 -0.246172 0.141737
v 0.530000 -0.246172 0.142091
v 0.540000 -0.246172 0.135853
v 0.550000 -0.246172 0.127205
v 0.560000 -0.246172 0.118507
v 0.570000 -0.246172 0.110027
v 0.579998 -0.246176 0.101028
v 0.589969 -0.246194 0.088154
v 0.599529 -0.246123 0.059454
v 0.606225 -0.245570 0.000000
v 0.721012 -0.245089 0.000000
v 0.714718 -0.241853 0.000000
v 0.730112 -0.245659 0.061716
v 0.740001 -0.245714 0.072290
v 0.749924 -0.245670 0.062425
v 0.759530 -0.245226 0.000000
v 0.769956 -0.242807 0.000000
v 0.779995 -0.242397 0.000000
v 0.789942 -0.242338 0.000000
v 0.799374 -0.242151 0.000000
v 0.806035 -0.241143 0.000000
v 0.470427 -0.256756 0.062324
v 0.463332 -0.256154 0.000000
v 0.480030 -0.256867 0.092044
v 0.490001 -0.256875 0.108067
v 0.500000 -0.256875 0.118546
v 0.510000 -0.256875 0.128320
v 0.520000 -0.256875 0.137858
v 0.530000 -0.256875 0.144234
v 0.540000 -0.256875 0.142270
v 0.550000 -0.256875 0.134369
v 0.560000 -0.256875 0.125482
v 0.570000 -0.256875 0.115945
v 0.579996 -0.256874 0.103382
v 0.589917 -0.256841 0.079099
v 0.599115 -0.256370 0.000000
v 0.605300 -0.252636 0.000000
v 0.730628 -0.252852 0.000000
v 0.724036 -0.251826 0.000000
v 0.740000 -0.253020 0.000000
v 0.749377 -0.252853 0.000000
v 0.756035 -0.251846 0.000000
v 0.471009 -0.266571 0.000000
v 0.464659 -0.263261 0.000000
v 0.480125 -0.267472 0.066385
v 0.490008 -0.267573 0.095224
v 0.500000 -0.267578 0.110566
v 0.510000 -0.267578 0.122001
v 0.520000 -0.267578 0.132851
v 0.530000 -0.267578 0.142049
v 0.540000 -0.267578 0.143747
v 0.550000 -0.267578 0.135983
v 0.560000 -0.267578 0.126016
v 0.569999 -0.267578 0.115545
v 0.579975 -0.267578 0.101595
v 0.589627 -0.267570 0.074267
v 0.596838 -0.267470 0.000000
v 0.480831 -0.277729 0.000000
v 0.474060 -0.273987 0.000000
v 0.490081 -0.278241 0.077978
v 0.500004 -0.278280 0.103058
v 0.510000 -0.278281 0.116660
v 0.520000 -0.278281 0.127437
v 0.530000 -0.278281 0.136877
v 0.540000 -0.278281 0.139997
v 0.550000 -0.278281 0.132336
v 0.560000 -0.278281 0.121703
v 0.569999 -0.278281 0.110116
v 0.579969 -0.278277 0.093868
v 0.589534 -0.278198 0.062298
v 0.596282 -0.277609 0.000000
v 0.490417 -0.288900 0.062803
v 0.483330 -0.288268 0.000000
v 0.500028 -0.288980 0.094198
v 0.510001 -0.288984 0.110480
v 0.520000 -0.288984 0.122162
v 0.530000 -0.288984 0.131785
v 0.540000 -0.288984 0.134518
v 0.550000 -0.288984 0.127100
v 0.560000 -0.288984 0.116618
v 0.569996 -0.288983 0.103022
v 0.579915 -0.288945 0.077831
v 0.589102 -0.288434 0.000000
v 0.595304 -0.284737 0.000000
v 0.490880 -0.299184 0.000000
v 0.484640 -0.295440 0.000000
v 0.500082 -0.299653 0.079960
v 0.510004 -0.299686 0.105136
v 0.520000 -0.299687 0.119172
v 0.530000 -0.299688 0.128894
v 0.540000 -0.299688 0.130178
v 0.550000 -0.299688 0.121916
v 0.559999 -0.299687 0.110447
v 0.569972 -0.299683 0.094189
v 0.579583 -0.299603 0.062793
v 0.586666 -0.298971 0.000000
v 0.763965 -0.294013 0.000000
v 0.770626 -0.293005 0.000000
v 0.770076 -0.300189 0.062635
v 0.760473 -0.300634 0.000000
v 0.780058 -0.292820 0.000000
v 0.780005 -0.300143 0.074721
v 0.790003 -0.292801 0.000000
v 0.790000 -0.300140 0.076915
v 0.800000 -0.292800 0.000000
v 0.800000 -0.300140 0.077083
v 0.809997 -0.292801 0.000000
v 0.810000 -0.300140 0.076766
v 0.819942 -0.292820 0.000000
v 0.819995 -0.300143 0.074323
v 0.829374 -0.293005 0.000000
v 0.829922 -0.300190 0.061616
v 0.836031 -0.294014 0.000000
v 0.839481 -0.300645 0.000000
v 0.500371 -0.310388 0.076440
v 0.493143 -0.310344 0.000000
v 0.510025 -0.310391 0.103848
v 0.520001 -0.310391 0.118438
v 0.530000 -0.310391 0.127840
v 0.540000 -0.310391 0.127651
v 0.550000 -0.310391 0.118620
v 0.559996 -0.310389 0.104866
v 0.569918 -0.310356 0.079784
v 0.579119 -0.309885 0.000000
v 0.585360 -0.306143 0.000000
v 0.733969 -0.304714 0.000000
v 0.740629 -0.303667 0.000000
v 0.740078 -0.310889 0.062628
v 0.730514 -0.311351 0.000000
v 0.750101 -0.303072 0.000000
v 0.750008 -0.310790 0.075190
v 0.760033 -0.310479 0.080753
v 0.770004 -0.310424 0.094761
v 0.780000 -0.310420 0.102759
v 0.790000 -0.310420 0.104948
v 0.800000 -0.310420 0.104923
v 0.810000 -0.310420 0.103595
v 0.820000 -0.310420 0.099306
v 0.829992 -0.310421 0.086270
v 0.839912 -0.310427 0.059169
v 0.849234 -0.303213 0.000000
v 0.849502 -0.310394 0.042694
v 0.855293 -0.304527 0.000000
v 0.856054 -0.310391 0.000000
v 0.500419 -0.321094 0.075975
v 0.493526 -0.321091 0.000000
v 0.510027 -0.321094 0.103694
v 0.520001 -0.321094 0.118253
v 0.530000 -0.321094 0.126988
v 0.540000 -0.321094 0.124901
v 0.549999 -0.321094 0.115754
v 0.559975 -0.321094 0.101730
v 0.569626 -0.321085 0.074312
v 0.576838 -0.320985 0.000000
v 0.714039 -0.315378 0.000000
v 0.720674 -0.313960 0.000000
v 0.720115 -0.321551 0.062391
v 0.711012 -0.322172 0.000000
v 0.730038 -0.321185 0.078481
v 0.740004 -0.321127 0.094545
v 0.750000 -0.321120 0.102906
v 0.760001 -0.321098 0.106369
v 0.770000 -0.321095 0.111344
v 0.780000 -0.321095 0.116338
v 0.790000 -0.321095 0.118253
v 0.800000 -0.321095 0.116777
v 0.810000 -0.321095 0.111895
v 0.819997 -0.321094 0.101234
v 0.829949 -0.321065 0.077179
v 0.839594 -0.320669 0.000000
v 0.849246 -0.317616 0.000000
v 0.855294 -0.316258 0.000000
v 0.500423 -0.331797 0.075936
v 0.493563 -0.331797 0.000000
v 0.510027 -0.331797 0.103657
v 0.520001 -0.331797 0.118056
v 0.530000 -0.331797 0.125827
v 0.540000 -0.331797 0.121036
v 0.549999 -0.331797 0.110298
v 0.559969 -0.331793 0.094045
v 0.569534 -0.331715 0.062329
v 0.576282 -0.331124 0.000000
v 0.704718 -0.325413 0.000000
v 0.710479 -0.331917 0.061718
v 0.703758 -0.332473 0.000000
v 0.720033 -0.331829 0.090909
v 0.730002 -0.331801 0.103298
v 0.740000 -0.331798 0.110778
v 0.750000 -0.331798 0.116561
v 0.760000 -0.331797 0.119945
v 0.770000 -0.331797 0.121725
v 0.780000 -0.331797 0.123496
v 0.790000 -0.331797 0.122551
v 0.800000 -0.331797 0.117474
v 0.809999 -0.331797 0.108843
v 0.819972 -0.331792 0.093756
v 0.829585 -0.331712 0.062727
v 0.836711 -0.331094 0.000000
v 0.500423 -0.342500 0.075766
v 0.493566 -0.342497 0.000000
v 0.510027 -0.342500 0.103404
v 0.520001 -0.342500 0.117530
v 0.530000 -0.342500 0.124534
v 0.540000 -0.342500 0.118293
v 0.549996 -0.342499 0.105009
v 0.559917 -0.342465 0.079937
v 0.569116 -0.341996 0.000000
v 0.575305 -0.338256 0.000000
v 0.710426 -0.342507 0.073766
v 0.703584 -0.342562 0.000000
v 0.720028 -0.342501 0.101091
v 0.730001 -0.342500 0.113454
v 0.740000 -0.342500 0.119458
v 0.750000 -0.342500 0.123786
v 0.760000 -0.342500 0.126208
v 0.770000 -0.342500 0.124384
v 0.780000 -0.342500 0.121062
v 0.790000 -0.342500 0.116632
v 0.800000 -0.342499 0.109776
v 0.809995 -0.342495 0.098996
v 0.819916 -0.342436 0.077055
v 0.829107 -0.341946 0.000000
v 0.835362 -0.338250 0.000000
v 0.500425 -0.353198 0.073813
v 0.493584 -0.353141 0.000000
v 0.510028 -0.353203 0.101534
v 0.520001 -0.353203 0.115139
v 0.530000 -0.353203 0.121305
v 0.539999 -0.353203 0.115708
v 0.549975 -0.353203 0.102906
v 0.559629 -0.353199 0.076174
v 0.566856 -0.353153 0.000000
v 0.710423 -0.353203 0.075701
v 0.703564 -0.353206 0.000000
v 0.720027 -0.353203 0.102708
v 0.730001 -0.353203 0.114030
v 0.740000 -0.353203 0.117675
v 0.750000 -0.353202 0.119165
v 0.760000 -0.353202 0.119422
v 0.770000 -0.353202 0.116574
v 0.780000 -0.353202 0.110996
v 0.789999 -0.353199 0.103979
v 0.799995 -0.353173 0.094477
v 0.809941 -0.353113 0.077491
v 0.819591 -0.352766 0.058819
v 0.826668 -0.352392 0.000000
v 0.500469 -0.363825 0.062289
v 0.493757 -0.363236 0.000000
v 0.510031 -0.363902 0.093901
v 0.520001 -0.363906 0.109002
v 0.530000 -0.363906 0.114405
v 0.539999 -0.363906 0.109195
v 0.549972 -0.363903 0.097636
v 0.559578 -0.363877 0.073072
v 0.566455 -0.363836 0.000000
v 0.710419 -0.363906 0.075588
v 0.703524 -0.363908 0.000000
v 0.720027 -0.363906 0.100865
v 0.730001 -0.363905 0.107440
v 0.739999 -0.363902 0.105968
v 0.750000 -0.363880 0.105443
v 0.760000 -0.363877 0.105121
v 0.770000 -0.363877 0.102779
v 0.779996 -0.363873 0.094553
v 0.789963 -0.363815 0.078554
v 0.799919 -0.363459 0.063051
v 0.809482 -0.362950 0.000000
v 0.819242 -0.360340 0.000000
v 0.825379 -0.358961 0.000000
v 0.500884 -0.374106 0.000000
v 0.494698 -0.370365 0.000000
v 0.510083 -0.374574 0.079658
v 0.520004 -0.374608 0.102553
v 0.530000 -0.374609 0.106717
v 0.539997 -0.374607 0.096895
v 0.549947 -0.374556 0.077857
v 0.559540 -0.374178 0.058362
v 0.566247 -0.373844 0.000000
v 0.710368 -0.374610 0.074545
v 0.703099 -0.374643 0.000000
v 0.720023 -0.374605 0.094632
v 0.729997 -0.374579 0.093343
v 0.739967 -0.374521 0.080808
v 0.749997 -0.374212 0.077588
v 0.760000 -0.374160 0.076957
v 0.769995 -0.374154 0.074723
v 0.779922 -0.374107 0.062598
v 0.789486 -0.373649 0.000000
v 0.799331 -0.371041 0.000000
v 0.806028 -0.369642 0.000000
v 0.510371 -0.385309 0.076003
v 0.503143 -0.385266 0.000000
v 0.520025 -0.385312 0.100009
v 0.529998 -0.385311 0.099853
v 0.539950 -0.385283 0.078122
v 0.549595 -0.384883 0.000000
v 0.559249 -0.381794 0.000000
v 0.565322 -0.380374 0.000000
v 0.710044 -0.385307 0.069930
v 0.700390 -0.385691 0.000000
v 0.719965 -0.385223 0.073770
v 0.729921 -0.384866 0.062558
v 0.739529 -0.384371 0.000000
v 0.749956 -0.381948 0.000000
v 0.759995 -0.381537 0.000000
v 0.769942 -0.381479 0.000000
v 0.779374 -0.381292 0.000000
v 0.786031 -0.380283 0.000000
v 0.510419 -0.396016 0.075298
v 0.503526 -0.396013 0.000000
v 0.520026 -0.396016 0.097992
v 0.529972 -0.396011 0.092094
v 0.539585 -0.395930 0.062634
v 0.546711 -0.395313 0.000000
v 0.684679 -0.390246 0.000000
v 0.690750 -0.388827 0.000000
v 0.690458 -0.396411 0.051694
v 0.683773 -0.396712 0.000000
v 0.700015 -0.395977 0.055804
v 0.709923 -0.395571 0.056659
v 0.719486 -0.395059 0.000000
v 0.729331 -0.392448 0.000000
v 0.736032 -0.391050 0.000000
v 0.510423 -0.406719 0.074639
v 0.503563 -0.406719 0.000000
v 0.520024 -0.406717 0.093861
v 0.529916 -0.406679 0.076721
v 0.539106 -0.406169 0.000000
v 0.545362 -0.402469 0.000000
v 0.690382 -0.406208 0.042912
v 0.683765 -0.406012 0.000000
v 0.699518 -0.405758 0.000000
v 0.709332 -0.403151 0.000000
v 0.716028 -0.401752 0.000000
v 0.510422 -0.417422 0.073075
v 0.503565 -0.417422 0.000000
v 0.519999 -0.417417 0.086875
v 0.529584 -0.417337 0.062011
v 0.536666 -0.416706 0.000000
v 0.690094 -0.413198 0.000000
v 0.684590 -0.412392 0.000000
v 0.696127 -0.412363 0.000000
v 0.510419 -0.428124 0.070304
v 0.503563 -0.428125 0.000000
v 0.519945 -0.428090 0.073336
v 0.529120 -0.427619 0.000000
v 0.535360 -0.423877 0.000000
v 0.803965 -0.422450 0.000000
v 0.810623 -0.421444 0.000000
v 0.810076 -0.428627 0.062428
v 0.800470 -0.429071 0.000000
v 0.820000 -0.421277 0.000000
v 0.820000 -0.428583 0.072347
v 0.829377 -0.421444 0.000000
v 0.829922 -0.428627 0.062354
v 0.836031 -0.422451 0.000000
v 0.839482 -0.429086 0.000000
v 0.510395 -0.438828 0.069181
v 0.503525 -0.438830 0.000000
v 0.519653 -0.438818 0.068357
v 0.526839 -0.438719 0.000000
v 0.743968 -0.433155 0.000000
v 0.750626 -0.432146 0.000000
v 0.750078 -0.439331 0.062599
v 0.740514 -0.439789 0.000000
v 0.760058 -0.431960 0.000000
v 0.760005 -0.439283 0.074722
v 0.770003 -0.431940 0.000000
v 0.770000 -0.439281 0.076930
v 0.780002 -0.431899 0.000000
v 0.780000 -0.439277 0.077168
v 0.790044 -0.431489 0.000000
v 0.790003 -0.439225 0.077606
v 0.800033 -0.438916 0.080934
v 0.810004 -0.438862 0.094452
v 0.820000 -0.438858 0.100278
v 0.829995 -0.438862 0.093772
v 0.839938 -0.438918 0.077094
v 0.849237 -0.431691 0.000000
v 0.849539 -0.439262 0.058149
v 0.855321 -0.433067 0.000000
v 0.856244 -0.439590 0.000000
v 0.510338 -0.449526 0.064699
v 0.503142 -0.449578 0.000000
v 0.519549 -0.449415 0.057305
v 0.526282 -0.448853 0.000000
v 0.723972 -0.443795 0.000000
v 0.730669 -0.442396 0.000000
v 0.730080 -0.449978 0.063068
v 0.720514 -0.450488 0.000000
v 0.740037 -0.449622 0.078557
v 0.750004 -0.449565 0.094565
v 0.760000 -0.449561 0.102791
v 0.770000 -0.449561 0.105148
v 0.780000 -0.449560 0.105498
v 0.790000 -0.449558 0.105515
v 0.800001 -0.449535 0.106437
v 0.810000 -0.449532 0.110492
v 0.820000 -0.449532 0.112552
v 0.829999 -0.449532 0.107015
v 0.839971 -0.449535 0.095642
v 0.849573 -0.449555 0.070932
v 0.856398 -0.449537 0.000000
v 1.143645 -0.444042 0.000000
v 1.146355 -0.444042 0.000000
v 1.146755 -0.449531 0.000000
v 1.143245 -0.449531 0.000000
v 0.509958 -0.460163 0.046837
v 0.500876 -0.460731 0.000000
v 0.518991 -0.459228 0.000000
v 0.525285 -0.455920 0.000000
v 0.703972 -0.454498 0.000000
v 0.710669 -0.453099 0.000000
v 0.710081 -0.460681 0.063067
v 0.700514 -0.461191 0.000000
v 0.720037 -0.460325 0.078564
v 0.730004 -0.460265 0.094696
v 0.740001 -0.460239 0.104050
v 0.750000 -0.460235 0.111164
v 0.760000 -0.460235 0.116743
v 0.770000 -0.460235 0.119739
v 0.780000 -0.460235 0.120212
v 0.790000 -0.460235 0.119366
v 0.800000 -0.460234 0.118539
v 0.810000 -0.460234 0.118266
v 0.820000 -0.460234 0.115669
v 0.829999 -0.460234 0.107539
v 0.839969 -0.460229 0.092960
v 0.849531 -0.460152 0.062007
v 0.856243 -0.459567 0.000000
v 1.146355 -0.455021 0.000000
v 1.143645 -0.455021 0.000000
v 0.494699 -0.464473 0.000000
v 0.500390 -0.470949 0.042387
v 0.493769 -0.471538 0.000000
v 0.509201 -0.470385 0.000000
v 0.515942 -0.466643 0.000000
v 0.684034 -0.465221 0.000000
v 0.690674 -0.463804 0.000000
v 0.690112 -0.471394 0.062539
v 0.680941 -0.472017 0.000000
v 0.700038 -0.471029 0.078513
v 0.710004 -0.470968 0.094672
v 0.720001 -0.470942 0.104034
v 0.730000 -0.470939 0.111199
v 0.740000 -0.470938 0.117298
v 0.750000 -0.470937 0.122281
v 0.760000 -0.470937 0.125583
v 0.770000 -0.470937 0.127654
v 0.780000 -0.470937 0.127147
v 0.790000 -0.470937 0.123947
v 0.800000 -0.470937 0.119799
v 0.810000 -0.470937 0.115559
v 0.820000 -0.470936 0.109431
v 0.829995 -0.470932 0.098816
v 0.839916 -0.470874 0.076991
v 0.849102 -0.470383 0.000000
v 0.855301 -0.466690 0.000000
v 0.224673 -0.475939 0.000000
v 0.230657 -0.474975 0.000000
v 0.230430 -0.482100 0.052777
v 0.223772 -0.482344 0.000000
v 0.239343 -0.474975 0.000000
v 0.239570 -0.482100 0.052777
v 0.245327 -0.475939 0.000000
v 0.246228 -0.482344 0.000000
v 0.500054 -0.481116 0.040276
v 0.493735 -0.480928 0.000000
v 0.506713 -0.480821 0.000000
v 0.674009 -0.475282 0.000000
v 0.680098 -0.481773 0.066506
v 0.670475 -0.482516 0.000000
v 0.690008 -0.481673 0.092271
v 0.700001 -0.481645 0.103572
v 0.710000 -0.481642 0.110865
v 0.720000 -0.481641 0.117046
v 0.730000 -0.481641 0.122075
v 0.740000 -0.481641 0.125664
v 0.750000 -0.481641 0.127769
v 0.760000 -0.481641 0.125763
v 0.770000 -0.481641 0.122858
v 0.780000 -0.481641 0.120209
v 0.790000 -0.481640 0.116593
v 0.800000 -0.481639 0.110834
v 0.809999 -0.481636 0.103843
v 0.819995 -0.481610 0.094444
v 0.829940 -0.481550 0.077478
v 0.839591 -0.481203 0.058816
v 0.846668 -0.480830 0.000000
v 0.230430 -0.491884 0.052777
v 0.223772 -0.491641 0.000000
v 0.239570 -0.491884 0.052777
v 0.246228 -0.491641 0.000000
v 0.500006 -0.488121 0.000000
v 0.494582 -0.487314 0.000000
v 0.505479 -0.487306 0.000000
v 0.644673 -0.486642 0.000000
v 0.650723 -0.485618 0.000000
v 0.650454 -0.492830 0.057890
v 0.643716 -0.493117 0.000000
v 0.660107 -0.485021 0.000000
v 0.660033 -0.492743 0.073895
v 0.670034 -0.492429 0.080299
v 0.680005 -0.492352 0.095297
v 0.690000 -0.492345 0.107399
v 0.700000 -0.492344 0.114859
v 0.710000 -0.492344 0.119674
v 0.720000 -0.492344 0.123907
v 0.730000 -0.492344 0.126719
v 0.740000 -0.492344 0.125453
v 0.750000 -0.492344 0.122272
v 0.760000 -0.492344 0.117330
v 0.770000 -0.492343 0.111575
v 0.779999 -0.492340 0.106403
v 0.790000 -0.492317 0.102909
v 0.799996 -0.492310 0.094549
v 0.809963 -0.492253 0.078545
v 0.819919 -0.491897 0.063049
v 0.829482 -0.491387 0.000000
v 0.839242 -0.488777 0.000000
v 0.845379 -0.487398 0.000000
v 0.230657 -0.499010 0.000000
v 0.224673 -0.498046 0.000000
v 0.239343 -0.499010 0.000000
v 0.245327 -0.498046 0.000000
v 0.650373 -0.503081 0.072965
v 0.643162 -0.503160 0.000000
v 0.660025 -0.503072 0.095579
v 0.670002 -0.503050 0.102012
v 0.680000 -0.503046 0.107291
v 0.690000 -0.503046 0.112653
v 0.700000 -0.503046 0.116321
v 0.710000 -0.503046 0.118077
v 0.720000 -0.503046 0.119224
v 0.730000 -0.503046 0.119487
v 0.740000 -0.503046 0.116715
v 0.750000 -0.503046 0.111163
v 0.759999 -0.503043 0.104060
v 0.769996 -0.503016 0.094906
v 0.779967 -0.502959 0.080762
v 0.789992 -0.502647 0.075191
v 0.799922 -0.502548 0.062628
v 0.809486 -0.502086 0.000000
v 0.819331 -0.499479 0.000000
v 0.826028 -0.498080 0.000000
v 0.650083 -0.513757 0.075057
v 0.640887 -0.514222 0.000000
v 0.660004 -0.513723 0.095809
v 0.670000 -0.513721 0.101058
v 0.680000 -0.513721 0.102681
v 0.690000 -0.513721 0.104042
v 0.700000 -0.513721 0.104910
v 0.710000 -0.513721 0.105217
v 0.720000 -0.513721 0.105353
v 0.730000 -0.513721 0.105119
v 0.740000 -0.513721 0.102789
v 0.749996 -0.513717 0.094565
v 0.759963 -0.513659 0.078558
v 0.769921 -0.513304 0.063105
v 0.779527 -0.512808 0.000000
v 0.789899 -0.510366 0.000000
v 0.799371 -0.509771 0.000000
v 0.806031 -0.508723 0.000000
v 0.634726 -0.517892 0.000000
v 0.640504 -0.524045 0.045234
v 0.633947 -0.524352 0.000000
v 0.650034 -0.524003 0.067789
v 0.660001 -0.524001 0.075123
v 0.670000 -0.524001 0.076545
v 0.680000 -0.524001 0.076813
v 0.690000 -0.524001 0.076994
v 0.700000 -0.524001 0.077100
v 0.710000 -0.524001 0.077127
v 0.720000 -0.524001 0.077128
v 0.730000 -0.524001 0.076927
v 0.739995 -0.523998 0.074722
v 0.749922 -0.523951 0.062599
v 0.759486 -0.523492 0.000000
v 0.769331 -0.520885 0.000000
v 0.776031 -0.519487 0.000000
v 0.640724 -0.531146 0.000000
v 0.634704 -0.530245 0.000000
v 0.650064 -0.531321 0.000000
v 0.660003 -0.531340 0.000000
v 0.670000 -0.531341 0.000000
v 0.680000 -0.531341 0.000000
v 0.690000 -0.531341 0.000000
v 0.700000 -0.531341 0.000000
v 0.710000 -0.531341 0.000000
v 0.720000 -0.531341 0.000000
v 0.729997 -0.531340 0.000000
v 0.739942 -0.531321 0.000000
v 0.749374 -0.531136 0.000000
v 0.756032 -0.530127 0.000000
v 1.003965 -0.529482 0.000000
v 1.010626 -0.528474 0.000000
v 1.010076 -0.535658 0.062637
v 1.000470 -0.536102 0.000000
v 1.020058 -0.528289 0.000000
v 1.020005 -0.535611 0.074724
v 1.030003 -0.528270 0.000000
v 1.030000 -0.535609 0.076930
v 1.040000 -0.528269 0.000000
v 1.040000 -0.535609 0.077141
v 1.050000 -0.528269 0.000000
v 1.050000 -0.535609 0.077151
v 1.060000 -0.528269 0.000000
v 1.060000 -0.535609 0.077151
v 1.070000 -0.528269 0.000000
v 1.070000 -0.535609 0.077151
v 1.080000 -0.528269 0.000000
v 1.080000 -0.535609 0.077139
v 1.089997 -0.528270 0.000000
v 1.090000 -0.535609 0.076923
v 1.099942 -0.528289 0.000000
v 1.099994 -0.535612 0.074671
v 1.109369 -0.528476 0.000000
v 1.109891 -0.535669 0.062053
v 1.115970 -0.529503 0.000000
v 1.119055 -0.536242 0.000000
v 0.944614 -0.540163 0.000000
v 0.950715 -0.539175 0.000000
v 0.950403 -0.546351 0.058404
v 0.943285 -0.546662 0.000000
v 0.960063 -0.538992 0.000000
v 0.960027 -0.546314 0.073660
v 0.970003 -0.538971 0.000000
v 0.970001 -0.546312 0.076757
v 0.980002 -0.538930 0.000000
v 0.980000 -0.546308 0.077154
v 0.990044 -0.538521 0.000000
v 0.990003 -0.546256 0.077619
v 1.000033 -0.545948 0.080977
v 1.010004 -0.545893 0.094790
v 1.020000 -0.545889 0.102825
v 1.030000 -0.545889 0.105194
v 1.040000 -0.545889 0.105569
v 1.050000 -0.545889 0.105591
v 1.060000 -0.545889 0.105584
v 1.070000 -0.545889 0.105577
v 1.080000 -0.545889 0.105524
v 1.090000 -0.545889 0.105069
v 1.100000 -0.545889 0.102338
v 1.109991 -0.545895 0.091907
v 1.119866 -0.546003 0.065604
v 1.125921 -0.539522 0.000000
v 1.128986 -0.546871 0.000000
v 1.214971 -0.539037 0.000000
v 1.220710 -0.538508 0.000000
v 1.220710 -0.542507 0.000000
v 1.214971 -0.541979 0.000000
v 1.229290 -0.538508 0.000000
v 1.229290 -0.542507 0.000000
v 1.235029 -0.539037 0.000000
v 1.235029 -0.541979 0.000000
v 0.950048 -0.556619 0.077645
v 0.940357 -0.556981 0.000000
v 0.960003 -0.556593 0.097926
v 0.970000 -0.556592 0.104143
v 0.980000 -0.556592 0.105423
v 0.990000 -0.556589 0.105703
v 1.000001 -0.556567 0.106843
v 1.010000 -0.556564 0.111654
v 1.020000 -0.556563 0.117125
v 1.030000 -0.556563 0.120388
v 1.040000 -0.556563 0.121169
v 1.050000 -0.556563 0.121126
v 1.060000 -0.556563 0.121013
v 1.070000 -0.556563 0.120920
v 1.080000 -0.556563 0.120589
v 1.090000 -0.556563 0.119207
v 1.100000 -0.556563 0.114650
v 1.109999 -0.556564 0.105711
v 1.119966 -0.556572 0.089922
v 1.129519 -0.556674 0.059713
v 1.135281 -0.550169 0.000000
v 1.136223 -0.557176 0.000000
v 0.893965 -0.561591 0.000000
v 0.900626 -0.560583 0.000000
v 0.900076 -0.567768 0.062630
v 0.890473 -0.568212 0.000000
v 0.910058 -0.560396 0.000000
v 0.910005 -0.567721 0.074709
v 0.920004 -0.560335 0.000000
v 0.920000 -0.567715 0.076936
v 0.930031 -0.559879 0.000000
v 0.930002 -0.567660 0.077628
v 0.940023 -0.567317 0.081510
v 0.950003 -0.567269 0.097731
v 0.960000 -0.567267 0.109794
v 0.970000 -0.567267 0.117446
v 0.980000 -0.567267 0.120350
v 0.990000 -0.567267 0.120968
v 1.000000 -0.567266 0.121572
v 1.010000 -0.567266 0.124003
v 1.020000 -0.567266 0.128414
v 1.030000 -0.567266 0.132440
v 1.040000 -0.567266 0.133342
v 1.050000 -0.567266 0.132472
v 1.060000 -0.567266 0.131570
v 1.070000 -0.567266 0.130874
v 1.080000 -0.567266 0.129382
v 1.090000 -0.567266 0.125983
v 1.100000 -0.567266 0.118580
v 1.109999 -0.567266 0.107890
v 1.119969 -0.567261 0.091764
v 1.129528 -0.567189 0.060138
v 1.136225 -0.566657 0.000000
v 0.863965 -0.572291 0.000000
v 0.870628 -0.571245 0.000000
v 0.870076 -0.578467 0.062634
v 0.860473 -0.578915 0.000000
v 0.880101 -0.570650 0.000000
v 0.880008 -0.578368 0.075151
v 0.890033 -0.578057 0.080694
v 0.900004 -0.578002 0.094658
v 0.910000 -0.577998 0.102574
v 0.920000 -0.577998 0.104820
v 0.930000 -0.577995 0.105352
v 0.940001 -0.577972 0.106635
v 0.950000 -0.577969 0.111715
v 0.960000 -0.577969 0.118643
v 0.970000 -0.577969 0.125764
v 0.980000 -0.577969 0.129885
v 0.990000 -0.577969 0.131006
v 1.000000 -0.577969 0.131500
v 1.010000 -0.577969 0.133043
v 1.020000 -0.577969 0.136231
v 1.030000 -0.577969 0.139571
v 1.040000 -0.577969 0.139571
v 1.050000 -0.577969 0.136221
v 1.060000 -0.577969 0.132902
v 1.070000 -0.577969 0.130423
v 1.080000 -0.577969 0.126719
v 1.090000 -0.577969 0.121696
v 1.100000 -0.577969 0.114542
v 1.109996 -0.577966 0.102356
v 1.119915 -0.577928 0.077563
v 1.129102 -0.577419 0.000000
v 1.135299 -0.573726 0.000000
v 0.833965 -0.582994 0.000000
v 0.840629 -0.581948 0.000000
v 0.840076 -0.589170 0.062503
v 0.830470 -0.589618 0.000000
v 0.850101 -0.581353 0.000000
v 0.850008 -0.589072 0.074871
v 0.860033 -0.588760 0.080325
v 0.870004 -0.588705 0.094279
v 0.880000 -0.588698 0.102309
v 0.890001 -0.588676 0.105575
v 0.900000 -0.588673 0.110282
v 0.910000 -0.588673 0.114841
v 0.920000 -0.588673 0.117205
v 0.930000 -0.588673 0.118262
v 0.940000 -0.588672 0.119382
v 0.950000 -0.588672 0.120960
v 0.960000 -0.588672 0.124498
v 0.970000 -0.588672 0.128669
v 0.980000 -0.588672 0.130663
v 0.990000 -0.588672 0.131084
v 1.000000 -0.588672 0.131205
v 1.010000 -0.588672 0.131603
v 1.020000 -0.588672 0.132474
v 1.030000 -0.588672 0.133342
v 1.040000 -0.588672 0.132440
v 1.050000 -0.588672 0.128407
v 1.060000 -0.588672 0.123898
v 1.070000 -0.588672 0.120686
v 1.080000 -0.588671 0.116961
v 1.090000 -0.588671 0.111072
v 1.099998 -0.588668 0.103422
v 1.109970 -0.588640 0.091052
v 1.119573 -0.588549 0.062201
v 1.126665 -0.587950 0.000000
v 0.793965 -0.593700 0.000000
v 0.800626 -0.592691 0.000000
v 0.800076 -0.599876 0.061834
v 0.790473 -0.600321 0.000000
v 0.810060 -0.592466 0.000000
v 0.810005 -0.599826 0.073833
v 0.820046 -0.592037 0.000000
v 0.820003 -0.599771 0.076365
v 0.830033 -0.599462 0.079778
v 0.840004 -0.599407 0.092978
v 0.850000 -0.599401 0.100005
v 0.860001 -0.599378 0.102639
v 0.870000 -0.599375 0.107199
v 0.880000 -0.599375 0.111748
v 0.890000 -0.599374 0.114187
v 0.900000 -0.599374 0.115592
v 0.910000 -0.599374 0.116928
v 0.920000 -0.599375 0.118071
v 0.930000 -0.599375 0.120079
v 0.940000 -0.599375 0.122159
v 0.950000 -0.599375 0.120704
v 0.960000 -0.599375 0.119897
v 0.970000 -0.599374 0.120546
v 0.980000 -0.599374 0.120897
v 0.990000 -0.599374 0.120955
v 1.000000 -0.599374 0.120967
v 1.010000 -0.599374 0.121016
v 1.020000 -0.599374 0.121126
v 1.030000 -0.599375 0.121167
v 1.040000 -0.599375 0.120386
v 1.050000 -0.599374 0.117123
v 1.060000 -0.599374 0.111620
v 1.069999 -0.599371 0.106434
v 1.080000 -0.599349 0.102934
v 1.089996 -0.599342 0.094565
v 1.099962 -0.599284 0.078488
v 1.109885 -0.598918 0.062399
v 1.118992 -0.598296 0.000000
v 1.125341 -0.595052 0.000000
v 0.764703 -0.604274 0.000000
v 0.770726 -0.603312 0.000000
v 0.770496 -0.610130 0.042225
v 0.763946 -0.610084 0.000000
v 0.780109 -0.602753 0.000000
v 0.780068 -0.610387 0.055373
v 0.790038 -0.610133 0.070471
v 0.800004 -0.610082 0.087084
v 0.810000 -0.610078 0.094431
v 0.820000 -0.610075 0.096111
v 0.830001 -0.610053 0.096906
v 0.840000 -0.610050 0.099574
v 0.850000 -0.610050 0.101278
v 0.860000 -0.610049 0.101845
v 0.870000 -0.610049 0.102741
v 0.880000 -0.610049 0.103954
v 0.890000 -0.610049 0.104645
v 0.900000 -0.610049 0.104899
v 0.910000 -0.610052 0.105202
v 0.920001 -0.610074 0.106398
v 0.930000 -0.610077 0.110906
v 0.940000 -0.610077 0.114287
v 0.950000 -0.610077 0.110979
v 0.959999 -0.610074 0.106625
v 0.970000 -0.610052 0.105668
v 0.980000 -0.610049 0.105584
v 0.990000 -0.610049 0.105580
v 1.000000 -0.610049 0.105581
v 1.010000 -0.610049 0.105584
v 1.020000 -0.610052 0.105584
v 1.030001 -0.610074 0.105509
v 1.039999 -0.610074 0.105134
v 1.050000 -0.610052 0.102818
v 1.059996 -0.610045 0.094779
v 1.069967 -0.609990 0.080756
v 1.079992 -0.609678 0.075191
v 1.089922 -0.609579 0.062629
v 1.099486 -0.609117 0.000000
v 1.109326 -0.606508 0.000000
v 1.115961 -0.605091 0.000000
v 0.770766 -0.617259 0.000000
v 0.764707 -0.615942 0.000000
v 0.780518 -0.619847 0.000000
v 0.790079 -0.620283 0.058739
v 0.800005 -0.620327 0.072074
v 0.810000 -0.620330 0.075519
v 0.820000 -0.620330 0.076065
v 0.830000 -0.620329 0.076164
v 0.840000 -0.620329 0.076450
v 0.850000 -0.620329 0.076666
v 0.860000 -0.620329 0.076726
v 0.870000 -0.620329 0.076826
v 0.880000 -0.620329 0.076989
v 0.890000 -0.620329 0.077082
v 0.900000 -0.620332 0.077134
v 0.910003 -0.620384 0.077585
v 0.920033 -0.620693 0.080932
v 0.930004 -0.620748 0.094494
v 0.940000 -0.620752 0.100508
v 0.949996 -0.620748 0.094499
v 0.959967 -0.620693 0.080947
v 0.969997 -0.620384 0.077617
v 0.980000 -0.620332 0.077181
v 0.990000 -0.620329 0.077152
v 1.000000 -0.620329 0.077151
v 1.010000 -0.620332 0.077143
v 1.020003 -0.620384 0.077020
v 1.030028 -0.620689 0.076223
v 1.039972 -0.620688 0.076013
v 1.049992 -0.620381 0.074593
v 1.059924 -0.620283 0.062628
v 1.069528 -0.619835 0.000000
v 1.079899 -0.617397 0.000000
v 1.089372 -0.616802 0.000000
v 1.096032 -0.615755 0.000000
v 0.790627 -0.627464 0.000000
v 0.783969 -0.626457 0.000000
v 0.800058 -0.627649 0.000000
v 0.810003 -0.627668 0.000000
v 0.820000 -0.627669 0.000000
v 0.830000 -0.627669 0.000000
v 0.840000 -0.627669 0.000000
v 0.850000 -0.627669 0.000000
v 0.860000 -0.627669 0.000000
v 0.870000 -0.627669 0.000000
v 0.880000 -0.627669 0.000000
v 0.890000 -0.627671 0.000000
v 0.900002 -0.627710 0.000000
v 0.910043 -0.628120 0.000000
v 0.920470 -0.630538 0.000000
v 0.930076 -0.630982 0.062430
v 0.940000 -0.631027 0.072363
v 0.949924 -0.630982 0.062430
v 0.959530 -0.630538 0.000000
v 0.969957 -0.628120 0.000000
v 0.979998 -0.627710 0.000000
v 0.990000 -0.627671 0.000000
v 1.000000 -0.627671 0.000000
v 1.010002 -0.627710 0.000000
v 1.020039 -0.628117 0.000000
v 1.030375 -0.630481 0.000000
v 1.039623 -0.630480 0.000000
v 1.049903 -0.628097 0.000000
v 1.059372 -0.627505 0.000000
v 1.066035 -0.626459 0.000000
v 0.930623 -0.638166 0.000000
v 0.923965 -0.637159 0.000000
v 0.940000 -0.638332 0.000000
v 0.949377 -0.638166 0.000000
v 0.956035 -0.637159 0.000000
v 1.036931 -0.636837 0.000000
v 1.033069 -0.636837 0.000000
v 0.934522 -0.700741 0.000000
v 0.939995 -0.699926 0.000000
v 0.939948 -0.706936 0.041859
v 0.933290 -0.707225 0.000000
v 0.945420 -0.700737 0.000000
v 0.946282 -0.707178 0.000000
v 0.843645 -0.711620 0.000000
v 0.846355 -0.711620 0.000000
v 0.846755 -0.717109 0.000000
v 0.843245 -0.717109 0.000000
v 0.939658 -0.717147 0.052227
v 0.930872 -0.717631 0.000000
v 0.946404 -0.717111 0.000000
v 0.846355 -0.722599 0.000000
v 0.843645 -0.722599 0.000000
v 0.924725 -0.721255 0.000000
v 0.930474 -0.727404 0.042835
v 0.923946 -0.727712 0.000000
v 0.939576 -0.727326 0.051186
v 0.946246 -0.727045 0.000000
v 0.930660 -0.734486 0.000000
v 0.924699 -0.733603 0.000000
v 0.939343 -0.734477 0.000000
v 0.945329 -0.733510 0.000000
v 1.164976 -0.774664 0.000000
v 1.170742 -0.774476 0.000000
v 1.171021 -0.780757 0.000000
v 1.165014 -0.778119 0.000000
v 1.179349 -0.774608 0.000000
v 1.179622 -0.781271 0.029433
v 1.185302 -0.775528 0.000000
v 1.186064 -0.781324 0.000000
v 0.114590 -0.786241 0.000000
v 0.119919 -0.785358 0.000000
v 0.119458 -0.791451 0.000000
v 0.113765 -0.791945 0.000000
v 0.125116 -0.785395 0.000000
v 0.125048 -0.788824 0.000000
v 1.179908 -0.787851 0.000000
v 1.173943 -0.787015 0.000000
v 1.185384 -0.787100 0.000000
v 0.117003 -0.797435 0.000000
v 0.113799 -0.797508 0.000000
v 1.054026 -1.053957 0.000000
v 1.060573 -1.052949 0.000000
v 1.060102 -1.060125 0.059689
v 1.050941 -1.060694 0.000000
v 1.069427 -1.052949 0.000000
v 1.069898 -1.060125 0.059690
v 1.075974 -1.053957 0.000000
v 1.079059 -1.060694 0.000000
v 1.044012 -1.063955 0.000000
v 1.050099 -1.070446 0.066195
v 1.040520 -1.071202 0.000000
v 1.060007 -1.070348 0.089785
v 1.069993 -1.070348 0.089792
v 1.079901 -1.070446 0.066225
v 1.085988 -1.063955 0.000000
v 1.089484 -1.071202 0.000000
v 1.024621 -1.075258 0.000000
v 1.030758 -1.073875 0.000000
v 1.030409 -1.081453 0.058780
v 1.023332 -1.081827 0.000000
v 1.040059 -1.081102 0.077446
v 1.050006 -1.081024 0.094868
v 1.060000 -1.081017 0.105621
v 1.070000 -1.081017 0.105722
v 1.079995 -1.081024 0.095240
v 1.089962 -1.081103 0.078559
v 1.099326 -1.073879 0.000000
v 1.099888 -1.081473 0.062527
v 1.105966 -1.075300 0.000000
v 1.109055 -1.082097 0.000000
v 1.030084 -1.091781 0.076385
v 1.020898 -1.092272 0.000000
v 1.040005 -1.091724 0.097623
v 1.050000 -1.091719 0.107558
v 1.060000 -1.091719 0.113827
v 1.070000 -1.091719 0.114533
v 1.080000 -1.091719 0.109939
v 1.089999 -1.091723 0.103122
v 1.099991 -1.091752 0.092025
v 1.109869 -1.091862 0.065916
v 1.115926 -1.085381 0.000000
v 1.119053 -1.092733 0.000000
v 1.014701 -1.095962 0.000000
v 1.020471 -1.102473 0.059419
v 1.013775 -1.103024 0.000000
v 1.030031 -1.102401 0.087902
v 1.040002 -1.102418 0.100184
v 1.050000 -1.102421 0.107895
v 1.060000 -1.102421 0.113842
v 1.070000 -1.102421 0.116055
v 1.080000 -1.102421 0.114936
v 1.090000 -1.102422 0.111720
v 1.100000 -1.102423 0.105560
v 1.109990 -1.102432 0.092515
v 1.119869 -1.102562 0.065905
v 1.125926 -1.096079 0.000000
v 1.129056 -1.103434 0.000000
v 1.020460 -1.112644 0.055812
v 1.013774 -1.112416 0.000000
v 1.030033 -1.112726 0.072354
v 1.040034 -1.113037 0.079819
v 1.050004 -1.113091 0.094329
v 1.060000 -1.113096 0.102445
v 1.070000 -1.113096 0.104667
v 1.080000 -1.113099 0.104812
v 1.090001 -1.113121 0.104866
v 1.100000 -1.113124 0.106308
v 1.110000 -1.113124 0.103525
v 1.119992 -1.113134 0.091540
v 1.129901 -1.113254 0.065728
v 1.135988 -1.106763 0.000000
v 1.139484 -1.114013 0.000000
v 1.020723 -1.119851 0.000000
v 1.014677 -1.118831 0.000000
v 1.030107 -1.120444 0.000000
v 1.040473 -1.122881 0.000000
v 1.050076 -1.123326 0.062607
v 1.060005 -1.123373 0.074701
v 1.070000 -1.123379 0.076925
v 1.080003 -1.123431 0.077542
v 1.090033 -1.123740 0.080756
v 1.100004 -1.123795 0.093929
v 1.110000 -1.123799 0.099862
v 1.120000 -1.123799 0.097661
v 1.129995 -1.123807 0.088040
v 1.139963 -1.123886 0.072517
v 1.149331 -1.116688 0.000000
v 1.149920 -1.124246 0.058542
v 1.156028 -1.118090 0.000000
v 1.159486 -1.124755 0.000000
v 1.050626 -1.130511 0.000000
v 1.043965 -1.129503 0.000000
v 1.060058 -1.130698 0.000000
v 1.070005 -1.130756 0.000000
v 1.080044 -1.131167 0.000000
v 1.090470 -1.133585 0.000000
v 1.100076 -1.134029 0.062563
v 1.110005 -1.134076 0.074372
v 1.120000 -1.134079 0.075821
v 1.130000 -1.134079 0.074003
v 1.139999 -1.134083 0.070869
v 1.149996 -1.134109 0.066834
v 1.159961 -1.134170 0.054876
v 1.169326 -1.127357 0.000000
v 1.169882 -1.134533 0.041591
v 1.175958 -1.128753 0.000000
v 1.178945 -1.135098 0.000000
v 1.100626 -1.141214 0.000000
v 1.093965 -1.140206 0.000000
v 1.110058 -1.141399 0.000000
v 1.120003 -1.141418 0.000000
v 1.130000 -1.141419 0.000000
v 1.140000 -1.141419 0.000000
v 1.150000 -1.141420 0.000000
v 1.159995 -1.141424 0.000000
v 1.169928 -1.141445 0.000000
v 1.179195 -1.141403 0.000000
v 1.184983 -1.137740 0.000000
v 1.185019 -1.141197 0.000000
f 248 281 282 249
f 66 109 110 67
f 1323 1335 1336 1325
f 708 709 711 710
f 673 688 687 672
f 1396 1408 1409 1397
f 1374 1388 1390 1375
f 1033 1065 1066 1034
f 93 134 135 94
f 1381 1396 1397 1382
f 1373 1389 1388 1374
f 1042 1043 1044 1010
f 381 395 396 382
f 36 37 39 38
f 8 9 12 11
f 422 451 452 423
f 1025 1057 1058 1026
f 1349 1363 1364 1350
f 99 140 141 100
f 681 682 684 683
f 1261 1264 1263 1262
f 1399 1411 1412 1400
f 121 157 158 123
f 82 83 85 84
f 565 588 589 566
f 215 248 249 216
f 595 618 619 596
f 1367 1382 1383 1369
f 533 558 559 534
f 1017 1049 1050 1018
f 27 65 66 29
f 219 252 253 220
f 7 10 9 8
f 1316 1328 1330 1318
f 1385 1399 1400 1387
f 1348 1362 1363 1349
f 1315 1316 1318 1308
f 84 85 86 35
f 22 23 25 24
f 978 979 982 981
f 163 203 205 165
f 14 55 56 16
f 23 63 64 25
f 297 331 332 298
f 642 657 658 643
f 157 195 196 158
f 75 114 115 77
f 375 389 390 376
f 1361 1376 1377 1362
f 295 329 330 296
f 15 16 18 17
f 1054 1089 1090 1055
f 1377 1392 1393 1378
f 610 630 631 611
f 1378 1393 1394 1379
f 579 602 603 580
f 1382 1397 1398 1383
f 580 603 604 581
f 856 876 875 855
f 21 62 63 23
f 1355 1370 1372 1357
f 78 81 80 79
f 1318 1330 1331 1319
f 48 49 51 50
f 1189 1222 1223 1190
f 329 356 357 330
f 1330 1344 1345 1331
f 53 97 98 54
f 1094 1133 1134 1095
f 893 895 894 876
f 689 714 715 690
f 1354 1367 1369 1368
f 1110 1111 1112 1073
f 70 71 73 72
f 56 100 101 57
f 1027 1059 1060 1028
f 544 568 569 545
f 564 587 588 565
f 726 753 754 727
f 245 278 279 246
f 1 4 3 2
f 265 297 298 266
f 69 111 112 71
f 38 39 41 40
f 47 93 94 49
f 120 121 123 122
f 999 1031 1032 1000
f 9 53 54 12
f 313 344 345 314
f 108 147 148 109
f 61 104 103 60
f 687 712 714 689
f 138 178 179 139
f 115 154 155 117
f 1097 1136 1137 1098
f 29 66 67 31
f 266 298 299 267
f 60 103 105 62
f 64 107 108 65
f 574 597 598 575
f 837 863 864 838
f 26 27 29 28
f 1344 1358 1359 1345
f 682 705 706 684
f 237 268 269 238
f 325 351 353 326
f 111 150 151 112
f 667 675 676 668
f 3 19 21 6
f 118 119 121 120
f 95 136 137 96
f 721 748 749 722
f 299 333 334 300
f 447 477 478 448
f 101 142 143 102
f 126 164 163 125
f 55 99 100 56
f 16 56 57 18
f 77 115 117 116
f 169 207 206 168
f 147 184 186 148
f 1065 1100 1101 1066
f 125 163 165 127
f 611 631 632 612
f 226 257 258 227
f 713 738 737 712
f 156 194 195 157
f 1402 1413 1414 1404
f 134 174 175 135
f 594 617 618 595
f 1375 1390 1391 1376
f 392 405 406 393
f 1013 1014 1016 1015
f 429 461 462 428
f 1057 1092 1093 1058
f 141 181 182 142
f 166 169 168 167
f 620 638 640 622
f 395 408 409 396
f 1395 1407 1408 1396
f 535 560 561 536
f 705 728 729 706
f 741 744 743 742
f 112 151 152 113
f 73 113 114 75
f 179 217 218 180
f 577 600 599 576
f 133 173 174 134
f 94 135 136 95
f 167 168 170 131
f 160 197 198 162
f 142 182 183 143
f 210 243 244 211
f 18 57 59 58
f 188 226 227 189
f 109 148 149 110
f 46 47 49 48
f 1397 1409 1410 1398
f 604 624 625 605
f 1149 1186 1187 1150
f 509 535 536 510
f 730 757 758 731
f 1401 1402 1404 1403
f 1301 1307 1309 1300
f 199 200 202 201
f 176 214 215 177
f 629 648 649 628
f 451 481 482 452
f 10 52 53 9
f 623 641 642 624
f 35 86 87 34
f 158 196 197 160
f 168 206 208 170
f 1379 1394 1395 1380
f 859 879 880 860
f 136 176 177 137
f 1136 1177 1178 1137
f 353 374 375 354
f 91 130 132 90
f 722 749 750 723
f 173 211 212 174
f 362 383 384 363
f 191 229 230 192
f 994 1026 1027 995
f 31 67 69 68
f 379 393 394 380
f 1332 1346 1347 1333
f 206 239 241 208
f 692 693 696 695
f 1206 1239 1240 1207
f 377 391 392 378
f 281 318 319 282
f 1018 1050 1051 1019
f 197 235 236 198
f 198 236 237 200
f 175 213 214 176
f 200 237 238 202
f 724 751 752 725
f 539 563 562 538
f 193 231 232 194
f 1105 1106 1109 1108
f 19 60 62 21
f 174 212 213 175
f 224 254 256 225
f 135 175 176 136
f 519 544 545 520
f 65 108 109 66
f 251 284 285 252
f 703 726 727 704
f 229 260 261 230
f 298 332 333 299
f 63 106 107 64
f 628 649 650 630
f 1343 1357 1358 1344
f 274 311 312 275
f 801 832 833 800
f 513 538 540 515
f 755 783 784 756
f 240 273 272 239
f 1151 1188 1189 1152
f 110 149 150 111
f 653 664 666 655
f 268 300 301 269
f 213 246 247 214
f 230 261 262 231
f 12 54 55 14
f 232 263 264 233
f 439 467 468 441
f 603 623 624 604
f 753 781 782 754
f 754 782 783 755
f 181 219 220 182
f 231 262 263 232
f 263 295 296 264
f 902 918 919 903
f 1016 1048 1049 1017
f 208 241 242 209
f 185 223 222 184
f 283 320 321 284
f 783 815 816 784
f 117 155 156 119
f 254 288 287 256
f 28 29 31 30
f 152 190 191 153
f 645 646 648 629
f 378 392 393 379
f 745 773 774 746
f 1089 1128 1129 1090
f 1404 1414 1416 1415
f 246 279 280 247
f 725 752 753 726
f 300 334 335 301
f 1352 1366 1367 1354
f 731 758 759 732
f 303 304 306 305
f 1383 1398 1399 1385
f 421 450 451 422
f 723 750 751 724
f 417 446 447 418
f 1081 1120 1121 1082
f 261 293 294 262
f 278 315 316 279
f 1055 1090 1091 1056
f 177 215 216 178
f 262 294 295 263
f 211 244 245 212
f 271 302 304 303
f 431 463 464 433
f 317 348 349 318
f 354 375 376 355
f 323 352 351 325
f 863 883 884 864
f 34 87 88 37
f 238 269 271 270
f 114 153 154 115
f 309 340 342 311
f 182 220 221 183
f 239 272 274 241
f 1376 1391 1392 1377
f 1394 1405 1407 1395
f 406 419 420 407
f 813 845 846 814
f 1073 1112 1113 1072
f 301 335 336 302
f 827 828 831 830
f 666 674 675 667
f 1020 1052 1053 1021
f 704 727 728 705
f 803 835 836 804
f 356 377 378 357
f 310 341 340 309
f 44 92 93 47
f 272 309 311 274
f 1345 1359 1360 1346
f 311 342 343 312
f 1029 1061 1062 1030
f 393 406 407 394
f 106 144 146 107
f 802 834 835 803
f 269 301 302 271
f 334 361 362 335
f 343 369 370 344
f 756 784 785 757
f 981 982 984 983
f 699 700 702 701
f 394 407 408 395
f 935 967 968 937
f 826 829 828 827
f 771 803 804 772
f 68 69 71 70
f 336 363 364 337
f 267 299 300 268
f 409 422 423 410
f 769 802 803 771
f 244 277 278 245
f 42 45 44 43
f 358 379 380 359
f 359 380 381 360
f 360 381 382 361
f 1325 1336 1337 1327
f 877 897 898 878
f 123 158 160 159
f 342 367 369 343
f 351 372 374 353
f 883 903 904 884
f 294 328 329 295
f 573 596 597 574
f 361 382 383 362
f 391 404 405 392
f 333 360 361 334
f 318 349 350 319
f 327 354 355 328
f 1050 1085 1086 1051
f 214 247 248 215
f 411 424 425 412
f 1039 1040 1043 1042
f 389 401 403 390
f 338 365 366 339
f 247 280 281 248
f 384 398 399 385
f 571 594 595 572
f 418 447 448 419
f 154 192 193 155
f 694 720 721 693
f 957 988 989 959
f 835 861 862 836
f 376 390 391 377
f 1011 1012 1014 1013
f 529 554 553 528
f 390 403 404 391
f 344 370 371 345
f 430 431 433 432
f 280 317 318 281
f 805 837 838 806
f 113 152 153 114
f 793 821 822 795
f 428 462 463 431
f 107 146 147 108
f 811 843 844 812
f 71 112 113 73
f 780 812 813 781
f 1102 1141 1142 1103
f 432 433 435 434
f 435 465 466 437
f 405 418 419 406
f 1169 1206 1207 1170
f 502 528 530 504
f 640 655 656 641
f 785 817 818 786
f 397 410 411 398
f 746 774 775 747
f 814 846 847 815
f 1045 1080 1081 1046
f 414 445 444 416
f 357 378 379 358
f 1087 1126 1127 1088
f 438 439 441 440
f 700 724 725 702
f 424 453 454 425
f 947 973 974 949
f 522 547 548 523
f 777 809 810 778
f 1129 1170 1171 1130
f 460 490 491 461
f 277 314 315 278
f 870 890 891 871
f 1126 1167 1168 1127
f 1121 1162 1163 1122
f 155 193 194 156
f 398 411 412 399
f 396 409 410 397
f 764 797 796 763
f 207 240 239 206
f 1051 1086 1087 1052
f 475 503 502 474
f 1159 1196 1197 1160
f 437 466 467 439
f 399 412 413 400
f 186 224 225 187
f 129 131 130 91
f 1113 1154 1155 1114
f 461 491 492 462
f 326 353 354 327
f 1177 1214 1215 1178
f 448 478 479 449
f 119 156 157 121
f 506 532 533 507
f 456 457 460 459
f 132 172 173 133
f 190 228 229 191
f 440 441 443 442
f 1211 1244 1245 1212
f 1022 1054 1055 1023
f 1117 1158 1159 1118
f 508 534 535 509
f 139 179 180 140
f 1309 1320 1321 1310
f 463 493 494 464
f 1074 1075 1076 1041
f 646 659 661 648
f 1107 1149 1150 1106
f 487 513 515 486
f 1384 1385 1387 1386
f 820 852 851 819
f 855 875 877 857
f 305 306 308 307
f 178 216 217 179
f 906 922 923 907
f 477 505 506 478
f 1380 1395 1396 1381
f 1035 1067 1068 1036
f 775 807 808 776
f 387 402 401 389
f 1279 1282 1281 1280
f 469 499 500 471
f 124 126 125 81
f 100 141 142 101
f 512 514 513 487
f 140 180 181 141
f 449 479 480 450
f 581 604 605 582
f 898 914 915 899
f 445 475 474 444
f 1163 1200 1201 1164
f 1079 1118 1119 1080
f 504 530 531 505
f 1179 1216 1217 1180
f 1197 1230 1231 1198
f 404 417 418 405
f 74 75 77 76
f 462 492 493 463
f 503 529 528 502
f 385 399 400 386
f 49 94 95 51
f 1137 1178 1179 1138
f 187 225 226 188
f 1049 1084 1085 1050
f 495 523 524 496
f 804 836 837 805
f 80 127 128 83
f 570 593 594 571
f 555 578 579 556
f 1351 1365 1366 1352
f 517 542 543 518
f 939 969 970 941
f 1398 1410 1411 1399
f 24 25 27 26
f 897 913 914 898
f 553 576 578 555
f 541 565 566 542
f 526 551 552 527
f 471 500 501 473
f 528 553 555 530
f 1333 1347 1348 1334
f 1299 1300 1303 1302
f 572 595 596 573
f 171 209 210 172
f 550 574 575 551
f 407 420 421 408
f 520 545 546 521
f 452 482 483 453
f 225 256 257 226
f 833 859 860 834
f 954 955 957 956
f 557 580 581 558
f 899 915 916 900
f 615 635 636 616
f 488 516 517 489
f 698 723 724 700
f 587 610 611 588
f 32 35 34 33
f 549 573 574 550
f 566 589 590 567
f 164 204 203 163
f 151 189 190 152
f 1019 1051 1052 1020
f 817 849 850 818
f 1161 1198 1199 1162
f 525 550 551 526
f 558 581 582 559
f 543 567 568 544
f 416 444 446 417
f 788 791 790 789
f 1363 1378 1379 1364
f 6 21 23 22
f 583 606 607 584
f 944 945 947 946
f 217 250 251 218
f 809 841 842 810
f 612 632 633 613
f 485 486 488 458
f 534 559 560 535
f 1188 1221 1222 1189
f 296 330 331 297
f 674 689 690 675
f 659 669 671 661
f 1153 1190 1191 1154
f 293 327 328 294
f 478 506 507 479
f 148 186 187 149
f 568 591 592 569
f 1360 1375 1376 1361
f 96 137 138 97
f 971 1000 1001 972
f 599 621 620 601
f 1012 1046 1047 1014
f 1145 1183 1185 1148
f 1058 1093 1094 1059
f 146 185 184 147
f 660 670 669 659
f 590 613 614 591
f 591 614 615 592
f 559 582 583 560
f 622 640 641 623
f 1130 1171 1172 1131
f 1232 1249 1248 1233
f 335 362 363 336
f 762 764 763 738
f 955 987 988 957
f 624 642 643 625
f 1108 1109 1111 1110
f 638 653 655 640
f 875 896 897 877
f 196 234 235 197
f 616 636 637 617
f 986 1017 1018 985
f 258 290 291 259
f 464 494 495 465
f 576 599 601 578
f 20 61 60 19
f 62 105 106 63
f 523 548 549 524
f 630 650 651 631
f 149 187 188 150
f 250 283 284 251
f 51 95 96 52
f 1082 1121 1122 1083
f 465 495 496 466
f 531 556 557 532
f 192 230 231 193
f 631 651 652 632
f 1369 1383 1385 1384
f 841 867 868 842
f 589 612 613 590
f 900 916 917 901
f 655 666 667 656
f 1347 1361 1362 1348
f 970 999 1000 971
f 606 626 627 607
f 548 572 573 549
f 656 667 668 657
f 180 218 219 181
f 131 170 171 130
f 1023 1055 1056 1024
f 905 921 922 906
f 434 435 437 436
f 259 291 292 260
f 680 703 704 679
f 489 517 518 490
f 228 259 260 229
f 1003 1035 1036 1004
f 679 704 705 682
f 876 894 896 875
f 493 521 522 494
f 470 471 473 472
f 150 188 189 151
f 677 680 679 678
f 693 721 722 696
f 195 233 234 196
f 696 722 723 698
f 89 91 90 45
f 243 276 277 244
f 678 679 682 681
f 695 696 698 697
f 702 725 726 703
f 688 713 712 687
f 50 51 52 10
f 738 763 765 737
f 401 414 416 403
f 450 480 481 451
f 733 736 735 734
f 987 1019 1020 988
f 639 654 653 638
f 664 672 674 666
f 45 90 92 44
f 647 660 659 646
f 747 775 776 748
f 592 615 616 593
f 172 210 211 173
f 241 274 275 242
f 828 855 857 831
f 567 590 591 568
f 956 957 959 958
f 720 747 748 721
f 423 452 453 424
f 355 376 377 356
f 858 878 879 859
f 290 323 325 291
f 1257 1265 1267 1260
f 709 731 732 711
f 718 746 747 720
f 719 745 746 718
f 768 769 771 744
f 98 139 140 99
f 815 847 848 816
f 222 255 254 224
f 510 536 537 511
f 701 702 703 680
f 742 743 745 719
f 929 964 965 931
f 605 625 626 606
f 932 933 935 934
f 772 804 805 773
f 881 901 902 882
f 380 394 395 381
f 252 285 286 253
f 419 448 449 420
f 779 811 812 780
f 737 765 766 739
f 291 325 326 292
f 686 707 709 708
f 842 868 869 843
f 752 780 781 753
f 1109 1151 1152 1111
f 105 145 144 106
f 865 885 886 866
f 408 421 422 409
f 749 777 778 750
f 614 634 635 615
f 799 801 800 770
f 744 771 772 743
f 507 533 534 508
f 751 779 780 752
f 486 515 516 488
f 170 208 209 171
f 773 805 806 774
f 665 673 672 664
f 834 860 861 835
f 302 336 337 304
f 758 786 787 759
f 717 718 720 694
f 728 755 756 729
f 967 996 997 968
f 857 877 878 858
f 812 844 845 813
f 275 312 313 276
f 1155 1192 1193 1156
f 727 754 755 728
f 1114 1155 1156 1115
f 54 98 99 55
f 332 359 360 333
f 819 851 853 821
f 1034 1066 1067 1035
f 797 824 823 796
f 514 539 538 513
f 770 800 802 769
f 996 1028 1029 997
f 683 684 686 685
f 480 508 509 481
f 330 357 358 331
f 781 813 814 782
f 757 785 786 758
f 402 415 414 401
f 276 313 314 277
f 784 816 817 785
f 242 275 276 243
f 505 531 532 506
f 382 396 397 383
f 1322 1334 1335 1323
f 130 171 172 132
f 806 838 839 807
f 791 820 819 790
f 816 848 849 817
f 763 796 798 765
f 236 267 268 237
f 314 345 346 315
f 1193 1226 1227 1194
f 331 358 359 332
f 830 831 832 801
f 831 857 858 832
f 972 1001 1002 973
f 260 292 293 261
f 374 387 389 375
f 521 546 547 522
f 707 730 731 709
f 560 583 584 561
f 821 853 854 822
f 774 806 807 775
f 847 873 874 848
f 840 866 867 841
f 843 869 870 844
f 436 437 439 438
f 1205 1238 1239 1206
f 433 464 465 435
f 845 871 872 846
f 466 496 497 467
f 839 865 866 840
f 315 346 347 316
f 884 904 905 885
f 363 384 385 364
f 869 889 890 870
f 1075 1114 1115 1076
f 807 839 840 808
f 832 858 859 833
f 306 338 339 308
f 97 138 139 98
f 748 776 777 749
f 1066 1101 1102 1067
f 861 881 882 862
f 846 872 873 847
f 767 770 769 768
f 800 833 834 802
f 316 347 348 317
f 878 898 899 879
f 736 761 760 735
f 1357 1372 1373 1358
f 938 939 941 940
f 931 965 966 933
f 648 661 662 649
f 829 856 855 828
f 1059 1094 1095 1060
f 871 891 892 872
f 608 628 630 610
f 235 266 267 236
f 1311 1322 1323 1313
f 1233 1248 1250 1234
f 789 790 793 792
f 304 337 338 306
f 476 504 505 477
f 940 941 943 942
f 894 910 912 896
f 1148 1185 1186 1149
f 257 289 290 258
f 1209 1242 1243 1210
f 886 906 907 887
f 1194 1227 1228 1195
f 1010 1044 1045 1009
f 862 882 883 863
f 895 911 910 894
f 72 73 75 74
f 712 737 739 714
f 782 814 815 783
f 936 937 939 938
f 292 326 327 293
f 1147 1148 1149 1107
f 90 132 133 92
f 969 998 999 970
f 613 633 634 614
f 951 952 955 954
f 1185 1219 1218 1186
f 518 543 544 519
f 885 905 906 886
f 903 919 920 904
f 1083 1122 1123 1084
f 937 968 969 939
f 515 540 541 516
f 990 1022 1023 991
f 556 579 580 557
f 218 251 252 219
f 1139 1180 1181 1140
f 1364 1379 1380 1365
f 963 992 993 964
f 949 974 976 975
f 879 899 900 880
f 474 502 504 476
f 249 282 283 250
f 585 608 610 587
f 1201 1234 1235 1202
f 941 970 971 943
f 942 943 945 944
f 810 842 843 811
f 888 908 909 889
f 542 566 567 543
f 1002 1034 1035 1003
f 582 605 606 583
f 988 1020 1021 989
f 901 917 918 902
f 926 963 964 929
f 1146 1184 1183 1145
f 364 385 386 365
f 1060 1095 1096 1061
f 497 525 526 498
f 162 198 200 199
f 943 971 972 945
f 216 249 250 217
f 1358 1373 1374 1359
f 995 1027 1028 996
f 1106 1150 1151 1109
f 427 428 431 430
f 1091 1130 1131 1092
f 1007 1010 1009 1008
f 952 985 987 955
f 1331 1345 1346 1332
f 644 647 646 645
f 426 429 428 427
f 776 808 809 777
f 965 994 995 966
f 974 1003 1004 976
f 340 368 367 342
f 1008 1009 1012 1011
f 538 562 564 540
f 545 569 570 546
f 654 665 664 653
f 1098 1137 1138 1099
f 966 995 996 967
f 991 1023 1024 992
f 540 564 565 541
f 569 592 593 570
f 4 20 19 3
f 860 880 881 861
f 950 953 952 951
f 1044 1079 1080 1045
f 279 316 317 280
f 383 397 398 384
f 410 423 424 411
f 264 296 297 265
f 989 1021 1022 990
f 498 526 527 499
f 1015 1016 1017 986
f 1000 1032 1033 1001
f 52 96 97 53
f 233 264 265 234
f 706 729 730 707
f 864 884 885 865
f 403 416 417 404
f 1131 1172 1173 1132
f 959 989 990 961
f 992 1024 1025 993
f 602 622 623 603
f 496 524 525 497
f 945 972 973 947
f 601 620 622 602
f 1038 1041 1040 1039
f 887 907 908 888
f 796 823 825 798
f 1166 1203 1204 1167
f 968 997 998 969
f 750 778 779 751
f 1052 1087 1088 1053
f 1021 1053 1054 1022
f 1030 1062 1063 1031
f 743 772 773 745
f 896 912 913 897
f 1026 1058 1059 1027
f 153 191 192 154
f 441 468 469 443
f 1337 1351 1352 1339
f 997 1029 1030 998
f 1115 1156 1157 1116
f 455 458 457 456
f 1092 1131 1132 1093
f 212 245 246 213
f 1138 1179 1180 1139
f 1067 1102 1103 1068
f 960 961 962 927
f 973 1002 1003 974
f 1046 1081 1082 1047
f 532 557 558 533
f 1032 1064 1065 1033
f 714 739 740 715
f 672 687 689 674
f 458 488 489 457
f 1056 1091 1092 1057
f 284 321 322 285
f 1281 1294 1293 1284
f 1070 1073 1072 1071
f 927 962 963 926
f 1076 1115 1116 1077
f 838 864 865 839
f 1084 1123 1124 1085
f 925 926 929 928
f 1014 1047 1048 1016
f 946 947 949 948
f 1104 1107 1106 1105
f 372 388 387 374
f 868 888 889 869
f 961 990 991 962
f 1273 1277 1278 1274
f 443 469 471 470
f 958 959 961 960
f 1063 1098 1099 1064
f 1064 1099 1100 1065
f 778 810 811 779
f 81 125 127 80
f 1099 1138 1139 1100
f 1024 1056 1057 1025
f 1053 1088 1089 1054
f 790 819 821 793
f 716 719 718 717
f 1040 1077 1078 1043
f 479 507 508 480
f 1122 1163 1164 1123
f 953 986 985 952
f 1265 1273 1274 1267
f 1085 1124 1125 1086
f 494 522 523 495
f 1031 1063 1064 1032
f 1178 1215 1216 1179
f 934 935 937 936
f 977 980 979 978
f 808 840 841 809
f 459 460 461 429
f 866 886 887 867
f 1132 1173 1174 1133
f 1271 1275 1277 1273
f 964 993 994 965
f 1123 1164 1165 1124
f 1124 1165 1166 1125
f 1101 1140 1141 1102
f 1339 1352 1354 1353
f 444 474 476 446
f 1088 1127 1128 1089
f 524 549 550 525
f 337 364 365 338
f 490 518 519 491
f 1170 1207 1208 1171
f 1093 1132 1133 1094
f 578 601 602 579
f 1095 1134 1135 1096
f 1112 1153 1154 1113
f 882 902 903 883
f 844 870 871 845
f 998 1030 1031 999
f 1080 1119 1120 1081
f 1061 1096 1097 1062
f 1118 1159 1160 1119
f 1119 1160 1161 1120
f 1116 1157 1158 1117
f 588 611 612 589
f 593 616 617 594
f 482 510 511 483
f 1162 1199 1200 1163
f 1036 1068 1069 1037
f 184 222 224 186
f 1028 1060 1061 1029
f 194 232 233 195
f 116 117 119 118
f 420 449 450 421
f 1128 1169 1170 1129
f 684 706 707 686
f 57 101 102 59
f 1043 1078 1079 1044
f 1305 1311 1313 1312
f 491 519 520 492
f 1078 1117 1118 1079
f 1135 1176 1177 1136
f 1120 1161 1162 1121
f 962 991 992 963
f 1186 1218 1220 1187
f 446 476 477 447
f 1152 1189 1190 1153
f 1125 1166 1167 1126
f 530 555 556 531
f 1127 1168 1169 1128
f 1096 1135 1136 1097
f 1111 1152 1153 1112
f 1144 1145 1148 1147
f 1062 1097 1098 1063
f 641 656 657 642
f 1157 1194 1195 1158
f 1203 1236 1237 1204
f 1143 1146 1145 1144
f 1048 1083 1084 1049
f 92 133 134 93
f 1100 1139 1140 1101
f 457 489 490 460
f 33 34 37 36
f 273 310 309 272
f 1195 1228 1229 1196
f 1202 1235 1236 1203
f 467 497 498 468
f 1150 1187 1188 1151
f 1071 1072 1075 1074
f 904 920 921 905
f 924 927 926 925
f 1314 1317 1316 1315
f 1041 1076 1077 1040
f 1320 1332 1333 1321
f 1173 1210 1211 1174
f 1174 1211 1212 1175
f 468 498 499 469
f 1160 1197 1198 1161
f 792 793 795 794
f 1288 1289 1292 1291
f 1134 1175 1176 1135
f 1256 1257 1260 1259
f 1165 1202 1203 1166
f 1187 1220 1221 1188
f 1167 1204 1205 1168
f 1356 1371 1370 1355
f 1004 1036 1037 1006
f 1172 1209 1210 1173
f 1001 1033 1034 1002
f 1329 1341 1343 1328
f 1133 1174 1175 1134
f 1306 1308 1307 1301
f 1090 1129 1130 1091
f 209 242 243 210
f 1243 1254 1253 1244
f 993 1025 1026 994
f 1199 1232 1233 1200
f 1208 1241 1242 1209
f 1077 1116 1117 1078
f 609 629 628 608
f 352 373 372 351
f 1200 1233 1234 1201
f 1198 1231 1232 1199
f 1290 1297 1296 1289
f 1072 1113 1114 1075
f 1168 1205 1206 1169
f 484 487 486 485
f 1140 1181 1182 1141
f 1255 1258 1257 1256
f 1210 1243 1244 1211
f 1270 1272 1271 1266
f 1207 1240 1241 1208
f 1204 1237 1238 1205
f 1154 1191 1192 1155
f 1321 1333 1334 1322
f 1313 1323 1325 1324
f 1196 1229 1230 1197
f 985 1018 1019 987
f 1190 1223 1224 1191
f 1156 1193 1194 1157
f 933 966 967 935
f 1298 1301 1300 1299
f 1175 1212 1213 1176
f 1212 1245 1246 1213
f 649 662 663 650
f 1307 1319 1320 1309
f 1328 1343 1344 1330
f 554 577 576 553
f 621 639 638 620
f 1158 1195 1196 1159
f 930 931 933 932
f 1284 1293 1295 1286
f 1300 1309 1310 1303
f 691 694 693 692
f 1266 1271 1273 1265
f 1086 1125 1126 1087
f 516 541 542 517
f 1264 1269 1268 1263
f 1258 1266 1265 1257
f 256 287 289 257
f 1366 1381 1382 1367
f 282 319 320 283
f 1287 1290 1289 1288
f 1324 1325 1327 1326
f 1234 1250 1251 1235
f 1272 1276 1275 1271
f 1340 1342 1341 1329
f 546 570 571 547
f 1308 1318 1319 1307
f 1317 1329 1328 1316
f 1283 1284 1286 1285
f 1319 1331 1332 1320
f 1176 1213 1214 1177
f 976 1004 1006 1005
f 1171 1208 1209 1172
f 1302 1303 1305 1304
f 867 887 888 868
f 492 520 521 493
f 1192 1225 1226 1193
f 227 258 259 228
f 289 324 323 290
f 1009 1045 1046 1012
f 1336 1350 1351 1337
f 1213 1246 1247 1214
f 1334 1348 1349 1335
f 1335 1349 1350 1336
f 928 929 931 930
f 1362 1377 1378 1363
f 1164 1201 1202 1165
f 79 80 83 82
f 234 265 266 235
f 1235 1251 1252 1236
f 1327 1337 1339 1338
f 312 343 344 313
f 1346 1360 1361 1347
f 729 756 757 730
f 481 509 510 482
f 880 900 901 881
f 563 586 585 562
f 1350 1364 1365 1351
f 1303 1310 1311 1305
f 25 64 65 27
f 328 355 356 329
f 1341 1355 1357 1343
f 1342 1356 1355 1341
f 1191 1224 1225 1192
f 1393 1406 1405 1394
f 13 14 16 15
f 1387 1400 1402 1401
f 836 862 863 837
f 1365 1380 1381 1366
f 1310 1321 1322 1311
f 1047 1082 1083 1048
f 189 227 228 190
f 586 609 608 585
f 43 44 47 46
f 137 177 178 138
f 697 698 700 699
f 159 160 162 161
f 67 110 111 69
f 547 571 572 548
f 562 585 587 564
f 1359 1374 1375 1360
f 1280 1281 1284 1283
f 11 12 14 13
f 2 3 6 5
f 1400 1412 1413 1402
