# exported by blender_batch_chars_to_s.py fallback
v 1.104580 -0.270550 0.000000
v 1.110000 -0.270160 0.000000
v 1.110000 -0.273535 0.037627
v 1.103713 -0.273654 0.000000
v 1.115420 -0.270550 0.000000
v 1.116287 -0.273654 0.000000
v 1.110000 -0.278454 0.049988
v 1.103546 -0.278470 0.000000
v 1.116454 -0.278470 0.000000
v 1.110000 -0.283594 0.052421
v 1.103530 -0.283594 0.000000
v 1.116470 -0.283594 0.000000
v 1.110000 -0.288733 0.049988
v 1.103546 -0.288717 0.000000
v 1.116454 -0.288717 0.000000
v 1.110000 -0.293652 0.037627
v 1.103713 -0.293533 0.000000
v 1.116287 -0.293533 0.000000
v 1.110000 -0.297028 0.000000
v 1.104580 -0.296637 0.000000
v 1.115420 -0.296637 0.000000
v 0.664589 -0.342738 0.000000
v 0.670089 -0.342349 0.000000
v 0.670349 -0.345734 0.040120
v 0.663745 -0.345842 0.000000
v 0.676065 -0.342759 0.000000
v 0.679086 -0.345993 0.000000
v 0.670416 -0.350644 0.061810
v 0.663583 -0.350658 0.000000
v 0.679894 -0.350694 0.055469
v 0.685923 -0.347572 0.000000
v 0.688991 -0.351112 0.000000
v 0.670422 -0.355782 0.070333
v 0.663566 -0.355783 0.000000
v 0.679997 -0.355786 0.078863
v 0.689577 -0.355838 0.055915
v 0.695344 -0.352704 0.000000
v 0.696710 -0.356122 0.000000
v 0.670423 -0.360938 0.072966
v 0.663565 -0.360938 0.000000
v 0.680025 -0.360938 0.088941
v 0.689950 -0.360952 0.072972
v 0.699599 -0.361144 0.000000
v 0.670423 -0.366094 0.074167
v 0.663565 -0.366094 0.000000
v 0.680027 -0.366094 0.094468
v 0.689998 -0.366095 0.088552
v 0.699971 -0.366120 0.069269
v 0.709338 -0.362634 0.000000
v 0.709886 -0.366312 0.054705
v 0.715962 -0.363338 0.000000
v 0.718992 -0.366613 0.000000
v 0.670423 -0.371250 0.074023
v 0.663566 -0.371249 0.000000
v 0.680027 -0.371250 0.096007
v 0.690001 -0.371250 0.096495
v 0.699998 -0.371251 0.089574
v 0.709970 -0.371265 0.081360
v 0.719573 -0.371309 0.056055
v 0.725341 -0.368176 0.000000
v 0.726665 -0.371598 0.000000
v 0.670425 -0.376404 0.070588
v 0.663584 -0.376376 0.000000
v 0.680028 -0.376406 0.094036
v 0.690001 -0.376406 0.100167
v 0.700000 -0.376406 0.098838
v 0.709996 -0.376407 0.093499
v 0.719915 -0.376426 0.073043
v 0.729106 -0.376671 0.000000
v 0.670469 -0.381522 0.057075
v 0.663757 -0.381240 0.000000
v 0.680031 -0.381560 0.087351
v 0.690001 -0.381562 0.100091
v 0.700000 -0.381563 0.103702
v 0.709999 -0.381563 0.100774
v 0.719972 -0.381565 0.087596
v 0.729583 -0.381604 0.057412
v 0.735359 -0.378454 0.000000
v 0.736670 -0.381908 0.000000
v 0.670898 -0.386454 0.000000
v 0.664699 -0.384673 0.000000
v 0.680085 -0.386700 0.073381
v 0.690004 -0.386718 0.095604
v 0.700000 -0.386719 0.104502
v 0.710000 -0.386719 0.104502
v 0.719996 -0.386719 0.095605
v 0.729918 -0.386738 0.073411
v 0.739169 -0.386985 0.000000
v 0.680418 -0.391834 0.057412
v 0.673334 -0.391530 0.000000
v 0.690029 -0.391873 0.087596
v 0.700001 -0.391875 0.100774
v 0.710000 -0.391875 0.103703
v 0.720000 -0.391875 0.100114
v 0.729993 -0.391878 0.087723
v 0.739879 -0.391926 0.059713
v 0.745944 -0.388787 0.000000
v 0.749054 -0.392362 0.000000
v 0.680894 -0.396766 0.000000
v 0.674641 -0.394983 0.000000
v 0.690085 -0.397011 0.073043
v 0.700004 -0.397030 0.093499
v 0.710000 -0.397031 0.098847
v 0.720000 -0.397031 0.100359
v 0.730000 -0.397031 0.096223
v 0.739991 -0.397036 0.083581
v 0.749869 -0.397099 0.058622
v 0.755926 -0.393976 0.000000
v 0.759053 -0.397520 0.000000
v 0.690427 -0.402128 0.056055
v 0.683335 -0.401840 0.000000
v 0.700030 -0.402172 0.081362
v 0.710002 -0.402186 0.089613
v 0.720000 -0.402187 0.097025
v 0.730000 -0.402187 0.100337
v 0.740000 -0.402188 0.095860
v 0.749990 -0.402193 0.083477
v 0.759869 -0.402255 0.058610
v 0.765926 -0.399132 0.000000
v 0.769053 -0.402676 0.000000
v 0.691008 -0.406824 0.000000
v 0.684659 -0.405261 0.000000
v 0.700114 -0.407125 0.054717
v 0.710029 -0.407318 0.069474
v 0.720003 -0.407342 0.090101
v 0.730000 -0.407344 0.101811
v 0.740000 -0.407344 0.102272
v 0.750000 -0.407344 0.096199
v 0.759990 -0.407349 0.083507
v 0.769869 -0.407411 0.058613
v 0.775926 -0.404288 0.000000
v 0.779056 -0.407832 0.000000
v 0.700661 -0.410804 0.000000
v 0.694037 -0.410099 0.000000
v 0.710387 -0.412316 0.000000
v 0.720048 -0.412488 0.078261
v 0.730003 -0.412500 0.100801
v 0.740000 -0.412500 0.106332
v 0.750000 -0.412500 0.103258
v 0.760000 -0.412500 0.096316
v 0.769991 -0.412505 0.083534
v 0.779900 -0.412563 0.058969
v 0.785988 -0.409435 0.000000
v 0.789484 -0.412928 0.000000
v 0.720368 -0.417655 0.074868
v 0.713100 -0.417639 0.000000
v 0.730025 -0.417656 0.099475
v 0.740001 -0.417656 0.108240
v 0.750000 -0.417656 0.108191
v 0.760000 -0.417656 0.103546
v 0.770000 -0.417656 0.096454
v 0.779995 -0.417660 0.084965
v 0.789962 -0.417698 0.068209
v 0.799326 -0.414218 0.000000
v 0.799888 -0.417876 0.054609
v 0.805966 -0.414902 0.000000
v 0.809055 -0.418177 0.000000
v 0.720422 -0.422810 0.070808
v 0.713542 -0.422782 0.000000
v 0.730027 -0.422812 0.095658
v 0.740001 -0.422812 0.106725
v 0.750000 -0.422812 0.110609
v 0.760000 -0.422812 0.108700
v 0.770000 -0.422812 0.103659
v 0.780000 -0.422813 0.097109
v 0.789999 -0.422814 0.089574
v 0.799991 -0.422828 0.081688
v 0.809870 -0.422881 0.058383
v 0.815926 -0.419759 0.000000
v 0.819056 -0.423300 0.000000
v 0.720469 -0.427929 0.057110
v 0.713755 -0.427646 0.000000
v 0.730031 -0.427967 0.087713
v 0.740001 -0.427969 0.101953
v 0.750000 -0.427969 0.108540
v 0.760000 -0.427969 0.110947
v 0.770000 -0.427969 0.108851
v 0.780000 -0.427969 0.104209
v 0.790000 -0.427969 0.099715
v 0.800000 -0.427969 0.095303
v 0.809991 -0.427974 0.083404
v 0.819901 -0.428031 0.058961
v 0.825988 -0.424904 0.000000
v 0.829484 -0.428397 0.000000
v 0.720898 -0.432860 0.000000
v 0.714699 -0.431079 0.000000
v 0.730085 -0.433105 0.073178
v 0.740004 -0.433124 0.094626
v 0.750000 -0.433125 0.103471
v 0.760000 -0.433125 0.108862
v 0.770000 -0.433125 0.111510
v 0.780000 -0.433125 0.109769
v 0.790000 -0.433125 0.106700
v 0.800000 -0.433125 0.103004
v 0.810000 -0.433125 0.096377
v 0.819995 -0.433129 0.084959
v 0.829962 -0.433167 0.068209
v 0.839326 -0.429687 0.000000
v 0.839888 -0.433345 0.054609
v 0.845966 -0.430371 0.000000
v 0.849055 -0.433646 0.000000
v 0.730427 -0.438224 0.056285
v 0.723335 -0.437934 0.000000
v 0.740031 -0.438277 0.083188
v 0.750001 -0.438281 0.096414
v 0.760000 -0.438281 0.104266
v 0.770000 -0.438281 0.110951
v 0.780000 -0.438281 0.113850
v 0.790000 -0.438281 0.112722
v 0.800000 -0.438281 0.109198
v 0.810000 -0.438281 0.103734
v 0.820000 -0.438281 0.097115
v 0.829999 -0.438283 0.089574
v 0.839991 -0.438297 0.081688
v 0.849869 -0.438350 0.058382
v 0.855926 -0.435228 0.000000
v 0.859053 -0.438770 0.000000
v 0.731010 -0.442950 0.000000
v 0.724660 -0.441358 0.000000
v 0.740134 -0.443370 0.058607
v 0.750009 -0.443433 0.083815
v 0.760000 -0.443437 0.098218
v 0.770000 -0.443437 0.108944
v 0.780000 -0.443437 0.116496
v 0.790000 -0.443437 0.118040
v 0.800000 -0.443437 0.115027
v 0.810000 -0.443437 0.109819
v 0.820000 -0.443437 0.104327
v 0.830000 -0.443438 0.099722
v 0.840000 -0.443438 0.095303
v 0.849990 -0.443443 0.083384
v 0.859869 -0.443505 0.058604
v 0.865926 -0.440382 0.000000
v 0.869056 -0.443925 0.000000
v 0.740946 -0.448107 0.000000
v 0.734079 -0.446493 0.000000
v 0.750121 -0.448543 0.059939
v 0.760007 -0.448591 0.089357
v 0.770000 -0.448594 0.106152
v 0.780000 -0.448594 0.116852
v 0.790000 -0.448594 0.121763
v 0.800000 -0.448594 0.120296
v 0.810000 -0.448594 0.115601
v 0.820000 -0.448594 0.110522
v 0.830000 -0.448594 0.106772
v 0.840000 -0.448594 0.103003
v 0.850000 -0.448594 0.096264
v 0.859991 -0.448599 0.083529
v 0.869900 -0.448656 0.058969
v 0.875988 -0.445529 0.000000
v 0.879484 -0.449022 0.000000
v 0.750817 -0.453506 0.000000
v 0.744054 -0.451683 0.000000
v 0.760079 -0.453733 0.078167
v 0.770004 -0.453749 0.102917
v 0.780000 -0.453750 0.115369
v 0.790000 -0.453750 0.122528
v 0.800000 -0.453750 0.123783
v 0.810000 -0.453750 0.120776
v 0.820000 -0.453750 0.116395
v 0.830000 -0.453750 0.113074
v 0.840000 -0.453750 0.109223
v 0.850000 -0.453750 0.103690
v 0.860000 -0.453750 0.096465
v 0.869995 -0.453754 0.084965
v 0.879962 -0.453792 0.068208
v 0.889326 -0.450312 0.000000
v 0.889885 -0.453970 0.054581
v 0.895961 -0.450996 0.000000
v 0.898992 -0.454270 0.000000
v 0.760371 -0.458905 0.074898
v 0.753141 -0.458882 0.000000
v 0.770025 -0.458906 0.100142
v 0.780001 -0.458906 0.112132
v 0.790000 -0.458906 0.119882
v 0.800000 -0.458906 0.123922
v 0.810000 -0.458906 0.124169
v 0.820000 -0.458906 0.121746
v 0.830000 -0.458906 0.119091
v 0.840000 -0.458906 0.115148
v 0.850000 -0.458906 0.109770
v 0.860000 -0.458906 0.103804
v 0.870000 -0.458906 0.097119
v 0.879998 -0.458908 0.089553
v 0.889970 -0.458922 0.081354
v 0.899573 -0.458965 0.056056
v 0.905341 -0.455832 0.000000
v 0.906668 -0.459254 0.000000
v 0.760422 -0.464060 0.070813
v 0.753545 -0.464032 0.000000
v 0.770027 -0.464062 0.095771
v 0.780001 -0.464063 0.107719
v 0.790000 -0.464063 0.115194
v 0.800000 -0.464063 0.120702
v 0.810000 -0.464063 0.124401
v 0.820000 -0.464063 0.125714
v 0.830000 -0.464063 0.124697
v 0.840000 -0.464063 0.120912
v 0.850000 -0.464063 0.115598
v 0.860000 -0.464063 0.109882
v 0.870000 -0.464063 0.104324
v 0.880000 -0.464063 0.099572
v 0.889996 -0.464064 0.093584
v 0.899918 -0.464082 0.073078
v 0.909173 -0.464328 0.000000
v 0.760469 -0.469179 0.057110
v 0.753755 -0.468896 0.000000
v 0.770031 -0.469217 0.087723
v 0.780001 -0.469219 0.102098
v 0.790000 -0.469219 0.109641
v 0.800000 -0.469219 0.115707
v 0.810000 -0.469219 0.121669
v 0.820000 -0.469219 0.127016
v 0.830000 -0.469219 0.128988
v 0.840000 -0.469219 0.126214
v 0.850000 -0.469219 0.121232
v 0.860000 -0.469219 0.115714
v 0.870000 -0.469219 0.110516
v 0.880000 -0.469219 0.106579
v 0.890000 -0.469219 0.101367
v 0.899994 -0.469221 0.088023
v 0.909910 -0.469265 0.060099
v 0.916007 -0.466122 0.000000
v 0.919485 -0.469645 0.000000
v 0.760898 -0.474110 0.000000
v 0.754699 -0.472329 0.000000
v 0.770085 -0.474355 0.073179
v 0.780004 -0.474374 0.094639
v 0.790000 -0.474375 0.103654
v 0.800000 -0.474375 0.110226
v 0.810000 -0.474375 0.117471
v 0.820000 -0.474375 0.125124
v 0.830000 -0.474375 0.130449
v 0.840000 -0.474375 0.130517
v 0.850000 -0.474375 0.126527
v 0.860000 -0.474375 0.121362
v 0.870000 -0.474375 0.116434
v 0.880000 -0.474375 0.112732
v 0.890000 -0.474375 0.107327
v 0.900000 -0.474375 0.098014
v 0.909995 -0.474378 0.085235
v 0.919962 -0.474417 0.068232
v 0.929326 -0.470937 0.000000
v 0.929888 -0.474595 0.054611
v 0.935966 -0.471621 0.000000
v 0.939059 -0.474895 0.000000
v 0.770427 -0.479474 0.056285
v 0.763335 -0.479184 0.000000
v 0.780031 -0.479527 0.083189
v 0.790001 -0.479531 0.096438
v 0.800000 -0.479531 0.104564
v 0.810000 -0.479531 0.112949
v 0.820000 -0.479531 0.121415
v 0.830000 -0.479531 0.128922
v 0.840000 -0.479531 0.132983
v 0.850000 -0.479531 0.131286
v 0.860000 -0.479531 0.126776
v 0.870000 -0.479531 0.122191
v 0.880000 -0.479531 0.118431
v 0.890000 -0.479531 0.112325
v 0.900000 -0.479531 0.104544
v 0.910000 -0.479531 0.097218
v 0.919999 -0.479533 0.089581
v 0.929992 -0.479547 0.081708
v 0.939901 -0.479595 0.058740
v 0.945988 -0.476469 0.000000
v 0.949484 -0.479960 0.000000
v 0.771010 -0.484200 0.000000
v 0.764659 -0.482608 0.000000
v 0.780134 -0.484620 0.058606
v 0.790009 -0.484683 0.083792
v 0.800000 -0.484687 0.098019
v 0.810000 -0.484688 0.108335
v 0.820000 -0.484688 0.117189
v 0.830000 -0.484688 0.125586
v 0.840000 -0.484688 0.132271
v 0.850000 -0.484688 0.134521
v 0.860000 -0.484688 0.131911
v 0.870000 -0.484688 0.127898
v 0.880000 -0.484688 0.123899
v 0.890000 -0.484688 0.117242
v 0.900000 -0.484688 0.110269
v 0.910000 -0.484688 0.104376
v 0.920000 -0.484688 0.099730
v 0.930000 -0.484688 0.095417
v 0.939995 -0.484691 0.084834
v 0.949962 -0.484730 0.068200
v 0.959326 -0.481249 0.000000
v 0.959888 -0.484908 0.054610
v 0.965966 -0.481934 0.000000
v 0.969059 -0.485208 0.000000
v 0.780946 -0.489357 0.000000
v 0.774079 -0.487743 0.000000
v 0.790121 -0.489792 0.059755
v 0.800007 -0.489841 0.088199
v 0.810000 -0.489844 0.102928
v 0.820000 -0.489844 0.112763
v 0.830000 -0.489844 0.121498
v 0.840000 -0.489844 0.129564
v 0.850000 -0.489844 0.135402
v 0.860000 -0.489844 0.136269
v 0.870000 -0.489844 0.133378
v 0.880000 -0.489844 0.128883
v 0.890000 -0.489844 0.122171
v 0.900000 -0.489844 0.115879
v 0.910000 -0.489844 0.110544
v 0.920000 -0.489844 0.106774
v 0.930000 -0.489844 0.103053
v 0.940000 -0.489844 0.097027
v 0.949999 -0.489846 0.089569
v 0.959992 -0.489859 0.081708
v 0.969902 -0.489908 0.058763
v 0.975991 -0.486781 0.000000
v 0.979525 -0.490265 0.000000
v 0.790831 -0.494734 0.000000
v 0.784055 -0.492931 0.000000
v 0.800081 -0.494981 0.073486
v 0.810004 -0.494999 0.096300
v 0.820000 -0.495000 0.108186
v 0.830000 -0.495000 0.117202
v 0.840000 -0.495000 0.125811
v 0.850000 -0.495000 0.133633
v 0.860000 -0.495000 0.138761
v 0.870000 -0.495000 0.138350
v 0.880000 -0.495000 0.133774
v 0.890000 -0.495000 0.127260
v 0.900000 -0.495000 0.121453
v 0.910000 -0.495000 0.116475
v 0.920000 -0.495000 0.113083
v 0.930000 -0.495000 0.109282
v 0.940000 -0.495000 0.104258
v 0.950000 -0.495000 0.099722
v 0.960000 -0.495001 0.095421
v 0.969995 -0.495004 0.084947
v 0.979967 -0.495041 0.069656
v 0.989898 -0.491472 0.000000
v 0.989991 -0.495193 0.064292
v 0.999367 -0.491761 0.000000
v 0.999891 -0.495245 0.054087
v 1.005970 -0.492275 0.000000
v 1.009059 -0.495522 0.000000
v 0.800418 -0.500115 0.057430
v 0.793330 -0.499811 0.000000
v 0.810029 -0.500154 0.087865
v 0.820001 -0.500156 0.102908
v 0.830000 -0.500156 0.112765
v 0.840000 -0.500156 0.121547
v 0.850000 -0.500156 0.130023
v 0.860000 -0.500156 0.137593
v 0.870000 -0.500156 0.141252
v 0.880000 -0.500156 0.138390
v 0.890000 -0.500156 0.132485
v 0.900000 -0.500156 0.126919
v 0.910000 -0.500156 0.122293
v 0.920000 -0.500156 0.119161
v 0.930000 -0.500156 0.115238
v 0.940000 -0.500156 0.110472
v 0.950000 -0.500156 0.106770
v 0.960000 -0.500156 0.103055
v 0.970000 -0.500156 0.097077
v 0.979999 -0.500158 0.090331
v 0.990000 -0.500169 0.087750
v 0.999992 -0.500173 0.081480
v 1.009901 -0.500220 0.058725
v 1.015988 -0.497094 0.000000
v 1.019483 -0.500585 0.000000
v 0.800894 -0.505047 0.000000
v 0.794641 -0.503265 0.000000
v 0.810085 -0.505293 0.073457
v 0.820004 -0.505312 0.096299
v 0.830000 -0.505313 0.108186
v 0.840000 -0.505313 0.117207
v 0.850000 -0.505313 0.125887
v 0.860000 -0.505313 0.134200
v 0.870000 -0.505313 0.140797
v 0.880000 -0.505313 0.141824
v 0.890000 -0.505313 0.137698
v 0.900000 -0.505313 0.132470
v 0.910000 -0.505313 0.128156
v 0.920000 -0.505313 0.125170
v 0.930000 -0.505313 0.121069
v 0.940000 -0.505313 0.116436
v 0.950000 -0.505313 0.113081
v 0.960000 -0.505313 0.109285
v 0.970000 -0.505313 0.104317
v 0.980000 -0.505313 0.100291
v 0.990000 -0.505313 0.098673
v 1.000000 -0.505313 0.095285
v 1.009995 -0.505316 0.084825
v 1.019961 -0.505355 0.068200
v 1.029326 -0.501874 0.000000
v 1.029888 -0.505533 0.054610
v 1.035966 -0.502559 0.000000
v 1.039059 -0.505833 0.000000
v 0.810418 -0.510427 0.057430
v 0.803334 -0.510124 0.000000
v 0.820029 -0.510467 0.087865
v 0.830001 -0.510469 0.102908
v 0.840000 -0.510469 0.112766
v 0.850000 -0.510469 0.121555
v 0.860000 -0.510469 0.130131
v 0.870000 -0.510469 0.138264
v 0.880000 -0.510469 0.143404
v 0.890000 -0.510469 0.142412
v 0.900000 -0.510469 0.138120
v 0.910000 -0.510469 0.134122
v 0.920000 -0.510469 0.131102
v 0.930000 -0.510469 0.126714
v 0.940000 -0.510469 0.122277
v 0.950000 -0.510469 0.119160
v 0.960000 -0.510469 0.115244
v 0.970000 -0.510469 0.110558
v 0.980000 -0.510469 0.107471
v 0.990000 -0.510469 0.106019
v 1.000000 -0.510469 0.102961
v 1.010000 -0.510469 0.097021
v 1.019999 -0.510471 0.089568
v 1.029992 -0.510484 0.081708
v 1.039902 -0.510533 0.058763
v 1.045991 -0.507406 0.000000
v 1.049525 -0.510890 0.000000
v 0.810894 -0.515360 0.000000
v 0.804641 -0.513577 0.000000
v 0.820085 -0.515606 0.073457
v 0.830004 -0.515624 0.096299
v 0.840000 -0.515625 0.108186
v 0.850000 -0.515625 0.117208
v 0.860000 -0.515625 0.125900
v 0.870000 -0.515625 0.134343
v 0.880000 -0.515625 0.141671
v 0.890000 -0.515625 0.144842
v 0.900000 -0.515625 0.143175
v 0.910000 -0.515625 0.139946
v 0.920000 -0.515625 0.136857
v 0.930000 -0.515625 0.132329
v 0.940000 -0.515625 0.128145
v 0.950000 -0.515625 0.125170
v 0.960000 -0.515625 0.121076
v 0.970000 -0.515625 0.116540
v 0.980000 -0.515625 0.113901
v 0.990000 -0.515625 0.112477
v 1.000000 -0.515625 0.109209
v 1.010000 -0.515625 0.104253
v 1.020000 -0.515625 0.099722
v 1.030000 -0.515626 0.095421
v 1.039995 -0.515629 0.084947
v 1.049966 -0.515666 0.069636
v 1.059893 -0.512097 0.000000
v 1.059970 -0.515817 0.063959
v 1.069283 -0.512385 0.000000
v 1.069597 -0.515860 0.051772
v 1.075386 -0.512879 0.000000
v 1.076713 -0.516012 0.000000
v 0.820418 -0.520740 0.057429
v 0.813334 -0.520436 0.000000
v 0.830029 -0.520779 0.087865
v 0.840001 -0.520781 0.102907
v 0.850000 -0.520781 0.112763
v 0.860000 -0.520781 0.121515
v 0.870000 -0.520781 0.129820
v 0.880000 -0.520781 0.137176
v 0.890000 -0.520781 0.142651
v 0.900000 -0.520781 0.145261
v 0.910000 -0.520781 0.144177
v 0.920000 -0.520781 0.141822
v 0.930000 -0.520781 0.137830
v 0.940000 -0.520781 0.134074
v 0.950000 -0.520781 0.131104
v 0.960000 -0.520781 0.126723
v 0.970000 -0.520781 0.122392
v 0.980000 -0.520781 0.120064
v 0.990000 -0.520781 0.118650
v 1.000000 -0.520781 0.115177
v 1.010000 -0.520781 0.110468
v 1.020000 -0.520781 0.106770
v 1.030000 -0.520781 0.103054
v 1.040000 -0.520781 0.097070
v 1.049999 -0.520783 0.090184
v 1.059997 -0.520794 0.086063
v 1.069950 -0.520808 0.071512
v 1.079599 -0.520990 0.000000
v 0.820894 -0.525672 0.000000
v 0.814641 -0.523890 0.000000
v 0.830085 -0.525918 0.073457
v 0.840004 -0.525937 0.096299
v 0.850000 -0.525938 0.108181
v 0.860000 -0.525938 0.117126
v 0.870000 -0.525938 0.125272
v 0.880000 -0.525938 0.131920
v 0.890000 -0.525938 0.137620
v 0.900000 -0.525938 0.142056
v 0.910000 -0.525938 0.143334
v 0.920000 -0.525937 0.143319
v 0.930000 -0.525938 0.141831
v 0.940000 -0.525938 0.139616
v 0.950000 -0.525938 0.136888
v 0.960000 -0.525938 0.132361
v 0.970000 -0.525938 0.128278
v 0.980000 -0.525938 0.126175
v 0.990000 -0.525938 0.124724
v 1.000000 -0.525937 0.121017
v 1.010000 -0.525938 0.116433
v 1.020000 -0.525938 0.113081
v 1.030000 -0.525938 0.109285
v 1.040000 -0.525938 0.104307
v 1.050000 -0.525938 0.100130
v 1.060000 -0.525938 0.097247
v 1.069997 -0.525939 0.088388
v 1.079971 -0.525964 0.069206
v 1.089339 -0.522478 0.000000
v 1.089890 -0.526156 0.054728
v 1.095968 -0.523182 0.000000
v 1.099059 -0.526458 0.000000
v 0.830418 -0.531052 0.057429
v 0.823334 -0.530749 0.000000
v 0.840029 -0.531092 0.087864
v 0.850001 -0.531094 0.102892
v 0.860000 -0.531094 0.112590
v 0.870000 -0.531094 0.120475
v 0.880000 -0.531094 0.126609
v 0.890000 -0.531094 0.132035
v 0.900000 -0.531094 0.136540
v 0.910000 -0.531094 0.138374
v 0.920000 -0.531094 0.139882
v 0.930000 -0.531094 0.141838
v 0.940000 -0.531094 0.143128
v 0.950000 -0.531094 0.142141
v 0.960000 -0.531094 0.138089
v 0.970000 -0.531094 0.134296
v 0.980000 -0.531094 0.132325
v 0.990000 -0.531094 0.130705
v 1.000000 -0.531094 0.126668
v 1.010000 -0.531094 0.122274
v 1.020000 -0.531094 0.119160
v 1.030000 -0.531094 0.115243
v 1.040000 -0.531094 0.110544
v 1.050000 -0.531094 0.107273
v 1.060000 -0.531094 0.104615
v 1.070000 -0.531094 0.098034
v 1.079999 -0.531095 0.089769
v 1.089992 -0.531109 0.081725
v 1.099901 -0.531158 0.058741
v 1.105988 -0.528031 0.000000
v 1.109484 -0.531522 0.000000
v 0.830894 -0.535985 0.000000
v 0.824641 -0.534202 0.000000
v 0.840085 -0.536231 0.073454
v 0.850004 -0.536249 0.096253
v 0.860000 -0.536250 0.107772
v 0.870000 -0.536250 0.115266
v 0.880000 -0.536250 0.121218
v 0.890000 -0.536250 0.126518
v 0.900000 -0.536250 0.130693
v 0.910000 -0.536250 0.132321
v 0.920000 -0.536250 0.134256
v 0.930000 -0.536250 0.137910
v 0.940000 -0.536250 0.142222
v 0.950000 -0.536250 0.144864
v 0.960000 -0.536250 0.143201
v 0.970000 -0.536250 0.140229
v 0.980000 -0.536250 0.138416
v 0.990000 -0.536250 0.136571
v 1.000000 -0.536250 0.132312
v 1.010000 -0.536250 0.128145
v 1.020000 -0.536250 0.125170
v 1.030000 -0.536250 0.121074
v 1.040000 -0.536250 0.116505
v 1.050000 -0.536250 0.113561
v 1.060000 -0.536250 0.110691
v 1.070000 -0.536250 0.104790
v 1.080000 -0.536250 0.099802
v 1.090000 -0.536251 0.095422
v 1.099995 -0.536254 0.084834
v 1.109962 -0.536292 0.068200
v 1.119326 -0.532812 0.000000
v 1.119888 -0.536470 0.054610
v 1.125966 -0.533496 0.000000
v 1.129059 -0.536770 0.000000
v 0.840418 -0.541365 0.057423
v 0.833334 -0.541061 0.000000
v 0.850029 -0.541404 0.087762
v 0.860001 -0.541406 0.102100
v 0.870000 -0.541406 0.109629
v 0.880000 -0.541406 0.115580
v 0.890000 -0.541406 0.120909
v 0.900000 -0.541406 0.124717
v 0.910000 -0.541406 0.126175
v 0.920000 -0.541406 0.128283
v 0.930000 -0.541406 0.132454
v 0.940000 -0.541406 0.137704
v 0.950000 -0.541406 0.142711
v 0.960000 -0.541406 0.145303
v 0.970000 -0.541406 0.144515
v 0.980000 -0.541406 0.143530
v 0.990000 -0.541406 0.142122
v 1.000000 -0.541406 0.138063
v 1.010000 -0.541406 0.134117
v 1.020000 -0.541406 0.131100
v 1.030000 -0.541406 0.126716
v 1.040000 -0.541406 0.122313
v 1.050000 -0.541406 0.119423
v 1.060000 -0.541406 0.116030
v 1.070000 -0.541406 0.110738
v 1.080000 -0.541406 0.106807
v 1.090000 -0.541406 0.103056
v 1.100000 -0.541406 0.097027
v 1.109999 -0.541408 0.089569
v 1.119992 -0.541422 0.081707
v 1.129900 -0.541470 0.058740
v 1.135988 -0.538344 0.000000
v 1.139484 -0.541835 0.000000
v 0.840894 -0.546297 0.000000
v 0.834641 -0.544515 0.000000
v 0.850085 -0.546543 0.073180
v 0.860004 -0.546562 0.094636
v 0.870000 -0.546562 0.103604
v 0.880000 -0.546562 0.109758
v 0.890000 -0.546562 0.115091
v 0.900000 -0.546562 0.118645
v 0.910000 -0.546562 0.120064
v 0.920000 -0.546562 0.122405
v 0.930000 -0.546562 0.126886
v 0.940000 -0.546562 0.132200
v 0.950000 -0.546562 0.137648
v 0.960000 -0.546562 0.142074
v 0.970000 -0.546562 0.143527
v 0.980000 -0.546562 0.144519
v 0.990000 -0.546562 0.145366
v 1.000000 -0.546562 0.143234
v 1.010000 -0.546562 0.139944
v 1.020000 -0.546562 0.136831
v 1.030000 -0.546562 0.132315
v 1.040000 -0.546562 0.128142
v 1.050000 -0.546562 0.125245
v 1.060000 -0.546562 0.121312
v 1.070000 -0.546562 0.116509
v 1.080000 -0.546562 0.113089
v 1.090000 -0.546562 0.109282
v 1.100000 -0.546562 0.104258
v 1.110000 -0.546563 0.099722
v 1.120000 -0.546563 0.095416
v 1.129995 -0.546566 0.084834
v 1.139962 -0.546605 0.068200
v 1.149326 -0.543124 0.000000
v 1.149889 -0.546782 0.054610
v 1.155966 -0.543809 0.000000
v 1.159059 -0.547083 0.000000
v 0.850427 -0.551661 0.056285
v 0.843335 -0.551371 0.000000
v 0.860031 -0.551714 0.083182
v 0.870001 -0.551719 0.096330
v 0.880000 -0.551719 0.103680
v 0.890000 -0.551719 0.109150
v 0.900000 -0.551719 0.112474
v 0.910000 -0.551719 0.113903
v 0.920000 -0.551719 0.116573
v 0.930000 -0.551719 0.121385
v 0.940000 -0.551719 0.126729
v 0.950000 -0.551719 0.132043
v 0.960000 -0.551719 0.136543
v 0.970000 -0.551719 0.138414
v 0.980000 -0.551719 0.140234
v 0.990000 -0.551719 0.143261
v 1.000000 -0.551719 0.145324
v 1.010000 -0.551719 0.144129
v 1.020000 -0.551719 0.141629
v 1.030000 -0.551719 0.137645
v 1.040000 -0.551719 0.133889
v 1.050000 -0.551719 0.131035
v 1.060000 -0.551719 0.126733
v 1.070000 -0.551719 0.122273
v 1.080000 -0.551719 0.119152
v 1.090000 -0.551719 0.115237
v 1.100000 -0.551719 0.110472
v 1.110000 -0.551719 0.106770
v 1.120000 -0.551719 0.103053
v 1.130000 -0.551719 0.097027
v 1.139999 -0.551721 0.089568
v 1.149992 -0.551734 0.081708
v 1.159902 -0.551783 0.058763
v 1.165991 -0.548656 0.000000
v 1.169527 -0.552140 0.000000
v 0.851010 -0.556388 0.000000
v 0.844659 -0.554795 0.000000
v 0.860134 -0.556808 0.058583
v 0.870010 -0.556870 0.083509
v 0.880000 -0.556875 0.096258
v 0.890000 -0.556875 0.102911
v 0.900000 -0.556875 0.106017
v 0.910000 -0.556875 0.107475
v 0.920000 -0.556875 0.110615
v 0.930000 -0.556875 0.115722
v 0.940000 -0.556875 0.121261
v 0.950000 -0.556875 0.126521
v 0.960000 -0.556875 0.130693
v 0.970000 -0.556875 0.132324
v 0.980000 -0.556875 0.134295
v 0.990000 -0.556875 0.138074
v 1.000000 -0.556875 0.142076
v 1.010000 -0.556875 0.143117
v 1.020000 -0.556875 0.142510
v 1.030000 -0.556875 0.140601
v 1.040000 -0.556875 0.138094
v 1.050000 -0.556875 0.135771
v 1.060000 -0.556875 0.131859
v 1.070000 -0.556875 0.127890
v 1.080000 -0.556875 0.125029
v 1.090000 -0.556875 0.121034
v 1.100000 -0.556875 0.116422
v 1.110000 -0.556875 0.113069
v 1.120000 -0.556875 0.109278
v 1.130000 -0.556875 0.104256
v 1.140000 -0.556875 0.099715
v 1.150000 -0.556876 0.095416
v 1.159995 -0.556879 0.084950
v 1.169967 -0.556916 0.069762
v 1.179953 -0.553338 0.000000
v 1.179996 -0.557066 0.065708
v 1.189934 -0.553546 0.000000
v 1.189973 -0.557092 0.063368
v 1.199285 -0.553654 0.000000
v 1.199597 -0.557112 0.051658
v 1.205386 -0.554131 0.000000
v 1.206715 -0.557262 0.000000
v 0.860947 -0.561543 0.000000
v 0.854079 -0.559931 0.000000
v 0.870131 -0.561964 0.058603
v 0.880010 -0.562026 0.083376
v 0.890000 -0.562031 0.095171
v 0.900000 -0.562031 0.098669
v 0.910000 -0.562031 0.100295
v 0.920000 -0.562031 0.104389
v 0.930000 -0.562031 0.109885
v 0.940000 -0.562031 0.115597
v 0.950000 -0.562031 0.120909
v 0.960000 -0.562031 0.124717
v 0.970000 -0.562031 0.126174
v 0.980000 -0.562031 0.128275
v 0.990000 -0.562031 0.132318
v 1.000000 -0.562031 0.136524
v 1.010000 -0.562031 0.137992
v 1.020000 -0.562031 0.138120
v 1.030000 -0.562031 0.137711
v 1.040000 -0.562031 0.137019
v 1.050000 -0.562031 0.136261
v 1.060000 -0.562031 0.134476
v 1.070000 -0.562031 0.131948
v 1.080000 -0.562031 0.129855
v 1.090000 -0.562031 0.126296
v 1.100000 -0.562031 0.122060
v 1.110000 -0.562031 0.118985
v 1.120000 -0.562031 0.115167
v 1.130000 -0.562031 0.110424
v 1.140000 -0.562031 0.106661
v 1.150000 -0.562031 0.102969
v 1.160000 -0.562031 0.097026
v 1.169999 -0.562033 0.090241
v 1.180000 -0.562044 0.088016
v 1.189997 -0.562046 0.085105
v 1.199952 -0.562058 0.070613
v 1.209643 -0.562233 0.000000
v 0.870947 -0.566699 0.000000
v 0.864074 -0.565087 0.000000
v 0.880131 -0.567118 0.058368
v 0.890009 -0.567170 0.081461
v 0.900000 -0.567175 0.087750
v 0.910001 -0.567186 0.090337
v 0.920000 -0.567187 0.097169
v 0.930000 -0.567188 0.103805
v 0.940000 -0.567188 0.109766
v 0.950000 -0.567188 0.115091
v 0.960000 -0.567188 0.118645
v 0.970000 -0.567187 0.120064
v 0.980000 -0.567188 0.122389
v 0.990000 -0.567188 0.126672
v 1.000000 -0.567188 0.130654
v 1.010000 -0.567188 0.131871
v 1.020000 -0.567188 0.132035
v 1.030000 -0.567188 0.131998
v 1.040000 -0.567188 0.131905
v 1.050000 -0.567187 0.131792
v 1.060000 -0.567188 0.131445
v 1.070000 -0.567188 0.130967
v 1.080000 -0.567188 0.130957
v 1.090000 -0.567188 0.129653
v 1.100000 -0.567188 0.126364
v 1.110000 -0.567188 0.123692
v 1.120000 -0.567188 0.120310
v 1.130000 -0.567187 0.115852
v 1.140000 -0.567188 0.112110
v 1.150000 -0.567188 0.108452
v 1.160000 -0.567188 0.103692
v 1.170000 -0.567188 0.099112
v 1.180000 -0.567188 0.096419
v 1.190000 -0.567188 0.092237
v 1.199996 -0.567187 0.081873
v 1.209976 -0.567200 0.064762
v 1.219966 -0.563629 0.000000
v 1.219993 -0.567361 0.057562
v 1.229933 -0.563855 0.000000
v 1.229935 -0.567361 0.046922
v 1.239276 -0.563947 0.000000
v 1.239505 -0.567214 0.036270
v 1.245297 -0.564393 0.000000
v 1.246054 -0.567190 0.000000
v 0.880945 -0.571821 0.000000
v 0.874074 -0.570241 0.000000
v 0.890109 -0.572099 0.054086
v 0.900009 -0.572151 0.064292
v 0.910033 -0.572303 0.069665
v 0.920005 -0.572340 0.085079
v 0.930000 -0.572344 0.096470
v 0.940000 -0.572344 0.103685
v 0.950000 -0.572344 0.109150
v 0.960000 -0.572344 0.112474
v 0.970000 -0.572344 0.113901
v 0.980000 -0.572344 0.116536
v 0.990000 -0.572344 0.121020
v 1.000000 -0.572344 0.124668
v 1.010000 -0.572344 0.125672
v 1.020000 -0.572344 0.125802
v 1.030000 -0.572344 0.125808
v 1.040000 -0.572344 0.125801
v 1.050000 -0.572344 0.125796
v 1.060000 -0.572344 0.125805
v 1.070000 -0.572344 0.126107
v 1.080000 -0.572344 0.127491
v 1.090000 -0.572344 0.128680
v 1.100000 -0.572344 0.126311
v 1.110000 -0.572344 0.124249
v 1.120000 -0.572344 0.122266
v 1.130000 -0.572344 0.118440
v 1.140000 -0.572344 0.114101
v 1.150000 -0.572344 0.110576
v 1.160000 -0.572344 0.106502
v 1.170000 -0.572344 0.101280
v 1.180000 -0.572344 0.095031
v 1.189995 -0.572340 0.084382
v 1.199967 -0.572303 0.068403
v 1.209991 -0.572153 0.060046
v 1.219922 -0.572116 0.049891
v 1.229482 -0.571895 0.000000
v 1.239234 -0.570647 0.000000
v 1.245293 -0.570012 0.000000
v 0.890633 -0.575582 0.000000
v 0.884031 -0.575069 0.000000
v 0.900102 -0.575871 0.000000
v 0.910475 -0.577078 0.000000
v 0.920098 -0.577438 0.058992
v 0.930009 -0.577495 0.083529
v 0.940000 -0.577500 0.096258
v 0.950000 -0.577500 0.102911
v 0.960000 -0.577500 0.106017
v 0.970000 -0.577500 0.107471
v 0.980000 -0.577500 0.110554
v 0.990000 -0.577500 0.115179
v 1.000000 -0.577500 0.118586
v 1.010000 -0.577500 0.119490
v 1.020000 -0.577500 0.119605
v 1.030000 -0.577500 0.119612
v 1.040000 -0.577500 0.119613
v 1.050000 -0.577500 0.119616
v 1.060000 -0.577500 0.119674
v 1.070000 -0.577500 0.120155
v 1.080000 -0.577500 0.122055
v 1.090000 -0.577500 0.124203
v 1.100000 -0.577500 0.121895
v 1.110000 -0.577500 0.119822
v 1.120000 -0.577500 0.118347
v 1.130000 -0.577500 0.114860
v 1.140000 -0.577500 0.110192
v 1.150000 -0.577500 0.106465
v 1.160000 -0.577500 0.102667
v 1.170000 -0.577500 0.095972
v 1.179991 -0.577495 0.083373
v 1.189902 -0.577438 0.058938
v 1.199525 -0.577078 0.000000
v 1.209899 -0.575871 0.000000
v 1.219372 -0.575584 0.000000
v 1.226031 -0.575079 0.000000
v 0.920944 -0.582168 0.000000
v 0.914009 -0.580566 0.000000
v 0.930131 -0.582589 0.058604
v 0.940010 -0.582651 0.083376
v 0.950000 -0.582656 0.095171
v 0.960000 -0.582656 0.098669
v 0.970000 -0.582656 0.100290
v 0.980000 -0.582656 0.104312
v 0.990000 -0.582656 0.109208
v 1.000000 -0.582656 0.112400
v 1.010000 -0.582656 0.113220
v 1.020000 -0.582656 0.113324
v 1.030000 -0.582656 0.113331
v 1.040000 -0.582656 0.113331
v 1.050000 -0.582656 0.113336
v 1.060000 -0.582656 0.113408
v 1.070000 -0.582656 0.113992
v 1.080000 -0.582656 0.116250
v 1.090000 -0.582656 0.118750
v 1.100000 -0.582656 0.116233
v 1.110000 -0.582656 0.113867
v 1.120000 -0.582656 0.112456
v 1.130000 -0.582656 0.109188
v 1.140000 -0.582656 0.104236
v 1.150000 -0.582656 0.099698
v 1.160000 -0.582656 0.095280
v 1.169990 -0.582651 0.083365
v 1.179869 -0.582589 0.058595
v 1.189056 -0.582168 0.000000
v 1.195991 -0.580566 0.000000
v 0.930947 -0.587324 0.000000
v 0.924074 -0.585712 0.000000
v 0.940131 -0.587743 0.058368
v 0.950009 -0.587795 0.081461
v 0.960000 -0.587800 0.087750
v 0.970001 -0.587811 0.090331
v 0.980000 -0.587812 0.097071
v 0.990000 -0.587812 0.102956
v 1.000000 -0.587812 0.105920
v 1.010000 -0.587812 0.106621
v 1.020000 -0.587812 0.106707
v 1.030000 -0.587812 0.106713
v 1.040000 -0.587812 0.106714
v 1.050000 -0.587812 0.106720
v 1.060000 -0.587812 0.106811
v 1.070000 -0.587812 0.107544
v 1.080000 -0.587812 0.110277
v 1.090000 -0.587812 0.112974
v 1.100000 -0.587812 0.110271
v 1.110000 -0.587812 0.107451
v 1.120000 -0.587812 0.106018
v 1.130000 -0.587812 0.102960
v 1.140000 -0.587812 0.097020
v 1.149999 -0.587811 0.089567
v 1.159991 -0.587797 0.081687
v 1.169869 -0.587744 0.058382
v 1.179053 -0.587324 0.000000
v 1.185926 -0.585712 0.000000
v 0.940945 -0.592446 0.000000
v 0.934074 -0.590865 0.000000
v 0.950109 -0.592724 0.054086
v 0.960009 -0.592776 0.064292
v 0.970033 -0.592928 0.069656
v 0.980005 -0.592965 0.084939
v 0.990000 -0.592968 0.095281
v 1.000000 -0.592968 0.098533
v 1.010000 -0.592968 0.099102
v 1.020000 -0.592968 0.099160
v 1.030000 -0.592968 0.099164
v 1.040000 -0.592968 0.099164
v 1.050000 -0.592968 0.099173
v 1.060000 -0.592968 0.099304
v 1.070000 -0.592969 0.100334
v 1.080000 -0.592969 0.104041
v 1.090000 -0.592969 0.107046
v 1.100000 -0.592969 0.104038
v 1.110000 -0.592969 0.100272
v 1.120000 -0.592968 0.098673
v 1.130000 -0.592968 0.095285
v 1.139995 -0.592965 0.084825
v 1.149962 -0.592927 0.068200
v 1.159889 -0.592749 0.054609
v 1.169055 -0.592448 0.000000
v 1.175926 -0.590866 0.000000
v 0.950633 -0.596207 0.000000
v 0.944031 -0.595694 0.000000
v 0.960102 -0.596496 0.000000
v 0.970475 -0.597703 0.000000
v 0.980098 -0.598061 0.058747
v 0.990008 -0.598108 0.081466
v 1.000000 -0.598111 0.087508
v 1.010000 -0.598111 0.088271
v 1.020000 -0.598111 0.088321
v 1.030000 -0.598111 0.088322
v 1.040000 -0.598111 0.088323
v 1.050000 -0.598111 0.088338
v 1.060000 -0.598112 0.088564
v 1.070001 -0.598123 0.090366
v 1.080000 -0.598125 0.096813
v 1.090000 -0.598125 0.100803
v 1.100000 -0.598125 0.096812
v 1.109999 -0.598123 0.090314
v 1.120000 -0.598112 0.087750
v 1.129992 -0.598108 0.081480
v 1.139901 -0.598061 0.058725
v 1.149484 -0.597697 0.000000
v 1.159326 -0.596407 0.000000
v 1.165966 -0.595723 0.000000
v 0.980941 -0.602759 0.000000
v 0.974009 -0.601188 0.000000
v 0.990109 -0.603034 0.054049
v 1.000006 -0.603062 0.063732
v 1.010000 -0.603063 0.065194
v 1.020000 -0.603063 0.065308
v 1.030000 -0.603063 0.065313
v 1.040000 -0.603063 0.065314
v 1.050000 -0.603065 0.065350
v 1.060003 -0.603090 0.065873
v 1.070033 -0.603240 0.069768
v 1.080005 -0.603278 0.084746
v 1.090000 -0.603281 0.092819
v 1.099996 -0.603278 0.084741
v 1.109967 -0.603240 0.069650
v 1.119991 -0.603088 0.064292
v 1.129891 -0.603036 0.054087
v 1.139059 -0.602759 0.000000
v 1.145988 -0.601188 0.000000
v 0.990631 -0.606500 0.000000
v 0.984030 -0.606005 0.000000
v 1.000058 -0.606590 0.000000
v 1.010003 -0.606599 0.000000
v 1.020000 -0.606599 0.000000
v 1.030000 -0.606599 0.000000
v 1.040000 -0.606600 0.000000
v 1.050002 -0.606619 0.000000
v 1.060044 -0.606818 0.000000
v 1.070472 -0.608018 0.000000
v 1.080088 -0.608392 0.058965
v 1.090000 -0.608433 0.078070
v 1.099912 -0.608391 0.058965
v 1.109526 -0.608018 0.000000
v 1.119899 -0.606809 0.000000
v 1.129367 -0.606520 0.000000
v 1.135970 -0.606006 0.000000
v 1.080810 -0.613349 0.000000
v 1.073989 -0.611537 0.000000
v 1.089998 -0.613557 0.055035
v 1.099177 -0.613328 0.000000
v 1.106010 -0.611535 0.000000
v 1.089947 -0.618688 0.037685
v 1.083115 -0.618690 0.000000
v 1.096702 -0.618402 0.000000
v 1.089467 -0.623362 0.000000
v 1.083541 -0.623490 0.000000
v 1.095398 -0.621822 0.000000
v 1.087002 -0.626476 0.000000
v 1.083769 -0.626494 0.000000
f 851 887 888 852
f 1024 1051 1052 1025
f 47 56 57 48
f 888 931 932 889
f 874 917 918 875
f 1094 1112 1113 1095
f 93 103 104 94
f 67 75 76 68
f 290 307 306 289
f 1084 1105 1106 1085
f 906 946 945 908
f 1077 1098 1099 1078
f 555 583 582 554
f 1078 1099 1100 1079
f 74 84 85 75
f 120 130 132 131
f 101 110 112 102
f 1032 1059 1060 1033
f 1011 1040 1039 1013
f 14 17 16 13
f 588 619 620 589
f 125 136 137 126
f 890 933 934 891
f 265 283 284 266
f 95 105 106 96
f 8 11 10 7
f 103 113 114 104
f 370 392 394 371
f 69 77 79 78
f 141 151 152 142
f 234 249 251 250
f 1105 1123 1124 1106
f 425 451 452 426
f 1125 1131 1130 1127
f 554 582 584 556
f 1127 1130 1132 1128
f 928 966 967 929
f 7 10 12 9
f 1093 1111 1112 1094
f 109 118 120 119
f 44 53 55 46
f 112 123 124 113
f 1050 1075 1076 1051
f 352 373 374 353
f 165 178 179 166
f 546 577 578 547
f 314 333 334 315
f 834 870 871 835
f 762 797 798 763
f 806 847 848 807
f 173 187 188 174
f 167 180 181 168
f 83 91 92 84
f 87 95 96 88
f 603 634 635 604
f 644 674 676 675
f 291 308 309 292
f 235 253 252 237
f 561 589 590 562
f 175 189 190 176
f 35 41 42 36
f 104 114 115 105
f 227 243 244 228
f 53 62 64 55
f 417 442 444 418
f 569 597 598 570
f 689 722 723 690
f 263 281 282 264
f 818 858 859 820
f 179 193 194 180
f 498 525 526 499
f 896 939 940 897
f 247 263 264 248
f 189 205 206 190
f 198 199 201 200
f 71 81 80 70
f 280 298 299 281
f 445 470 471 446
f 17 20 19 16
f 11 14 13 10
f 587 618 619 588
f 63 71 70 62
f 628 659 660 629
f 867 910 911 868
f 353 374 375 354
f 212 228 229 213
f 85 93 94 86
f 55 64 65 56
f 86 94 95 87
f 88 96 98 97
f 114 125 126 115
f 341 362 363 342
f 301 318 319 302
f 207 223 224 208
f 77 87 88 79
f 70 80 82 72
f 72 82 83 73
f 730 765 766 731
f 309 328 329 310
f 231 247 248 232
f 181 195 196 182
f 182 196 197 184
f 23 24 27 26
f 48 57 58 50
f 986 1015 1016 987
f 305 322 324 323
f 239 255 256 240
f 570 598 599 571
f 850 886 887 851
f 658 691 692 659
f 73 83 84 74
f 161 174 175 162
f 825 863 862 827
f 34 40 39 33
f 330 351 352 331
f 676 708 709 678
f 608 639 640 609
f 371 394 395 372
f 497 524 525 498
f 237 252 254 238
f 191 207 208 192
f 75 85 86 76
f 635 666 667 636
f 84 92 93 85
f 985 1014 1015 986
f 274 292 293 275
f 365 386 387 367
f 10 13 15 12
f 833 869 870 834
f 322 341 342 324
f 272 290 289 271
f 626 657 658 627
f 363 384 385 364
f 373 396 397 374
f 52 59 61 60
f 295 312 313 296
f 255 273 274 256
f 660 693 694 661
f 725 760 761 726
f 955 988 989 956
f 113 124 125 114
f 59 68 69 61
f 619 650 651 620
f 68 76 77 69
f 152 165 166 153
f 434 460 461 435
f 347 368 370 349
f 405 427 428 406
f 618 649 650 619
f 157 168 170 169
f 158 171 173 160
f 144 153 155 154
f 150 163 164 151
f 402 424 425 403
f 203 219 218 202
f 325 348 347 327
f 149 162 163 150
f 118 129 130 120
f 159 172 171 158
f 208 224 225 209
f 1054 1079 1080 1055
f 693 726 727 694
f 437 462 463 439
f 383 406 407 384
f 117 128 129 118
f 151 164 165 152
f 530 561 562 531
f 98 107 109 108
f 621 652 653 622
f 391 412 414 413
f 1004 1033 1034 1005
f 54 63 62 53
f 92 102 103 93
f 264 282 283 265
f 683 716 717 684
f 517 544 545 518
f 90 100 99 89
f 359 380 381 360
f 537 568 569 538
f 1045 1070 1071 1046
f 140 150 151 141
f 202 218 220 204
f 229 245 246 230
f 33 39 41 35
f 473 500 501 474
f 773 808 809 774
f 578 606 607 579
f 192 208 209 193
f 604 635 636 605
f 403 425 426 404
f 381 404 405 382
f 439 463 464 441
f 130 141 142 132
f 385 408 409 386
f 1104 1122 1123 1105
f 700 733 734 701
f 507 534 535 508
f 641 672 673 642
f 667 700 701 668
f 334 355 356 335
f 124 135 136 125
f 692 725 726 693
f 794 835 836 795
f 499 526 527 500
f 525 556 557 526
f 593 624 625 594
f 379 402 403 380
f 410 432 433 411
f 223 239 240 224
f 1096 1114 1115 1097
f 742 777 778 743
f 609 640 641 611
f 549 579 580 551
f 137 147 148 138
f 230 246 247 231
f 215 231 232 217
f 858 894 895 859
f 938 976 977 939
f 475 502 503 476
f 557 585 586 558
f 479 506 507 480
f 317 336 337 318
f 180 194 195 181
f 199 214 215 201
f 240 256 257 241
f 42 47 48 43
f 965 998 999 966
f 503 530 531 504
f 318 337 338 319
f 232 248 249 234
f 127 138 139 128
f 1058 1083 1084 1059
f 909 947 948 910
f 589 620 621 590
f 511 538 539 512
f 865 908 909 866
f 857 893 894 858
f 1070 1091 1092 1071
f 184 197 199 198
f 740 775 776 741
f 797 838 839 798
f 154 155 157 156
f 513 540 541 514
f 139 149 150 140
f 715 750 751 716
f 563 591 592 564
f 388 389 391 390
f 533 564 565 534
f 455 480 481 456
f 721 756 757 722
f 691 724 725 692
f 790 831 832 791
f 128 139 140 129
f 275 293 294 276
f 1101 1119 1120 1102
f 645 680 679 647
f 343 344 346 345
f 469 495 497 470
f 502 529 530 503
f 222 238 239 223
f 1103 1121 1122 1104
f 188 204 205 189
f 653 686 687 654
f 579 607 608 580
f 575 603 604 576
f 115 126 127 116
f 699 732 733 700
f 407 429 430 408
f 831 867 868 832
f 845 881 882 846
f 675 676 678 677
f 217 232 234 233
f 591 622 623 592
f 293 310 311 294
f 294 311 312 295
f 666 699 700 667
f 408 430 431 409
f 338 359 360 339
f 627 658 659 628
f 121 134 133 123
f 221 237 238 222
f 285 303 304 286
f 732 767 768 733
f 954 987 988 955
f 547 578 579 549
f 126 137 138 127
f 701 734 735 702
f 615 646 645 614
f 245 261 262 246
f 286 304 305 288
f 107 117 118 109
f 213 229 230 214
f 354 375 376 355
f 62 70 72 64
f 170 182 184 183
f 647 679 681 648
f 82 89 91 83
f 262 280 281 263
f 996 1025 1026 997
f 145 158 160 147
f 655 688 689 656
f 733 768 769 734
f 171 185 187 173
f 414 435 437 436
f 399 421 422 400
f 400 422 423 401
f 397 419 420 398
f 805 846 847 806
f 617 648 649 618
f 457 482 483 458
f 449 474 475 450
f 819 820 822 821
f 1017 1044 1045 1018
f 58 67 68 59
f 875 918 919 876
f 25 29 28 24
f 661 694 695 662
f 913 951 952 914
f 461 486 487 462
f 335 356 357 336
f 687 720 721 688
f 764 799 800 765
f 939 977 978 940
f 138 148 149 139
f 711 743 745 744
f 155 167 168 157
f 747 780 782 781
f 921 959 960 922
f 1081 1102 1103 1082
f 835 871 872 836
f 350 371 372 351
f 362 383 384 363
f 719 754 755 720
f 357 378 379 358
f 729 764 765 730
f 535 566 567 536
f 576 604 605 577
f 482 509 510 483
f 771 806 807 772
f 49 50 52 51
f 349 370 371 350
f 196 212 213 197
f 748 783 785 750
f 422 448 449 423
f 837 873 874 838
f 289 306 308 291
f 453 478 479 454
f 494 519 521 520
f 375 398 399 376
f 376 399 400 377
f 963 996 997 964
f 358 379 380 359
f 313 332 333 314
f 751 786 787 752
f 106 116 117 107
f 731 766 767 732
f 367 387 389 388
f 368 393 392 370
f 841 877 878 842
f 238 254 255 239
f 869 912 913 870
f 775 810 811 776
f 382 405 406 383
f 783 826 825 785
f 374 397 398 375
f 327 347 349 328
f 586 617 618 587
f 377 400 401 378
f 877 920 921 878
f 889 932 933 890
f 211 227 228 212
f 486 513 514 487
f 634 665 666 635
f 344 364 365 346
f 4 8 7 3
f 843 879 880 844
f 226 242 243 227
f 727 762 763 728
f 187 202 204 188
f 639 670 671 640
f 252 272 271 254
f 914 952 953 915
f 798 839 840 799
f 931 969 970 932
f 813 854 855 814
f 765 800 801 766
f 527 558 559 528
f 755 790 791 756
f 933 971 972 934
f 630 661 662 631
f 599 630 631 600
f 195 211 212 196
f 779 814 815 780
f 228 244 245 229
f 796 837 838 797
f 163 176 177 164
f 899 941 942 901
f 941 979 980 942
f 873 916 917 874
f 429 455 456 430
f 386 409 410 387
f 244 260 261 245
f 1025 1052 1053 1026
f 332 353 354 333
f 702 735 736 703
f 153 166 167 155
f 65 73 74 66
f 421 447 448 422
f 763 798 799 764
f 431 457 458 432
f 568 596 597 569
f 361 382 383 362
f 973 1006 1007 974
f 997 1026 1027 998
f 389 411 412 391
f 782 816 818 817
f 519 546 547 521
f 780 815 816 782
f 738 773 774 739
f 526 557 558 527
f 1005 1034 1035 1006
f 895 938 939 896
f 333 354 355 334
f 462 487 488 463
f 650 683 684 651
f 456 481 482 457
f 476 503 504 477
f 246 262 263 247
f 649 682 683 650
f 919 957 958 920
f 251 266 268 267
f 454 479 480 455
f 284 302 303 285
f 448 473 474 449
f 866 909 910 867
f 846 882 883 847
f 927 965 966 928
f 446 471 472 447
f 560 588 589 561
f 642 673 674 644
f 651 684 685 652
f 1091 1108 1110 1092
f 949 981 983 950
f 481 508 509 482
f 633 664 665 634
f 438 439 441 440
f 815 856 857 816
f 930 968 969 931
f 882 925 926 883
f 1083 1104 1105 1084
f 665 698 699 666
f 871 914 915 872
f 605 636 637 606
f 342 363 364 344
f 268 285 286 270
f 836 872 873 837
f 260 278 279 261
f 1030 1057 1058 1031
f 1069 1089 1091 1070
f 991 1020 1021 992
f 509 536 537 510
f 803 844 845 804
f 495 522 524 497
f 1026 1053 1054 1027
f 999 1028 1029 1000
f 364 385 386 365
f 990 1019 1020 991
f 241 257 258 242
f 210 226 227 211
f 614 645 647 616
f 487 514 515 488
f 812 853 854 813
f 868 911 912 869
f 918 956 957 919
f 673 706 707 674
f 1031 1058 1059 1032
f 501 528 529 502
f 474 501 502 475
f 463 488 489 464
f 864 906 908 865
f 1042 1067 1068 1043
f 814 855 856 815
f 697 730 731 698
f 296 313 314 297
f 485 512 513 486
f 550 551 553 552
f 415 443 442 417
f 820 859 860 822
f 1036 1063 1064 1037
f 36 42 43 38
f 1117 1126 1125 1118
f 597 628 629 598
f 690 723 724 691
f 190 206 207 191
f 39 44 46 41
f 1055 1080 1081 1056
f 267 268 270 269
f 518 545 546 519
f 324 342 344 343
f 528 559 560 529
f 43 48 50 49
f 1043 1068 1069 1044
f 22 25 24 23
f 929 967 968 930
f 283 301 302 284
f 426 452 453 427
f 881 924 925 882
f 512 539 540 513
f 27 30 32 31
f 148 161 162 149
f 329 350 351 330
f 1007 1036 1037 1008
f 297 314 315 298
f 811 852 853 812
f 671 704 705 672
f 488 515 516 489
f 91 101 102 92
f 132 142 144 143
f 1085 1106 1107 1086
f 953 986 987 954
f 757 792 793 758
f 854 890 891 855
f 418 444 445 419
f 424 450 451 425
f 804 845 846 805
f 135 146 145 136
f 94 104 105 95
f 24 28 30 27
f 581 609 611 610
f 774 809 810 775
f 308 327 328 309
f 900 901 903 902
f 447 472 473 448
f 1118 1125 1127 1119
f 102 112 113 103
f 32 36 38 37
f 573 601 602 574
f 827 862 864 828
f 567 595 596 568
f 1041 1065 1067 1042
f 218 236 235 220
f 822 860 861 824
f 321 340 341 322
f 1119 1127 1128 1120
f 565 593 594 566
f 582 615 614 584
f 559 587 588 560
f 259 277 278 260
f 146 159 158 145
f 142 152 153 144
f 541 572 573 542
f 682 715 716 683
f 574 602 603 575
f 704 737 738 705
f 331 352 353 332
f 41 46 47 42
f 166 179 180 167
f 64 72 73 65
f 162 175 176 163
f 558 586 587 559
f 356 377 378 357
f 1034 1061 1062 1035
f 307 326 325 306
f 277 295 296 278
f 174 188 189 175
f 96 106 107 98
f 315 334 335 316
f 686 719 720 687
f 674 707 708 676
f 600 631 632 601
f 243 259 260 244
f 292 309 310 293
f 681 714 715 682
f 539 570 571 540
f 625 656 657 626
f 442 467 469 444
f 394 415 417 395
f 592 623 624 593
f 147 160 161 148
f 276 294 295 277
f 810 851 852 811
f 110 121 123 112
f 749 784 783 748
f 807 848 849 808
f 696 729 730 697
f 491 492 494 493
f 471 498 499 472
f 306 325 327 308
f 225 241 242 226
f 299 316 317 300
f 923 961 962 924
f 340 361 362 341
f 970 1003 1004 971
f 451 476 477 452
f 423 449 450 424
f 387 410 411 389
f 160 173 174 161
f 922 960 961 923
f 769 804 805 770
f 631 662 663 632
f 892 935 936 893
f 435 461 462 437
f 311 330 331 312
f 601 632 633 602
f 168 181 182 170
f 629 660 661 630
f 766 801 802 767
f 623 654 655 624
f 962 995 996 963
f 16 19 21 18
f 348 369 368 347
f 489 516 517 490
f 859 895 896 860
f 856 892 893 857
f 607 638 639 608
f 611 641 642 613
f 663 696 697 664
f 278 296 297 279
f 224 240 241 225
f 194 210 211 195
f 662 695 696 663
f 722 757 758 723
f 876 919 920 877
f 595 626 627 596
f 444 469 470 445
f 707 740 741 708
f 256 274 275 257
f 741 776 777 742
f 654 687 688 655
f 396 418 419 397
f 672 705 706 673
f 346 365 367 366
f 398 420 421 399
f 302 319 320 303
f 969 1002 1003 970
f 685 718 719 686
f 758 793 794 759
f 897 940 941 899
f 664 697 698 665
f 419 445 446 420
f 436 437 439 438
f 817 818 820 819
f 176 190 191 177
f 355 376 377 356
f 799 840 841 800
f 640 671 672 641
f 994 1023 1024 995
f 743 778 779 745
f 209 225 226 210
f 40 45 44 39
f 178 192 193 179
f 458 483 484 459
f 372 395 396 373
f 932 970 971 933
f 123 133 135 124
f 428 454 455 429
f 254 271 273 255
f 460 485 486 461
f 214 230 231 215
f 915 953 954 916
f 703 736 737 704
f 1057 1082 1083 1058
f 739 774 775 740
f 551 580 581 553
f 698 731 732 699
f 220 235 237 221
f 339 360 361 340
f 450 475 476 451
f 695 728 729 696
f 848 884 885 849
f 787 828 829 788
f 319 338 339 320
f 406 428 429 407
f 360 381 382 361
f 717 752 753 718
f 279 297 298 280
f 791 832 833 792
f 566 594 595 567
f 185 203 202 187
f 709 742 743 711
f 384 407 408 385
f 891 934 935 892
f 714 748 750 715
f 916 954 955 917
f 795 836 837 796
f 887 930 931 888
f 430 456 457 431
f 392 416 415 394
f 669 702 703 670
f 734 769 770 735
f 420 446 447 421
f 728 763 764 729
f 883 926 927 884
f 580 608 609 581
f 470 497 498 471
f 281 299 300 282
f 613 642 644 643
f 726 761 762 727
f 706 739 740 707
f 720 755 756 721
f 105 115 116 106
f 572 600 601 573
f 478 505 506 479
f 336 357 358 337
f 477 504 505 478
f 694 727 728 695
f 304 321 322 305
f 840 876 877 841
f 1 4 3 2
f 556 584 585 557
f 441 464 466 465
f 464 489 490 466
f 622 653 654 623
f 310 329 330 311
f 378 401 402 379
f 337 358 359 338
f 412 434 435 414
f 1035 1062 1063 1036
f 1023 1050 1051 1024
f 723 758 759 724
f 472 499 500 473
f 282 300 301 283
f 510 537 538 511
f 767 802 803 768
f 1018 1045 1046 1019
f 1019 1046 1047 1020
f 967 1000 1001 968
f 534 565 566 535
f 257 275 276 258
f 893 936 937 894
f 602 633 634 603
f 759 794 795 760
f 964 997 998 965
f 1003 1032 1033 1004
f 847 883 884 848
f 177 191 192 178
f 504 531 532 505
f 789 830 831 790
f 433 459 460 434
f 735 770 771 736
f 1002 1031 1032 1003
f 1099 1117 1118 1100
f 620 651 652 621
f 745 779 780 747
f 828 864 865 829
f 821 822 824 823
f 894 937 938 895
f 679 712 714 681
f 1080 1101 1102 1081
f 80 90 89 82
f 536 567 568 537
f 538 569 570 539
f 116 127 128 117
f 590 621 622 591
f 544 575 576 545
f 659 692 693 660
f 66 74 75 67
f 543 574 575 544
f 948 982 981 949
f 76 86 87 77
f 56 65 66 57
f 598 629 630 599
f 585 616 617 586
f 885 928 929 886
f 172 186 185 171
f 505 532 533 506
f 808 849 850 809
f 164 177 178 165
f 298 315 316 299
f 606 637 638 607
f 480 507 508 481
f 395 417 418 396
f 886 929 930 887
f 951 984 985 952
f 800 841 842 801
f 987 1016 1017 988
f 708 741 742 709
f 542 573 574 543
f 1033 1060 1061 1034
f 427 453 454 428
f 490 517 518 492
f 802 843 844 803
f 768 803 804 769
f 270 286 288 287
f 248 264 265 249
f 670 703 704 671
f 624 655 656 625
f 705 738 739 706
f 925 963 964 926
f 129 140 141 130
f 995 1024 1025 996
f 849 885 886 850
f 744 745 747 746
f 261 279 280 262
f 136 145 147 137
f 678 709 711 710
f 656 689 690 657
f 1029 1056 1057 1030
f 1062 1087 1088 1063
f 839 875 876 840
f 584 614 616 585
f 300 317 318 301
f 596 627 628 597
f 638 669 670 639
f 680 713 712 679
f 411 433 434 412
f 971 1004 1005 972
f 724 759 760 725
f 577 605 606 578
f 316 335 336 317
f 855 891 892 856
f 718 753 754 719
f 688 721 722 689
f 861 897 899 898
f 862 907 906 864
f 935 973 974 936
f 992 1021 1022 993
f 404 426 427 405
f 452 477 478 453
f 249 265 266 251
f 529 560 561 530
f 853 889 890 854
f 902 903 905 904
f 754 789 790 755
f 3 7 9 6
f 380 403 404 381
f 750 785 786 751
f 829 865 866 830
f 500 527 528 501
f 852 888 889 853
f 632 663 664 633
f 242 258 259 243
f 838 874 875 839
f 1001 1030 1031 1002
f 880 923 924 881
f 753 788 789 754
f 844 880 881 845
f 761 796 797 762
f 736 771 772 737
f 459 484 485 460
f 506 533 534 507
f 1095 1113 1114 1096
f 205 221 222 206
f 204 220 221 205
f 637 668 669 638
f 466 490 492 491
f 752 787 788 753
f 657 690 691 658
f 1027 1054 1055 1028
f 484 511 512 485
f 984 1013 1014 985
f 532 563 564 533
f 496 523 522 495
f 777 812 813 778
f 521 547 549 548
f 1021 1048 1049 1022
f 793 834 835 794
f 911 949 950 912
f 50 58 59 52
f 548 549 551 550
f 432 458 459 433
f 737 772 773 738
f 792 833 834 793
f 443 468 467 442
f 816 857 858 818
f 898 899 901 900
f 193 209 210 194
f 903 943 944 905
f 1044 1069 1070 1045
f 508 535 536 509
f 320 339 340 321
f 89 99 101 91
f 832 868 869 833
f 917 955 956 918
f 28 33 35 30
f 879 922 923 880
f 545 576 577 546
f 46 55 56 47
f 884 927 928 885
f 610 611 613 612
f 1049 1074 1075 1050
f 1013 1039 1041 1014
f 934 972 973 935
f 770 805 806 771
f 1056 1081 1082 1057
f 684 717 718 685
f 648 681 682 649
f 870 913 914 871
f 760 795 796 761
f 266 284 285 268
f 926 964 965 927
f 524 554 556 525
f 1028 1055 1056 1029
f 483 510 511 484
f 937 975 976 938
f 960 993 994 961
f 668 701 702 669
f 988 1017 1018 989
f 878 921 922 879
f 1073 1094 1095 1074
f 258 276 277 259
f 1046 1071 1072 1047
f 1079 1100 1101 1080
f 952 985 986 953
f 716 751 752 717
f 972 1005 1006 973
f 401 423 424 402
f 99 111 110 101
f 206 222 223 207
f 522 555 554 524
f 516 543 544 517
f 920 958 959 921
f 492 518 519 494
f 956 989 990 957
f 830 866 867 831
f 57 66 67 58
f 467 496 495 469
f 1075 1096 1097 1076
f 983 1011 1013 984
f 29 34 33 28
f 950 983 984 951
f 989 1018 1019 990
f 1102 1120 1121 1103
f 975 1008 1009 976
f 1076 1097 1098 1077
f 351 372 373 352
f 776 811 812 777
f 958 991 992 959
f 936 974 975 937
f 981 1012 1011 983
f 271 289 291 273
f 1071 1092 1093 1072
f 1097 1115 1116 1098
f 788 829 830 789
f 712 749 748 714
f 201 215 217 216
f 968 1001 1002 969
f 957 990 991 958
f 1051 1076 1077 1052
f 786 827 828 787
f 2 3 6 5
f 772 807 808 773
f 616 647 648 617
f 998 1027 1028 999
f 976 1009 1010 977
f 564 592 593 565
f 860 896 897 861
f 328 349 350 329
f 1059 1084 1085 1060
f 1020 1047 1048 1021
f 901 942 943 903
f 1014 1041 1042 1015
f 778 813 814 779
f 1016 1043 1044 1017
f 940 978 979 941
f 45 54 53 44
f 1022 1049 1050 1023
f 912 950 951 913
f 636 667 668 637
f 1006 1035 1036 1007
f 540 571 572 541
f 1048 1073 1074 1049
f 924 962 963 925
f 1008 1037 1038 1009
f 514 541 542 515
f 1130 1133 1135 1132
f 515 542 543 516
f 974 1007 1008 975
f 1060 1085 1086 1061
f 961 994 995 962
f 910 948 949 911
f 1047 1072 1073 1048
f 1000 1029 1030 1001
f 908 945 947 909
f 1098 1116 1117 1099
f 785 825 827 786
f 273 291 292 274
f 1061 1086 1087 1062
f 1131 1134 1133 1130
f 1039 1066 1065 1041
f 1072 1093 1094 1073
f 756 791 792 757
f 1092 1110 1111 1093
f 966 999 1000 967
f 1074 1095 1096 1075
f 531 562 563 532
f 1100 1118 1119 1101
f 801 842 843 802
f 197 213 214 199
f 1053 1078 1079 1054
f 809 850 851 810
f 1015 1042 1043 1016
f 872 915 916 873
f 1068 1090 1089 1069
f 1089 1109 1108 1091
f 1134 1137 1136 1133
f 1082 1103 1104 1083
f 30 35 36 32
f 562 590 591 563
f 959 992 993 960
f 312 331 332 313
f 1052 1077 1078 1053
f 842 878 879 843
f 111 122 121 110
f 993 1022 1023 994
f 303 320 321 304
f 571 599 600 572
f 652 685 686 653
f 409 431 432 410
f 13 16 18 15
f 594 625 626 595
f 1120 1128 1129 1121
