# exported by blender_batch_chars_to_s.py fallback
v 0.734036 -0.163202 0.000000
v 0.740631 -0.162535 0.000000
v 0.740112 -0.167208 0.050415
v 0.731012 -0.167578 0.000000
v 0.750055 -0.162414 0.000000
v 0.750006 -0.167171 0.059670
v 0.759945 -0.162414 0.000000
v 0.759995 -0.167171 0.059702
v 0.769374 -0.162534 0.000000
v 0.769924 -0.167201 0.050842
v 0.776035 -0.163189 0.000000
v 0.779527 -0.167490 0.000000
v 0.724718 -0.169681 0.000000
v 0.730479 -0.173906 0.051253
v 0.723758 -0.174267 0.000000
v 0.740033 -0.173851 0.074683
v 0.750001 -0.173847 0.081461
v 0.760000 -0.173847 0.081765
v 0.769996 -0.173850 0.076953
v 0.779967 -0.173886 0.064881
v 0.789899 -0.169073 0.000000
v 0.789991 -0.174088 0.060272
v 0.799367 -0.169461 0.000000
v 0.799891 -0.174159 0.050511
v 0.805969 -0.170153 0.000000
v 0.809059 -0.174532 0.000000
v 0.730426 -0.180785 0.062618
v 0.723585 -0.180820 0.000000
v 0.740028 -0.180782 0.083042
v 0.750001 -0.180782 0.089386
v 0.760000 -0.180782 0.090838
v 0.770000 -0.180782 0.088607
v 0.779999 -0.180784 0.084224
v 0.790000 -0.180799 0.082012
v 0.799992 -0.180804 0.075444
v 0.809902 -0.180868 0.054549
v 0.815991 -0.176651 0.000000
v 0.819527 -0.181349 0.000000
v 0.730425 -0.187716 0.061717
v 0.723584 -0.187692 0.000000
v 0.740028 -0.187733 0.079954
v 0.750001 -0.187734 0.088454
v 0.760000 -0.187734 0.093493
v 0.770000 -0.187734 0.094361
v 0.780000 -0.187734 0.093077
v 0.790000 -0.187735 0.091857
v 0.800000 -0.187735 0.087829
v 0.809995 -0.187740 0.078353
v 0.819967 -0.187789 0.065159
v 0.829954 -0.182965 0.000000
v 0.829997 -0.187992 0.061741
v 0.839940 -0.183246 0.000000
v 0.839995 -0.188028 0.059863
v 0.849374 -0.183392 0.000000
v 0.849924 -0.188060 0.050850
v 0.856035 -0.184048 0.000000
v 0.859530 -0.188349 0.000000
v 1.053969 -0.184049 0.000000
v 1.060626 -0.183393 0.000000
v 1.060078 -0.188061 0.050777
v 1.050514 -0.188359 0.000000
v 1.070055 -0.183274 0.000000
v 1.070004 -0.188030 0.059526
v 1.079939 -0.183274 0.000000
v 1.079970 -0.188030 0.058945
v 1.089280 -0.183392 0.000000
v 1.089542 -0.188053 0.047323
v 1.095324 -0.184032 0.000000
v 1.096244 -0.188233 0.000000
v 0.730460 -0.194407 0.048102
v 0.723755 -0.194191 0.000000
v 0.740053 -0.194653 0.063680
v 0.750004 -0.194686 0.080971
v 0.760000 -0.194687 0.091559
v 0.770000 -0.194688 0.096059
v 0.780000 -0.194688 0.097213
v 0.790000 -0.194688 0.097307
v 0.800000 -0.194688 0.094639
v 0.810000 -0.194688 0.089489
v 0.819999 -0.194690 0.084436
v 0.830000 -0.194705 0.083065
v 0.840000 -0.194707 0.081998
v 0.849996 -0.194709 0.076985
v 0.859967 -0.194745 0.065001
v 0.869954 -0.189921 0.000000
v 0.869997 -0.194946 0.061731
v 0.879940 -0.190199 0.000000
v 0.879994 -0.194981 0.059843
v 0.889369 -0.190346 0.000000
v 0.889891 -0.195020 0.050482
v 0.895970 -0.191015 0.000000
v 0.899059 -0.195392 0.000000
v 1.034034 -0.190974 0.000000
v 1.040674 -0.190053 0.000000
v 1.040112 -0.194984 0.050789
v 1.030941 -0.195389 0.000000
v 1.050038 -0.194747 0.063154
v 1.060004 -0.194709 0.076316
v 1.069999 -0.194707 0.080280
v 1.079973 -0.194706 0.076809
v 1.089572 -0.194704 0.059272
v 1.096398 -0.194691 0.000000
v 0.730751 -0.199355 0.000000
v 0.724678 -0.198432 0.000000
v 0.740405 -0.201362 0.000000
v 0.750051 -0.201620 0.066374
v 0.760003 -0.201639 0.085508
v 0.770000 -0.201641 0.092032
v 0.780000 -0.201641 0.095367
v 0.790000 -0.201641 0.098440
v 0.800000 -0.201641 0.098825
v 0.810000 -0.201641 0.096050
v 0.820000 -0.201641 0.093659
v 0.830000 -0.201641 0.092943
v 0.840000 -0.201641 0.092038
v 0.850000 -0.201641 0.088873
v 0.859999 -0.201643 0.084364
v 0.870000 -0.201658 0.083055
v 0.880000 -0.201660 0.081876
v 0.889992 -0.201664 0.075436
v 0.899902 -0.201727 0.054549
v 0.905991 -0.197510 0.000000
v 0.909527 -0.202209 0.000000
v 1.024009 -0.197510 0.000000
v 1.030098 -0.201727 0.054108
v 1.020473 -0.202209 0.000000
v 1.040008 -0.201662 0.074119
v 1.050001 -0.201643 0.080834
v 1.060000 -0.201641 0.085032
v 1.069999 -0.201640 0.084221
v 1.079967 -0.201635 0.074661
v 1.089521 -0.201566 0.050940
v 1.096241 -0.201204 0.000000
v 0.750424 -0.208515 0.051674
v 0.743291 -0.208134 0.000000
v 0.760030 -0.208573 0.075124
v 0.770002 -0.208592 0.083333
v 0.780000 -0.208594 0.089941
v 0.790000 -0.208594 0.096372
v 0.800000 -0.208594 0.100603
v 0.810000 -0.208594 0.100842
v 0.820000 -0.208594 0.099961
v 0.830000 -0.208594 0.099547
v 0.840000 -0.208594 0.098642
v 0.850000 -0.208594 0.095943
v 0.860000 -0.208594 0.093641
v 0.870000 -0.208594 0.092936
v 0.880000 -0.208594 0.091939
v 0.890000 -0.208595 0.087851
v 0.899995 -0.208599 0.078355
v 0.909967 -0.208649 0.065164
v 0.919957 -0.203824 0.000000
v 0.919997 -0.208852 0.061863
v 0.929998 -0.204092 0.000000
v 0.930000 -0.208885 0.061424
v 0.940000 -0.204118 0.000000
v 0.940000 -0.208888 0.061394
v 0.950000 -0.204119 0.000000
v 0.950000 -0.208888 0.061393
v 0.960000 -0.204119 0.000000
v 0.960000 -0.208888 0.061393
v 0.970000 -0.204119 0.000000
v 0.970000 -0.208888 0.061393
v 0.980000 -0.204119 0.000000
v 0.980000 -0.208888 0.061390
v 0.990000 -0.204118 0.000000
v 0.990000 -0.208888 0.061361
v 1.000002 -0.204092 0.000000
v 1.000000 -0.208885 0.061270
v 1.010044 -0.203824 0.000000
v 1.010003 -0.208852 0.061466
v 1.020033 -0.208649 0.064071
v 1.030005 -0.208598 0.075057
v 1.039999 -0.208592 0.079407
v 1.050000 -0.208577 0.080568
v 1.060000 -0.208575 0.080571
v 1.069991 -0.208570 0.074914
v 1.079866 -0.208501 0.053959
v 1.088986 -0.207937 0.000000
v 1.095282 -0.205791 0.000000
v 0.751008 -0.214846 0.000000
v 0.744656 -0.212739 0.000000
v 0.760114 -0.215252 0.050970
v 0.770029 -0.215512 0.064250
v 0.780003 -0.215545 0.081203
v 0.790000 -0.215547 0.092518
v 0.800000 -0.215547 0.099601
v 0.810000 -0.215547 0.103532
v 0.820000 -0.215547 0.104830
v 0.830000 -0.215547 0.104932
v 0.840000 -0.215547 0.104023
v 0.850000 -0.215547 0.101658
v 0.860000 -0.215547 0.100072
v 0.870000 -0.215547 0.099548
v 0.880000 -0.215547 0.098504
v 0.890000 -0.215547 0.094917
v 0.900000 -0.215547 0.089519
v 0.909999 -0.215549 0.084443
v 0.920000 -0.215564 0.083162
v 0.930000 -0.215566 0.083010
v 0.940000 -0.215566 0.083001
v 0.950000 -0.215566 0.083001
v 0.960000 -0.215566 0.083000
v 0.970000 -0.215566 0.082996
v 0.980000 -0.215566 0.082942
v 0.990000 -0.215566 0.082608
v 1.000000 -0.215566 0.081592
v 1.010000 -0.215564 0.079767
v 1.020000 -0.215547 0.076986
v 1.029996 -0.215527 0.074506
v 1.039967 -0.215490 0.064281
v 1.049997 -0.215289 0.061439
v 1.059994 -0.215253 0.059702
v 1.069891 -0.215214 0.050440
v 1.079055 -0.214842 0.000000
v 1.085921 -0.212711 0.000000
v 0.760662 -0.220212 0.000000
v 0.754038 -0.219263 0.000000
v 0.770401 -0.222221 0.000000
v 0.780050 -0.222481 0.066551
v 0.790003 -0.222499 0.086808
v 0.800000 -0.222500 0.096673
v 0.810000 -0.222500 0.103344
v 0.820000 -0.222500 0.107634
v 0.830000 -0.222500 0.109105
v 0.840000 -0.222500 0.108591
v 0.850000 -0.222500 0.106721
v 0.860000 -0.222500 0.105527
v 0.870000 -0.222500 0.105035
v 0.880000 -0.222500 0.103801
v 0.890000 -0.222500 0.100360
v 0.900000 -0.222500 0.096281
v 0.910000 -0.222500 0.093685
v 0.920000 -0.222501 0.093060
v 0.930000 -0.222501 0.092985
v 0.940000 -0.222501 0.092981
v 0.950000 -0.222501 0.092980
v 0.960000 -0.222501 0.092976
v 0.970000 -0.222501 0.092918
v 0.980000 -0.222501 0.092470
v 0.990000 -0.222501 0.090551
v 1.000000 -0.222501 0.085800
v 1.009995 -0.222496 0.076685
v 1.019963 -0.222443 0.062782
v 1.029921 -0.222210 0.051034
v 1.039529 -0.221888 0.000000
v 1.049954 -0.220314 0.000000
v 1.059940 -0.220035 0.000000
v 1.069369 -0.219888 0.000000
v 1.075969 -0.219220 0.000000
v 0.780414 -0.229399 0.052557
v 0.773289 -0.228997 0.000000
v 0.790028 -0.229450 0.079699
v 0.800001 -0.229453 0.093309
v 0.810000 -0.229453 0.101648
v 0.820000 -0.229453 0.107480
v 0.830000 -0.229453 0.110889
v 0.840000 -0.229453 0.112021
v 0.850000 -0.229453 0.111266
v 0.860000 -0.229453 0.110491
v 0.870000 -0.229453 0.109959
v 0.880000 -0.229453 0.108392
v 0.890000 -0.229453 0.105067
v 0.900000 -0.229453 0.101814
v 0.910000 -0.229453 0.100094
v 0.920000 -0.229453 0.099696
v 0.930000 -0.229453 0.099649
v 0.940000 -0.229453 0.099646
v 0.950000 -0.229453 0.099642
v 0.960000 -0.229453 0.099590
v 0.970000 -0.229453 0.099199
v 0.980000 -0.229453 0.097358
v 0.990000 -0.229453 0.091761
v 0.999994 -0.229450 0.079672
v 1.009910 -0.229392 0.055236
v 1.019485 -0.228878 0.000000
v 1.029331 -0.227138 0.000000
v 1.036031 -0.226227 0.000000
v 0.780880 -0.236078 0.000000
v 0.774637 -0.233648 0.000000
v 0.790082 -0.236383 0.068798
v 0.800004 -0.236405 0.089563
v 0.810000 -0.236406 0.098995
v 0.820000 -0.236406 0.104779
v 0.830000 -0.236406 0.109522
v 0.840000 -0.236406 0.113231
v 0.850000 -0.236406 0.114848
v 0.860000 -0.236406 0.115053
v 0.870000 -0.236406 0.114590
v 0.880000 -0.236406 0.112675
v 0.890000 -0.236406 0.109505
v 0.900000 -0.236406 0.106841
v 0.910000 -0.236406 0.105557
v 0.920000 -0.236406 0.105266
v 0.930000 -0.236406 0.105232
v 0.940000 -0.236406 0.105226
v 0.950000 -0.236406 0.105176
v 0.960000 -0.236406 0.104826
v 0.970000 -0.236406 0.103380
v 0.980000 -0.236406 0.099345
v 0.989996 -0.236405 0.090149
v 0.999921 -0.236384 0.069178
v 1.009187 -0.236078 0.000000
v 1.016007 -0.233632 0.000000
v 0.790374 -0.243353 0.063642
v 0.783162 -0.243289 0.000000
v 0.800025 -0.243359 0.085557
v 0.810001 -0.243359 0.094873
v 0.820000 -0.243359 0.100999
v 0.830000 -0.243359 0.106837
v 0.840000 -0.243359 0.112432
v 0.850000 -0.243359 0.116800
v 0.860000 -0.243359 0.118929
v 0.870000 -0.243359 0.118968
v 0.880000 -0.243359 0.116791
v 0.890000 -0.243359 0.113830
v 0.900000 -0.243359 0.111592
v 0.910000 -0.243359 0.110565
v 0.920000 -0.243359 0.110336
v 0.930000 -0.243359 0.110306
v 0.940000 -0.243359 0.110258
v 0.950000 -0.243359 0.109903
v 0.960000 -0.243359 0.108435
v 0.970000 -0.243359 0.104936
v 0.979999 -0.243359 0.099091
v 0.989975 -0.243359 0.089014
v 0.999629 -0.243357 0.066391
v 1.006859 -0.243327 0.000000
v 0.790475 -0.250237 0.051495
v 0.783719 -0.249872 0.000000
v 0.800033 -0.250307 0.076436
v 0.810001 -0.250312 0.089003
v 0.820000 -0.250313 0.097093
v 0.830000 -0.250313 0.104221
v 0.840000 -0.250313 0.110890
v 0.850000 -0.250313 0.116932
v 0.860000 -0.250313 0.121426
v 0.870000 -0.250313 0.122828
v 0.880000 -0.250313 0.120839
v 0.890000 -0.250313 0.118134
v 0.900000 -0.250313 0.116200
v 0.910000 -0.250313 0.115337
v 0.920000 -0.250313 0.115144
v 0.930000 -0.250313 0.115088
v 0.940000 -0.250313 0.114781
v 0.950000 -0.250313 0.113338
v 0.960000 -0.250313 0.109620
v 0.970000 -0.250313 0.103866
v 0.979999 -0.250313 0.096616
v 0.989973 -0.250312 0.086122
v 0.999578 -0.250309 0.063426
v 1.006456 -0.250271 0.000000
v 0.791013 -0.256611 0.000000
v 0.784715 -0.254463 0.000000
v 0.800124 -0.257198 0.055030
v 0.810007 -0.257262 0.080188
v 0.820000 -0.257266 0.093510
v 0.830000 -0.257266 0.102267
v 0.840000 -0.257266 0.109563
v 0.850000 -0.257266 0.116142
v 0.860000 -0.257266 0.121883
v 0.870000 -0.257266 0.125268
v 0.880000 -0.257266 0.124574
v 0.890000 -0.257266 0.122411
v 0.900000 -0.257266 0.120738
v 0.910000 -0.257266 0.119989
v 0.920000 -0.257266 0.119808
v 0.930000 -0.257266 0.119599
v 0.940000 -0.257266 0.118462
v 0.950000 -0.257266 0.115077
v 0.960000 -0.257266 0.109394
v 0.970000 -0.257266 0.102266
v 0.979999 -0.257266 0.093465
v 0.989969 -0.257263 0.079669
v 0.999531 -0.257213 0.052202
v 1.006245 -0.256830 0.000000
v 0.800817 -0.263890 0.000000
v 0.794059 -0.261431 0.000000
v 0.810079 -0.264196 0.069233
v 0.820004 -0.264218 0.090495
v 0.830000 -0.264219 0.100965
v 0.840000 -0.264219 0.108388
v 0.850000 -0.264219 0.114789
v 0.860000 -0.264219 0.120701
v 0.870000 -0.264219 0.125552
v 0.880000 -0.264219 0.127411
v 0.890000 -0.264219 0.126436
v 0.900000 -0.264219 0.125121
v 0.910000 -0.264219 0.124475
v 0.920000 -0.264219 0.124260
v 0.930000 -0.264219 0.123630
v 0.940000 -0.264219 0.120962
v 0.950000 -0.264219 0.115732
v 0.960000 -0.264219 0.109065
v 0.970000 -0.264219 0.101313
v 0.979996 -0.264218 0.090628
v 0.989918 -0.264196 0.069222
v 0.999118 -0.263892 0.000000
v 1.005302 -0.261462 0.000000
v 0.810371 -0.271170 0.066394
v 0.803141 -0.271140 0.000000
v 0.820025 -0.271172 0.089058
v 0.830001 -0.271172 0.099429
v 0.840000 -0.271172 0.106497
v 0.850000 -0.271172 0.112829
v 0.860000 -0.271172 0.118986
v 0.870000 -0.271172 0.124818
v 0.880000 -0.271172 0.128877
v 0.890000 -0.271172 0.129231
v 0.900000 -0.271172 0.128427
v 0.910000 -0.271172 0.127946
v 0.920000 -0.271172 0.127678
v 0.930000 -0.271172 0.126479
v 0.940000 -0.271172 0.122151
v 0.950000 -0.271172 0.115930
v 0.960000 -0.271172 0.108978
v 0.969999 -0.271172 0.101105
v 0.979975 -0.271172 0.090002
v 0.989632 -0.271170 0.066829
v 0.996895 -0.271143 0.000000
v 0.810422 -0.278121 0.063426
v 0.803545 -0.278083 0.000000
v 0.820027 -0.278125 0.086125
v 0.830001 -0.278125 0.096657
v 0.840000 -0.278125 0.104169
v 0.850000 -0.278125 0.110959
v 0.860000 -0.278125 0.117463
v 0.870000 -0.278125 0.123574
v 0.880000 -0.278125 0.127920
v 0.890000 -0.278125 0.128511
v 0.900000 -0.278125 0.128080
v 0.910000 -0.278125 0.127863
v 0.920000 -0.278125 0.127667
v 0.930000 -0.278125 0.126478
v 0.940000 -0.278125 0.122151
v 0.950000 -0.278125 0.115931
v 0.960000 -0.278125 0.108978
v 0.969999 -0.278125 0.101105
v 0.979975 -0.278125 0.090002
v 0.989632 -0.278127 0.066829
v 0.996895 -0.278154 0.000000
v 0.810469 -0.285025 0.052202
v 0.803755 -0.284643 0.000000
v 0.820031 -0.285075 0.079669
v 0.830001 -0.285078 0.093467
v 0.840000 -0.285078 0.102303
v 0.850000 -0.285078 0.109672
v 0.860000 -0.285078 0.116394
v 0.870000 -0.285078 0.122137
v 0.880000 -0.285078 0.125085
v 0.890000 -0.285078 0.124978
v 0.900000 -0.285078 0.124483
v 0.910000 -0.285078 0.124333
v 0.920000 -0.285078 0.124243
v 0.930000 -0.285078 0.123629
v 0.940000 -0.285078 0.120965
v 0.950000 -0.285078 0.115746
v 0.960000 -0.285078 0.109071
v 0.970000 -0.285078 0.101314
v 0.979996 -0.285079 0.090628
v 0.989918 -0.285101 0.069222
v 0.999118 -0.285405 0.000000
v 0.810884 -0.291704 0.000000
v 0.804698 -0.289274 0.000000
v 0.820082 -0.292009 0.069221
v 0.830004 -0.292030 0.090628
v 0.840000 -0.292031 0.101315
v 0.850000 -0.292031 0.109081
v 0.860000 -0.292031 0.115774
v 0.870000 -0.292031 0.120647
v 0.880000 -0.292031 0.121600
v 0.890000 -0.292031 0.120651
v 0.900000 -0.292031 0.119986
v 0.910000 -0.292031 0.119824
v 0.920000 -0.292031 0.119789
v 0.930000 -0.292031 0.119600
v 0.940000 -0.292031 0.118490
v 0.950000 -0.292031 0.115180
v 0.960000 -0.292031 0.109468
v 0.970000 -0.292031 0.102285
v 0.979999 -0.292031 0.093467
v 0.989969 -0.292034 0.079669
v 0.999531 -0.292084 0.052201
v 1.005302 -0.287835 0.000000
v 1.006244 -0.292467 0.000000
v 0.820371 -0.298982 0.066809
v 0.813143 -0.298954 0.000000
v 0.830025 -0.298984 0.089999
v 0.840001 -0.298984 0.101099
v 0.850000 -0.298984 0.108897
v 0.860000 -0.298984 0.115196
v 0.870000 -0.298984 0.118561
v 0.880000 -0.298984 0.117788
v 0.890000 -0.298984 0.116172
v 0.900000 -0.298984 0.115336
v 0.910000 -0.298984 0.115146
v 0.920000 -0.298984 0.115123
v 0.930000 -0.298984 0.115103
v 0.940000 -0.298984 0.114902
v 0.950000 -0.298984 0.113759
v 0.960000 -0.298984 0.110083
v 0.970000 -0.298984 0.104054
v 0.979999 -0.298984 0.096646
v 0.989972 -0.298984 0.086121
v 0.999575 -0.298988 0.063405
v 1.006417 -0.299025 0.000000
v 0.820419 -0.305937 0.066499
v 0.813526 -0.305936 0.000000
v 0.830027 -0.305937 0.089933
v 0.840001 -0.305937 0.101067
v 0.850000 -0.305937 0.108770
v 0.860000 -0.305937 0.114368
v 0.870000 -0.305937 0.115717
v 0.880000 -0.305937 0.113699
v 0.890000 -0.305937 0.111584
v 0.900000 -0.305937 0.110565
v 0.910000 -0.305937 0.110336
v 0.920000 -0.305937 0.110311
v 0.930000 -0.305937 0.110331
v 0.940000 -0.305937 0.110475
v 0.950000 -0.305937 0.110810
v 0.960000 -0.305937 0.109994
v 0.970000 -0.305937 0.105902
v 0.979999 -0.305937 0.099316
v 0.989973 -0.305937 0.088975
v 0.999577 -0.305938 0.066061
v 1.006434 -0.305940 0.000000
v 0.820423 -0.312891 0.066479
v 0.813563 -0.312891 0.000000
v 0.830027 -0.312891 0.089929
v 0.840001 -0.312891 0.101046
v 0.850000 -0.312891 0.108548
v 0.860000 -0.312891 0.113151
v 0.870000 -0.312891 0.112537
v 0.880000 -0.312891 0.109503
v 0.890000 -0.312891 0.106842
v 0.900000 -0.312891 0.105557
v 0.910000 -0.312891 0.105266
v 0.920000 -0.312891 0.105234
v 0.930000 -0.312891 0.105266
v 0.940000 -0.312891 0.105540
v 0.950000 -0.312891 0.106609
v 0.960000 -0.312891 0.107814
v 0.970000 -0.312891 0.106024
v 0.979999 -0.312891 0.100129
v 0.989973 -0.312891 0.089634
v 0.999577 -0.312891 0.066408
v 1.006435 -0.312891 0.000000
v 0.820423 -0.319844 0.066478
v 0.813565 -0.319844 0.000000
v 0.830027 -0.319844 0.089924
v 0.840001 -0.319844 0.100971
v 0.850000 -0.319844 0.107965
v 0.860000 -0.319844 0.110896
v 0.870000 -0.319844 0.108853
v 0.880000 -0.319844 0.105140
v 0.890000 -0.319844 0.101819
v 0.900000 -0.319844 0.100095
v 0.910000 -0.319844 0.099696
v 0.920000 -0.319844 0.099652
v 0.930000 -0.319844 0.099696
v 0.940000 -0.319844 0.100085
v 0.950000 -0.319844 0.101675
v 0.960000 -0.319844 0.103911
v 0.970000 -0.319844 0.103352
v 0.979999 -0.319844 0.098582
v 0.989973 -0.319844 0.088845
v 0.999577 -0.319844 0.066049
v 1.006434 -0.319842 0.000000
v 0.820423 -0.326797 0.066479
v 0.813563 -0.326797 0.000000
v 0.830027 -0.326797 0.089915
v 0.840001 -0.326797 0.100851
v 0.850000 -0.326797 0.107089
v 0.860000 -0.326797 0.107872
v 0.870000 -0.326797 0.104777
v 0.880000 -0.326797 0.100511
v 0.890000 -0.326797 0.096293
v 0.900000 -0.326797 0.093686
v 0.910000 -0.326796 0.093060
v 0.920000 -0.326796 0.092990
v 0.930000 -0.326796 0.093059
v 0.940000 -0.326797 0.093677
v 0.950000 -0.326797 0.096151
v 0.960000 -0.326797 0.099281
v 0.970000 -0.326797 0.099098
v 0.979999 -0.326797 0.094580
v 0.989972 -0.326797 0.085467
v 0.999574 -0.326793 0.063311
v 1.006417 -0.326756 0.000000
v 0.820419 -0.333750 0.066498
v 0.813526 -0.333751 0.000000
v 0.830027 -0.333750 0.089899
v 0.840001 -0.333750 0.100636
v 0.850000 -0.333750 0.105853
v 0.860000 -0.333750 0.104469
v 0.870000 -0.333750 0.100350
v 0.880000 -0.333750 0.095266
v 0.890000 -0.333750 0.089556
v 0.899999 -0.333747 0.084446
v 0.910000 -0.333733 0.083162
v 0.920000 -0.333731 0.083020
v 0.930000 -0.333733 0.083162
v 0.940001 -0.333747 0.084435
v 0.950000 -0.333750 0.089392
v 0.960000 -0.333750 0.093850
v 0.970000 -0.333750 0.093748
v 0.979999 -0.333750 0.088193
v 0.989966 -0.333744 0.076329
v 0.999521 -0.333674 0.051468
v 1.006242 -0.333311 0.000000
v 0.820371 -0.340705 0.066803
v 0.813143 -0.340733 0.000000
v 0.830025 -0.340703 0.089901
v 0.840001 -0.340703 0.100157
v 0.850000 -0.340703 0.103826
v 0.860000 -0.340703 0.100648
v 0.870000 -0.340703 0.095266
v 0.880000 -0.340703 0.088543
v 0.889995 -0.340698 0.078431
v 0.899967 -0.340648 0.065169
v 0.909997 -0.340445 0.061864
v 0.920000 -0.340414 0.061455
v 0.930003 -0.340445 0.061864
v 0.940033 -0.340648 0.065156
v 0.950005 -0.340698 0.078235
v 0.960000 -0.340702 0.086809
v 0.970000 -0.340702 0.086692
v 0.979990 -0.340696 0.076663
v 0.989866 -0.340612 0.054285
v 0.998986 -0.340046 0.000000
v 1.005282 -0.337901 0.000000
v 0.820082 -0.347679 0.069214
v 0.810880 -0.347983 0.000000
v 0.830004 -0.347657 0.090449
v 0.840000 -0.347656 0.099726
v 0.850000 -0.347656 0.101472
v 0.860000 -0.347656 0.096660
v 0.870000 -0.347656 0.089000
v 0.879992 -0.347651 0.076971
v 0.889902 -0.347572 0.054718
v 0.899527 -0.347088 0.000000
v 0.909957 -0.345474 0.000000
v 0.920000 -0.345232 0.000000
v 0.930043 -0.345474 0.000000
v 0.940473 -0.347088 0.000000
v 0.950098 -0.347570 0.054447
v 0.960008 -0.347633 0.074302
v 0.969991 -0.347633 0.074283
v 0.979869 -0.347563 0.054079
v 0.989053 -0.346997 0.000000
v 0.995921 -0.344824 0.000000
v 0.804640 -0.350416 0.000000
v 0.810417 -0.354664 0.052531
v 0.803334 -0.355075 0.000000
v 0.820028 -0.354612 0.079715
v 0.830001 -0.354609 0.093174
v 0.840000 -0.354609 0.099813
v 0.850000 -0.354609 0.098974
v 0.860000 -0.354609 0.092347
v 0.869992 -0.354606 0.079756
v 0.879879 -0.354540 0.055005
v 0.889058 -0.353954 0.000000
v 0.895991 -0.351790 0.000000
v 0.950941 -0.353905 0.000000
v 0.944009 -0.351787 0.000000
v 0.960103 -0.354275 0.048900
v 0.969898 -0.354275 0.048899
v 0.979055 -0.353904 0.000000
v 0.985926 -0.351773 0.000000
v 0.810085 -0.361588 0.066158
v 0.800898 -0.361920 0.000000
v 0.820004 -0.361563 0.086746
v 0.830000 -0.361562 0.096180
v 0.840000 -0.361562 0.100089
v 0.850000 -0.361562 0.096184
v 0.859996 -0.361562 0.086749
v 0.869918 -0.361537 0.066204
v 0.879169 -0.361203 0.000000
v 0.885945 -0.358773 0.000000
v 0.960573 -0.358937 0.000000
v 0.954026 -0.358281 0.000000
v 0.969427 -0.358937 0.000000
v 0.975974 -0.358281 0.000000
v 0.794696 -0.364322 0.000000
v 0.800466 -0.368570 0.052150
v 0.793718 -0.368953 0.000000
v 0.810031 -0.368519 0.079234
v 0.820001 -0.368516 0.092261
v 0.830000 -0.368516 0.098793
v 0.840000 -0.368516 0.099553
v 0.849999 -0.368516 0.093045
v 0.859972 -0.368513 0.079681
v 0.869583 -0.368461 0.052529
v 0.876670 -0.368050 0.000000
v 0.800373 -0.375474 0.063729
v 0.793162 -0.375539 0.000000
v 0.810025 -0.375469 0.086103
v 0.820001 -0.375469 0.095938
v 0.830000 -0.375469 0.100172
v 0.840000 -0.375469 0.098154
v 0.849996 -0.375468 0.089481
v 0.859918 -0.375446 0.068794
v 0.869120 -0.375140 0.000000
v 0.875360 -0.372709 0.000000
v 0.800083 -0.382445 0.068792
v 0.790884 -0.382750 0.000000
v 0.810004 -0.382423 0.089474
v 0.820000 -0.382422 0.097878
v 0.830000 -0.382422 0.098862
v 0.839999 -0.382422 0.094592
v 0.849975 -0.382422 0.085537
v 0.859626 -0.382416 0.063642
v 0.866838 -0.382351 0.000000
v 0.784695 -0.385179 0.000000
v 0.790466 -0.389428 0.052216
v 0.783718 -0.389812 0.000000
v 0.800031 -0.389378 0.079596
v 0.810001 -0.389375 0.092802
v 0.820000 -0.389375 0.098349
v 0.830000 -0.389375 0.095959
v 0.839999 -0.389375 0.088868
v 0.849967 -0.389370 0.076427
v 0.859525 -0.389299 0.051495
v 0.866281 -0.388935 0.000000
v 0.790373 -0.396334 0.063727
v 0.783162 -0.396399 0.000000
v 0.800025 -0.396328 0.086050
v 0.810001 -0.396328 0.095373
v 0.820000 -0.396328 0.097488
v 0.830000 -0.396328 0.092105
v 0.839992 -0.396325 0.079733
v 0.849875 -0.396259 0.054957
v 0.858987 -0.395674 0.000000
v 0.865285 -0.393526 0.000000
v 0.790083 -0.403304 0.068785
v 0.780885 -0.403610 0.000000
v 0.800004 -0.403282 0.089370
v 0.810000 -0.403281 0.097050
v 0.820000 -0.403281 0.095414
v 0.829996 -0.403280 0.086648
v 0.839918 -0.403255 0.066197
v 0.849169 -0.402922 0.000000
v 0.855940 -0.400492 0.000000
v 0.774695 -0.406038 0.000000
v 0.780466 -0.410287 0.052216
v 0.773718 -0.410671 0.000000
v 0.790031 -0.410237 0.079590
v 0.800001 -0.410234 0.092714
v 0.810000 -0.410234 0.097639
v 0.819999 -0.410234 0.092723
v 0.829972 -0.410232 0.079652
v 0.839583 -0.410179 0.052528
v 0.846670 -0.409769 0.000000
v 0.780373 -0.417193 0.063726
v 0.773162 -0.417258 0.000000
v 0.790025 -0.417188 0.086041
v 0.800001 -0.417188 0.095296
v 0.810000 -0.417188 0.097031
v 0.819996 -0.417187 0.089368
v 0.829918 -0.417165 0.068788
v 0.839120 -0.416859 0.000000
v 0.845360 -0.414428 0.000000
v 0.780082 -0.424163 0.068781
v 0.770880 -0.424469 0.000000
v 0.790004 -0.424141 0.089300
v 0.800000 -0.424141 0.096788
v 0.809999 -0.424141 0.095195
v 0.819975 -0.424140 0.086013
v 0.829627 -0.424135 0.063723
v 0.836838 -0.424070 0.000000
v 0.764640 -0.426900 0.000000
v 0.770417 -0.431149 0.052525
v 0.763330 -0.431559 0.000000
v 0.780028 -0.431097 0.079608
v 0.790001 -0.431094 0.092393
v 0.800000 -0.431094 0.096556
v 0.809999 -0.431094 0.091899
v 0.819969 -0.431091 0.079203
v 0.829534 -0.431040 0.052148
v 0.836282 -0.430657 0.000000
v 0.770082 -0.438073 0.066190
v 0.760831 -0.438406 0.000000
v 0.780004 -0.438048 0.086554
v 0.790000 -0.438047 0.094731
v 0.800000 -0.438047 0.094717
v 0.809996 -0.438046 0.086548
v 0.819915 -0.438021 0.066144
v 0.829102 -0.437690 0.000000
v 0.835304 -0.435288 0.000000
v 0.754060 -0.440836 0.000000
v 0.760125 -0.445069 0.054957
v 0.751013 -0.445654 0.000000
v 0.770007 -0.445003 0.079726
v 0.780000 -0.445000 0.092005
v 0.790000 -0.445000 0.096766
v 0.799999 -0.445000 0.092513
v 0.809972 -0.444997 0.079641
v 0.819583 -0.444945 0.052527
v 0.826666 -0.444535 0.000000
v 0.744715 -0.447802 0.000000
v 0.750475 -0.452029 0.051495
v 0.743719 -0.452394 0.000000
v 0.760033 -0.451959 0.076426
v 0.770001 -0.451953 0.088865
v 0.780000 -0.451953 0.095925
v 0.790000 -0.451953 0.097928
v 0.799996 -0.451952 0.090170
v 0.809918 -0.451930 0.069191
v 0.819120 -0.451626 0.000000
v 0.825360 -0.449194 0.000000
v 0.750374 -0.458913 0.063642
v 0.743162 -0.458977 0.000000
v 0.760025 -0.458906 0.085546
v 0.770001 -0.458906 0.094696
v 0.780000 -0.458906 0.099410
v 0.789999 -0.458906 0.098895
v 0.799975 -0.458906 0.089731
v 0.809629 -0.458904 0.066791
v 0.816857 -0.458876 0.000000
v 0.750083 -0.465882 0.068794
v 0.740885 -0.466188 0.000000
v 0.760004 -0.465860 0.089545
v 0.770000 -0.465859 0.098732
v 0.780000 -0.465859 0.102590
v 0.789999 -0.465859 0.099791
v 0.799973 -0.465859 0.089790
v 0.809581 -0.465859 0.066491
v 0.816476 -0.465858 0.000000
v 0.734698 -0.468616 0.000000
v 0.740469 -0.472865 0.052197
v 0.733757 -0.473248 0.000000
v 0.750031 -0.472815 0.079631
v 0.760001 -0.472813 0.093272
v 0.770000 -0.472813 0.101312
v 0.780000 -0.472813 0.104902
v 0.789999 -0.472813 0.100480
v 0.799973 -0.472813 0.089886
v 0.809581 -0.472813 0.066498
v 0.816476 -0.472814 0.000000
v 0.740425 -0.479769 0.063403
v 0.733584 -0.479806 0.000000
v 0.750028 -0.479766 0.086105
v 0.760001 -0.479766 0.096530
v 0.770000 -0.479766 0.103245
v 0.780000 -0.479766 0.105902
v 0.789999 -0.479766 0.100720
v 0.799975 -0.479766 0.089973
v 0.809629 -0.479768 0.066809
v 0.816860 -0.479796 0.000000
v 0.740423 -0.486719 0.066028
v 0.733566 -0.486721 0.000000
v 0.750027 -0.486719 0.088847
v 0.760001 -0.486719 0.098960
v 0.770000 -0.486719 0.104864
v 0.780000 -0.486719 0.106514
v 0.790000 -0.486719 0.101007
v 0.799996 -0.486720 0.090611
v 0.809921 -0.486741 0.069267
v 0.819183 -0.487047 0.000000
v 0.740423 -0.493672 0.066028
v 0.733566 -0.493670 0.000000
v 0.750027 -0.493672 0.088848
v 0.760001 -0.493672 0.098973
v 0.770000 -0.493672 0.104972
v 0.780000 -0.493672 0.106951
v 0.790000 -0.493672 0.101975
v 0.800000 -0.493672 0.093499
v 0.809993 -0.493675 0.080189
v 0.819876 -0.493740 0.055033
v 0.825941 -0.489506 0.000000
v 0.828991 -0.494326 0.000000
v 0.740425 -0.500622 0.063403
v 0.733584 -0.500585 0.000000
v 0.750028 -0.500625 0.086109
v 0.760001 -0.500625 0.096579
v 0.770000 -0.500625 0.103577
v 0.780000 -0.500625 0.107211
v 0.790000 -0.500625 0.103691
v 0.800000 -0.500625 0.097053
v 0.809999 -0.500625 0.089011
v 0.819970 -0.500630 0.076499
v 0.829576 -0.500702 0.051834
v 0.835344 -0.496476 0.000000
v 0.836709 -0.501085 0.000000
v 0.740469 -0.507525 0.052201
v 0.733757 -0.507143 0.000000
v 0.750031 -0.507575 0.079668
v 0.760001 -0.507578 0.093444
v 0.770000 -0.507578 0.101984
v 0.780000 -0.507578 0.107128
v 0.790000 -0.507578 0.105813
v 0.800000 -0.507578 0.100906
v 0.810000 -0.507578 0.094987
v 0.819997 -0.507579 0.086185
v 0.829949 -0.507598 0.066459
v 0.839599 -0.507857 0.000000
v 0.740884 -0.514204 0.000000
v 0.734698 -0.511774 0.000000
v 0.750083 -0.514508 0.069221
v 0.760004 -0.514530 0.090615
v 0.770000 -0.514531 0.101112
v 0.780000 -0.514531 0.107384
v 0.790000 -0.514531 0.108308
v 0.800000 -0.514531 0.104810
v 0.810000 -0.514531 0.099694
v 0.820000 -0.514531 0.092490
v 0.829997 -0.514533 0.081201
v 0.839971 -0.514567 0.064251
v 0.849338 -0.509866 0.000000
v 0.849886 -0.514826 0.050970
v 0.855962 -0.510816 0.000000
v 0.858992 -0.515232 0.000000
v 0.750371 -0.521482 0.066807
v 0.743143 -0.521454 0.000000
v 0.760025 -0.521484 0.089982
v 0.770001 -0.521484 0.100959
v 0.780000 -0.521484 0.107904
v 0.790000 -0.521484 0.110759
v 0.800000 -0.521484 0.108404
v 0.810000 -0.521484 0.103410
v 0.820000 -0.521484 0.096988
v 0.830000 -0.521484 0.090056
v 0.839998 -0.521486 0.083358
v 0.849970 -0.521505 0.075126
v 0.859573 -0.521564 0.051647
v 0.865341 -0.517339 0.000000
v 0.866668 -0.521953 0.000000
v 0.750419 -0.528437 0.066465
v 0.743526 -0.528436 0.000000
v 0.760027 -0.528437 0.089796
v 0.770001 -0.528437 0.100699
v 0.780000 -0.528437 0.107866
v 0.790000 -0.528437 0.112100
v 0.800000 -0.528437 0.111227
v 0.810000 -0.528437 0.106649
v 0.820000 -0.528437 0.101153
v 0.830000 -0.528437 0.096272
v 0.840000 -0.528438 0.092350
v 0.849996 -0.528439 0.085551
v 0.859918 -0.528464 0.066041
v 0.869169 -0.528797 0.000000
v 0.750423 -0.535390 0.066063
v 0.743564 -0.535389 0.000000
v 0.760027 -0.535391 0.088989
v 0.770001 -0.535391 0.099396
v 0.780000 -0.535391 0.106336
v 0.790000 -0.535391 0.111556
v 0.800000 -0.535391 0.113052
v 0.810000 -0.535391 0.109783
v 0.820000 -0.535391 0.105344
v 0.830000 -0.535391 0.101594
v 0.840000 -0.535391 0.098249
v 0.850000 -0.535391 0.092071
v 0.859993 -0.535394 0.079721
v 0.869879 -0.535460 0.055002
v 0.875945 -0.531227 0.000000
v 0.879058 -0.536046 0.000000
v 0.750425 -0.542340 0.063405
v 0.743584 -0.542303 0.000000
v 0.760028 -0.542344 0.086121
v 0.770001 -0.542344 0.096653
v 0.780000 -0.542344 0.104126
v 0.790000 -0.542344 0.110463
v 0.800000 -0.542344 0.114284
v 0.810000 -0.542344 0.112908
v 0.820000 -0.542344 0.109507
v 0.830000 -0.542344 0.106292
v 0.840000 -0.542344 0.102658
v 0.850000 -0.542344 0.096769
v 0.860000 -0.542344 0.089005
v 0.869992 -0.542349 0.076971
v 0.879902 -0.542428 0.054718
v 0.885991 -0.538210 0.000000
v 0.889527 -0.542912 0.000000
v 0.750469 -0.549244 0.052201
v 0.743757 -0.548861 0.000000
v 0.760031 -0.549294 0.079667
v 0.770001 -0.549297 0.093456
v 0.780000 -0.549297 0.102250
v 0.790000 -0.549297 0.109367
v 0.800000 -0.549297 0.114604
v 0.810000 -0.549297 0.115701
v 0.820000 -0.549297 0.113537
v 0.830000 -0.549297 0.110516
v 0.840000 -0.549297 0.106334
v 0.850000 -0.549297 0.100972
v 0.860000 -0.549297 0.095289
v 0.870000 -0.549297 0.088544
v 0.879995 -0.549302 0.078431
v 0.889967 -0.549352 0.065169
v 0.899956 -0.544527 0.000000
v 0.899997 -0.549555 0.061863
v 0.909998 -0.544796 0.000000
v 0.910000 -0.549589 0.061424
v 0.920000 -0.544821 0.000000
v 0.920000 -0.549591 0.061389
v 0.929997 -0.544823 0.000000
v 0.930000 -0.549591 0.061271
v 0.939942 -0.544835 0.000000
v 0.939995 -0.549593 0.059832
v 0.949374 -0.544956 0.000000
v 0.949924 -0.549623 0.050848
v 0.956035 -0.545610 0.000000
v 0.959527 -0.549912 0.000000
v 0.750884 -0.555923 0.000000
v 0.744698 -0.553493 0.000000
v 0.760083 -0.556227 0.069187
v 0.770004 -0.556249 0.090492
v 0.780000 -0.556250 0.100963
v 0.790000 -0.556250 0.108340
v 0.800000 -0.556250 0.114260
v 0.810000 -0.556250 0.117722
v 0.820000 -0.556250 0.117159
v 0.830000 -0.556250 0.114311
v 0.840000 -0.556250 0.109897
v 0.850000 -0.556250 0.105119
v 0.860000 -0.556250 0.100408
v 0.870000 -0.556250 0.095269
v 0.880000 -0.556250 0.089556
v 0.889999 -0.556253 0.084446
v 0.900000 -0.556267 0.083162
v 0.910000 -0.556269 0.083010
v 0.920000 -0.556269 0.082995
v 0.930000 -0.556269 0.082904
v 0.940000 -0.556269 0.081988
v 0.949996 -0.556272 0.076980
v 0.959967 -0.556307 0.064883
v 0.969898 -0.551495 0.000000
v 0.969991 -0.556510 0.060272
v 0.979367 -0.551883 0.000000
v 0.979891 -0.556581 0.050511
v 0.985970 -0.552575 0.000000
v 0.989059 -0.556954 0.000000
v 0.760371 -0.563201 0.066392
v 0.753144 -0.563171 0.000000
v 0.770025 -0.563203 0.089057
v 0.780001 -0.563203 0.099428
v 0.790000 -0.563203 0.106480
v 0.800000 -0.563203 0.112630
v 0.810000 -0.563203 0.117578
v 0.820000 -0.563203 0.119363
v 0.830000 -0.563203 0.117455
v 0.840000 -0.563203 0.113439
v 0.850000 -0.563203 0.109186
v 0.860000 -0.563203 0.104925
v 0.870000 -0.563203 0.100520
v 0.880000 -0.563203 0.096293
v 0.890000 -0.563203 0.093686
v 0.900000 -0.563204 0.093060
v 0.910000 -0.563204 0.092985
v 0.920000 -0.563204 0.092973
v 0.930000 -0.563204 0.092865
v 0.940000 -0.563204 0.092033
v 0.950000 -0.563204 0.088868
v 0.959999 -0.563206 0.084267
v 0.970000 -0.563220 0.082023
v 0.979992 -0.563226 0.075445
v 0.989900 -0.563290 0.054524
v 0.995988 -0.559073 0.000000
v 0.999480 -0.563781 0.000000
v 0.760422 -0.570153 0.063426
v 0.753545 -0.570114 0.000000
v 0.770027 -0.570156 0.086123
v 0.780001 -0.570156 0.096642
v 0.790000 -0.570156 0.104086
v 0.800000 -0.570156 0.110556
v 0.810000 -0.570156 0.115967
v 0.820000 -0.570156 0.119428
v 0.830000 -0.570156 0.119710
v 0.840000 -0.570156 0.116909
v 0.850000 -0.570156 0.113145
v 0.860000 -0.570156 0.109153
v 0.870000 -0.570156 0.105161
v 0.880000 -0.570156 0.101820
v 0.890000 -0.570156 0.100095
v 0.900000 -0.570156 0.099696
v 0.910000 -0.570156 0.099648
v 0.920000 -0.570156 0.099636
v 0.930000 -0.570156 0.099508
v 0.940000 -0.570156 0.098640
v 0.950000 -0.570156 0.095935
v 0.960000 -0.570156 0.093528
v 0.970000 -0.570157 0.092011
v 0.980000 -0.570157 0.087849
v 0.989994 -0.570161 0.078199
v 0.999941 -0.570213 0.063166
v 1.009242 -0.565518 0.000000
v 1.009594 -0.570440 0.048427
v 1.015383 -0.566415 0.000000
v 1.016712 -0.570675 0.000000
v 0.760469 -0.577056 0.052198
v 0.753755 -0.576674 0.000000
v 0.770031 -0.577107 0.079633
v 0.780001 -0.577109 0.093307
v 0.790000 -0.577109 0.101755
v 0.800000 -0.577109 0.108127
v 0.810000 -0.577109 0.113253
v 0.820000 -0.577109 0.117761
v 0.830000 -0.577109 0.120689
v 0.840000 -0.577109 0.120020
v 0.850000 -0.577109 0.116930
v 0.860000 -0.577109 0.113197
v 0.870000 -0.577109 0.109566
v 0.880000 -0.577109 0.106845
v 0.890000 -0.577109 0.105557
v 0.900000 -0.577109 0.105266
v 0.910000 -0.577109 0.105231
v 0.920000 -0.577109 0.105210
v 0.930000 -0.577109 0.105024
v 0.940000 -0.577109 0.104039
v 0.950000 -0.577109 0.101650
v 0.960000 -0.577109 0.099935
v 0.970000 -0.577109 0.098551
v 0.980000 -0.577109 0.094903
v 0.990000 -0.577109 0.089210
v 0.999996 -0.577113 0.081299
v 1.009950 -0.577144 0.065241
v 1.019599 -0.577391 0.000000
v 0.760885 -0.583734 0.000000
v 0.754698 -0.581305 0.000000
v 0.770083 -0.584040 0.068795
v 0.780004 -0.584062 0.089563
v 0.790000 -0.584063 0.099004
v 0.800000 -0.584063 0.104862
v 0.810000 -0.584063 0.110032
v 0.820000 -0.584063 0.115292
v 0.830000 -0.584063 0.120046
v 0.840000 -0.584063 0.122198
v 0.850000 -0.584063 0.120474
v 0.860000 -0.584063 0.117113
v 0.870000 -0.584063 0.113866
v 0.880000 -0.584063 0.111595
v 0.890000 -0.584063 0.110565
v 0.900000 -0.584063 0.110336
v 0.910000 -0.584063 0.110307
v 0.920000 -0.584063 0.110271
v 0.930000 -0.584063 0.109988
v 0.940000 -0.584063 0.108803
v 0.950000 -0.584063 0.106730
v 0.960000 -0.584063 0.105320
v 0.970000 -0.584063 0.103833
v 0.980000 -0.584063 0.100328
v 0.990000 -0.584063 0.095853
v 1.000000 -0.584063 0.090670
v 1.009997 -0.584065 0.080840
v 1.019971 -0.584098 0.064218
v 1.029338 -0.579397 0.000000
v 1.029889 -0.584357 0.051012
v 1.035967 -0.580347 0.000000
v 1.039059 -0.584764 0.000000
v 0.770374 -0.591009 0.063642
v 0.763162 -0.590945 0.000000
v 0.780025 -0.591015 0.085557
v 0.790001 -0.591016 0.094874
v 0.800000 -0.591016 0.101004
v 0.810000 -0.591016 0.106902
v 0.820000 -0.591016 0.112890
v 0.830000 -0.591016 0.118663
v 0.840000 -0.591016 0.122949
v 0.850000 -0.591016 0.123459
v 0.860000 -0.591016 0.120964
v 0.870000 -0.591016 0.118147
v 0.880000 -0.591016 0.116201
v 0.890000 -0.591016 0.115337
v 0.900000 -0.591016 0.115146
v 0.910000 -0.591016 0.115121
v 0.920000 -0.591016 0.115072
v 0.930000 -0.591016 0.114707
v 0.940000 -0.591016 0.113336
v 0.950000 -0.591016 0.111493
v 0.960000 -0.591016 0.110186
v 0.970000 -0.591016 0.108412
v 0.980000 -0.591016 0.104970
v 0.990000 -0.591016 0.100979
v 1.000000 -0.591016 0.096238
v 1.010000 -0.591016 0.089949
v 1.019999 -0.591017 0.083393
v 1.029992 -0.591037 0.075602
v 1.039902 -0.591102 0.054558
v 1.045991 -0.586885 0.000000
v 1.049525 -0.591584 0.000000
v 0.770475 -0.597893 0.051495
v 0.763719 -0.597528 0.000000
v 0.780033 -0.597963 0.076436
v 0.790001 -0.597969 0.089001
v 0.800000 -0.597969 0.097083
v 0.810000 -0.597969 0.104187
v 0.820000 -0.597969 0.110833
v 0.830000 -0.597969 0.117032
v 0.840000 -0.597969 0.122440
v 0.850000 -0.597969 0.125448
v 0.860000 -0.597969 0.124601
v 0.870000 -0.597969 0.122418
v 0.880000 -0.597969 0.120748
v 0.890000 -0.597969 0.120000
v 0.900000 -0.597969 0.119834
v 0.910000 -0.597969 0.119811
v 0.920000 -0.597969 0.119753
v 0.930000 -0.597969 0.119322
v 0.940000 -0.597969 0.117802
v 0.950000 -0.597969 0.116101
v 0.960000 -0.597969 0.114798
v 0.970000 -0.597969 0.112682
v 0.980000 -0.597969 0.109311
v 0.990000 -0.597969 0.105540
v 1.000000 -0.597969 0.100907
v 1.010000 -0.597969 0.096270
v 1.020000 -0.597969 0.092649
v 1.030000 -0.597970 0.087930
v 1.039995 -0.597974 0.078353
v 1.049966 -0.598024 0.065002
v 1.059893 -0.593212 0.000000
v 1.059967 -0.598228 0.059798
v 1.069278 -0.593599 0.000000
v 1.069542 -0.598285 0.047629
v 1.075324 -0.594265 0.000000
v 1.076245 -0.598470 0.000000
v 0.771013 -0.604267 0.000000
v 0.764715 -0.602119 0.000000
v 0.780124 -0.604854 0.055026
v 0.790007 -0.604918 0.080155
v 0.800000 -0.604922 0.093385
v 0.810000 -0.604922 0.101951
v 0.820000 -0.604922 0.108919
v 0.830000 -0.604922 0.115062
v 0.840000 -0.604922 0.120818
v 0.850000 -0.604922 0.125563
v 0.860000 -0.604922 0.127390
v 0.870000 -0.604922 0.126505
v 0.880000 -0.604922 0.125259
v 0.890000 -0.604922 0.124629
v 0.900000 -0.604922 0.124488
v 0.910000 -0.604922 0.124467
v 0.920000 -0.604922 0.124396
v 0.930000 -0.604922 0.123899
v 0.940000 -0.604922 0.122261
v 0.950000 -0.604922 0.120642
v 0.960000 -0.604922 0.119271
v 0.970000 -0.604922 0.116770
v 0.980000 -0.604922 0.113397
v 0.990000 -0.604922 0.109552
v 1.000000 -0.604922 0.105298
v 1.010000 -0.604922 0.101695
v 1.020000 -0.604922 0.098952
v 1.030000 -0.604922 0.094967
v 1.040000 -0.604922 0.089498
v 1.049998 -0.604924 0.084045
v 1.059972 -0.604939 0.079366
v 1.069575 -0.604943 0.061951
v 1.076417 -0.604966 0.000000
v 0.780818 -0.611545 0.000000
v 0.774059 -0.609088 0.000000
v 0.790079 -0.611852 0.068852
v 0.800004 -0.611874 0.089690
v 0.810000 -0.611875 0.099640
v 0.820000 -0.611875 0.106607
v 0.830000 -0.611875 0.112860
v 0.840000 -0.611875 0.118940
v 0.850000 -0.611875 0.124657
v 0.860000 -0.611875 0.128738
v 0.870000 -0.611875 0.129764
v 0.880000 -0.611875 0.129498
v 0.890000 -0.611875 0.129190
v 0.900000 -0.611875 0.129144
v 0.910000 -0.611875 0.129142
v 0.920000 -0.611875 0.129045
v 0.930000 -0.611875 0.128445
v 0.940000 -0.611875 0.126739
v 0.950000 -0.611875 0.125162
v 0.960000 -0.611875 0.123654
v 0.970000 -0.611875 0.120825
v 0.980000 -0.611875 0.117366
v 0.990000 -0.611875 0.113405
v 1.000000 -0.611875 0.109590
v 1.010000 -0.611875 0.106619
v 1.020000 -0.611875 0.104125
v 1.030000 -0.611875 0.100390
v 1.040000 -0.611875 0.096182
v 1.049999 -0.611875 0.092673
v 1.059973 -0.611876 0.086605
v 1.069577 -0.611876 0.065661
v 1.076434 -0.611877 0.000000
v 0.790373 -0.618823 0.063737
v 0.783159 -0.618758 0.000000
v 0.800025 -0.618828 0.086189
v 0.810001 -0.618828 0.096669
v 0.820000 -0.618828 0.104140
v 0.830000 -0.618828 0.110829
v 0.840000 -0.618828 0.117064
v 0.850000 -0.618828 0.122816
v 0.860000 -0.618828 0.127527
v 0.870000 -0.618828 0.130546
v 0.880000 -0.618828 0.132262
v 0.890000 -0.618828 0.133100
v 0.900000 -0.618828 0.133616
v 0.910000 -0.618828 0.133819
v 0.920000 -0.618828 0.133715
v 0.930000 -0.618828 0.132955
v 0.940000 -0.618828 0.131243
v 0.950000 -0.618828 0.129648
v 0.960000 -0.618828 0.127847
v 0.970000 -0.618828 0.124785
v 0.980000 -0.618828 0.121128
v 0.990000 -0.618828 0.117237
v 1.000000 -0.618828 0.113841
v 1.010000 -0.618828 0.111220
v 1.020000 -0.618828 0.108645
v 1.030000 -0.618828 0.105050
v 1.040000 -0.618828 0.101374
v 1.049999 -0.618828 0.097452
v 1.059973 -0.618828 0.088994
v 1.069577 -0.618828 0.066345
v 1.076435 -0.618828 0.000000
v 0.790466 -0.625728 0.052218
v 0.783718 -0.625344 0.000000
v 0.800031 -0.625778 0.079638
v 0.810001 -0.625781 0.093332
v 0.820000 -0.625781 0.101945
v 0.830000 -0.625781 0.108895
v 0.840000 -0.625781 0.114888
v 0.850000 -0.625781 0.120146
v 0.860000 -0.625781 0.124505
v 0.870000 -0.625781 0.128237
v 0.880000 -0.625781 0.131584
v 0.890000 -0.625781 0.134539
v 0.900000 -0.625781 0.136806
v 0.910000 -0.625781 0.138084
v 0.920000 -0.625781 0.138342
v 0.930000 -0.625781 0.137526
v 0.940000 -0.625781 0.135840
v 0.950000 -0.625781 0.134182
v 0.960000 -0.625781 0.131993
v 0.970000 -0.625781 0.128720
v 0.980000 -0.625781 0.124867
v 0.990000 -0.625781 0.121147
v 1.000000 -0.625781 0.118097
v 1.010000 -0.625781 0.115658
v 1.020000 -0.625781 0.112857
v 1.030000 -0.625781 0.109258
v 1.040000 -0.625781 0.105323
v 1.049999 -0.625781 0.099880
v 1.059973 -0.625781 0.089722
v 1.069577 -0.625781 0.066460
v 1.076435 -0.625781 0.000000
v 0.790884 -0.632406 0.000000
v 0.784695 -0.629977 0.000000
v 0.800083 -0.632712 0.068806
v 0.810004 -0.632733 0.089685
v 0.820000 -0.632734 0.099615
v 0.830000 -0.632734 0.106438
v 0.840000 -0.632734 0.112091
v 0.850000 -0.632734 0.116777
v 0.860000 -0.632734 0.120828
v 0.870000 -0.632734 0.124683
v 0.880000 -0.632734 0.128546
v 0.890000 -0.632734 0.132649
v 0.900000 -0.632734 0.136824
v 0.910000 -0.632734 0.140443
v 0.920000 -0.632734 0.142222
v 0.930000 -0.632734 0.141974
v 0.940000 -0.632734 0.140513
v 0.950000 -0.632734 0.138807
v 0.960000 -0.632734 0.136176
v 0.970000 -0.632734 0.132588
v 0.980000 -0.632734 0.128675
v 0.990000 -0.632734 0.125173
v 1.000000 -0.632734 0.122377
v 1.010000 -0.632734 0.119961
v 1.020000 -0.632734 0.116755
v 1.030000 -0.632734 0.112752
v 1.040000 -0.632734 0.107759
v 1.049999 -0.632734 0.100818
v 1.059973 -0.632734 0.089901
v 1.069577 -0.632734 0.066477
v 1.076435 -0.632734 0.000000
v 0.800373 -0.639682 0.063731
v 0.793162 -0.639617 0.000000
v 0.810025 -0.639687 0.086150
v 0.820001 -0.639687 0.096473
v 0.830000 -0.639687 0.103381
v 0.840000 -0.639687 0.108716
v 0.850000 -0.639687 0.113081
v 0.860000 -0.639687 0.117019
v 0.870000 -0.639687 0.120907
v 0.880000 -0.639687 0.124984
v 0.890000 -0.639687 0.129529
v 0.900000 -0.639687 0.134522
v 0.910000 -0.639687 0.139622
v 0.920000 -0.639687 0.143677
v 0.930000 -0.639687 0.145251
v 0.940000 -0.639687 0.144819
v 0.950000 -0.639687 0.143340
v 0.960000 -0.639687 0.140387
v 0.970000 -0.639687 0.136494
v 0.980000 -0.639687 0.132623
v 0.990000 -0.639687 0.129323
v 1.000000 -0.639687 0.126649
v 1.010000 -0.639687 0.123961
v 1.020000 -0.639687 0.120010
v 1.030000 -0.639687 0.114959
v 1.040000 -0.639687 0.108718
v 1.049999 -0.639687 0.101045
v 1.059973 -0.639687 0.089928
v 1.069577 -0.639687 0.066479
v 1.076435 -0.639687 0.000000
v 0.800466 -0.646587 0.052149
v 0.793718 -0.646204 0.000000
v 0.810031 -0.646638 0.079235
v 0.820001 -0.646640 0.092318
v 0.830000 -0.646641 0.099671
v 0.840000 -0.646641 0.104792
v 0.850000 -0.646641 0.109117
v 0.860000 -0.646641 0.113163
v 0.870000 -0.646641 0.117172
v 0.880000 -0.646641 0.121532
v 0.890000 -0.646641 0.126402
v 0.900000 -0.646641 0.131706
v 0.910000 -0.646641 0.137198
v 0.920000 -0.646641 0.142191
v 0.930000 -0.646641 0.145451
v 0.940000 -0.646641 0.147022
v 0.950000 -0.646641 0.146718
v 0.960000 -0.646641 0.144236
v 0.970000 -0.646641 0.140459
v 0.980000 -0.646641 0.136733
v 0.990000 -0.646641 0.133565
v 1.000000 -0.646641 0.130711
v 1.010000 -0.646641 0.127094
v 1.020000 -0.646641 0.121934
v 1.030000 -0.646641 0.115790
v 1.040000 -0.646641 0.108937
v 1.049999 -0.646641 0.101077
v 1.059973 -0.646641 0.089930
v 1.069577 -0.646641 0.066479
v 1.076435 -0.646641 0.000000
v 0.800898 -0.653236 0.000000
v 0.794696 -0.650834 0.000000
v 0.810085 -0.653567 0.066067
v 0.820004 -0.653593 0.086151
v 0.830000 -0.653594 0.094868
v 0.840000 -0.653594 0.100350
v 0.850000 -0.653594 0.104914
v 0.860000 -0.653594 0.109191
v 0.870000 -0.653594 0.113534
v 0.880000 -0.653594 0.118311
v 0.890000 -0.653594 0.123507
v 0.900000 -0.653594 0.128926
v 0.910000 -0.653594 0.134285
v 0.920000 -0.653594 0.139017
v 0.930000 -0.653594 0.142282
v 0.940000 -0.653594 0.144937
v 0.950000 -0.653594 0.146841
v 0.960000 -0.653594 0.146707
v 0.970000 -0.653594 0.144213
v 0.980000 -0.653594 0.140901
v 0.990000 -0.653594 0.137642
v 1.000000 -0.653594 0.133955
v 1.010000 -0.653594 0.128794
v 1.020000 -0.653594 0.122592
v 1.030000 -0.653594 0.115963
v 1.040000 -0.653594 0.108964
v 1.049999 -0.653594 0.101079
v 1.059973 -0.653594 0.089930
v 1.069577 -0.653594 0.066479
v 1.076435 -0.653594 0.000000
v 0.810427 -0.660469 0.051799
v 0.803335 -0.660078 0.000000
v 0.820031 -0.660541 0.076405
v 0.830001 -0.660547 0.088368
v 0.840000 -0.660547 0.095163
v 0.850000 -0.660547 0.100403
v 0.860000 -0.660547 0.105133
v 0.870000 -0.660547 0.110061
v 0.880000 -0.660547 0.115340
v 0.890000 -0.660547 0.120764
v 0.900000 -0.660547 0.126108
v 0.910000 -0.660547 0.131109
v 0.920000 -0.660547 0.135093
v 0.930000 -0.660547 0.137992
v 0.940000 -0.660547 0.140977
v 0.950000 -0.660547 0.144210
v 0.960000 -0.660547 0.146659
v 0.970000 -0.660547 0.146741
v 0.980000 -0.660547 0.144417
v 0.990000 -0.660547 0.140544
v 1.000000 -0.660547 0.135363
v 1.010000 -0.660547 0.129190
v 1.020000 -0.660547 0.122652
v 1.030000 -0.660547 0.115953
v 1.040000 -0.660547 0.108957
v 1.049999 -0.660547 0.101076
v 1.059973 -0.660547 0.089930
v 1.069577 -0.660547 0.066479
v 1.076435 -0.660547 0.000000
v 0.811010 -0.666843 0.000000
v 0.804659 -0.664695 0.000000
v 0.820134 -0.667409 0.054301
v 0.830010 -0.667493 0.076860
v 0.840000 -0.667500 0.088422
v 0.850000 -0.667500 0.095288
v 0.860000 -0.667500 0.101028
v 0.870000 -0.667500 0.106798
v 0.880000 -0.667500 0.112519
v 0.890000 -0.667500 0.118001
v 0.900000 -0.667500 0.123207
v 0.910000 -0.667500 0.127716
v 0.920000 -0.667500 0.130914
v 0.930000 -0.667500 0.133603
v 0.940000 -0.667500 0.136729
v 0.950000 -0.667500 0.140396
v 0.960000 -0.667500 0.144052
v 0.970000 -0.667500 0.146417
v 0.980000 -0.667500 0.145528
v 0.990000 -0.667500 0.140834
v 1.000000 -0.667500 0.134809
v 1.010000 -0.667500 0.128554
v 1.020000 -0.667500 0.122216
v 1.030000 -0.667500 0.115709
v 1.040000 -0.667500 0.108855
v 1.049999 -0.667500 0.101039
v 1.059973 -0.667500 0.089919
v 1.069577 -0.667500 0.066477
v 1.076435 -0.667500 0.000000
v 0.820947 -0.673795 0.000000
v 0.814079 -0.671620 0.000000
v 0.830131 -0.674362 0.054350
v 0.840009 -0.674447 0.076952
v 0.850000 -0.674453 0.089017
v 0.860000 -0.674453 0.096918
v 0.870000 -0.674453 0.103651
v 0.880000 -0.674453 0.109641
v 0.890000 -0.674453 0.115157
v 0.900000 -0.674453 0.120145
v 0.910000 -0.674453 0.124035
v 0.920000 -0.674453 0.126667
v 0.930000 -0.674453 0.129322
v 0.940000 -0.674453 0.132598
v 0.950000 -0.674453 0.136389
v 0.960000 -0.674453 0.140279
v 0.970000 -0.674453 0.143561
v 0.980000 -0.674453 0.144051
v 0.990000 -0.674453 0.139449
v 1.000000 -0.674453 0.133225
v 1.010000 -0.674453 0.126959
v 1.020000 -0.674453 0.120824
v 1.030000 -0.674453 0.114701
v 1.040000 -0.674453 0.108248
v 1.049999 -0.674453 0.100728
v 1.059973 -0.674453 0.089794
v 1.069577 -0.674453 0.066444
v 1.076435 -0.674453 0.000000
v 0.830946 -0.680750 0.000000
v 0.824074 -0.678574 0.000000
v 0.840121 -0.681337 0.055004
v 0.850007 -0.681403 0.079766
v 0.860000 -0.681406 0.092495
v 0.870000 -0.681406 0.100322
v 0.880000 -0.681406 0.106618
v 0.890000 -0.681406 0.112116
v 0.900000 -0.681406 0.116613
v 0.910000 -0.681406 0.119947
v 0.920000 -0.681406 0.122376
v 0.930000 -0.681406 0.125162
v 0.940000 -0.681406 0.128605
v 0.950000 -0.681406 0.132418
v 0.960000 -0.681406 0.136339
v 0.970000 -0.681406 0.139965
v 0.980000 -0.681406 0.141554
v 0.990000 -0.681406 0.137777
v 1.000000 -0.681406 0.131665
v 1.010000 -0.681406 0.125283
v 1.020000 -0.681406 0.119019
v 1.030000 -0.681406 0.112819
v 1.040000 -0.681406 0.106482
v 1.049999 -0.681406 0.099405
v 1.059973 -0.681406 0.088989
v 1.069577 -0.681406 0.066062
v 1.076434 -0.681404 0.000000
v 0.840831 -0.688000 0.000000
v 0.834056 -0.685570 0.000000
v 0.850082 -0.688334 0.066203
v 0.860004 -0.688358 0.086759
v 0.870000 -0.688359 0.096594
v 0.880000 -0.688359 0.103401
v 0.890000 -0.688359 0.108682
v 0.900000 -0.688359 0.112766
v 0.910000 -0.688359 0.115651
v 0.920000 -0.688359 0.118093
v 0.930000 -0.688359 0.121117
v 0.940000 -0.688359 0.124726
v 0.950000 -0.688359 0.128523
v 0.960000 -0.688359 0.132392
v 0.970000 -0.688359 0.136102
v 0.980000 -0.688359 0.138325
v 0.990000 -0.688359 0.136055
v 1.000000 -0.688359 0.130423
v 1.010000 -0.688359 0.123978
v 1.020000 -0.688359 0.117496
v 1.030000 -0.688359 0.110960
v 1.040000 -0.688359 0.104168
v 1.049999 -0.688359 0.096655
v 1.059973 -0.688359 0.086122
v 1.069575 -0.688356 0.063405
v 1.076416 -0.688319 0.000000
v 0.850417 -0.695256 0.052461
v 0.843330 -0.694847 0.000000
v 0.860029 -0.695310 0.079297
v 0.870001 -0.695312 0.092328
v 0.880000 -0.695312 0.099668
v 0.890000 -0.695312 0.104727
v 0.900000 -0.695312 0.108611
v 0.910000 -0.695312 0.111217
v 0.920000 -0.695312 0.113827
v 0.930000 -0.695312 0.117145
v 0.940000 -0.695312 0.120873
v 0.950000 -0.695312 0.124691
v 0.960000 -0.695312 0.128494
v 0.970000 -0.695312 0.132133
v 0.980000 -0.695312 0.134689
v 0.990000 -0.695312 0.134170
v 1.000000 -0.695312 0.129469
v 1.010000 -0.695312 0.123139
v 1.020000 -0.695312 0.116512
v 1.030000 -0.695312 0.109680
v 1.040000 -0.695312 0.102303
v 1.049999 -0.695312 0.093467
v 1.059969 -0.695310 0.079669
v 1.069531 -0.695260 0.052201
v 1.076243 -0.694877 0.000000
v 0.850894 -0.701908 0.000000
v 0.844641 -0.699504 0.000000
v 0.860085 -0.702239 0.066071
v 0.870004 -0.702265 0.086151
v 0.880000 -0.702266 0.094857
v 0.890000 -0.702266 0.100226
v 0.900000 -0.702266 0.104114
v 0.910000 -0.702266 0.106614
v 0.920000 -0.702266 0.109545
v 0.930000 -0.702266 0.113202
v 0.940000 -0.702266 0.117025
v 0.950000 -0.702266 0.120858
v 0.960000 -0.702266 0.124649
v 0.970000 -0.702266 0.128157
v 0.980000 -0.702266 0.130704
v 0.990000 -0.702266 0.131471
v 1.000000 -0.702266 0.128405
v 1.010000 -0.702266 0.122638
v 1.020000 -0.702266 0.116051
v 1.030000 -0.702266 0.109097
v 1.040000 -0.702266 0.101313
v 1.049996 -0.702265 0.090628
v 1.059917 -0.702243 0.069222
v 1.069116 -0.701939 0.000000
v 1.075302 -0.699509 0.000000
v 0.860427 -0.709141 0.051799
v 0.853335 -0.708750 0.000000
v 0.870031 -0.709212 0.076403
v 0.880001 -0.709219 0.088335
v 0.890000 -0.709219 0.094861
v 0.900000 -0.709219 0.098945
v 0.910000 -0.709219 0.101672
v 0.920000 -0.709219 0.105151
v 0.930000 -0.709219 0.109152
v 0.940000 -0.709219 0.113147
v 0.950000 -0.709219 0.117015
v 0.960000 -0.709219 0.120783
v 0.970000 -0.709219 0.124153
v 0.980000 -0.709219 0.126519
v 0.990000 -0.709219 0.127986
v 1.000000 -0.709219 0.126649
v 1.010000 -0.709219 0.121931
v 1.020000 -0.709219 0.115696
v 1.030000 -0.709219 0.108869
v 1.039999 -0.709219 0.101063
v 1.049975 -0.709219 0.089988
v 1.059629 -0.709217 0.066807
v 1.066857 -0.709189 0.000000
v 0.861010 -0.715515 0.000000
v 0.854659 -0.713367 0.000000
v 0.870134 -0.716081 0.054296
v 0.880010 -0.716165 0.076788
v 0.890000 -0.716171 0.087807
v 0.900000 -0.716172 0.092634
v 0.910000 -0.716172 0.096172
v 0.920000 -0.716172 0.100512
v 0.930000 -0.716172 0.104920
v 0.940000 -0.716172 0.109127
v 0.950000 -0.716172 0.113130
v 0.960000 -0.716172 0.116858
v 0.970000 -0.716172 0.119959
v 0.980000 -0.716172 0.122156
v 0.990000 -0.716172 0.123749
v 1.000000 -0.716172 0.123306
v 1.010000 -0.716172 0.120029
v 1.020000 -0.716172 0.114607
v 1.030000 -0.716172 0.108243
v 1.039999 -0.716172 0.100729
v 1.049973 -0.716172 0.089798
v 1.059580 -0.716172 0.066465
v 1.066474 -0.716170 0.000000
v 0.870947 -0.722466 0.000000
v 0.864079 -0.720292 0.000000
v 0.880131 -0.723032 0.054190
v 0.890009 -0.723104 0.075577
v 0.900001 -0.723122 0.083311
v 0.910000 -0.723125 0.089454
v 0.920000 -0.723125 0.095262
v 0.930000 -0.723125 0.100381
v 0.940000 -0.723125 0.104910
v 0.950000 -0.723125 0.109112
v 0.960000 -0.723125 0.112898
v 0.970000 -0.723125 0.115639
v 0.980000 -0.723125 0.117742
v 0.990000 -0.723125 0.119268
v 1.000000 -0.723125 0.119273
v 1.010000 -0.723125 0.117281
v 1.020000 -0.723125 0.112539
v 1.030000 -0.723125 0.106456
v 1.039999 -0.723125 0.099403
v 1.049973 -0.723125 0.088989
v 1.059577 -0.723125 0.066063
v 1.066436 -0.723123 0.000000
v 0.880945 -0.729376 0.000000
v 0.874074 -0.727242 0.000000
v 0.890112 -0.729781 0.050950
v 0.900038 -0.730021 0.063594
v 0.910005 -0.730073 0.078309
v 0.920000 -0.730078 0.088528
v 0.930000 -0.730078 0.095169
v 0.940000 -0.730078 0.100388
v 0.950000 -0.730078 0.104945
v 0.960000 -0.730078 0.108839
v 0.970000 -0.730078 0.111233
v 0.980000 -0.730078 0.113309
v 0.990000 -0.730078 0.114691
v 1.000000 -0.730078 0.114887
v 1.010000 -0.730078 0.113808
v 1.020000 -0.730078 0.110071
v 1.030000 -0.730078 0.104028
v 1.039999 -0.730078 0.096637
v 1.049972 -0.730078 0.086120
v 1.059575 -0.730075 0.063405
v 1.066417 -0.730038 0.000000
v 0.890674 -0.734715 0.000000
v 0.884034 -0.733791 0.000000
v 0.900516 -0.736454 0.000000
v 0.910100 -0.736947 0.054689
v 0.920009 -0.737025 0.076882
v 0.930000 -0.737031 0.088419
v 0.940000 -0.737031 0.095230
v 0.950000 -0.737031 0.100511
v 0.960000 -0.737031 0.104343
v 0.970000 -0.737031 0.106588
v 0.980000 -0.737031 0.108792
v 0.990000 -0.737031 0.109984
v 1.000000 -0.737031 0.110208
v 1.010000 -0.737031 0.109720
v 1.020000 -0.737031 0.107308
v 1.030000 -0.737031 0.101656
v 1.039999 -0.737031 0.093300
v 1.049969 -0.737028 0.079633
v 1.059531 -0.736978 0.052197
v 1.066244 -0.736596 0.000000
v 0.910944 -0.743327 0.000000
v 0.904012 -0.741165 0.000000
v 0.920130 -0.743894 0.054350
v 0.930009 -0.743978 0.076941
v 0.940000 -0.743984 0.088858
v 0.950000 -0.743984 0.095744
v 0.960000 -0.743984 0.099257
v 0.970000 -0.743984 0.101564
v 0.980000 -0.743984 0.104033
v 0.990000 -0.743984 0.105023
v 1.000000 -0.743984 0.105187
v 1.010000 -0.743984 0.104965
v 1.020000 -0.743984 0.103517
v 1.030000 -0.743984 0.098815
v 1.039996 -0.743984 0.089549
v 1.049917 -0.743962 0.068794
v 1.059115 -0.743656 0.000000
v 1.065302 -0.741227 0.000000
v 0.920946 -0.750281 0.000000
v 0.914074 -0.748105 0.000000
v 0.930121 -0.750868 0.054963
v 0.940007 -0.750933 0.079320
v 0.950000 -0.750937 0.089925
v 0.960000 -0.750937 0.093217
v 0.970000 -0.750937 0.095909
v 0.980000 -0.750937 0.098639
v 0.990000 -0.750937 0.099508
v 1.000000 -0.750937 0.099625
v 1.010000 -0.750937 0.099495
v 1.020000 -0.750937 0.098453
v 1.029999 -0.750937 0.094397
v 1.039975 -0.750937 0.085509
v 1.049626 -0.750931 0.063640
v 1.056838 -0.750867 0.000000
v 0.930831 -0.757529 0.000000
v 0.924056 -0.755101 0.000000
v 0.940081 -0.757847 0.064744
v 0.950004 -0.757873 0.079994
v 0.960001 -0.757888 0.084059
v 0.970000 -0.757890 0.088856
v 0.980000 -0.757890 0.092033
v 0.990000 -0.757890 0.092865
v 1.000000 -0.757890 0.092965
v 1.010000 -0.757890 0.092859
v 1.020000 -0.757890 0.091926
v 1.029999 -0.757890 0.087676
v 1.039966 -0.757884 0.076266
v 1.049525 -0.757815 0.051484
v 1.056281 -0.757450 0.000000
v 0.940406 -0.764526 0.047960
v 0.933329 -0.764313 0.000000
v 0.950030 -0.764584 0.059848
v 0.960034 -0.764786 0.064850
v 0.970004 -0.764822 0.076979
v 0.980000 -0.764825 0.081988
v 0.990000 -0.764825 0.082904
v 1.000000 -0.764825 0.082990
v 1.010000 -0.764825 0.082899
v 1.020000 -0.764825 0.081866
v 1.029991 -0.764820 0.075413
v 1.039866 -0.764751 0.054135
v 1.048986 -0.764187 0.000000
v 1.055285 -0.762041 0.000000
v 0.940717 -0.769213 0.000000
v 0.934617 -0.768546 0.000000
v 0.950107 -0.769598 0.000000
v 0.960473 -0.771182 0.000000
v 0.970076 -0.771471 0.050848
v 0.980005 -0.771501 0.059832
v 0.990000 -0.771503 0.061271
v 1.000000 -0.771503 0.061384
v 1.010000 -0.771503 0.061271
v 1.019994 -0.771501 0.059813
v 1.029891 -0.771464 0.050480
v 1.039055 -0.771092 0.000000
v 1.045921 -0.768961 0.000000
v 0.970626 -0.776138 0.000000
v 0.963965 -0.775483 0.000000
v 0.980058 -0.776258 0.000000
v 0.990003 -0.776271 0.000000
v 1.000000 -0.776271 0.000000
v 1.009997 -0.776271 0.000000
v 1.019942 -0.776258 0.000000
v 1.029369 -0.776137 0.000000
v 1.035969 -0.775470 0.000000
f 1474 1503 1504 1475
f 163 204 205 165
f 457 478 479 458
f 1790 1805 1806 1791
f 787 798 799 788
f 1812 1826 1827 1813
f 191 226 227 192
f 61 97 98 60
f 947 963 964 948
f 200 235 236 201
f 131 178 179 132
f 199 234 235 200
f 1804 1818 1819 1805
f 1742 1762 1763 1743
f 1529 1556 1557 1530
f 665 682 681 667
f 844 854 855 845
f 1377 1407 1409 1379
f 147 194 195 148
f 1818 1832 1833 1819
f 633 656 657 635
f 158 159 161 160
f 1831 1842 1841 1832
f 449 470 471 450
f 231 263 264 232
f 905 920 921 906
f 1777 1794 1795 1778
f 883 896 897 885
f 1835 1845 1846 1836
f 1823 1837 1838 1824
f 235 267 268 236
f 243 275 276 244
f 149 196 197 150
f 239 271 272 240
f 14 27 29 16
f 33 45 46 34
f 271 299 300 272
f 6 17 18 8
f 219 252 251 220
f 157 201 202 159
f 601 622 623 602
f 1791 1806 1807 1792
f 437 458 459 438
f 1611 1636 1637 1612
f 1321 1352 1353 1322
f 423 444 445 424
f 381 403 404 382
f 225 257 258 226
f 279 306 305 281
f 1810 1824 1825 1811
f 118 147 148 119
f 151 198 199 153
f 120 149 150 121
f 1435 1465 1466 1436
f 189 224 225 190
f 19 32 33 20
f 47 78 79 48
f 1292 1323 1324 1293
f 945 961 962 946
f 962 979 980 963
f 653 655 654 634
f 245 277 278 246
f 426 447 448 427
f 1834 1844 1845 1835
f 1329 1360 1361 1330
f 39 70 72 41
f 1081 1111 1112 1082
f 213 248 249 214
f 31 43 44 32
f 62 63 65 64
f 940 954 955 941
f 530 551 552 531
f 913 926 928 927
f 221 253 254 222
f 207 242 243 208
f 85 86 88 87
f 418 439 440 419
f 143 190 191 144
f 900 914 916 901
f 1266 1297 1298 1267
f 425 446 447 426
f 889 901 902 890
f 1353 1383 1384 1354
f 438 459 460 439
f 1545 1572 1573 1546
f 1363 1393 1394 1364
f 649 668 669 650
f 1110 1138 1139 1111
f 192 227 228 193
f 1779 1796 1797 1780
f 503 524 525 504
f 581 602 603 582
f 165 205 206 167
f 1797 1812 1813 1798
f 53 82 83 55
f 907 922 923 908
f 371 394 395 372
f 13 15 14 4
f 383 405 406 384
f 21 22 24 23
f 923 938 939 924
f 1819 1833 1834 1820
f 876 889 890 877
f 1674 1697 1698 1675
f 661 678 679 662
f 293 318 319 294
f 415 436 437 416
f 1801 1814 1816 1802
f 78 111 112 79
f 1795 1810 1811 1796
f 88 119 120 90
f 258 286 287 259
f 209 244 245 210
f 80 113 114 81
f 347 371 372 348
f 1162 1193 1194 1163
f 70 103 105 72
f 184 219 220 185
f 741 752 753 742
f 393 415 416 394
f 54 55 57 56
f 1362 1392 1393 1363
f 685 687 686 672
f 1805 1819 1820 1806
f 43 74 75 44
f 311 335 336 312
f 932 946 947 933
f 178 215 216 179
f 541 562 563 542
f 325 349 350 326
f 1385 1415 1416 1386
f 1803 1817 1818 1804
f 971 988 989 972
f 1354 1384 1385 1355
f 1610 1635 1636 1611
f 411 432 433 412
f 509 530 531 510
f 479 501 502 480
f 1793 1808 1809 1794
f 1113 1141 1142 1114
f 119 148 149 120
f 832 842 841 831
f 1675 1698 1699 1676
f 893 905 906 894
f 349 373 374 350
f 487 508 507 486
f 897 909 911 910
f 270 298 299 271
f 111 140 141 112
f 746 755 757 748
f 10 19 20 12
f 35 47 48 36
f 71 104 103 70
f 602 623 624 603
f 301 326 327 302
f 141 188 189 142
f 930 944 943 929
f 1058 1085 1086 1059
f 405 426 427 406
f 353 378 377 355
f 125 173 174 127
f 514 535 536 515
f 20 33 34 22
f 916 931 932 917
f 1402 1432 1433 1403
f 499 520 521 500
f 229 261 262 230
f 922 937 938 923
f 136 183 184 137
f 1603 1628 1629 1604
f 491 512 513 492
f 413 434 435 414
f 519 540 541 520
f 1817 1831 1832 1818
f 142 189 190 143
f 1337 1368 1369 1338
f 128 175 176 129
f 1034 1059 1061 1060
f 475 497 498 476
f 433 454 455 434
f 551 572 573 552
f 83 116 117 84
f 134 181 183 136
f 4 14 16 3
f 152 153 155 154
f 562 583 584 563
f 1045 1072 1073 1046
f 445 466 467 446
f 559 580 581 560
f 1809 1823 1824 1810
f 262 290 291 263
f 183 217 219 184
f 64 65 67 66
f 34 46 47 35
f 981 1011 1012 982
f 469 491 492 470
f 753 762 763 754
f 517 538 539 518
f 401 422 421 400
f 477 499 500 478
f 495 516 517 496
f 67 101 102 69
f 995 1023 1024 997
f 175 212 213 176
f 1735 1755 1756 1736
f 1825 1839 1840 1826
f 853 863 864 854
f 921 936 937 922
f 978 1008 1009 979
f 205 240 241 206
f 450 471 472 451
f 946 962 963 947
f 809 819 820 810
f 1578 1604 1605 1579
f 549 570 572 551
f 421 442 444 423
f 639 661 662 640
f 197 232 233 198
f 430 451 452 431
f 28 40 39 27
f 360 383 384 361
f 323 347 348 324
f 1213 1214 1216 1215
f 555 576 577 556
f 169 207 208 171
f 173 210 211 174
f 687 697 696 686
f 107 136 137 108
f 109 138 139 110
f 979 1009 1010 980
f 60 98 99 63
f 1442 1471 1472 1443
f 386 408 409 387
f 827 838 839 828
f 758 767 768 759
f 727 737 736 726
f 123 151 153 152
f 1476 1505 1506 1477
f 938 952 953 939
f 232 264 265 233
f 77 110 111 78
f 571 592 591 570
f 589 610 611 590
f 1042 1069 1070 1043
f 937 951 952 938
f 222 254 255 223
f 856 866 867 857
f 1244 1276 1277 1245
f 106 134 136 107
f 627 648 649 628
f 613 634 633 612
f 52 53 55 54
f 1738 1758 1759 1739
f 603 624 625 604
f 621 642 643 622
f 689 699 700 690
f 365 388 389 366
f 198 233 234 199
f 263 291 292 264
f 972 989 990 973
f 1002 1003 1005 1004
f 1325 1356 1357 1326
f 1017 1045 1046 1018
f 647 665 667 648
f 74 107 108 75
f 474 496 497 475
f 255 283 284 256
f 1012 1040 1041 1013
f 1387 1417 1418 1388
f 1269 1300 1301 1270
f 557 578 579 558
f 807 817 818 808
f 269 297 298 270
f 1027 1055 1056 1028
f 1149 1179 1180 1151
f 1771 1788 1789 1772
f 701 711 712 702
f 815 824 825 816
f 261 289 290 262
f 1137 1168 1169 1138
f 223 255 256 224
f 1625 1650 1651 1626
f 882 895 896 883
f 715 717 716 707
f 709 720 721 710
f 823 834 835 824
f 357 380 381 358
f 422 443 442 421
f 159 202 203 161
f 512 533 534 513
f 802 812 814 804
f 1453 1482 1483 1454
f 170 171 172 126
f 847 857 858 848
f 26 36 38 37
f 1011 1039 1040 1012
f 15 28 27 14
f 723 733 734 724
f 498 519 520 499
f 749 758 759 750
f 863 875 876 864
f 155 200 201 157
f 310 334 335 311
f 1558 1584 1585 1559
f 980 1010 1011 981
f 1194 1230 1231 1195
f 803 813 812 802
f 1117 1145 1146 1118
f 1074 1104 1105 1075
f 18 31 32 19
f 302 327 328 303
f 1022 1050 1051 1023
f 312 336 337 313
f 1130 1161 1162 1131
f 1629 1654 1655 1630
f 773 782 784 775
f 1401 1431 1432 1402
f 139 186 187 140
f 1129 1160 1161 1130
f 1114 1142 1143 1115
f 1026 1054 1055 1027
f 961 978 979 962
f 1066 1096 1097 1067
f 341 365 366 342
f 414 435 436 415
f 676 692 693 677
f 296 321 322 297
f 1298 1329 1330 1299
f 1589 1614 1615 1590
f 241 273 274 242
f 1417 1447 1448 1418
f 333 357 358 334
f 490 511 512 491
f 372 395 396 373
f 272 300 301 273
f 1506 1534 1535 1507
f 1525 1554 1553 1527
f 977 1007 1006 976
f 1538 1565 1566 1539
f 309 333 334 310
f 350 374 375 351
f 431 452 453 432
f 1410 1440 1441 1411
f 861 873 875 863
f 345 369 370 346
f 50 51 53 52
f 482 504 505 483
f 1441 1470 1471 1442
f 1092 1120 1122 1094
f 692 702 703 693
f 819 828 829 820
f 129 176 177 130
f 991 1021 1022 993
f 195 230 231 196
f 1014 1042 1043 1015
f 164 165 167 166
f 1036 1063 1062 1035
f 108 137 138 109
f 1157 1188 1189 1158
f 901 916 917 902
f 1015 1043 1044 1016
f 929 943 945 931
f 206 241 242 207
f 1577 1603 1604 1578
f 273 301 302 274
f 933 947 948 934
f 1023 1051 1052 1024
f 501 522 523 502
f 1043 1070 1071 1044
f 1505 1533 1534 1506
f 504 525 526 505
f 1706 1727 1728 1707
f 1356 1386 1387 1357
f 941 955 956 942
f 721 731 732 722
f 171 208 209 172
f 382 404 405 383
f 1425 1455 1456 1426
f 1434 1464 1465 1435
f 1284 1315 1317 1286
f 931 945 946 932
f 481 503 504 482
f 374 397 398 375
f 397 419 420 398
f 116 145 146 117
f 400 421 423 402
f 1785 1799 1801 1786
f 46 77 78 47
f 869 881 882 870
f 967 984 985 968
f 443 464 463 442
f 342 366 367 343
f 407 428 429 408
f 392 414 415 393
f 42 73 74 43
f 1837 1847 1848 1838
f 1029 1030 1032 1031
f 452 473 474 453
f 493 514 515 494
f 286 311 312 287
f 391 413 414 392
f 496 517 518 497
f 389 411 412 390
f 100 131 132 101
f 1095 1123 1124 1096
f 66 67 69 68
f 126 172 173 125
f 367 390 391 368
f 1426 1456 1457 1427
f 317 341 342 318
f 987 1017 1018 988
f 473 495 496 474
f 1103 1131 1132 1104
f 227 259 260 228
f 650 669 670 651
f 986 1016 1017 987
f 1084 1114 1115 1085
f 1836 1846 1847 1837
f 214 249 250 215
f 1053 1080 1081 1054
f 1071 1101 1102 1072
f 58 61 60 59
f 550 571 570 549
f 172 209 210 173
f 1642 1666 1667 1643
f 1075 1105 1106 1076
f 1077 1107 1108 1078
f 1135 1166 1167 1136
f 1685 1707 1708 1686
f 570 591 593 572
f 825 836 837 826
f 1052 1079 1080 1053
f 210 245 246 211
f 1067 1097 1098 1068
f 1085 1115 1116 1086
f 1159 1190 1191 1160
f 211 246 247 212
f 454 475 476 455
f 575 596 597 576
f 824 835 836 825
f 395 417 418 396
f 1051 1078 1079 1052
f 993 1022 1023 995
f 140 187 188 141
f 1371 1401 1402 1372
f 1068 1098 1099 1069
f 629 650 651 630
f 358 381 382 359
f 1021 1049 1050 1022
f 1167 1198 1199 1168
f 461 482 483 462
f 542 563 564 543
f 471 493 494 472
f 472 494 495 473
f 59 60 63 62
f 294 319 320 295
f 1009 1037 1038 1010
f 1433 1463 1464 1434
f 453 474 475 454
f 1225 1257 1258 1226
f 463 487 486 465
f 456 477 478 457
f 523 544 545 524
f 713 724 725 714
f 402 423 424 403
f 429 450 451 430
f 1131 1162 1163 1132
f 567 588 589 568
f 432 453 454 433
f 370 393 394 371
f 150 197 198 151
f 121 150 151 123
f 1449 1478 1479 1450
f 373 396 397 374
f 1177 1208 1209 1178
f 1018 1046 1047 1019
f 368 391 392 369
f 691 701 702 692
f 1268 1299 1300 1269
f 1189 1225 1226 1190
f 1231 1263 1264 1232
f 253 281 282 254
f 694 704 705 695
f 394 416 417 395
f 1116 1144 1145 1117
f 1211 1247 1248 1212
f 1221 1252 1254 1222
f 337 361 362 338
f 1693 1715 1716 1694
f 1115 1143 1144 1116
f 212 247 248 213
f 1593 1618 1619 1594
f 234 266 267 235
f 1203 1239 1240 1204
f 1229 1261 1262 1230
f 1287 1318 1319 1288
f 89 90 92 91
f 518 539 540 519
f 1010 1038 1039 1011
f 640 662 663 641
f 1388 1418 1419 1389
f 1187 1223 1224 1188
f 505 526 527 506
f 510 531 532 511
f 130 177 178 131
f 911 925 926 913
f 1514 1542 1543 1515
f 522 543 544 523
f 622 643 644 623
f 2 3 6 5
f 1295 1326 1327 1296
f 835 845 846 836
f 486 507 509 488
f 196 231 232 197
f 536 557 558 537
f 1107 1135 1136 1108
f 566 587 588 567
f 1293 1324 1325 1294
f 745 747 746 737
f 507 528 530 509
f 538 559 560 539
f 543 564 565 544
f 528 549 551 530
f 1301 1332 1333 1302
f 462 483 485 484
f 1239 1271 1272 1240
f 98 129 130 99
f 1163 1194 1195 1164
f 1250 1282 1283 1251
f 926 941 942 928
f 626 647 648 627
f 1267 1298 1299 1268
f 1041 1068 1069 1042
f 1351 1381 1382 1352
f 489 510 511 490
f 1169 1200 1201 1170
f 97 128 129 98
f 624 645 646 625
f 822 831 833 821
f 1259 1290 1291 1260
f 1333 1364 1365 1334
f 1359 1389 1390 1360
f 573 594 595 574
f 1458 1487 1488 1459
f 447 468 469 448
f 1139 1170 1171 1140
f 774 783 782 773
f 1357 1387 1388 1358
f 729 739 740 730
f 291 316 317 292
f 1147 1178 1179 1149
f 244 276 277 245
f 1140 1171 1172 1141
f 939 953 954 940
f 90 120 121 92
f 1365 1395 1396 1366
f 1391 1421 1422 1392
f 1097 1125 1126 1098
f 582 603 604 583
f 1393 1423 1424 1394
f 816 825 826 817
f 1507 1535 1536 1508
f 1355 1385 1386 1356
f 813 822 821 812
f 1415 1445 1446 1416
f 574 595 596 575
f 767 777 778 768
f 1124 1155 1156 1125
f 826 837 838 827
f 576 597 598 577
f 1025 1053 1054 1026
f 1423 1453 1454 1424
f 275 303 304 276
f 678 694 695 679
f 615 636 637 616
f 1132 1163 1164 1133
f 1643 1667 1668 1644
f 854 864 865 855
f 1309 1340 1341 1310
f 1465 1494 1495 1466
f 605 626 627 606
f 554 575 576 555
f 597 618 619 598
f 726 736 738 728
f 954 970 971 955
f 1165 1196 1197 1166
f 1367 1397 1398 1368
f 565 586 587 566
f 1195 1231 1232 1196
f 1106 1134 1135 1107
f 600 621 622 601
f 95 127 128 97
f 546 567 568 547
f 607 628 629 608
f 568 589 590 569
f 970 987 988 971
f 470 492 493 471
f 599 620 621 600
f 1006 1036 1035 1008
f 1482 1511 1512 1483
f 1443 1472 1473 1444
f 17 30 31 18
f 1421 1451 1452 1422
f 1481 1510 1511 1482
f 717 727 726 716
f 1179 1210 1211 1180
f 891 903 904 892
f 1429 1459 1460 1430
f 380 402 403 381
f 114 143 144 115
f 1180 1211 1212 1182
f 759 768 769 760
f 356 379 380 357
f 1411 1441 1442 1412
f 257 285 286 258
f 697 707 706 696
f 363 386 387 364
f 646 666 665 647
f 1050 1077 1078 1051
f 638 660 661 639
f 1609 1634 1635 1610
f 252 280 279 251
f 1126 1157 1158 1127
f 1461 1490 1491 1462
f 1527 1553 1555 1528
f 969 986 987 970
f 614 635 636 615
f 1258 1289 1290 1259
f 1164 1195 1196 1165
f 801 803 802 793
f 1485 1514 1515 1486
f 1551 1578 1579 1552
f 805 815 816 806
f 558 579 580 559
f 284 309 310 285
f 1493 1522 1523 1494
f 521 542 543 522
f 1198 1234 1235 1199
f 1559 1585 1586 1560
f 307 331 332 308
f 1227 1259 1260 1228
f 751 760 761 752
f 688 698 699 689
f 460 481 482 461
f 693 703 704 694
f 385 407 408 386
f 1185 1221 1222 1186
f 268 296 297 269
f 672 686 688 671
f 388 410 411 389
f 49 80 81 51
f 1437 1468 1467 1439
f 1503 1531 1532 1504
f 903 918 919 904
f 838 848 849 839
f 792 804 805 794
f 1234 1266 1267 1235
f 124 126 125 96
f 747 756 755 746
f 1615 1640 1641 1616
f 677 693 694 678
f 1186 1222 1223 1187
f 935 949 950 936
f 1498 1525 1527 1499
f 1326 1357 1358 1327
f 1549 1576 1577 1550
f 1623 1648 1649 1624
f 797 808 809 798
f 634 654 656 633
f 1557 1583 1584 1558
f 1619 1644 1645 1620
f 361 384 385 362
f 162 163 165 164
f 718 728 729 719
f 260 288 289 261
f 1212 1248 1249 1214
f 188 223 224 189
f 1663 1686 1687 1664
f 513 534 535 514
f 355 377 379 356
f 710 721 722 711
f 719 729 730 720
f 784 795 796 785
f 1378 1408 1407 1377
f 1687 1709 1710 1688
f 154 155 157 156
f 1695 1717 1718 1696
f 1235 1267 1268 1236
f 703 713 714 704
f 1204 1240 1241 1205
f 1370 1400 1401 1371
f 40 71 70 39
f 1490 1519 1520 1491
f 339 363 364 340
f 655 672 671 654
f 1824 1838 1839 1825
f 836 846 847 837
f 1571 1597 1598 1572
f 1597 1622 1623 1598
f 817 826 827 818
f 1098 1126 1127 1099
f 1409 1439 1440 1410
f 594 615 616 595
f 1196 1232 1233 1197
f 1386 1416 1417 1387
f 1595 1620 1621 1596
f 1637 1661 1662 1638
f 1631 1657 1656 1633
f 1459 1488 1489 1460
f 1148 1149 1151 1150
f 768 778 779 769
f 1265 1296 1297 1266
f 1065 1095 1096 1066
f 1521 1549 1550 1522
f 765 773 775 764
f 766 776 777 767
f 236 268 269 237
f 1565 1591 1592 1566
f 1398 1428 1429 1399
f 1767 1783 1785 1768
f 757 766 767 758
f 586 607 608 587
f 895 907 908 896
f 752 761 762 753
f 1522 1550 1551 1523
f 733 743 744 734
f 1751 1769 1770 1752
f 990 1020 1021 991
f 300 325 326 301
f 720 730 731 721
f 756 765 764 755
f 1294 1325 1326 1295
f 330 354 353 329
f 1243 1275 1276 1244
f 806 816 817 807
f 637 659 660 638
f 783 792 794 782
f 648 667 668 649
f 148 195 196 149
f 1030 1057 1058 1032
f 1049 1076 1077 1050
f 761 770 771 762
f 520 541 542 521
f 791 793 792 783
f 875 888 889 876
f 1598 1623 1624 1599
f 537 558 559 538
f 1815 1829 1828 1814
f 387 409 410 388
f 798 809 810 799
f 887 899 898 886
f 145 192 193 146
f 1586 1611 1612 1587
f 952 968 969 953
f 8 18 19 10
f 985 1015 1016 986
f 259 287 288 260
f 1082 1112 1113 1083
f 224 256 257 225
f 1532 1559 1560 1533
f 16 29 30 17
f 1765 1784 1783 1767
f 965 982 983 966
f 610 631 632 611
f 348 372 373 349
f 1471 1500 1501 1472
f 1754 1772 1773 1755
f 1747 1766 1765 1748
f 1153 1184 1183 1152
f 777 786 787 778
f 1307 1338 1339 1308
f 226 258 259 227
f 1463 1492 1493 1464
f 343 367 368 344
f 1660 1683 1684 1661
f 1731 1751 1752 1732
f 289 314 315 290
f 1783 1800 1799 1785
f 845 855 856 846
f 1299 1330 1331 1300
f 533 554 555 534
f 1758 1776 1777 1759
f 1794 1809 1810 1795
f 1709 1730 1731 1710
f 96 125 127 95
f 837 847 848 838
f 1201 1237 1238 1202
f 332 356 357 333
f 1788 1803 1804 1789
f 1324 1355 1356 1325
f 1694 1716 1717 1695
f 22 34 35 24
f 340 364 365 341
f 982 1012 1013 983
f 1508 1536 1537 1509
f 51 81 82 53
f 1566 1592 1593 1567
f 30 42 43 31
f 112 141 142 113
f 949 965 966 950
f 1291 1322 1323 1292
f 855 865 866 856
f 417 438 439 418
f 237 269 270 238
f 878 891 892 879
f 135 182 181 134
f 769 779 780 770
f 146 193 194 147
f 862 874 873 861
f 831 841 843 833
f 968 985 986 969
f 251 279 281 253
f 1787 1802 1803 1788
f 434 455 456 435
f 168 169 171 170
f 419 440 441 420
f 775 784 785 776
f 285 310 311 286
f 94 95 97 61
f 84 117 118 86
f 144 191 192 145
f 138 185 186 139
f 1315 1346 1348 1317
f 591 612 614 593
f 1802 1816 1817 1803
f 203 238 239 204
f 12 20 22 21
f 86 118 119 88
f 176 213 214 177
f 187 222 223 188
f 998 999 1001 1000
f 76 109 110 77
f 925 940 941 926
f 110 139 140 111
f 1537 1564 1565 1538
f 1109 1137 1138 1110
f 618 639 640 619
f 959 976 978 961
f 896 908 909 897
f 115 144 145 116
f 44 75 76 45
f 915 930 929 914
f 48 79 80 49
f 403 424 425 404
f 918 933 934 919
f 1689 1711 1712 1690
f 737 746 748 736
f 3 16 17 6
f 287 312 313 288
f 105 135 134 106
f 1338 1369 1370 1339
f 917 932 933 918
f 1331 1362 1363 1332
f 1047 1074 1075 1048
f 1112 1140 1141 1113
f 1308 1339 1340 1309
f 167 206 207 169
f 833 843 844 834
f 1530 1557 1558 1531
f 335 359 360 336
f 843 853 854 844
f 1170 1201 1202 1171
f 331 355 356 332
f 55 83 84 57
f 174 211 212 175
f 177 214 215 178
f 909 924 925 911
f 1323 1354 1355 1324
f 943 959 961 945
f 944 960 959 943
f 315 339 340 316
f 1574 1600 1601 1575
f 466 488 489 467
f 344 368 369 345
f 877 890 891 878
f 668 683 684 669
f 936 950 951 937
f 1038 1065 1066 1039
f 288 313 314 289
f 950 966 967 951
f 888 900 901 889
f 1741 1761 1762 1742
f 299 324 325 300
f 410 431 432 411
f 132 179 180 133
f 238 270 271 239
f 320 344 345 321
f 186 221 222 187
f 942 956 958 957
f 1039 1066 1067 1040
f 1316 1347 1346 1315
f 379 400 402 380
f 220 251 253 221
f 254 282 283 255
f 336 360 361 337
f 451 472 473 452
f 902 917 918 903
f 1122 1152 1154 1123
f 459 480 481 460
f 458 479 480 459
f 1013 1041 1042 1014
f 412 433 434 413
f 997 1024 1025 999
f 190 225 226 191
f 1001 1026 1027 1003
f 1101 1129 1130 1102
f 1489 1518 1519 1490
f 846 856 857 847
f 953 969 970 954
f 427 448 449 428
f 204 239 240 205
f 318 342 343 319
f 1394 1424 1425 1395
f 435 456 457 436
f 702 712 713 703
f 1183 1219 1221 1185
f 1104 1132 1133 1105
f 267 295 296 268
f 511 532 533 512
f 326 350 351 327
f 264 292 293 265
f 1005 1028 1030 1029
f 446 467 468 447
f 396 418 419 397
f 1300 1331 1332 1301
f 587 608 609 588
f 455 476 477 456
f 329 353 355 331
f 416 437 438 417
f 730 740 741 731
f 1008 1035 1037 1009
f 228 260 261 229
f 377 401 400 379
f 366 389 390 367
f 989 1019 1020 990
f 1627 1652 1653 1628
f 1031 1032 1034 1033
f 984 1014 1015 985
f 298 323 324 299
f 711 722 723 712
f 390 412 413 391
f 448 469 470 449
f 1093 1121 1120 1092
f 1483 1512 1513 1484
f 999 1025 1026 1001
f 1096 1124 1125 1097
f 635 657 658 636
f 671 688 689 673
f 406 427 428 407
f 1076 1106 1107 1077
f 202 237 238 203
f 1102 1130 1131 1103
f 975 991 993 992
f 1570 1596 1597 1571
f 667 681 683 668
f 364 387 388 365
f 1035 1062 1064 1037
f 483 505 506 485
f 1348 1377 1379 1349
f 1111 1139 1140 1112
f 1369 1399 1400 1370
f 1562 1588 1589 1563
f 779 788 789 780
f 316 340 341 317
f 334 358 359 335
f 480 502 503 481
f 194 229 230 195
f 1403 1433 1434 1404
f 1138 1169 1170 1139
f 1392 1422 1423 1393
f 1752 1770 1771 1753
f 879 892 893 880
f 1145 1176 1177 1146
f 488 509 510 489
f 1677 1700 1701 1678
f 1289 1320 1321 1290
f 508 529 528 507
f 1332 1363 1364 1333
f 1833 1843 1844 1834
f 839 849 850 840
f 658 675 676 659
f 1569 1595 1596 1570
f 467 489 490 468
f 1262 1293 1294 1263
f 436 457 458 437
f 539 560 561 540
f 1069 1099 1100 1070
f 424 445 446 425
f 1086 1116 1117 1087
f 1215 1216 1218 1217
f 1064 1094 1095 1065
f 283 308 309 284
f 673 689 690 674
f 73 106 107 74
f 1585 1610 1611 1586
f 1061 1087 1089 1088
f 1078 1108 1109 1079
f 444 465 466 445
f 1088 1089 1091 1090
f 1364 1394 1395 1365
f 623 644 645 624
f 502 523 524 503
f 552 573 574 553
f 1037 1064 1065 1038
f 1070 1100 1101 1071
f 1087 1117 1118 1089
f 1040 1067 1068 1041
f 963 980 981 964
f 1260 1291 1292 1261
f 526 547 548 527
f 1 4 3 2
f 973 990 991 975
f 1046 1073 1074 1047
f 1079 1109 1110 1080
f 592 613 612 591
f 1000 1001 1003 1002
f 983 1013 1014 984
f 534 555 556 535
f 608 629 630 609
f 821 833 834 823
f 1182 1212 1214 1213
f 1175 1206 1207 1176
f 1380 1410 1411 1381
f 1059 1086 1087 1061
f 516 537 538 517
f 561 582 583 562
f 1450 1479 1480 1451
f 515 536 537 516
f 690 700 701 691
f 1154 1185 1186 1155
f 1657 1680 1679 1656
f 1019 1047 1048 1020
f 1063 1093 1092 1062
f 478 500 501 479
f 793 802 804 792
f 529 550 549 528
f 1475 1504 1505 1476
f 500 521 522 501
f 1232 1264 1265 1233
f 1003 1027 1028 1005
f 492 513 514 493
f 686 696 698 688
f 1245 1277 1278 1246
f 1146 1177 1178 1147
f 1773 1790 1791 1774
f 1650 1674 1675 1651
f 1127 1158 1159 1128
f 598 619 620 599
f 560 581 582 561
f 306 330 329 305
f 1241 1273 1274 1242
f 1455 1484 1485 1456
f 1136 1167 1168 1137
f 1171 1202 1203 1172
f 41 72 73 42
f 201 236 237 202
f 808 818 819 809
f 1141 1172 1173 1142
f 1254 1284 1286 1255
f 476 498 499 477
f 1128 1159 1160 1129
f 1155 1186 1187 1156
f 951 967 968 952
f 630 651 652 631
f 696 706 708 698
f 1133 1164 1165 1134
f 1419 1449 1450 1420
f 1151 1180 1182 1181
f 1224 1256 1257 1225
f 1123 1154 1155 1124
f 556 577 578 557
f 1769 1786 1787 1770
f 369 392 393 370
f 1158 1189 1190 1159
f 1237 1269 1270 1238
f 1143 1174 1175 1144
f 1602 1627 1628 1603
f 1119 1147 1149 1148
f 1219 1253 1252 1221
f 1263 1294 1295 1264
f 662 679 680 663
f 736 748 749 738
f 242 274 275 243
f 1142 1173 1174 1143
f 1055 1082 1083 1056
f 1412 1442 1443 1413
f 1339 1370 1371 1340
f 660 677 678 661
f 1161 1192 1193 1162
f 776 785 786 777
f 547 568 569 548
f 1246 1278 1279 1247
f 532 553 554 533
f 1594 1619 1620 1595
f 870 882 883 872
f 636 658 659 637
f 606 627 628 607
f 760 769 770 761
f 1089 1118 1119 1091
f 706 718 719 708
f 1457 1486 1487 1458
f 1384 1414 1415 1385
f 1275 1306 1307 1276
f 620 641 642 621
f 593 614 615 594
f 1601 1626 1627 1602
f 1467 1496 1498 1469
f 1396 1426 1427 1397
f 742 753 754 743
f 1389 1419 1420 1390
f 698 708 709 699
f 1311 1342 1343 1312
f 1200 1236 1237 1201
f 494 515 516 495
f 1383 1413 1414 1384
f 161 203 204 163
f 712 723 724 713
f 531 552 553 532
f 1550 1577 1578 1551
f 1242 1274 1275 1243
f 1192 1228 1229 1193
f 1733 1753 1754 1734
f 1327 1358 1359 1328
f 578 599 600 579
f 1617 1642 1643 1618
f 1205 1241 1242 1206
f 1451 1480 1481 1452
f 1207 1243 1244 1208
f 1168 1199 1200 1169
f 1427 1457 1458 1428
f 1223 1255 1256 1224
f 814 823 824 815
f 964 981 982 965
f 1197 1233 1234 1198
f 1222 1254 1255 1223
f 1199 1235 1236 1200
f 1618 1643 1644 1619
f 994 995 997 996
f 535 556 557 536
f 785 796 797 786
f 1214 1249 1250 1216
f 1303 1334 1335 1304
f 1452 1481 1482 1453
f 1539 1566 1567 1540
f 351 375 376 352
f 830 832 831 822
f 439 460 461 440
f 1173 1204 1205 1174
f 1190 1226 1227 1191
f 1255 1286 1287 1256
f 1673 1696 1697 1674
f 1470 1499 1500 1471
f 796 807 808 797
f 782 794 795 784
f 442 463 465 444
f 274 302 303 275
f 1118 1146 1147 1119
f 564 585 586 565
f 1368 1398 1399 1369
f 1555 1580 1582 1556
f 788 799 800 789
f 750 759 760 751
f 960 977 976 959
f 579 600 601 580
f 1499 1527 1528 1500
f 1178 1209 1210 1179
f 1428 1458 1459 1429
f 1523 1551 1552 1524
f 764 775 776 766
f 266 294 295 267
f 920 935 936 921
f 1491 1520 1521 1492
f 1447 1476 1477 1448
f 1264 1295 1296 1265
f 1395 1425 1426 1396
f 1647 1671 1672 1648
f 886 898 900 888
f 880 893 894 881
f 1381 1411 1412 1382
f 1382 1412 1413 1383
f 540 561 562 541
f 1256 1287 1288 1257
f 1707 1728 1729 1708
f 1591 1616 1617 1592
f 894 906 907 895
f 1016 1044 1045 1017
f 563 584 585 564
f 818 827 828 819
f 1279 1310 1311 1280
f 1360 1390 1391 1361
f 1691 1713 1714 1692
f 1479 1508 1509 1480
f 577 598 599 578
f 1024 1052 1053 1025
f 1285 1316 1315 1284
f 1286 1317 1318 1287
f 1271 1302 1303 1272
f 1634 1658 1659 1635
f 1635 1659 1660 1636
f 233 265 266 234
f 1193 1229 1230 1194
f 1277 1308 1309 1278
f 1278 1309 1310 1279
f 1247 1279 1280 1248
f 1484 1513 1514 1485
f 1763 1781 1782 1764
f 852 862 861 851
f 958 973 975 974
f 1056 1083 1084 1057
f 1373 1403 1404 1374
f 1374 1404 1405 1375
f 1202 1238 1239 1203
f 1352 1382 1383 1353
f 36 48 49 38
f 1807 1821 1822 1808
f 966 983 984 967
f 1072 1102 1103 1073
f 290 315 316 291
f 738 749 750 739
f 596 617 618 597
f 1626 1651 1652 1627
f 295 320 321 296
f 868 880 881 869
f 934 948 949 935
f 1080 1110 1111 1081
f 619 640 641 620
f 1531 1558 1559 1532
f 1473 1502 1503 1474
f 1792 1807 1808 1793
f 1454 1483 1484 1455
f 881 894 895 882
f 282 307 308 283
f 1281 1312 1313 1282
f 1439 1467 1469 1440
f 1468 1497 1496 1467
f 63 99 100 65
f 924 939 940 925
f 910 911 913 912
f 1032 1058 1059 1034
f 1669 1692 1693 1670
f 1542 1569 1570 1543
f 580 601 602 581
f 1336 1367 1368 1337
f 1659 1682 1683 1660
f 160 161 163 162
f 1209 1245 1246 1210
f 57 84 86 85
f 595 616 617 596
f 1515 1543 1544 1516
f 1343 1374 1375 1344
f 1320 1351 1352 1321
f 1054 1081 1082 1055
f 72 105 106 73
f 1099 1127 1128 1100
f 1152 1183 1185 1154
f 1349 1379 1380 1350
f 1350 1380 1381 1351
f 1335 1366 1367 1336
f 948 964 965 949
f 955 971 972 956
f 553 574 575 554
f 137 184 185 138
f 1341 1372 1373 1342
f 1342 1373 1374 1343
f 1431 1461 1462 1432
f 1296 1327 1328 1297
f 359 382 383 360
f 1487 1516 1517 1488
f 1062 1092 1094 1064
f 1184 1220 1219 1183
f 1317 1348 1349 1318
f 1318 1349 1350 1319
f 1226 1258 1259 1227
f 1240 1272 1273 1241
f 799 810 811 800
f 996 997 999 998
f 1094 1122 1123 1095
f 1208 1244 1245 1209
f 1261 1292 1293 1262
f 770 780 781 771
f 628 649 650 629
f 1120 1153 1152 1122
f 324 348 349 325
f 1100 1128 1129 1101
f 1418 1448 1449 1419
f 1216 1250 1251 1218
f 675 691 692 676
f 873 886 888 875
f 1210 1246 1247 1211
f 308 332 333 309
f 384 406 407 385
f 1249 1281 1282 1250
f 545 566 567 546
f 1057 1084 1085 1058
f 1563 1589 1590 1564
f 848 858 859 849
f 1504 1532 1533 1505
f 292 317 318 293
f 297 322 323 298
f 1166 1197 1198 1167
f 1160 1191 1192 1161
f 1509 1537 1538 1510
f 1273 1304 1305 1274
f 612 633 635 614
f 1714 1735 1736 1715
f 583 604 605 584
f 440 461 462 441
f 1174 1205 1206 1175
f 1272 1303 1304 1273
f 659 676 677 660
f 1534 1561 1562 1535
f 1407 1437 1439 1409
f 1408 1438 1437 1407
f 468 490 491 469
f 408 429 430 409
f 1134 1165 1166 1135
f 1413 1443 1444 1414
f 1399 1429 1430 1400
f 1780 1797 1798 1781
f 1641 1665 1666 1642
f 240 272 273 241
f 1206 1242 1243 1207
f 1280 1311 1312 1281
f 1405 1435 1436 1406
f 1547 1574 1575 1548
f 1375 1405 1406 1376
f 1496 1526 1525 1498
f 428 449 450 429
f 616 637 638 617
f 1230 1262 1263 1231
f 465 486 488 466
f 1501 1529 1530 1502
f 1422 1452 1453 1423
f 1319 1350 1351 1320
f 1666 1689 1690 1667
f 524 545 546 525
f 584 605 606 585
f 1238 1270 1271 1239
f 1312 1343 1344 1313
f 322 346 347 323
f 1414 1444 1445 1415
f 1191 1227 1228 1192
f 1556 1582 1583 1557
f 604 625 626 605
f 1344 1375 1376 1345
f 657 674 675 658
f 707 716 718 706
f 1518 1546 1547 1519
f 919 934 935 920
f 1761 1779 1780 1762
f 588 609 610 589
f 1236 1268 1269 1237
f 722 732 733 723
f 230 262 263 231
f 314 338 339 315
f 794 805 806 795
f 1575 1601 1602 1576
f 1648 1672 1673 1649
f 572 593 594 573
f 1228 1260 1261 1229
f 674 690 691 675
f 1665 1688 1689 1666
f 1661 1684 1685 1662
f 185 220 221 186
f 1306 1337 1338 1307
f 1540 1567 1568 1541
f 404 425 426 405
f 585 606 607 586
f 1302 1333 1334 1303
f 1288 1319 1320 1289
f 699 709 710 700
f 786 797 798 787
f 1472 1501 1502 1473
f 728 738 739 729
f 153 199 200 155
f 1681 1702 1704 1682
f 1477 1506 1507 1478
f 327 351 352 328
f 1252 1285 1284 1254
f 1464 1493 1494 1465
f 156 157 159 158
f 656 673 674 657
f 1334 1365 1366 1335
f 1658 1681 1682 1659
f 1469 1498 1499 1470
f 1587 1612 1613 1588
f 956 972 973 958
f 1440 1469 1470 1441
f 740 751 752 741
f 544 565 566 545
f 1358 1388 1389 1359
f 113 142 143 114
f 1445 1474 1475 1446
f 1494 1523 1524 1495
f 1567 1593 1594 1568
f 1682 1704 1705 1683
f 724 734 735 725
f 256 284 285 257
f 1366 1396 1397 1367
f 338 362 363 339
f 1633 1656 1658 1634
f 1588 1613 1614 1589
f 1686 1708 1709 1687
f 81 114 115 82
f 609 630 631 610
f 1456 1485 1486 1457
f 755 764 766 757
f 1486 1515 1516 1487
f 716 726 728 718
f 1705 1726 1727 1706
f 908 923 924 909
f 193 228 229 194
f 1310 1341 1342 1311
f 1480 1509 1510 1481
f 731 741 742 732
f 1462 1491 1492 1463
f 1561 1587 1588 1562
f 1640 1664 1665 1641
f 892 904 905 893
f 859 869 870 860
f 1430 1460 1461 1431
f 1488 1517 1518 1489
f 1653 1677 1678 1654
f 1390 1420 1421 1391
f 1727 1747 1748 1728
f 1755 1773 1774 1756
f 1446 1475 1476 1447
f 849 859 860 850
f 739 750 751 740
f 1270 1301 1302 1271
f 700 710 711 701
f 1572 1598 1599 1573
f 708 719 720 709
f 1340 1371 1372 1341
f 321 345 346 322
f 1432 1462 1463 1433
f 1541 1568 1569 1542
f 1670 1693 1694 1671
f 1543 1570 1571 1544
f 1536 1563 1564 1537
f 1044 1071 1072 1045
f 1048 1075 1076 1049
f 1799 1815 1814 1801
f 1544 1571 1572 1545
f 1533 1560 1561 1534
f 890 902 903 891
f 1535 1562 1563 1536
f 1528 1555 1556 1529
f 1028 1056 1057 1030
f 976 1006 1008 978
f 1560 1586 1587 1561
f 92 121 123 122
f 1511 1539 1540 1512
f 1698 1720 1721 1699
f 1020 1048 1049 1021
f 872 883 885 884
f 1502 1530 1531 1503
f 409 430 431 410
f 1645 1669 1670 1646
f 1553 1581 1580 1555
f 1274 1305 1306 1275
f 1596 1621 1622 1597
f 1108 1136 1137 1109
f 1404 1434 1435 1405
f 1510 1538 1539 1511
f 1697 1719 1720 1698
f 362 385 386 363
f 1662 1685 1686 1663
f 748 757 758 749
f 1690 1712 1713 1691
f 1188 1224 1225 1189
f 1176 1207 1208 1177
f 778 787 788 779
f 1608 1633 1634 1609
f 1513 1541 1542 1514
f 834 844 845 835
f 1776 1793 1794 1777
f 1172 1203 1204 1173
f 1500 1528 1529 1501
f 1346 1378 1377 1348
f 1616 1641 1642 1617
f 795 806 807 796
f 1667 1690 1691 1668
f 1719 1740 1741 1720
f 1604 1629 1630 1605
f 1156 1187 1188 1157
f 1492 1521 1522 1493
f 1257 1288 1289 1258
f 1624 1649 1650 1625
f 9 10 12 11
f 1361 1391 1392 1362
f 732 742 743 733
f 1600 1625 1626 1601
f 988 1018 1019 989
f 1328 1359 1360 1329
f 617 638 639 618
f 1568 1594 1595 1569
f 1607 1632 1631 1606
f 1519 1547 1548 1520
f 1304 1335 1336 1305
f 1582 1606 1608 1583
f 1713 1734 1735 1714
f 346 370 371 347
f 23 24 26 25
f 1599 1624 1625 1600
f 1592 1617 1618 1593
f 375 398 399 376
f 1248 1280 1281 1249
f 1606 1631 1633 1608
f 1696 1718 1719 1697
f 1621 1646 1647 1622
f 1651 1675 1676 1652
f 1711 1732 1733 1712
f 1576 1602 1603 1577
f 1821 1835 1836 1822
f 1144 1175 1176 1145
f 1638 1662 1663 1639
f 281 305 307 282
f 1613 1638 1639 1614
f 1372 1402 1403 1373
f 1512 1540 1541 1513
f 1105 1133 1134 1106
f 1646 1670 1671 1647
f 1728 1748 1749 1729
f 1573 1599 1600 1574
f 1622 1647 1648 1623
f 1290 1321 1322 1291
f 1652 1676 1677 1653
f 1460 1489 1490 1461
f 1448 1477 1478 1449
f 625 646 647 626
f 1756 1774 1775 1757
f 1517 1545 1546 1518
f 1614 1639 1640 1615
f 780 789 790 781
f 1721 1742 1743 1722
f 1444 1473 1474 1445
f 1636 1660 1661 1637
f 1313 1344 1345 1314
f 1722 1743 1744 1723
f 1397 1427 1428 1398
f 1282 1313 1314 1283
f 1420 1450 1451 1421
f 1628 1653 1654 1629
f 1718 1739 1740 1719
f 865 877 878 866
f 1125 1156 1157 1126
f 1590 1615 1616 1591
f 208 243 244 209
f 1760 1778 1779 1761
f 1276 1307 1308 1277
f 1612 1637 1638 1613
f 1726 1745 1747 1727
f 1704 1724 1726 1705
f 992 993 995 994
f 858 868 869 859
f 772 774 773 765
f 1786 1801 1802 1787
f 1584 1609 1610 1585
f 1620 1645 1646 1621
f 313 337 338 314
f 1748 1765 1767 1749
f 1699 1721 1722 1700
f 1672 1695 1696 1673
f 1580 1607 1606 1582
f 1520 1548 1549 1521
f 1774 1791 1792 1775
f 1737 1757 1758 1738
f 1379 1409 1410 1380
f 1305 1336 1337 1306
f 1679 1703 1702 1681
f 1664 1687 1688 1665
f 1564 1590 1591 1565
f 1416 1446 1447 1417
f 1814 1828 1830 1816
f 1778 1795 1796 1779
f 1083 1113 1114 1084
f 7 8 10 9
f 1671 1694 1695 1672
f 1073 1103 1104 1074
f 1644 1668 1669 1645
f 1668 1691 1692 1669
f 1729 1749 1750 1730
f 1683 1705 1706 1684
f 1639 1663 1664 1640
f 1730 1750 1751 1731
f 1770 1787 1788 1771
f 1720 1741 1742 1721
f 1822 1836 1837 1823
f 525 546 547 526
f 1789 1804 1805 1790
f 1710 1731 1732 1711
f 1583 1608 1609 1584
f 1684 1706 1707 1685
f 1700 1722 1723 1701
f 1772 1789 1790 1773
f 1297 1328 1329 1298
f 1762 1780 1781 1763
f 1233 1265 1266 1234
f 1702 1725 1724 1704
f 828 839 840 829
f 1734 1754 1755 1735
f 1724 1746 1745 1726
f 867 879 880 868
f 874 887 886 873
f 1775 1792 1793 1776
f 1676 1699 1700 1677
f 1692 1714 1715 1693
f 1708 1729 1730 1709
f 842 852 851 841
f 1716 1737 1738 1717
f 1546 1573 1574 1547
f 1838 1848 1849 1839
f 812 821 823 814
f 1736 1756 1757 1737
f 1548 1575 1576 1549
f 1732 1752 1753 1733
f 87 88 90 89
f 166 167 169 168
f 32 44 45 33
f 1712 1733 1734 1713
f 654 671 673 656
f 1740 1760 1761 1741
f 914 929 931 916
f 1753 1771 1772 1754
f 851 861 863 853
f 1750 1768 1769 1751
f 804 814 815 805
f 1768 1785 1786 1769
f 265 293 294 266
f 857 867 868 858
f 79 112 113 80
f 1516 1544 1545 1517
f 1759 1777 1778 1760
f 1796 1811 1812 1797
f 1688 1710 1711 1689
f 641 663 664 642
f 841 851 853 843
f 1757 1775 1776 1758
f 1739 1759 1760 1740
f 1743 1763 1764 1744
f 1656 1679 1681 1658
f 497 518 519 498
f 1424 1454 1455 1425
f 1811 1825 1826 1812
f 27 39 41 29
f 1749 1767 1768 1750
f 1478 1507 1508 1479
f 99 130 131 100
f 904 919 920 905
f 127 174 175 128
f 82 115 116 83
f 1717 1738 1739 1718
f 866 878 879 867
f 24 35 36 26
f 1400 1430 1431 1401
f 75 108 109 76
f 29 41 42 30
f 898 915 914 900
f 65 100 101 67
f 1330 1361 1362 1331
f 319 343 344 320
f 1808 1822 1823 1809
f 181 218 217 183
f 45 76 77 46
f 906 921 922 907
f 101 132 133 102
f 38 49 51 50
f 1715 1736 1737 1716
f 860 870 872 871
f 1816 1830 1831 1817
f 117 146 147 118
f 1322 1353 1354 1323
f 864 876 877 865
f 5 6 8 7
f 93 96 95 94
f 305 329 331 307
f 1820 1834 1835 1821
f 1649 1673 1674 1650
f 1806 1820 1821 1807
f 1832 1841 1843 1833
