# exported by blender_batch_chars_to_s.py fallback
v 0.004607 -0.003851 0.000000
v 0.010000 -0.003259 0.000000
v 0.010000 -0.008359 0.028396
v 0.003899 -0.008359 0.000000
v 0.015393 -0.003851 0.000000
v 0.016101 -0.008359 0.000000
v 0.010000 -0.013459 0.000000
v 0.004607 -0.012867 0.000000
v 0.015393 -0.012867 0.000000
v 0.374676 -0.137659 0.000000
v 0.380718 -0.136890 0.000000
v 0.380458 -0.142492 0.054883
v 0.373755 -0.142712 0.000000
v 0.390006 -0.136761 0.000000
v 0.390025 -0.142467 0.067130
v 0.399377 -0.136891 0.000000
v 0.399923 -0.142502 0.058805
v 0.406031 -0.137678 0.000000
v 0.409482 -0.142860 0.000000
v 0.380425 -0.150494 0.070352
v 0.373583 -0.150522 0.000000
v 0.390027 -0.150492 0.089978
v 0.399996 -0.150495 0.088170
v 0.409941 -0.150539 0.073025
v 0.419242 -0.144895 0.000000
v 0.419594 -0.150810 0.055983
v 0.425383 -0.145971 0.000000
v 0.426712 -0.151092 0.000000
v 0.380423 -0.158829 0.073847
v 0.373566 -0.158831 0.000000
v 0.390027 -0.158829 0.097480
v 0.400001 -0.158829 0.101089
v 0.409996 -0.158832 0.093738
v 0.419950 -0.158870 0.074604
v 0.429595 -0.159167 0.000000
v 0.380423 -0.167188 0.074485
v 0.373565 -0.167188 0.000000
v 0.390027 -0.167188 0.100108
v 0.400001 -0.167188 0.107851
v 0.410000 -0.167188 0.104121
v 0.419997 -0.167190 0.092733
v 0.429950 -0.167229 0.073814
v 0.439255 -0.161576 0.000000
v 0.439592 -0.167527 0.056014
v 0.445380 -0.162688 0.000000
v 0.446671 -0.167821 0.000000
v 0.380423 -0.175547 0.074612
v 0.373565 -0.175547 0.000000
v 0.390027 -0.175547 0.101071
v 0.400001 -0.175547 0.111419
v 0.410000 -0.175547 0.110583
v 0.420000 -0.175547 0.103945
v 0.429995 -0.175550 0.094056
v 0.439919 -0.175597 0.074215
v 0.449173 -0.175981 0.000000
v 0.380423 -0.183906 0.074379
v 0.373566 -0.183904 0.000000
v 0.390027 -0.183906 0.100953
v 0.400001 -0.183906 0.112611
v 0.410000 -0.183906 0.115499
v 0.420000 -0.183906 0.111996
v 0.430000 -0.183906 0.104607
v 0.439994 -0.183911 0.091070
v 0.449911 -0.183981 0.063820
v 0.456010 -0.178884 0.000000
v 0.459526 -0.184587 0.000000
v 0.380425 -0.192261 0.071972
v 0.373583 -0.192217 0.000000
v 0.390027 -0.192266 0.098557
v 0.400001 -0.192266 0.110862
v 0.410000 -0.192266 0.117634
v 0.420000 -0.192266 0.118065
v 0.430000 -0.192266 0.111956
v 0.440000 -0.192266 0.103006
v 0.449995 -0.192271 0.090644
v 0.459967 -0.192332 0.075654
v 0.469898 -0.186547 0.000000
v 0.469991 -0.192578 0.070271
v 0.479367 -0.187015 0.000000
v 0.479888 -0.192663 0.058596
v 0.485965 -0.187848 0.000000
v 0.488992 -0.193111 0.000000
v 0.380469 -0.200561 0.059883
v 0.373757 -0.200101 0.000000
v 0.390031 -0.200622 0.090888
v 0.400001 -0.200625 0.106700
v 0.410000 -0.200625 0.116932
v 0.420000 -0.200625 0.121958
v 0.430000 -0.200625 0.118474
v 0.440000 -0.200625 0.111626
v 0.450000 -0.200625 0.104422
v 0.459999 -0.200628 0.098678
v 0.469999 -0.200646 0.095685
v 0.479970 -0.200652 0.086559
v 0.489573 -0.200721 0.059493
v 0.495341 -0.195642 0.000000
v 0.496668 -0.201189 0.000000
v 0.380884 -0.208591 0.000000
v 0.374698 -0.205670 0.000000
v 0.390083 -0.208957 0.078135
v 0.400004 -0.208983 0.102776
v 0.410000 -0.208984 0.116048
v 0.420000 -0.208984 0.124288
v 0.430000 -0.208984 0.124517
v 0.440000 -0.208984 0.119303
v 0.450000 -0.208984 0.113962
v 0.460000 -0.208984 0.110699
v 0.470000 -0.208985 0.107692
v 0.479996 -0.208986 0.098683
v 0.489918 -0.209017 0.075395
v 0.499169 -0.209416 0.000000
v 0.390371 -0.217341 0.075101
v 0.383143 -0.217307 0.000000
v 0.400025 -0.217344 0.101876
v 0.410001 -0.217344 0.115960
v 0.420000 -0.217344 0.125922
v 0.430000 -0.217344 0.130038
v 0.440000 -0.217344 0.126952
v 0.450000 -0.217344 0.122791
v 0.460000 -0.217344 0.119755
v 0.470000 -0.217344 0.115170
v 0.480000 -0.217344 0.106150
v 0.489993 -0.217348 0.091345
v 0.499879 -0.217427 0.063405
v 0.505944 -0.212338 0.000000
v 0.509054 -0.218133 0.000000
v 0.390419 -0.225703 0.074708
v 0.383526 -0.225701 0.000000
v 0.400027 -0.225703 0.101787
v 0.410001 -0.225703 0.116077
v 0.420000 -0.225703 0.127116
v 0.430000 -0.225703 0.134616
v 0.440000 -0.225703 0.134561
v 0.450000 -0.225703 0.131489
v 0.460000 -0.225703 0.127738
v 0.470000 -0.225703 0.121157
v 0.480000 -0.225703 0.112525
v 0.490000 -0.225703 0.102905
v 0.499991 -0.225710 0.088696
v 0.509869 -0.225812 0.062805
v 0.515926 -0.220749 0.000000
v 0.519056 -0.226494 0.000000
v 0.390423 -0.234062 0.074682
v 0.383563 -0.234062 0.000000
v 0.400027 -0.234062 0.101784
v 0.410001 -0.234062 0.116119
v 0.420000 -0.234062 0.127587
v 0.430000 -0.234062 0.137155
v 0.440000 -0.234062 0.141013
v 0.450000 -0.234062 0.139379
v 0.460000 -0.234062 0.134604
v 0.470000 -0.234062 0.127169
v 0.480000 -0.234062 0.119242
v 0.490000 -0.234062 0.111439
v 0.500000 -0.234063 0.102504
v 0.509991 -0.234070 0.088662
v 0.519900 -0.234164 0.063216
v 0.525988 -0.229093 0.000000
v 0.529484 -0.234757 0.000000
v 0.390423 -0.242422 0.074681
v 0.383565 -0.242422 0.000000
v 0.400027 -0.242422 0.101784
v 0.410001 -0.242422 0.116124
v 0.420000 -0.242422 0.127667
v 0.430000 -0.242422 0.137840
v 0.440000 -0.242422 0.143703
v 0.450000 -0.242422 0.143636
v 0.460000 -0.242422 0.139236
v 0.470000 -0.242422 0.132864
v 0.480000 -0.242422 0.125903
v 0.490000 -0.242422 0.118673
v 0.500000 -0.242422 0.111220
v 0.510000 -0.242422 0.102604
v 0.519995 -0.242428 0.090417
v 0.529962 -0.242490 0.073843
v 0.539326 -0.236848 0.000000
v 0.539885 -0.242779 0.059061
v 0.545961 -0.237957 0.000000
v 0.548992 -0.243264 0.000000
v 0.390423 -0.250781 0.074681
v 0.383565 -0.250781 0.000000
v 0.400027 -0.250781 0.101777
v 0.410001 -0.250781 0.116026
v 0.420000 -0.250781 0.126942
v 0.430000 -0.250781 0.135087
v 0.440000 -0.250781 0.138481
v 0.450000 -0.250781 0.138759
v 0.460000 -0.250781 0.137341
v 0.470000 -0.250781 0.134658
v 0.480000 -0.250781 0.129676
v 0.490000 -0.250781 0.123476
v 0.500000 -0.250781 0.117215
v 0.510000 -0.250781 0.110876
v 0.520000 -0.250781 0.103853
v 0.529998 -0.250784 0.096792
v 0.539970 -0.250806 0.086653
v 0.549576 -0.250876 0.059523
v 0.555344 -0.245797 0.000000
v 0.556709 -0.251334 0.000000
v 0.390423 -0.259141 0.074677
v 0.383565 -0.259141 0.000000
v 0.400027 -0.259141 0.101710
v 0.410001 -0.259141 0.115428
v 0.420000 -0.259141 0.124210
v 0.430000 -0.259141 0.128569
v 0.440000 -0.259141 0.129741
v 0.450000 -0.259141 0.129852
v 0.460000 -0.259141 0.129579
v 0.470000 -0.259141 0.128585
v 0.480000 -0.259141 0.125484
v 0.490000 -0.259141 0.121106
v 0.500000 -0.259141 0.117593
v 0.510000 -0.259141 0.114457
v 0.520000 -0.259141 0.110470
v 0.530000 -0.259141 0.106471
v 0.539997 -0.259142 0.098104
v 0.549949 -0.259165 0.075600
v 0.559595 -0.259476 0.000000
v 0.390423 -0.267500 0.074645
v 0.383565 -0.267500 0.000000
v 0.400027 -0.267500 0.101354
v 0.410001 -0.267500 0.113404
v 0.420000 -0.267500 0.118487
v 0.430000 -0.267500 0.120043
v 0.440000 -0.267500 0.120313
v 0.450000 -0.267500 0.120332
v 0.460000 -0.267500 0.120266
v 0.470000 -0.267500 0.119785
v 0.480000 -0.267500 0.117679
v 0.490000 -0.267500 0.113570
v 0.500000 -0.267500 0.110630
v 0.510000 -0.267499 0.109398
v 0.520000 -0.267499 0.108222
v 0.530000 -0.267499 0.106623
v 0.540000 -0.267499 0.101943
v 0.549996 -0.267501 0.091096
v 0.559947 -0.267541 0.072891
v 0.569249 -0.261889 0.000000
v 0.569540 -0.267836 0.055272
v 0.575322 -0.262998 0.000000
v 0.576244 -0.268095 0.000000
v 0.390423 -0.275859 0.074494
v 0.383565 -0.275859 0.000000
v 0.400027 -0.275859 0.100251
v 0.410001 -0.275859 0.109105
v 0.420000 -0.275859 0.110313
v 0.430000 -0.275859 0.110349
v 0.440000 -0.275859 0.110339
v 0.450000 -0.275859 0.110336
v 0.460000 -0.275859 0.110315
v 0.470000 -0.275859 0.110071
v 0.480000 -0.275859 0.108522
v 0.490000 -0.275859 0.103858
v 0.499999 -0.275856 0.098784
v 0.510000 -0.275839 0.097446
v 0.520000 -0.275837 0.097145
v 0.530000 -0.275836 0.096836
v 0.540000 -0.275836 0.095678
v 0.549999 -0.275837 0.092861
v 0.559972 -0.275839 0.086303
v 0.569573 -0.275857 0.067297
v 0.576398 -0.275859 0.000000
v 0.390423 -0.284218 0.073849
v 0.383566 -0.284216 0.000000
v 0.400027 -0.284218 0.097526
v 0.410001 -0.284218 0.101700
v 0.419999 -0.284216 0.098564
v 0.430000 -0.284198 0.097528
v 0.440000 -0.284196 0.097395
v 0.450000 -0.284196 0.097386
v 0.460000 -0.284196 0.097375
v 0.470000 -0.284196 0.097209
v 0.480000 -0.284196 0.095777
v 0.489996 -0.284193 0.089153
v 0.499967 -0.284150 0.075648
v 0.509997 -0.283909 0.072214
v 0.520000 -0.283868 0.071745
v 0.530000 -0.283865 0.071686
v 0.540000 -0.283865 0.071538
v 0.549999 -0.283865 0.071047
v 0.559970 -0.283864 0.068469
v 0.569542 -0.283837 0.054741
v 0.576244 -0.283619 0.000000
v 0.390425 -0.292553 0.070352
v 0.383583 -0.292525 0.000000
v 0.400027 -0.292555 0.089987
v 0.409997 -0.292552 0.088388
v 0.419967 -0.292509 0.075590
v 0.429997 -0.292268 0.072217
v 0.440000 -0.292227 0.071761
v 0.450000 -0.292225 0.071730
v 0.460000 -0.292225 0.071722
v 0.470000 -0.292225 0.071574
v 0.479995 -0.292223 0.069801
v 0.489924 -0.292186 0.059067
v 0.499530 -0.291839 0.000000
v 0.509957 -0.289950 0.000000
v 0.519998 -0.289630 0.000000
v 0.530000 -0.289600 0.000000
v 0.540000 -0.289598 0.000000
v 0.549997 -0.289597 0.000000
v 0.559936 -0.289583 0.000000
v 0.569280 -0.289439 0.000000
v 0.575324 -0.288670 0.000000
v 0.390458 -0.300555 0.054883
v 0.383755 -0.300335 0.000000
v 0.400025 -0.300580 0.067131
v 0.409925 -0.300545 0.058836
v 0.419530 -0.300199 0.000000
v 0.429957 -0.298310 0.000000
v 0.439998 -0.297990 0.000000
v 0.450000 -0.297959 0.000000
v 0.460000 -0.297957 0.000000
v 0.469997 -0.297957 0.000000
v 0.479942 -0.297942 0.000000
v 0.489374 -0.297797 0.000000
v 0.496035 -0.297010 0.000000
v 0.390718 -0.306157 0.000000
v 0.384676 -0.305388 0.000000
v 0.400006 -0.306286 0.000000
v 0.409377 -0.306156 0.000000
v 0.416035 -0.305370 0.000000
v 0.504581 -0.329944 0.000000
v 0.510000 -0.329313 0.000000
v 0.510000 -0.334759 0.037851
v 0.503731 -0.334927 0.000000
v 0.515419 -0.329944 0.000000
v 0.516269 -0.334927 0.000000
v 0.510000 -0.342350 0.037851
v 0.503731 -0.342183 0.000000
v 0.516269 -0.342183 0.000000
v 0.510000 -0.347797 0.000000
v 0.504581 -0.347166 0.000000
v 0.515419 -0.347166 0.000000
v 0.163878 -0.981997 0.000000
v 0.170000 -0.981348 0.000000
v 0.169998 -0.986837 0.046973
v 0.160467 -0.987148 0.000000
v 0.176118 -0.981998 0.000000
v 0.179492 -0.987159 0.000000
v 0.134677 -0.990309 0.000000
v 0.140723 -0.989512 0.000000
v 0.140460 -0.995123 0.052033
v 0.133773 -0.995315 0.000000
v 0.150107 -0.989049 0.000000
v 0.150034 -0.995074 0.065081
v 0.160034 -0.994834 0.072227
v 0.170000 -0.994795 0.081795
v 0.179962 -0.994837 0.072345
v 0.189326 -0.989194 0.000000
v 0.189885 -0.995123 0.058804
v 0.195961 -0.990301 0.000000
v 0.198988 -0.995608 0.000000
v 0.140463 -1.002811 0.052414
v 0.133773 -1.002581 0.000000
v 0.150062 -1.003075 0.067770
v 0.160006 -1.003104 0.082976
v 0.170001 -1.003123 0.091028
v 0.179998 -1.003127 0.091696
v 0.189967 -1.003149 0.084718
v 0.199521 -1.003218 0.058569
v 0.205282 -0.998139 0.000000
v 0.206241 -1.003650 0.000000
v 0.140763 -1.008700 0.000000
v 0.134681 -1.007628 0.000000
v 0.150518 -1.010738 0.000000
v 0.160081 -1.011135 0.058857
v 0.170037 -1.011413 0.072912
v 0.180003 -1.011458 0.086613
v 0.189973 -1.011462 0.087625
v 0.199572 -1.011464 0.067793
v 0.206398 -1.011480 0.000000
v 0.074607 -1.015336 0.000000
v 0.080000 -1.014744 0.000000
v 0.080000 -1.019844 0.028396
v 0.073899 -1.019844 0.000000
v 0.085393 -1.015336 0.000000
v 0.086101 -1.019844 0.000000
v 0.160669 -1.017057 0.000000
v 0.153972 -1.015964 0.000000
v 0.170514 -1.019093 0.000000
v 0.180077 -1.019451 0.058648
v 0.189975 -1.019486 0.066869
v 0.199542 -1.019461 0.054645
v 0.206244 -1.019244 0.000000
v 0.080000 -1.024944 0.000000
v 0.074607 -1.024352 0.000000
v 0.085393 -1.024352 0.000000
v 0.180623 -1.025062 0.000000
v 0.173968 -1.024275 0.000000
v 0.189994 -1.025192 0.000000
v 0.199283 -1.025064 0.000000
v 0.205324 -1.024295 0.000000
v 0.244581 -1.040491 0.000000
v 0.250000 -1.039860 0.000000
v 0.250000 -1.045306 0.037851
v 0.243731 -1.045473 0.000000
v 0.255419 -1.040491 0.000000
v 0.256269 -1.045474 0.000000
v 0.250000 -1.052897 0.037851
v 0.243731 -1.052730 0.000000
v 0.256269 -1.052730 0.000000
v 0.044871 -1.056328 0.000000
v 0.050000 -1.055994 0.000000
v 0.050000 -1.058928 0.000000
v 0.044871 -1.058594 0.000000
v 0.055129 -1.056328 0.000000
v 0.055129 -1.058594 0.000000
v 0.250000 -1.058344 0.000000
v 0.244581 -1.057713 0.000000
v 0.255419 -1.057713 0.000000
f 101 114 115 102
f 185 205 206 186
f 182 202 203 183
f 77 78 80 79
f 84 99 98 83
f 214 233 234 215
f 105 118 119 106
f 170 190 191 171
f 73 89 90 74
f 69 85 86 70
f 162 182 183 163
f 57 68 67 56
f 205 224 225 206
f 23 32 33 24
f 307 320 321 308
f 223 246 247 224
f 78 93 94 80
f 103 116 117 104
f 235 258 259 236
f 181 201 200 180
f 171 191 192 172
f 100 112 114 101
f 1 4 3 2
f 218 237 239 238
f 113 128 127 112
f 110 123 124 111
f 107 120 121 108
f 163 183 184 164
f 129 145 146 130
f 128 144 143 127
f 82 95 97 96
f 135 151 152 136
f 147 164 165 148
f 145 162 163 146
f 144 161 160 143
f 124 139 140 126
f 160 180 182 162
f 176 177 179 178
f 169 189 190 170
f 94 109 110 95
f 177 196 197 179
f 186 206 207 187
f 324 325 328 327
f 14 15 17 16
f 194 214 215 195
f 117 132 133 118
f 108 121 122 109
f 114 129 130 115
f 213 232 233 214
f 116 131 132 117
f 190 210 211 191
f 155 172 173 156
f 120 135 136 121
f 122 137 138 123
f 228 251 252 229
f 134 150 151 135
f 133 149 150 134
f 131 147 148 132
f 247 268 269 248
f 237 260 261 239
f 224 247 248 225
f 140 156 157 142
f 138 154 155 139
f 152 169 170 153
f 151 168 169 152
f 149 166 167 150
f 280 301 302 281
f 273 294 295 274
f 259 280 281 260
f 225 248 249 226
f 172 192 193 173
f 342 343 346 345
f 165 185 186 166
f 346 356 357 347
f 345 346 347 338
f 293 314 315 294
f 173 193 194 174
f 367 379 381 368
f 323 326 325 324
f 384 392 393 385
f 4 8 7 3
f 183 203 204 184
f 306 319 318 305
f 361 371 372 363
f 294 315 316 295
f 191 211 212 192
f 17 23 24 19
f 195 215 216 196
f 201 220 219 200
f 200 219 221 202
f 25 26 28 27
f 192 212 213 193
f 19 24 26 25
f 208 227 228 209
f 209 228 229 210
f 56 67 69 58
f 11 12 15 14
f 217 236 237 218
f 32 39 40 33
f 33 40 41 34
f 210 229 230 211
f 35 42 44 43
f 10 13 12 11
f 3 7 9 6
f 229 252 253 230
f 232 255 256 233
f 233 256 257 234
f 63 74 75 64
f 226 249 250 227
f 242 263 265 244
f 244 265 266 245
f 12 20 22 15
f 248 269 270 249
f 251 272 273 252
f 252 273 274 253
f 37 48 47 36
f 245 266 267 246
f 44 54 55 46
f 260 281 282 261
f 13 21 20 12
f 263 284 286 265
f 265 286 287 266
f 268 289 290 269
f 269 290 291 270
f 72 88 89 73
f 261 282 283 262
f 276 297 298 277
f 277 298 299 278
f 22 31 32 23
f 281 302 303 282
f 284 305 307 286
f 286 307 308 287
f 40 51 52 41
f 278 299 300 279
f 42 53 54 44
f 119 134 135 120
f 305 318 320 307
f 21 30 29 20
f 330 333 332 329
f 53 62 63 54
f 62 73 74 63
f 295 316 317 296
f 340 349 351 350
f 350 351 353 352
f 87 102 103 88
f 347 357 358 348
f 351 360 361 353
f 353 361 363 362
f 43 44 46 45
f 15 22 23 17
f 47 56 58 49
f 373 376 375 374
f 358 368 369 359
f 368 381 382 369
f 168 188 189 169
f 375 386 388 378
f 30 37 36 29
f 16 17 19 18
f 184 204 205 185
f 51 60 61 52
f 394 397 396 395
f 50 59 60 51
f 221 244 245 222
f 93 108 109 94
f 180 200 202 182
f 26 34 35 28
f 374 375 378 377
f 118 133 134 119
f 102 115 116 103
f 31 38 39 32
f 203 222 223 204
f 61 72 73 62
f 189 209 210 190
f 188 208 209 189
f 202 221 222 203
f 55 64 66 65
f 106 119 120 107
f 54 63 64 55
f 219 242 244 221
f 104 117 118 105
f 197 217 218 199
f 196 216 217 197
f 193 213 214 194
f 60 71 72 61
f 111 124 126 125
f 34 41 42 35
f 220 243 242 219
f 109 122 123 110
f 207 226 227 208
f 206 225 226 207
f 59 70 71 60
f 238 239 241 240
f 212 231 232 213
f 115 130 131 116
f 58 69 70 59
f 291 312 313 292
f 112 127 129 114
f 216 235 236 217
f 215 234 235 216
f 211 230 231 212
f 204 223 224 205
f 29 36 38 31
f 38 49 50 39
f 24 33 34 26
f 70 86 87 71
f 20 29 31 22
f 153 170 171 154
f 234 257 258 235
f 66 76 78 77
f 123 138 139 124
f 64 75 76 66
f 255 276 277 256
f 121 136 137 122
f 231 254 255 232
f 230 253 254 231
f 227 250 251 228
f 79 80 82 81
f 127 143 145 129
f 36 47 49 38
f 254 275 276 255
f 126 140 142 141
f 243 264 263 242
f 239 261 262 241
f 253 274 275 254
f 67 83 85 69
f 132 148 149 133
f 68 84 83 67
f 290 311 312 291
f 130 146 147 131
f 250 271 272 251
f 249 270 271 250
f 246 267 268 247
f 236 259 260 237
f 136 152 153 137
f 39 50 51 40
f 271 292 293 272
f 80 94 95 82
f 258 279 280 259
f 257 278 279 258
f 270 291 292 271
f 137 153 154 138
f 142 157 159 158
f 71 87 88 72
f 289 310 311 290
f 139 155 156 140
f 267 288 289 268
f 266 287 288 267
f 264 285 284 263
f 74 90 91 75
f 146 163 164 147
f 41 52 53 42
f 288 309 310 289
f 143 160 162 145
f 275 296 297 276
f 274 295 296 275
f 287 308 309 288
f 76 92 93 78
f 150 167 168 151
f 75 91 92 76
f 148 165 166 149
f 285 306 305 284
f 282 303 304 283
f 279 300 301 280
f 272 293 294 273
f 256 277 278 257
f 336 337 340 339
f 292 313 314 293
f 88 103 104 89
f 222 245 246 223
f 187 207 208 188
f 335 338 337 336
f 154 171 172 155
f 159 175 177 176
f 329 332 334 331
f 91 106 107 92
f 157 174 175 159
f 156 173 174 157
f 356 366 367 357
f 325 329 331 328
f 326 330 329 325
f 308 321 322 309
f 95 110 111 97
f 344 355 354 343
f 83 98 100 85
f 167 187 188 168
f 48 57 56 47
f 354 364 366 356
f 161 181 180 160
f 337 348 349 340
f 338 347 348 337
f 355 365 364 354
f 86 101 102 87
f 166 186 187 167
f 85 100 101 86
f 403 406 405 404
f 164 184 185 165
f 349 359 360 351
f 348 358 359 349
f 343 354 356 346
f 341 344 343 342
f 52 61 62 53
f 175 195 196 177
f 49 58 59 50
f 382 389 391 383
f 98 113 112 100
f 360 370 371 361
f 359 369 370 360
f 381 390 389 382
f 90 105 106 91
f 174 194 195 175
f 89 104 105 90
f 376 387 386 375
f 396 400 402 399
f 371 384 385 372
f 370 383 384 371
f 369 382 383 370
f 366 380 379 367
f 179 197 199 198
f 92 107 108 93
f 2 3 6 5
f 395 396 399 398
f 397 401 400 396
f 383 391 392 384
f 357 367 368 358
f 404 405 408 407
f 401 410 409 400
f 400 409 411 402
