# exported by blender_batch_chars_to_s.py fallback
v 0.724677 -0.135915 0.000000
v 0.730718 -0.135307 0.000000
v 0.730460 -0.139754 0.044800
v 0.723773 -0.139893 0.000000
v 0.740006 -0.135204 0.000000
v 0.740024 -0.139737 0.056327
v 0.749372 -0.135309 0.000000
v 0.749892 -0.139771 0.049822
v 0.755970 -0.135945 0.000000
v 0.759055 -0.140127 0.000000
v 0.730471 -0.146062 0.048346
v 0.723775 -0.145720 0.000000
v 0.740031 -0.146109 0.071392
v 0.749992 -0.146116 0.073258
v 0.759870 -0.146183 0.053707
v 0.765926 -0.142162 0.000000
v 0.769056 -0.146722 0.000000
v 0.730898 -0.152394 0.000000
v 0.724701 -0.150102 0.000000
v 0.740085 -0.152710 0.064597
v 0.750004 -0.152734 0.080173
v 0.759992 -0.152741 0.075196
v 0.769902 -0.152815 0.054295
v 0.775991 -0.148786 0.000000
v 0.779527 -0.153277 0.000000
v 0.740427 -0.159301 0.051434
v 0.733335 -0.158928 0.000000
v 0.750031 -0.159370 0.074998
v 0.760001 -0.159375 0.082468
v 0.769995 -0.159380 0.077058
v 0.779967 -0.159428 0.064645
v 0.789956 -0.154820 0.000000
v 0.789997 -0.159621 0.061399
v 0.799995 -0.155077 0.000000
v 0.800000 -0.159654 0.060846
v 0.809942 -0.155113 0.000000
v 0.809994 -0.159658 0.059386
v 0.819369 -0.155230 0.000000
v 0.819891 -0.159693 0.050173
v 0.825969 -0.155867 0.000000
v 0.829055 -0.160048 0.000000
v 0.741009 -0.165391 0.000000
v 0.734659 -0.163337 0.000000
v 0.750124 -0.165950 0.054491
v 0.760008 -0.166012 0.077753
v 0.770000 -0.166016 0.084722
v 0.779999 -0.166018 0.083118
v 0.790000 -0.166032 0.082462
v 0.800000 -0.166034 0.082297
v 0.810000 -0.166034 0.081334
v 0.819991 -0.166038 0.075088
v 0.829870 -0.166105 0.053922
v 0.835926 -0.162084 0.000000
v 0.839056 -0.166644 0.000000
v 0.750831 -0.172313 0.000000
v 0.744060 -0.169992 0.000000
v 0.760082 -0.172632 0.065725
v 0.770004 -0.172655 0.084409
v 0.780000 -0.172656 0.090081
v 0.790000 -0.172657 0.091804
v 0.800000 -0.172657 0.092099
v 0.810000 -0.172657 0.091307
v 0.820000 -0.172657 0.087339
v 0.829991 -0.172663 0.076529
v 0.839902 -0.172736 0.054450
v 0.845991 -0.168708 0.000000
v 0.849525 -0.173199 0.000000
v 0.760417 -0.179244 0.052316
v 0.753330 -0.178853 0.000000
v 0.770028 -0.179294 0.079196
v 0.780001 -0.179297 0.091435
v 0.790000 -0.179297 0.096568
v 0.800000 -0.179297 0.098170
v 0.810000 -0.179297 0.097714
v 0.820000 -0.179297 0.094333
v 0.830000 -0.179297 0.088150
v 0.839995 -0.179302 0.078121
v 0.849967 -0.179349 0.064647
v 0.859899 -0.174754 0.000000
v 0.859992 -0.179545 0.059883
v 0.869372 -0.175125 0.000000
v 0.869924 -0.179606 0.050568
v 0.876035 -0.175774 0.000000
v 0.879530 -0.179884 0.000000
v 0.760880 -0.185624 0.000000
v 0.754640 -0.183302 0.000000
v 0.770082 -0.185916 0.068807
v 0.780004 -0.185937 0.089258
v 0.790000 -0.185937 0.097592
v 0.800000 -0.185937 0.101357
v 0.810000 -0.185937 0.102246
v 0.820000 -0.185937 0.099613
v 0.830000 -0.185937 0.094827
v 0.840000 -0.185938 0.089125
v 0.849999 -0.185940 0.083800
v 0.860000 -0.185954 0.081622
v 0.869996 -0.185958 0.076633
v 0.879967 -0.185992 0.064595
v 0.889957 -0.181384 0.000000
v 0.889997 -0.186184 0.061396
v 0.899995 -0.181639 0.000000
v 0.900000 -0.186216 0.060846
v 0.909942 -0.181675 0.000000
v 0.909994 -0.186220 0.059386
v 0.919369 -0.181793 0.000000
v 0.919891 -0.186255 0.050174
v 0.925970 -0.182430 0.000000
v 0.929059 -0.186610 0.000000
v 0.770374 -0.192572 0.063613
v 0.763162 -0.192511 0.000000
v 0.780025 -0.192578 0.085357
v 0.790001 -0.192578 0.094393
v 0.800000 -0.192578 0.100047
v 0.810000 -0.192578 0.103766
v 0.820000 -0.192578 0.103428
v 0.830000 -0.192578 0.099967
v 0.840000 -0.192578 0.095748
v 0.850000 -0.192578 0.092920
v 0.860000 -0.192579 0.091490
v 0.870000 -0.192579 0.088397
v 0.879999 -0.192581 0.083802
v 0.890000 -0.192594 0.082542
v 0.900000 -0.192596 0.082303
v 0.910000 -0.192596 0.081335
v 0.919992 -0.192600 0.075107
v 0.929902 -0.192661 0.054285
v 0.935991 -0.188633 0.000000
v 0.939527 -0.193121 0.000000
v 0.770475 -0.199147 0.051304
v 0.763719 -0.198798 0.000000
v 0.780033 -0.199214 0.076207
v 0.790001 -0.199219 0.088758
v 0.800000 -0.199219 0.096851
v 0.810000 -0.199219 0.103118
v 0.820000 -0.199219 0.105892
v 0.830000 -0.199219 0.104195
v 0.840000 -0.199219 0.101120
v 0.850000 -0.199219 0.099220
v 0.860000 -0.199219 0.098007
v 0.870000 -0.199219 0.095340
v 0.880000 -0.199219 0.092977
v 0.890000 -0.199219 0.092350
v 0.900000 -0.199219 0.092172
v 0.910000 -0.199219 0.091321
v 0.920000 -0.199219 0.087458
v 0.929995 -0.199224 0.078045
v 0.939967 -0.199271 0.064760
v 0.949957 -0.194663 0.000000
v 0.949997 -0.199465 0.061411
v 0.959998 -0.194920 0.000000
v 0.960000 -0.199497 0.060960
v 0.969997 -0.194945 0.000000
v 0.970000 -0.199500 0.060815
v 0.979942 -0.194958 0.000000
v 0.979994 -0.199501 0.059383
v 0.989369 -0.195074 0.000000
v 0.989888 -0.199537 0.050133
v 0.995965 -0.195711 0.000000
v 0.998992 -0.199891 0.000000
v 0.771013 -0.205234 0.000000
v 0.764715 -0.203183 0.000000
v 0.780124 -0.205794 0.054818
v 0.790007 -0.205856 0.080071
v 0.800000 -0.205859 0.093406
v 0.810000 -0.205859 0.101683
v 0.820000 -0.205859 0.106798
v 0.830000 -0.205859 0.107577
v 0.840000 -0.205859 0.105880
v 0.850000 -0.205859 0.104540
v 0.860000 -0.205859 0.103399
v 0.870000 -0.205859 0.100975
v 0.880000 -0.205859 0.099321
v 0.890000 -0.205859 0.098902
v 0.900000 -0.205859 0.098737
v 0.910000 -0.205859 0.097839
v 0.920000 -0.205859 0.094433
v 0.930000 -0.205859 0.089084
v 0.939999 -0.205862 0.083882
v 0.950000 -0.205876 0.082551
v 0.960000 -0.205878 0.082388
v 0.970000 -0.205878 0.082292
v 0.979999 -0.205878 0.081297
v 0.989970 -0.205881 0.074655
v 0.999573 -0.205936 0.051428
v 1.005341 -0.201901 0.000000
v 1.006665 -0.206307 0.000000
v 0.780818 -0.212185 0.000000
v 0.774059 -0.209838 0.000000
v 0.790079 -0.212478 0.068910
v 0.800004 -0.212499 0.089730
v 0.810000 -0.212500 0.099516
v 0.820000 -0.212500 0.105879
v 0.830000 -0.212500 0.109514
v 0.840000 -0.212500 0.109913
v 0.850000 -0.212500 0.109248
v 0.860000 -0.212500 0.108068
v 0.870000 -0.212500 0.105957
v 0.880000 -0.212500 0.104688
v 0.890000 -0.212500 0.104374
v 0.900000 -0.212500 0.104190
v 0.910000 -0.212500 0.103189
v 0.920000 -0.212500 0.099892
v 0.930000 -0.212500 0.095746
v 0.940000 -0.212500 0.093024
v 0.950000 -0.212501 0.092360
v 0.960000 -0.212501 0.092273
v 0.970000 -0.212501 0.092149
v 0.980000 -0.212501 0.091062
v 0.989996 -0.212502 0.085211
v 0.999915 -0.212526 0.065906
v 1.009106 -0.212841 0.000000
v 0.790373 -0.219135 0.063720
v 0.783159 -0.219073 0.000000
v 0.800025 -0.219140 0.086069
v 0.810001 -0.219141 0.096425
v 0.820000 -0.219141 0.103456
v 0.830000 -0.219141 0.108846
v 0.840000 -0.219141 0.112245
v 0.850000 -0.219141 0.113272
v 0.860000 -0.219141 0.112395
v 0.870000 -0.219141 0.110606
v 0.880000 -0.219141 0.109584
v 0.890000 -0.219141 0.109317
v 0.900000 -0.219141 0.109032
v 0.910000 -0.219141 0.107731
v 0.920000 -0.219141 0.104510
v 0.930000 -0.219141 0.101156
v 0.940000 -0.219141 0.099337
v 0.950000 -0.219141 0.098911
v 0.960000 -0.219141 0.098848
v 0.970000 -0.219141 0.098665
v 0.980000 -0.219141 0.097303
v 0.989999 -0.219141 0.091816
v 0.999972 -0.219143 0.079149
v 1.009582 -0.219194 0.052290
v 1.015359 -0.215137 0.000000
v 1.016666 -0.219585 0.000000
v 0.790466 -0.225730 0.051992
v 0.783718 -0.225364 0.000000
v 0.800031 -0.225778 0.079151
v 0.810001 -0.225781 0.092387
v 0.820000 -0.225781 0.100245
v 0.830000 -0.225781 0.106629
v 0.840000 -0.225781 0.112174
v 0.850000 -0.225781 0.115854
v 0.860000 -0.225781 0.116309
v 0.870000 -0.225781 0.115053
v 0.880000 -0.225781 0.114227
v 0.890000 -0.225781 0.113985
v 0.900000 -0.225781 0.113587
v 0.910000 -0.225781 0.111957
v 0.920000 -0.225781 0.108831
v 0.930000 -0.225781 0.106059
v 0.940000 -0.225781 0.104696
v 0.950000 -0.225781 0.104384
v 0.960000 -0.225781 0.104316
v 0.970000 -0.225781 0.103971
v 0.980000 -0.225781 0.102016
v 0.990000 -0.225781 0.096317
v 0.999996 -0.225782 0.086631
v 1.009915 -0.225806 0.066089
v 1.019102 -0.226122 0.000000
v 0.790897 -0.232081 0.000000
v 0.784696 -0.229787 0.000000
v 0.800085 -0.232397 0.066094
v 0.810004 -0.232421 0.086694
v 0.820000 -0.232422 0.096762
v 0.830000 -0.232422 0.104268
v 0.840000 -0.232422 0.110973
v 0.850000 -0.232422 0.116533
v 0.860000 -0.232422 0.119345
v 0.870000 -0.232422 0.119256
v 0.880000 -0.232422 0.118728
v 0.890000 -0.232422 0.118511
v 0.900000 -0.232422 0.117976
v 0.910000 -0.232422 0.115985
v 0.920000 -0.232422 0.113021
v 0.930000 -0.232422 0.110680
v 0.940000 -0.232422 0.109590
v 0.950000 -0.232422 0.109340
v 0.960000 -0.232422 0.109226
v 0.970000 -0.232422 0.108535
v 0.980000 -0.232422 0.105692
v 0.990000 -0.232422 0.100118
v 0.999999 -0.232422 0.092376
v 1.009969 -0.232425 0.079148
v 1.019531 -0.232473 0.051971
v 1.025301 -0.228417 0.000000
v 1.026243 -0.232838 0.000000
v 0.800417 -0.239010 0.052373
v 0.793334 -0.238618 0.000000
v 0.810028 -0.239060 0.079683
v 0.820001 -0.239062 0.093573
v 0.830000 -0.239062 0.102505
v 0.840000 -0.239062 0.109930
v 0.850000 -0.239063 0.116505
v 0.860000 -0.239063 0.121399
v 0.870000 -0.239062 0.123089
v 0.880000 -0.239062 0.123133
v 0.890000 -0.239062 0.122979
v 0.900000 -0.239062 0.122306
v 0.910000 -0.239062 0.119980
v 0.920000 -0.239063 0.117179
v 0.930000 -0.239063 0.115149
v 0.940000 -0.239063 0.114234
v 0.950000 -0.239062 0.114019
v 0.960000 -0.239062 0.113835
v 0.970000 -0.239062 0.112746
v 0.980000 -0.239062 0.109082
v 0.990000 -0.239062 0.103492
v 0.999999 -0.239063 0.096407
v 1.009972 -0.239063 0.086004
v 1.019575 -0.239066 0.063397
v 1.026417 -0.239101 0.000000
v 0.800880 -0.245391 0.000000
v 0.794640 -0.243068 0.000000
v 0.810082 -0.245681 0.069333
v 0.820004 -0.245702 0.090834
v 0.830000 -0.245703 0.101584
v 0.840000 -0.245703 0.109427
v 0.850000 -0.245703 0.116384
v 0.860000 -0.245703 0.122454
v 0.870000 -0.245703 0.126280
v 0.880000 -0.245703 0.127389
v 0.890000 -0.245703 0.127405
v 0.900000 -0.245703 0.126566
v 0.910000 -0.245703 0.124006
v 0.920000 -0.245703 0.121352
v 0.930000 -0.245703 0.119544
v 0.940000 -0.245703 0.118746
v 0.950000 -0.245703 0.118535
v 0.960000 -0.245703 0.118183
v 0.970000 -0.245703 0.116499
v 0.980000 -0.245703 0.112171
v 0.990000 -0.245703 0.106360
v 0.999999 -0.245703 0.099369
v 1.009973 -0.245703 0.089067
v 1.019577 -0.245703 0.066187
v 1.026434 -0.245705 0.000000
v 0.810371 -0.252342 0.066972
v 0.803143 -0.252315 0.000000
v 0.820025 -0.252344 0.090233
v 0.830001 -0.252344 0.101387
v 0.840000 -0.252344 0.109317
v 0.850000 -0.252344 0.116378
v 0.860000 -0.252344 0.122974
v 0.870000 -0.252344 0.128416
v 0.880000 -0.252344 0.131193
v 0.890000 -0.252344 0.131563
v 0.900000 -0.252344 0.130487
v 0.910000 -0.252344 0.127926
v 0.920000 -0.252344 0.125487
v 0.930000 -0.252344 0.123840
v 0.940000 -0.252344 0.123099
v 0.950000 -0.252344 0.122840
v 0.960000 -0.252344 0.122152
v 0.970000 -0.252344 0.119579
v 0.980000 -0.252344 0.114582
v 0.990000 -0.252344 0.108412
v 0.999999 -0.252344 0.100915
v 1.009973 -0.252344 0.089998
v 1.019577 -0.252344 0.066609
v 1.026435 -0.252344 0.000000
v 0.810419 -0.258984 0.066670
v 0.803526 -0.258983 0.000000
v 0.820027 -0.258984 0.090171
v 0.830001 -0.258984 0.101366
v 0.840000 -0.258984 0.109305
v 0.850000 -0.258984 0.116386
v 0.860000 -0.258984 0.123163
v 0.870000 -0.258984 0.129467
v 0.880000 -0.258984 0.133810
v 0.890000 -0.258984 0.134416
v 0.900000 -0.258984 0.133185
v 0.910000 -0.258984 0.131009
v 0.920000 -0.258984 0.129018
v 0.930000 -0.258984 0.127435
v 0.940000 -0.258984 0.126578
v 0.950000 -0.258984 0.126075
v 0.960000 -0.258984 0.124720
v 0.970000 -0.258984 0.121282
v 0.980000 -0.258984 0.115776
v 0.990000 -0.258984 0.109136
v 0.999999 -0.258984 0.101308
v 1.009973 -0.258984 0.090153
v 1.019577 -0.258984 0.066648
v 1.026435 -0.258984 0.000000
v 0.810423 -0.265625 0.066651
v 0.803563 -0.265625 0.000000
v 0.820027 -0.265625 0.090168
v 0.830001 -0.265625 0.101364
v 0.840000 -0.265625 0.109304
v 0.850000 -0.265625 0.116386
v 0.860000 -0.265625 0.123160
v 0.870000 -0.265625 0.129411
v 0.880000 -0.265625 0.133366
v 0.890000 -0.265625 0.133244
v 0.900000 -0.265625 0.132030
v 0.910000 -0.265625 0.130912
v 0.920000 -0.265625 0.129862
v 0.930000 -0.265625 0.128227
v 0.940000 -0.265625 0.126891
v 0.950000 -0.265625 0.125737
v 0.960000 -0.265625 0.123392
v 0.970000 -0.265625 0.119998
v 0.980000 -0.265625 0.115343
v 0.990000 -0.265625 0.109116
v 0.999999 -0.265625 0.101345
v 1.009973 -0.265625 0.090167
v 1.019577 -0.265625 0.066650
v 1.026435 -0.265625 0.000000
v 0.810423 -0.272266 0.066650
v 0.803565 -0.272266 0.000000
v 0.820027 -0.272266 0.090168
v 0.830001 -0.272266 0.101364
v 0.840000 -0.272266 0.109304
v 0.850000 -0.272266 0.116377
v 0.860000 -0.272266 0.123049
v 0.870000 -0.272266 0.128623
v 0.880000 -0.272266 0.130705
v 0.890000 -0.272266 0.129632
v 0.900000 -0.272266 0.128274
v 0.910000 -0.272266 0.127507
v 0.920000 -0.272266 0.126827
v 0.930000 -0.272266 0.125209
v 0.940000 -0.272266 0.123676
v 0.950000 -0.272266 0.122364
v 0.960000 -0.272266 0.119926
v 0.970000 -0.272266 0.116853
v 0.980000 -0.272266 0.113451
v 0.990000 -0.272266 0.108553
v 0.999999 -0.272266 0.101261
v 1.009973 -0.272266 0.090160
v 1.019577 -0.272266 0.066650
v 1.026435 -0.272266 0.000000
v 0.810423 -0.278906 0.066650
v 0.803565 -0.278906 0.000000
v 0.820027 -0.278906 0.090168
v 0.830001 -0.278906 0.101364
v 0.840000 -0.278906 0.109303
v 0.850000 -0.278906 0.116358
v 0.860000 -0.278906 0.122834
v 0.870000 -0.278906 0.127406
v 0.880000 -0.278906 0.127429
v 0.890000 -0.278906 0.125508
v 0.900000 -0.278906 0.123932
v 0.910000 -0.278906 0.123164
v 0.920000 -0.278906 0.122573
v 0.930000 -0.278906 0.121052
v 0.940000 -0.278906 0.119439
v 0.950000 -0.278906 0.118162
v 0.960000 -0.278906 0.116002
v 0.970000 -0.278906 0.112969
v 0.980000 -0.278906 0.110196
v 0.990000 -0.278906 0.107001
v 0.999999 -0.278906 0.100883
v 1.009973 -0.278906 0.090109
v 1.019577 -0.278906 0.066646
v 1.026435 -0.278906 0.000000
v 0.810423 -0.285547 0.066650
v 0.803565 -0.285547 0.000000
v 0.820027 -0.285547 0.090168
v 0.830001 -0.285547 0.101364
v 0.840000 -0.285547 0.109298
v 0.850000 -0.285547 0.116291
v 0.860000 -0.285547 0.122306
v 0.870000 -0.285547 0.125318
v 0.880000 -0.285547 0.123851
v 0.890000 -0.285547 0.121346
v 0.900000 -0.285547 0.119547
v 0.910000 -0.285547 0.118704
v 0.920000 -0.285547 0.118153
v 0.930000 -0.285547 0.116759
v 0.940000 -0.285547 0.115053
v 0.950000 -0.285547 0.113810
v 0.960000 -0.285547 0.111982
v 0.970000 -0.285547 0.108824
v 0.980000 -0.285547 0.105932
v 0.990000 -0.285547 0.103660
v 0.999999 -0.285547 0.099538
v 1.009973 -0.285547 0.089789
v 1.019577 -0.285547 0.066593
v 1.026435 -0.285547 0.000000
v 0.810423 -0.292188 0.066650
v 0.803565 -0.292188 0.000000
v 0.820027 -0.292188 0.090168
v 0.830001 -0.292188 0.101364
v 0.840000 -0.292188 0.109290
v 0.850000 -0.292188 0.116178
v 0.860000 -0.292188 0.121491
v 0.870000 -0.292188 0.122562
v 0.880000 -0.292188 0.120120
v 0.890000 -0.292188 0.117200
v 0.900000 -0.292188 0.115148
v 0.910000 -0.292188 0.114194
v 0.920000 -0.292188 0.113683
v 0.930000 -0.292188 0.112443
v 0.940000 -0.292188 0.110579
v 0.950000 -0.292188 0.109300
v 0.960000 -0.292188 0.107761
v 0.970000 -0.292188 0.104511
v 0.980000 -0.292188 0.101128
v 0.990000 -0.292188 0.098992
v 0.999999 -0.292188 0.096512
v 1.009973 -0.292188 0.088493
v 1.019577 -0.292187 0.066125
v 1.026434 -0.292186 0.000000
v 0.810423 -0.298828 0.066650
v 0.803565 -0.298828 0.000000
v 0.820027 -0.298828 0.090168
v 0.830001 -0.298828 0.101363
v 0.840000 -0.298828 0.109269
v 0.850000 -0.298828 0.115946
v 0.860000 -0.298828 0.120257
v 0.870000 -0.298828 0.119509
v 0.880000 -0.298828 0.116377
v 0.890000 -0.298828 0.113069
v 0.900000 -0.298828 0.110682
v 0.910000 -0.298828 0.109563
v 0.920000 -0.298828 0.109097
v 0.930000 -0.298828 0.108045
v 0.940000 -0.298828 0.105943
v 0.950000 -0.298828 0.104530
v 0.960000 -0.298828 0.103228
v 0.970000 -0.298828 0.099895
v 0.980000 -0.298828 0.095737
v 0.990000 -0.298828 0.092879
v 0.999999 -0.298828 0.091014
v 1.009972 -0.298827 0.084572
v 1.019574 -0.298824 0.063210
v 1.026417 -0.298790 0.000000
v 0.810423 -0.305469 0.066650
v 0.803565 -0.305469 0.000000
v 0.820027 -0.305469 0.090168
v 0.830001 -0.305469 0.101357
v 0.840000 -0.305469 0.109190
v 0.850000 -0.305469 0.115345
v 0.860000 -0.305469 0.118008
v 0.870000 -0.305469 0.116086
v 0.880000 -0.305469 0.112566
v 0.890000 -0.305469 0.108905
v 0.900000 -0.305469 0.106063
v 0.910000 -0.305469 0.104685
v 0.920000 -0.305469 0.104242
v 0.930000 -0.305469 0.103363
v 0.940000 -0.305469 0.100965
v 0.950000 -0.305469 0.099198
v 0.960000 -0.305469 0.097892
v 0.970000 -0.305469 0.094437
v 0.980000 -0.305469 0.089080
v 0.989999 -0.305466 0.083790
v 0.999999 -0.305452 0.081455
v 1.009967 -0.305447 0.074603
v 1.019521 -0.305394 0.051105
v 1.026242 -0.305050 0.000000
v 0.810423 -0.312109 0.066650
v 0.803565 -0.312109 0.000000
v 0.820027 -0.312109 0.090167
v 0.830001 -0.312109 0.101350
v 0.840000 -0.312109 0.109083
v 0.850000 -0.312109 0.114558
v 0.860000 -0.312109 0.115249
v 0.870000 -0.312109 0.112428
v 0.880000 -0.312109 0.108586
v 0.890000 -0.312109 0.104619
v 0.900000 -0.312109 0.101163
v 0.910000 -0.312109 0.099329
v 0.920000 -0.312109 0.098796
v 0.930000 -0.312109 0.097956
v 0.940000 -0.312109 0.095330
v 0.950000 -0.312109 0.092869
v 0.960000 -0.312109 0.091402
v 0.970000 -0.312109 0.087463
v 0.979995 -0.312104 0.078040
v 0.989967 -0.312057 0.064641
v 0.999991 -0.311861 0.059861
v 1.009888 -0.311794 0.050161
v 1.018988 -0.311438 0.000000
v 1.025282 -0.309430 0.000000
v 0.810423 -0.318750 0.066650
v 0.803565 -0.318750 0.000000
v 0.820027 -0.318750 0.090167
v 0.830001 -0.318750 0.101336
v 0.840000 -0.318750 0.108926
v 0.850000 -0.318750 0.113590
v 0.860000 -0.318750 0.112357
v 0.870000 -0.318750 0.108609
v 0.880000 -0.318750 0.104454
v 0.890000 -0.318750 0.100084
v 0.900000 -0.318750 0.095761
v 0.910000 -0.318750 0.093017
v 0.920000 -0.318749 0.092256
v 0.930000 -0.318749 0.091411
v 0.940000 -0.318749 0.088387
v 0.949999 -0.318747 0.083712
v 0.960000 -0.318734 0.081498
v 0.969992 -0.318728 0.075117
v 0.979902 -0.318668 0.054285
v 0.989525 -0.318207 0.000000
v 0.999898 -0.316653 0.000000
v 1.009367 -0.316280 0.000000
v 1.015964 -0.315619 0.000000
v 0.810423 -0.325391 0.066650
v 0.803565 -0.325391 0.000000
v 0.820027 -0.325391 0.090164
v 0.830001 -0.325391 0.101296
v 0.840000 -0.325391 0.108588
v 0.850000 -0.325391 0.112130
v 0.860000 -0.325391 0.109386
v 0.870000 -0.325391 0.104716
v 0.880000 -0.325391 0.100009
v 0.890000 -0.325391 0.094860
v 0.900000 -0.325390 0.089131
v 0.909999 -0.325388 0.083881
v 0.920000 -0.325374 0.082467
v 0.930000 -0.325372 0.081463
v 0.939996 -0.325370 0.076619
v 0.949967 -0.325336 0.064476
v 0.959991 -0.325142 0.059853
v 0.969891 -0.325075 0.050205
v 0.979059 -0.324718 0.000000
v 0.985991 -0.322695 0.000000
v 0.810423 -0.332031 0.066650
v 0.803565 -0.332031 0.000000
v 0.820027 -0.332031 0.090160
v 0.830001 -0.332031 0.101230
v 0.840000 -0.332031 0.108076
v 0.850000 -0.332031 0.110192
v 0.860000 -0.332031 0.106401
v 0.870000 -0.332031 0.100749
v 0.880000 -0.332031 0.094927
v 0.890000 -0.332031 0.088213
v 0.899995 -0.332026 0.078129
v 0.909967 -0.331979 0.064761
v 0.919997 -0.331785 0.061293
v 0.929995 -0.331751 0.059436
v 0.939924 -0.331720 0.050537
v 0.949528 -0.331444 0.000000
v 0.959899 -0.329932 0.000000
v 0.969367 -0.329561 0.000000
v 0.975970 -0.328900 0.000000
v 0.810423 -0.338672 0.066650
v 0.803565 -0.338672 0.000000
v 0.820027 -0.338672 0.090154
v 0.830001 -0.338672 0.101145
v 0.840000 -0.338672 0.107439
v 0.850000 -0.338672 0.107917
v 0.860000 -0.338672 0.103395
v 0.870000 -0.338672 0.096786
v 0.880000 -0.338672 0.088777
v 0.889992 -0.338666 0.076716
v 0.899902 -0.338592 0.054463
v 0.909527 -0.338129 0.000000
v 0.919954 -0.336586 0.000000
v 0.929940 -0.336318 0.000000
v 0.939374 -0.336179 0.000000
v 0.946035 -0.335552 0.000000
v 0.810423 -0.345313 0.066649
v 0.803565 -0.345313 0.000000
v 0.820027 -0.345313 0.090148
v 0.830001 -0.345313 0.101061
v 0.840000 -0.345313 0.106798
v 0.850000 -0.345313 0.105575
v 0.860000 -0.345313 0.100132
v 0.870000 -0.345312 0.092427
v 0.879993 -0.345309 0.079643
v 0.889879 -0.345246 0.054788
v 0.899058 -0.344687 0.000000
v 0.905991 -0.342620 0.000000
v 0.810423 -0.351953 0.066649
v 0.803565 -0.351953 0.000000
v 0.820027 -0.351953 0.090142
v 0.830001 -0.351953 0.100979
v 0.840000 -0.351953 0.106194
v 0.850000 -0.351953 0.103436
v 0.860000 -0.351953 0.096673
v 0.869996 -0.351952 0.086690
v 0.879919 -0.351928 0.066137
v 0.889169 -0.351610 0.000000
v 0.895945 -0.349289 0.000000
v 0.810423 -0.358594 0.066648
v 0.803565 -0.358594 0.000000
v 0.820027 -0.358594 0.090126
v 0.830001 -0.358594 0.100814
v 0.840000 -0.358594 0.105383
v 0.850000 -0.358594 0.101540
v 0.859999 -0.358594 0.093362
v 0.869972 -0.358591 0.079640
v 0.879583 -0.358541 0.052370
v 0.886670 -0.358149 0.000000
v 0.810423 -0.365234 0.066644
v 0.803565 -0.365234 0.000000
v 0.820027 -0.365234 0.090061
v 0.830001 -0.365234 0.100339
v 0.840000 -0.365234 0.103709
v 0.850000 -0.365234 0.099251
v 0.859996 -0.365234 0.089711
v 0.869918 -0.365213 0.068870
v 0.879120 -0.364921 0.000000
v 0.885360 -0.362599 0.000000
v 0.810423 -0.371875 0.066639
v 0.803563 -0.371875 0.000000
v 0.820027 -0.371875 0.089992
v 0.830001 -0.371875 0.099811
v 0.840000 -0.371875 0.101741
v 0.849999 -0.371875 0.096344
v 0.859975 -0.371875 0.086094
v 0.869627 -0.371870 0.063722
v 0.876838 -0.371808 0.000000
v 0.810419 -0.378516 0.066655
v 0.803526 -0.378517 0.000000
v 0.820027 -0.378516 0.089933
v 0.830001 -0.378516 0.099331
v 0.840000 -0.378516 0.099934
v 0.849999 -0.378516 0.093142
v 0.859969 -0.378513 0.079566
v 0.869534 -0.378465 0.052066
v 0.876282 -0.378098 0.000000
v 0.810371 -0.385158 0.066944
v 0.803143 -0.385185 0.000000
v 0.820025 -0.385156 0.089856
v 0.830001 -0.385156 0.098552
v 0.840000 -0.385156 0.097752
v 0.849996 -0.385155 0.089470
v 0.859917 -0.385134 0.068846
v 0.869116 -0.384842 0.000000
v 0.875305 -0.382523 0.000000
v 0.810082 -0.391819 0.069248
v 0.800884 -0.392109 0.000000
v 0.820004 -0.391798 0.089989
v 0.830000 -0.391797 0.096734
v 0.839999 -0.391797 0.094015
v 0.849975 -0.391797 0.085345
v 0.859626 -0.391791 0.063614
v 0.866838 -0.391729 0.000000
v 0.794698 -0.394430 0.000000
v 0.800469 -0.398488 0.052037
v 0.793757 -0.398853 0.000000
v 0.810031 -0.398440 0.079409
v 0.820001 -0.398438 0.091766
v 0.830000 -0.398438 0.094169
v 0.839999 -0.398437 0.088413
v 0.849967 -0.398432 0.076184
v 0.859525 -0.398365 0.051303
v 0.866281 -0.398017 0.000000
v 0.800425 -0.405082 0.063361
v 0.793584 -0.405117 0.000000
v 0.810027 -0.405078 0.085553
v 0.820001 -0.405078 0.093202
v 0.830000 -0.405078 0.091072
v 0.839992 -0.405075 0.079494
v 0.849875 -0.405012 0.054735
v 0.858987 -0.404453 0.000000
v 0.865285 -0.402402 0.000000
v 0.800423 -0.411719 0.066051
v 0.793566 -0.411721 0.000000
v 0.810027 -0.411719 0.087800
v 0.820001 -0.411719 0.092708
v 0.829996 -0.411718 0.086109
v 0.839918 -0.411694 0.066091
v 0.849169 -0.411376 0.000000
v 0.855940 -0.409055 0.000000
v 0.800423 -0.418359 0.066347
v 0.793565 -0.418359 0.000000
v 0.810027 -0.418359 0.087708
v 0.820000 -0.418359 0.089961
v 0.829971 -0.418357 0.078935
v 0.839583 -0.418306 0.052278
v 0.846670 -0.417915 0.000000
v 0.800423 -0.425000 0.066244
v 0.793565 -0.425000 0.000000
v 0.810027 -0.425000 0.086695
v 0.819997 -0.424999 0.085056
v 0.829915 -0.424975 0.065937
v 0.839106 -0.424659 0.000000
v 0.845359 -0.422363 0.000000
v 0.800423 -0.431641 0.066078
v 0.793565 -0.431641 0.000000
v 0.810026 -0.431641 0.085282
v 0.819972 -0.431638 0.078583
v 0.829583 -0.431588 0.052285
v 0.836666 -0.431196 0.000000
v 0.800423 -0.438281 0.065891
v 0.793565 -0.438281 0.000000
v 0.810024 -0.438280 0.083394
v 0.819919 -0.438260 0.068483
v 0.829120 -0.437969 0.000000
v 0.835360 -0.435646 0.000000
v 0.800422 -0.444922 0.065860
v 0.793565 -0.444922 0.000000
v 0.810003 -0.444922 0.082997
v 0.819630 -0.444920 0.066174
v 0.826857 -0.444893 0.000000
v 0.800422 -0.451562 0.065858
v 0.793565 -0.451562 0.000000
v 0.810000 -0.451562 0.082961
v 0.819581 -0.451562 0.065878
v 0.826474 -0.451561 0.000000
v 0.800422 -0.458203 0.065858
v 0.793565 -0.458203 0.000000
v 0.810000 -0.458203 0.082959
v 0.819578 -0.458203 0.065859
v 0.826439 -0.458203 0.000000
v 0.800422 -0.464844 0.065857
v 0.793565 -0.464844 0.000000
v 0.810000 -0.464844 0.082955
v 0.819582 -0.464844 0.065877
v 0.826474 -0.464845 0.000000
v 0.800422 -0.471484 0.065828
v 0.793565 -0.471484 0.000000
v 0.810003 -0.471484 0.082916
v 0.819630 -0.471486 0.066158
v 0.826860 -0.471513 0.000000
v 0.800423 -0.478125 0.065482
v 0.793566 -0.478123 0.000000
v 0.810024 -0.478126 0.082750
v 0.819922 -0.478147 0.068347
v 0.829183 -0.478439 0.000000
v 0.800425 -0.484762 0.062970
v 0.793584 -0.484727 0.000000
v 0.810027 -0.484766 0.082264
v 0.819993 -0.484769 0.078104
v 0.829876 -0.484831 0.054615
v 0.835941 -0.480787 0.000000
v 0.838991 -0.485391 0.000000
v 0.800469 -0.491356 0.051862
v 0.793757 -0.490990 0.000000
v 0.810031 -0.491404 0.077881
v 0.820000 -0.491406 0.084555
v 0.829970 -0.491411 0.075724
v 0.839573 -0.491480 0.051568
v 0.845341 -0.487444 0.000000
v 0.846668 -0.491854 0.000000
v 0.800884 -0.497735 0.000000
v 0.794698 -0.495414 0.000000
v 0.810082 -0.498025 0.068694
v 0.820004 -0.498046 0.086491
v 0.829996 -0.498048 0.084691
v 0.839918 -0.498072 0.065911
v 0.849169 -0.498390 0.000000
v 0.810371 -0.504686 0.066678
v 0.803143 -0.504659 0.000000
v 0.820025 -0.504687 0.087763
v 0.830001 -0.504688 0.090058
v 0.839993 -0.504691 0.079381
v 0.849876 -0.504754 0.054731
v 0.855940 -0.500711 0.000000
v 0.858991 -0.505313 0.000000
v 0.810419 -0.511328 0.066495
v 0.803526 -0.511327 0.000000
v 0.820027 -0.511328 0.088605
v 0.830001 -0.511328 0.093647
v 0.839999 -0.511328 0.088368
v 0.849970 -0.511333 0.076240
v 0.859573 -0.511402 0.051607
v 0.865341 -0.507366 0.000000
v 0.866668 -0.511776 0.000000
v 0.810423 -0.517969 0.066533
v 0.803563 -0.517969 0.000000
v 0.820027 -0.517969 0.089209
v 0.830001 -0.517969 0.096382
v 0.840000 -0.517969 0.094040
v 0.849996 -0.517970 0.085918
v 0.859918 -0.517994 0.066028
v 0.869169 -0.518312 0.000000
v 0.810423 -0.524609 0.066166
v 0.803566 -0.524607 0.000000
v 0.820027 -0.524609 0.088787
v 0.830001 -0.524609 0.097303
v 0.840000 -0.524609 0.097928
v 0.850000 -0.524609 0.092101
v 0.859993 -0.524613 0.079617
v 0.869879 -0.524675 0.054786
v 0.875944 -0.520633 0.000000
v 0.879054 -0.525236 0.000000
v 0.810425 -0.531247 0.063398
v 0.803584 -0.531211 0.000000
v 0.820028 -0.531250 0.085984
v 0.830001 -0.531250 0.095894
v 0.840000 -0.531250 0.099793
v 0.850000 -0.531250 0.096232
v 0.860000 -0.531250 0.088732
v 0.869991 -0.531256 0.076695
v 0.879869 -0.531337 0.054101
v 0.885926 -0.527315 0.000000
v 0.889056 -0.531878 0.000000
v 0.810469 -0.537840 0.052050
v 0.803757 -0.537475 0.000000
v 0.820031 -0.537888 0.079599
v 0.830001 -0.537891 0.093239
v 0.840000 -0.537891 0.099948
v 0.850000 -0.537891 0.099449
v 0.860000 -0.537891 0.094778
v 0.870000 -0.537891 0.088085
v 0.879991 -0.537897 0.076612
v 0.889902 -0.537971 0.054456
v 0.895991 -0.533942 0.000000
v 0.899527 -0.538433 0.000000
v 0.810884 -0.544219 0.000000
v 0.804698 -0.541898 0.000000
v 0.820082 -0.544510 0.069317
v 0.830004 -0.544530 0.090651
v 0.840000 -0.544531 0.100074
v 0.850000 -0.544531 0.102532
v 0.860000 -0.544531 0.099728
v 0.870000 -0.544531 0.094756
v 0.880000 -0.544531 0.088197
v 0.889995 -0.544536 0.078128
v 0.899967 -0.544584 0.064766
v 0.909957 -0.539976 0.000000
v 0.909997 -0.544778 0.061412
v 0.919998 -0.540232 0.000000
v 0.920000 -0.544810 0.060965
v 0.930000 -0.540257 0.000000
v 0.930000 -0.544812 0.060934
v 0.940000 -0.540258 0.000000
v 0.940000 -0.544812 0.060933
v 0.950000 -0.540258 0.000000
v 0.950000 -0.544812 0.060929
v 0.959997 -0.540259 0.000000
v 0.960000 -0.544812 0.060814
v 0.969942 -0.540270 0.000000
v 0.969994 -0.544814 0.059383
v 0.979369 -0.540386 0.000000
v 0.979888 -0.544849 0.050133
v 0.985965 -0.541023 0.000000
v 0.988992 -0.545203 0.000000
v 0.820371 -0.551170 0.066928
v 0.813143 -0.551143 0.000000
v 0.830025 -0.551172 0.090002
v 0.840001 -0.551172 0.100310
v 0.850000 -0.551172 0.104863
v 0.860000 -0.551172 0.103769
v 0.870000 -0.551172 0.099902
v 0.880000 -0.551172 0.094854
v 0.890000 -0.551172 0.089131
v 0.899999 -0.551174 0.083885
v 0.910000 -0.551188 0.082552
v 0.920000 -0.551190 0.082393
v 0.930000 -0.551190 0.082383
v 0.940000 -0.551190 0.082382
v 0.950000 -0.551190 0.082378
v 0.960000 -0.551190 0.082291
v 0.969999 -0.551190 0.081297
v 0.979970 -0.551194 0.074656
v 0.989576 -0.551248 0.051457
v 0.995344 -0.547213 0.000000
v 0.996712 -0.551611 0.000000
v 0.820420 -0.557812 0.066206
v 0.813527 -0.557809 0.000000
v 0.830027 -0.557813 0.089055
v 0.840001 -0.557813 0.099168
v 0.850000 -0.557813 0.104878
v 0.860000 -0.557813 0.106358
v 0.870000 -0.557813 0.104088
v 0.880000 -0.557813 0.100052
v 0.890000 -0.557813 0.095760
v 0.900000 -0.557813 0.093024
v 0.910000 -0.557813 0.092360
v 0.920000 -0.557813 0.092281
v 0.930000 -0.557813 0.092276
v 0.940000 -0.557813 0.092275
v 0.950000 -0.557813 0.092268
v 0.960000 -0.557813 0.092149
v 0.970000 -0.557813 0.091063
v 0.979997 -0.557814 0.085233
v 0.989951 -0.557832 0.066309
v 0.999643 -0.558070 0.000000
v 0.820425 -0.564450 0.063397
v 0.813582 -0.564415 0.000000
v 0.830028 -0.564453 0.086003
v 0.840001 -0.564453 0.096370
v 0.850000 -0.564453 0.103118
v 0.860000 -0.564453 0.107116
v 0.870000 -0.564453 0.107320
v 0.880000 -0.564453 0.104455
v 0.890000 -0.564453 0.101152
v 0.900000 -0.564453 0.099336
v 0.910000 -0.564453 0.098911
v 0.920000 -0.564453 0.098861
v 0.930000 -0.564453 0.098857
v 0.940000 -0.564453 0.098857
v 0.950000 -0.564453 0.098844
v 0.960000 -0.564453 0.098665
v 0.970000 -0.564453 0.097309
v 0.980000 -0.564453 0.091972
v 0.989997 -0.564455 0.081117
v 0.999977 -0.564485 0.065456
v 1.009969 -0.559870 0.000000
v 1.009998 -0.564698 0.061479
v 1.019999 -0.560153 0.000000
v 1.020000 -0.564732 0.060968
v 1.030000 -0.560179 0.000000
v 1.030000 -0.564734 0.060934
v 1.040000 -0.560180 0.000000
v 1.040000 -0.564734 0.060929
v 1.049997 -0.560181 0.000000
v 1.050000 -0.564734 0.060814
v 1.059942 -0.560192 0.000000
v 1.059994 -0.564736 0.059385
v 1.069369 -0.560308 0.000000
v 1.069891 -0.564771 0.050174
v 1.075970 -0.560945 0.000000
v 1.079059 -0.565126 0.000000
v 0.820469 -0.571042 0.051971
v 0.813757 -0.570678 0.000000
v 0.830031 -0.571091 0.079148
v 0.840001 -0.571094 0.092380
v 0.850000 -0.571094 0.100156
v 0.860000 -0.571094 0.105938
v 0.870000 -0.571094 0.109123
v 0.880000 -0.571094 0.108223
v 0.890000 -0.571094 0.105981
v 0.900000 -0.571094 0.104689
v 0.910000 -0.571094 0.104385
v 0.920000 -0.571094 0.104349
v 0.930000 -0.571094 0.104347
v 0.940000 -0.571094 0.104345
v 0.950000 -0.571094 0.104313
v 0.960000 -0.571094 0.103972
v 0.970000 -0.571094 0.102040
v 0.980000 -0.571094 0.096662
v 0.990000 -0.571094 0.089811
v 0.999999 -0.571095 0.083988
v 1.010000 -0.571110 0.082558
v 1.020000 -0.571112 0.082393
v 1.030000 -0.571112 0.082383
v 1.040000 -0.571112 0.082378
v 1.050000 -0.571112 0.082293
v 1.060000 -0.571112 0.081334
v 1.069992 -0.571116 0.075107
v 1.079902 -0.571176 0.054285
v 1.085991 -0.567149 0.000000
v 1.089527 -0.571636 0.000000
v 0.820898 -0.577393 0.000000
v 0.814699 -0.575099 0.000000
v 0.830085 -0.577710 0.066090
v 0.840004 -0.577733 0.086648
v 0.850000 -0.577734 0.096534
v 0.860000 -0.577734 0.103418
v 0.870000 -0.577734 0.108434
v 0.880000 -0.577734 0.110548
v 0.890000 -0.577734 0.110135
v 0.900000 -0.577734 0.109499
v 0.910000 -0.577734 0.109332
v 0.920000 -0.577734 0.109316
v 0.930000 -0.577734 0.109315
v 0.940000 -0.577734 0.109310
v 0.950000 -0.577734 0.109224
v 0.960000 -0.577734 0.108540
v 0.970000 -0.577734 0.105772
v 0.980000 -0.577734 0.100773
v 0.990000 -0.577734 0.095909
v 1.000000 -0.577734 0.093039
v 1.010000 -0.577735 0.092361
v 1.020000 -0.577735 0.092281
v 1.030000 -0.577735 0.092275
v 1.040000 -0.577735 0.092268
v 1.050000 -0.577735 0.092167
v 1.060000 -0.577735 0.091320
v 1.070000 -0.577735 0.087458
v 1.079995 -0.577739 0.078045
v 1.089967 -0.577787 0.064760
v 1.099957 -0.573179 0.000000
v 1.099997 -0.577981 0.061411
v 1.109998 -0.573435 0.000000
v 1.110000 -0.578013 0.060960
v 1.119997 -0.573461 0.000000
v 1.120000 -0.578015 0.060815
v 1.129942 -0.573474 0.000000
v 1.129994 -0.578017 0.059385
v 1.139369 -0.573589 0.000000
v 1.139891 -0.578052 0.050173
v 1.145970 -0.574227 0.000000
v 1.149055 -0.578408 0.000000
v 0.830418 -0.584322 0.052294
v 0.823334 -0.583931 0.000000
v 0.840029 -0.584372 0.079210
v 0.850001 -0.584375 0.092393
v 0.860000 -0.584375 0.100200
v 0.870000 -0.584375 0.106279
v 0.880000 -0.584375 0.110662
v 0.890000 -0.584375 0.112723
v 0.900000 -0.584375 0.113534
v 0.910000 -0.584375 0.113857
v 0.920000 -0.584375 0.113975
v 0.930000 -0.584375 0.114001
v 0.940000 -0.584375 0.113993
v 0.950000 -0.584375 0.113836
v 0.960000 -0.584375 0.112778
v 0.970000 -0.584375 0.109352
v 0.980000 -0.584375 0.104878
v 0.990000 -0.584375 0.101201
v 1.000000 -0.584375 0.099339
v 1.010000 -0.584375 0.098911
v 1.020000 -0.584375 0.098861
v 1.030000 -0.584375 0.098857
v 1.040000 -0.584375 0.098849
v 1.050000 -0.584375 0.098734
v 1.060000 -0.584375 0.097839
v 1.070000 -0.584375 0.094433
v 1.080000 -0.584375 0.089084
v 1.089999 -0.584378 0.083882
v 1.100000 -0.584391 0.082551
v 1.110000 -0.584393 0.082388
v 1.120000 -0.584393 0.082293
v 1.130000 -0.584393 0.081334
v 1.139991 -0.584397 0.075085
v 1.149866 -0.584464 0.053878
v 1.155921 -0.580443 0.000000
v 1.158986 -0.585003 0.000000
v 0.830894 -0.590674 0.000000
v 0.824641 -0.588378 0.000000
v 0.840085 -0.590991 0.066093
v 0.850004 -0.591015 0.086646
v 0.860000 -0.591016 0.096503
v 0.870000 -0.591016 0.103244
v 0.880000 -0.591016 0.108237
v 0.890000 -0.591016 0.112234
v 0.900000 -0.591016 0.115530
v 0.910000 -0.591016 0.117364
v 0.920000 -0.591016 0.118194
v 0.930000 -0.591016 0.118463
v 0.940000 -0.591016 0.118507
v 0.950000 -0.591016 0.118210
v 0.960000 -0.591016 0.116655
v 0.970000 -0.591016 0.112951
v 0.980000 -0.591016 0.108993
v 0.990000 -0.591016 0.106073
v 1.000000 -0.591016 0.104696
v 1.010000 -0.591016 0.104386
v 1.020000 -0.591016 0.104349
v 1.030000 -0.591016 0.104346
v 1.040000 -0.591016 0.104335
v 1.050000 -0.591016 0.104188
v 1.060000 -0.591016 0.103189
v 1.070000 -0.591016 0.099892
v 1.080000 -0.591016 0.095746
v 1.090000 -0.591016 0.093024
v 1.100000 -0.591016 0.092360
v 1.110000 -0.591016 0.092274
v 1.120000 -0.591016 0.092167
v 1.130000 -0.591016 0.091313
v 1.139999 -0.591016 0.087293
v 1.149966 -0.591022 0.076017
v 1.159525 -0.591088 0.051291
v 1.165285 -0.587052 0.000000
v 1.166281 -0.591436 0.000000
v 0.840418 -0.597603 0.052293
v 0.833334 -0.597212 0.000000
v 0.850029 -0.597653 0.079196
v 0.860001 -0.597656 0.092242
v 0.870000 -0.597656 0.099468
v 0.880000 -0.597656 0.104656
v 0.890000 -0.597656 0.109658
v 0.900000 -0.597656 0.114528
v 0.910000 -0.597656 0.118301
v 0.920000 -0.597656 0.120888
v 0.930000 -0.597656 0.122259
v 0.940000 -0.597656 0.122781
v 0.950000 -0.597656 0.122417
v 0.960000 -0.597656 0.120269
v 0.970000 -0.597656 0.116582
v 0.980000 -0.597656 0.113099
v 0.990000 -0.597656 0.110686
v 1.000000 -0.597656 0.109590
v 1.010000 -0.597656 0.109346
v 1.020000 -0.597656 0.109317
v 1.030000 -0.597656 0.109314
v 1.040000 -0.597656 0.109286
v 1.050000 -0.597656 0.109030
v 1.060000 -0.597656 0.107731
v 1.070000 -0.597656 0.104510
v 1.080000 -0.597656 0.101156
v 1.090000 -0.597656 0.099337
v 1.100000 -0.597656 0.098911
v 1.110000 -0.597656 0.098853
v 1.120000 -0.597656 0.098732
v 1.130000 -0.597656 0.097800
v 1.139999 -0.597656 0.093976
v 1.149975 -0.597656 0.085325
v 1.159626 -0.597662 0.063613
v 1.166842 -0.597724 0.000000
v 0.840894 -0.603955 0.000000
v 0.834641 -0.601659 0.000000
v 0.850085 -0.604271 0.065990
v 0.860004 -0.604296 0.085965
v 0.870000 -0.604297 0.094668
v 0.880000 -0.604297 0.100738
v 0.890000 -0.604297 0.106568
v 0.900000 -0.604297 0.111877
v 0.910000 -0.604297 0.116263
v 0.920000 -0.604297 0.120353
v 0.930000 -0.604297 0.123939
v 0.940000 -0.604297 0.126143
v 0.950000 -0.604297 0.126395
v 0.960000 -0.604297 0.123897
v 0.970000 -0.604297 0.120322
v 0.980000 -0.604297 0.117218
v 0.990000 -0.604297 0.115151
v 1.000000 -0.604297 0.114235
v 1.010000 -0.604297 0.114032
v 1.020000 -0.604297 0.114009
v 1.030000 -0.604297 0.114004
v 1.040000 -0.604297 0.113960
v 1.050000 -0.604297 0.113586
v 1.060000 -0.604297 0.111957
v 1.070000 -0.604297 0.108831
v 1.080000 -0.604297 0.106059
v 1.090000 -0.604297 0.104696
v 1.100000 -0.604297 0.104385
v 1.110000 -0.604297 0.104336
v 1.120000 -0.604297 0.104164
v 1.130000 -0.604297 0.102968
v 1.140000 -0.604297 0.098585
v 1.149996 -0.604298 0.089562
v 1.159921 -0.604319 0.068895
v 1.169182 -0.604612 0.000000
v 0.850427 -0.610863 0.051606
v 0.843335 -0.610490 0.000000
v 0.860030 -0.610932 0.076264
v 0.870001 -0.610937 0.088737
v 0.880000 -0.610937 0.096757
v 0.890000 -0.610937 0.103287
v 0.900000 -0.610937 0.108435
v 0.910000 -0.610937 0.113066
v 0.920000 -0.610937 0.117960
v 0.930000 -0.610937 0.123017
v 0.940000 -0.610937 0.127390
v 0.950000 -0.610937 0.129445
v 0.960000 -0.610937 0.127459
v 0.970000 -0.610937 0.124171
v 0.980000 -0.610937 0.121371
v 0.990000 -0.610937 0.119551
v 1.000000 -0.610937 0.118756
v 1.010000 -0.610937 0.118581
v 1.020000 -0.610937 0.118560
v 1.030000 -0.610937 0.118555
v 1.040000 -0.610937 0.118490
v 1.050000 -0.610937 0.117975
v 1.060000 -0.610937 0.115985
v 1.070000 -0.610937 0.113021
v 1.080000 -0.610937 0.110680
v 1.090000 -0.610937 0.109590
v 1.100000 -0.610937 0.109344
v 1.110000 -0.610937 0.109275
v 1.120000 -0.610937 0.108885
v 1.130000 -0.610937 0.106880
v 1.140000 -0.610937 0.101606
v 1.150000 -0.610938 0.093388
v 1.159993 -0.610941 0.080069
v 1.169876 -0.611002 0.054818
v 1.175941 -0.606959 0.000000
v 1.178987 -0.611562 0.000000
v 0.851009 -0.616953 0.000000
v 0.844659 -0.614900 0.000000
v 0.860124 -0.617512 0.054746
v 0.870008 -0.617575 0.079626
v 0.880000 -0.617578 0.092279
v 0.890000 -0.617578 0.099471
v 0.900000 -0.617578 0.104676
v 0.910000 -0.617578 0.109810
v 0.920000 -0.617578 0.115313
v 0.930000 -0.617578 0.121068
v 0.940000 -0.617578 0.126669
v 0.950000 -0.617578 0.130683
v 0.960000 -0.617578 0.130546
v 0.970000 -0.617578 0.128048
v 0.980000 -0.617578 0.125577
v 0.990000 -0.617578 0.123944
v 1.000000 -0.617578 0.123235
v 1.010000 -0.617578 0.123080
v 1.020000 -0.617578 0.123061
v 1.030000 -0.617578 0.123054
v 1.040000 -0.617578 0.122966
v 1.050000 -0.617578 0.122305
v 1.060000 -0.617578 0.119980
v 1.070000 -0.617578 0.117179
v 1.080000 -0.617578 0.115149
v 1.090000 -0.617578 0.114235
v 1.100000 -0.617578 0.114025
v 1.110000 -0.617578 0.113897
v 1.120000 -0.617578 0.113078
v 1.130000 -0.617578 0.109879
v 1.140000 -0.617578 0.104079
v 1.150000 -0.617578 0.096986
v 1.159999 -0.617578 0.088772
v 1.169967 -0.617583 0.076205
v 1.179521 -0.617650 0.051284
v 1.185282 -0.613614 0.000000
v 1.186242 -0.617997 0.000000
v 0.860831 -0.623876 0.000000
v 0.854060 -0.621555 0.000000
v 0.870082 -0.624193 0.066030
v 0.880004 -0.624218 0.085968
v 0.890000 -0.624219 0.094671
v 0.900000 -0.624219 0.100772
v 0.910000 -0.624219 0.106812
v 0.920000 -0.624219 0.112960
v 0.930000 -0.624219 0.119117
v 0.940000 -0.624219 0.125118
v 0.950000 -0.624219 0.130302
v 0.960000 -0.624219 0.132720
v 0.970000 -0.624219 0.131726
v 0.980000 -0.624219 0.129804
v 0.990000 -0.624219 0.128362
v 1.000000 -0.624219 0.127725
v 1.010000 -0.624219 0.127588
v 1.020000 -0.624219 0.127572
v 1.030000 -0.624219 0.127560
v 1.040000 -0.624219 0.127429
v 1.050000 -0.624219 0.126580
v 1.060000 -0.624219 0.124015
v 1.070000 -0.624219 0.121357
v 1.080000 -0.624219 0.119551
v 1.090000 -0.624219 0.118755
v 1.100000 -0.624219 0.118559
v 1.110000 -0.624219 0.118294
v 1.120000 -0.624219 0.116824
v 1.130000 -0.624219 0.112536
v 1.140000 -0.624219 0.106767
v 1.150000 -0.624219 0.100748
v 1.159999 -0.624219 0.094537
v 1.169972 -0.624219 0.085321
v 1.179574 -0.624223 0.063294
v 1.186417 -0.624257 0.000000
v 0.870427 -0.630785 0.051608
v 0.863332 -0.630412 0.000000
v 0.880030 -0.630854 0.076268
v 0.890001 -0.630859 0.088783
v 0.900000 -0.630859 0.096999
v 0.910000 -0.630859 0.104233
v 0.920000 -0.630859 0.110949
v 0.930000 -0.630859 0.117236
v 0.940000 -0.630859 0.123168
v 0.950000 -0.630859 0.128758
v 0.960000 -0.630859 0.132950
v 0.970000 -0.630859 0.134227
v 0.980000 -0.630859 0.133663
v 0.990000 -0.630859 0.132670
v 1.000000 -0.630859 0.132195
v 1.010000 -0.630859 0.132127
v 1.020000 -0.630859 0.132129
v 1.030000 -0.630859 0.132106
v 1.040000 -0.630859 0.131862
v 1.050000 -0.630859 0.130691
v 1.060000 -0.630859 0.128064
v 1.070000 -0.630859 0.125578
v 1.080000 -0.630859 0.123945
v 1.090000 -0.630859 0.123231
v 1.100000 -0.630859 0.123003
v 1.110000 -0.630859 0.122397
v 1.120000 -0.630859 0.119933
v 1.130000 -0.630859 0.115153
v 1.140000 -0.630859 0.109765
v 1.150000 -0.630859 0.104465
v 1.159999 -0.630859 0.098611
v 1.169973 -0.630859 0.088915
v 1.179577 -0.630859 0.066172
v 1.186434 -0.630861 0.000000
v 0.871009 -0.636875 0.000000
v 0.864659 -0.634821 0.000000
v 0.880124 -0.637435 0.054821
v 0.890007 -0.637497 0.080072
v 0.900000 -0.637500 0.093435
v 0.910000 -0.637500 0.102018
v 0.920000 -0.637500 0.108952
v 0.930000 -0.637500 0.115098
v 0.940000 -0.637500 0.120936
v 0.950000 -0.637500 0.126381
v 0.960000 -0.637500 0.130841
v 0.970000 -0.637500 0.133944
v 0.980000 -0.637500 0.135602
v 0.990000 -0.637500 0.135851
v 1.000000 -0.637500 0.136104
v 1.010000 -0.637500 0.136484
v 1.020000 -0.637500 0.136676
v 1.030000 -0.637500 0.136715
v 1.040000 -0.637500 0.136360
v 1.050000 -0.637500 0.134831
v 1.060000 -0.637500 0.132208
v 1.070000 -0.637500 0.129878
v 1.080000 -0.637500 0.128377
v 1.090000 -0.637500 0.127717
v 1.100000 -0.637500 0.127412
v 1.110000 -0.637500 0.126340
v 1.120000 -0.637500 0.122862
v 1.130000 -0.637500 0.117921
v 1.140000 -0.637500 0.112796
v 1.150000 -0.637500 0.107383
v 1.159999 -0.637500 0.100635
v 1.169973 -0.637500 0.089960
v 1.179577 -0.637500 0.066607
v 1.186435 -0.637500 0.000000
v 0.880818 -0.643825 0.000000
v 0.874059 -0.641479 0.000000
v 0.890079 -0.644119 0.068911
v 0.900004 -0.644140 0.089736
v 0.910000 -0.644141 0.099600
v 0.920000 -0.644141 0.106583
v 0.930000 -0.644141 0.112809
v 0.940000 -0.644141 0.118524
v 0.950000 -0.644141 0.123409
v 0.960000 -0.644141 0.127487
v 0.970000 -0.644141 0.130946
v 0.980000 -0.644141 0.133497
v 0.990000 -0.644141 0.135421
v 1.000000 -0.644141 0.137519
v 1.010000 -0.644141 0.139407
v 1.020000 -0.644141 0.140593
v 1.030000 -0.644141 0.141179
v 1.040000 -0.644141 0.140904
v 1.050000 -0.644141 0.139094
v 1.060000 -0.644141 0.136486
v 1.070000 -0.644141 0.134282
v 1.080000 -0.644141 0.132878
v 1.090000 -0.644141 0.132217
v 1.100000 -0.644141 0.131658
v 1.110000 -0.644141 0.129874
v 1.120000 -0.644141 0.125647
v 1.130000 -0.644141 0.120540
v 1.140000 -0.644141 0.115145
v 1.150000 -0.644141 0.108855
v 1.159999 -0.644141 0.101251
v 1.169973 -0.644141 0.090148
v 1.179577 -0.644141 0.066648
v 1.186435 -0.644141 0.000000
v 0.890373 -0.650776 0.063724
v 0.883159 -0.650714 0.000000
v 0.900025 -0.650781 0.086112
v 0.910001 -0.650781 0.096627
v 0.920000 -0.650781 0.104114
v 0.930000 -0.650781 0.110466
v 0.940000 -0.650781 0.115722
v 0.950000 -0.650781 0.119985
v 0.960000 -0.650781 0.123785
v 0.970000 -0.650781 0.127137
v 0.980000 -0.650781 0.129634
v 0.990000 -0.650781 0.132141
v 1.000000 -0.650781 0.135213
v 1.010000 -0.650781 0.138661
v 1.020000 -0.650781 0.141989
v 1.030000 -0.650781 0.144375
v 1.040000 -0.650781 0.144974
v 1.050000 -0.650781 0.143316
v 1.060000 -0.650781 0.140872
v 1.070000 -0.650781 0.138796
v 1.080000 -0.650781 0.137431
v 1.090000 -0.650781 0.136519
v 1.100000 -0.650781 0.135085
v 1.110000 -0.650781 0.132061
v 1.120000 -0.650781 0.127271
v 1.130000 -0.650781 0.121842
v 1.140000 -0.650781 0.115934
v 1.150000 -0.650781 0.109191
v 1.159999 -0.650781 0.101345
v 1.169973 -0.650781 0.090166
v 1.179577 -0.650781 0.066650
v 1.186435 -0.650781 0.000000
v 0.890466 -0.657371 0.052066
v 0.883718 -0.657005 0.000000
v 0.900031 -0.657419 0.079580
v 0.910001 -0.657422 0.093348
v 0.920000 -0.657422 0.101712
v 0.930000 -0.657422 0.107737
v 0.940000 -0.657422 0.112383
v 0.950000 -0.657422 0.116327
v 0.960000 -0.657422 0.119973
v 0.970000 -0.657422 0.123113
v 0.980000 -0.657422 0.125472
v 0.990000 -0.657422 0.128162
v 1.000000 -0.657422 0.131590
v 1.010000 -0.657422 0.135684
v 1.020000 -0.657422 0.140194
v 1.030000 -0.657422 0.144375
v 1.040000 -0.657422 0.146771
v 1.050000 -0.657422 0.146487
v 1.060000 -0.657422 0.144977
v 1.070000 -0.657422 0.143242
v 1.080000 -0.657422 0.141717
v 1.090000 -0.657422 0.139680
v 1.100000 -0.657422 0.136105
v 1.110000 -0.657422 0.131228
v 1.120000 -0.657422 0.125858
v 1.130000 -0.657422 0.120558
v 1.140000 -0.657422 0.115146
v 1.150000 -0.657422 0.108855
v 1.159999 -0.657422 0.101251
v 1.169973 -0.657422 0.090148
v 1.179577 -0.657422 0.066648
v 1.186435 -0.657422 0.000000
v 0.890884 -0.663749 0.000000
v 0.884695 -0.661429 0.000000
v 0.900083 -0.664041 0.068853
v 0.910004 -0.664062 0.089576
v 0.920000 -0.664062 0.098775
v 0.930000 -0.664062 0.104227
v 0.940000 -0.664062 0.108552
v 0.950000 -0.664062 0.112524
v 0.960000 -0.664062 0.116132
v 0.970000 -0.664062 0.118960
v 0.980000 -0.664062 0.121302
v 0.990000 -0.664062 0.124203
v 1.000000 -0.664062 0.127900
v 1.010000 -0.664062 0.132290
v 1.020000 -0.664062 0.137128
v 1.030000 -0.664062 0.141662
v 1.040000 -0.664062 0.144690
v 1.050000 -0.664062 0.146419
v 1.060000 -0.664062 0.147100
v 1.070000 -0.664062 0.146461
v 1.080000 -0.664062 0.144559
v 1.090000 -0.664062 0.140570
v 1.100000 -0.664062 0.135108
v 1.110000 -0.664062 0.129206
v 1.120000 -0.664062 0.123436
v 1.130000 -0.664062 0.117984
v 1.140000 -0.664062 0.112800
v 1.150000 -0.664062 0.107383
v 1.159999 -0.664062 0.100635
v 1.169973 -0.664062 0.089960
v 1.179577 -0.664062 0.066607
v 1.186435 -0.664062 0.000000
v 0.900374 -0.670697 0.063615
v 0.893162 -0.670636 0.000000
v 0.910025 -0.670703 0.085371
v 0.920001 -0.670703 0.094401
v 0.930000 -0.670703 0.099931
v 0.940000 -0.670703 0.104440
v 0.950000 -0.670703 0.108570
v 0.960000 -0.670703 0.112270
v 0.970000 -0.670703 0.114767
v 0.980000 -0.670703 0.117179
v 0.990000 -0.670703 0.120370
v 1.000000 -0.670703 0.124384
v 1.010000 -0.670703 0.129021
v 1.020000 -0.670703 0.133844
v 1.030000 -0.670703 0.137865
v 1.040000 -0.670703 0.140648
v 1.050000 -0.670703 0.142957
v 1.060000 -0.670703 0.144856
v 1.070000 -0.670703 0.145843
v 1.080000 -0.670703 0.144209
v 1.090000 -0.670703 0.139380
v 1.100000 -0.670703 0.133338
v 1.110000 -0.670703 0.127163
v 1.120000 -0.670703 0.121128
v 1.130000 -0.670703 0.115314
v 1.140000 -0.670703 0.109777
v 1.150000 -0.670703 0.104465
v 1.159999 -0.670703 0.098611
v 1.169973 -0.670703 0.088915
v 1.179577 -0.670703 0.066172
v 1.186434 -0.670701 0.000000
v 0.900475 -0.677271 0.051296
v 0.893719 -0.676923 0.000000
v 0.910033 -0.677338 0.076101
v 0.920001 -0.677343 0.088033
v 0.930000 -0.677344 0.094766
v 0.940000 -0.677344 0.099982
v 0.950000 -0.677344 0.104485
v 0.960000 -0.677344 0.108248
v 0.970000 -0.677344 0.110491
v 0.980000 -0.677344 0.113090
v 0.990000 -0.677344 0.116678
v 1.000000 -0.677344 0.121074
v 1.010000 -0.677344 0.125922
v 1.020000 -0.677344 0.130509
v 1.030000 -0.677344 0.133777
v 1.040000 -0.677344 0.136260
v 1.050000 -0.677344 0.138532
v 1.060000 -0.677344 0.140751
v 1.070000 -0.677344 0.142556
v 1.080000 -0.677344 0.141653
v 1.090000 -0.677344 0.137136
v 1.100000 -0.677344 0.131295
v 1.110000 -0.677344 0.125240
v 1.120000 -0.677344 0.119126
v 1.130000 -0.677344 0.112960
v 1.140000 -0.677344 0.106810
v 1.150000 -0.677344 0.100750
v 1.159999 -0.677344 0.094537
v 1.169972 -0.677344 0.085321
v 1.179574 -0.677340 0.063294
v 1.186417 -0.677305 0.000000
v 0.901014 -0.683357 0.000000
v 0.894715 -0.681308 0.000000
v 0.910134 -0.683898 0.054049
v 0.920010 -0.683978 0.076591
v 0.930000 -0.683984 0.088089
v 0.940000 -0.683984 0.094841
v 0.950000 -0.683984 0.100085
v 0.960000 -0.683984 0.103690
v 0.970000 -0.683984 0.105950
v 0.980000 -0.683984 0.109000
v 0.990000 -0.683984 0.113140
v 1.000000 -0.683984 0.117952
v 1.010000 -0.683984 0.122831
v 1.020000 -0.683984 0.126909
v 1.030000 -0.683984 0.129598
v 1.040000 -0.683984 0.131931
v 1.050000 -0.683984 0.134090
v 1.060000 -0.683984 0.136395
v 1.070000 -0.683984 0.138484
v 1.080000 -0.683984 0.138098
v 1.090000 -0.683984 0.134409
v 1.100000 -0.683984 0.129022
v 1.110000 -0.683984 0.123192
v 1.120000 -0.683984 0.117237
v 1.130000 -0.683984 0.110949
v 1.140000 -0.683984 0.104233
v 1.150000 -0.683984 0.096998
v 1.159999 -0.683984 0.088772
v 1.169967 -0.683979 0.076205
v 1.179521 -0.683912 0.051284
v 1.186242 -0.683565 0.000000
v 0.910947 -0.689996 0.000000
v 0.904079 -0.687920 0.000000
v 0.920131 -0.690538 0.054099
v 0.930009 -0.690619 0.076680
v 0.940000 -0.690625 0.088567
v 0.950000 -0.690625 0.095366
v 0.960000 -0.690625 0.098643
v 0.970000 -0.690625 0.101127
v 0.980000 -0.690625 0.104919
v 0.990000 -0.690625 0.109779
v 1.000000 -0.690625 0.114941
v 1.010000 -0.690625 0.119542
v 1.020000 -0.690625 0.123037
v 1.030000 -0.690625 0.125399
v 1.040000 -0.690625 0.127680
v 1.050000 -0.690625 0.129760
v 1.060000 -0.690625 0.132147
v 1.070000 -0.690625 0.134395
v 1.080000 -0.690625 0.134267
v 1.090000 -0.690625 0.131238
v 1.100000 -0.690625 0.126525
v 1.110000 -0.690625 0.120960
v 1.120000 -0.690625 0.115100
v 1.130000 -0.690625 0.108952
v 1.140000 -0.690625 0.102018
v 1.150000 -0.690625 0.093434
v 1.159992 -0.690622 0.080072
v 1.169876 -0.690560 0.054818
v 1.178987 -0.690000 0.000000
v 1.185282 -0.687949 0.000000
v 0.920946 -0.696639 0.000000
v 0.914074 -0.694560 0.000000
v 0.930121 -0.697200 0.054729
v 0.940007 -0.697262 0.079076
v 0.950000 -0.697265 0.089448
v 0.960000 -0.697266 0.092653
v 0.970000 -0.697266 0.095888
v 0.980000 -0.697266 0.100880
v 0.990000 -0.697266 0.106581
v 1.000000 -0.697266 0.111858
v 1.010000 -0.697266 0.115979
v 1.020000 -0.697266 0.118926
v 1.030000 -0.697266 0.121161
v 1.040000 -0.697266 0.123416
v 1.050000 -0.697266 0.125506
v 1.060000 -0.697266 0.128030
v 1.070000 -0.697266 0.130413
v 1.080000 -0.697266 0.130368
v 1.090000 -0.697266 0.127622
v 1.100000 -0.697266 0.123615
v 1.110000 -0.697266 0.118586
v 1.120000 -0.697266 0.112817
v 1.130000 -0.697266 0.106583
v 1.140000 -0.697266 0.099600
v 1.149996 -0.697265 0.089736
v 1.159921 -0.697244 0.068911
v 1.169182 -0.696950 0.000000
v 1.175941 -0.694604 0.000000
v 0.930831 -0.703561 0.000000
v 0.924056 -0.701242 0.000000
v 0.940081 -0.703865 0.064581
v 0.950004 -0.703889 0.079542
v 0.960001 -0.703905 0.083704
v 0.970000 -0.703906 0.089841
v 0.980000 -0.703906 0.096919
v 0.990000 -0.703906 0.103308
v 1.000000 -0.703906 0.108290
v 1.010000 -0.703906 0.112117
v 1.020000 -0.703906 0.114696
v 1.030000 -0.703906 0.116910
v 1.040000 -0.703906 0.119116
v 1.050000 -0.703906 0.121304
v 1.060000 -0.703906 0.124001
v 1.070000 -0.703906 0.126436
v 1.080000 -0.703906 0.126421
v 1.090000 -0.703906 0.123834
v 1.100000 -0.703906 0.120309
v 1.110000 -0.703906 0.115864
v 1.120000 -0.703906 0.110491
v 1.130000 -0.703906 0.104116
v 1.139999 -0.703906 0.096627
v 1.149975 -0.703906 0.086112
v 1.159627 -0.703901 0.063724
v 1.166842 -0.703839 0.000000
v 0.940406 -0.710243 0.047706
v 0.933329 -0.710040 0.000000
v 0.950029 -0.710301 0.059524
v 0.960024 -0.710516 0.065377
v 0.970003 -0.710545 0.081514
v 0.980000 -0.710547 0.092888
v 0.990000 -0.710547 0.099603
v 1.000000 -0.710547 0.104320
v 1.010000 -0.710547 0.107985
v 1.020000 -0.710547 0.110348
v 1.030000 -0.710547 0.112642
v 1.040000 -0.710547 0.114797
v 1.050000 -0.710547 0.117137
v 1.060000 -0.710547 0.119971
v 1.070000 -0.710547 0.122211
v 1.080000 -0.710547 0.122206
v 1.090000 -0.710547 0.119900
v 1.100000 -0.710547 0.116600
v 1.110000 -0.710547 0.112624
v 1.120000 -0.710547 0.107801
v 1.130000 -0.710547 0.101720
v 1.139999 -0.710547 0.093349
v 1.149969 -0.710544 0.079580
v 1.159534 -0.710496 0.052066
v 1.166283 -0.710130 0.000000
v 0.940716 -0.714721 0.000000
v 0.934617 -0.714082 0.000000
v 0.950094 -0.715119 0.000000
v 0.960347 -0.716957 0.000000
v 0.970047 -0.717172 0.068912
v 0.980003 -0.717187 0.087821
v 0.990000 -0.717188 0.095032
v 1.000000 -0.717188 0.099872
v 1.010000 -0.717188 0.103530
v 1.020000 -0.717188 0.105826
v 1.030000 -0.717188 0.108306
v 1.040000 -0.717188 0.110431
v 1.050000 -0.717188 0.112994
v 1.060000 -0.717188 0.115979
v 1.070000 -0.717188 0.117905
v 1.080000 -0.717188 0.117903
v 1.090000 -0.717188 0.115948
v 1.100000 -0.717188 0.112711
v 1.110000 -0.717188 0.109000
v 1.120000 -0.717188 0.104408
v 1.130000 -0.717188 0.098805
v 1.139996 -0.717187 0.089578
v 1.149917 -0.717166 0.068853
v 1.159116 -0.716874 0.000000
v 1.165305 -0.714554 0.000000
v 0.970370 -0.723809 0.062388
v 0.963115 -0.723766 0.000000
v 0.980026 -0.723826 0.080412
v 0.990001 -0.723828 0.088754
v 1.000000 -0.723828 0.094469
v 1.010000 -0.723828 0.098305
v 1.020000 -0.723828 0.100888
v 1.030000 -0.723828 0.103701
v 1.040000 -0.723828 0.105915
v 1.050000 -0.723828 0.108819
v 1.060000 -0.723828 0.111953
v 1.070000 -0.723828 0.113539
v 1.080000 -0.723828 0.113538
v 1.090000 -0.723828 0.111942
v 1.100000 -0.723828 0.108678
v 1.110000 -0.723828 0.104956
v 1.120000 -0.723828 0.100333
v 1.129999 -0.723828 0.094508
v 1.139975 -0.723828 0.085383
v 1.149626 -0.723822 0.063615
v 1.156838 -0.723761 0.000000
v 0.970457 -0.730199 0.047850
v 0.963714 -0.729993 0.000000
v 0.980062 -0.730415 0.062768
v 0.990006 -0.730464 0.077897
v 1.000000 -0.730468 0.087534
v 1.010000 -0.730469 0.092026
v 1.020000 -0.730469 0.095282
v 1.030000 -0.730469 0.098425
v 1.040000 -0.730469 0.101040
v 1.050000 -0.730469 0.104502
v 1.060000 -0.730469 0.107729
v 1.070000 -0.730469 0.109000
v 1.080000 -0.730469 0.109000
v 1.090000 -0.730469 0.107724
v 1.100000 -0.730469 0.104430
v 1.110000 -0.730469 0.100446
v 1.120000 -0.730469 0.095786
v 1.129999 -0.730469 0.088570
v 1.139967 -0.730464 0.076191
v 1.149525 -0.730397 0.051303
v 1.156281 -0.730048 0.000000
v 0.970763 -0.734899 0.000000
v 0.964676 -0.734043 0.000000
v 0.980521 -0.736558 0.000000
v 0.990100 -0.737027 0.054270
v 1.000008 -0.737089 0.075270
v 1.010001 -0.737107 0.082759
v 1.020000 -0.737109 0.088386
v 1.030000 -0.737109 0.092149
v 1.040000 -0.737109 0.095641
v 1.050000 -0.737109 0.099885
v 1.060000 -0.737109 0.103188
v 1.070000 -0.737109 0.104176
v 1.080000 -0.737109 0.104176
v 1.090000 -0.737109 0.103187
v 1.100000 -0.737109 0.099863
v 1.110000 -0.737109 0.095359
v 1.120000 -0.737109 0.090110
v 1.129992 -0.737106 0.079152
v 1.139875 -0.737043 0.054691
v 1.148987 -0.736484 0.000000
v 1.155285 -0.734433 0.000000
v 0.990941 -0.743080 0.000000
v 0.984012 -0.741054 0.000000
v 1.000112 -0.743466 0.050642
v 1.010038 -0.743693 0.063063
v 1.020004 -0.743731 0.076673
v 1.030001 -0.743747 0.082948
v 1.040000 -0.743750 0.089000
v 1.050000 -0.743750 0.094429
v 1.060000 -0.743750 0.097839
v 1.070000 -0.743750 0.098726
v 1.080000 -0.743750 0.098726
v 1.090000 -0.743750 0.097839
v 1.100000 -0.743750 0.094418
v 1.110000 -0.743750 0.088796
v 1.119995 -0.743747 0.080865
v 1.129919 -0.743711 0.064739
v 1.139169 -0.743404 0.000000
v 1.145940 -0.741086 0.000000
v 1.000674 -0.748176 0.000000
v 0.994034 -0.747296 0.000000
v 1.010514 -0.749797 0.000000
v 1.020080 -0.750113 0.050992
v 1.030037 -0.750336 0.063237
v 1.040005 -0.750386 0.077926
v 1.050000 -0.750390 0.087454
v 1.060000 -0.750390 0.091320
v 1.070000 -0.750390 0.092160
v 1.080000 -0.750390 0.092160
v 1.090000 -0.750390 0.091320
v 1.100000 -0.750390 0.087452
v 1.109994 -0.750386 0.077895
v 1.119941 -0.750337 0.062808
v 1.129591 -0.750119 0.048149
v 1.136671 -0.749887 0.000000
v 1.020669 -0.754820 0.000000
v 1.013972 -0.753950 0.000000
v 1.030516 -0.756480 0.000000
v 1.040099 -0.756949 0.054262
v 1.050008 -0.757009 0.075106
v 1.060000 -0.757013 0.081334
v 1.070000 -0.757013 0.082288
v 1.080000 -0.757013 0.082288
v 1.090000 -0.757013 0.081334
v 1.099992 -0.757009 0.075106
v 1.109900 -0.756949 0.054260
v 1.119480 -0.756480 0.000000
v 1.129242 -0.754821 0.000000
v 1.135379 -0.753963 0.000000
v 1.040941 -0.762999 0.000000
v 1.034012 -0.760975 0.000000
v 1.050109 -0.763354 0.050174
v 1.060006 -0.763389 0.059385
v 1.070000 -0.763391 0.060809
v 1.080000 -0.763391 0.060809
v 1.089994 -0.763389 0.059385
v 1.099891 -0.763354 0.050174
v 1.109059 -0.762999 0.000000
v 1.115988 -0.760975 0.000000
v 1.050631 -0.767817 0.000000
v 1.044030 -0.767180 0.000000
v 1.060058 -0.767933 0.000000
v 1.070003 -0.767945 0.000000
v 1.079997 -0.767945 0.000000
v 1.089942 -0.767933 0.000000
v 1.099369 -0.767817 0.000000
v 1.105970 -0.767180 0.000000
f 1510 1541 1542 1511
f 125 145 146 126
f 1857 1869 1870 1858
f 52 64 65 54
f 1758 1779 1780 1759
f 85 110 109 87
f 1027 1057 1058 1028
f 964 984 985 965
f 101 102 104 103
f 1790 1811 1812 1791
f 35 49 50 37
f 1865 1874 1875 1866
f 1169 1204 1205 1170
f 1854 1866 1867 1855
f 1685 1710 1711 1686
f 13 20 21 14
f 1545 1576 1577 1546
f 18 27 26 20
f 126 146 147 128
f 1846 1860 1861 1847
f 310 335 336 311
f 1839 1853 1854 1840
f 1772 1793 1795 1774
f 665 677 678 666
f 490 514 515 491
f 117 137 138 118
f 123 143 144 124
f 1718 1743 1744 1719
f 59 71 72 60
f 1011 1041 1042 1012
f 84 98 100 99
f 485 509 508 484
f 2 3 6 5
f 953 973 974 954
f 906 934 935 907
f 1802 1821 1822 1803
f 213 239 238 212
f 60 72 73 61
f 141 172 173 142
f 14 21 22 15
f 76 93 94 77
f 1823 1840 1841 1824
f 1689 1714 1715 1690
f 211 235 237 236
f 945 966 967 946
f 1862 1873 1872 1864
f 6 13 14 8
f 31 47 48 33
f 1417 1449 1450 1418
f 293 318 319 294
f 233 259 260 234
f 1385 1418 1419 1386
f 1850 1863 1862 1851
f 118 138 139 119
f 922 923 925 924
f 1791 1812 1813 1792
f 355 379 380 356
f 17 23 25 24
f 914 915 917 916
f 1658 1685 1686 1659
f 37 50 51 39
f 649 665 666 650
f 442 466 467 443
f 92 115 116 93
f 120 140 141 121
f 954 974 975 955
f 187 213 212 189
f 189 212 214 190
f 39 51 52 41
f 29 45 46 30
f 1059 1099 1100 1060
f 1386 1419 1420 1387
f 373 397 398 374
f 1377 1410 1411 1378
f 225 251 252 226
f 133 164 165 134
f 63 75 76 64
f 514 538 539 515
f 10 15 17 16
f 55 69 68 57
f 1052 1092 1093 1053
f 1234 1270 1271 1235
f 301 326 327 302
f 221 247 248 222
f 79 80 82 81
f 51 63 64 52
f 434 458 459 435
f 23 30 31 25
f 1617 1648 1647 1619
f 1138 1174 1175 1139
f 181 207 208 182
f 71 88 89 72
f 270 296 297 271
f 192 216 217 193
f 1720 1745 1746 1721
f 1274 1310 1311 1275
f 1043 1083 1084 1044
f 11 18 20 13
f 1822 1839 1840 1823
f 996 1028 1029 998
f 450 474 475 451
f 1332 1366 1367 1333
f 253 278 279 254
f 15 22 23 17
f 445 469 470 446
f 94 117 118 95
f 1678 1703 1704 1679
f 96 119 120 97
f 619 639 640 620
f 573 597 598 574
f 261 286 287 262
f 858 866 868 860
f 27 43 42 26
f 78 95 96 80
f 88 111 112 89
f 1715 1740 1741 1716
f 54 65 67 66
f 184 210 211 186
f 497 521 522 498
f 1475 1507 1508 1476
f 347 371 372 348
f 202 226 227 203
f 457 481 482 458
f 67 78 80 79
f 109 129 131 111
f 458 482 483 459
f 1422 1454 1455 1423
f 1410 1442 1443 1411
f 1348 1382 1383 1349
f 323 347 348 324
f 197 221 222 198
f 223 249 250 224
f 93 116 117 94
f 1091 1127 1128 1092
f 862 870 871 863
f 1044 1084 1085 1045
f 810 815 814 809
f 661 673 674 662
f 333 357 358 334
f 77 94 95 78
f 1010 1040 1041 1011
f 1571 1602 1603 1572
f 341 365 364 340
f 219 245 246 220
f 628 647 648 629
f 1402 1434 1435 1403
f 597 620 621 598
f 90 113 114 91
f 1537 1568 1569 1538
f 99 100 102 101
f 1193 1227 1228 1194
f 388 412 414 390
f 480 504 505 481
f 418 442 443 419
f 33 48 49 35
f 381 405 406 382
f 159 184 186 185
f 993 994 996 995
f 262 287 289 288
f 164 190 191 165
f 1028 1058 1059 1029
f 1034 1063 1065 1064
f 419 443 444 420
f 405 429 430 406
f 279 305 306 280
f 277 303 304 278
f 1075 1109 1111 1110
f 231 257 258 232
f 160 188 187 162
f 413 437 436 412
f 98 121 122 100
f 166 192 193 167
f 369 393 394 370
f 144 175 176 145
f 1012 1042 1043 1013
f 243 268 269 244
f 1001 1002 1004 1003
f 287 313 314 289
f 173 199 200 174
f 142 173 174 143
f 175 201 202 176
f 128 147 149 148
f 124 144 145 125
f 547 571 572 548
f 449 473 474 450
f 209 233 234 210
f 165 191 192 166
f 254 279 280 255
f 1465 1497 1498 1466
f 64 76 77 65
f 1002 1031 1032 1004
f 475 499 500 476
f 977 1013 1014 978
f 1097 1133 1134 1098
f 319 343 344 320
f 474 498 499 475
f 375 399 400 376
f 1084 1120 1121 1085
f 586 609 610 587
f 515 539 540 516
f 41 52 54 53
f 978 1014 1015 979
f 42 56 55 44
f 1123 1159 1160 1124
f 1514 1545 1546 1515
f 1633 1662 1663 1634
f 50 62 63 51
f 957 977 978 958
f 552 576 577 553
f 351 375 376 352
f 131 162 163 132
f 466 490 491 467
f 207 231 232 208
f 336 360 361 337
f 1866 1875 1876 1867
f 481 505 506 482
f 525 549 550 526
f 199 223 224 200
f 854 863 864 855
f 1490 1522 1523 1491
f 1546 1577 1578 1547
f 773 780 781 774
f 533 557 556 532
f 737 746 748 739
f 26 42 44 28
f 1107 1143 1144 1108
f 167 193 194 168
f 224 250 251 225
f 162 187 189 163
f 493 517 518 494
f 557 581 580 556
f 295 320 321 296
f 437 461 460 436
f 230 256 257 231
f 970 1006 1005 969
f 216 242 243 217
f 330 354 355 331
f 1053 1093 1094 1054
f 565 589 590 566
f 1425 1457 1458 1426
f 115 135 136 116
f 222 248 249 223
f 524 548 549 525
f 290 315 317 292
f 683 693 694 684
f 273 299 300 274
f 415 439 440 416
f 245 270 271 246
f 198 222 223 199
f 865 873 875 874
f 328 352 353 329
f 194 218 219 195
f 667 679 680 668
f 154 155 157 156
f 177 203 204 178
f 229 255 256 230
f 150 151 153 152
f 367 391 392 368
f 1442 1474 1475 1443
f 1730 1751 1753 1731
f 1213 1247 1248 1214
f 613 633 634 614
f 447 471 472 448
f 205 229 230 206
f 1869 1878 1879 1870
f 180 206 207 181
f 1017 1047 1048 1018
f 1157 1192 1193 1158
f 479 503 504 480
f 349 373 374 350
f 585 608 609 586
f 271 297 298 272
f 1116 1152 1153 1117
f 546 570 571 547
f 1061 1101 1102 1062
f 249 274 275 250
f 697 707 708 698
f 58 70 71 59
f 390 414 415 391
f 263 291 290 265
f 1434 1466 1467 1435
f 962 982 983 963
f 739 748 749 740
f 677 688 689 678
f 423 447 448 424
f 203 227 228 204
f 302 327 328 303
f 359 383 384 360
f 472 496 497 473
f 698 708 709 699
f 701 710 712 703
f 969 1005 1007 971
f 294 319 320 295
f 994 1027 1028 996
f 1100 1136 1137 1101
f 28 44 45 29
f 149 179 180 151
f 717 726 727 718
f 631 650 651 632
f 147 178 179 149
f 1411 1443 1444 1412
f 244 269 270 245
f 304 329 330 305
f 842 850 849 841
f 867 877 876 866
f 537 561 562 538
f 535 559 560 536
f 429 453 454 430
f 382 406 407 383
f 986 1022 1023 987
f 296 321 322 297
f 1435 1467 1468 1436
f 859 867 866 858
f 325 349 350 326
f 409 433 434 410
f 506 530 531 507
f 663 675 676 664
f 256 281 282 257
f 482 506 507 483
f 843 851 852 844
f 637 656 657 638
f 607 627 628 608
f 317 340 342 318
f 1187 1221 1222 1188
f 220 246 247 221
f 1458 1490 1491 1459
f 1170 1205 1206 1171
f 819 826 828 821
f 501 525 526 502
f 1042 1082 1083 1043
f 309 334 335 310
f 1273 1309 1310 1274
f 335 359 360 336
f 1156 1191 1192 1157
f 719 728 730 721
f 1437 1469 1470 1438
f 421 445 446 422
f 1441 1473 1474 1442
f 526 550 551 527
f 327 351 352 328
f 1649 1675 1677 1650
f 183 209 210 184
f 1333 1367 1368 1334
f 781 787 788 782
f 543 567 568 544
f 365 389 388 364
f 1171 1206 1207 1172
f 303 328 329 304
f 464 488 489 465
f 1266 1302 1303 1267
f 529 553 554 530
f 129 160 162 131
f 1457 1489 1490 1458
f 82 97 98 84
f 358 382 383 359
f 247 272 273 248
f 1132 1168 1169 1133
f 1515 1546 1547 1516
f 563 587 588 564
f 195 219 220 196
f 1226 1262 1263 1227
f 350 374 375 351
f 276 302 303 277
f 368 392 393 369
f 746 755 757 748
f 1324 1358 1359 1325
f 829 837 838 830
f 1106 1142 1143 1107
f 74 91 92 75
f 326 350 351 327
f 1433 1465 1466 1434
f 360 384 385 361
f 644 660 661 645
f 995 996 998 997
f 853 862 863 854
f 767 774 775 768
f 1589 1619 1620 1590
f 522 546 547 523
f 495 519 520 496
f 456 480 481 457
f 1058 1098 1099 1059
f 1773 1794 1793 1772
f 179 205 206 180
f 783 789 791 785
f 1219 1255 1257 1221
f 1082 1118 1119 1083
f 1474 1506 1507 1475
f 1035 1077 1076 1037
f 1701 1726 1728 1703
f 861 869 870 862
f 1098 1134 1135 1099
f 397 421 422 398
f 1225 1261 1262 1226
f 399 423 424 400
f 1188 1222 1223 1189
f 1698 1723 1724 1699
f 132 163 164 133
f 489 513 514 490
f 703 712 713 704
f 389 413 412 388
f 518 542 543 519
f 391 415 416 392
f 1466 1498 1499 1467
f 227 253 254 228
f 1051 1091 1092 1052
f 357 381 382 358
f 855 864 865 857
f 1203 1237 1238 1204
f 487 511 512 488
f 1856 1868 1869 1857
f 1836 1850 1851 1837
f 62 74 75 63
f 789 794 796 791
f 97 120 121 98
f 285 311 312 286
f 422 446 447 423
f 1026 1056 1057 1027
f 1172 1207 1208 1173
f 163 189 190 164
f 1139 1175 1176 1140
f 925 945 946 927
f 887 899 901 889
f 1696 1721 1722 1697
f 414 438 439 415
f 300 325 326 301
f 432 456 457 433
f 91 114 115 92
f 1131 1167 1168 1132
f 608 628 629 609
f 919 942 943 921
f 510 534 535 511
f 292 317 318 293
f 424 448 449 425
f 1796 1814 1816 1797
f 1115 1151 1152 1116
f 275 301 302 276
f 431 455 456 432
f 250 275 276 251
f 538 562 563 539
f 647 663 664 648
f 400 424 425 401
f 1594 1624 1625 1595
f 206 230 231 207
f 941 962 963 942
f 1473 1505 1506 1474
f 1025 1055 1056 1026
f 1251 1287 1288 1252
f 1018 1048 1049 1019
f 344 368 369 345
f 539 563 564 540
f 134 165 166 135
f 581 604 603 580
f 863 871 872 864
f 530 554 555 531
f 463 487 488 464
f 208 232 233 209
f 395 419 420 396
f 22 29 30 23
f 965 985 986 966
f 1489 1521 1522 1490
f 170 196 197 171
f 846 854 855 848
f 455 479 480 456
f 1751 1772 1774 1753
f 386 410 411 387
f 1236 1272 1273 1237
f 973 1009 1010 974
f 353 377 378 354
f 477 501 502 478
f 1235 1271 1272 1236
f 468 492 493 469
f 1247 1283 1284 1248
f 571 595 596 572
f 334 358 359 335
f 883 894 895 884
f 1023 1053 1054 1024
f 486 510 511 487
f 1066 1067 1069 1068
f 143 174 175 144
f 362 386 387 363
f 1267 1303 1304 1268
f 981 1017 1018 982
f 1055 1095 1096 1056
f 235 261 262 237
f 1452 1484 1485 1453
f 340 364 366 342
f 1748 1770 1771 1749
f 723 732 733 724
f 1259 1295 1296 1260
f 1049 1089 1090 1050
f 204 228 229 205
f 122 142 143 123
f 454 478 479 455
f 1449 1481 1482 1450
f 1468 1500 1501 1469
f 691 701 703 693
f 1243 1279 1280 1244
f 517 541 542 518
f 721 730 731 722
f 398 422 423 399
f 324 348 349 325
f 1371 1404 1405 1372
f 307 332 333 308
f 462 486 487 463
f 210 234 235 211
f 983 1019 1020 984
f 267 293 294 268
f 1283 1319 1320 1284
f 527 551 552 528
f 592 615 616 593
f 1356 1390 1391 1357
f 406 430 431 407
f 1065 1104 1105 1067
f 1119 1155 1156 1120
f 1153 1188 1189 1154
f 1241 1277 1278 1242
f 519 543 544 520
f 1817 1834 1835 1818
f 498 522 523 499
f 25 31 33 32
f 741 750 751 742
f 1127 1163 1164 1128
f 670 681 683 672
f 623 642 644 625
f 1252 1288 1289 1254
f 1163 1198 1199 1164
f 1315 1349 1350 1316
f 1073 1108 1109 1075
f 713 722 723 714
f 251 276 277 252
f 626 645 646 627
f 559 583 584 560
f 1737 1759 1760 1738
f 618 638 639 619
f 590 613 614 591
f 1093 1129 1130 1094
f 1159 1194 1195 1160
f 549 573 574 550
f 550 574 575 551
f 364 388 390 366
f 792 797 798 793
f 1299 1333 1334 1300
f 541 565 566 542
f 1191 1225 1226 1192
f 1578 1609 1610 1579
f 615 635 636 616
f 891 903 904 892
f 554 578 579 555
f 1403 1435 1436 1404
f 603 623 625 605
f 1199 1233 1234 1200
f 509 533 532 508
f 662 674 675 663
f 356 380 381 357
f 568 592 593 569
f 955 975 976 956
f 1379 1412 1413 1380
f 1117 1153 1154 1118
f 1505 1536 1537 1506
f 130 161 160 129
f 570 594 595 571
f 1135 1171 1172 1136
f 1125 1161 1162 1126
f 299 324 325 300
f 1586 1618 1617 1588
f 1239 1275 1276 1240
f 560 584 585 561
f 778 784 783 777
f 758 766 767 759
f 505 529 530 506
f 1521 1552 1553 1522
f 733 743 744 734
f 562 586 587 563
f 348 372 373 349
f 528 552 553 529
f 1254 1289 1291 1290
f 686 696 697 687
f 1069 1106 1107 1071
f 396 420 421 397
f 394 418 419 395
f 591 614 615 592
f 886 896 898 897
f 1460 1492 1494 1462
f 1181 1216 1217 1182
f 705 714 715 706
f 283 309 310 284
f 838 844 845 839
f 575 599 600 576
f 1284 1320 1321 1285
f 1723 1748 1749 1724
f 105 106 108 107
f 1189 1223 1224 1190
f 89 112 113 90
f 291 316 315 290
f 265 290 292 266
f 57 68 70 58
f 1287 1323 1324 1288
f 605 625 626 606
f 1307 1341 1342 1308
f 551 575 576 552
f 1009 1039 1040 1010
f 930 951 952 931
f 902 930 931 903
f 1221 1257 1258 1222
f 1311 1345 1346 1312
f 1245 1281 1282 1246
f 1707 1732 1733 1708
f 1319 1353 1354 1320
f 725 734 735 726
f 1308 1342 1343 1309
f 503 527 528 504
f 784 790 789 783
f 4 12 11 3
f 1555 1586 1588 1557
f 1261 1297 1298 1262
f 383 407 408 384
f 606 626 627 607
f 1268 1304 1305 1269
f 946 967 968 948
f 1539 1570 1571 1540
f 1081 1117 1118 1082
f 401 425 426 402
f 146 177 178 147
f 582 605 606 583
f 1054 1094 1095 1055
f 385 409 410 386
f 1197 1231 1232 1198
f 1263 1299 1300 1264
f 331 355 356 332
f 1257 1292 1294 1258
f 799 804 806 801
f 648 664 665 649
f 931 952 953 932
f 716 725 726 717
f 121 141 142 122
f 138 169 170 139
f 1355 1389 1390 1356
f 1146 1182 1183 1148
f 632 651 652 633
f 284 310 311 285
f 1006 1036 1035 1005
f 1347 1381 1382 1348
f 1029 1059 1060 1030
f 1218 1252 1254 1253
f 712 721 722 713
f 1090 1126 1127 1091
f 625 644 645 626
f 257 282 283 258
f 1375 1408 1409 1376
f 620 640 641 621
f 830 838 839 831
f 768 775 776 769
f 1202 1236 1237 1203
f 1206 1240 1241 1207
f 1357 1391 1392 1358
f 1383 1416 1417 1384
f 315 341 340 317
f 704 713 714 705
f 791 796 797 792
f 508 532 534 510
f 1699 1724 1725 1700
f 1365 1398 1399 1366
f 377 401 402 378
f 693 703 704 694
f 1316 1350 1351 1317
f 695 705 706 696
f 760 768 769 761
f 1691 1716 1717 1692
f 1397 1428 1430 1398
f 1439 1471 1472 1440
f 685 695 696 686
f 1339 1373 1374 1340
f 1659 1686 1687 1660
f 212 238 240 214
f 1405 1437 1438 1406
f 1447 1479 1480 1448
f 645 661 662 646
f 702 711 710 701
f 361 385 386 362
f 1530 1561 1562 1531
f 521 545 546 522
f 1675 1702 1701 1677
f 849 858 860 851
f 589 612 613 590
f 694 704 705 695
f 420 444 445 421
f 1112 1150 1149 1114
f 1391 1424 1425 1392
f 1341 1375 1376 1342
f 379 403 404 380
f 822 829 830 823
f 1529 1560 1561 1530
f 1300 1334 1335 1301
f 1553 1584 1585 1554
f 1461 1493 1492 1460
f 1041 1081 1082 1042
f 610 630 631 611
f 951 971 972 952
f 744 753 754 745
f 1469 1501 1502 1470
f 1342 1376 1377 1343
f 1503 1534 1535 1504
f 877 888 887 876
f 1387 1420 1421 1388
f 1278 1314 1315 1279
f 1338 1372 1373 1339
f 513 537 538 514
f 1511 1542 1543 1512
f 242 267 268 243
f 736 738 737 729
f 404 428 429 405
f 804 809 811 806
f 1166 1201 1202 1167
f 594 617 618 595
f 765 772 773 766
f 759 767 768 760
f 696 706 707 697
f 937 958 959 938
f 894 906 907 895
f 1593 1623 1624 1594
f 757 765 766 758
f 616 636 637 617
f 751 760 761 752
f 1506 1537 1538 1507
f 1470 1502 1503 1471
f 821 828 829 822
f 1543 1574 1575 1544
f 135 166 167 136
f 711 720 719 710
f 1843 1857 1858 1844
f 1450 1482 1483 1451
f 1501 1532 1533 1502
f 1575 1606 1607 1576
f 1114 1149 1151 1115
f 536 560 561 537
f 880 891 892 881
f 1482 1514 1515 1483
f 1835 1848 1850 1836
f 785 791 792 786
f 1509 1540 1541 1510
f 869 879 880 870
f 790 795 794 789
f 444 468 469 445
f 1092 1128 1129 1093
f 1533 1564 1565 1534
f 1819 1836 1837 1820
f 1519 1550 1551 1520
f 805 810 809 804
f 774 781 782 775
f 1481 1513 1514 1482
f 1598 1628 1629 1599
f 852 861 862 853
f 427 451 452 428
f 750 759 760 751
f 943 964 965 944
f 1729 1752 1751 1730
f 1542 1573 1574 1543
f 1498 1529 1530 1499
f 1541 1572 1573 1542
f 1631 1660 1661 1632
f 178 204 205 179
f 678 689 690 679
f 1388 1421 1422 1389
f 1438 1470 1471 1439
f 1258 1294 1295 1259
f 354 378 379 355
f 1639 1668 1669 1640
f 1021 1051 1052 1022
f 534 558 559 535
f 839 845 846 840
f 1477 1509 1510 1478
f 321 345 346 322
f 777 783 785 779
f 403 427 428 404
f 286 312 313 287
f 831 839 840 833
f 960 980 981 961
f 196 220 221 197
f 1137 1173 1174 1138
f 20 26 28 21
f 1671 1698 1699 1672
f 845 853 854 846
f 794 799 801 796
f 823 830 831 825
f 1634 1663 1664 1635
f 915 940 941 917
f 378 402 403 379
f 837 843 844 838
f 1695 1720 1721 1696
f 1297 1331 1332 1298
f 935 956 957 936
f 1340 1374 1375 1341
f 1642 1671 1672 1643
f 1742 1764 1765 1743
f 467 491 492 468
f 1703 1728 1729 1704
f 990 1025 1026 992
f 848 855 857 856
f 1130 1166 1167 1131
f 1484 1516 1517 1485
f 201 225 226 202
f 576 600 601 577
f 1569 1600 1601 1570
f 797 802 803 798
f 706 715 716 707
f 476 500 501 477
f 912 913 915 914
f 116 136 137 117
f 878 889 890 879
f 952 972 973 953
f 504 528 529 505
f 1647 1676 1675 1649
f 156 157 159 158
f 896 908 909 898
f 100 122 123 102
f 1306 1340 1341 1307
f 1669 1696 1697 1670
f 234 260 261 235
f 982 1018 1019 983
f 927 946 948 947
f 1380 1413 1414 1381
f 1762 1783 1784 1763
f 103 104 106 105
f 305 330 331 306
f 636 655 656 637
f 933 954 955 934
f 1122 1158 1159 1123
f 1612 1642 1643 1613
f 1605 1635 1636 1606
f 1057 1097 1098 1058
f 1231 1267 1268 1232
f 1778 1799 1800 1779
f 1733 1755 1756 1734
f 1013 1043 1044 1014
f 460 484 486 462
f 1292 1328 1327 1294
f 1570 1601 1602 1571
f 1838 1852 1853 1839
f 1741 1763 1764 1742
f 1378 1411 1412 1379
f 451 475 476 452
f 650 666 667 651
f 911 938 939 913
f 1104 1140 1141 1105
f 1756 1777 1778 1757
f 1702 1727 1726 1701
f 169 195 196 170
f 1799 1818 1819 1800
f 917 941 942 919
f 1467 1499 1500 1468
f 895 907 908 896
f 1364 1397 1398 1365
f 3 11 13 6
f 1446 1478 1479 1447
f 1409 1441 1442 1410
f 901 928 930 902
f 871 881 882 872
f 928 949 951 930
f 1858 1870 1871 1859
f 658 670 672 660
f 1781 1802 1803 1782
f 1807 1826 1827 1808
f 1005 1035 1037 1007
f 1134 1170 1171 1135
f 807 812 813 808
f 904 932 933 905
f 453 477 478 454
f 1629 1658 1659 1630
f 1821 1838 1839 1822
f 1855 1867 1868 1856
f 226 252 253 227
f 958 978 979 959
f 500 524 525 501
f 888 900 899 887
f 523 547 548 524
f 1210 1244 1245 1211
f 75 92 93 76
f 1829 1846 1847 1830
f 218 244 245 219
f 1079 1115 1116 1080
f 171 197 198 172
f 252 277 278 253
f 155 182 183 157
f 593 616 617 594
f 8 14 15 10
f 1581 1612 1613 1582
f 1443 1475 1476 1444
f 1497 1528 1529 1498
f 1024 1054 1055 1025
f 139 170 171 140
f 343 367 368 344
f 1757 1778 1779 1758
f 1370 1403 1404 1371
f 499 523 524 500
f 950 970 969 949
f 991 992 994 993
f 976 1012 1013 977
f 1810 1829 1830 1811
f 228 254 255 229
f 873 883 884 875
f 1783 1804 1805 1784
f 942 963 964 943
f 1412 1444 1445 1413
f 311 336 337 312
f 104 124 125 106
f 918 919 921 920
f 1721 1746 1747 1722
f 255 280 281 256
f 112 132 133 113
f 666 678 679 667
f 997 998 1000 999
f 967 987 988 968
f 1096 1132 1133 1097
f 1276 1312 1313 1277
f 1228 1264 1265 1229
f 38 39 41 40
f 80 96 97 82
f 989 990 992 991
f 1507 1538 1539 1508
f 1071 1107 1108 1073
f 1626 1655 1656 1627
f 629 648 649 630
f 471 495 496 472
f 30 46 47 31
f 136 167 168 137
f 949 969 971 951
f 1289 1325 1326 1291
f 1162 1197 1198 1163
f 1000 1030 1031 1002
f 469 493 494 470
f 439 463 464 440
f 113 133 134 114
f 168 194 195 169
f 893 905 906 894
f 1126 1162 1163 1127
f 532 556 558 534
f 992 1026 1027 994
f 380 404 405 381
f 1088 1124 1125 1089
f 372 396 397 373
f 176 202 203 177
f 1483 1515 1516 1484
f 1610 1640 1641 1611
f 70 87 88 71
f 749 758 759 750
f 1022 1052 1053 1023
f 1063 1103 1104 1065
f 1444 1476 1477 1445
f 371 395 396 372
f 583 606 607 584
f 102 123 124 104
f 1609 1639 1640 1610
f 298 323 324 299
f 1014 1044 1045 1015
f 1154 1189 1190 1155
f 1602 1632 1633 1603
f 491 515 516 492
f 567 591 592 568
f 110 130 129 109
f 193 217 218 194
f 1141 1177 1178 1142
f 1118 1154 1155 1119
f 1223 1259 1260 1224
f 1664 1691 1692 1665
f 909 937 938 911
f 511 535 536 512
f 417 441 442 418
f 1625 1654 1655 1626
f 258 283 284 259
f 682 692 691 681
f 516 540 541 517
f 443 467 468 444
f 46 58 59 47
f 1045 1085 1086 1046
f 1047 1087 1088 1048
f 65 77 78 67
f 174 200 201 175
f 875 884 886 885
f 240 265 266 241
f 1547 1578 1579 1548
f 1031 1061 1062 1032
f 1428 1460 1462 1430
f 651 667 668 652
f 407 431 432 408
f 182 208 209 183
f 809 814 816 811
f 1133 1169 1170 1134
f 674 685 686 675
f 1007 1037 1038 1008
f 1048 1088 1089 1049
f 635 654 655 636
f 151 180 181 153
f 345 369 370 346
f 280 306 307 281
f 1145 1181 1182 1146
f 1414 1446 1447 1415
f 1178 1213 1214 1179
f 1040 1080 1081 1041
f 269 295 296 270
f 743 752 753 744
f 214 240 241 215
f 312 337 338 313
f 611 631 632 612
f 1531 1562 1563 1532
f 564 588 589 565
f 1032 1062 1063 1034
f 370 394 395 371
f 492 516 517 493
f 238 263 265 240
f 320 344 345 321
f 587 610 611 588
f 1513 1544 1545 1514
f 968 988 990 989
f 484 508 510 486
f 246 271 272 247
f 825 831 833 832
f 1285 1321 1322 1286
f 1086 1122 1123 1087
f 1215 1249 1250 1216
f 800 805 804 799
f 106 125 126 108
f 903 931 932 904
f 1177 1212 1213 1178
f 248 273 274 249
f 595 618 619 596
f 1078 1114 1115 1079
f 548 572 573 549
f 921 943 944 923
f 771 778 777 770
f 879 890 891 880
f 190 214 215 191
f 376 400 401 377
f 1109 1145 1146 1111
f 1046 1086 1087 1047
f 1111 1146 1148 1147
f 1224 1260 1261 1225
f 755 763 765 757
f 815 820 819 814
f 1201 1235 1236 1202
f 384 408 409 385
f 1101 1137 1138 1102
f 998 1029 1030 1000
f 1103 1139 1140 1104
f 1706 1731 1732 1707
f 1085 1121 1122 1086
f 687 697 698 688
f 1579 1610 1611 1580
f 1077 1113 1112 1076
f 1207 1241 1242 1208
f 1128 1164 1165 1129
f 259 284 285 260
f 1039 1079 1080 1040
f 642 658 660 644
f 817 822 823 818
f 266 292 293 267
f 153 181 182 155
f 1194 1228 1229 1195
f 1740 1762 1763 1741
f 1260 1296 1297 1261
f 1015 1045 1046 1016
f 342 366 367 343
f 416 440 441 417
f 643 659 658 642
f 1262 1298 1299 1263
f 596 619 620 597
f 1216 1250 1251 1217
f 1019 1049 1050 1020
f 612 632 633 613
f 366 390 391 367
f 440 464 465 441
f 1089 1125 1126 1090
f 786 792 793 787
f 1186 1219 1221 1187
f 1650 1677 1678 1651
f 1099 1135 1136 1100
f 604 624 623 603
f 374 398 399 375
f 448 472 473 449
f 1277 1313 1314 1278
f 1158 1193 1194 1159
f 1508 1539 1540 1509
f 588 611 612 589
f 561 585 586 562
f 1641 1670 1671 1642
f 627 646 647 628
f 1150 1185 1184 1149
f 496 520 521 497
f 1809 1828 1829 1810
f 1083 1119 1120 1084
f 1151 1186 1187 1152
f 318 342 343 319
f 392 416 417 393
f 1173 1208 1209 1174
f 1595 1625 1626 1596
f 580 603 605 582
f 1376 1409 1410 1377
f 1067 1105 1106 1069
f 1095 1131 1132 1096
f 430 454 455 431
f 1657 1684 1685 1658
f 1165 1200 1201 1166
f 617 637 638 618
f 1175 1210 1211 1176
f 1492 1525 1524 1494
f 899 929 928 901
f 975 1011 1012 976
f 438 462 463 439
f 932 953 954 933
f 1269 1305 1306 1270
f 714 723 724 715
f 1167 1202 1203 1168
f 1192 1226 1227 1193
f 1227 1263 1264 1228
f 729 737 739 728
f 801 806 807 802
f 297 322 323 298
f 282 308 309 283
f 1198 1232 1233 1199
f 1143 1179 1180 1144
f 1184 1220 1219 1186
f 1211 1245 1246 1212
f 49 61 62 50
f 470 494 495 471
f 239 264 263 238
f 675 686 687 676
f 1611 1641 1642 1612
f 1087 1123 1124 1088
f 1160 1195 1196 1161
f 1195 1229 1230 1196
f 764 771 770 763
f 494 518 519 495
f 426 450 451 427
f 274 300 301 275
f 1406 1438 1439 1407
f 959 979 980 960
f 1666 1693 1694 1667
f 1275 1311 1312 1276
f 756 764 763 755
f 502 526 527 503
f 584 607 608 585
f 1573 1604 1605 1574
f 1603 1633 1634 1604
f 671 682 681 670
f 1540 1571 1572 1541
f 1363 1395 1397 1364
f 740 749 750 741
f 1217 1251 1252 1218
f 433 457 458 434
f 1230 1266 1267 1231
f 1354 1388 1389 1355
f 1395 1429 1428 1397
f 1415 1447 1448 1416
f 446 470 471 447
f 520 544 545 521
f 659 671 670 658
f 1222 1258 1259 1223
f 1220 1256 1255 1219
f 1753 1774 1775 1754
f 1331 1365 1366 1332
f 1351 1385 1386 1352
f 1233 1269 1270 1234
f 664 676 677 665
f 1237 1273 1274 1238
f 1190 1224 1225 1191
f 908 936 937 909
f 1368 1401 1402 1369
f 1179 1214 1215 1180
f 47 59 60 48
f 566 590 591 567
f 672 683 684 673
f 1229 1265 1266 1230
f 730 740 741 731
f 1327 1361 1363 1329
f 1524 1555 1557 1526
f 1621 1650 1651 1622
f 1567 1598 1599 1568
f 217 243 244 218
f 241 266 267 242
f 1205 1239 1240 1206
f 1651 1678 1679 1652
f 1681 1706 1707 1682
f 1264 1300 1301 1265
f 1499 1530 1531 1500
f 720 729 728 719
f 1418 1450 1451 1419
f 676 687 688 677
f 1248 1284 1285 1249
f 870 880 881 871
f 1535 1566 1567 1536
f 598 621 622 599
f 752 761 762 753
f 1149 1184 1186 1151
f 1398 1430 1431 1399
f 1601 1631 1632 1602
f 1352 1386 1387 1353
f 1627 1656 1657 1628
f 828 836 837 829
f 1538 1569 1570 1539
f 614 634 635 615
f 707 716 717 708
f 1635 1664 1665 1636
f 1471 1503 1504 1472
f 1690 1715 1716 1691
f 1390 1423 1424 1391
f 916 917 919 918
f 646 662 663 647
f 929 950 949 928
f 1105 1141 1142 1106
f 1294 1327 1329 1295
f 652 668 669 653
f 1572 1603 1604 1573
f 1643 1672 1673 1644
f 884 895 896 886
f 577 601 602 578
f 688 698 699 689
f 1421 1453 1454 1422
f 1682 1707 1708 1683
f 1303 1337 1338 1304
f 1619 1647 1649 1620
f 1663 1690 1691 1664
f 574 598 599 575
f 1161 1196 1197 1162
f 1325 1359 1360 1326
f 1286 1322 1323 1287
f 1295 1329 1330 1296
f 1656 1683 1684 1657
f 1563 1594 1595 1564
f 1607 1637 1638 1608
f 710 719 721 712
f 1705 1730 1731 1706
f 1317 1351 1352 1318
f 1313 1347 1348 1314
f 1271 1307 1308 1272
f 1556 1587 1586 1555
f 1795 1815 1814 1796
f 924 925 927 926
f 734 744 745 735
f 840 846 848 847
f 1309 1343 1344 1310
f 770 777 779 772
f 1242 1278 1279 1243
f 1328 1362 1361 1327
f 1779 1800 1801 1780
f 1335 1369 1370 1336
f 569 593 594 570
f 920 921 923 922
f 1413 1445 1446 1414
f 1683 1708 1709 1684
f 724 733 734 725
f 1755 1776 1777 1756
f 766 773 774 767
f 936 957 958 937
f 715 724 725 716
f 393 417 418 394
f 692 702 701 691
f 1320 1354 1355 1321
f 890 902 903 891
f 956 976 977 957
f 806 811 812 807
f 944 965 966 945
f 747 756 755 746
f 119 139 140 120
f 1463 1495 1496 1464
f 1296 1330 1331 1297
f 108 126 128 127
f 1060 1100 1101 1061
f 814 819 821 816
f 545 569 570 546
f 306 331 332 307
f 1667 1694 1695 1668
f 708 717 718 709
f 1232 1268 1269 1233
f 7 8 10 9
f 72 89 90 73
f 1249 1285 1286 1250
f 137 168 169 138
f 1852 1864 1865 1853
f 1366 1399 1400 1367
f 1367 1400 1401 1368
f 1604 1634 1635 1605
f 1851 1862 1864 1852
f 742 751 752 743
f 1565 1596 1597 1566
f 1358 1392 1393 1359
f 1359 1393 1394 1360
f 1769 1790 1791 1770
f 1739 1761 1762 1740
f 1068 1069 1071 1070
f 1265 1301 1302 1266
f 1016 1046 1047 1017
f 731 741 742 732
f 1334 1368 1369 1335
f 1455 1487 1488 1456
f 1496 1527 1528 1497
f 1451 1483 1484 1452
f 152 153 155 154
f 634 653 654 635
f 473 497 498 474
f 1381 1414 1415 1382
f 1270 1306 1307 1271
f 1407 1439 1440 1408
f 1770 1791 1792 1771
f 987 1023 1024 988
f 1321 1355 1356 1322
f 553 577 578 554
f 1072 1073 1075 1074
f 1373 1406 1407 1374
f 1142 1178 1179 1143
f 748 757 758 749
f 1400 1432 1433 1401
f 172 198 199 173
f 1767 1788 1789 1768
f 1349 1383 1384 1350
f 1056 1096 1097 1057
f 673 684 685 674
f 1250 1286 1287 1251
f 1392 1425 1426 1393
f 268 294 295 269
f 1108 1144 1145 1109
f 934 955 956 935
f 1080 1116 1117 1081
f 338 362 363 339
f 1526 1557 1558 1527
f 1743 1765 1766 1744
f 1488 1520 1521 1489
f 1050 1090 1091 1051
f 272 298 299 273
f 966 986 987 967
f 1713 1738 1739 1714
f 779 785 786 780
f 850 859 858 849
f 732 742 743 733
f 1722 1747 1748 1723
f 332 356 357 333
f 1204 1238 1239 1205
f 974 1010 1011 975
f 478 502 503 479
f 1129 1165 1166 1130
f 1430 1462 1463 1431
f 1431 1463 1464 1432
f 1636 1665 1666 1637
f 308 333 334 309
f 1196 1230 1231 1197
f 1557 1588 1589 1558
f 558 582 583 559
f 148 149 151 150
f 1423 1455 1456 1424
f 1714 1739 1740 1715
f 140 171 172 141
f 1180 1215 1216 1181
f 337 361 362 338
f 1786 1807 1808 1787
f 763 770 772 765
f 1518 1549 1550 1519
f 1399 1431 1432 1400
f 1640 1669 1670 1641
f 452 476 477 453
f 408 432 433 409
f 73 90 91 74
f 81 82 84 83
f 1453 1485 1486 1454
f 802 807 808 803
f 1343 1377 1378 1344
f 1620 1649 1650 1621
f 436 460 462 438
f 352 376 377 353
f 1030 1060 1061 1031
f 1176 1211 1212 1177
f 1445 1477 1478 1446
f 1747 1769 1770 1748
f 796 801 802 797
f 1464 1496 1497 1465
f 428 452 453 429
f 232 258 259 233
f 1200 1234 1235 1201
f 1401 1433 1434 1402
f 1561 1592 1593 1562
f 1456 1488 1489 1457
f 999 1000 1002 1001
f 1775 1796 1797 1776
f 1070 1071 1073 1072
f 1208 1242 1243 1209
f 1549 1580 1581 1550
f 1577 1608 1609 1578
f 1591 1621 1622 1592
f 1432 1464 1465 1433
f 572 596 597 573
f 1255 1293 1292 1257
f 313 338 339 314
f 889 901 902 890
f 811 816 817 812
f 1731 1753 1754 1732
f 772 779 780 773
f 1738 1760 1761 1739
f 556 580 582 558
f 215 241 242 216
f 1062 1102 1103 1063
f 1152 1187 1188 1153
f 851 860 861 852
f 1494 1524 1526 1495
f 1495 1526 1527 1496
f 1668 1695 1696 1669
f 540 564 565 541
f 1661 1688 1689 1662
f 346 370 371 347
f 1272 1308 1309 1273
f 1486 1518 1519 1487
f 1487 1519 1520 1488
f 1785 1806 1807 1786
f 412 436 438 414
f 728 739 740 730
f 1094 1130 1131 1095
f 1280 1316 1317 1281
f 1462 1494 1495 1463
f 1583 1614 1615 1584
f 1632 1661 1662 1633
f 191 215 216 192
f 630 649 650 631
f 1102 1138 1139 1103
f 425 449 450 426
f 827 835 834 826
f 818 823 825 824
f 1298 1332 1333 1299
f 1652 1679 1680 1653
f 1798 1817 1818 1799
f 624 643 642 623
f 681 691 693 683
f 1312 1346 1347 1313
f 1525 1556 1555 1524
f 1787 1808 1809 1788
f 820 827 826 819
f 1528 1559 1560 1529
f 684 694 695 685
f 1336 1370 1371 1337
f 1038 1078 1079 1039
f 1517 1548 1549 1518
f 1353 1387 1388 1354
f 812 817 818 813
f 1520 1551 1552 1521
f 780 786 787 781
f 461 485 484 460
f 910 911 913 912
f 1344 1378 1379 1345
f 1485 1517 1518 1486
f 1662 1689 1690 1663
f 1735 1757 1758 1736
f 1624 1653 1654 1625
f 868 878 879 869
f 1372 1405 1406 1373
f 1174 1209 1210 1175
f 1745 1767 1768 1746
f 1429 1461 1460 1428
f 1763 1784 1785 1764
f 1282 1318 1319 1283
f 1754 1775 1776 1755
f 1670 1697 1698 1671
f 542 566 567 543
f 722 731 732 723
f 1288 1324 1325 1289
f 1301 1335 1336 1302
f 1558 1589 1590 1559
f 1559 1590 1591 1560
f 1716 1741 1742 1717
f 1323 1357 1358 1324
f 1761 1782 1783 1762
f 1037 1076 1078 1038
f 1550 1581 1582 1551
f 1551 1582 1583 1552
f 1746 1768 1769 1747
f 1346 1380 1381 1347
f 984 1020 1021 985
f 1329 1363 1364 1330
f 1416 1448 1449 1417
f 1562 1593 1594 1563
f 1654 1681 1682 1655
f 1527 1558 1559 1528
f 1824 1841 1842 1825
f 660 672 673 661
f 1436 1468 1469 1437
f 1238 1274 1275 1239
f 281 307 308 282
f 1419 1451 1452 1420
f 834 842 841 836
f 1314 1348 1349 1315
f 1692 1717 1718 1693
f 1020 1050 1051 1021
f 1064 1065 1067 1066
f 1246 1282 1283 1247
f 1448 1480 1481 1449
f 1155 1190 1191 1156
f 1827 1844 1845 1828
f 860 868 869 861
f 1004 1032 1034 1033
f 1214 1248 1249 1215
f 1472 1504 1505 1473
f 1677 1701 1703 1678
f 826 834 836 828
f 836 841 843 837
f 1592 1622 1623 1593
f 988 1024 1025 990
f 1008 1038 1039 1009
f 1182 1217 1218 1183
f 1480 1512 1513 1481
f 1281 1317 1318 1282
f 1803 1822 1823 1804
f 1719 1744 1745 1720
f 1584 1615 1616 1585
f 1076 1112 1114 1078
f 864 872 873 865
f 1302 1336 1337 1303
f 913 939 940 915
f 907 935 936 908
f 1811 1830 1831 1812
f 844 852 853 845
f 1560 1591 1592 1561
f 1164 1199 1200 1165
f 1597 1627 1628 1598
f 1310 1344 1345 1311
f 1424 1456 1457 1425
f 1623 1652 1653 1624
f 1140 1176 1177 1141
f 1168 1203 1204 1169
f 609 629 630 610
f 1536 1567 1568 1537
f 1209 1243 1244 1210
f 1622 1651 1652 1623
f 1615 1645 1646 1616
f 1504 1535 1536 1505
f 1124 1160 1161 1125
f 1588 1617 1619 1589
f 1350 1384 1385 1351
f 1544 1575 1576 1545
f 1853 1865 1866 1854
f 1614 1644 1645 1615
f 1711 1736 1737 1712
f 1384 1417 1418 1385
f 972 1008 1009 973
f 1580 1611 1612 1581
f 1374 1407 1408 1375
f 905 933 934 906
f 1522 1553 1554 1523
f 1590 1620 1621 1591
f 1330 1364 1365 1331
f 1120 1156 1157 1121
f 1382 1415 1416 1383
f 1653 1680 1681 1654
f 1534 1565 1566 1535
f 892 904 905 893
f 961 981 982 962
f 1279 1315 1316 1280
f 1564 1595 1596 1565
f 738 747 746 737
f 1576 1607 1608 1577
f 1637 1666 1667 1638
f 1867 1876 1877 1868
f 1322 1356 1357 1323
f 1784 1805 1806 1785
f 260 285 286 261
f 1304 1338 1339 1305
f 1318 1352 1353 1319
f 1600 1630 1631 1601
f 1613 1643 1644 1614
f 1393 1426 1427 1394
f 488 512 513 489
f 1834 1849 1848 1835
f 979 1015 1016 980
f 1240 1276 1277 1241
f 1305 1339 1340 1306
f 1814 1833 1832 1816
f 1697 1722 1723 1698
f 876 887 889 878
f 1680 1705 1706 1681
f 872 882 883 873
f 1136 1172 1173 1137
f 1337 1371 1372 1338
f 1608 1638 1639 1609
f 939 960 961 940
f 938 959 960 939
f 1687 1712 1713 1688
f 157 183 184 159
f 1420 1452 1453 1421
f 1628 1657 1658 1629
f 145 176 177 146
f 1777 1798 1799 1778
f 689 699 700 690
f 1694 1719 1720 1695
f 1679 1704 1705 1680
f 1776 1797 1798 1777
f 1404 1436 1437 1405
f 1440 1472 1473 1441
f 1478 1510 1511 1479
f 1552 1583 1584 1553
f 816 821 822 817
f 1732 1754 1755 1733
f 1502 1533 1534 1503
f 1801 1820 1821 1802
f 1845 1859 1860 1846
f 1686 1711 1712 1687
f 1655 1682 1683 1656
f 1121 1157 1158 1122
f 1244 1280 1281 1245
f 1724 1749 1750 1725
f 1 4 3 2
f 1476 1508 1509 1477
f 923 944 945 925
f 1806 1825 1826 1807
f 1599 1629 1630 1600
f 1780 1801 1802 1781
f 1548 1579 1580 1549
f 1708 1733 1734 1709
f 633 652 653 634
f 881 892 893 882
f 34 35 37 36
f 1479 1511 1512 1480
f 1532 1563 1564 1533
f 1568 1599 1600 1569
f 1454 1486 1487 1455
f 1736 1758 1759 1737
f 1717 1742 1743 1718
f 882 893 894 883
f 841 849 851 843
f 1868 1877 1878 1869
f 1516 1547 1548 1517
f 1512 1543 1544 1513
f 1566 1597 1598 1567
f 1760 1781 1782 1761
f 1709 1734 1735 1710
f 36 37 39 38
f 48 60 61 49
f 1764 1785 1786 1765
f 1596 1626 1627 1597
f 1408 1440 1441 1409
f 1837 1851 1852 1838
f 1768 1789 1790 1769
f 866 876 878 868
f 1426 1458 1459 1427
f 1752 1773 1772 1751
f 1684 1709 1710 1685
f 1144 1180 1181 1145
f 1574 1605 1606 1575
f 795 800 799 794
f 410 434 435 411
f 95 118 119 96
f 1759 1780 1781 1760
f 1744 1766 1767 1745
f 1660 1687 1688 1661
f 114 134 135 115
f 329 353 354 330
f 1704 1729 1730 1705
f 971 1007 1008 972
f 1782 1803 1804 1783
f 1212 1246 1247 1213
f 1606 1636 1637 1607
f 1389 1422 1423 1390
f 402 426 427 403
f 12 19 18 11
f 32 33 35 34
f 1712 1737 1738 1713
f 1644 1673 1674 1645
f 5 6 8 7
f 111 131 132 112
f 1841 1855 1856 1842
f 278 304 305 279
f 1774 1795 1796 1775
f 940 961 962 941
f 1800 1819 1820 1801
f 1500 1531 1532 1501
f 1804 1823 1824 1805
f 1630 1659 1660 1631
f 1766 1787 1788 1767
f 1808 1827 1828 1809
f 544 568 569 545
f 1844 1858 1859 1845
f 1638 1667 1668 1639
f 1826 1843 1844 1827
f 1805 1824 1825 1806
f 1734 1756 1757 1735
f 980 1016 1017 981
f 1816 1832 1834 1817
f 1818 1835 1836 1819
f 985 1021 1022 986
f 1345 1379 1380 1346
f 1825 1842 1843 1826
f 963 983 984 964
f 1688 1713 1714 1689
f 1582 1613 1614 1583
f 322 346 347 323
f 1797 1816 1817 1798
f 898 909 911 910
f 1665 1692 1693 1666
f 1672 1699 1700 1673
f 465 489 490 466
f 21 28 29 22
f 1361 1396 1395 1363
f 441 465 466 442
f 1789 1810 1811 1790
f 68 85 87 70
f 45 57 58 46
f 1710 1735 1736 1711
f 1828 1845 1846 1829
f 1765 1786 1787 1766
f 44 55 57 45
f 200 224 225 201
f 1840 1854 1855 1841
f 1788 1809 1810 1789
f 61 73 74 62
f 87 109 111 88
f 512 536 537 513
f 69 86 85 68
f 1842 1856 1857 1843
f 1369 1402 1403 1370
f 1820 1837 1838 1821
f 1693 1718 1719 1694
f 1864 1872 1874 1865
