# exported by blender_batch_chars_to_s.py fallback
v 0.484676 -0.041015 0.000000
v 0.490718 -0.040569 0.000000
v 0.490458 -0.043816 0.053863
v 0.483755 -0.043943 0.000000
v 0.500005 -0.040495 0.000000
v 0.500024 -0.043801 0.064819
v 0.509372 -0.040571 0.000000
v 0.509892 -0.043826 0.056550
v 0.515970 -0.041035 0.000000
v 0.519055 -0.044085 0.000000
v 0.490425 -0.048452 0.072139
v 0.483584 -0.048468 0.000000
v 0.500027 -0.048451 0.088863
v 0.509992 -0.048454 0.085356
v 0.519869 -0.048502 0.061265
v 0.525926 -0.045570 0.000000
v 0.529053 -0.048896 0.000000
v 0.490423 -0.053282 0.077555
v 0.483566 -0.053283 0.000000
v 0.500027 -0.053282 0.098677
v 0.510001 -0.053282 0.099854
v 0.519990 -0.053286 0.087742
v 0.529866 -0.053344 0.061517
v 0.535921 -0.050411 0.000000
v 0.538990 -0.053739 0.000000
v 0.490423 -0.058125 0.078502
v 0.483566 -0.058124 0.000000
v 0.500027 -0.058125 0.102487
v 0.510001 -0.058125 0.107261
v 0.519999 -0.058125 0.101582
v 0.529969 -0.058129 0.087612
v 0.539573 -0.058179 0.059190
v 0.545341 -0.055235 0.000000
v 0.546665 -0.058451 0.000000
v 0.490425 -0.062966 0.074827
v 0.483584 -0.062941 0.000000
v 0.500028 -0.062969 0.100938
v 0.510001 -0.062969 0.110819
v 0.520000 -0.062969 0.109106
v 0.529996 -0.062969 0.100138
v 0.539915 -0.062987 0.077321
v 0.549106 -0.063218 0.000000
v 0.490469 -0.067776 0.060472
v 0.483757 -0.067509 0.000000
v 0.500031 -0.067811 0.094291
v 0.510001 -0.067812 0.111008
v 0.520000 -0.067813 0.114369
v 0.529999 -0.067813 0.108294
v 0.539971 -0.067815 0.092975
v 0.549582 -0.067851 0.060552
v 0.555359 -0.064893 0.000000
v 0.556666 -0.068137 0.000000
v 0.024672 -0.070078 0.000000
v 0.030662 -0.069640 0.000000
v 0.030451 -0.072879 0.052327
v 0.023755 -0.073005 0.000000
v 0.039432 -0.069642 0.000000
v 0.039918 -0.072889 0.054638
v 0.045969 -0.070098 0.000000
v 0.048989 -0.073146 0.000000
v 0.490882 -0.072428 0.000000
v 0.484698 -0.070736 0.000000
v 0.500082 -0.072640 0.083396
v 0.510004 -0.072656 0.110103
v 0.520000 -0.072656 0.119079
v 0.530000 -0.072656 0.114677
v 0.539996 -0.072657 0.102236
v 0.549915 -0.072674 0.077681
v 0.559102 -0.072905 0.000000
v 0.030424 -0.077515 0.071284
v 0.023583 -0.077531 0.000000
v 0.039995 -0.077516 0.082097
v 0.049522 -0.077554 0.058290
v 0.055282 -0.074611 0.000000
v 0.056242 -0.077806 0.000000
v 0.500368 -0.077499 0.081133
v 0.493105 -0.077480 0.000000
v 0.510025 -0.077500 0.110670
v 0.520001 -0.077500 0.122905
v 0.530000 -0.077500 0.119995
v 0.539999 -0.077500 0.109634
v 0.549969 -0.077502 0.093101
v 0.559531 -0.077538 0.060240
v 0.565301 -0.074578 0.000000
v 0.566245 -0.077803 0.000000
v 0.030422 -0.082344 0.076260
v 0.023567 -0.082344 0.000000
v 0.040000 -0.082344 0.092395
v 0.049575 -0.082347 0.073175
v 0.056416 -0.082370 0.000000
v 0.500368 -0.082345 0.081171
v 0.493105 -0.082364 0.000000
v 0.510025 -0.082344 0.111059
v 0.520001 -0.082344 0.124861
v 0.530000 -0.082344 0.124488
v 0.539999 -0.082344 0.115683
v 0.549973 -0.082344 0.101857
v 0.559578 -0.082346 0.074949
v 0.566455 -0.082373 0.000000
v 0.030425 -0.087184 0.073508
v 0.023584 -0.087159 0.000000
v 0.040000 -0.087187 0.091612
v 0.049575 -0.087185 0.073087
v 0.056416 -0.087161 0.000000
v 0.500082 -0.087203 0.083602
v 0.490882 -0.087415 0.000000
v 0.510004 -0.087188 0.111821
v 0.520000 -0.087188 0.126367
v 0.530000 -0.087187 0.128862
v 0.539999 -0.087187 0.120804
v 0.549975 -0.087188 0.106956
v 0.559629 -0.087189 0.079624
v 0.566856 -0.087210 0.000000
v 0.030478 -0.091977 0.057746
v 0.023758 -0.091725 0.000000
v 0.040000 -0.092013 0.077742
v 0.049522 -0.091977 0.057710
v 0.056242 -0.091725 0.000000
v 0.484698 -0.089108 0.000000
v 0.490469 -0.092068 0.060509
v 0.483755 -0.092335 0.000000
v 0.500031 -0.092033 0.094801
v 0.510001 -0.092031 0.114741
v 0.520000 -0.092031 0.128491
v 0.530000 -0.092031 0.133408
v 0.540000 -0.092031 0.125351
v 0.549996 -0.092032 0.110635
v 0.559918 -0.092047 0.083298
v 0.569116 -0.092259 0.000000
v 0.031004 -0.096383 0.000000
v 0.024717 -0.094920 0.000000
v 0.040000 -0.096616 0.044848
v 0.048996 -0.096383 0.000000
v 0.055283 -0.094920 0.000000
v 0.490422 -0.096877 0.075003
v 0.483545 -0.096904 0.000000
v 0.500027 -0.096875 0.102364
v 0.510001 -0.096875 0.118164
v 0.520000 -0.096875 0.131305
v 0.530000 -0.096875 0.137641
v 0.540000 -0.096875 0.129112
v 0.549999 -0.096875 0.114642
v 0.559969 -0.096877 0.094756
v 0.569531 -0.096912 0.060502
v 0.575302 -0.093952 0.000000
v 0.576243 -0.097178 0.000000
v 0.040000 -0.099804 0.000000
v 0.033948 -0.099420 0.000000
v 0.046052 -0.099420 0.000000
v 0.490371 -0.101720 0.079636
v 0.483144 -0.101741 0.000000
v 0.500025 -0.101719 0.107123
v 0.510001 -0.101719 0.122104
v 0.520000 -0.101719 0.134635
v 0.530000 -0.101719 0.140984
v 0.540000 -0.101719 0.131934
v 0.549999 -0.101719 0.118001
v 0.559972 -0.101719 0.102116
v 0.569575 -0.101721 0.074896
v 0.576416 -0.101747 0.000000
v 0.490082 -0.106578 0.083303
v 0.480880 -0.106790 0.000000
v 0.500004 -0.106563 0.110703
v 0.510000 -0.106563 0.126090
v 0.520000 -0.106562 0.137898
v 0.530000 -0.106562 0.142406
v 0.540000 -0.106562 0.133355
v 0.549999 -0.106563 0.120078
v 0.559973 -0.106562 0.105114
v 0.569577 -0.106562 0.078378
v 0.576433 -0.106562 0.000000
v 0.474640 -0.108485 0.000000
v 0.480417 -0.111444 0.060831
v 0.473334 -0.111730 0.000000
v 0.490028 -0.111408 0.094815
v 0.500001 -0.111406 0.114687
v 0.510000 -0.111406 0.129470
v 0.520000 -0.111406 0.140199
v 0.530000 -0.111406 0.140546
v 0.540000 -0.111406 0.130855
v 0.549999 -0.111406 0.117658
v 0.559972 -0.111406 0.102068
v 0.569575 -0.111404 0.074893
v 0.576416 -0.111378 0.000000
v 0.480085 -0.116268 0.077742
v 0.470898 -0.116499 0.000000
v 0.490004 -0.116251 0.102859
v 0.500000 -0.116250 0.118286
v 0.510000 -0.116250 0.132000
v 0.520000 -0.116250 0.140963
v 0.530000 -0.116250 0.136990
v 0.540000 -0.116250 0.126440
v 0.549999 -0.116250 0.113324
v 0.559969 -0.116248 0.094458
v 0.569531 -0.116213 0.060469
v 0.576243 -0.115947 0.000000
v 0.464699 -0.118172 0.000000
v 0.470469 -0.121131 0.060240
v 0.463755 -0.121397 0.000000
v 0.480031 -0.121096 0.093120
v 0.490001 -0.121094 0.109918
v 0.500000 -0.121094 0.122368
v 0.510000 -0.121094 0.133886
v 0.520000 -0.121094 0.138824
v 0.530000 -0.121094 0.132057
v 0.540000 -0.121094 0.121315
v 0.549996 -0.121093 0.107539
v 0.559917 -0.121078 0.082064
v 0.569115 -0.120865 0.000000
v 0.575302 -0.119173 0.000000
v 0.470422 -0.125940 0.074950
v 0.463545 -0.125967 0.000000
v 0.480027 -0.125938 0.101876
v 0.490001 -0.125938 0.115986
v 0.500000 -0.125938 0.127003
v 0.510000 -0.125938 0.135831
v 0.520000 -0.125938 0.135504
v 0.530000 -0.125938 0.126840
v 0.539999 -0.125938 0.115968
v 0.549975 -0.125937 0.101929
v 0.559626 -0.125934 0.075255
v 0.566838 -0.125888 0.000000
v 0.470371 -0.130783 0.079625
v 0.463144 -0.130804 0.000000
v 0.480025 -0.130781 0.106981
v 0.490001 -0.130781 0.121159
v 0.500000 -0.130781 0.131581
v 0.510000 -0.130781 0.136990
v 0.520000 -0.130781 0.131627
v 0.530000 -0.130781 0.121539
v 0.539999 -0.130781 0.109784
v 0.549969 -0.130779 0.093112
v 0.559534 -0.130744 0.060259
v 0.566282 -0.130477 0.000000
v 0.470083 -0.135641 0.083299
v 0.460884 -0.135853 0.000000
v 0.480004 -0.135626 0.110648
v 0.490000 -0.135625 0.125525
v 0.500000 -0.135625 0.134912
v 0.510000 -0.135625 0.135097
v 0.520000 -0.135625 0.126772
v 0.530000 -0.135625 0.116000
v 0.539996 -0.135624 0.102364
v 0.549915 -0.135607 0.077688
v 0.559102 -0.135376 0.000000
v 0.565304 -0.133703 0.000000
v 0.454698 -0.137546 0.000000
v 0.460469 -0.140506 0.060507
v 0.453755 -0.140772 0.000000
v 0.470031 -0.140471 0.094771
v 0.480001 -0.140469 0.114609
v 0.490000 -0.140469 0.128683
v 0.500000 -0.140469 0.136199
v 0.510000 -0.140469 0.131499
v 0.520000 -0.140469 0.121528
v 0.529999 -0.140469 0.109786
v 0.539971 -0.140467 0.093149
v 0.549582 -0.140430 0.060564
v 0.556666 -0.140145 0.000000
v 0.460422 -0.145315 0.075003
v 0.453545 -0.145342 0.000000
v 0.470027 -0.145313 0.102348
v 0.480001 -0.145313 0.117947
v 0.490000 -0.145313 0.129872
v 0.500000 -0.145313 0.133590
v 0.510000 -0.145313 0.126548
v 0.520000 -0.145312 0.115983
v 0.529996 -0.145312 0.102364
v 0.539915 -0.145295 0.077690
v 0.549106 -0.145064 0.000000
v 0.555359 -0.143389 0.000000
v 0.460371 -0.150158 0.079634
v 0.453141 -0.150179 0.000000
v 0.470025 -0.150156 0.107055
v 0.480001 -0.150156 0.121313
v 0.490000 -0.150156 0.130055
v 0.500000 -0.150156 0.129115
v 0.510000 -0.150156 0.121072
v 0.519999 -0.150156 0.109738
v 0.529971 -0.150154 0.093146
v 0.539582 -0.150117 0.060564
v 0.546666 -0.149832 0.000000
v 0.460079 -0.155016 0.083315
v 0.450817 -0.155229 0.000000
v 0.470004 -0.155001 0.110449
v 0.480000 -0.155000 0.123886
v 0.490000 -0.155000 0.128185
v 0.500000 -0.155000 0.123614
v 0.510000 -0.155000 0.115281
v 0.519996 -0.154999 0.102279
v 0.529915 -0.154982 0.077684
v 0.539106 -0.154751 0.000000
v 0.545359 -0.153076 0.000000
v 0.444059 -0.156942 0.000000
v 0.450124 -0.159891 0.063164
v 0.441013 -0.160300 0.000000
v 0.460007 -0.159846 0.095105
v 0.470000 -0.159844 0.114179
v 0.480000 -0.159844 0.125382
v 0.490000 -0.159844 0.124788
v 0.500000 -0.159844 0.117502
v 0.509999 -0.159844 0.108668
v 0.519971 -0.159842 0.092999
v 0.529582 -0.159805 0.060553
v 0.536666 -0.159520 0.000000
v 0.434718 -0.161796 0.000000
v 0.440479 -0.164740 0.058901
v 0.433758 -0.164993 0.000000
v 0.450033 -0.164691 0.088010
v 0.460001 -0.164688 0.104489
v 0.470000 -0.164687 0.117541
v 0.480000 -0.164687 0.125938
v 0.490000 -0.164687 0.121057
v 0.500000 -0.164687 0.111272
v 0.509996 -0.164687 0.100378
v 0.519915 -0.164669 0.077335
v 0.529106 -0.164439 0.000000
v 0.535359 -0.162764 0.000000
v 0.440426 -0.169534 0.074575
v 0.433582 -0.169559 0.000000
v 0.450028 -0.169531 0.099884
v 0.460001 -0.169531 0.111207
v 0.470000 -0.169531 0.120898
v 0.480000 -0.169531 0.125418
v 0.490000 -0.169531 0.117307
v 0.499999 -0.169531 0.104452
v 0.509970 -0.169527 0.088047
v 0.519573 -0.169477 0.059225
v 0.526665 -0.169205 0.000000
v 0.440420 -0.174375 0.079170
v 0.433527 -0.174377 0.000000
v 0.450027 -0.174375 0.105802
v 0.460001 -0.174375 0.117017
v 0.470000 -0.174375 0.124040
v 0.480000 -0.174375 0.123333
v 0.490000 -0.174375 0.112980
v 0.499993 -0.174373 0.094816
v 0.509876 -0.174328 0.063133
v 0.518991 -0.173919 0.000000
v 0.525341 -0.172421 0.000000
v 0.440371 -0.179220 0.080779
v 0.433140 -0.179240 0.000000
v 0.450025 -0.179219 0.109365
v 0.460001 -0.179219 0.122078
v 0.470000 -0.179219 0.126708
v 0.480000 -0.179219 0.120634
v 0.489996 -0.179218 0.107517
v 0.499921 -0.179203 0.082096
v 0.509182 -0.178989 0.000000
v 0.515941 -0.177277 0.000000
v 0.440079 -0.184078 0.083581
v 0.430813 -0.184291 0.000000
v 0.450004 -0.184063 0.111456
v 0.460000 -0.184063 0.125214
v 0.470000 -0.184062 0.127381
v 0.479999 -0.184062 0.117578
v 0.489975 -0.184062 0.102372
v 0.499627 -0.184059 0.075308
v 0.506841 -0.184013 0.000000
v 0.423992 -0.185995 0.000000
v 0.430090 -0.188949 0.063571
v 0.420515 -0.189307 0.000000
v 0.440006 -0.188908 0.095168
v 0.450000 -0.188906 0.114483
v 0.460000 -0.188906 0.126511
v 0.470000 -0.188906 0.126593
v 0.479999 -0.188906 0.114490
v 0.489969 -0.188904 0.094787
v 0.499536 -0.188869 0.060532
v 0.506282 -0.188602 0.000000
v 0.404039 -0.191163 0.000000
v 0.410674 -0.190520 0.000000
v 0.410115 -0.193957 0.057266
v 0.401008 -0.194238 0.000000
v 0.420038 -0.193790 0.071647
v 0.430005 -0.193753 0.089894
v 0.440000 -0.193750 0.104640
v 0.450000 -0.193750 0.117725
v 0.460000 -0.193750 0.127381
v 0.470000 -0.193750 0.125760
v 0.479996 -0.193749 0.111705
v 0.489920 -0.193734 0.083610
v 0.499145 -0.193523 0.000000
v 0.505307 -0.191829 0.000000
v 0.394659 -0.195706 0.000000
v 0.400427 -0.198649 0.058926
v 0.393335 -0.198920 0.000000
v 0.410030 -0.198608 0.085550
v 0.420002 -0.198596 0.094270
v 0.430000 -0.198594 0.102873
v 0.440000 -0.198594 0.111402
v 0.450000 -0.198594 0.120830
v 0.460000 -0.198594 0.126665
v 0.469999 -0.198594 0.123883
v 0.479978 -0.198594 0.110628
v 0.489681 -0.198594 0.081403
v 0.497281 -0.198594 0.000000
v 0.400085 -0.203456 0.077162
v 0.390894 -0.203687 0.000000
v 0.410004 -0.203439 0.098931
v 0.420000 -0.203438 0.105233
v 0.430000 -0.203438 0.110778
v 0.440000 -0.203438 0.117245
v 0.450000 -0.203438 0.122897
v 0.460000 -0.203438 0.123099
v 0.470000 -0.203438 0.119304
v 0.479996 -0.203438 0.109334
v 0.489924 -0.203453 0.083237
v 0.499212 -0.203666 0.000000
v 0.384641 -0.205361 0.000000
v 0.390418 -0.208320 0.060545
v 0.383334 -0.208605 0.000000
v 0.400028 -0.208283 0.092874
v 0.410001 -0.208281 0.107623
v 0.420000 -0.208281 0.113125
v 0.430000 -0.208281 0.117415
v 0.440000 -0.208281 0.121873
v 0.450000 -0.208281 0.122733
v 0.460000 -0.208281 0.117965
v 0.470000 -0.208281 0.113444
v 0.480000 -0.208281 0.108203
v 0.489993 -0.208284 0.093569
v 0.499880 -0.208329 0.062982
v 0.505948 -0.205379 0.000000
v 0.509054 -0.208738 0.000000
v 0.390085 -0.213143 0.077676
v 0.380898 -0.213374 0.000000
v 0.400004 -0.213126 0.102174
v 0.410000 -0.213125 0.114386
v 0.420000 -0.213125 0.119823
v 0.430000 -0.213125 0.122250
v 0.440000 -0.213125 0.123468
v 0.450000 -0.213125 0.119820
v 0.460000 -0.213125 0.111784
v 0.470000 -0.213125 0.105968
v 0.480000 -0.213125 0.103458
v 0.490000 -0.213125 0.098689
v 0.499991 -0.213129 0.087050
v 0.509869 -0.213188 0.061427
v 0.515926 -0.210255 0.000000
v 0.519056 -0.213583 0.000000
v 0.374699 -0.215047 0.000000
v 0.380469 -0.218006 0.060239
v 0.373757 -0.218272 0.000000
v 0.390031 -0.217971 0.093098
v 0.400001 -0.217969 0.109593
v 0.410000 -0.217969 0.119814
v 0.420000 -0.217969 0.123861
v 0.430000 -0.217969 0.122351
v 0.440000 -0.217969 0.119790
v 0.450000 -0.217969 0.114561
v 0.460000 -0.217969 0.104725
v 0.469999 -0.217968 0.095467
v 0.480000 -0.217958 0.093139
v 0.490001 -0.217968 0.093683
v 0.500000 -0.217969 0.096117
v 0.509991 -0.217973 0.086843
v 0.519900 -0.218028 0.061802
v 0.525988 -0.215089 0.000000
v 0.529484 -0.218371 0.000000
v 0.380425 -0.222815 0.074929
v 0.373583 -0.222841 0.000000
v 0.390027 -0.222813 0.101845
v 0.400001 -0.222813 0.115551
v 0.410000 -0.222813 0.123670
v 0.420000 -0.222813 0.123540
v 0.430000 -0.222813 0.117928
v 0.440000 -0.222813 0.113196
v 0.450000 -0.222812 0.107770
v 0.459997 -0.222811 0.094844
v 0.469977 -0.222791 0.074658
v 0.480000 -0.222661 0.069975
v 0.490023 -0.222791 0.074295
v 0.500003 -0.222811 0.092279
v 0.510000 -0.222813 0.097294
v 0.519995 -0.222816 0.088617
v 0.529962 -0.222852 0.071508
v 0.539326 -0.219583 0.000000
v 0.539888 -0.223019 0.057285
v 0.545966 -0.220226 0.000000
v 0.549055 -0.223302 0.000000
v 0.380423 -0.227656 0.079296
v 0.373566 -0.227658 0.000000
v 0.390027 -0.227656 0.106847
v 0.400001 -0.227656 0.120257
v 0.410000 -0.227656 0.126138
v 0.420000 -0.227656 0.120951
v 0.430000 -0.227656 0.111903
v 0.440000 -0.227656 0.105386
v 0.449997 -0.227655 0.098963
v 0.459951 -0.227643 0.077593
v 0.469644 -0.227484 0.000000
v 0.480000 -0.226381 0.000000
v 0.490356 -0.227484 0.000000
v 0.500049 -0.227643 0.077153
v 0.510003 -0.227656 0.096760
v 0.520000 -0.227656 0.099006
v 0.529999 -0.227658 0.093496
v 0.539991 -0.227671 0.085771
v 0.549866 -0.227721 0.061256
v 0.555921 -0.224788 0.000000
v 0.558986 -0.228114 0.000000
v 0.380423 -0.232500 0.080521
v 0.373563 -0.232500 0.000000
v 0.390027 -0.232500 0.109777
v 0.400001 -0.232500 0.123347
v 0.410000 -0.232500 0.126178
v 0.420000 -0.232500 0.117449
v 0.430000 -0.232500 0.105258
v 0.439998 -0.232499 0.094673
v 0.449970 -0.232485 0.085584
v 0.459576 -0.232445 0.058959
v 0.466712 -0.232181 0.000000
v 0.500424 -0.232446 0.059141
v 0.493288 -0.232181 0.000000
v 0.510031 -0.232496 0.086947
v 0.520001 -0.232500 0.098798
v 0.530000 -0.232500 0.101498
v 0.539999 -0.232501 0.099801
v 0.549966 -0.232504 0.087331
v 0.559525 -0.232553 0.058869
v 0.565285 -0.229609 0.000000
v 0.566281 -0.232807 0.000000
v 0.380419 -0.237344 0.080808
v 0.373526 -0.237345 0.000000
v 0.390027 -0.237344 0.110766
v 0.400001 -0.237344 0.124233
v 0.410000 -0.237344 0.123664
v 0.420000 -0.237344 0.113157
v 0.429997 -0.237343 0.096339
v 0.439971 -0.237320 0.073214
v 0.449886 -0.237138 0.057440
v 0.458992 -0.236856 0.000000
v 0.465344 -0.235388 0.000000
v 0.501010 -0.236886 0.000000
v 0.494656 -0.235390 0.000000
v 0.510134 -0.237281 0.061474
v 0.520009 -0.237340 0.087649
v 0.530000 -0.237344 0.100809
v 0.539999 -0.237344 0.105249
v 0.549975 -0.237344 0.098928
v 0.559626 -0.237348 0.074804
v 0.566841 -0.237393 0.000000
v 0.380371 -0.242189 0.081123
v 0.373143 -0.242209 0.000000
v 0.390025 -0.242188 0.110756
v 0.400001 -0.242188 0.123190
v 0.410000 -0.242188 0.119812
v 0.419997 -0.242187 0.107420
v 0.429952 -0.242176 0.082460
v 0.439612 -0.242013 0.000000
v 0.449339 -0.240595 0.000000
v 0.455962 -0.239932 0.000000
v 0.510946 -0.241730 0.000000
v 0.504079 -0.240214 0.000000
v 0.520121 -0.242139 0.062829
v 0.530007 -0.242185 0.092609
v 0.540000 -0.242187 0.104920
v 0.549996 -0.242188 0.103155
v 0.559921 -0.242203 0.081438
v 0.569182 -0.242418 0.000000
v 0.380083 -0.247047 0.083468
v 0.370884 -0.247259 0.000000
v 0.390004 -0.247032 0.110608
v 0.400000 -0.247031 0.120513
v 0.409999 -0.247031 0.115122
v 0.419975 -0.247031 0.101869
v 0.429629 -0.247028 0.075284
v 0.436883 -0.246988 0.000000
v 0.520831 -0.246781 0.000000
v 0.514055 -0.245088 0.000000
v 0.530082 -0.247013 0.077239
v 0.540004 -0.247031 0.099174
v 0.550000 -0.247031 0.103873
v 0.559993 -0.247034 0.092867
v 0.569876 -0.247079 0.062906
v 0.575941 -0.244129 0.000000
v 0.578991 -0.247487 0.000000
v 0.364698 -0.248952 0.000000
v 0.370469 -0.251912 0.060490
v 0.363755 -0.252178 0.000000
v 0.380031 -0.251877 0.094499
v 0.390001 -0.251875 0.112164
v 0.400000 -0.251875 0.117029
v 0.409999 -0.251875 0.109237
v 0.419969 -0.251873 0.093076
v 0.429534 -0.251837 0.060259
v 0.436284 -0.251571 0.000000
v 0.530427 -0.251821 0.059172
v 0.523332 -0.251549 0.000000
v 0.540031 -0.251871 0.087347
v 0.550001 -0.251875 0.099595
v 0.559999 -0.251875 0.099469
v 0.569970 -0.251879 0.087266
v 0.579573 -0.251929 0.059159
v 0.585341 -0.248985 0.000000
v 0.586665 -0.252201 0.000000
v 0.370422 -0.256721 0.074967
v 0.363545 -0.256748 0.000000
v 0.380027 -0.256719 0.101817
v 0.390001 -0.256719 0.113773
v 0.400000 -0.256719 0.113307
v 0.409996 -0.256718 0.102061
v 0.419915 -0.256701 0.077669
v 0.429102 -0.256470 0.000000
v 0.435304 -0.254797 0.000000
v 0.531010 -0.256261 0.000000
v 0.524659 -0.254765 0.000000
v 0.540134 -0.256656 0.061499
v 0.550009 -0.256715 0.087587
v 0.560000 -0.256719 0.099286
v 0.569996 -0.256719 0.097776
v 0.579915 -0.256737 0.077021
v 0.589106 -0.256968 0.000000
v 0.370371 -0.261564 0.079538
v 0.363144 -0.261585 0.000000
v 0.380025 -0.261563 0.105937
v 0.390001 -0.261562 0.114435
v 0.399999 -0.261562 0.108709
v 0.409971 -0.261560 0.093060
v 0.419582 -0.261523 0.060560
v 0.426666 -0.261238 0.000000
v 0.540946 -0.261105 0.000000
v 0.534079 -0.259589 0.000000
v 0.550121 -0.261514 0.062785
v 0.560007 -0.261560 0.092042
v 0.569999 -0.261562 0.101546
v 0.579971 -0.261565 0.091832
v 0.589582 -0.261602 0.060449
v 0.595359 -0.258643 0.000000
v 0.596666 -0.261887 0.000000
v 0.370082 -0.266422 0.082966
v 0.360880 -0.266634 0.000000
v 0.380004 -0.266407 0.107736
v 0.390000 -0.266406 0.111949
v 0.399996 -0.266406 0.101888
v 0.409915 -0.266388 0.077659
v 0.419106 -0.266157 0.000000
v 0.425359 -0.264482 0.000000
v 0.550831 -0.266156 0.000000
v 0.544056 -0.264463 0.000000
v 0.560081 -0.266388 0.077240
v 0.570004 -0.266406 0.098551
v 0.579996 -0.266407 0.098551
v 0.589915 -0.266424 0.077212
v 0.599106 -0.266655 0.000000
v 0.354640 -0.268328 0.000000
v 0.360417 -0.271288 0.060783
v 0.353334 -0.271574 0.000000
v 0.370028 -0.271252 0.094123
v 0.380001 -0.271250 0.109306
v 0.389999 -0.271250 0.107496
v 0.399971 -0.271248 0.092906
v 0.409582 -0.271211 0.060549
v 0.416666 -0.270926 0.000000
v 0.560418 -0.271211 0.060450
v 0.553330 -0.270926 0.000000
v 0.570029 -0.271248 0.091832
v 0.580000 -0.271250 0.101526
v 0.589971 -0.271252 0.091710
v 0.599583 -0.271289 0.060421
v 0.605359 -0.268330 0.000000
v 0.606670 -0.271574 0.000000
v 0.360085 -0.276112 0.077617
v 0.350894 -0.276343 0.000000
v 0.370004 -0.276094 0.101411
v 0.380000 -0.276094 0.109304
v 0.389996 -0.276093 0.101391
v 0.399915 -0.276076 0.077612
v 0.409106 -0.275845 0.000000
v 0.415359 -0.274170 0.000000
v 0.560894 -0.275845 0.000000
v 0.554641 -0.274170 0.000000
v 0.570085 -0.276075 0.077013
v 0.580004 -0.276093 0.097616
v 0.589996 -0.276094 0.097492
v 0.599918 -0.276112 0.076957
v 0.609169 -0.276344 0.000000
v 0.344641 -0.278018 0.000000
v 0.350418 -0.280976 0.060536
v 0.343334 -0.281262 0.000000
v 0.360029 -0.280940 0.092726
v 0.370001 -0.280938 0.106360
v 0.379999 -0.280937 0.106434
v 0.389971 -0.280935 0.092747
v 0.399582 -0.280899 0.060538
v 0.406666 -0.280613 0.000000
v 0.570427 -0.280883 0.059130
v 0.563335 -0.280611 0.000000
v 0.580031 -0.280933 0.086912
v 0.590001 -0.280937 0.097153
v 0.599993 -0.280940 0.090732
v 0.609879 -0.280986 0.062593
v 0.615945 -0.278037 0.000000
v 0.619054 -0.281395 0.000000
v 0.350085 -0.285799 0.077586
v 0.340894 -0.286030 0.000000
v 0.360004 -0.285782 0.101165
v 0.370000 -0.285781 0.108569
v 0.379996 -0.285781 0.101172
v 0.389915 -0.285763 0.077587
v 0.399106 -0.285532 0.000000
v 0.405359 -0.283857 0.000000
v 0.571010 -0.285324 0.000000
v 0.564659 -0.283827 0.000000
v 0.580134 -0.285718 0.061427
v 0.590009 -0.285777 0.086964
v 0.600000 -0.285781 0.096040
v 0.609991 -0.285785 0.086964
v 0.619866 -0.285844 0.061427
v 0.625921 -0.282911 0.000000
v 0.628990 -0.286239 0.000000
v 0.334641 -0.287705 0.000000
v 0.340418 -0.290664 0.060536
v 0.333334 -0.290949 0.000000
v 0.350028 -0.290627 0.092724
v 0.360001 -0.290625 0.106336
v 0.369999 -0.290625 0.106336
v 0.379972 -0.290623 0.092725
v 0.389582 -0.290586 0.060536
v 0.396666 -0.290301 0.000000
v 0.580946 -0.290168 0.000000
v 0.574079 -0.288652 0.000000
v 0.590121 -0.290577 0.062593
v 0.600007 -0.290623 0.090732
v 0.609999 -0.290625 0.097153
v 0.619969 -0.290629 0.086912
v 0.629573 -0.290679 0.059130
v 0.635341 -0.287735 0.000000
v 0.636668 -0.290951 0.000000
v 0.340085 -0.295487 0.077585
v 0.330898 -0.295718 0.000000
v 0.350004 -0.295469 0.101165
v 0.360000 -0.295469 0.108568
v 0.369996 -0.295468 0.101165
v 0.379915 -0.295451 0.077586
v 0.389106 -0.295220 0.000000
v 0.395359 -0.293545 0.000000
v 0.590831 -0.295219 0.000000
v 0.584056 -0.293525 0.000000
v 0.600082 -0.295451 0.076957
v 0.610004 -0.295468 0.097492
v 0.619996 -0.295469 0.097617
v 0.629918 -0.295487 0.077041
v 0.639169 -0.295719 0.000000
v 0.324696 -0.297391 0.000000
v 0.330466 -0.300350 0.060232
v 0.323718 -0.300617 0.000000
v 0.340031 -0.300315 0.092687
v 0.350001 -0.300313 0.106334
v 0.359999 -0.300312 0.106336
v 0.369972 -0.300310 0.092724
v 0.379582 -0.300273 0.060536
v 0.386666 -0.299988 0.000000
v 0.600417 -0.300274 0.060421
v 0.593330 -0.299988 0.000000
v 0.610029 -0.300310 0.091711
v 0.620001 -0.300313 0.101545
v 0.629993 -0.300315 0.092158
v 0.639879 -0.300361 0.062813
v 0.645944 -0.297412 0.000000
v 0.649054 -0.300770 0.000000
v 0.330373 -0.305160 0.075153
v 0.323159 -0.305205 0.000000
v 0.340025 -0.305156 0.100735
v 0.350001 -0.305156 0.108531
v 0.359996 -0.305156 0.101163
v 0.369915 -0.305138 0.077586
v 0.379106 -0.304907 0.000000
v 0.385359 -0.303232 0.000000
v 0.600894 -0.304907 0.000000
v 0.594641 -0.303232 0.000000
v 0.610085 -0.305138 0.077218
v 0.620004 -0.305156 0.098694
v 0.630000 -0.305156 0.100265
v 0.639991 -0.305160 0.087837
v 0.649866 -0.305219 0.061526
v 0.655921 -0.302286 0.000000
v 0.658990 -0.305614 0.000000
v 0.330079 -0.310016 0.081687
v 0.320818 -0.310230 0.000000
v 0.340004 -0.310001 0.104165
v 0.349999 -0.310000 0.106086
v 0.359972 -0.309998 0.092707
v 0.369582 -0.309961 0.060535
v 0.376666 -0.309676 0.000000
v 0.610418 -0.309961 0.060459
v 0.603334 -0.309676 0.000000
v 0.620029 -0.309998 0.091996
v 0.630001 -0.310000 0.103092
v 0.639999 -0.310000 0.100496
v 0.649969 -0.310004 0.087451
v 0.659573 -0.310054 0.059179
v 0.665341 -0.307110 0.000000
v 0.666668 -0.310326 0.000000
v 0.314059 -0.311942 0.000000
v 0.320124 -0.314891 0.063049
v 0.311009 -0.315300 0.000000
v 0.330007 -0.314846 0.093806
v 0.340000 -0.314844 0.106459
v 0.349996 -0.314843 0.100777
v 0.359915 -0.314826 0.077542
v 0.369106 -0.314595 0.000000
v 0.375359 -0.312920 0.000000
v 0.610894 -0.314595 0.000000
v 0.604641 -0.312920 0.000000
v 0.620085 -0.314825 0.077171
v 0.630004 -0.314843 0.098948
v 0.640000 -0.314844 0.104271
v 0.649996 -0.314844 0.098949
v 0.659918 -0.314862 0.077199
v 0.669169 -0.315094 0.000000
v 0.304659 -0.316798 0.000000
v 0.310427 -0.319741 0.059205
v 0.303335 -0.320014 0.000000
v 0.320030 -0.319691 0.087736
v 0.330001 -0.319688 0.101792
v 0.339999 -0.319687 0.104845
v 0.349972 -0.319685 0.092487
v 0.359582 -0.319649 0.060516
v 0.366666 -0.319363 0.000000
v 0.620427 -0.319633 0.059178
v 0.613335 -0.319361 0.000000
v 0.630031 -0.319683 0.087451
v 0.640001 -0.319687 0.100497
v 0.650000 -0.319688 0.103116
v 0.659993 -0.319690 0.092338
v 0.669879 -0.319736 0.062826
v 0.675944 -0.316787 0.000000
v 0.679054 -0.320145 0.000000
v 0.310085 -0.324550 0.077261
v 0.300894 -0.324780 0.000000
v 0.320004 -0.324532 0.099490
v 0.330000 -0.324531 0.105519
v 0.339996 -0.324531 0.100121
v 0.349915 -0.324513 0.077432
v 0.359106 -0.324282 0.000000
v 0.365359 -0.322607 0.000000
v 0.621010 -0.324074 0.000000
v 0.614659 -0.322577 0.000000
v 0.630134 -0.324468 0.061527
v 0.640009 -0.324527 0.087853
v 0.650000 -0.324531 0.100491
v 0.660000 -0.324531 0.100618
v 0.669991 -0.324535 0.087909
v 0.679866 -0.324594 0.061533
v 0.685921 -0.321661 0.000000
v 0.688986 -0.324989 0.000000
v 0.294641 -0.326455 0.000000
v 0.300418 -0.329414 0.060533
v 0.293334 -0.329699 0.000000
v 0.310028 -0.329377 0.092678
v 0.320001 -0.329375 0.106001
v 0.329999 -0.329375 0.105451
v 0.339971 -0.329373 0.092461
v 0.349582 -0.329336 0.060505
v 0.356666 -0.329051 0.000000
v 0.630946 -0.328918 0.000000
v 0.624079 -0.327402 0.000000
v 0.640121 -0.329328 0.062989
v 0.650007 -0.329373 0.093207
v 0.660000 -0.329375 0.104707
v 0.669999 -0.329375 0.101175
v 0.679967 -0.329379 0.087539
v 0.689525 -0.329428 0.058885
v 0.695285 -0.326484 0.000000
v 0.696283 -0.329681 0.000000
v 0.300085 -0.334237 0.077586
v 0.290894 -0.334468 0.000000
v 0.310004 -0.334219 0.101162
v 0.320000 -0.334219 0.108533
v 0.329996 -0.334218 0.101038
v 0.339915 -0.334201 0.077557
v 0.349106 -0.333970 0.000000
v 0.355359 -0.332295 0.000000
v 0.640817 -0.333990 0.000000
v 0.634054 -0.332277 0.000000
v 0.650079 -0.334203 0.082602
v 0.660004 -0.334218 0.105735
v 0.669999 -0.334219 0.107910
v 0.679975 -0.334219 0.099535
v 0.689629 -0.334223 0.074904
v 0.696883 -0.334262 0.000000
v 0.284641 -0.336143 0.000000
v 0.290418 -0.339101 0.060536
v 0.283334 -0.339387 0.000000
v 0.300029 -0.339065 0.092724
v 0.310001 -0.339063 0.106336
v 0.319999 -0.339062 0.106334
v 0.329971 -0.339060 0.092714
v 0.339582 -0.339024 0.060534
v 0.346666 -0.338738 0.000000
v 0.650371 -0.339061 0.079353
v 0.643141 -0.339040 0.000000
v 0.660025 -0.339062 0.104656
v 0.670001 -0.339063 0.110751
v 0.679997 -0.339063 0.105171
v 0.689952 -0.339074 0.082182
v 0.699612 -0.339237 0.000000
v 0.290085 -0.343924 0.077586
v 0.280894 -0.344155 0.000000
v 0.300004 -0.343907 0.101165
v 0.310000 -0.343906 0.108568
v 0.319996 -0.343906 0.101165
v 0.329915 -0.343888 0.077586
v 0.339106 -0.343657 0.000000
v 0.345359 -0.341982 0.000000
v 0.650422 -0.343903 0.074570
v 0.643545 -0.343877 0.000000
v 0.660028 -0.343906 0.099509
v 0.670001 -0.343906 0.108196
v 0.680000 -0.343906 0.108108
v 0.689997 -0.343907 0.095507
v 0.699971 -0.343930 0.073143
v 0.709339 -0.340655 0.000000
v 0.709889 -0.344112 0.057465
v 0.715967 -0.341318 0.000000
v 0.719055 -0.344395 0.000000
v 0.274641 -0.345830 0.000000
v 0.280418 -0.348789 0.060536
v 0.273334 -0.349074 0.000000
v 0.290029 -0.348752 0.092724
v 0.300001 -0.348750 0.106336
v 0.309999 -0.348750 0.106336
v 0.319972 -0.348748 0.092724
v 0.329582 -0.348711 0.060536
v 0.336666 -0.348426 0.000000
v 0.650479 -0.348697 0.058865
v 0.643756 -0.348444 0.000000
v 0.660034 -0.348746 0.087552
v 0.670001 -0.348750 0.101382
v 0.680000 -0.348750 0.106488
v 0.690000 -0.348750 0.102759
v 0.699999 -0.348751 0.094386
v 0.709991 -0.348765 0.085890
v 0.719869 -0.348815 0.061294
v 0.725926 -0.345882 0.000000
v 0.729053 -0.349209 0.000000
v 0.280085 -0.353612 0.077585
v 0.270898 -0.353843 0.000000
v 0.290004 -0.353594 0.101165
v 0.300000 -0.353594 0.108568
v 0.309996 -0.353593 0.101165
v 0.319915 -0.353576 0.077586
v 0.329106 -0.353345 0.000000
v 0.335359 -0.351670 0.000000
v 0.651014 -0.353136 0.000000
v 0.644718 -0.351641 0.000000
v 0.660134 -0.353531 0.061544
v 0.670009 -0.353590 0.088068
v 0.680000 -0.353594 0.101892
v 0.690000 -0.353594 0.106327
v 0.700000 -0.353594 0.104575
v 0.710000 -0.353594 0.100566
v 0.719990 -0.353598 0.087793
v 0.729869 -0.353657 0.061546
v 0.735926 -0.350723 0.000000
v 0.739053 -0.354053 0.000000
v 0.264699 -0.355516 0.000000
v 0.270469 -0.358475 0.060212
v 0.263755 -0.358741 0.000000
v 0.280031 -0.358440 0.092685
v 0.290001 -0.358438 0.106334
v 0.299999 -0.358438 0.106336
v 0.309972 -0.358435 0.092724
v 0.319582 -0.358398 0.060536
v 0.326666 -0.358113 0.000000
v 0.660946 -0.357980 0.000000
v 0.654079 -0.356464 0.000000
v 0.670121 -0.358389 0.062874
v 0.680007 -0.358435 0.092866
v 0.690000 -0.358437 0.106190
v 0.700000 -0.358438 0.110212
v 0.710000 -0.358438 0.108733
v 0.720000 -0.358438 0.101768
v 0.729990 -0.358442 0.087949
v 0.739866 -0.358501 0.061529
v 0.745921 -0.355567 0.000000
v 0.748990 -0.358895 0.000000
v 0.270422 -0.363284 0.074849
v 0.263545 -0.363310 0.000000
v 0.280027 -0.363281 0.100692
v 0.290001 -0.363281 0.108527
v 0.299996 -0.363281 0.101163
v 0.309915 -0.363263 0.077586
v 0.319106 -0.363032 0.000000
v 0.325359 -0.361357 0.000000
v 0.670831 -0.363031 0.000000
v 0.664056 -0.361338 0.000000
v 0.680081 -0.363263 0.077621
v 0.690004 -0.363281 0.101506
v 0.700000 -0.363281 0.111807
v 0.710000 -0.363281 0.114077
v 0.720000 -0.363281 0.109784
v 0.729999 -0.363281 0.101885
v 0.739969 -0.363286 0.087632
v 0.749573 -0.363335 0.059191
v 0.755341 -0.360391 0.000000
v 0.756668 -0.363608 0.000000
v 0.270371 -0.368126 0.079253
v 0.263141 -0.368147 0.000000
v 0.280025 -0.368125 0.103759
v 0.290000 -0.368125 0.106049
v 0.299972 -0.368123 0.092704
v 0.309582 -0.368086 0.060535
v 0.316666 -0.367801 0.000000
v 0.680417 -0.368086 0.060556
v 0.673330 -0.367801 0.000000
v 0.690028 -0.368123 0.093019
v 0.700001 -0.368125 0.108703
v 0.710000 -0.368125 0.116135
v 0.720000 -0.368125 0.115441
v 0.730000 -0.368125 0.109869
v 0.739996 -0.368126 0.100207
v 0.749918 -0.368144 0.077352
v 0.759169 -0.368375 0.000000
v 0.270079 -0.372985 0.082611
v 0.260817 -0.373198 0.000000
v 0.280004 -0.372969 0.104861
v 0.289996 -0.372968 0.100718
v 0.299915 -0.372951 0.077545
v 0.309106 -0.372720 0.000000
v 0.315359 -0.371045 0.000000
v 0.680894 -0.372720 0.000000
v 0.674641 -0.371045 0.000000
v 0.690085 -0.372951 0.077674
v 0.700004 -0.372968 0.102123
v 0.710000 -0.372969 0.114043
v 0.720000 -0.372969 0.118205
v 0.730000 -0.372969 0.115800
v 0.740000 -0.372969 0.108476
v 0.749993 -0.372971 0.093313
v 0.759879 -0.373017 0.062918
v 0.765945 -0.370068 0.000000
v 0.769057 -0.373425 0.000000
v 0.254054 -0.374911 0.000000
v 0.260121 -0.377860 0.063090
v 0.250946 -0.378270 0.000000
v 0.270007 -0.377815 0.093822
v 0.279999 -0.377813 0.105476
v 0.289972 -0.377811 0.093480
v 0.299583 -0.377774 0.060722
v 0.306666 -0.377488 0.000000
v 0.690418 -0.377774 0.060553
v 0.683334 -0.377488 0.000000
v 0.700029 -0.377810 0.092983
v 0.710001 -0.377812 0.108444
v 0.720000 -0.377813 0.115907
v 0.730000 -0.377813 0.118894
v 0.740000 -0.377813 0.114575
v 0.750000 -0.377813 0.103922
v 0.759992 -0.377816 0.088337
v 0.769901 -0.377871 0.061963
v 0.775988 -0.374933 0.000000
v 0.779484 -0.378215 0.000000
v 0.244079 -0.379786 0.000000
v 0.250134 -0.382719 0.061537
v 0.241014 -0.383114 0.000000
v 0.260009 -0.382660 0.088006
v 0.270000 -0.382656 0.101504
v 0.279996 -0.382656 0.102863
v 0.289918 -0.382640 0.081489
v 0.299120 -0.382427 0.000000
v 0.305360 -0.380734 0.000000
v 0.690894 -0.382407 0.000000
v 0.684641 -0.380732 0.000000
v 0.700085 -0.382638 0.077333
v 0.710004 -0.382656 0.100338
v 0.720000 -0.382656 0.110805
v 0.730000 -0.382656 0.118341
v 0.740000 -0.382656 0.118620
v 0.750000 -0.382656 0.111065
v 0.760000 -0.382656 0.102190
v 0.769995 -0.382660 0.089487
v 0.779962 -0.382696 0.071612
v 0.789326 -0.379426 0.000000
v 0.789885 -0.382863 0.057265
v 0.795961 -0.380069 0.000000
v 0.798992 -0.383144 0.000000
v 0.234718 -0.384609 0.000000
v 0.240479 -0.387553 0.058857
v 0.233758 -0.387806 0.000000
v 0.250034 -0.387504 0.087442
v 0.260001 -0.387500 0.100662
v 0.269999 -0.387500 0.104513
v 0.279975 -0.387500 0.098791
v 0.289626 -0.387496 0.074798
v 0.296838 -0.387451 0.000000
v 0.700427 -0.387446 0.059225
v 0.693335 -0.387174 0.000000
v 0.710030 -0.387496 0.088037
v 0.720001 -0.387500 0.104316
v 0.730000 -0.387500 0.116269
v 0.740000 -0.387500 0.121787
v 0.750000 -0.387500 0.117202
v 0.760000 -0.387500 0.110318
v 0.770000 -0.387500 0.102724
v 0.779998 -0.387502 0.094259
v 0.789970 -0.387515 0.085549
v 0.799573 -0.387556 0.058927
v 0.805341 -0.384612 0.000000
v 0.806668 -0.387827 0.000000
v 0.240426 -0.392347 0.074473
v 0.233582 -0.392372 0.000000
v 0.250028 -0.392344 0.098740
v 0.260001 -0.392344 0.104507
v 0.269999 -0.392344 0.100661
v 0.279967 -0.392339 0.087444
v 0.289525 -0.392291 0.058877
v 0.296281 -0.392037 0.000000
v 0.701009 -0.391888 0.000000
v 0.694659 -0.390390 0.000000
v 0.710124 -0.392296 0.063164
v 0.720007 -0.392341 0.095058
v 0.730000 -0.392344 0.113739
v 0.740000 -0.392344 0.123573
v 0.750000 -0.392344 0.122629
v 0.760000 -0.392344 0.117039
v 0.770000 -0.392344 0.110739
v 0.780000 -0.392344 0.105230
v 0.789996 -0.392345 0.098932
v 0.799918 -0.392362 0.077189
v 0.809169 -0.392594 0.000000
v 0.240420 -0.397188 0.078759
v 0.233527 -0.397190 0.000000
v 0.250027 -0.397187 0.102331
v 0.260001 -0.397187 0.101443
v 0.269991 -0.397183 0.088001
v 0.279866 -0.397124 0.061537
v 0.288986 -0.396730 0.000000
v 0.295285 -0.395235 0.000000
v 0.710817 -0.396958 0.000000
v 0.704059 -0.395246 0.000000
v 0.720079 -0.397172 0.083240
v 0.730004 -0.397187 0.109849
v 0.740000 -0.397187 0.121603
v 0.750000 -0.397188 0.125241
v 0.760000 -0.397188 0.122535
v 0.770000 -0.397188 0.117506
v 0.780000 -0.397188 0.113133
v 0.790000 -0.397188 0.107643
v 0.799993 -0.397190 0.093201
v 0.809879 -0.397236 0.062910
v 0.815945 -0.394287 0.000000
v 0.819058 -0.397644 0.000000
v 0.240371 -0.402033 0.079988
v 0.233140 -0.402052 0.000000
v 0.250024 -0.402031 0.102844
v 0.259993 -0.402029 0.093507
v 0.269879 -0.401984 0.063064
v 0.279054 -0.401574 0.000000
v 0.285921 -0.400058 0.000000
v 0.720371 -0.402030 0.079471
v 0.713141 -0.402009 0.000000
v 0.730025 -0.402031 0.105784
v 0.740001 -0.402031 0.116470
v 0.750000 -0.402031 0.122364
v 0.760000 -0.402031 0.124061
v 0.770000 -0.402031 0.122322
v 0.780000 -0.402031 0.119834
v 0.790000 -0.402031 0.114530
v 0.800000 -0.402031 0.103894
v 0.809992 -0.402035 0.088334
v 0.819902 -0.402090 0.061987
v 0.825991 -0.399151 0.000000
v 0.829525 -0.402427 0.000000
v 0.240079 -0.406891 0.082251
v 0.230817 -0.407104 0.000000
v 0.250000 -0.406875 0.101268
v 0.259921 -0.406859 0.082225
v 0.269183 -0.406646 0.000000
v 0.275946 -0.404933 0.000000
v 0.720422 -0.406872 0.074584
v 0.713545 -0.406846 0.000000
v 0.730027 -0.406875 0.099725
v 0.740001 -0.406875 0.109947
v 0.750000 -0.406875 0.116299
v 0.760000 -0.406875 0.120070
v 0.770000 -0.406875 0.122375
v 0.780000 -0.406875 0.123872
v 0.790000 -0.406875 0.119991
v 0.800000 -0.406875 0.111244
v 0.810000 -0.406875 0.102208
v 0.819995 -0.406879 0.089607
v 0.829967 -0.406913 0.073138
v 0.839898 -0.403561 0.000000
v 0.839991 -0.407056 0.067438
v 0.849367 -0.403833 0.000000
v 0.849891 -0.407105 0.056736
v 0.855969 -0.404315 0.000000
v 0.859055 -0.407366 0.000000
v 0.224059 -0.408817 0.000000
v 0.230124 -0.411766 0.062902
v 0.221013 -0.412175 0.000000
v 0.240007 -0.411721 0.092706
v 0.249976 -0.411719 0.100738
v 0.259629 -0.411717 0.078886
v 0.266859 -0.411696 0.000000
v 0.720479 -0.411666 0.058866
v 0.713756 -0.411413 0.000000
v 0.730034 -0.411714 0.087585
v 0.740001 -0.411719 0.101799
v 0.750000 -0.411719 0.109270
v 0.760000 -0.411719 0.113369
v 0.770000 -0.411719 0.117940
v 0.780000 -0.411719 0.123559
v 0.790000 -0.411719 0.123937
v 0.800000 -0.411719 0.117538
v 0.810000 -0.411719 0.110352
v 0.820000 -0.411719 0.102777
v 0.829999 -0.411721 0.095061
v 0.840000 -0.411731 0.092198
v 0.849991 -0.411735 0.085614
v 0.859869 -0.411784 0.061276
v 0.865926 -0.408851 0.000000
v 0.869053 -0.412178 0.000000
v 0.214715 -0.413671 0.000000
v 0.220475 -0.416615 0.058826
v 0.213719 -0.416869 0.000000
v 0.230033 -0.416566 0.087092
v 0.240000 -0.416563 0.099211
v 0.249973 -0.416562 0.097534
v 0.259578 -0.416559 0.074340
v 0.266455 -0.416533 0.000000
v 0.721014 -0.416105 0.000000
v 0.714718 -0.414610 0.000000
v 0.730134 -0.416499 0.061517
v 0.740010 -0.416558 0.087797
v 0.750000 -0.416562 0.100661
v 0.760000 -0.416562 0.105529
v 0.770000 -0.416562 0.111908
v 0.780000 -0.416562 0.120976
v 0.790000 -0.416562 0.126613
v 0.800000 -0.416562 0.123433
v 0.810000 -0.416562 0.117207
v 0.820000 -0.416562 0.110826
v 0.830000 -0.416563 0.105915
v 0.840000 -0.416563 0.104087
v 0.850000 -0.416563 0.100488
v 0.859990 -0.416567 0.087786
v 0.869869 -0.416626 0.061547
v 0.875926 -0.413692 0.000000
v 0.879056 -0.417021 0.000000
v 0.220374 -0.421411 0.074335
v 0.213159 -0.421455 0.000000
v 0.230025 -0.421406 0.096393
v 0.240000 -0.421406 0.098312
v 0.249966 -0.421402 0.087022
v 0.259521 -0.421354 0.058817
v 0.266244 -0.421101 0.000000
v 0.730947 -0.420947 0.000000
v 0.724079 -0.419433 0.000000
v 0.740131 -0.421341 0.061294
v 0.750009 -0.421391 0.085910
v 0.760001 -0.421405 0.094690
v 0.770000 -0.421406 0.105235
v 0.780000 -0.421406 0.117330
v 0.790000 -0.421406 0.126397
v 0.800000 -0.421406 0.127569
v 0.810000 -0.421406 0.123467
v 0.820000 -0.421406 0.117909
v 0.830000 -0.421406 0.114069
v 0.840000 -0.421406 0.112410
v 0.850000 -0.421406 0.109153
v 0.860000 -0.421406 0.101813
v 0.869991 -0.421411 0.087973
v 0.879902 -0.421465 0.061956
v 0.885991 -0.418526 0.000000
v 0.889527 -0.421802 0.000000
v 0.220079 -0.426266 0.079839
v 0.210818 -0.426480 0.000000
v 0.230003 -0.426250 0.095869
v 0.239991 -0.426246 0.087110
v 0.249866 -0.426187 0.061448
v 0.258986 -0.425792 0.000000
v 0.265282 -0.424298 0.000000
v 0.740945 -0.425761 0.000000
v 0.734074 -0.424274 0.000000
v 0.750111 -0.426045 0.057468
v 0.760029 -0.426226 0.073210
v 0.770003 -0.426249 0.096269
v 0.780000 -0.426250 0.112680
v 0.790000 -0.426250 0.122619
v 0.800000 -0.426250 0.127527
v 0.810000 -0.426250 0.127432
v 0.820000 -0.426250 0.124180
v 0.830000 -0.426250 0.121468
v 0.840000 -0.426250 0.119962
v 0.850000 -0.426250 0.116330
v 0.860000 -0.426250 0.110144
v 0.870000 -0.426250 0.102058
v 0.879995 -0.426254 0.089601
v 0.889967 -0.426288 0.073257
v 0.899954 -0.422928 0.000000
v 0.899997 -0.426430 0.068969
v 0.909940 -0.423123 0.000000
v 0.909994 -0.426455 0.066882
v 0.919369 -0.423226 0.000000
v 0.919891 -0.426482 0.056698
v 0.925970 -0.423691 0.000000
v 0.929059 -0.426741 0.000000
v 0.204055 -0.428192 0.000000
v 0.210121 -0.431141 0.062636
v 0.200946 -0.431551 0.000000
v 0.220007 -0.431096 0.090174
v 0.229993 -0.431091 0.090107
v 0.239879 -0.431046 0.062608
v 0.249054 -0.430637 0.000000
v 0.255921 -0.429120 0.000000
v 0.750661 -0.429501 0.000000
v 0.744033 -0.428838 0.000000
v 0.760388 -0.430920 0.000000
v 0.770048 -0.431082 0.082313
v 0.780003 -0.431093 0.106362
v 0.790000 -0.431094 0.116637
v 0.800000 -0.431094 0.122958
v 0.810000 -0.431094 0.126302
v 0.820000 -0.431094 0.127293
v 0.830000 -0.431094 0.127318
v 0.840000 -0.431094 0.126930
v 0.850000 -0.431094 0.123314
v 0.860000 -0.431094 0.117147
v 0.870000 -0.431094 0.110289
v 0.880000 -0.431094 0.102774
v 0.889999 -0.431096 0.095110
v 0.900000 -0.431106 0.092980
v 0.910000 -0.431107 0.091937
v 0.919992 -0.431110 0.085618
v 0.929902 -0.431154 0.061674
v 0.935991 -0.428216 0.000000
v 0.939525 -0.431490 0.000000
v 0.194079 -0.433067 0.000000
v 0.200134 -0.436001 0.061507
v 0.191010 -0.436395 0.000000
v 0.210009 -0.435942 0.087495
v 0.219997 -0.435937 0.096873
v 0.229921 -0.435922 0.080517
v 0.239183 -0.435708 0.000000
v 0.245946 -0.433996 0.000000
v 0.770371 -0.435934 0.074920
v 0.763117 -0.435894 0.000000
v 0.780025 -0.435937 0.099780
v 0.790001 -0.435937 0.109960
v 0.800000 -0.435937 0.116380
v 0.810000 -0.435937 0.120580
v 0.820000 -0.435938 0.124192
v 0.830000 -0.435938 0.128380
v 0.840000 -0.435938 0.131290
v 0.850000 -0.435937 0.129613
v 0.860000 -0.435937 0.123991
v 0.870000 -0.435937 0.117283
v 0.880000 -0.435937 0.110835
v 0.890000 -0.435938 0.105966
v 0.900000 -0.435938 0.104626
v 0.910000 -0.435938 0.103929
v 0.920000 -0.435938 0.100600
v 0.929995 -0.435941 0.089422
v 0.939967 -0.435976 0.073126
v 0.949898 -0.432624 0.000000
v 0.949991 -0.436119 0.067438
v 0.959367 -0.432895 0.000000
v 0.959891 -0.436168 0.056737
v 0.965969 -0.433378 0.000000
v 0.969059 -0.436428 0.000000
v 0.184659 -0.437891 0.000000
v 0.190427 -0.440835 0.059178
v 0.183335 -0.441108 0.000000
v 0.200031 -0.440786 0.087441
v 0.210000 -0.440781 0.100285
v 0.219975 -0.440781 0.100748
v 0.229629 -0.440780 0.078621
v 0.236859 -0.440759 0.000000
v 0.770475 -0.440729 0.058887
v 0.763717 -0.440475 0.000000
v 0.780033 -0.440777 0.087588
v 0.790001 -0.440781 0.101799
v 0.800000 -0.440781 0.109271
v 0.810000 -0.440781 0.113366
v 0.820000 -0.440781 0.117861
v 0.830000 -0.440781 0.123842
v 0.840000 -0.440781 0.129674
v 0.850000 -0.440781 0.132644
v 0.860000 -0.440781 0.130014
v 0.870000 -0.440781 0.124132
v 0.880000 -0.440781 0.118025
v 0.890000 -0.440781 0.114170
v 0.900000 -0.440781 0.113116
v 0.910000 -0.440781 0.112293
v 0.920000 -0.440781 0.109197
v 0.930000 -0.440781 0.102644
v 0.939999 -0.440783 0.095052
v 0.950000 -0.440793 0.092198
v 0.959992 -0.440797 0.085635
v 0.969901 -0.440842 0.061650
v 0.975988 -0.437904 0.000000
v 0.979484 -0.441184 0.000000
v 0.190085 -0.445644 0.077171
v 0.180894 -0.445874 0.000000
v 0.200004 -0.445626 0.098947
v 0.209999 -0.445625 0.104241
v 0.219973 -0.445625 0.098518
v 0.229578 -0.445622 0.074445
v 0.236455 -0.445596 0.000000
v 0.771014 -0.445167 0.000000
v 0.764715 -0.443673 0.000000
v 0.780134 -0.445562 0.061517
v 0.790010 -0.445620 0.087796
v 0.800000 -0.445624 0.100650
v 0.810000 -0.445625 0.105377
v 0.820000 -0.445625 0.110778
v 0.830000 -0.445625 0.117259
v 0.840000 -0.445625 0.123999
v 0.850000 -0.445625 0.130009
v 0.860000 -0.445625 0.132744
v 0.870000 -0.445625 0.130129
v 0.880000 -0.445625 0.125012
v 0.890000 -0.445625 0.121790
v 0.900000 -0.445625 0.120889
v 0.910000 -0.445625 0.119909
v 0.920000 -0.445625 0.116381
v 0.930000 -0.445625 0.110728
v 0.940000 -0.445625 0.105909
v 0.950000 -0.445625 0.104092
v 0.960000 -0.445626 0.100607
v 0.969995 -0.445629 0.089304
v 0.979962 -0.445665 0.071602
v 0.989326 -0.442395 0.000000
v 0.989888 -0.445832 0.057293
v 0.995966 -0.443038 0.000000
v 0.999059 -0.446114 0.000000
v 0.174641 -0.447549 0.000000
v 0.180418 -0.450508 0.060459
v 0.173334 -0.450793 0.000000
v 0.190028 -0.450471 0.091996
v 0.200001 -0.450469 0.103092
v 0.209999 -0.450469 0.100495
v 0.219966 -0.450464 0.087415
v 0.229521 -0.450416 0.058855
v 0.236244 -0.450163 0.000000
v 0.780947 -0.450010 0.000000
v 0.774079 -0.448495 0.000000
v 0.790130 -0.450404 0.061293
v 0.800009 -0.450454 0.085876
v 0.810001 -0.450467 0.094279
v 0.820000 -0.450469 0.102722
v 0.830000 -0.450469 0.110292
v 0.840000 -0.450469 0.117231
v 0.850000 -0.450469 0.124042
v 0.860000 -0.450469 0.130018
v 0.870000 -0.450469 0.132784
v 0.880000 -0.450469 0.130830
v 0.890000 -0.450469 0.128823
v 0.900000 -0.450469 0.128225
v 0.910000 -0.450469 0.127290
v 0.920000 -0.450469 0.123467
v 0.930000 -0.450469 0.117941
v 0.940000 -0.450469 0.114081
v 0.950000 -0.450469 0.112413
v 0.960000 -0.450469 0.109203
v 0.970000 -0.450469 0.102594
v 0.979999 -0.450471 0.094271
v 0.989992 -0.450484 0.085897
v 0.999902 -0.450529 0.061692
v 1.005991 -0.447591 0.000000
v 1.009527 -0.450865 0.000000
v 0.180085 -0.455330 0.077218
v 0.170894 -0.455561 0.000000
v 0.190004 -0.455313 0.098694
v 0.200000 -0.455312 0.100265
v 0.209991 -0.455308 0.087837
v 0.219866 -0.455249 0.061525
v 0.228986 -0.454855 0.000000
v 0.235282 -0.453360 0.000000
v 0.790945 -0.454823 0.000000
v 0.784074 -0.453337 0.000000
v 0.800112 -0.455106 0.057292
v 0.810038 -0.455273 0.071613
v 0.820005 -0.455309 0.089477
v 0.830000 -0.455312 0.102060
v 0.840000 -0.455312 0.110248
v 0.850000 -0.455312 0.117230
v 0.860000 -0.455312 0.123997
v 0.870000 -0.455312 0.129744
v 0.880000 -0.455312 0.132334
v 0.890000 -0.455312 0.132767
v 0.900000 -0.455312 0.133281
v 0.910000 -0.455312 0.133446
v 0.920000 -0.455312 0.130266
v 0.930000 -0.455312 0.125065
v 0.940000 -0.455312 0.121706
v 0.950000 -0.455312 0.120018
v 0.960000 -0.455312 0.116386
v 0.970000 -0.455312 0.110678
v 0.980000 -0.455313 0.105376
v 0.990000 -0.455313 0.100774
v 0.999995 -0.455316 0.089438
v 1.009967 -0.455351 0.073251
v 1.019956 -0.451990 0.000000
v 1.019997 -0.455492 0.069088
v 1.029995 -0.452177 0.000000
v 1.030000 -0.455516 0.068413
v 1.039942 -0.452204 0.000000
v 1.039994 -0.455519 0.066844
v 1.049369 -0.452289 0.000000
v 1.049891 -0.455544 0.056697
v 1.055969 -0.452754 0.000000
v 1.059059 -0.455803 0.000000
v 0.164641 -0.457236 0.000000
v 0.170417 -0.460195 0.060421
v 0.163330 -0.460480 0.000000
v 0.180028 -0.460158 0.091711
v 0.190001 -0.460156 0.101545
v 0.199993 -0.460154 0.092158
v 0.209879 -0.460108 0.062813
v 0.219054 -0.459699 0.000000
v 0.225921 -0.458183 0.000000
v 0.800674 -0.458542 0.000000
v 0.794034 -0.457899 0.000000
v 0.810516 -0.459754 0.000000
v 0.820099 -0.460098 0.061932
v 0.830009 -0.460152 0.087981
v 0.840000 -0.460156 0.101941
v 0.850000 -0.460156 0.110238
v 0.860000 -0.460156 0.117147
v 0.870000 -0.460156 0.123341
v 0.880000 -0.460156 0.127203
v 0.890000 -0.460156 0.128733
v 0.900000 -0.460156 0.131233
v 0.910000 -0.460156 0.134844
v 0.920000 -0.460156 0.134808
v 0.930000 -0.460156 0.131557
v 0.940000 -0.460156 0.129072
v 0.950000 -0.460156 0.127515
v 0.960000 -0.460156 0.123495
v 0.970000 -0.460156 0.117858
v 0.980000 -0.460156 0.113378
v 0.990000 -0.460156 0.109325
v 1.000000 -0.460156 0.102654
v 1.009999 -0.460158 0.095104
v 1.020000 -0.460168 0.093030
v 1.030000 -0.460169 0.092718
v 1.040000 -0.460170 0.091920
v 1.049992 -0.460172 0.085617
v 1.059902 -0.460216 0.061674
v 1.065991 -0.457279 0.000000
v 1.069525 -0.460552 0.000000
v 0.170082 -0.465018 0.076952
v 0.160831 -0.465250 0.000000
v 0.180004 -0.465001 0.097491
v 0.189996 -0.464999 0.097617
v 0.199918 -0.464981 0.077041
v 0.209169 -0.464750 0.000000
v 0.215944 -0.463057 0.000000
v 0.820944 -0.464542 0.000000
v 0.814012 -0.463036 0.000000
v 0.830131 -0.464937 0.061558
v 0.840010 -0.464995 0.087960
v 0.850000 -0.465000 0.101934
v 0.860000 -0.465000 0.110139
v 0.870000 -0.465000 0.116332
v 0.880000 -0.465000 0.119994
v 0.890000 -0.465000 0.121709
v 0.900000 -0.465000 0.125248
v 0.910000 -0.465000 0.131000
v 0.920000 -0.465000 0.134072
v 0.930000 -0.465000 0.134853
v 0.940000 -0.465000 0.134983
v 0.950000 -0.465000 0.134534
v 0.960000 -0.465000 0.130517
v 0.970000 -0.465000 0.124981
v 0.980000 -0.465000 0.120813
v 0.990000 -0.465000 0.116485
v 1.000000 -0.465000 0.110737
v 1.010000 -0.465000 0.105963
v 1.020000 -0.465000 0.104676
v 1.030000 -0.465000 0.104463
v 1.040000 -0.465000 0.103918
v 1.050000 -0.465001 0.100600
v 1.059995 -0.465004 0.089422
v 1.069967 -0.465038 0.073126
v 1.079899 -0.461686 0.000000
v 1.079991 -0.465181 0.067438
v 1.089367 -0.461958 0.000000
v 1.089891 -0.465230 0.056737
v 1.095970 -0.462440 0.000000
v 1.099059 -0.465491 0.000000
v 0.154056 -0.466943 0.000000
v 0.160121 -0.469892 0.062564
v 0.150946 -0.470301 0.000000
v 0.170007 -0.469846 0.090654
v 0.179999 -0.469844 0.097136
v 0.189969 -0.469839 0.086911
v 0.199573 -0.469790 0.059130
v 0.206668 -0.469517 0.000000
v 0.830947 -0.469385 0.000000
v 0.824074 -0.467870 0.000000
v 0.840131 -0.469780 0.061557
v 0.850010 -0.469839 0.087952
v 0.860000 -0.469844 0.101813
v 0.870000 -0.469844 0.109153
v 0.880000 -0.469844 0.112416
v 0.890000 -0.469844 0.114148
v 0.900000 -0.469844 0.118418
v 0.910000 -0.469844 0.124948
v 0.920000 -0.469844 0.128510
v 0.930000 -0.469844 0.131624
v 0.940000 -0.469844 0.135777
v 0.950000 -0.469844 0.138317
v 0.960000 -0.469844 0.135772
v 0.970000 -0.469844 0.131557
v 0.980000 -0.469844 0.128040
v 0.990000 -0.469844 0.123555
v 1.000000 -0.469844 0.117949
v 1.010000 -0.469844 0.114171
v 1.020000 -0.469844 0.113200
v 1.030000 -0.469844 0.112996
v 1.040000 -0.469844 0.112284
v 1.050000 -0.469844 0.109196
v 1.060000 -0.469844 0.102644
v 1.069999 -0.469846 0.095052
v 1.080000 -0.469856 0.092198
v 1.089992 -0.469860 0.085635
v 1.099902 -0.469904 0.061674
v 1.105991 -0.466966 0.000000
v 1.109525 -0.470240 0.000000
v 0.144079 -0.471817 0.000000
v 0.150134 -0.474751 0.061353
v 0.141010 -0.475145 0.000000
v 0.160009 -0.474692 0.086609
v 0.170000 -0.474687 0.095318
v 0.179990 -0.474683 0.086781
v 0.189866 -0.474624 0.061408
v 0.198990 -0.474230 0.000000
v 0.205341 -0.472734 0.000000
v 0.840947 -0.474229 0.000000
v 0.834074 -0.472714 0.000000
v 0.850131 -0.474624 0.061546
v 0.860010 -0.474683 0.087786
v 0.870000 -0.474687 0.100488
v 0.880000 -0.474687 0.104095
v 0.890000 -0.474687 0.106015
v 0.900000 -0.474687 0.111431
v 0.910000 -0.474687 0.118311
v 0.920000 -0.474687 0.121435
v 0.930000 -0.474687 0.125071
v 0.940000 -0.474687 0.130524
v 0.950000 -0.474687 0.134534
v 0.960000 -0.474687 0.134980
v 0.970000 -0.474687 0.134822
v 0.980000 -0.474687 0.133845
v 0.990000 -0.474687 0.130307
v 1.000000 -0.474687 0.125028
v 1.010000 -0.474687 0.121797
v 1.020000 -0.474687 0.120994
v 1.030000 -0.474687 0.120785
v 1.040000 -0.474687 0.119885
v 1.050000 -0.474687 0.116363
v 1.060000 -0.474687 0.110725
v 1.070000 -0.474688 0.105909
v 1.080000 -0.474688 0.104092
v 1.090000 -0.474688 0.100611
v 1.099995 -0.474691 0.089423
v 1.109967 -0.474726 0.073126
v 1.119899 -0.471374 0.000000
v 1.119991 -0.474869 0.067438
v 1.129367 -0.471645 0.000000
v 1.129891 -0.474918 0.056736
v 1.135969 -0.472128 0.000000
v 1.139055 -0.475179 0.000000
v 0.134659 -0.476641 0.000000
v 0.140427 -0.479585 0.059029
v 0.133332 -0.479858 0.000000
v 0.150031 -0.479536 0.086180
v 0.160001 -0.479531 0.094609
v 0.169990 -0.479527 0.086505
v 0.179869 -0.479468 0.061386
v 0.189053 -0.479072 0.000000
v 0.195921 -0.477558 0.000000
v 0.850947 -0.479072 0.000000
v 0.844074 -0.477558 0.000000
v 0.860131 -0.479466 0.061276
v 0.870009 -0.479515 0.085615
v 0.880000 -0.479519 0.092221
v 0.890001 -0.479530 0.095302
v 0.900000 -0.479531 0.103831
v 0.910000 -0.479531 0.110962
v 0.920000 -0.479531 0.113891
v 0.930000 -0.479531 0.117930
v 0.940000 -0.479531 0.123501
v 0.950000 -0.479531 0.127516
v 0.960000 -0.479531 0.129072
v 0.970000 -0.479531 0.131552
v 0.980000 -0.479531 0.134758
v 0.990000 -0.479531 0.134672
v 1.000000 -0.479531 0.131192
v 1.010000 -0.479531 0.128852
v 1.020000 -0.479531 0.128257
v 1.030000 -0.479531 0.128053
v 1.040000 -0.479531 0.127034
v 1.050000 -0.479531 0.123219
v 1.060000 -0.479531 0.117868
v 1.070000 -0.479531 0.114066
v 1.080000 -0.479531 0.112411
v 1.090000 -0.479531 0.109204
v 1.100000 -0.479531 0.102644
v 1.109999 -0.479533 0.095052
v 1.120000 -0.479543 0.092198
v 1.129991 -0.479547 0.085614
v 1.139869 -0.479596 0.061276
v 1.145926 -0.476663 0.000000
v 1.149053 -0.479990 0.000000
v 0.140082 -0.484394 0.076290
v 0.130831 -0.484625 0.000000
v 0.150004 -0.484376 0.093630
v 0.159991 -0.484371 0.086469
v 0.169869 -0.484312 0.061375
v 0.179053 -0.483916 0.000000
v 0.185926 -0.482402 0.000000
v 0.860945 -0.483884 0.000000
v 0.854074 -0.482399 0.000000
v 0.870109 -0.484145 0.056745
v 0.880008 -0.484195 0.067585
v 0.890023 -0.484352 0.074323
v 0.900002 -0.484373 0.093515
v 0.910000 -0.484375 0.102630
v 0.920000 -0.484375 0.105747
v 0.930000 -0.484375 0.110718
v 0.940000 -0.484375 0.116388
v 0.950000 -0.484375 0.120018
v 0.960000 -0.484375 0.121706
v 0.970000 -0.484375 0.125065
v 0.980000 -0.484375 0.130261
v 0.990000 -0.484375 0.133423
v 1.000000 -0.484375 0.133270
v 1.010000 -0.484375 0.132745
v 1.020000 -0.484375 0.132605
v 1.030000 -0.484375 0.132470
v 1.040000 -0.484375 0.131570
v 1.050000 -0.484375 0.128366
v 1.060000 -0.484375 0.124298
v 1.070000 -0.484375 0.121476
v 1.080000 -0.484375 0.119959
v 1.090000 -0.484375 0.116367
v 1.100000 -0.484375 0.110721
v 1.110000 -0.484375 0.105907
v 1.120000 -0.484375 0.104086
v 1.130000 -0.484376 0.100487
v 1.139990 -0.484380 0.087786
v 1.149869 -0.484438 0.061547
v 1.155926 -0.481505 0.000000
v 1.159056 -0.484833 0.000000
v 0.124056 -0.486318 0.000000
v 0.130121 -0.489267 0.062426
v 0.120946 -0.489676 0.000000
v 0.140007 -0.489221 0.089310
v 0.149993 -0.489216 0.089310
v 0.159879 -0.489171 0.062426
v 0.169054 -0.488762 0.000000
v 0.175926 -0.487245 0.000000
v 0.870633 -0.487418 0.000000
v 0.864031 -0.486935 0.000000
v 0.880089 -0.487709 0.000000
v 0.890360 -0.489029 0.000000
v 0.900048 -0.489193 0.075403
v 0.910003 -0.489206 0.090504
v 0.920001 -0.489217 0.094910
v 0.930000 -0.489219 0.102638
v 0.940000 -0.489219 0.109204
v 0.950000 -0.489219 0.112413
v 0.960000 -0.489219 0.114081
v 0.970000 -0.489219 0.117941
v 0.980000 -0.489219 0.123467
v 0.990000 -0.489219 0.127283
v 1.000000 -0.489219 0.128148
v 1.010000 -0.489219 0.128194
v 1.020000 -0.489219 0.128187
v 1.030000 -0.489219 0.128166
v 1.040000 -0.489219 0.127995
v 1.050000 -0.489219 0.127451
v 1.060000 -0.489219 0.127431
v 1.070000 -0.489219 0.127312
v 1.080000 -0.489219 0.126839
v 1.090000 -0.489219 0.123185
v 1.100000 -0.489219 0.117813
v 1.110000 -0.489219 0.114035
v 1.120000 -0.489219 0.112381
v 1.130000 -0.489219 0.109133
v 1.140000 -0.489219 0.101805
v 1.149992 -0.489223 0.087971
v 1.159900 -0.489277 0.061931
v 1.165988 -0.486339 0.000000
v 1.169484 -0.489621 0.000000
v 0.114074 -0.491192 0.000000
v 0.120131 -0.494126 0.061370
v 0.110947 -0.494521 0.000000
v 0.130009 -0.494067 0.086468
v 0.139996 -0.494062 0.093630
v 0.149918 -0.494044 0.076290
v 0.159169 -0.493812 0.000000
v 0.165944 -0.492119 0.000000
v 0.900403 -0.493841 0.054384
v 0.893285 -0.493699 0.000000
v 0.910030 -0.493882 0.067111
v 0.920034 -0.494024 0.073107
v 0.930005 -0.494059 0.089422
v 0.940000 -0.494062 0.100611
v 0.950000 -0.494062 0.104092
v 0.960000 -0.494062 0.105909
v 0.970000 -0.494063 0.110728
v 0.980000 -0.494063 0.116380
v 0.990000 -0.494063 0.119902
v 1.000000 -0.494063 0.120784
v 1.010000 -0.494063 0.120891
v 1.020000 -0.494063 0.120898
v 1.030000 -0.494063 0.120903
v 1.040000 -0.494063 0.120973
v 1.050000 -0.494063 0.121595
v 1.060000 -0.494063 0.124297
v 1.070000 -0.494063 0.128235
v 1.080000 -0.494063 0.130527
v 1.090000 -0.494063 0.128125
v 1.100000 -0.494063 0.123879
v 1.110000 -0.494063 0.121101
v 1.120000 -0.494063 0.119558
v 1.130000 -0.494063 0.116022
v 1.140000 -0.494063 0.110005
v 1.150000 -0.494063 0.102013
v 1.159995 -0.494066 0.089460
v 1.169962 -0.494102 0.071593
v 1.179326 -0.490833 0.000000
v 1.179888 -0.494269 0.057266
v 1.185966 -0.491476 0.000000
v 1.189059 -0.494551 0.000000
v 0.104074 -0.496036 0.000000
v 0.110131 -0.498970 0.061357
v 0.100947 -0.499365 0.000000
v 0.120010 -0.498911 0.086427
v 0.129999 -0.498906 0.094593
v 0.139969 -0.498902 0.086179
v 0.149573 -0.498852 0.059029
v 0.156668 -0.498580 0.000000
v 0.900717 -0.497106 0.000000
v 0.894614 -0.496642 0.000000
v 0.910107 -0.497376 0.000000
v 0.920475 -0.498510 0.000000
v 0.930098 -0.498846 0.061674
v 0.940008 -0.498890 0.085635
v 0.950000 -0.498894 0.092198
v 0.960001 -0.498904 0.095052
v 0.970000 -0.498906 0.102644
v 0.980000 -0.498906 0.109196
v 0.990000 -0.498906 0.112284
v 1.000000 -0.498906 0.112987
v 1.010000 -0.498906 0.113072
v 1.020000 -0.498906 0.113078
v 1.030000 -0.498906 0.113086
v 1.040000 -0.498906 0.113205
v 1.050000 -0.498906 0.114156
v 1.060000 -0.498906 0.117873
v 1.070000 -0.498906 0.123193
v 1.080000 -0.498906 0.126777
v 1.090000 -0.498906 0.126837
v 1.100000 -0.498906 0.125703
v 1.110000 -0.498906 0.124878
v 1.120000 -0.498906 0.123907
v 1.130000 -0.498906 0.120820
v 1.140000 -0.498906 0.115840
v 1.150000 -0.498906 0.109777
v 1.160000 -0.498906 0.102451
v 1.169999 -0.498908 0.093969
v 1.179992 -0.498921 0.085495
v 1.189902 -0.498966 0.061413
v 1.195991 -0.496029 0.000000
v 1.199525 -0.499302 0.000000
v 0.094074 -0.500880 0.000000
v 0.100131 -0.503813 0.061357
v 0.090947 -0.504209 0.000000
v 0.110010 -0.503755 0.086427
v 0.120000 -0.503750 0.094596
v 0.129990 -0.503745 0.086427
v 0.139866 -0.503687 0.061334
v 0.148990 -0.503292 0.000000
v 0.155341 -0.501796 0.000000
v 0.930941 -0.503259 0.000000
v 0.924009 -0.501784 0.000000
v 0.940109 -0.503520 0.056737
v 0.950009 -0.503569 0.067438
v 0.960033 -0.503712 0.073126
v 0.970005 -0.503746 0.089422
v 0.980000 -0.503749 0.100600
v 0.990000 -0.503749 0.103918
v 1.000000 -0.503749 0.104452
v 1.010000 -0.503749 0.104502
v 1.020000 -0.503749 0.104505
v 1.030000 -0.503749 0.104516
v 1.040000 -0.503749 0.104679
v 1.050000 -0.503750 0.105962
v 1.060000 -0.503750 0.110727
v 1.070000 -0.503750 0.116361
v 1.080000 -0.503750 0.119858
v 1.090000 -0.503750 0.120621
v 1.100000 -0.503750 0.120560
v 1.110000 -0.503750 0.120452
v 1.120000 -0.503750 0.120224
v 1.130000 -0.503750 0.119270
v 1.140000 -0.503750 0.117343
v 1.150000 -0.503750 0.113740
v 1.160000 -0.503750 0.108465
v 1.170000 -0.503750 0.102726
v 1.180000 -0.503750 0.097425
v 1.189995 -0.503753 0.086874
v 1.199966 -0.503788 0.070677
v 1.209893 -0.500436 0.000000
v 1.209961 -0.503926 0.059684
v 1.219273 -0.500701 0.000000
v 1.219486 -0.503917 0.040407
v 1.225296 -0.501127 0.000000
v 1.226051 -0.503793 0.000000
v 0.084074 -0.505723 0.000000
v 0.090131 -0.508657 0.061357
v 0.080947 -0.509053 0.000000
v 0.100010 -0.508599 0.086427
v 0.110000 -0.508594 0.094596
v 0.119990 -0.508589 0.086427
v 0.129869 -0.508530 0.061357
v 0.139053 -0.508135 0.000000
v 0.145921 -0.506620 0.000000
v 0.940633 -0.506792 0.000000
v 0.934031 -0.506310 0.000000
v 0.950102 -0.507064 0.000000
v 0.960475 -0.508198 0.000000
v 0.970098 -0.508534 0.061674
v 0.980008 -0.508578 0.085617
v 0.990000 -0.508580 0.091919
v 1.000000 -0.508580 0.092701
v 1.010000 -0.508580 0.092750
v 1.020000 -0.508581 0.092753
v 1.030000 -0.508581 0.092770
v 1.040000 -0.508582 0.093031
v 1.050001 -0.508592 0.095104
v 1.060000 -0.508594 0.102645
v 1.070000 -0.508594 0.109196
v 1.080000 -0.508594 0.112283
v 1.090000 -0.508594 0.112977
v 1.100000 -0.508594 0.113049
v 1.110000 -0.508594 0.113047
v 1.120000 -0.508594 0.113022
v 1.130000 -0.508594 0.112883
v 1.140000 -0.508594 0.112475
v 1.150000 -0.508594 0.111085
v 1.160000 -0.508594 0.107530
v 1.170000 -0.508594 0.101090
v 1.179999 -0.508592 0.093629
v 1.190000 -0.508582 0.088949
v 1.199990 -0.508579 0.079656
v 1.209866 -0.508541 0.056129
v 1.218984 -0.508151 0.000000
v 1.225255 -0.506688 0.000000
v 0.074074 -0.510567 0.000000
v 0.080131 -0.513501 0.061356
v 0.070944 -0.513896 0.000000
v 0.090010 -0.513442 0.086427
v 0.100000 -0.513438 0.094596
v 0.109990 -0.513433 0.086427
v 0.119869 -0.513374 0.061357
v 0.129053 -0.512979 0.000000
v 0.135926 -0.511464 0.000000
v 0.970941 -0.512947 0.000000
v 0.964009 -0.511471 0.000000
v 0.980109 -0.513206 0.056697
v 0.990006 -0.513231 0.066843
v 1.000000 -0.513233 0.068373
v 1.010000 -0.513233 0.068493
v 1.020000 -0.513233 0.068499
v 1.030000 -0.513234 0.068537
v 1.040003 -0.513258 0.069093
v 1.050033 -0.513399 0.073250
v 1.060005 -0.513434 0.089427
v 1.070000 -0.513437 0.100600
v 1.080000 -0.513437 0.103918
v 1.090000 -0.513437 0.104451
v 1.100000 -0.513437 0.104501
v 1.110000 -0.513437 0.104504
v 1.120000 -0.513437 0.104503
v 1.130000 -0.513437 0.104490
v 1.140000 -0.513437 0.104410
v 1.150000 -0.513437 0.103786
v 1.160000 -0.513437 0.100405
v 1.169995 -0.513434 0.089251
v 1.179967 -0.513399 0.072995
v 1.189991 -0.513256 0.067090
v 1.199891 -0.513207 0.056067
v 1.209055 -0.512947 0.000000
v 1.215921 -0.511463 0.000000
v 0.064012 -0.515402 0.000000
v 0.070099 -0.518340 0.061557
v 0.060516 -0.518684 0.000000
v 0.080009 -0.518286 0.086408
v 0.090000 -0.518281 0.094593
v 0.099990 -0.518276 0.086427
v 0.109869 -0.518218 0.061357
v 0.119053 -0.517822 0.000000
v 0.125926 -0.516308 0.000000
v 0.980631 -0.516461 0.000000
v 0.974030 -0.515996 0.000000
v 0.990058 -0.516545 0.000000
v 1.000003 -0.516554 0.000000
v 1.010000 -0.516554 0.000000
v 1.020000 -0.516555 0.000000
v 1.030002 -0.516573 0.000000
v 1.040044 -0.516760 0.000000
v 1.050473 -0.517885 0.000000
v 1.060098 -0.518221 0.061674
v 1.070008 -0.518265 0.085617
v 1.080000 -0.518268 0.091919
v 1.090000 -0.518268 0.092701
v 1.100000 -0.518268 0.092751
v 1.110000 -0.518268 0.092752
v 1.120000 -0.518268 0.092752
v 1.130000 -0.518268 0.092750
v 1.140000 -0.518268 0.092699
v 1.150000 -0.518268 0.091911
v 1.159992 -0.518265 0.085605
v 1.169902 -0.518221 0.061663
v 1.179525 -0.517885 0.000000
v 1.189898 -0.516751 0.000000
v 1.199367 -0.516480 0.000000
v 1.205969 -0.515997 0.000000
v 0.044034 -0.520538 0.000000
v 0.050674 -0.519895 0.000000
v 0.050112 -0.523331 0.056502
v 0.040941 -0.523613 0.000000
v 0.060038 -0.523164 0.070390
v 0.070005 -0.523128 0.086539
v 0.080000 -0.523125 0.094345
v 0.089990 -0.523120 0.086391
v 0.099869 -0.523062 0.061355
v 0.109053 -0.522666 0.000000
v 0.115926 -0.521152 0.000000
v 1.060941 -0.522634 0.000000
v 1.054009 -0.521159 0.000000
v 1.070109 -0.522893 0.056697
v 1.080006 -0.522919 0.066843
v 1.090000 -0.522920 0.068374
v 1.100000 -0.522920 0.068493
v 1.110000 -0.522920 0.068498
v 1.120000 -0.522920 0.068498
v 1.130000 -0.522920 0.068493
v 1.140000 -0.522920 0.068374
v 1.149994 -0.522919 0.066842
v 1.159891 -0.522893 0.056697
v 1.169059 -0.522634 0.000000
v 1.175991 -0.521159 0.000000
v 0.034012 -0.525091 0.000000
v 0.040100 -0.528016 0.056412
v 0.030521 -0.528358 0.000000
v 0.050008 -0.527970 0.078864
v 0.060001 -0.527957 0.085366
v 0.070000 -0.527956 0.088610
v 0.079991 -0.527953 0.084655
v 0.089869 -0.527904 0.061125
v 0.099053 -0.527510 0.000000
v 0.105926 -0.525995 0.000000
v 1.070631 -0.526148 0.000000
v 1.064031 -0.525684 0.000000
v 1.080058 -0.526233 0.000000
v 1.090003 -0.526241 0.000000
v 1.100000 -0.526242 0.000000
v 1.110000 -0.526242 0.000000
v 1.120000 -0.526242 0.000000
v 1.130000 -0.526242 0.000000
v 1.139997 -0.526241 0.000000
v 1.149942 -0.526233 0.000000
v 1.159369 -0.526148 0.000000
v 1.165970 -0.525684 0.000000
v 0.014707 -0.530159 0.000000
v 0.020766 -0.529561 0.000000
v 0.020496 -0.532787 0.038026
v 0.013946 -0.532810 0.000000
v 0.030065 -0.532646 0.049235
v 0.040006 -0.532611 0.060543
v 0.050000 -0.532608 0.066416
v 0.060000 -0.532608 0.067525
v 0.069994 -0.532606 0.066489
v 0.079891 -0.532581 0.056617
v 0.089055 -0.532321 0.000000
v 0.095926 -0.530837 0.000000
v 0.020724 -0.535856 0.000000
v 0.014703 -0.535438 0.000000
v 0.030065 -0.535923 0.000000
v 0.040003 -0.535929 0.000000
v 0.050000 -0.535929 0.000000
v 0.059997 -0.535929 0.000000
v 0.069942 -0.535921 0.000000
v 0.079369 -0.535836 0.000000
v 0.085969 -0.535371 0.000000
f 814 831 833 816
f 1964 2001 2002 1965
f 1081 1103 1105 1083
f 1430 1463 1465 1464
f 1974 2009 2010 1975
f 1640 1683 1684 1641
f 2077 2078 2080 2056
f 1895 1938 1939 1896
f 1909 1952 1953 1910
f 2030 2031 2033 1997
f 1520 1554 1556 1521
f 53 56 55 54
f 2045 2068 2069 2046
f 782 800 801 783
f 931 950 951 932
f 2036 2061 2062 2037
f 1980 2015 2016 1981
f 1998 2035 2036 1999
f 83 98 99 85
f 2033 2058 2059 2034
f 119 121 120 106
f 1701 1740 1741 1702
f 1912 1955 1956 1914
f 13 20 21 14
f 1521 1556 1557 1522
f 67 81 82 68
f 1147 1168 1167 1146
f 1260 1285 1286 1261
f 1108 1129 1130 1109
f 1934 1971 1972 1935
f 69 83 85 84
f 381 395 396 382
f 538 556 557 539
f 668 685 686 669
f 1817 1858 1859 1818
f 1976 2011 2012 1977
f 1637 1679 1681 1638
f 29 38 39 30
f 774 789 790 775
f 974 993 994 975
f 1002 1019 1020 1003
f 61 77 76 63
f 21 29 30 22
f 1155 1175 1176 1156
f 364 378 379 365
f 144 159 160 146
f 1434 1468 1469 1435
f 2076 2079 2078 2077
f 1698 1737 1738 1699
f 1865 1904 1905 1866
f 1884 1929 1928 1886
f 1505 1543 1544 1507
f 1992 2027 2028 1993
f 1721 1760 1762 1722
f 40 48 49 41
f 1941 1978 1979 1942
f 163 176 177 164
f 37 45 46 38
f 1425 1460 1461 1426
f 50 68 69 52
f 108 124 125 109
f 38 46 47 39
f 32 41 42 34
f 509 530 531 510
f 275 286 287 276
f 689 705 704 688
f 30 39 40 31
f 1641 1684 1685 1642
f 136 151 150 135
f 1868 1907 1908 1869
f 157 168 169 158
f 26 35 37 28
f 239 253 254 240
f 14 21 22 15
f 1642 1685 1686 1643
f 121 136 135 120
f 87 101 100 86
f 1944 1981 1982 1945
f 139 154 155 140
f 2021 2049 2050 2022
f 92 106 105 91
f 1140 1160 1161 1141
f 1426 1461 1462 1428
f 267 279 280 268
f 213 225 226 214
f 95 109 110 96
f 1861 1900 1901 1862
f 79 94 95 80
f 71 87 86 70
f 251 263 264 252
f 743 758 759 744
f 1840 1882 1883 1841
f 1593 1633 1634 1594
f 101 115 114 100
f 753 769 770 754
f 47 65 66 48
f 1666 1667 1669 1668
f 1528 1563 1564 1529
f 235 250 251 237
f 39 47 48 40
f 138 153 154 139
f 1811 1852 1853 1812
f 304 317 318 305
f 243 257 258 244
f 1105 1126 1127 1106
f 247 249 248 236
f 123 138 139 124
f 230 242 243 231
f 204 217 218 205
f 1124 1146 1148 1126
f 1243 1267 1269 1268
f 229 241 242 230
f 151 162 161 150
f 112 128 129 113
f 1122 1142 1143 1123
f 122 137 138 123
f 109 125 126 110
f 1201 1227 1228 1202
f 1033 1052 1053 1035
f 93 107 108 94
f 698 717 718 699
f 156 167 168 157
f 96 110 111 97
f 124 139 140 125
f 110 126 127 111
f 72 88 89 73
f 258 270 271 259
f 1560 1600 1601 1561
f 165 178 179 166
f 217 229 230 218
f 205 218 219 206
f 1539 1574 1575 1540
f 897 912 913 898
f 1138 1158 1159 1139
f 2042 2064 2066 2043
f 1874 1912 1914 1913
f 189 203 204 190
f 215 227 228 216
f 82 97 98 83
f 214 226 227 215
f 140 155 156 141
f 1658 1701 1702 1659
f 1675 1716 1717 1676
f 291 304 305 292
f 578 595 597 596
f 179 191 192 180
f 143 158 159 144
f 1220 1246 1247 1221
f 1577 1617 1618 1578
f 413 428 429 414
f 497 517 518 498
f 1146 1167 1169 1148
f 66 80 81 67
f 1716 1758 1759 1717
f 172 174 173 162
f 373 388 389 375
f 581 599 598 580
f 287 300 301 288
f 125 140 141 126
f 199 212 211 198
f 197 199 198 186
f 1393 1424 1425 1394
f 929 948 947 928
f 1833 1872 1874 1873
f 1670 1672 1671 1628
f 653 669 670 654
f 261 273 272 260
f 1154 1174 1173 1153
f 406 420 421 407
f 296 307 309 295
f 1830 1831 1833 1832
f 613 628 629 614
f 269 281 282 270
f 167 180 181 168
f 181 193 194 182
f 1235 1260 1261 1236
f 183 195 196 184
f 1156 1176 1177 1157
f 873 891 892 874
f 489 510 511 490
f 173 185 187 175
f 190 204 205 191
f 527 547 548 528
f 192 206 207 193
f 1162 1182 1183 1163
f 395 407 408 396
f 1113 1132 1134 1114
f 185 200 201 187
f 141 156 157 142
f 176 188 189 177
f 164 177 178 165
f 1379 1410 1411 1380
f 266 278 279 267
f 333 344 345 334
f 1178 1204 1205 1179
f 106 120 122 105
f 182 194 195 183
f 180 192 193 181
f 288 301 302 289
f 1794 1837 1838 1796
f 207 220 221 208
f 319 330 332 321
f 341 351 353 343
f 211 223 225 213
f 158 169 170 159
f 175 187 188 176
f 1682 1721 1722 1683
f 98 112 113 99
f 451 469 470 452
f 357 368 369 358
f 327 338 339 328
f 35 43 45 37
f 1212 1238 1239 1213
f 435 453 454 436
f 277 288 289 278
f 351 363 364 353
f 1121 1141 1142 1122
f 1347 1380 1381 1348
f 111 127 128 112
f 280 291 292 281
f 283 297 298 285
f 563 580 582 562
f 365 379 380 366
f 367 381 382 368
f 594 612 613 595
f 228 240 241 229
f 1204 1230 1231 1205
f 323 334 335 324
f 421 436 437 422
f 1129 1151 1152 1130
f 1346 1379 1380 1347
f 195 209 210 196
f 1341 1374 1373 1340
f 2056 2080 2081 2055
f 539 557 558 540
f 2050 2073 2074 2051
f 295 309 310 297
f 253 265 266 254
f 1898 1941 1942 1899
f 391 403 404 392
f 1196 1222 1223 1197
f 362 375 376 361
f 1337 1371 1372 1338
f 1290 1322 1323 1291
f 392 404 405 393
f 237 251 252 238
f 398 413 414 400
f 1258 1283 1284 1259
f 264 276 277 265
f 331 342 341 330
f 925 944 945 926
f 529 549 550 530
f 537 554 556 538
f 248 260 262 250
f 220 232 233 221
f 1954 1991 1992 1955
f 717 734 735 718
f 477 498 499 479
f 431 449 450 432
f 137 152 153 138
f 1267 1292 1293 1269
f 263 275 276 264
f 224 236 235 223
f 449 467 468 450
f 545 563 562 544
f 219 231 232 220
f 294 296 295 284
f 236 248 250 235
f 152 163 164 153
f 618 635 636 619
f 1193 1220 1221 1195
f 170 183 184 171
f 463 484 485 464
f 8 14 15 10
f 1170 1197 1198 1171
f 1797 1839 1840 1798
f 1069 1092 1093 1070
f 429 447 448 430
f 487 508 509 488
f 114 130 132 116
f 278 289 290 279
f 311 323 324 312
f 1767 1805 1806 1768
f 541 559 560 542
f 595 613 614 597
f 495 514 516 496
f 1605 1644 1645 1606
f 390 402 403 391
f 268 280 281 269
f 1223 1249 1250 1224
f 802 820 821 803
f 699 718 719 700
f 610 625 626 611
f 227 239 240 228
f 377 391 392 378
f 15 22 23 17
f 1042 1063 1064 1043
f 683 699 700 684
f 573 591 592 574
f 1609 1648 1649 1610
f 1778 1816 1817 1779
f 405 419 420 406
f 519 540 541 520
f 970 988 990 971
f 1229 1254 1255 1230
f 289 302 303 290
f 439 457 458 441
f 325 336 337 326
f 1700 1739 1740 1701
f 621 638 639 622
f 1601 1640 1641 1602
f 1157 1177 1178 1158
f 1571 1611 1612 1572
f 379 393 394 380
f 1418 1453 1454 1419
f 309 321 322 310
f 602 619 620 603
f 252 264 265 253
f 1860 1899 1900 1861
f 971 990 991 972
f 1322 1350 1351 1323
f 1307 1338 1339 1308
f 285 298 299 286
f 343 353 354 344
f 448 466 467 449
f 1625 1663 1665 1664
f 1037 1059 1060 1039
f 194 208 209 195
f 591 609 610 592
f 221 233 234 222
f 1315 1343 1344 1316
f 625 640 642 626
f 747 763 765 749
f 385 387 386 374
f 115 131 130 114
f 366 380 381 367
f 335 346 347 336
f 2081 2091 2092 2082
f 316 328 329 317
f 1357 1390 1391 1358
f 186 198 200 185
f 615 632 634 617
f 1365 1367 1366 1334
f 303 316 317 304
f 358 369 370 359
f 1332 1334 1333 1304
f 103 117 118 104
f 1493 1535 1536 1494
f 561 576 578 577
f 623 641 640 625
f 633 648 650 632
f 326 337 338 327
f 1202 1228 1229 1203
f 1945 1982 1983 1946
f 1482 1524 1525 1483
f 695 710 712 711
f 725 741 742 726
f 517 538 539 518
f 238 252 253 239
f 308 320 319 307
f 600 617 618 601
f 732 747 749 731
f 835 855 856 836
f 153 164 165 154
f 719 736 737 720
f 178 190 191 179
f 1385 1416 1417 1386
f 1194 1218 1220 1193
f 1650 1693 1694 1651
f 1948 1985 1986 1949
f 749 765 766 750
f 851 869 868 850
f 889 904 905 890
f 915 916 918 917
f 1435 1469 1470 1436
f 1617 1656 1657 1618
f 923 942 943 924
f 809 825 826 810
f 1333 1368 1369 1335
f 757 773 774 758
f 1665 1707 1708 1667
f 587 605 606 588
f 1353 1386 1387 1354
f 423 438 439 425
f 684 700 701 685
f 783 801 802 784
f 781 797 799 780
f 73 89 90 75
f 542 560 561 543
f 415 430 431 416
f 408 422 423 409
f 1234 1259 1260 1235
f 1045 1066 1065 1044
f 789 807 808 790
f 881 897 898 882
f 458 476 477 460
f 690 706 707 691
f 503 524 526 505
f 400 414 415 401
f 1114 1134 1135 1115
f 445 463 464 446
f 815 832 831 814
f 438 456 457 439
f 430 448 449 431
f 315 327 328 316
f 1218 1244 1246 1220
f 368 382 383 369
f 944 966 967 945
f 337 348 349 338
f 250 262 263 251
f 855 873 874 856
f 1273 1307 1308 1274
f 526 546 547 527
f 348 358 359 349
f 1770 1808 1809 1771
f 1826 1867 1868 1827
f 1789 1827 1828 1790
f 733 750 751 734
f 831 852 853 833
f 709 726 727 710
f 1210 1236 1237 1211
f 1916 1957 1958 1918
f 403 417 418 404
f 1733 1773 1774 1734
f 1649 1692 1693 1650
f 299 312 313 300
f 642 656 658 643
f 1207 1233 1234 1208
f 1356 1389 1390 1357
f 130 148 147 132
f 1284 1316 1317 1285
f 869 885 887 868
f 1419 1454 1455 1420
f 324 335 336 325
f 1281 1313 1314 1282
f 155 166 167 156
f 1091 1113 1114 1092
f 885 900 902 887
f 791 809 810 792
f 634 651 652 635
f 592 610 611 593
f 479 499 500 481
f 1900 1943 1944 1901
f 65 79 80 66
f 579 581 580 563
f 1274 1308 1309 1275
f 469 490 491 470
f 758 774 775 759
f 471 492 493 472
f 1340 1373 1375 1342
f 437 455 456 438
f 1195 1221 1222 1196
f 935 954 955 936
f 461 482 484 463
f 1427 1428 1430 1429
f 447 465 466 448
f 496 516 517 497
f 1444 1477 1478 1445
f 515 536 535 514
f 913 933 934 914
f 502 521 523 522
f 399 411 413 398
f 488 509 510 489
f 453 471 472 454
f 1187 1212 1213 1189
f 1597 1635 1637 1598
f 975 994 995 976
f 255 267 268 256
f 845 863 864 846
f 657 673 672 656
f 965 985 986 966
f 1191 1214 1216 1215
f 218 230 231 219
f 494 515 514 495
f 485 506 507 486
f 1754 1794 1796 1753
f 1179 1205 1206 1180
f 933 952 953 934
f 991 1009 1010 992
f 355 366 367 356
f 462 483 482 461
f 2037 2062 2063 2038
f 1673 1714 1715 1674
f 1153 1173 1175 1155
f 682 698 699 683
f 1298 1299 1301 1300
f 1396 1426 1428 1427
f 265 277 278 266
f 893 908 910 895
f 1217 1219 1218 1194
f 1893 1936 1937 1894
f 959 961 960 940
f 669 686 687 670
f 658 674 675 659
f 921 940 939 920
f 1746 1786 1787 1747
f 1621 1660 1661 1622
f 1087 1109 1110 1088
f 565 584 585 566
f 558 573 574 559
f 1410 1445 1446 1411
f 1380 1411 1412 1381
f 166 179 180 167
f 557 572 573 558
f 1095 1117 1118 1096
f 1523 1558 1559 1524
f 735 752 753 736
f 568 587 588 569
f 603 620 621 604
f 1259 1284 1285 1260
f 314 326 327 315
f 1377 1408 1409 1378
f 549 567 568 550
f 575 593 594 576
f 560 575 576 561
f 1936 1973 1974 1937
f 254 266 267 255
f 899 914 916 915
f 567 586 587 568
f 750 766 767 751
f 528 548 549 529
f 426 445 446 428
f 1588 1629 1630 1590
f 1077 1099 1100 1079
f 905 926 927 906
f 660 676 677 661
f 731 749 750 733
f 334 345 346 335
f 1109 1130 1131 1110
f 1127 1149 1150 1128
f 661 677 678 663
f 1451 1484 1485 1452
f 464 485 486 465
f 727 743 744 728
f 450 468 469 451
f 262 274 275 263
f 1117 1137 1138 1118
f 1159 1179 1180 1160
f 202 215 216 203
f 396 408 409 397
f 371 374 373 372
f 1355 1388 1389 1356
f 585 603 604 586
f 1167 1195 1196 1169
f 387 399 398 386
f 428 446 447 429
f 1858 1897 1898 1859
f 1850 1889 1890 1851
f 1411 1446 1447 1412
f 330 341 343 332
f 1689 1728 1729 1690
f 363 377 378 364
f 728 744 745 730
f 470 491 492 471
f 1189 1213 1214 1191
f 1103 1124 1126 1105
f 1005 1022 1023 1006
f 590 608 607 589
f 514 535 537 516
f 1420 1455 1456 1421
f 422 437 438 423
f 1197 1223 1224 1198
f 1705 1744 1745 1706
f 645 660 661 646
f 582 600 601 583
f 1163 1183 1184 1164
f 632 650 651 634
f 646 661 663 662
f 281 292 293 282
f 436 454 455 437
f 637 654 655 638
f 1713 1753 1755 1712
f 554 571 570 556
f 1556 1595 1597 1557
f 1499 1540 1541 1501
f 691 707 708 692
f 49 67 68 50
f 629 645 646 631
f 720 737 738 721
f 678 693 695 694
f 1261 1286 1287 1262
f 1263 1288 1289 1264
f 589 607 609 591
f 742 757 758 743
f 86 100 102 88
f 1834 1836 1835 1795
f 1476 1517 1519 1477
f 1269 1293 1295 1294
f 1271 1303 1305 1270
f 525 545 544 524
f 674 688 690 675
f 1587 1589 1588 1548
f 1500 1501 1503 1502
f 446 464 465 447
f 1237 1262 1263 1238
f 1287 1319 1320 1288
f 419 434 435 420
f 887 902 903 888
f 1227 1251 1253 1228
f 1467 1509 1511 1466
f 1786 1824 1825 1787
f 126 141 142 127
f 1205 1231 1232 1206
f 1303 1335 1336 1305
f 1169 1196 1197 1170
f 872 890 891 873
f 177 189 190 178
f 1053 1074 1075 1055
f 1769 1807 1808 1770
f 677 692 693 678
f 1507 1544 1546 1545
f 1452 1485 1486 1453
f 891 906 907 892
f 361 376 377 363
f 441 458 460 459
f 797 816 817 799
f 666 683 684 667
f 412 427 426 411
f 696 716 717 698
f 1897 1940 1941 1898
f 1247 1273 1274 1248
f 298 311 312 299
f 7 8 10 9
f 679 681 680 665
f 688 704 706 690
f 1651 1694 1695 1652
f 1343 1376 1377 1344
f 1373 1404 1406 1375
f 701 720 721 702
f 1491 1533 1534 1492
f 647 649 648 633
f 664 682 683 666
f 1397 1434 1435 1399
f 693 709 710 695
f 718 735 736 719
f 607 624 623 609
f 1802 1843 1842 1801
f 1387 1418 1419 1388
f 1375 1406 1407 1376
f 1413 1448 1449 1414
f 813 815 814 798
f 710 727 728 712
f 1282 1314 1315 1283
f 1484 1526 1527 1485
f 1211 1237 1238 1212
f 1383 1414 1415 1384
f 609 623 625 610
f 427 443 445 426
f 654 670 671 655
f 452 470 471 453
f 784 802 803 785
f 982 1002 1003 983
f 417 432 433 418
f 1257 1282 1283 1258
f 467 488 489 468
f 550 568 569 551
f 1657 1700 1701 1658
f 1921 1960 1962 1920
f 1477 1519 1520 1478
f 242 256 257 243
f 414 429 430 415
f 879 895 896 880
f 864 881 882 865
f 995 1013 1014 996
f 1485 1527 1528 1486
f 1407 1442 1443 1408
f 997 1015 1016 999
f 1447 1480 1481 1448
f 102 116 117 103
f 775 790 791 776
f 1468 1512 1513 1469
f 890 905 906 891
f 1455 1488 1489 1456
f 601 618 619 602
f 443 461 463 445
f 910 930 931 911
f 767 784 785 768
f 768 785 786 769
f 1683 1722 1723 1684
f 773 787 789 774
f 810 826 827 811
f 765 782 783 766
f 759 775 776 760
f 752 768 769 753
f 1659 1702 1703 1660
f 926 945 946 927
f 741 755 757 742
f 871 889 890 872
f 856 874 875 857
f 1819 1860 1861 1820
f 1738 1778 1779 1739
f 1509 1547 1549 1511
f 1017 1039 1040 1019
f 1306 1337 1338 1307
f 68 82 83 69
f 1818 1859 1860 1819
f 1870 1909 1910 1871
f 1699 1738 1739 1700
f 1525 1560 1561 1526
f 1391 1422 1423 1392
f 484 505 506 485
f 1803 1844 1845 1804
f 1540 1575 1576 1541
f 1963 2000 2001 1964
f 1182 1208 1209 1183
f 1581 1582 1584 1583
f 1737 1777 1778 1738
f 714 731 733 716
f 1602 1641 1642 1603
f 1810 1851 1852 1811
f 863 880 881 864
f 1635 1680 1679 1637
f 1118 1138 1139 1119
f 1549 1591 1592 1550
f 409 423 425 424
f 476 497 498 477
f 1027 1046 1047 1028
f 1787 1825 1826 1788
f 1241 1266 1267 1243
f 1551 1593 1594 1552
f 507 528 529 508
f 902 923 924 903
f 1524 1559 1560 1525
f 402 416 417 403
f 2078 2088 2090 2080
f 1575 1615 1616 1576
f 306 308 307 296
f 846 864 865 848
f 1199 1225 1227 1201
f 832 850 852 831
f 1771 1809 1810 1772
f 1591 1631 1632 1592
f 1185 1211 1212 1187
f 830 846 848 847
f 468 489 490 469
f 824 841 842 825
f 244 258 259 245
f 844 862 863 845
f 981 1001 1000 980
f 964 984 985 965
f 1569 1609 1610 1570
f 839 859 858 841
f 800 818 819 801
f 116 132 133 117
f 1090 1112 1111 1089
f 1086 1108 1109 1087
f 823 840 839 822
f 736 753 754 737
f 1314 1342 1343 1315
f 1350 1383 1384 1351
f 878 893 895 879
f 491 512 513 492
f 799 817 818 800
f 616 633 632 615
f 404 418 419 405
f 1294 1295 1297 1296
f 273 284 283 272
f 1547 1590 1591 1549
f 861 878 879 862
f 105 122 123 107
f 1065 1090 1089 1067
f 132 147 149 133
f 1142 1162 1163 1143
f 1225 1252 1251 1227
f 1161 1181 1182 1162
f 524 544 546 526
f 853 871 872 854
f 1655 1698 1699 1656
f 870 888 889 871
f 1681 1719 1721 1682
f 1000 1017 1019 1002
f 1394 1425 1426 1396
f 1177 1203 1204 1178
f 1663 1706 1707 1665
f 862 879 880 863
f 1039 1060 1061 1040
f 1922 1963 1964 1923
f 1362 1393 1394 1364
f 798 814 816 797
f 1687 1726 1727 1688
f 822 839 841 824
f 559 574 575 560
f 896 911 912 897
f 1478 1520 1521 1479
f 416 431 432 417
f 1711 1749 1751 1750
f 973 992 993 974
f 746 748 747 732
f 231 243 244 232
f 1852 1891 1892 1853
f 89 103 104 90
f 1693 1732 1733 1694
f 1719 1761 1760 1721
f 290 303 304 291
f 1611 1650 1651 1612
f 1402 1438 1439 1403
f 992 1010 1011 993
f 1566 1606 1607 1567
f 903 924 925 904
f 1745 1785 1786 1746
f 457 475 476 458
f 909 929 928 908
f 1417 1452 1453 1418
f 919 921 920 901
f 1866 1905 1906 1867
f 1629 1674 1675 1630
f 274 285 286 275
f 1070 1093 1094 1071
f 1031 1050 1051 1032
f 1580 1620 1621 1582
f 956 976 977 958
f 1923 1964 1965 1924
f 1845 1885 1884 1846
f 1490 1532 1533 1491
f 1595 1636 1635 1597
f 1519 1555 1554 1520
f 2057 2082 2083 2058
f 1686 1725 1726 1687
f 1757 1799 1800 1758
f 1535 1570 1571 1536
f 531 551 552 532
f 942 964 965 943
f 976 995 996 977
f 1574 1614 1615 1575
f 1765 1803 1804 1766
f 1714 1756 1757 1715
f 949 968 970 950
f 934 953 954 935
f 1354 1387 1388 1355
f 1200 1226 1225 1199
f 1546 1580 1582 1581
f 482 503 505 484
f 941 963 964 942
f 1009 1026 1027 1010
f 1062 1087 1088 1063
f 556 570 572 557
f 968 989 988 970
f 988 1008 1007 990
f 1847 1886 1887 1848
f 762 777 779 778
f 1015 1032 1033 1016
f 960 980 982 962
f 842 860 861 843
f 1454 1487 1488 1455
f 321 332 333 322
f 1871 1910 1911 1872
f 901 920 922 900
f 1116 1136 1137 1117
f 952 972 973 953
f 2019 2047 2048 2020
f 1821 1862 1863 1822
f 1919 1921 1920 1877
f 805 823 822 807
f 928 947 949 930
f 548 566 567 549
f 1570 1610 1611 1571
f 2054 2056 2055 2032
f 1829 1870 1871 1831
f 985 1005 1006 986
f 685 701 702 686
f 1643 1686 1687 1644
f 540 558 559 541
f 1080 1082 1081 1058
f 1823 1864 1865 1824
f 1979 2014 2015 1980
f 796 798 797 781
f 777 792 793 779
f 1935 1972 1973 1936
f 635 652 653 636
f 1890 1933 1934 1891
f 201 214 215 202
f 1773 1811 1812 1774
f 1943 1980 1981 1944
f 617 634 635 618
f 1409 1444 1445 1410
f 1007 1024 1026 1009
f 1652 1695 1696 1653
f 159 170 171 160
f 1041 1062 1063 1042
f 1961 1996 1998 1960
f 1422 1457 1458 1423
f 1141 1161 1162 1142
f 983 1003 1004 984
f 1184 1210 1211 1185
f 947 969 968 949
f 44 62 61 43
f 378 392 393 379
f 1801 1842 1844 1803
f 1627 1673 1674 1629
f 943 965 966 944
f 1628 1671 1673 1627
f 1772 1810 1811 1773
f 2035 2060 2061 2036
f 1901 1944 1945 1902
f 1785 1823 1824 1786
f 1029 1048 1049 1030
f 1370 1401 1402 1371
f 2023 2051 2052 2024
f 1056 1058 1057 1038
f 20 28 29 21
f 1732 1772 1773 1733
f 649 665 664 648
f 2031 2057 2058 2033
f 1021 1042 1043 1022
f 1030 1049 1050 1031
f 2034 2059 2060 2035
f 1289 1321 1322 1290
f 1983 2018 2019 1984
f 1125 1147 1146 1124
f 1014 1031 1032 1015
f 604 621 622 605
f 1032 1051 1052 1033
f 1324 1352 1353 1325
f 1950 1987 1988 1951
f 1973 2008 2009 1974
f 322 333 334 323
f 1697 1736 1737 1698
f 36 44 43 35
f 91 105 107 93
f 1989 2024 2025 1990
f 1951 1988 1989 1952
f 627 643 644 628
f 57 58 60 59
f 1183 1209 1210 1184
f 1766 1804 1805 1767
f 2012 2041 2040 2013
f 2029 2032 2031 2030
f 1857 1896 1897 1858
f 1265 1290 1291 1266
f 918 936 938 937
f 572 589 591 573
f 1660 1703 1704 1661
f 3 11 13 6
f 1462 1495 1496 1463
f 1949 1986 1987 1950
f 56 71 70 55
f 1176 1202 1203 1177
f 1079 1100 1102 1101
f 117 133 134 118
f 1481 1523 1524 1482
f 1876 1922 1923 1878
f 425 439 441 440
f 1293 1325 1326 1295
f 1071 1094 1095 1072
f 301 314 315 302
f 1653 1696 1697 1654
f 2061 2086 2087 2062
f 88 102 103 89
f 611 626 627 612
f 1465 1497 1499 1498
f 1175 1201 1202 1176
f 1906 1949 1950 1907
f 203 216 217 204
f 127 142 143 128
f 1978 2013 2014 1979
f 1093 1115 1116 1094
f 120 135 137 122
f 1715 1757 1758 1716
f 1386 1417 1418 1387
f 1096 1118 1119 1097
f 187 201 202 188
f 128 143 144 129
f 1433 1467 1466 1432
f 636 653 654 637
f 1168 1193 1195 1167
f 1932 1968 1970 1933
f 188 202 203 189
f 665 680 682 664
f 1001 1018 1017 1000
f 1085 1107 1108 1086
f 1674 1715 1716 1675
f 1378 1409 1410 1379
f 1364 1394 1396 1395
f 1305 1336 1337 1306
f 223 235 237 225
f 64 78 79 65
f 1061 1086 1087 1062
f 898 913 914 899
f 191 205 206 192
f 347 357 358 348
f 54 55 58 57
f 200 213 214 201
f 338 349 350 339
f 1134 1153 1155 1135
f 328 339 340 329
f 1684 1723 1724 1685
f 226 238 239 227
f 135 150 152 137
f 46 64 65 47
f 208 221 222 209
f 1126 1148 1149 1127
f 23 31 32 25
f 168 181 182 169
f 1488 1530 1531 1489
f 1676 1717 1718 1677
f 620 637 638 621
f 411 426 428 413
f 375 389 390 376
f 1246 1272 1273 1247
f 659 675 676 660
f 1143 1163 1164 1145
f 1160 1180 1181 1161
f 547 565 566 548
f 372 373 375 362
f 70 86 88 72
f 240 254 255 241
f 1209 1235 1236 1210
f 1174 1200 1199 1173
f 1135 1155 1156 1136
f 1128 1150 1151 1129
f 499 519 520 500
f 6 13 14 8
f 1285 1317 1318 1286
f 1111 1133 1132 1113
f 475 496 497 476
f 300 313 314 301
f 483 504 503 482
f 1321 1349 1350 1322
f 272 283 285 274
f 643 658 659 644
f 1072 1095 1096 1073
f 1047 1068 1069 1048
f 241 255 256 242
f 356 367 368 357
f 706 722 724 707
f 256 268 269 257
f 1181 1207 1208 1182
f 826 843 844 827
f 895 910 911 896
f 1008 1025 1024 1007
f 651 667 668 652
f 332 343 344 333
f 142 157 158 143
f 1825 1866 1867 1826
f 1173 1199 1201 1175
f 1707 1746 1747 1708
f 1724 1764 1765 1725
f 1345 1378 1379 1346
f 455 473 474 456
f 1690 1729 1730 1691
f 667 684 685 668
f 818 835 836 819
f 535 555 554 537
f 707 724 725 708
f 174 186 185 173
f 1849 1888 1889 1850
f 1277 1311 1310 1279
f 1414 1449 1450 1415
f 1359 1360 1362 1361
f 1256 1281 1282 1257
f 434 452 453 435
f 407 421 422 408
f 198 211 213 200
f 980 1000 1002 982
f 354 365 366 355
f 1691 1730 1731 1692
f 1498 1499 1501 1500
f 1985 2020 2021 1986
f 819 836 837 820
f 206 219 220 207
f 1221 1247 1248 1222
f 977 996 997 979
f 1222 1248 1249 1223
f 1244 1270 1272 1246
f 1336 1370 1371 1337
f 779 793 795 794
f 713 715 714 697
f 346 356 357 347
f 1214 1240 1241 1216
f 972 991 992 973
f 2018 2046 2047 2019
f 715 732 731 714
f 279 290 291 280
f 150 161 163 152
f 1186 1187 1189 1188
f 1589 1627 1629 1588
f 1166 1185 1187 1186
f 1327 1355 1356 1328
f 1240 1265 1266 1241
f 619 636 637 620
f 31 40 41 32
f 286 299 300 287
f 675 690 691 676
f 993 1011 1012 994
f 1216 1241 1243 1242
f 380 394 395 381
f 1747 1787 1788 1748
f 676 691 692 677
f 1457 1490 1491 1458
f 1328 1356 1357 1329
f 307 319 321 309
f 599 616 615 598
f 1253 1277 1279 1254
f 716 733 734 717
f 1946 1983 1984 1947
f 1348 1381 1382 1349
f 500 520 521 502
f 302 315 316 303
f 1709 1748 1749 1711
f 1245 1271 1270 1244
f 1723 1763 1764 1724
f 1319 1347 1348 1320
f 1756 1798 1799 1757
f 1099 1121 1122 1100
f 511 532 533 512
f 313 325 326 314
f 432 450 451 433
f 1213 1239 1240 1214
f 692 708 709 693
f 1051 1072 1073 1052
f 342 352 351 341
f 1149 1170 1171 1150
f 257 269 270 258
f 1938 1975 1976 1939
f 1479 1521 1522 1480
f 22 30 31 23
f 807 822 824 808
f 1612 1651 1652 1613
f 1480 1522 1523 1481
f 1123 1143 1145 1144
f 751 767 768 752
f 374 386 388 373
f 162 173 175 161
f 763 780 782 765
f 1731 1771 1772 1732
f 700 719 720 701
f 1740 1780 1781 1741
f 1107 1128 1129 1108
f 508 529 530 509
f 382 396 397 383
f 472 493 494 473
f 1233 1258 1259 1234
f 1270 1305 1306 1272
f 1295 1326 1327 1297
f 1304 1333 1335 1303
f 17 23 25 24
f 1361 1362 1364 1363
f 1279 1310 1312 1280
f 1299 1328 1329 1301
f 1437 1471 1472 1438
f 1302 1304 1303 1271
f 410 412 411 399
f 1255 1280 1281 1256
f 1288 1320 1321 1289
f 1283 1315 1316 1284
f 1325 1353 1354 1326
f 504 525 524 503
f 1755 1797 1798 1756
f 1458 1491 1492 1459
f 1296 1297 1299 1298
f 626 642 643 627
f 865 882 883 867
f 1953 1990 1991 1954
f 512 533 534 513
f 1317 1345 1346 1318
f 1398 1432 1434 1397
f 764 781 780 763
f 1962 1999 2000 1963
f 1371 1402 1403 1372
f 951 971 972 952
f 586 604 605 587
f 1073 1096 1097 1074
f 1421 1456 1457 1422
f 882 898 899 883
f 1796 1838 1839 1797
f 652 668 669 653
f 544 562 564 546
f 1729 1769 1770 1730
f 1342 1375 1376 1343
f 1504 1505 1507 1506
f 1483 1525 1526 1484
f 644 659 660 645
f 454 472 473 455
f 858 877 876 860
f 394 406 407 395
f 1471 1515 1516 1472
f 1780 1818 1819 1781
f 1459 1492 1493 1460
f 628 644 645 629
f 650 666 667 651
f 880 896 897 881
f 755 771 773 757
f 850 868 870 852
f 748 764 763 747
f 1788 1826 1827 1789
f 1531 1566 1567 1532
f 1119 1139 1140 1120
f 486 507 508 487
f 576 594 595 578
f 386 398 400 388
f 1763 1802 1801 1764
f 1367 1398 1397 1366
f 1360 1392 1393 1362
f 129 144 146 145
f 1055 1075 1077 1076
f 1145 1164 1166 1165
f 510 531 532 511
f 1351 1384 1385 1352
f 1374 1405 1404 1373
f 1573 1613 1614 1574
f 1463 1496 1497 1465
f 2017 2045 2046 2018
f 1645 1688 1689 1646
f 911 931 932 912
f 520 541 542 521
f 1366 1397 1399 1368
f 1450 1483 1484 1451
f 1456 1489 1490 1457
f 833 853 854 834
f 583 601 602 584
f 518 539 540 519
f 352 361 363 351
f 739 756 755 741
f 1334 1366 1368 1333
f 812 828 830 829
f 1408 1443 1444 1409
f 1603 1642 1643 1604
f 1913 1914 1916 1915
f 745 760 762 761
f 640 657 656 642
f 1389 1420 1421 1390
f 1262 1287 1288 1263
f 1442 1474 1476 1443
f 1400 1436 1437 1401
f 914 934 935 916
f 828 845 846 830
f 648 664 666 650
f 1094 1116 1117 1095
f 1667 1708 1709 1669
f 1970 2004 2006 1971
f 1266 1291 1292 1267
f 225 237 238 226
f 233 245 246 234
f 1381 1412 1413 1382
f 1851 1890 1891 1852
f 2040 2065 2064 2042
f 788 806 805 787
f 697 714 716 696
f 680 696 698 682
f 1349 1382 1383 1350
f 849 851 850 832
f 1751 1790 1792 1791
f 1804 1845 1846 1805
f 1779 1817 1818 1780
f 1399 1435 1436 1400
f 598 615 617 600
f 704 723 722 706
f 787 805 807 789
f 1550 1592 1593 1551
f 780 799 800 782
f 1432 1466 1468 1434
f 1739 1779 1780 1740
f 820 837 838 821
f 614 629 631 630
f 712 728 730 729
f 1249 1275 1276 1250
f 994 1012 1013 995
f 1423 1458 1459 1424
f 1795 1835 1837 1794
f 1231 1256 1257 1232
f 521 542 543 523
f 1446 1479 1480 1447
f 1424 1459 1460 1425
f 1937 1974 1975 1938
f 574 592 593 575
f 860 876 878 861
f 776 791 792 777
f 1864 1903 1904 1865
f 1438 1472 1473 1439
f 1415 1450 1451 1416
f 1583 1584 1586 1585
f 566 585 586 567
f 1565 1605 1606 1566
f 1542 1577 1578 1543
f 1431 1433 1432 1398
f 1392 1423 1424 1393
f 1579 1619 1620 1580
f 1495 1537 1538 1496
f 686 702 703 687
f 473 494 495 474
f 771 788 787 773
f 922 941 942 923
f 1335 1369 1370 1336
f 1344 1377 1378 1345
f 1899 1942 1943 1900
f 908 928 930 910
f 726 742 743 727
f 816 833 834 817
f 1461 1494 1495 1462
f 1835 1878 1879 1837
f 868 887 888 870
f 1208 1234 1235 1209
f 1867 1906 1907 1868
f 734 751 752 735
f 1453 1486 1487 1454
f 836 856 857 837
f 1947 1984 1985 1948
f 1369 1400 1401 1370
f 1561 1601 1602 1562
f 1557 1597 1598 1558
f 1538 1573 1574 1539
f 888 903 904 889
f 1854 1893 1894 1855
f 932 951 952 933
f 1607 1646 1647 1608
f 1664 1665 1667 1666
f 4 12 11 3
f 1679 1720 1719 1681
f 1443 1476 1477 1444
f 1496 1538 1539 1497
f 811 827 828 812
f 1702 1741 1742 1703
f 961 981 980 960
f 11 18 20 13
f 2059 2084 2085 2060
f 953 973 974 954
f 478 479 481 480
f 848 865 867 866
f 843 861 862 844
f 1827 1868 1869 1828
f 1511 1549 1550 1512
f 389 401 402 390
f 1955 1992 1993 1956
f 1527 1562 1563 1528
f 1219 1245 1244 1218
f 1905 1948 1949 1906
f 418 433 434 419
f 1510 1548 1547 1509
f 1503 1542 1543 1505
f 77 92 91 76
f 1239 1264 1265 1240
f 1599 1638 1639 1600
f 570 590 589 572
f 792 810 811 793
f 886 901 900 885
f 827 844 845 828
f 1494 1536 1537 1495
f 1474 1518 1517 1476
f 1004 1021 1022 1005
f 1436 1470 1471 1437
f 1541 1576 1577 1542
f 1470 1514 1515 1471
f 884 886 885 869
f 1616 1655 1656 1617
f 1777 1815 1816 1778
f 1839 1881 1882 1840
f 894 909 908 893
f 1889 1932 1933 1890
f 1533 1568 1569 1534
f 1614 1653 1654 1615
f 1466 1511 1512 1468
f 154 165 166 155
f 1563 1603 1604 1564
f 1092 1114 1115 1093
f 854 872 873 855
f 161 175 176 163
f 1501 1541 1542 1503
f 1939 1976 1977 1940
f 1743 1783 1784 1744
f 1892 1935 1936 1893
f 1035 1053 1055 1054
f 1028 1047 1048 1029
f 1 4 3 2
f 465 486 487 466
f 1915 1916 1918 1917
f 58 72 73 60
f 1084 1106 1107 1085
f 1060 1085 1086 1061
f 1445 1478 1479 1446
f 1323 1351 1352 1324
f 1497 1539 1540 1499
f 852 870 871 853
f 1600 1639 1640 1601
f 1722 1762 1763 1723
f 950 970 971 951
f 1301 1329 1331 1330
f 1694 1733 1734 1695
f 1567 1607 1608 1568
f 1792 1829 1831 1830
f 276 287 288 277
f 1098 1120 1121 1099
f 958 977 979 978
f 984 1004 1005 985
f 1013 1030 1031 1014
f 1859 1898 1899 1860
f 1559 1599 1600 1560
f 1592 1632 1633 1593
f 393 405 406 394
f 1903 1946 1947 1904
f 466 487 488 467
f 766 783 784 767
f 456 474 475 457
f 1590 1630 1631 1591
f 1543 1578 1579 1544
f 1584 1622 1623 1586
f 284 295 297 283
f 1807 1848 1849 1808
f 990 1007 1009 991
f 920 939 941 922
f 490 511 512 491
f 1582 1621 1622 1584
f 1530 1565 1566 1531
f 260 272 274 262
f 1576 1616 1617 1577
f 1132 1154 1153 1134
f 962 982 983 963
f 1040 1061 1062 1041
f 1038 1057 1059 1037
f 76 91 93 78
f 1891 1934 1935 1892
f 1793 1795 1794 1754
f 1544 1579 1580 1546
f 1046 1067 1068 1047
f 1203 1229 1230 1204
f 1931 1969 1968 1932
f 1647 1690 1691 1648
f 2 3 6 5
f 100 114 116 102
f 80 95 96 81
f 1619 1658 1659 1620
f 1048 1069 1070 1049
f 25 32 34 33
f 954 974 975 955
f 1735 1775 1776 1736
f 1924 1965 1966 1925
f 460 477 479 478
f 1228 1253 1254 1229
f 966 986 987 967
f 1914 1956 1957 1916
f 1401 1437 1438 1402
f 2046 2069 2070 2047
f 1639 1682 1683 1640
f 481 500 502 501
f 444 462 461 443
f 216 228 229 217
f 1106 1127 1128 1107
f 1692 1731 1732 1693
f 939 962 963 941
f 1907 1950 1951 1908
f 1631 1676 1677 1632
f 388 400 401 389
f 1150 1171 1172 1151
f 1329 1357 1358 1331
f 1784 1822 1823 1785
f 1623 1662 1663 1625
f 532 552 553 533
f 1254 1279 1280 1255
f 834 854 855 835
f 1192 1194 1193 1168
f 1727 1767 1768 1728
f 516 537 538 517
f 232 244 245 233
f 1206 1232 1233 1207
f 1136 1156 1157 1137
f 1853 1892 1893 1854
f 1646 1689 1690 1647
f 1522 1557 1558 1523
f 1908 1951 1952 1909
f 612 627 628 613
f 1188 1189 1191 1190
f 1230 1255 1256 1231
f 1120 1140 1141 1121
f 1730 1770 1771 1731
f 1638 1681 1682 1639
f 940 960 962 939
f 1656 1699 1700 1657
f 580 598 600 582
f 48 66 67 49
f 1238 1263 1264 1239
f 1331 1358 1360 1359
f 1669 1709 1711 1710
f 1622 1661 1662 1623
f 1514 1552 1553 1515
f 1648 1691 1692 1649
f 564 583 584 565
f 1815 1856 1857 1816
f 793 811 812 795
f 1977 2012 2013 1978
f 1661 1704 1705 1662
f 320 331 330 319
f 1776 1814 1815 1777
f 420 435 436 421
f 2082 2092 2093 2083
f 97 111 112 98
f 169 182 183 170
f 1251 1278 1277 1253
f 924 943 944 925
f 55 70 72 58
f 708 725 726 709
f 1406 1440 1442 1407
f 297 310 311 298
f 42 50 52 51
f 1558 1598 1599 1559
f 1703 1742 1743 1704
f 1956 1993 1994 1957
f 756 772 771 755
f 1685 1724 1725 1686
f 1286 1318 1319 1287
f 1280 1312 1313 1281
f 841 858 860 842
f 1995 1997 1996 1961
f 1695 1734 1735 1696
f 2058 2083 2084 2059
f 724 739 741 725
f 790 808 809 791
f 1318 1346 1347 1319
f 1312 1341 1340 1313
f 979 997 999 998
f 1537 1572 1573 1538
f 1671 1712 1714 1673
f 2024 2052 2053 2025
f 916 935 936 918
f 1388 1419 1420 1389
f 785 803 804 786
f 1320 1348 1349 1321
f 369 383 384 370
f 1615 1654 1655 1616
f 900 922 923 902
f 584 602 603 585
f 2022 2050 2051 2023
f 1449 1482 1483 1450
f 1057 1083 1084 1059
f 955 975 976 956
f 1382 1413 1414 1383
f 1264 1289 1290 1265
f 963 983 984 964
f 1513 1551 1552 1514
f 1487 1529 1530 1488
f 1940 1977 1978 1941
f 63 76 78 64
f 1404 1441 1440 1406
f 1390 1421 1422 1391
f 1376 1407 1408 1377
f 1749 1789 1790 1751
f 876 894 893 878
f 1809 1850 1851 1810
f 1736 1776 1777 1737
f 1875 1877 1876 1836
f 1613 1652 1653 1614
f 1358 1391 1392 1360
f 1368 1399 1400 1369
f 1741 1781 1782 1742
f 1742 1782 1783 1743
f 1598 1637 1638 1599
f 1728 1768 1769 1729
f 1991 2026 2027 1992
f 1460 1493 1494 1461
f 1326 1354 1355 1327
f 1049 1070 1071 1050
f 1837 1879 1880 1838
f 1734 1774 1775 1735
f 1704 1743 1744 1705
f 1846 1884 1886 1847
f 672 689 688 674
f 1158 1178 1179 1159
f 1508 1510 1509 1467
f 2001 2038 2039 2002
f 474 495 496 475
f 1026 1044 1046 1027
f 1548 1588 1590 1547
f 1610 1649 1650 1611
f 722 740 739 724
f 1440 1475 1474 1442
f 1019 1040 1041 1020
f 1987 2022 2023 1988
f 1887 1930 1931 1888
f 1632 1677 1678 1633
f 1706 1745 1746 1707
f 1532 1567 1568 1533
f 60 73 75 74
f 1448 1481 1482 1449
f 1881 1926 1927 1882
f 1018 1037 1039 1017
f 1618 1657 1658 1619
f 1988 2023 2024 1989
f 1100 1122 1123 1102
f 808 824 825 809
f 1486 1528 1529 1487
f 1416 1451 1452 1417
f 94 108 109 95
f 1010 1027 1028 1011
f 1775 1813 1814 1776
f 18 26 28 20
f 1180 1206 1207 1181
f 744 759 760 745
f 1526 1561 1562 1527
f 1384 1415 1416 1385
f 1003 1020 1021 1004
f 1236 1261 1262 1237
f 1164 1184 1185 1166
f 1534 1569 1570 1535
f 2049 2072 2073 2050
f 433 451 452 434
f 1813 1854 1855 1814
f 1971 2006 2007 1972
f 1879 1924 1925 1880
f 1920 1962 1963 1922
f 1805 1846 1847 1806
f 1814 1855 1856 1815
f 1562 1602 1603 1563
f 107 123 124 108
f 1148 1169 1170 1149
f 1428 1462 1463 1430
f 930 949 950 931
f 1572 1612 1613 1573
f 1781 1819 1820 1782
f 1806 1847 1848 1807
f 1012 1029 1030 1013
f 1824 1865 1866 1825
f 1036 1038 1037 1018
f 360 362 361 352
f 1783 1821 1822 1784
f 1316 1344 1345 1317
f 1725 1765 1766 1726
f 1790 1828 1829 1792
f 1554 1596 1595 1556
f 1816 1857 1858 1817
f 401 415 416 402
f 936 955 956 938
f 1606 1645 1646 1607
f 1568 1608 1609 1569
f 1059 1084 1085 1060
f 1082 1104 1103 1081
f 2079 2089 2088 2078
f 1996 2034 2035 1998
f 1708 1747 1748 1709
f 212 224 223 211
f 353 364 365 354
f 996 1014 1015 997
f 1297 1327 1328 1299
f 10 15 17 16
f 2083 2093 2094 2084
f 1863 1902 1903 1864
f 2044 2067 2068 2045
f 1011 1028 1029 1012
f 1608 1647 1648 1609
f 1529 1564 1565 1530
f 1855 1894 1895 1856
f 19 27 26 18
f 1412 1447 1448 1413
f 1016 1033 1035 1034
f 193 207 208 194
f 81 96 97 82
f 2013 2040 2042 2014
f 2051 2074 2075 2052
f 1831 1871 1872 1833
f 2016 2044 2045 2017
f 801 819 820 802
f 1291 1323 1324 1292
f 1630 1675 1676 1631
f 1536 1571 1572 1537
f 562 582 583 564
f 2043 2066 2067 2044
f 1586 1623 1625 1624
f 2020 2048 2049 2021
f 1492 1534 1535 1493
f 1104 1125 1124 1103
f 1654 1697 1698 1655
f 1672 1713 1712 1671
f 1877 1920 1922 1876
f 1894 1937 1938 1895
f 1044 1065 1067 1046
f 1888 1931 1932 1889
f 1024 1045 1044 1026
f 1688 1727 1728 1689
f 1578 1618 1619 1579
f 760 776 777 762
f 1880 1925 1926 1881
f 904 925 926 905
f 1662 1705 1706 1663
f 1097 1119 1120 1098
f 1869 1908 1909 1870
f 1489 1531 1532 1490
f 1712 1755 1756 1714
f 1067 1089 1091 1068
f 1886 1928 1930 1887
f 2055 2081 2082 2057
f 1469 1513 1514 1470
f 656 672 674 658
f 1748 1788 1789 1749
f 938 956 958 957
f 1744 1784 1785 1745
f 1997 2033 2034 1996
f 1878 1923 1924 1879
f 1020 1041 1042 1021
f 43 61 63 45
f 1292 1324 1325 1293
f 1272 1306 1307 1273
f 1502 1503 1505 1504
f 1768 1806 1807 1769
f 506 527 528 507
f 2014 2042 2043 2015
f 1959 1961 1960 1921
f 5 6 8 7
f 310 322 323 311
f 1836 1876 1878 1835
f 1774 1812 1813 1775
f 1137 1157 1158 1138
f 345 355 356 346
f 1644 1687 1688 1645
f 1984 2019 2020 1985
f 1828 1869 1870 1829
f 1798 1840 1841 1799
f 1696 1735 1736 1697
f 1933 1970 1971 1934
f 2084 2094 2095 2085
f 1812 1853 1854 1813
f 1822 1863 1864 1823
f 505 526 527 506
f 498 518 519 499
f 1074 1097 1098 1075
f 1911 1954 1955 1912
f 45 63 64 46
f 1620 1659 1660 1621
f 2085 2095 2096 2086
f 1838 1880 1881 1839
f 1848 1887 1888 1849
f 1075 1098 1099 1077
f 28 37 38 29
f 2047 2070 2071 2048
f 2060 2085 2086 2061
f 1232 1257 1258 1233
f 1352 1385 1386 1353
f 825 842 843 826
f 249 261 260 248
f 681 697 696 680
f 1058 1081 1083 1057
f 1068 1091 1092 1069
f 1968 2005 2004 1970
f 1083 1105 1106 1084
f 336 347 348 337
f 1981 2016 2017 1982
f 27 36 35 26
f 12 19 18 11
f 1052 1073 1074 1053
f 1952 1989 1990 1953
f 1986 2021 2022 1987
f 1872 1911 1912 1874
f 1965 2002 2003 1966
f 1990 2025 2026 1991
f 1626 1628 1627 1589
f 2000 2037 2038 2001
f 1820 1861 1862 1821
f 1248 1274 1275 1249
f 1782 1820 1821 1783
f 1896 1939 1940 1897
f 1925 1966 1967 1926
f 1982 2017 2018 1983
f 312 324 325 313
f 593 611 612 594
f 1942 1979 1980 1943
f 1808 1849 1850 1809
f 1076 1077 1079 1078
f 546 564 565 547
f 912 932 933 913
f 817 834 835 818
f 1904 1947 1948 1905
f 530 550 551 531
f 2032 2055 2057 2031
f 1564 1604 1605 1565
f 1753 1796 1797 1755
f 1089 1111 1113 1091
f 1139 1159 1160 1140
f 1862 1901 1902 1863
f 2015 2043 2044 2016
f 1512 1550 1551 1513
f 1764 1801 1803 1765
f 1972 2007 2008 1973
f 1902 1945 1946 1903
f 1856 1895 1896 1857
f 1313 1340 1342 1314
f 2048 2071 2072 2049
f 1999 2036 2037 2000
f 1604 1643 1644 1605
f 442 444 443 427
f 1910 1953 1954 1911
f 41 49 50 42
f 78 93 94 79
f 1975 2010 2011 1976
f 1726 1766 1767 1727
f 344 354 355 345
f 376 390 391 377
f 1752 1754 1753 1713
f 1050 1071 1072 1051
f 1960 1998 1999 1962
f 1115 1135 1136 1116
f 2080 2090 2091 2081
